<?xml version="1.0" encoding="UTF-8" standalone="no"?>
<!-- Generator: Adobe Illustrator 17.0.0, SVG Export Plug-In . SVG Version: 6.00 Build 0)  -->

<svg
   xmlns:dc="http://purl.org/dc/elements/1.1/"
   xmlns:cc="http://creativecommons.org/ns#"
   xmlns:rdf="http://www.w3.org/1999/02/22-rdf-syntax-ns#"
   xmlns:svg="http://www.w3.org/2000/svg"
   xmlns="http://www.w3.org/2000/svg"
   xmlns:sodipodi="http://sodipodi.sourceforge.net/DTD/sodipodi-0.dtd"
   xmlns:inkscape="http://www.inkscape.org/namespaces/inkscape"
   version="1.1"
   id="Слой_1"
   x="0px"
   y="0px"
   width="160.42654"
   height="72.495003"
   viewBox="0 0 160.42654 72.495003"
   enable-background="new 0 0 180 147"
   xml:space="preserve"
   inkscape:version="0.91 r13725"
   sodipodi:docname="aqua.svg"><metadata
     id="metadata113"><rdf:RDF><cc:Work
         rdf:about=""><dc:format>image/svg+xml</dc:format><dc:type
           rdf:resource="http://purl.org/dc/dcmitype/StillImage" /><dc:title></dc:title></cc:Work></rdf:RDF></metadata><defs
     id="defs111" /><sodipodi:namedview
     pagecolor="#ffffff"
     bordercolor="#666666"
     borderopacity="1"
     objecttolerance="10"
     gridtolerance="10"
     guidetolerance="10"
     inkscape:pageopacity="0"
     inkscape:pageshadow="2"
     inkscape:window-width="1440"
     inkscape:window-height="837"
     id="namedview109"
     showgrid="false"
     fit-margin-top="0"
     fit-margin-left="0"
     fit-margin-right="0"
     fit-margin-bottom="0"
     inkscape:zoom="1.6054422"
     inkscape:cx="79.986539"
     inkscape:cy="34.459"
     inkscape:window-x="-8"
     inkscape:window-y="-8"
     inkscape:window-maximized="1"
     inkscape:current-layer="Слой_1" /><path
     d="m 137.82354,1.417 c 0,0.238 -0.19,0.434 -0.43,0.44 L 85.591539,3.03 c -0.4,0.007 -39.81,0.688 -43.755,1.073 -3.879,0.379 -12.85,4.894 -12.94,4.939 -0.219,0.096 -19.642,8.545 -23.951,10.657 -4.439,2.174 -4.075,6.133 -4.057,6.301 l 0.003,9.784 c 0,0.243 -0.197,0.44 -0.44,0.44 -0.243,0 -0.44,-0.197 -0.44,-0.44 l 0,-9.737 c -0.001,10e-4 -0.462,-4.686 4.547,-7.139 4.328,-2.12 23.768,-10.577 23.964,-10.662 0.351,-0.179 9.187,-4.624 13.23,-5.019 3.979,-0.389 42.198,-1.049 43.823,-1.077 L 137.37454,0.977 c 0.243,-0.005 0.444,0.187 0.45,0.43 -0.001,0.004 -0.001,0.007 -0.001,0.01 z"
     id="path3"
     inkscape:connector-curvature="0"
     style="fill:#4e4e4e" /><path
     d="m 148.18454,1.759 c 0,0.97 -0.789,1.759 -1.759,1.759 l -7.722,0 c -0.97,0 -1.759,-0.789 -1.759,-1.759 0,-0.97 0.789,-1.759 1.759,-1.759 l 7.722,0 c 0.97,0 1.759,0.789 1.759,1.759 z m -10.361,0 c 0,0.485 0.395,0.88 0.88,0.88 l 7.722,0 c 0.485,0 0.88,-0.395 0.88,-0.88 0,-0.485 -0.395,-0.88 -0.88,-0.88 l -7.722,0 c -0.485,0.001 -0.88,0.395 -0.88,0.88 z"
     id="path5"
     inkscape:connector-curvature="0"
     style="fill:#4e4e4e" /><path
     d="m 160.40154,10.8 c 0,3.392 -1.191,5.538 -4.112,7.408 -2.417,1.546 -5.103,1.541 -7.7,1.536 l -7.393,-0.001 c -0.243,0 -0.44,-0.197 -0.44,-0.44 0,-0.243 0.197,-0.44 0.44,-0.44 l 7.395,0.001 c 2.584,0.005 5.025,0.01 7.224,-1.397 2.225,-1.424 3.707,-3.103 3.707,-6.667 0,-3.878 -1.181,-6.381 -3.718,-7.881 -2.013,-1.189 -4.687,-1.064 -4.714,-1.063 l -3.346,10e-4 c -0.243,0 -0.44,-0.197 -0.44,-0.44 0,-0.243 0.197,-0.44 0.44,-0.44 l 3.323,0 c 0.097,-0.006 2.945,-0.137 5.184,1.185 2.793,1.651 4.15,4.476 4.15,8.638 z"
     id="path7"
     inkscape:connector-curvature="0"
     style="fill:#4e4e4e" /><path
     d="m 131.37354,3.353 0,0 c 0,0.009 -0.001,0.036 -0.001,0.045 l 0.001,4.825 c 0,0.692 -0.234,1.247 -0.695,1.65 -0.986,0.864 -2.664,0.652 -2.735,0.642 l -10.007,0.03 c -0.15,10e-4 -0.29,-0.075 -0.372,-0.202 -1.628,-2.524 -5.12,-2.964 -5.156,-2.968 L 60.560539,7.378 c -0.113,0.003 -1.223,0.014 -1.864,-0.609 -0.57,-0.556 -0.566,-1.572 0.011,-2.09 0.652,-0.586 1.773,-0.487 1.899,-0.474 L 112.65554,4.203 c 3.156,0 5.299,-2.733 5.32,-2.76 0.083,-0.108 0.212,-0.172 0.349,-0.172 l 9.774,0 c 1.28,0 2.212,0.3 2.768,0.891 0.47,0.499 0.507,1.038 0.507,1.191 z m -13.206,6.312 9.834,-0.025 c 0.433,0.053 1.532,0.069 2.1,-0.43 0.264,-0.232 0.393,-0.555 0.393,-0.987 l 0,-4.851 0,-0.019 c 0,-0.031 -0.007,-0.313 -0.267,-0.588 -0.264,-0.281 -0.847,-0.614 -2.128,-0.614 l -9.566,0 c -0.562,0.658 -2.733,2.932 -5.877,2.932 l -52.096001,0 c -0.265,-0.025 -0.96,-0.025 -1.265,0.251 -0.065,0.059 -0.152,0.163 -0.152,0.384 0,0.176 0.053,0.31 0.166,0.421 0.318,0.311 1.003,0.366 1.24,0.361 l 51.910001,0 c 0.208,0.021 3.814,0.477 5.708,3.165 z"
     id="path9"
     inkscape:connector-curvature="0"
     style="fill:#4e4e4e" /><path
     d="m 154.48854,10.106 c 0,2.763 -2.133,3.675 -3.261,3.771 l -79.987001,0.002 -2.439,1.495 c 0.269,0.337 0.551,0.872 0.551,1.633 0,0.005 0,0.009 0,0.013 -0.009,2.205 -2.928,2.7 -3.052,2.72 -0.24,0.039 -0.465,-0.124 -0.504,-0.364 -0.036,-0.244 0.124,-0.465 0.363,-0.505 0.023,-0.004 2.307,-0.396 2.313,-1.855 0,-0.003 0,-0.006 0,-0.009 0,-0.925 -0.596,-1.323 -0.621,-1.34 -0.126,-0.082 -0.214,-0.247 -0.202,-0.376 0.002,-0.151 0.079,-0.292 0.208,-0.371 l 3.03,-1.857 c 0.069,-0.042 0.149,-0.065 0.23,-0.065 l 80.073001,0 c 0.061,-0.007 2.419,-0.258 2.419,-2.893 0,-2.488 -2.02,-2.578 -2.25,-2.581 l -19.253,0 c -0.243,0 -0.44,-0.197 -0.44,-0.44 0,-0.243 0.197,-0.44 0.44,-0.44 l 19.255,0 c 1.081,0.002 3.127,0.725 3.127,3.462 z"
     id="path11"
     inkscape:connector-curvature="0"
     style="fill:#4e4e4e" /><path
     d="m 115.83254,10.106 c 0,0.243 -0.197,0.44 -0.44,0.44 l -24.435001,0 c -0.243,0 -0.44,-0.197 -0.44,-0.44 0,-0.243 0.197,-0.44 0.44,-0.44 l 24.435001,0 c 0.243,0 0.44,0.197 0.44,0.44 z"
     id="path13"
     inkscape:connector-curvature="0"
     style="fill:#4e4e4e" /><path
     d="m 147.10954,10.106 c 0,0.243 -0.197,0.44 -0.44,0.44 l -14.465,0 c -0.243,0 -0.44,-0.197 -0.44,-0.44 0,-0.243 0.197,-0.44 0.44,-0.44 l 14.465,0 c 0.243,0 0.44,0.197 0.44,0.44 z"
     id="path15"
     inkscape:connector-curvature="0"
     style="fill:#4e4e4e" /><path
     d="m 87.879539,6.939 0,3.167 c 0,0.243 -0.197,0.44 -0.44,0.44 l -33.623,0 c -0.071,-0.004 -4.208,-0.272 -7.237,0.391 -3.065,0.67 -6.428,1.831 -6.462,1.843 -0.23,0.08 -0.48,-0.042 -0.56,-0.272 -0.08,-0.231 0.042,-0.48 0.271,-0.56 0.034,-0.011 3.445,-1.189 6.562,-1.87 3.153,-0.69 7.28,-0.422 7.454,-0.41 l 33.153,-10e-4 0,-2.727 c 0,-0.243 0.197,-0.44 0.44,-0.44 0.243,0 0.442,0.196 0.442,0.439 z"
     id="path17"
     inkscape:connector-curvature="0"
     style="fill:#4e4e4e" /><path
     d="m 36.688539,13.732 c 0,0.17 -0.099,0.332 -0.265,0.404 -0.064,0.027 -6.471,2.795 -16.549,6.821 -1.008,0.403 -1.927,0.758 -2.767,1.082 -4.009,1.547 -6.217,2.4 -8.008,4.58 -1.265,1.541 -1.484,7.432 -1.464,9.563 0.002,0.219 -0.192,0.442 -0.435,0.444 -0.243,0.002 -0.442,-0.192 -0.444,-0.435 -0.004,-0.328 -0.062,-8.03 1.664,-10.13 1.937,-2.359 4.222,-3.241 8.37,-4.843 0.838,-0.324 1.753,-0.677 2.758,-1.078 10.065,-4.021 16.463,-6.785 16.526,-6.812 0.223,-0.096 0.482,0.006 0.578,0.229 0.024,0.057 0.036,0.117 0.036,0.175 z"
     id="path19"
     inkscape:connector-curvature="0"
     style="fill:#4e4e4e" /><path
     d="m 57.970539,21.649 c 0,0.243 -0.197,0.44 -0.44,0.44 l -10.36,0 c -2.703,0 -5.422,0.807 -9.382,2.788 -1.274,0.637 -3.448,1.765 -5.749,2.959 -4.1,2.128 -8.746,4.539 -10.206,5.164 -1.747,0.749 -1.785,2.365 -1.786,2.433 l 0,1.305 c 0,0.243 -0.197,0.44 -0.44,0.44 -0.243,0 -0.44,-0.197 -0.44,-0.44 l 0,-1.307 c 0,-0.092 0.026,-2.256 2.319,-3.239 1.43,-0.612 6.061,-3.016 10.147,-5.136 2.305,-1.196 4.481,-2.326 5.761,-2.965 2.992,-1.496 6.248,-2.881 9.775,-2.881 l 10.36,0 c 0.244,-0.001 0.441,0.196 0.441,0.439 z"
     id="path21"
     inkscape:connector-curvature="0"
     style="fill:#4e4e4e" /><path
     d="m 44.907539,8.415 c 0,0.179 -0.006,0.364 -0.017,0.555 -0.015,0.242 -0.223,0.427 -0.466,0.412 -0.243,-0.015 -0.426,-0.224 -0.412,-0.466 0.262,-4.316 -2.889,-4.687 -3.024,-4.701 -0.241,-0.025 -0.417,-0.246 -0.393,-0.482 0.024,-0.242 0.24,-0.418 0.482,-0.393 0.039,0.004 3.83,0.444 3.83,5.075 z"
     id="path23"
     inkscape:connector-curvature="0"
     style="fill:#4e4e4e" /><path
     d="m 31.972539,30.886 c 0,0.862 -0.702,1.563 -1.564,1.563 -0.862,0 -1.564,-0.702 -1.564,-1.563 0,-0.862 0.702,-1.564 1.564,-1.564 0.862,0 1.564,0.701 1.564,1.564 z m -2.248,0 c 0,0.377 0.307,0.684 0.684,0.684 0.377,0 0.684,-0.307 0.684,-0.684 0,-0.377 -0.307,-0.684 -0.684,-0.684 -0.377,-0.001 -0.684,0.306 -0.684,0.684 z"
     id="path25"
     inkscape:connector-curvature="0"
     style="fill:#4e4e4e" /><path
     d="m 66.669539,15.589 0,22.285 c 0,0.243 -0.197,0.44 -0.44,0.44 -0.243,0 -0.44,-0.197 -0.44,-0.44 l 0,-21.845 -7.819,0 0,21.454 c 0,0.243 -0.197,0.44 -0.44,0.44 -0.243,0 -0.44,-0.197 -0.44,-0.44 l 0,-21.894 c 0,-0.243 0.197,-0.44 0.44,-0.44 l 8.699,0 c 0.243,0 0.44,0.197 0.44,0.44 z"
     id="path27"
     inkscape:connector-curvature="0"
     style="fill:#4e4e4e" /><path
     d="m 128.35654,19.365 c 0,0.243 -0.197,0.44 -0.44,0.44 l -61.247001,0 0,1.844 c 0,0.243 -0.197,0.44 -0.44,0.44 -0.243,0 -0.44,-0.197 -0.44,-0.44 l 0,-2.284 c 0,-0.243 0.197,-0.44 0.44,-0.44 l 61.687001,0 c 0.243,10e-4 0.44,0.198 0.44,0.44 z"
     id="path29"
     inkscape:connector-curvature="0"
     style="fill:#4e4e4e" /><path
     d="m 112.46054,16.25 0,0.389 c 0,1.159 -0.943,2.102 -2.102,2.102 l -12.900001,0 c -1.159,0 -2.102,-0.943 -2.102,-2.102 l 0,-0.389 c 0,-1.159 0.943,-2.102 2.102,-2.102 l 12.900001,0 c 1.159,0 2.102,0.943 2.102,2.102 z m -16.225001,0.389 c 0,0.674 0.548,1.222 1.222,1.222 l 12.900001,0 c 0.674,0 1.222,-0.548 1.222,-1.222 l 0,-0.389 c 0,-0.674 -0.548,-1.223 -1.222,-1.223 l -12.900001,0 c -0.674,0 -1.222,0.549 -1.222,1.223 l 0,0.389 z"
     id="path31"
     inkscape:connector-curvature="0"
     style="fill:#4e4e4e" /><path
     d="m 109.62654,15.296 0,2.248 c 0,0.243 -0.197,0.44 -0.44,0.44 l -9.725001,0 c -0.243,0 -0.44,-0.197 -0.44,-0.44 l 0,-2.248 c 0,-0.243 0.197,-0.44 0.44,-0.44 l 9.725001,0 c 0.243,0 0.44,0.197 0.44,0.44 z m -0.88,1.808 0,-1.368 -8.845001,0 0,1.369 8.845001,0 z"
     id="path33"
     inkscape:connector-curvature="0"
     style="fill:#4e4e4e" /><path
     d="m 159.83954,35.381 0,1.759 c 0,0.243 -0.197,0.44 -0.44,0.44 -0.243,0 -0.44,-0.197 -0.44,-0.44 l 0,-1.759 c 0,-1.841 -0.25,-3.676 -3.265,-5.876 -2.699,-1.969 -7.725,-2.291 -11.208,-1.969 -1.283,0.119 -2.485,0.357 -3.572,0.71 -1.992,0.645 -3.66,1.673 -5.097,3.141 -2.181,2.228 -2.22,4.714 -2.22,4.738 -0.001,0.242 -0.199,0.439 -0.441,0.438 -0.243,-0.001 -0.439,-0.197 -0.439,-0.439 0,-0.116 0.028,-2.857 2.471,-5.352 1.539,-1.573 3.324,-2.673 5.455,-3.363 1.149,-0.372 2.414,-0.624 3.762,-0.749 3.637,-0.336 8.911,0.021 11.809,2.136 3.345,2.441 3.625,4.592 3.625,6.585 z"
     id="path35"
     inkscape:connector-curvature="0"
     style="fill:#4e4e4e" /><path
     d="m 157.27454,34.795 0,1.979 c 0,0.243 -0.197,0.44 -0.44,0.44 -0.243,0 -0.44,-0.197 -0.44,-0.44 l 0,-1.979 c -0.002,-0.185 -0.119,-4.587 -7.031,-5.65 -4.031,-0.62 -8.518,0.375 -11.432,2.533 -1.445,1.07 -2.335,2.316 -2.507,3.509 -0.035,0.24 -0.258,0.407 -0.498,0.372 -0.241,-0.035 -0.408,-0.256 -0.373,-0.498 0.206,-1.427 1.219,-2.879 2.854,-4.09 3.14,-2.326 7.773,-3.359 12.089,-2.696 7.689,1.182 7.778,6.467 7.778,6.52 z"
     id="path37"
     inkscape:connector-curvature="0"
     style="fill:#4e4e4e" /><path
     d="m 136.52854,35.345 0,1.833 c 0,0.546 -0.444,0.99 -0.99,0.99 -0.546,0 -0.99,-0.444 -0.99,-0.99 l 0,-1.833 c 0,-0.546 0.444,-0.99 0.99,-0.99 0.546,0 0.99,0.444 0.99,0.99 z m -1.099,1.832 c 0,0.061 0.049,0.11 0.11,0.11 0.061,0 0.11,-0.049 0.11,-0.11 l 0,-1.833 c 0,-0.061 -0.049,-0.11 -0.11,-0.11 -0.061,0 -0.11,0.049 -0.11,0.11 l 0,1.833 z"
     id="path39"
     inkscape:connector-curvature="0"
     style="fill:#4e4e4e" /><path
     d="m 133.59654,36.212 c 0,1.078 -0.877,1.955 -1.955,1.955 l -0.66,0 c -1.078,0 -1.955,-0.877 -1.955,-1.955 0,-1.078 0.877,-1.955 1.955,-1.955 l 0.66,0 c 1.078,0.001 1.955,0.877 1.955,1.955 z m -3.69,0 c 0,0.593 0.482,1.075 1.075,1.075 l 0.66,0 c 0.593,0 1.075,-0.482 1.075,-1.075 0,-0.593 -0.482,-1.075 -1.075,-1.075 l -0.66,0 c -0.592,0 -1.075,0.483 -1.075,1.075 z"
     id="path41"
     inkscape:connector-curvature="0"
     style="fill:#4e4e4e" /><path
     d="m 147.10954,15.051 c 0,0.144 -0.07,0.285 -0.2,0.369 -0.045,0.029 -4.5,2.951 -8.04,6.538 -3.56,3.608 -5.813,6.391 -5.835,6.418 -0.117,0.145 -0.313,0.201 -0.489,0.139 -0.176,-0.062 -0.293,-0.228 -0.293,-0.415 l 0,-13.566 c -0.634,0.613 -1.558,1.833 -1.962,3.972 -0.284,1.501 -0.851,2.509 -1.686,2.995 -0.419,0.244 -0.827,0.307 -1.141,0.305 l 0,14.968 c 0,0.243 -0.197,0.44 -0.44,0.44 -0.243,0 -0.44,-0.197 -0.44,-0.44 l 0,-15.467 c 0,-0.142 0.068,-0.275 0.184,-0.358 0.115,-0.082 0.264,-0.104 0.398,-0.058 0.015,0.005 0.495,0.151 1.011,-0.158 0.588,-0.352 1.021,-1.179 1.25,-2.39 0.714,-3.777 2.961,-5.041 3.056,-5.094 0.136,-0.074 0.302,-0.072 0.435,0.008 0.133,0.079 0.215,0.223 0.215,0.378 l 0,13.256 c 0.959,-1.123 2.753,-3.159 5.112,-5.549 3.608,-3.657 8.14,-6.628 8.185,-6.657 0.203,-0.133 0.476,-0.076 0.608,0.128 0.048,0.073 0.072,0.156 0.072,0.238 z"
     id="path43"
     inkscape:connector-curvature="0"
     style="fill:#4e4e4e" /><path
     d="m 139.87654,23.721 c 0,0.194 -0.064,1.75 -1.975,3.259 -0.854,0.674 -1.684,0.994 -2.416,1.275 -0.902,0.347 -1.553,0.598 -1.935,1.362 -0.109,0.218 -0.373,0.306 -0.59,0.197 -0.217,-0.109 -0.305,-0.373 -0.197,-0.59 0.535,-1.069 1.444,-1.419 2.406,-1.79 0.706,-0.272 1.437,-0.553 2.186,-1.145 1.611,-1.271 1.641,-2.488 1.641,-2.574 0,-0.002 0,-0.002 0,-0.003 l 0,-2.924 c 0,-0.243 0.197,-0.44 0.44,-0.44 0.243,0 0.44,0.197 0.44,0.44 l 0,2.914 c 0,0.003 0,0.009 0,0.019 z"
     id="path45"
     inkscape:connector-curvature="0"
     style="fill:#4e4e4e" /><path
     d="m 141.40954,27.768 c 0,0.044 -0.007,0.089 -0.021,0.133 -0.074,0.231 -0.32,0.359 -0.551,0.286 -0.026,-0.008 -0.978,-0.287 -2.333,0.01 -1.064,0.234 -1.766,0.517 -2.057,0.648 -0.213,0.604 -0.921,2.288 -2.161,2.235 -0.243,-0.011 -0.432,-0.237 -0.421,-0.458 0.011,-0.243 0.216,-0.431 0.458,-0.42 0.59,0.025 1.16,-1.203 1.344,-1.802 0.034,-0.111 0.111,-0.205 0.214,-0.259 0.035,-0.019 0.877,-0.461 2.433,-0.802 1.612,-0.353 2.74,-0.005 2.787,0.01 0.189,0.059 0.308,0.232 0.308,0.419 z"
     id="path47"
     inkscape:connector-curvature="0"
     style="fill:#4e4e4e" /><path
     d="m 145.93654,13.439 c 0,0.149 -0.076,0.295 -0.213,0.377 -6.592,3.964 -10.715,9.106 -10.756,9.157 -0.116,0.147 -0.313,0.204 -0.489,0.142 -0.177,-0.061 -0.295,-0.228 -0.295,-0.415 l 0,-9.065 c 0,-0.243 0.197,-0.44 0.44,-0.44 0.243,0 0.44,0.197 0.44,0.44 l 0,7.88 c 1.516,-1.69 5.152,-5.412 10.207,-8.452 0.208,-0.125 0.478,-0.058 0.604,0.15 0.041,0.07 0.062,0.149 0.062,0.226 z"
     id="path49"
     inkscape:connector-curvature="0"
     style="fill:#4e4e4e" /><path
     d="m 140.17054,17.544 c 0,0.243 -0.197,0.44 -0.44,0.44 l -5.108,0 c -0.243,0 -0.44,-0.197 -0.44,-0.44 0,-0.243 0.197,-0.44 0.44,-0.44 l 5.108,0 c 0.243,0 0.44,0.197 0.44,0.44 z"
     id="path51"
     inkscape:connector-curvature="0"
     style="fill:#4e4e4e" /><path
     d="m 143.00454,15.296 c 0,0.243 -0.197,0.44 -0.44,0.44 l -4.927,0 c -0.243,0 -0.44,-0.197 -0.44,-0.44 0,-0.243 0.197,-0.44 0.44,-0.44 l 4.927,0 c 0.243,0 0.44,0.197 0.44,0.44 z"
     id="path53"
     inkscape:connector-curvature="0"
     style="fill:#4e4e4e" /><path
     d="m 137.84854,71.078 c 0,0.003 0,0.006 0,0.01 -0.006,0.243 -0.207,0.435 -0.45,0.43 L 85.596539,70.345 c -1.622,-0.028 -39.841,-0.688 -43.82,-1.077 -4.043,-0.395 -12.879,-4.84 -13.253,-5.03 -0.177,-0.08 -19.477,-8.806 -23.916,-10.639 -4.722,-1.951 -4.572,-7.12 -4.572,-7.168 l 0,-12.395 c 0,-0.243 0.197,-0.44 0.44,-0.44 0.243,0 0.44,0.197 0.44,0.44 l 0,12.412 c -0.005,0.204 -0.122,4.624 4.028,6.337 4.452,1.839 23.765,10.572 23.96,10.659 0.107,0.054 9.079,4.569 12.959,4.948 3.944,0.385 43.354,1.066 43.752,1.073 l 51.804001,1.173 c 0.24,0.006 0.43,0.201 0.43,0.44 z"
     id="path55"
     inkscape:connector-curvature="0"
     style="fill:#4e4e4e" /><path
     d="m 148.20854,70.736 c 0,0.97 -0.789,1.759 -1.759,1.759 l -7.721,0 c -0.97,0 -1.759,-0.789 -1.759,-1.759 0,-0.97 0.789,-1.759 1.759,-1.759 l 7.721,0 c 0.97,-0.001 1.759,0.789 1.759,1.759 z m -10.36,0 c 0,0.485 0.395,0.88 0.88,0.88 l 7.721,0 c 0.485,0 0.88,-0.395 0.88,-0.88 0,-0.485 -0.395,-0.88 -0.88,-0.88 l -7.721,0 c -0.485,0 -0.88,0.395 -0.88,0.88 z"
     id="path57"
     inkscape:connector-curvature="0"
     style="fill:#4e4e4e" /><path
     d="m 160.42654,61.695 c 0,4.162 -1.358,6.987 -4.15,8.638 -2.239,1.322 -5.087,1.191 -5.207,1.184 l -3.3,0.001 c -0.243,0 -0.44,-0.197 -0.44,-0.44 0,-0.243 0.197,-0.44 0.44,-0.44 l 3.323,0 c 0.05,0.002 2.731,0.123 4.737,-1.062 2.536,-1.499 3.718,-4.004 3.718,-7.881 0,-3.564 -1.482,-5.242 -3.707,-6.667 -2.199,-1.407 -4.64,-1.403 -7.224,-1.397 l -7.395,10e-4 c -0.243,0 -0.44,-0.197 -0.44,-0.44 0,-0.243 0.197,-0.44 0.44,-0.44 l 7.393,-0.001 c 2.597,-0.005 5.283,-0.01 7.7,1.536 2.92,1.87 4.112,4.016 4.112,7.408 z"
     id="path59"
     inkscape:connector-curvature="0"
     style="fill:#4e4e4e" /><path
     d="m 131.39754,68.974 c 0,0.153 -0.036,0.692 -0.506,1.191 -0.557,0.592 -1.488,0.892 -2.769,0.892 l -9.774,0 c -0.132,0 -0.257,-0.06 -0.341,-0.162 -0.021,-0.026 -2.166,-2.602 -5.328,-2.602 l -52.094001,0 c -0.08,0.011 -1.201,0.11 -1.853,-0.476 -0.577,-0.519 -0.582,-1.534 -0.011,-2.09 0.64,-0.624 1.751,-0.612 1.876,-0.609 l 51.888001,0 0,0 c 0,-0.003 3.485,-0.456 5.104,-2.965 0.081,-0.127 0.221,-0.202 0.372,-0.202 l 10.065,0.026 c 0.013,-0.006 1.691,-0.218 2.677,0.646 0.461,0.403 0.695,0.959 0.695,1.65 l 0,4.683 -0.44,0.019 -0.44,-0.002 0,-4.7 c 0,-0.432 -0.129,-0.755 -0.393,-0.987 -0.568,-0.499 -1.667,-0.482 -2.042,-0.434 l -3.967,0.004 -5.924,-0.025 c -1.893,2.688 -5.498,3.144 -5.654,3.163 l -51.951001,0.003 c -0.248,-0.005 -0.933,0.05 -1.251,0.361 -0.224,0.219 -0.228,0.612 -0.014,0.805 0.287,0.258 0.945,0.282 1.219,0.253 l 52.141001,-0.002 c 3.137,0 5.307,2.144 5.869,2.764 l 9.574,0 c 1.281,0 1.864,-0.334 2.128,-0.615 0.259,-0.275 0.267,-0.557 0.267,-0.588 l 0.877,0 z"
     id="path61"
     inkscape:connector-curvature="0"
     style="fill:#4e4e4e" /><path
     d="m 154.51254,62.389 c 0,2.737 -2.046,3.46 -3.128,3.46 l -19.254,0 c -0.243,0 -0.44,-0.197 -0.44,-0.44 0,-0.243 0.197,-0.44 0.44,-0.44 l 19.254,0 c 0.228,-0.002 2.248,-0.093 2.248,-2.581 0,-2.636 -2.358,-2.886 -2.458,-2.895 l -80.033001,0.003 c -0.081,0 -0.161,-0.022 -0.23,-0.065 l -3.03,-1.857 c -0.128,-0.078 -0.207,-0.216 -0.21,-0.365 -0.003,-0.178 0.07,-0.291 0.194,-0.375 0.021,-0.015 0.636,-0.465 0.636,-1.541 0,-1.439 -2.264,-1.663 -2.287,-1.665 -0.242,-0.022 -0.416,-0.242 -0.398,-0.478 0.022,-0.242 0.236,-0.42 0.478,-0.398 0.126,0.011 3.087,0.308 3.087,2.541 0,0.861 -0.298,1.453 -0.573,1.817 l 2.457,1.506 79.949001,0 c 1.165,0.098 3.298,1.01 3.298,3.773 z"
     id="path63"
     inkscape:connector-curvature="0"
     style="fill:#4e4e4e" /><path
     d="m 115.85754,62.389 c 0,0.243 -0.197,0.44 -0.44,0.44 l -24.435001,0 c -0.243,0 -0.44,-0.197 -0.44,-0.44 0,-0.243 0.197,-0.44 0.44,-0.44 l 24.435001,0 c 0.243,0 0.44,0.197 0.44,0.44 z"
     id="path65"
     inkscape:connector-curvature="0"
     style="fill:#4e4e4e" /><path
     d="m 147.13354,62.389 c 0,0.243 -0.197,0.44 -0.44,0.44 l -14.465,0 c -0.243,0 -0.44,-0.197 -0.44,-0.44 0,-0.243 0.197,-0.44 0.44,-0.44 l 14.465,0 c 0.243,0 0.44,0.197 0.44,0.44 z"
     id="path67"
     inkscape:connector-curvature="0"
     style="fill:#4e4e4e" /><path
     d="m 87.903539,62.389 0,3.167 c 0,0.243 -0.197,0.44 -0.44,0.44 -0.243,0 -0.44,-0.197 -0.44,-0.44 l 0,-2.727 -33.182,0 c -0.039,10e-4 -4.223,0.025 -7.39,-0.405 -3.774,-0.512 -7.878,-2.205 -8.051,-2.278 -0.224,-0.093 -0.33,-0.349 -0.237,-0.575 0.093,-0.224 0.35,-0.33 0.575,-0.237 0.042,0.017 4.173,1.722 7.832,2.218 3.105,0.422 7.227,0.397 7.268,0.397 l 33.625,0 c 0.243,0 0.44,0.197 0.44,0.44 z"
     id="path69"
     inkscape:connector-curvature="0"
     style="fill:#4e4e4e" /><path
     d="m 36.028539,58.399 c 0,0.057 -0.011,0.115 -0.034,0.171 -0.094,0.224 -0.352,0.329 -0.576,0.235 -0.057,-0.024 -5.779,-2.428 -15.846,-6.45 -1.004,-0.401 -1.919,-0.754 -2.757,-1.078 -4.149,-1.602 -6.434,-2.484 -8.371,-4.843 -1.696,-2.065 -1.672,-9.952 -1.664,-10.836 0.002,-0.243 0.201,-0.438 0.444,-0.436 0.243,0.002 0.436,0.209 0.436,0.444 -0.021,2.326 0.199,8.73 1.464,10.27 1.791,2.18 3.999,3.032 8.009,4.58 0.841,0.325 1.759,0.679 2.767,1.082 10.076,4.025 15.804,6.432 15.86,6.456 0.167,0.07 0.268,0.233 0.268,0.405 z"
     id="path71"
     inkscape:connector-curvature="0"
     style="fill:#4e4e4e" /><path
     d="m 57.995539,50.846 c 0,0.243 -0.197,0.44 -0.44,0.44 l -10.36,0 c -3.527,0 -6.783,-1.385 -9.775,-2.881 -1.28,-0.64 -3.458,-1.77 -5.764,-2.967 -4.085,-2.12 -8.715,-4.522 -10.144,-5.135 -2.293,-0.983 -2.319,-3.148 -2.319,-3.239 l 0,-1.463 c 0,-0.243 0.197,-0.44 0.44,-0.44 0.243,0 0.44,0.197 0.44,0.44 l 0,1.463 c 0.001,0.066 0.039,1.681 1.786,2.431 1.459,0.625 6.104,3.036 10.202,5.162 2.303,1.195 4.478,2.323 5.752,2.961 3.96,1.98 6.678,2.788 9.382,2.788 l 10.36,0 c 0.243,0 0.44,0.197 0.44,0.44 z"
     id="path73"
     inkscape:connector-curvature="0"
     style="fill:#4e4e4e" /><path
     d="m 44.931539,64.08 c 0,4.632 -3.79,5.071 -3.83,5.075 -0.242,0.025 -0.458,-0.152 -0.482,-0.393 -0.026,-0.237 0.151,-0.456 0.392,-0.482 0.143,-0.016 3.284,-0.414 3.024,-4.701 -0.015,-0.231 0.17,-0.451 0.412,-0.466 0.243,-0.014 0.451,0.17 0.466,0.412 0.012,0.191 0.018,0.376 0.018,0.555 z"
     id="path75"
     inkscape:connector-curvature="0"
     style="fill:#4e4e4e" /><path
     d="m 31.996539,41.609 c 0,0.862 -0.702,1.564 -1.564,1.564 -0.862,0 -1.564,-0.702 -1.564,-1.564 0,-0.862 0.702,-1.563 1.564,-1.563 0.863,0 1.564,0.701 1.564,1.563 z m -2.248,0 c 0,0.377 0.307,0.684 0.684,0.684 0.377,0 0.684,-0.307 0.684,-0.684 0,-0.377 -0.307,-0.684 -0.684,-0.684 -0.377,0.001 -0.684,0.307 -0.684,0.684 z"
     id="path77"
     inkscape:connector-curvature="0"
     style="fill:#4e4e4e" /><path
     d="m 66.694539,34.621 0,22.285 c 0,0.243 -0.197,0.44 -0.44,0.44 l -8.699,0 c -0.243,0 -0.44,-0.197 -0.44,-0.44 l 0,-21.894 c 0,-0.243 0.197,-0.44 0.44,-0.44 0.243,0 0.44,0.197 0.44,0.44 l 0,21.454 7.819,0 0,-21.845 c 0,-0.243 0.197,-0.44 0.44,-0.44 0.243,0 0.44,0.198 0.44,0.44 z"
     id="path79"
     inkscape:connector-curvature="0"
     style="fill:#4e4e4e" /><path
     d="m 128.38154,53.13 c 0,0.243 -0.197,0.44 -0.44,0.44 l -61.687001,0 c -0.243,0 -0.44,-0.197 -0.44,-0.44 l 0,-2.284 c 0,-0.243 0.197,-0.44 0.44,-0.44 0.243,0 0.44,0.197 0.44,0.44 l 0,1.844 61.247001,0 c 0.242,0 0.44,0.197 0.44,0.44 z"
     id="path81"
     inkscape:connector-curvature="0"
     style="fill:#4e4e4e" /><path
     d="m 112.48554,55.856 0,0.389 c 0,1.159 -0.943,2.102 -2.102,2.102 l -12.900001,0 c -1.159,0 -2.102,-0.943 -2.102,-2.102 l 0,-0.389 c 0,-1.159 0.943,-2.102 2.102,-2.102 l 12.900001,0 c 1.158,0 2.102,0.942 2.102,2.102 z m -16.225001,0.389 c 0,0.674 0.549,1.223 1.223,1.223 l 12.900001,0 c 0.674,0 1.223,-0.549 1.223,-1.223 l 0,-0.389 c 0,-0.674 -0.549,-1.222 -1.223,-1.222 l -12.900001,0 c -0.674,0 -1.223,0.548 -1.223,1.222 l 0,0.389 z"
     id="path83"
     inkscape:connector-curvature="0"
     style="fill:#4e4e4e" /><path
     d="m 109.65054,54.951 0,2.248 c 0,0.243 -0.197,0.44 -0.44,0.44 l -9.725001,0 c -0.243,0 -0.44,-0.197 -0.44,-0.44 l 0,-2.248 c 0,-0.243 0.197,-0.44 0.44,-0.44 l 9.725001,0 c 0.243,0 0.44,0.197 0.44,0.44 z m -0.88,1.808 0,-1.369 -8.845001,0 0,1.369 8.845001,0 z"
     id="path85"
     inkscape:connector-curvature="0"
     style="fill:#4e4e4e" /><path
     d="m 159.86454,35.354 0,1.759 c 0,1.994 -0.28,4.145 -3.626,6.586 -2.898,2.115 -8.172,2.472 -11.809,2.136 -1.348,-0.125 -2.613,-0.377 -3.761,-0.749 -2.131,-0.69 -3.915,-1.79 -5.455,-3.363 -2.443,-2.496 -2.471,-5.237 -2.471,-5.352 0,-0.243 0.197,-0.44 0.44,-0.44 0.243,0 0.439,0.196 0.44,0.439 l 0,0 c 0,0.025 0.039,2.51 2.22,4.738 1.438,1.469 3.106,2.496 5.098,3.141 1.087,0.352 2.288,0.59 3.572,0.71 3.483,0.322 8.509,0 11.209,-1.969 3.015,-2.2 3.265,-4.035 3.265,-5.876 l 0,-1.759 c 0,-0.243 0.197,-0.44 0.44,-0.44 0.241,0 0.438,0.197 0.438,0.439 z"
     id="path87"
     inkscape:connector-curvature="0"
     style="fill:#4e4e4e" /><path
     d="m 157.29854,35.721 0,1.979 c 0,0.053 -0.089,5.337 -7.777,6.519 -5.18,0.796 -10.296,-1.206 -12.857,-3.403 -1.384,-1.187 -2.115,-2.445 -2.115,-3.638 0,-0.243 0.197,-0.44 0.44,-0.44 0.243,0 0.44,0.197 0.44,0.44 0,0.915 0.642,1.97 1.809,2.971 2.413,2.071 7.244,3.956 12.15,3.202 6.912,-1.062 7.029,-5.465 7.031,-5.651 l 0,-1.978 c 0,-0.243 0.197,-0.44 0.44,-0.44 0.242,-10e-4 0.439,0.196 0.439,0.439 z"
     id="path89"
     inkscape:connector-curvature="0"
     style="fill:#4e4e4e" /><path
     d="m 147.13354,57.444 c 0,0.082 -0.023,0.166 -0.071,0.24 -0.133,0.203 -0.405,0.261 -0.609,0.128 -0.045,-0.029 -4.577,-3 -8.185,-6.657 -2.359,-2.39 -4.152,-4.426 -5.112,-5.549 l 0,13.256 c 0,0.155 -0.082,0.299 -0.215,0.378 -0.133,0.08 -0.299,0.082 -0.435,0.008 -0.095,-0.052 -2.342,-1.316 -3.056,-5.094 -0.229,-1.211 -0.661,-2.038 -1.25,-2.39 -0.516,-0.309 -0.995,-0.163 -1.016,-0.156 -0.133,0.042 -0.282,0.018 -0.395,-0.064 -0.113,-0.083 -0.182,-0.214 -0.182,-0.354 l 0,-15.469 c 0,-0.243 0.197,-0.44 0.44,-0.44 0.243,0 0.44,0.197 0.44,0.44 l 0,14.968 c 0.314,-0.002 0.722,0.061 1.141,0.305 0.835,0.486 1.402,1.494 1.686,2.995 0.402,2.127 1.328,3.35 1.963,3.967 l 0,-13.561 c 0,-0.187 0.118,-0.353 0.293,-0.415 0.176,-0.062 0.372,-0.007 0.489,0.139 0.022,0.027 2.278,2.812 5.835,6.418 3.542,3.59 7.995,6.509 8.039,6.538 0.13,0.084 0.2,0.225 0.2,0.369 z"
     id="path91"
     inkscape:connector-curvature="0"
     style="fill:#4e4e4e" /><path
     d="m 139.90054,48.786 c 0,0.011 0,0.018 0,0.021 l 0,2.9 c 0,0.243 -0.197,0.44 -0.44,0.44 -0.243,0 -0.44,-0.197 -0.44,-0.44 l 0,-2.914 c -0.007,-0.055 -0.004,-1.295 -1.641,-2.587 -0.749,-0.592 -1.48,-0.873 -2.186,-1.145 -0.962,-0.371 -1.872,-0.72 -2.406,-1.79 -0.108,-0.218 -0.02,-0.481 0.197,-0.59 0.217,-0.109 0.481,-0.021 0.59,0.197 0.382,0.764 1.033,1.014 1.935,1.362 0.732,0.281 1.562,0.601 2.416,1.275 1.908,1.507 1.975,3.061 1.975,3.271 z"
     id="path93"
     inkscape:connector-curvature="0"
     style="fill:#4e4e4e" /><path
     d="m 141.43354,44.728 c 0,0.186 -0.119,0.359 -0.306,0.418 -0.047,0.015 -1.175,0.364 -2.787,0.01 -1.556,-0.341 -2.399,-0.783 -2.434,-0.802 -0.103,-0.054 -0.18,-0.148 -0.214,-0.259 -0.227,-0.74 -0.812,-1.825 -1.344,-1.802 -0.243,0.011 -0.448,-0.178 -0.458,-0.42 -0.007,-0.223 0.177,-0.447 0.421,-0.458 1.239,-0.054 1.947,1.631 2.161,2.235 0.291,0.131 0.993,0.415 2.057,0.648 1.367,0.3 2.324,0.013 2.334,0.01 0.231,-0.072 0.478,0.057 0.55,0.289 0.013,0.043 0.02,0.087 0.02,0.131 z"
     id="path95"
     inkscape:connector-curvature="0"
     style="fill:#4e4e4e" /><path
     d="m 145.93654,59.056 c 0,0.077 -0.02,0.155 -0.063,0.226 -0.125,0.208 -0.395,0.275 -0.604,0.15 -5.05,-3.037 -8.67,-6.755 -10.182,-8.448 l 0,7.876 c 0,0.243 -0.197,0.44 -0.44,0.44 -0.243,0 -0.44,-0.197 -0.44,-0.44 l 0,-9.065 c 0,-0.187 0.119,-0.354 0.296,-0.415 0.177,-0.062 0.373,-0.004 0.49,0.143 0.041,0.052 4.139,5.192 10.731,9.156 0.136,0.082 0.212,0.228 0.212,0.377 z"
     id="path97"
     inkscape:connector-curvature="0"
     style="fill:#4e4e4e" /><path
     d="m 140.19554,54.951 c 0,0.243 -0.197,0.44 -0.44,0.44 l -5.108,0 c -0.243,0 -0.44,-0.197 -0.44,-0.44 0,-0.243 0.197,-0.44 0.44,-0.44 l 5.108,0 c 0.243,0 0.44,0.197 0.44,0.44 z"
     id="path99"
     inkscape:connector-curvature="0"
     style="fill:#4e4e4e" /><path
     d="m 143.02854,57.199 c 0,0.243 -0.197,0.44 -0.44,0.44 l -4.927,0 c -0.243,0 -0.44,-0.197 -0.44,-0.44 0,-0.243 0.197,-0.44 0.44,-0.44 l 4.927,0 c 0.243,0 0.44,0.197 0.44,0.44 z"
     id="path101"
     inkscape:connector-curvature="0"
     style="fill:#4e4e4e" /><path
     d="m 142.83354,36.188 c 0,2.426 -1.047,4.327 -2.382,4.327 -1.335,0 -2.382,-1.901 -2.382,-4.327 0,-2.426 1.047,-4.326 2.382,-4.326 1.335,0 2.382,1.9 2.382,4.326 z m -3.885,0 c 0,2.031 0.792,3.447 1.503,3.447 0.711,0 1.503,-1.416 1.503,-3.447 0,-2.031 -0.792,-3.446 -1.503,-3.446 -0.711,0 -1.503,1.415 -1.503,3.446 z"
     id="path103"
     inkscape:connector-curvature="0"
     style="fill:#4e4e4e" /><path
     d="m 57.970539,36.188 c 0,0.243 -0.197,0.44 -0.44,0.44 l -35.112,0 c -0.243,0 -0.44,-0.197 -0.44,-0.44 0,-0.243 0.197,-0.44 0.44,-0.44 l 35.113,0 c 0.242,0 0.439,0.197 0.439,0.44 z"
     id="path105"
     inkscape:connector-curvature="0"
     style="fill:#4e4e4e" /><path
     d="m 124.53154,36.124 c 0,0.243 -0.197,0.44 -0.44,0.44 l -57.837001,0 c -0.243,0 -0.44,-0.197 -0.44,-0.44 0,-0.243 0.197,-0.44 0.44,-0.44 l 57.837001,0 c 0.243,0 0.44,0.197 0.44,0.44 z"
     id="path107"
     inkscape:connector-curvature="0"
     style="fill:#4e4e4e" /></svg>