<?xml version="1.0" encoding="UTF-8" standalone="no"?>
<!-- Generator: Adobe Illustrator 17.0.0, SVG Export Plug-In . SVG Version: 6.00 Build 0)  -->

<svg
   xmlns:dc="http://purl.org/dc/elements/1.1/"
   xmlns:cc="http://creativecommons.org/ns#"
   xmlns:rdf="http://www.w3.org/1999/02/22-rdf-syntax-ns#"
   xmlns:svg="http://www.w3.org/2000/svg"
   xmlns="http://www.w3.org/2000/svg"
   xmlns:sodipodi="http://sodipodi.sourceforge.net/DTD/sodipodi-0.dtd"
   xmlns:inkscape="http://www.inkscape.org/namespaces/inkscape"
   version="1.1"
   id="Слой_1"
   x="0px"
   y="0px"
   width="171.80986"
   height="68.471497"
   viewBox="0 0 171.80986 68.471497"
   enable-background="new 0 0 180 147"
   xml:space="preserve"
   inkscape:version="0.91 r13725"
   sodipodi:docname="autoserv.svg"><metadata
     id="metadata268"><rdf:RDF><cc:Work
         rdf:about=""><dc:format>image/svg+xml</dc:format><dc:type
           rdf:resource="http://purl.org/dc/dcmitype/StillImage" /><dc:title></dc:title></cc:Work></rdf:RDF></metadata><defs
     id="defs266" /><sodipodi:namedview
     pagecolor="#ffffff"
     bordercolor="#666666"
     borderopacity="1"
     objecttolerance="10"
     gridtolerance="10"
     guidetolerance="10"
     inkscape:pageopacity="0"
     inkscape:pageshadow="2"
     inkscape:window-width="950"
     inkscape:window-height="618"
     id="namedview264"
     showgrid="false"
     fit-margin-top="0"
     fit-margin-left="0"
     fit-margin-right="0"
     fit-margin-bottom="0"
     inkscape:zoom="1.6054422"
     inkscape:cx="83.943454"
     inkscape:cy="44.669"
     inkscape:window-x="0"
     inkscape:window-y="0"
     inkscape:window-maximized="0"
     inkscape:current-layer="Слой_1" /><path
     d="m 152.97045,58.0075 c -0.429,0 -0.838,-0.034 -1.137,-0.131 -0.373,-0.12 -0.633,-0.329 -0.772,-0.62 -0.209,-0.435 -0.055,-0.871 -0.037,-0.919 0.003,-0.01 0.504,-1.4 1.027,-2.77 0.553,-1.445 1.155,-2.341 2.449,-2.341 0.674,0 1.312,0.373 1.757,0.715 l -0.213,-3.154 c -0.734,-0.287 -3.481,-1.39 -7.168,-3.254 -4.309,-2.178 -9.321,-5.495 -9.371,-5.529 -0.121,-0.081 -0.174,-0.233 -0.127,-0.371 0.047,-0.139 0.18,-0.227 0.326,-0.219 0.029,0.002 2.718,0.171 5.635,0.464 -2.457,-0.968 -6.327,-2.392 -10.456,-3.52 -7.004,-1.915 -13.401,-3.689 -13.401,-3.689 -0.166,-0.046 -0.267,-0.215 -0.227,-0.383 0.039,-0.168 0.203,-0.275 0.373,-0.244 0.02,0.004 2.03,0.37 5.599,0.462 3.518,0.09 6.631,1.204 14.152,3.896 l 1.17,0.419 c 8.368,2.992 9.611,4.902 9.66,4.982 0.074,0.121 0.06,0.276 -0.034,0.382 -0.095,0.106 -0.247,0.138 -0.376,0.078 -0.022,-0.011 -1.604,-0.736 -3.637,-1.251 -0.044,-0.002 -0.093,-0.008 -0.139,-0.028 -0.003,-0.001 -0.015,-0.007 -0.038,-0.016 -0.705,-0.172 -1.459,-0.316 -2.218,-0.396 -1.868,-0.195 -3.701,-0.341 -4.863,-0.426 1.693,1.084 5.164,3.248 8.263,4.814 4.277,2.161 7.269,3.29 7.298,3.301 0.118,0.044 0.2,0.154 0.208,0.28 l 0.28,4.156 c 0.009,0.122 -0.054,0.238 -0.158,0.299 0.095,0.056 0.159,0.16 0.159,0.277 l 0,0.924 c 0,0.13 -0.078,0.247 -0.199,0.297 -0.12,0.051 -0.259,0.023 -0.351,-0.07 -0.492,-0.491 -1.381,-1.109 -1.727,-0.883 -0.091,0.06 -0.14,0.106 -0.165,0.137 0.184,0.069 0.631,0.241 1.201,0.507 0.765,0.356 0.847,1.021 0.783,1.323 -0.007,0.03 -0.016,0.057 -0.031,0.084 l -1.089,2.054 c -0.047,0.089 -0.133,0.15 -0.231,0.166 -0.165,0.028 -1.219,0.197 -2.175,0.197 z m 1.53,-6.137 c -0.83,0 -1.296,0.486 -1.847,1.926 -0.522,1.364 -1.02,2.749 -1.025,2.762 -10e-4,0.004 -0.079,0.23 0.015,0.421 0.061,0.124 0.192,0.22 0.388,0.283 0.638,0.206 2.15,0.042 2.85,-0.064 l 0.987,-1.861 c 0.006,-0.105 -0.02,-0.383 -0.428,-0.572 -0.71,-0.331 -1.231,-0.515 -1.235,-0.517 -0.021,-0.008 -0.041,-0.017 -0.059,-0.028 -0.137,-0.083 -0.299,-0.267 -0.304,-0.51 -0.005,-0.257 0.156,-0.496 0.48,-0.709 0.61,-0.404 1.435,0.06 1.987,0.484 l 0,-0.215 c 0,-0.118 0.063,-0.222 0.159,-0.277 -0.028,-0.016 -0.054,-0.037 -0.076,-0.062 -0.01,-0.011 -0.962,-1.061 -1.892,-1.061 z m -6.322,-11.522 c 0.701,0.172 1.351,0.369 1.911,0.559 -1.311,-0.819 -3.654,-2.013 -7.76,-3.482 l -1.17,-0.419 c -7.451,-2.667 -10.536,-3.77 -13.951,-3.858 -0.676,-0.017 -1.296,-0.044 -1.856,-0.076 2.505,0.692 6.019,1.659 9.699,2.665 6.456,1.763 12.283,4.246 13.127,4.611 z"
     id="path3"
     inkscape:connector-curvature="0"
     style="fill:#4e4e4e" /><path
     d="m 156.35245,48.8825 c -0.104,0 -0.205,-0.05 -0.268,-0.142 l -4.419,-6.592 c -0.099,-0.148 -0.059,-0.348 0.088,-0.447 0.147,-0.099 0.348,-0.059 0.447,0.088 l 4.419,6.592 c 0.099,0.148 0.059,0.348 -0.088,0.447 -0.055,0.037 -0.117,0.054 -0.179,0.054 z"
     id="path5"
     inkscape:connector-curvature="0"
     style="fill:#4e4e4e" /><path
     d="m 155.57845,48.5765 c -0.078,0 -0.156,-0.029 -0.218,-0.084 -0.029,-0.027 -2.922,-2.65 -6.293,-3.685 -1.314,-0.403 -3.542,-1.094 -3.701,-1.186 -0.155,-0.089 -0.207,-0.286 -0.118,-0.44 0.089,-0.154 0.286,-0.207 0.44,-0.118 0.006,0 0.384,0.15 3.57,1.128 1.883,0.579 3.592,1.604 4.79,2.449 l -3.461,-4.913 c -0.102,-0.145 -0.068,-0.346 0.078,-0.449 0.145,-0.102 0.346,-0.068 0.449,0.078 l 4.729,6.714 c 0.095,0.135 0.073,0.318 -0.051,0.427 -0.063,0.053 -0.139,0.079 -0.214,0.079 z"
     id="path7"
     inkscape:connector-curvature="0"
     style="fill:#4e4e4e" /><path
     d="m 150.16845,45.1785 c -0.122,0 -0.239,-0.07 -0.293,-0.188 l -1.574,-3.437 -1.754,0 1.342,2.304 c 0.09,0.154 0.037,0.351 -0.117,0.44 -0.153,0.09 -0.351,0.038 -0.44,-0.117 l -1.623,-2.788 c -0.058,-0.099 -0.058,-0.223 -0.001,-0.323 0.057,-0.099 0.164,-0.161 0.279,-0.161 l 2.522,0 c 0.126,0 0.241,0.074 0.293,0.188 l 1.66,3.625 c 0.074,0.161 0.003,0.353 -0.159,0.427 -0.045,0.02 -0.091,0.03 -0.135,0.03 z"
     id="path9"
     inkscape:connector-curvature="0"
     style="fill:#4e4e4e" /><path
     d="m 144.57045,43.1045 c -0.126,0 -0.242,-0.075 -0.294,-0.191 l -0.914,-2.056 -0.576,0.862 c -0.099,0.148 -0.3,0.187 -0.447,0.089 -0.148,-0.099 -0.187,-0.299 -0.089,-0.447 l 0.901,-1.347 c 0.065,-0.097 0.179,-0.151 0.295,-0.141 0.117,0.01 0.219,0.083 0.267,0.19 l 0.778,1.749 0.442,-1.699 c 0.032,-0.122 0.132,-0.215 0.256,-0.236 0.125,-0.024 0.249,0.032 0.321,0.136 l 0.922,1.347 c 0.1,0.147 0.063,0.347 -0.084,0.448 -0.146,0.1 -0.347,0.063 -0.448,-0.084 l -0.523,-0.763 -0.497,1.905 c -0.034,0.133 -0.149,0.228 -0.286,0.24 -0.007,-0.002 -0.015,-0.002 -0.024,-0.002 z"
     id="path11"
     inkscape:connector-curvature="0"
     style="fill:#4e4e4e" /><path
     d="m 138.88945,46.6385 c -0.108,0 -0.213,-0.054 -0.273,-0.152 -0.094,-0.151 -0.048,-0.35 0.103,-0.443 l 5.682,-3.533 c 0.151,-0.094 0.35,-0.048 0.443,0.103 0.094,0.151 0.048,0.35 -0.103,0.443 l -5.682,3.533 c -0.054,0.032 -0.113,0.049 -0.17,0.049 z"
     id="path13"
     inkscape:connector-curvature="0"
     style="fill:#4e4e4e" /><path
     d="m 129.58445,68.4715 c -6.493,0 -11.776,-5.282 -11.776,-11.775 0,-6.493 5.282,-11.775 11.776,-11.775 6.493,0 11.775,5.282 11.775,11.775 10e-4,6.492 -5.282,11.775 -11.775,11.775 z m 0,-22.906 c -6.137,0 -11.131,4.993 -11.131,11.131 0,6.137 4.993,11.131 11.131,11.131 6.137,0 11.131,-4.993 11.131,-11.131 0,-6.138 -4.993,-11.131 -11.131,-11.131 z"
     id="path15"
     inkscape:connector-curvature="0"
     style="fill:#4e4e4e" /><path
     d="m 129.69245,65.6115 c -4.794,0 -8.693,-3.899 -8.693,-8.693 0,-4.794 3.899,-8.693 8.693,-8.693 4.794,0 8.693,3.899 8.693,8.693 0,4.794 -3.9,8.693 -8.693,8.693 z m 0,-16.742 c -4.438,0 -8.049,3.611 -8.049,8.049 0,4.438 3.611,8.049 8.049,8.049 4.438,0 8.049,-3.611 8.049,-8.049 0,-4.438 -3.611,-8.049 -8.049,-8.049 z"
     id="path17"
     inkscape:connector-curvature="0"
     style="fill:#4e4e4e" /><path
     d="m 129.75445,66.2755 c -3.366,0 -6.503,-1.815 -8.186,-4.735 -0.089,-0.154 -0.036,-0.351 0.118,-0.44 0.154,-0.089 0.351,-0.036 0.44,0.118 1.568,2.721 4.491,4.412 7.628,4.412 0.707,0 1.41,-0.084 2.09,-0.249 0.173,-0.044 0.347,0.064 0.389,0.237 0.042,0.173 -0.064,0.347 -0.237,0.389 -0.729,0.178 -1.483,0.268 -2.242,0.268 z"
     id="path19"
     inkscape:connector-curvature="0"
     style="fill:#4e4e4e" /><path
     d="m 121.25945,53.8375 c -0.039,0 -0.079,-0.007 -0.118,-0.022 -0.165,-0.065 -0.247,-0.251 -0.183,-0.418 1.427,-3.647 4.879,-6.004 8.795,-6.004 0.64,0 1.28,0.065 1.902,0.192 0.174,0.035 0.287,0.206 0.251,0.38 -0.036,0.174 -0.205,0.287 -0.38,0.251 -0.579,-0.118 -1.176,-0.179 -1.773,-0.179 -3.65,0 -6.866,2.196 -8.195,5.595 -0.049,0.128 -0.17,0.205 -0.299,0.205 z"
     id="path21"
     inkscape:connector-curvature="0"
     style="fill:#4e4e4e" /><path
     d="m 129.48945,58.2825 c -0.872,0 -1.582,-0.71 -1.582,-1.582 0,-0.872 0.71,-1.582 1.582,-1.582 0.872,0 1.582,0.71 1.582,1.582 0.001,0.872 -0.709,1.582 -1.582,1.582 z m 0,-2.521 c -0.517,0 -0.938,0.421 -0.938,0.938 0,0.517 0.421,0.938 0.938,0.938 0.518,0 0.938,-0.421 0.938,-0.938 0,-0.517 -0.421,-0.938 -0.938,-0.938 z"
     id="path23"
     inkscape:connector-curvature="0"
     style="fill:#4e4e4e" /><path
     d="m 129.48945,58.9845 c -1.259,0 -2.284,-1.024 -2.284,-2.284 0,-1.259 1.024,-2.284 2.284,-2.284 1.26,0 2.284,1.024 2.284,2.284 0,1.259 -1.024,2.284 -2.284,2.284 z m 0,-3.924 c -0.904,0 -1.64,0.736 -1.64,1.64 0,0.904 0.736,1.64 1.64,1.64 0.904,0 1.64,-0.736 1.64,-1.64 0,-0.905 -0.736,-1.64 -1.64,-1.64 z"
     id="path25"
     inkscape:connector-curvature="0"
     style="fill:#4e4e4e" /><path
     d="m 131.09245,55.0605 c -0.019,0 -0.037,-0.002 -0.056,-0.005 -0.104,-0.018 -0.192,-0.086 -0.236,-0.183 l -0.934,-2.023 c -0.015,-0.031 -0.437,-0.913 0.007,-1.763 0.378,-0.725 1.538,-2.404 1.588,-2.476 0.101,-0.146 0.302,-0.183 0.448,-0.081 0.146,0.101 0.182,0.302 0.081,0.448 -0.011,0.017 -1.187,1.717 -1.547,2.407 -0.29,0.556 10e-4,1.182 0.004,1.188 l 0.743,1.609 3.783,-3.794 c 0.125,-0.126 0.33,-0.126 0.456,-0.001 0.126,0.125 0.126,0.33 0.001,0.456 l -4.11,4.122 c -0.061,0.063 -0.143,0.096 -0.228,0.096 z"
     id="path27"
     inkscape:connector-curvature="0"
     style="fill:#4e4e4e" /><path
     d="m 131.20845,54.9445 c -0.142,0 -0.273,-0.096 -0.311,-0.239 -0.658,-2.474 0.135,-3.49 0.307,-3.675 l 1.471,-2.021 c 0.105,-0.144 0.307,-0.175 0.45,-0.071 0.144,0.105 0.176,0.306 0.071,0.45 l -1.484,2.039 c -0.012,0.017 -0.028,0.033 -0.043,0.048 -0.003,0.003 -0.755,0.784 -0.149,3.063 0.046,0.172 -0.056,0.349 -0.228,0.394 -0.028,0.008 -0.056,0.012 -0.084,0.012 z"
     id="path29"
     inkscape:connector-curvature="0"
     style="fill:#4e4e4e" /><path
     d="m 130.37645,55.2745 c -0.115,0 -0.226,-0.062 -0.284,-0.17 -0.035,-0.066 -0.871,-1.642 -1.094,-3.486 -0.218,-1.808 -0.194,-3.009 -0.193,-3.06 0.004,-0.178 0.152,-0.333 0.33,-0.314 0.178,0.004 0.318,0.151 0.314,0.33 0,0.011 -0.024,1.21 0.188,2.968 0.207,1.72 1.014,3.243 1.022,3.258 0.084,0.157 0.025,0.352 -0.132,0.436 -0.047,0.025 -0.099,0.038 -0.151,0.038 z"
     id="path31"
     inkscape:connector-curvature="0"
     style="fill:#4e4e4e" /><path
     d="m 128.82345,55.1785 c -0.12,0 -0.235,-0.067 -0.29,-0.183 l -2.654,-5.534 c -0.077,-0.161 -0.01,-0.353 0.151,-0.43 0.16,-0.076 0.353,-0.01 0.43,0.151 l 2.654,5.534 c 0.077,0.161 0.01,0.353 -0.151,0.43 -0.045,0.022 -0.093,0.032 -0.14,0.032 z"
     id="path33"
     inkscape:connector-curvature="0"
     style="fill:#4e4e4e" /><path
     d="m 127.03545,55.2475 0,0 c -0.472,0 -0.966,-0.067 -1.471,-0.198 -1.726,-0.449 -2.737,-2.098 -2.779,-2.168 -0.054,-0.091 -0.061,-0.202 -0.018,-0.298 0.012,-0.028 0.311,-0.686 1.019,-1.422 0.576,-0.599 1.827,-1.352 1.879,-1.384 0.076,-0.046 0.169,-0.058 0.254,-0.033 0.086,0.025 0.158,0.084 0.198,0.163 l 2.396,4.684 c 0.04,0.079 0.047,0.172 0.016,0.255 -0.03,0.084 -0.093,0.151 -0.175,0.187 -0.017,0.009 -0.497,0.214 -1.319,0.214 z m -3.601,-2.553 c 0.272,0.385 1.098,1.422 2.291,1.732 0.451,0.118 0.891,0.177 1.308,0.177 0.305,0 0.55,-0.032 0.729,-0.068 l -2.058,-4.022 c -0.397,0.253 -1.095,0.721 -1.454,1.095 -0.436,0.455 -0.696,0.871 -0.816,1.086 z"
     id="path35"
     inkscape:connector-curvature="0"
     style="fill:#4e4e4e" /><path
     d="m 131.40545,57.4415 c -0.045,0 -0.091,-0.01 -0.135,-0.03 -0.161,-0.075 -0.231,-0.263 -0.159,-0.423 0.021,-0.046 0.533,-1.138 2.656,-2.318 2.09,-1.162 3.556,-1.303 3.618,-1.308 0.176,-0.015 0.333,0.115 0.349,0.291 0.016,0.177 -0.115,0.333 -0.291,0.35 -0.013,10e-4 -1.403,0.14 -3.362,1.23 -1.91,1.062 -2.378,2.013 -2.383,2.023 -0.055,0.116 -0.171,0.185 -0.293,0.185 z"
     id="path37"
     inkscape:connector-curvature="0"
     style="fill:#4e4e4e" /><path
     d="m 130.99245,55.7615 c -0.087,0 -0.174,-0.035 -0.237,-0.104 -0.12,-0.131 -0.112,-0.334 0.019,-0.455 l 4.72,-4.338 c 0.131,-0.119 0.334,-0.112 0.455,0.019 0.12,0.131 0.112,0.334 -0.019,0.455 l -4.72,4.338 c -0.062,0.057 -0.14,0.085 -0.218,0.085 z"
     id="path39"
     inkscape:connector-curvature="0"
     style="fill:#4e4e4e" /><path
     d="m 137.35045,60.6245 c -0.053,0 -0.105,-0.012 -0.154,-0.039 l -5.43,-2.964 c -0.087,-0.048 -0.148,-0.133 -0.163,-0.231 -0.016,-0.098 0.014,-0.198 0.082,-0.271 0.173,-0.186 1.722,-1.827 2.694,-1.997 0.951,-0.166 3.48,0.715 3.765,0.815 0.168,0.059 0.256,0.244 0.196,0.411 -0.059,0.167 -0.243,0.256 -0.411,0.196 -1.017,-0.359 -2.851,-0.891 -3.44,-0.788 -0.49,0.086 -1.412,0.873 -2.042,1.501 l 5.059,2.761 c 0.156,0.085 0.214,0.281 0.128,0.437 -0.059,0.108 -0.17,0.169 -0.284,0.169 z"
     id="path41"
     inkscape:connector-curvature="0"
     style="fill:#4e4e4e" /><path
     d="m 134.82545,63.1055 c -0.016,0 -0.032,-10e-4 -0.049,-0.004 -0.106,-0.016 -0.197,-0.084 -0.243,-0.181 -0.005,-0.011 -0.514,-1.064 -1.645,-1.935 -1.185,-0.912 -2.664,-1.808 -2.678,-1.816 -0.104,-0.063 -0.163,-0.179 -0.155,-0.3 0.008,-0.121 0.085,-0.226 0.198,-0.273 0.003,-10e-4 0.336,-0.144 0.695,-0.447 0.282,-0.239 0.334,-0.373 0.335,-0.374 0.018,-0.105 0.082,-0.179 0.179,-0.223 0.096,-0.044 0.204,-0.023 0.296,0.032 l 5.008,2.992 c 0.083,0.05 0.139,0.135 0.154,0.23 0.014,0.096 -0.016,0.193 -0.081,0.265 l -1.774,1.93 c -0.064,0.067 -0.15,0.104 -0.24,0.104 z m -3.816,-4.197 c 0.542,0.342 1.462,0.944 2.272,1.567 0.816,0.628 1.336,1.332 1.606,1.764 l 1.207,-1.313 -4.392,-2.624 c -0.079,0.098 -0.189,0.211 -0.339,0.339 -0.123,0.105 -0.244,0.194 -0.354,0.267 z"
     id="path43"
     inkscape:connector-curvature="0"
     style="fill:#4e4e4e" /><path
     d="m 129.26945,64.9095 c -0.252,0 -0.577,-0.007 -0.693,-0.04 -0.17,-0.049 -0.269,-0.226 -0.222,-0.397 0.007,-0.023 0.648,-2.328 0.815,-3.87 l 0.171,-1.587 c 0.011,-0.103 0.071,-0.194 0.161,-0.246 0.09,-0.052 0.199,-0.056 0.293,-0.012 0.048,0.022 1.175,0.54 1.819,0.917 0.852,0.5 1.316,1.363 1.305,2.429 -0.011,1.085 0,2.14 0,2.141 0.002,0.14 -0.086,0.263 -0.218,0.308 -0.032,0.011 -0.788,0.265 -2.311,0.329 -0.503,0.021 -0.864,0.028 -1.12,0.028 z m -0.19,-0.646 c 0.245,0.004 0.651,0 1.285,-0.026 0.965,-0.04 1.6,-0.161 1.91,-0.235 -0.003,-0.377 -0.006,-1.134 0.002,-1.905 0.01,-1.059 -0.531,-1.6 -0.987,-1.867 -0.383,-0.225 -0.966,-0.511 -1.356,-0.697 l -0.123,1.138 c -0.132,1.227 -0.538,2.859 -0.731,3.592 z"
     id="path45"
     inkscape:connector-curvature="0"
     style="fill:#4e4e4e" /><path
     d="m 127.88845,64.7255 c -0.017,0 -0.034,-0.002 -0.053,-0.004 -2.193,-0.36 -2.481,-1.205 -2.517,-1.371 -0.011,-0.054 -0.009,-0.111 0.008,-0.164 0.035,-0.114 0.362,-1.121 0.876,-1.612 0.388,-0.371 0.737,-0.994 1.166,-2.083 0.24,-0.609 0.723,-0.944 1.362,-0.944 0.271,0 0.474,0.063 0.496,0.071 0.078,0.026 0.144,0.081 0.183,0.154 0.053,0.097 0.123,0.229 -0.272,2.057 -0.369,1.704 -0.935,3.645 -0.941,3.664 -0.04,0.141 -0.167,0.232 -0.308,0.232 z m -1.908,-1.46 c 0.096,0.138 0.465,0.526 1.679,0.769 0.168,-0.594 0.569,-2.039 0.849,-3.34 0.181,-0.834 0.253,-1.274 0.282,-1.499 -0.019,-0.001 -0.039,-0.002 -0.06,-0.002 -0.371,0 -0.62,0.175 -0.762,0.536 -0.472,1.198 -0.854,1.868 -1.321,2.313 -0.294,0.28 -0.553,0.899 -0.667,1.223 z"
     id="path47"
     inkscape:connector-curvature="0"
     style="fill:#4e4e4e" /><path
     d="m 123.72945,62.0375 c -0.576,0 -0.854,-0.555 -1.314,-1.475 l -0.077,-0.156 c -0.569,-1.137 -0.794,-2.019 -0.803,-2.055 -0.024,-0.097 -0.002,-0.2 0.059,-0.278 0.061,-0.078 0.147,-0.138 0.256,-0.122 l 0.044,0 c 0.326,0 3.238,-0.021 5.193,-0.758 0.082,-0.031 0.172,-0.027 0.25,0.01 0.078,0.037 0.14,0.104 0.167,0.186 0.025,0.072 0.596,1.773 -0.376,2.928 -0.766,0.909 -1.961,1.293 -2.674,1.522 -0.149,0.048 -0.277,0.089 -0.376,0.127 -0.121,0.047 -0.237,0.071 -0.349,0.071 z m -1.449,-3.448 c 0.116,0.35 0.32,0.9 0.634,1.528 l 0.078,0.157 c 0.312,0.625 0.559,1.119 0.737,1.119 0.031,0 0.072,-0.01 0.118,-0.028 0.108,-0.042 0.248,-0.087 0.412,-0.14 0.69,-0.222 1.731,-0.556 2.378,-1.323 0.526,-0.624 0.438,-1.518 0.34,-1.987 -1.675,0.543 -3.77,0.653 -4.697,0.674 z"
     id="path49"
     inkscape:connector-curvature="0"
     style="fill:#4e4e4e" /><path
     d="m 122.88145,57.8935 c -0.709,0 -1.101,-0.1 -1.27,-0.324 -0.054,-0.072 -0.084,-0.156 -0.087,-0.239 -0.027,-0.16 -0.113,-0.781 0.004,-1.506 0.132,-0.817 0.36,-1.211 0.386,-1.253 0.045,-0.074 0.117,-0.126 0.201,-0.146 0.084,-0.019 0.172,-0.006 0.245,0.04 0.015,0.01 1.572,0.963 3.36,0.963 l 0,0 c 0.603,0 1.17,-0.109 1.684,-0.324 0.147,-0.062 0.318,-0.006 0.4,0.132 0.082,0.138 0.051,0.314 -0.074,0.416 -0.001,10e-4 -0.169,0.158 -0.208,0.537 -0.032,0.309 -0.008,0.436 -0.007,0.437 0.023,0.114 -0.014,0.241 -0.101,0.317 -0.072,0.063 -0.77,0.619 -3.23,0.871 -0.508,0.052 -0.946,0.079 -1.303,0.079 z m -0.728,-0.716 c 0.084,0.028 0.287,0.072 0.728,0.072 0.334,0 0.751,-0.026 1.237,-0.075 1.687,-0.173 2.462,-0.491 2.744,-0.64 -0.003,-0.102 0.001,-0.237 0.019,-0.411 0.007,-0.065 0.016,-0.126 0.028,-0.183 -0.38,0.089 -0.778,0.134 -1.19,0.134 l 0,0 c -1.487,0 -2.791,-0.576 -3.376,-0.879 -0.058,0.168 -0.127,0.411 -0.18,0.734 -0.091,0.57 -0.036,1.07 -0.01,1.248 z"
     id="path51"
     inkscape:connector-curvature="0"
     style="fill:#4e4e4e" /><circle
     cx="129.48946"
     cy="56.731503"
     r="0.602"
     id="circle53"
     style="fill:#4e4e4e" /><path
     d="m 140.96445,55.7235 c -0.143,0 -0.274,-0.097 -0.311,-0.242 -0.01,-0.033 -0.472,-1.698 -2.271,-2.712 -0.155,-0.087 -0.21,-0.284 -0.122,-0.439 0.088,-0.155 0.285,-0.21 0.439,-0.122 2.057,1.159 2.559,3.033 2.579,3.112 0.044,0.172 -0.059,0.348 -0.232,0.392 -0.028,0.008 -0.055,0.011 -0.082,0.011 z"
     id="path55"
     inkscape:connector-curvature="0"
     style="fill:#4e4e4e" /><path
     d="m 140.07445,52.4115 c -0.096,0 -0.189,-0.042 -0.253,-0.122 -0.012,-0.015 -1.229,-1.541 -2.885,-2.291 -0.162,-0.074 -0.234,-0.265 -0.161,-0.426 0.074,-0.162 0.264,-0.234 0.426,-0.161 1.801,0.817 3.071,2.412 3.125,2.48 0.11,0.14 0.086,0.342 -0.054,0.452 -0.059,0.046 -0.129,0.068 -0.198,0.068 z"
     id="path57"
     inkscape:connector-curvature="0"
     style="fill:#4e4e4e" /><path
     d="m 138.06245,49.3195 c -0.066,0 -0.133,-0.021 -0.191,-0.063 -0.013,-0.011 -1.397,-1.019 -3.232,-1.578 -0.17,-0.052 -0.267,-0.232 -0.214,-0.402 0.052,-0.17 0.232,-0.267 0.402,-0.214 1.944,0.592 3.366,1.632 3.426,1.676 0.143,0.105 0.174,0.307 0.068,0.45 -0.062,0.085 -0.159,0.131 -0.259,0.131 z"
     id="path59"
     inkscape:connector-curvature="0"
     style="fill:#4e4e4e" /><path
     d="m 121.25945,62.9835 c -0.048,0 -0.097,-0.011 -0.141,-0.032 -1.582,-0.777 -2.584,-2.266 -2.626,-2.329 -0.098,-0.148 -0.058,-0.348 0.09,-0.446 0.147,-0.098 0.348,-0.058 0.447,0.09 0.01,0.014 0.951,1.408 2.373,2.107 0.16,0.078 0.225,0.271 0.147,0.431 -0.057,0.113 -0.172,0.179 -0.29,0.179 z"
     id="path61"
     inkscape:connector-curvature="0"
     style="fill:#4e4e4e" /><path
     d="m 123.34245,65.3795 c -0.023,0 -0.046,-0.002 -0.069,-0.008 -2.239,-0.487 -3.175,-1.702 -3.213,-1.752 -0.107,-0.142 -0.078,-0.344 0.063,-0.451 0.142,-0.106 0.343,-0.078 0.45,0.062 l 0,0 c 0.009,0.011 0.848,1.08 2.837,1.512 0.174,0.038 0.284,0.209 0.247,0.383 -0.033,0.152 -0.167,0.254 -0.315,0.254 z"
     id="path63"
     inkscape:connector-curvature="0"
     style="fill:#4e4e4e" /><path
     d="m 126.80445,67.2195 c -2.56,0 -3.608,-0.749 -3.654,-0.782 -0.143,-0.105 -0.174,-0.307 -0.069,-0.45 0.105,-0.142 0.305,-0.174 0.448,-0.07 0.019,0.013 1.046,0.712 3.57,0.655 0.177,0.007 0.325,0.137 0.33,0.314 0.004,0.178 -0.137,0.325 -0.314,0.33 -0.106,0.002 -0.209,0.003 -0.311,0.003 z"
     id="path65"
     inkscape:connector-curvature="0"
     style="fill:#4e4e4e" /><path
     d="m 29.504454,68.4715 c -6.493,0 -11.775,-5.282 -11.775,-11.775 0,-6.493 5.282,-11.774 11.775,-11.774 6.493,0 11.776,5.282 11.776,11.775 0,6.491 -5.283,11.774 -11.776,11.774 z m 0,-22.906 c -6.137,0 -11.131,4.993 -11.131,11.131 0,6.137 4.993,11.131 11.131,11.131 6.138,0 11.131,-4.993 11.131,-11.131 0,-6.138 -4.993,-11.131 -11.131,-11.131 z"
     id="path67"
     inkscape:connector-curvature="0"
     style="fill:#4e4e4e" /><path
     d="m 29.612454,65.6115 c -4.794,0 -8.693,-3.899 -8.693,-8.693 0,-4.794 3.899,-8.693 8.693,-8.693 4.794,0 8.693,3.899 8.693,8.693 0,4.794 -3.9,8.693 -8.693,8.693 z m 0,-16.742 c -4.438,0 -8.049,3.611 -8.049,8.049 0,4.438 3.611,8.049 8.049,8.049 4.438,0 8.049,-3.611 8.049,-8.049 0,-4.438 -3.611,-8.049 -8.049,-8.049 z"
     id="path69"
     inkscape:connector-curvature="0"
     style="fill:#4e4e4e" /><path
     d="m 29.674454,66.2755 c -3.366,0 -6.503,-1.815 -8.186,-4.735 -0.089,-0.154 -0.036,-0.351 0.118,-0.44 0.154,-0.089 0.351,-0.036 0.44,0.118 1.568,2.721 4.491,4.412 7.628,4.412 0.707,0 1.41,-0.084 2.09,-0.249 0.172,-0.044 0.347,0.064 0.389,0.237 0.042,0.173 -0.064,0.347 -0.237,0.389 -0.729,0.178 -1.483,0.268 -2.242,0.268 z"
     id="path71"
     inkscape:connector-curvature="0"
     style="fill:#4e4e4e" /><path
     d="m 21.179454,53.8375 c -0.039,0 -0.079,-0.007 -0.118,-0.022 -0.165,-0.065 -0.247,-0.251 -0.183,-0.418 1.427,-3.647 4.879,-6.004 8.795,-6.004 0.64,0 1.28,0.065 1.902,0.192 0.174,0.035 0.287,0.206 0.251,0.38 -0.035,0.174 -0.206,0.287 -0.38,0.251 -0.579,-0.118 -1.176,-0.179 -1.773,-0.179 -3.65,0 -6.866,2.196 -8.195,5.595 -0.049,0.128 -0.17,0.205 -0.299,0.205 z"
     id="path73"
     inkscape:connector-curvature="0"
     style="fill:#4e4e4e" /><path
     d="m 29.409454,58.2825 c -0.872,0 -1.582,-0.71 -1.582,-1.582 0,-0.872 0.71,-1.582 1.582,-1.582 0.872,0 1.582,0.71 1.582,1.582 10e-4,0.872 -0.709,1.582 -1.582,1.582 z m 0,-2.521 c -0.518,0 -0.938,0.421 -0.938,0.938 0,0.517 0.421,0.938 0.938,0.938 0.517,0 0.938,-0.421 0.938,-0.938 0,-0.517 -0.421,-0.938 -0.938,-0.938 z"
     id="path75"
     inkscape:connector-curvature="0"
     style="fill:#4e4e4e" /><path
     d="m 29.409454,58.9845 c -1.259,0 -2.284,-1.024 -2.284,-2.284 0,-1.259 1.024,-2.284 2.284,-2.284 1.259,0 2.284,1.024 2.284,2.284 0,1.259 -1.024,2.284 -2.284,2.284 z m 0,-3.924 c -0.904,0 -1.64,0.736 -1.64,1.64 0,0.904 0.736,1.64 1.64,1.64 0.904,0 1.64,-0.736 1.64,-1.64 0,-0.905 -0.736,-1.64 -1.64,-1.64 z"
     id="path77"
     inkscape:connector-curvature="0"
     style="fill:#4e4e4e" /><path
     d="m 31.013454,55.0605 c -0.019,0 -0.037,-0.002 -0.056,-0.005 -0.104,-0.018 -0.192,-0.086 -0.236,-0.183 l -0.934,-2.023 c -0.015,-0.031 -0.437,-0.913 0.007,-1.763 0.378,-0.725 1.538,-2.404 1.588,-2.476 0.101,-0.146 0.302,-0.183 0.448,-0.081 0.146,0.101 0.183,0.302 0.081,0.448 -0.011,0.017 -1.187,1.717 -1.547,2.407 -0.29,0.556 0.001,1.182 0.004,1.188 l 0.743,1.609 3.783,-3.794 c 0.125,-0.126 0.33,-0.126 0.456,-0.001 0.126,0.125 0.126,0.33 10e-4,0.456 l -4.11,4.122 c -0.062,0.063 -0.144,0.096 -0.228,0.096 z"
     id="path79"
     inkscape:connector-curvature="0"
     style="fill:#4e4e4e" /><path
     d="m 31.128454,54.9445 c -0.142,0 -0.273,-0.096 -0.311,-0.239 -0.658,-2.474 0.135,-3.49 0.306,-3.675 l 1.471,-2.021 c 0.105,-0.144 0.306,-0.175 0.45,-0.071 0.144,0.105 0.176,0.306 0.071,0.45 l -1.484,2.039 c -0.012,0.017 -0.027,0.033 -0.043,0.048 -0.003,0.003 -0.755,0.784 -0.149,3.063 0.046,0.172 -0.056,0.349 -0.228,0.394 -0.027,0.008 -0.055,0.012 -0.083,0.012 z"
     id="path81"
     inkscape:connector-curvature="0"
     style="fill:#4e4e4e" /><path
     d="m 30.296454,55.2745 c -0.115,0 -0.226,-0.062 -0.284,-0.17 -0.035,-0.066 -0.871,-1.642 -1.094,-3.486 -0.218,-1.808 -0.194,-3.009 -0.193,-3.06 0.004,-0.178 0.149,-0.333 0.33,-0.314 0.178,0.004 0.318,0.151 0.314,0.33 0,0.011 -0.024,1.21 0.188,2.968 0.207,1.72 1.014,3.243 1.022,3.258 0.084,0.157 0.025,0.352 -0.132,0.436 -0.047,0.025 -0.099,0.038 -0.151,0.038 z"
     id="path83"
     inkscape:connector-curvature="0"
     style="fill:#4e4e4e" /><path
     d="m 28.743454,55.1785 c -0.12,0 -0.235,-0.067 -0.29,-0.183 l -2.654,-5.534 c -0.077,-0.161 -0.01,-0.353 0.151,-0.43 0.16,-0.076 0.353,-0.01 0.43,0.151 l 2.654,5.534 c 0.077,0.161 0.01,0.353 -0.151,0.43 -0.046,0.022 -0.093,0.032 -0.14,0.032 z"
     id="path85"
     inkscape:connector-curvature="0"
     style="fill:#4e4e4e" /><path
     d="m 26.955454,55.2475 c -0.001,0 0,0 0,0 -0.472,0 -0.967,-0.067 -1.471,-0.198 -1.726,-0.449 -2.737,-2.098 -2.779,-2.168 -0.054,-0.091 -0.061,-0.202 -0.018,-0.298 0.012,-0.028 0.311,-0.686 1.02,-1.422 0.576,-0.599 1.827,-1.352 1.879,-1.384 0.076,-0.046 0.169,-0.058 0.254,-0.033 0.086,0.025 0.158,0.084 0.198,0.163 l 2.396,4.684 c 0.04,0.079 0.047,0.172 0.016,0.255 -0.03,0.084 -0.093,0.151 -0.175,0.187 -0.018,0.009 -0.498,0.214 -1.32,0.214 z m -3.601,-2.553 c 0.272,0.385 1.098,1.422 2.291,1.732 0.451,0.118 0.891,0.177 1.308,0.177 0.305,0 0.55,-0.032 0.729,-0.068 l -2.058,-4.022 c -0.397,0.253 -1.095,0.721 -1.454,1.095 -0.436,0.455 -0.696,0.871 -0.816,1.086 z"
     id="path87"
     inkscape:connector-curvature="0"
     style="fill:#4e4e4e" /><path
     d="m 31.325454,57.4415 c -0.045,0 -0.091,-0.01 -0.135,-0.03 -0.161,-0.075 -0.231,-0.263 -0.159,-0.423 0.021,-0.046 0.533,-1.138 2.656,-2.318 2.09,-1.162 3.556,-1.303 3.618,-1.308 0.176,-0.015 0.333,0.115 0.349,0.291 0.016,0.177 -0.115,0.333 -0.291,0.35 -0.013,10e-4 -1.403,0.14 -3.362,1.23 -1.91,1.062 -2.378,2.013 -2.383,2.023 -0.055,0.116 -0.171,0.185 -0.293,0.185 z"
     id="path89"
     inkscape:connector-curvature="0"
     style="fill:#4e4e4e" /><path
     d="m 30.912454,55.7615 c -0.087,0 -0.174,-0.035 -0.237,-0.104 -0.12,-0.131 -0.112,-0.334 0.019,-0.455 l 4.72,-4.338 c 0.131,-0.119 0.334,-0.112 0.455,0.019 0.12,0.131 0.112,0.334 -0.019,0.455 l -4.72,4.338 c -0.062,0.057 -0.14,0.085 -0.218,0.085 z"
     id="path91"
     inkscape:connector-curvature="0"
     style="fill:#4e4e4e" /><path
     d="m 37.270454,60.6245 c -0.053,0 -0.105,-0.012 -0.154,-0.039 l -5.43,-2.964 c -0.087,-0.048 -0.148,-0.133 -0.163,-0.231 -0.016,-0.098 0.014,-0.198 0.082,-0.271 0.173,-0.186 1.722,-1.827 2.693,-1.997 0.947,-0.168 3.48,0.715 3.766,0.815 0.168,0.059 0.256,0.244 0.196,0.411 -0.059,0.167 -0.243,0.256 -0.411,0.196 -1.018,-0.359 -2.85,-0.891 -3.44,-0.788 -0.49,0.086 -1.412,0.873 -2.042,1.501 l 5.059,2.761 c 0.156,0.085 0.214,0.281 0.128,0.437 -0.059,0.108 -0.17,0.169 -0.284,0.169 z"
     id="path93"
     inkscape:connector-curvature="0"
     style="fill:#4e4e4e" /><path
     d="m 34.745454,63.1055 c -0.016,0 -0.032,-10e-4 -0.049,-0.004 -0.106,-0.016 -0.197,-0.084 -0.243,-0.181 -0.005,-0.011 -0.514,-1.064 -1.645,-1.935 -1.186,-0.913 -2.664,-1.808 -2.678,-1.816 -0.104,-0.063 -0.163,-0.179 -0.155,-0.3 0.009,-0.121 0.085,-0.226 0.198,-0.273 0.003,-10e-4 0.336,-0.144 0.694,-0.446 0.283,-0.239 0.335,-0.373 0.335,-0.374 0.018,-0.105 0.082,-0.179 0.179,-0.223 0.097,-0.044 0.204,-0.023 0.296,0.032 l 5.007,2.992 c 0.083,0.05 0.14,0.135 0.154,0.23 0.014,0.096 -0.016,0.193 -0.081,0.265 l -1.774,1.93 c -0.062,0.066 -0.148,0.103 -0.238,0.103 z m -3.816,-4.197 c 0.541,0.342 1.462,0.944 2.272,1.567 0.817,0.628 1.336,1.332 1.606,1.764 l 1.207,-1.313 -4.393,-2.624 c -0.079,0.098 -0.189,0.211 -0.339,0.339 -0.122,0.105 -0.243,0.194 -0.353,0.267 z"
     id="path95"
     inkscape:connector-curvature="0"
     style="fill:#4e4e4e" /><path
     d="m 29.189454,64.9095 c -0.252,0 -0.577,-0.007 -0.693,-0.04 -0.17,-0.049 -0.269,-0.226 -0.222,-0.397 0.007,-0.023 0.648,-2.328 0.815,-3.87 l 0.171,-1.587 c 0.011,-0.103 0.071,-0.194 0.161,-0.246 0.09,-0.052 0.2,-0.056 0.293,-0.012 0.048,0.022 1.175,0.54 1.819,0.917 0.852,0.5 1.316,1.362 1.305,2.429 -0.011,1.085 0,2.14 0,2.141 0.002,0.14 -0.086,0.263 -0.218,0.308 -0.032,0.011 -0.788,0.265 -2.311,0.329 -0.503,0.021 -0.864,0.028 -1.12,0.028 z m -0.19,-0.646 c 0.245,0.004 0.651,0 1.285,-0.026 0.965,-0.04 1.6,-0.161 1.91,-0.235 -0.003,-0.377 -0.006,-1.134 0.002,-1.905 0.011,-1.059 -0.531,-1.6 -0.987,-1.867 -0.383,-0.225 -0.966,-0.511 -1.356,-0.697 l -0.122,1.138 c -0.133,1.227 -0.539,2.859 -0.732,3.592 z"
     id="path97"
     inkscape:connector-curvature="0"
     style="fill:#4e4e4e" /><path
     d="m 27.808454,64.7255 c -0.017,0 -0.034,-0.002 -0.053,-0.004 -2.193,-0.36 -2.481,-1.205 -2.517,-1.371 -0.011,-0.054 -0.009,-0.111 0.008,-0.164 0.035,-0.114 0.362,-1.121 0.876,-1.612 0.388,-0.371 0.737,-0.994 1.166,-2.083 0.24,-0.609 0.723,-0.944 1.361,-0.944 0.271,0 0.474,0.063 0.496,0.071 0.078,0.026 0.144,0.081 0.183,0.154 0.053,0.097 0.123,0.229 -0.272,2.057 -0.368,1.704 -0.935,3.645 -0.941,3.664 -0.038,0.141 -0.166,0.232 -0.307,0.232 z m -1.908,-1.46 c 0.097,0.138 0.465,0.526 1.679,0.769 0.168,-0.594 0.569,-2.039 0.849,-3.34 0.181,-0.834 0.253,-1.274 0.282,-1.499 -0.019,-0.001 -0.039,-0.002 -0.06,-0.002 -0.371,0 -0.62,0.175 -0.762,0.536 -0.472,1.198 -0.854,1.868 -1.321,2.313 -0.294,0.28 -0.552,0.899 -0.667,1.223 z"
     id="path99"
     inkscape:connector-curvature="0"
     style="fill:#4e4e4e" /><path
     d="m 23.649454,62.0375 c -0.576,0 -0.853,-0.555 -1.313,-1.474 l -0.078,-0.156 c -0.569,-1.137 -0.793,-2.019 -0.803,-2.055 -0.024,-0.097 -0.002,-0.2 0.059,-0.278 0.062,-0.078 0.149,-0.138 0.256,-0.122 l 0.044,0 c 0.326,0 3.238,-0.021 5.193,-0.758 0.082,-0.031 0.172,-0.027 0.25,0.01 0.079,0.037 0.14,0.104 0.167,0.186 0.025,0.072 0.596,1.773 -0.376,2.928 -0.766,0.91 -1.961,1.293 -2.674,1.522 -0.149,0.048 -0.277,0.089 -0.376,0.127 -0.121,0.046 -0.236,0.07 -0.349,0.07 z m -1.449,-3.448 c 0.116,0.35 0.32,0.9 0.634,1.528 l 0.078,0.157 c 0.312,0.625 0.559,1.119 0.737,1.119 0.031,0 0.072,-0.01 0.118,-0.028 0.108,-0.042 0.248,-0.087 0.412,-0.14 0.69,-0.222 1.731,-0.556 2.378,-1.324 0.523,-0.62 0.435,-1.516 0.339,-1.987 -1.674,0.544 -3.769,0.654 -4.696,0.675 z"
     id="path101"
     inkscape:connector-curvature="0"
     style="fill:#4e4e4e" /><path
     d="m 22.801454,57.8935 c -0.709,0 -1.101,-0.1 -1.27,-0.324 -0.054,-0.072 -0.084,-0.156 -0.087,-0.239 -0.027,-0.16 -0.113,-0.781 0.004,-1.506 0.132,-0.817 0.36,-1.211 0.386,-1.253 0.045,-0.074 0.117,-0.126 0.201,-0.146 0.084,-0.021 0.172,-0.006 0.245,0.039 0.015,0.01 1.572,0.963 3.36,0.963 l 0,0 c 0.603,0 1.17,-0.109 1.684,-0.324 0.147,-0.062 0.318,-0.006 0.4,0.132 0.082,0.138 0.051,0.314 -0.074,0.416 -0.001,0.001 -0.169,0.158 -0.208,0.537 -0.032,0.309 -0.008,0.436 -0.007,0.437 0.023,0.114 -0.014,0.241 -0.101,0.317 -0.072,0.063 -0.771,0.619 -3.23,0.871 -0.509,0.053 -0.946,0.08 -1.303,0.08 z m -0.728,-0.716 c 0.084,0.028 0.287,0.072 0.728,0.072 0.334,0 0.751,-0.026 1.237,-0.075 1.687,-0.173 2.461,-0.491 2.743,-0.64 -0.003,-0.102 0.001,-0.237 0.019,-0.412 0.007,-0.065 0.016,-0.126 0.028,-0.183 -0.379,0.089 -0.778,0.134 -1.19,0.134 l 0,0 c -1.487,0 -2.791,-0.576 -3.376,-0.879 -0.058,0.168 -0.127,0.411 -0.18,0.734 -0.09,0.571 -0.035,1.071 -0.009,1.249 z"
     id="path103"
     inkscape:connector-curvature="0"
     style="fill:#4e4e4e" /><circle
     cx="29.409454"
     cy="56.731503"
     r="0.602"
     id="circle105"
     style="fill:#4e4e4e" /><path
     d="m 40.884454,55.7235 c -0.143,0 -0.274,-0.097 -0.311,-0.241 l 0,0 c -0.005,-0.017 -0.462,-1.693 -2.271,-2.712 -0.155,-0.087 -0.21,-0.284 -0.122,-0.439 0.088,-0.155 0.285,-0.21 0.439,-0.122 2.057,1.159 2.559,3.033 2.579,3.112 0.044,0.172 -0.059,0.348 -0.232,0.392 -0.028,0.007 -0.055,0.01 -0.082,0.01 z"
     id="path107"
     inkscape:connector-curvature="0"
     style="fill:#4e4e4e" /><path
     d="m 39.994454,52.4115 c -0.096,0 -0.189,-0.042 -0.253,-0.122 -0.012,-0.015 -1.229,-1.541 -2.885,-2.291 -0.162,-0.074 -0.234,-0.265 -0.161,-0.426 0.074,-0.162 0.265,-0.234 0.426,-0.161 1.801,0.817 3.071,2.412 3.125,2.48 0.11,0.14 0.086,0.342 -0.054,0.452 -0.059,0.046 -0.129,0.068 -0.198,0.068 z"
     id="path109"
     inkscape:connector-curvature="0"
     style="fill:#4e4e4e" /><path
     d="m 37.982454,49.3195 c -0.066,0 -0.133,-0.021 -0.191,-0.063 -0.013,-0.011 -1.397,-1.019 -3.232,-1.578 -0.17,-0.052 -0.267,-0.232 -0.214,-0.402 0.052,-0.17 0.232,-0.267 0.402,-0.214 1.944,0.592 3.366,1.632 3.426,1.676 0.143,0.105 0.174,0.307 0.068,0.45 -0.062,0.085 -0.159,0.131 -0.259,0.131 z"
     id="path111"
     inkscape:connector-curvature="0"
     style="fill:#4e4e4e" /><path
     d="m 21.179454,62.9835 c -0.048,0 -0.097,-0.011 -0.141,-0.032 -1.582,-0.777 -2.584,-2.266 -2.626,-2.329 -0.098,-0.148 -0.058,-0.348 0.09,-0.446 0.148,-0.098 0.348,-0.058 0.447,0.09 0.01,0.014 0.951,1.408 2.373,2.107 0.16,0.078 0.226,0.271 0.147,0.431 -0.057,0.113 -0.172,0.179 -0.29,0.179 z"
     id="path113"
     inkscape:connector-curvature="0"
     style="fill:#4e4e4e" /><path
     d="m 23.262454,65.3795 c -0.023,0 -0.046,-0.002 -0.069,-0.008 -2.239,-0.487 -3.175,-1.702 -3.213,-1.752 -0.107,-0.142 -0.078,-0.344 0.064,-0.451 0.142,-0.106 0.343,-0.078 0.45,0.062 l 0,0 c 0.009,0.011 0.848,1.08 2.837,1.512 0.174,0.038 0.284,0.209 0.247,0.383 -0.034,0.152 -0.168,0.254 -0.316,0.254 z"
     id="path115"
     inkscape:connector-curvature="0"
     style="fill:#4e4e4e" /><path
     d="m 26.724454,67.2195 c -2.559,0 -3.608,-0.749 -3.653,-0.782 -0.143,-0.105 -0.174,-0.307 -0.069,-0.45 0.105,-0.142 0.306,-0.174 0.448,-0.07 0.019,0.013 1.041,0.713 3.57,0.655 0.189,0.007 0.325,0.137 0.33,0.314 0.004,0.178 -0.137,0.325 -0.314,0.33 -0.107,0.002 -0.21,0.003 -0.312,0.003 z"
     id="path117"
     inkscape:connector-curvature="0"
     style="fill:#4e4e4e" /><path
     d="m 156.18145,55.7615 c -0.036,0 -0.074,-0.006 -0.11,-0.019 -0.167,-0.06 -0.254,-0.246 -0.193,-0.413 l 0.451,-1.245 c 0.06,-0.167 0.247,-0.254 0.413,-0.193 0.167,0.06 0.254,0.246 0.193,0.413 l -0.451,1.245 c -0.048,0.131 -0.172,0.212 -0.303,0.212 z"
     id="path119"
     inkscape:connector-curvature="0"
     style="fill:#4e4e4e" /><path
     d="m 154.84245,57.8935 c -0.164,0 -0.305,-0.125 -0.32,-0.292 -0.016,-0.177 0.115,-0.333 0.291,-0.351 0.005,0 0.176,-0.016 0.43,-0.049 -0.096,-0.053 -0.163,-0.153 -0.168,-0.27 -0.008,-0.178 0.131,-0.328 0.309,-0.335 2.217,-0.09 2.253,0.095 2.305,0.351 0.042,0.209 -0.082,0.37 -0.368,0.476 -0.87,0.322 -2.384,0.463 -2.448,0.469 -0.012,0 -0.022,0.001 -0.031,0.001 z"
     id="path121"
     inkscape:connector-curvature="0"
     style="fill:#4e4e4e" /><path
     d="m 114.84445,63.3565 c -0.085,0 -0.168,-0.033 -0.23,-0.097 l -2.241,-2.287 c -0.093,-0.095 -0.118,-0.235 -0.064,-0.356 0.006,-0.012 0.558,-1.26 0.967,-2.579 0.437,-1.408 0.82,-1.896 1.706,-2.173 0.052,-0.016 0.104,-0.018 0.153,-0.01 0.239,-1.465 0.569,-2.91 1.028,-4.063 1.629,-4.094 6.051,-8.875 13.154,-8.875 8.122,0 11.108,3.888 12.801,7.275 1.624,3.249 1.407,8.44 1.318,9.794 6.752,0.526 12.18,-1.303 12.784,-1.728 0.641,-0.449 0.836,-1.207 0.838,-1.213 0.043,-0.172 0.22,-0.277 0.39,-0.235 0.172,0.043 0.278,0.216 0.236,0.388 -0.01,0.04 -0.249,0.997 -1.094,1.589 -0.919,0.644 -6.734,2.415 -13.528,1.815 -0.085,-0.008 -0.163,-0.049 -0.219,-0.114 -0.054,-0.065 -0.081,-0.15 -0.074,-0.235 0.006,-0.062 0.53,-6.256 -1.228,-9.772 -1.611,-3.221 -4.456,-6.919 -12.225,-6.919 -8.928,0 -12.211,7.602 -12.556,8.469 -1.489,3.741 -1.595,10.937 -1.596,11.009 -0.002,0.13 -0.081,0.247 -0.203,0.295 -0.035,0.015 -0.077,0.022 -0.117,0.022 z m -1.859,-2.68 1.557,1.589 c 0.039,-1.149 0.156,-3.418 0.49,-5.739 -0.48,0.177 -0.758,0.466 -1.141,1.701 -0.326,1.053 -0.731,2.036 -0.906,2.449 z"
     id="path123"
     inkscape:connector-curvature="0"
     style="fill:#4e4e4e" /><path
     d="m 150.89545,58.2825 c -0.015,0 -0.418,-10e-4 -3.285,-0.098 -3.985,-0.136 -3.985,-0.232 -3.983,-0.59 0.003,-0.373 0.217,-0.391 1.893,-0.422 3.274,-0.061 5.854,-0.256 5.88,-0.258 0.179,-0.012 0.333,0.119 0.346,0.297 0.013,0.178 -0.119,0.333 -0.297,0.346 -0.011,0.001 -0.407,0.031 -1.081,0.071 0.419,0.011 0.519,0.011 0.527,0.011 0.178,0 0.322,0.144 0.321,0.323 0.001,0.176 -0.144,0.32 -0.321,0.32 z"
     id="path125"
     inkscape:connector-curvature="0"
     style="fill:#4e4e4e" /><path
     d="m 143.94945,62.9835 c -0.058,0 -0.118,-0.016 -0.169,-0.048 -0.009,-0.005 -0.823,-0.505 -1.884,-0.817 l -0.146,-0.043 c -1.005,-0.294 -1.612,-0.472 -1.662,-1.617 -0.008,-0.178 0.13,-0.328 0.308,-0.335 0.171,-0.01 0.328,0.13 0.335,0.308 0.029,0.658 0.161,0.722 1.199,1.026 l 0.147,0.043 c 0.784,0.231 1.43,0.549 1.774,0.736 0.065,-0.126 0.138,-0.312 0.17,-0.562 0.076,-0.586 0.001,-1.181 0,-1.188 -0.023,-0.177 0.101,-0.338 0.278,-0.361 0.179,-0.026 0.338,0.101 0.361,0.278 0.004,0.028 0.088,0.686 0,1.354 -0.095,0.722 -0.444,1.092 -0.483,1.131 -0.062,0.062 -0.145,0.095 -0.228,0.095 z"
     id="path127"
     inkscape:connector-curvature="0"
     style="fill:#4e4e4e" /><path
     d="m 120.00945,63.3565 c -0.066,0 -0.133,-0.02 -0.19,-0.062 -0.012,-0.01 -1.274,-0.924 -2.803,-1.265 -1.41,-0.314 -1.905,-0.044 -1.91,-0.041 -0.15,0.087 -0.347,0.042 -0.439,-0.106 -0.092,-0.147 -0.056,-0.337 0.087,-0.434 0.108,-0.074 0.732,-0.42 2.401,-0.048 1.665,0.372 2.989,1.334 3.044,1.375 0.143,0.105 0.174,0.307 0.069,0.45 -0.062,0.085 -0.161,0.131 -0.259,0.131 z"
     id="path129"
     inkscape:connector-curvature="0"
     style="fill:#4e4e4e" /><path
     d="m 15.991454,60.0265 c -0.083,0 -0.165,-0.032 -0.227,-0.094 -0.03,-0.03 -0.293,-0.309 -0.363,-0.841 -0.05,-0.376 -0.213,-0.709 -0.215,-0.712 -0.079,-0.159 -0.014,-0.353 0.144,-0.432 0.158,-0.08 0.352,-0.015 0.432,0.143 0.009,0.017 0.214,0.429 0.278,0.917 0.012,0.095 0.033,0.175 0.057,0.241 0.201,-0.114 0.502,-0.255 0.916,-0.377 0.249,-0.074 0.455,-0.104 0.606,-0.126 0.09,-0.013 0.201,-0.03 0.234,-0.047 -0.004,-0.003 0.015,-0.053 0.021,-0.193 0.008,-0.178 0.16,-0.313 0.335,-0.308 0.178,0.008 0.315,0.158 0.308,0.335 -0.03,0.68 -0.367,0.784 -0.805,0.849 -0.146,0.022 -0.312,0.047 -0.519,0.107 -0.683,0.202 -0.99,0.457 -0.993,0.46 -0.058,0.052 -0.133,0.078 -0.209,0.078 z"
     id="path131"
     inkscape:connector-curvature="0"
     style="fill:#4e4e4e" /><path
     d="m 43.938454,60.7655 c -0.122,0 -0.238,-0.07 -0.292,-0.187 -0.009,-0.018 -0.382,-0.784 -1.368,-1.235 -0.738,-0.338 -1.047,-0.383 -1.153,-0.385 -0.063,0.069 -0.157,0.109 -0.255,0.106 -0.178,-0.009 -0.314,-0.161 -0.306,-0.338 0.007,-0.131 0.084,-0.253 0.207,-0.329 0.199,-0.12 0.581,-0.189 1.775,0.359 1.221,0.56 1.667,1.513 1.686,1.553 0.074,0.161 0.003,0.353 -0.16,0.427 -0.044,0.02 -0.089,0.029 -0.134,0.029 z"
     id="path133"
     inkscape:connector-curvature="0"
     style="fill:#4e4e4e" /><path
     d="m 140.96545,36.9165 c -0.03,0 -0.059,-0.004 -0.088,-0.012 -0.07,-0.02 -7.077,-1.999 -14.027,-2.756 -0.177,-0.019 -0.305,-0.179 -0.286,-0.355 0.019,-0.177 0.181,-0.306 0.355,-0.286 7.006,0.762 14.063,2.757 14.134,2.777 0.171,0.049 0.27,0.226 0.222,0.397 -0.041,0.143 -0.17,0.235 -0.31,0.235 z"
     id="path135"
     inkscape:connector-curvature="0"
     style="fill:#4e4e4e" /><path
     d="m 139.68445,40.0585 c -0.025,0 -0.051,-0.003 -0.075,-0.009 -0.071,-0.017 -7.118,-1.696 -15.018,-2.186 -5.361,-0.333 -5.358,-0.384 -5.342,-0.786 0.016,-0.403 0.019,-0.476 6.392,-0.354 4.433,0.084 8.35,0.655 12.497,1.259 2.001,0.291 4.07,0.593 6.242,0.844 0.177,0.02 0.304,0.181 0.283,0.357 -0.02,0.177 -0.182,0.305 -0.357,0.283 -2.181,-0.251 -4.255,-0.554 -6.261,-0.847 -3.66,-0.533 -7.139,-1.041 -10.943,-1.207 6.901,0.639 12.595,1.996 12.658,2.011 0.173,0.041 0.28,0.216 0.238,0.388 -0.037,0.148 -0.169,0.247 -0.314,0.247 z"
     id="path137"
     inkscape:connector-curvature="0"
     style="fill:#4e4e4e" /><path
     d="m 141.03845,45.1775 c -0.101,0 -0.201,-0.048 -0.264,-0.137 -0.03,-0.043 -3.087,-4.251 -11.189,-4.251 -8.122,0 -10.532,3.554 -10.555,3.589 -0.097,0.149 -0.297,0.191 -0.446,0.094 -0.149,-0.097 -0.191,-0.297 -0.094,-0.446 0.103,-0.159 2.628,-3.881 11.094,-3.881 8.461,0 11.588,4.341 11.717,4.526 0.101,0.146 0.066,0.346 -0.079,0.448 -0.056,0.04 -0.12,0.058 -0.184,0.058 z"
     id="path139"
     inkscape:connector-curvature="0"
     style="fill:#4e4e4e" /><path
     d="m 71.889454,37.3205 c -0.009,0 -0.017,0 -0.027,-0.001 -0.032,-0.003 -3.384,-0.274 -10.587,-0.952 -7.196,-0.676 -15.349,-1.238 -15.431,-1.244 -0.178,-0.012 -0.311,-0.166 -0.299,-0.343 0.012,-0.178 0.167,-0.315 0.343,-0.299 0.081,0.006 8.243,0.569 15.447,1.246 7.199,0.677 10.546,0.948 10.579,0.951 0.177,0.014 0.31,0.17 0.295,0.347 -0.012,0.167 -0.153,0.295 -0.32,0.295 z"
     id="path141"
     inkscape:connector-curvature="0"
     style="fill:#4e4e4e" /><path
     d="m 109.90145,57.0175 c -0.007,0 -0.013,0 -0.021,-10e-4 -0.065,-0.004 -6.606,-0.419 -15.397996,-0.541 -8.708,-0.12 -28.494,-0.924 -36.943,-1.744 -8.332,-0.808 -10.765,-2.49 -10.864,-2.561 -0.151,-0.076 -0.346,-0.287 -0.28,-0.553 0.082,-0.329 0.377,-0.623 3.057,-0.623 2.401,0 6.253,0.246 11.448,0.73 9.29,0.867 18.227,1.372 25.409,1.779 5.701,0.323 10.624,0.602 13.939996,0.96 0.929,0.1 1.759,0.188 2.504,0.267 5.31,0.561 6.325,0.668 7.339,1.698 0.084,0.058 0.14,0.156 0.14,0.266 0,0.18 -0.149,0.322 -0.327,0.322 -0.001,10e-4 -0.003,10e-4 -0.004,10e-4 z m -62.637996,-5.245 c 0.741,0.399 3.54,1.66 10.339,2.319 8.433,0.818 28.192,1.621 36.889,1.741 6.682996,0.093 12.068996,0.354 14.308996,0.477 -0.892,-0.385 -2.429,-0.547 -6.114,-0.936 -0.745,-0.078 -1.577,-0.166 -2.505,-0.268 -3.298996,-0.357 -8.214996,-0.635 -13.906996,-0.957 -7.186,-0.407 -16.13,-0.913 -25.433,-1.781 -5.175,-0.483 -9.007,-0.727 -11.388,-0.727 -1.249,0 -1.877,0.069 -2.19,0.132 z"
     id="path143"
     inkscape:connector-curvature="0"
     style="fill:#4e4e4e" /><path
     d="m 35.633454,34.4405 c -0.012,0 -0.024,-10e-4 -0.036,-0.002 -0.013,-0.002 -1.406,-0.156 -4.437,-0.291 -0.178,-0.008 -0.315,-0.159 -0.308,-0.336 0.008,-0.178 0.153,-0.32 0.336,-0.308 3.058,0.138 4.467,0.293 4.481,0.295 0.177,0.02 0.304,0.18 0.284,0.356 -0.019,0.163 -0.159,0.286 -0.32,0.286 z"
     id="path145"
     inkscape:connector-curvature="0"
     style="fill:#4e4e4e" /><path
     d="m 28.890454,34.0535 c -0.004,0 -0.008,0 -0.012,0 l -0.682,-0.026 c -0.887,-0.033 -1.603,-0.061 -2.559,-0.077 -0.178,-0.003 -0.32,-0.15 -0.316,-0.328 0.003,-0.178 0.156,-0.317 0.328,-0.316 0.96,0.016 1.681,0.043 2.572,0.077 l 0.681,0.026 c 0.178,0.007 0.316,0.156 0.311,0.333 -0.008,0.174 -0.151,0.311 -0.323,0.311 z"
     id="path147"
     inkscape:connector-curvature="0"
     style="fill:#4e4e4e" /><path
     d="m 13.185454,33.9425 c -0.097,0 -0.188,-0.043 -0.249,-0.118 -0.062,-0.075 -0.086,-0.176 -0.065,-0.271 -0.068,-0.198 -0.989,-0.375 -1.662,-0.505 -0.942,-0.182 -2.1150002,-0.407 -3.3640002,-0.869 -2.779,-1.027 -2.981,-1.604 -2.951,-2.108 0.043,-0.822 0.732,-1.178 2.306,-1.21 2.155,-0.042 6.0210002,-0.63 10.0870002,-1.533 l 0.189,-0.042 c 3.407,-0.757 3.407,-0.757 10.001,-3.449 1.593,-0.651 3.57,-1.457 6.069,-2.469 12.325,-4.989 31.636,-5.244 45.599,-3.819 11.589,1.183 16.788,3.413 26.227996,7.463 l 1.638,0.701 c 10.218,4.37 14.646,6.332 14.69,6.351 0.162,0.073 0.236,0.263 0.163,0.425 -0.073,0.162 -0.263,0.236 -0.425,0.163 -0.043,-0.019 -4.469,-1.98 -14.681,-6.348 l -1.638,-0.702 c -9.379996,-4.024 -14.547996,-6.24 -26.038996,-7.414 -13.885,-1.417 -33.075,-1.169 -45.291,3.775 -2.499,1.012 -4.475,1.818 -6.067,2.468 -6.645,2.713 -6.645,2.713 -10.105,3.482 l -0.189,0.042 c -4.167,0.926 -7.9860002,1.505 -10.2140002,1.548 -1.645,0.032 -1.665,0.418 -1.674,0.582 -0.022,0.355 0.877,0.876 2.529,1.487 1.2,0.443 2.3440002,0.664 3.2630002,0.841 1.128,0.217 1.808,0.348 2.077,0.756 0.026,0.039 0.048,0.081 0.064,0.123 1.204,-0.011 5.937,-0.046 10.19,-0.008 0.178,0.002 0.321,0.147 0.319,0.325 -0.002,0.177 -0.145,0.319 -0.322,0.319 -10e-4,0 -0.002,0 -0.003,0 -4.888,-0.044 -10.413,0.01 -10.469,0.011 -0.002,0.003 -0.003,0.003 -0.004,0.003 z"
     id="path149"
     inkscape:connector-curvature="0"
     style="fill:#4e4e4e" /><path
     d="m 112.60345,61.0695 c 0,0 -10e-4,0 -0.002,0 l -68.665996,-0.303 c -0.088,0 -0.171,-0.036 -0.232,-0.099 -0.06,-0.063 -0.093,-0.149 -0.089,-0.236 0.004,-0.081 0.297,-8.224 -4.375,-13.102 -2.335,-2.438 -5.53,-3.674 -9.497,-3.674 -4.302,0 -7.694,1.267 -10.082,3.767 -4.104,4.296 -3.855,10.834 -3.853,10.899 0.005,0.096 -0.034,0.188 -0.105,0.252 -0.071,0.064 -0.166,0.095 -0.261,0.081 -0.368,-0.051 -9.0220002,-1.258 -11.3910002,-2.069 -2.345,-0.803 -2.772,-1.845 -3.36199997,-3.289 l -0.13,-0.316 c -0.582,-1.399 -0.5580000025,-2.368 -0.533,-3.393 0.005,-0.211 0.011,-0.428 0.011,-0.653 0,-0.856 0.247,-1.188 0.485,-1.508 0.152,-0.204 0.296,-0.397 0.387,-0.784 0.099,-0.421 0.27399997,-0.718 0.44299997,-1.003 0.299,-0.506 0.608,-1.029 0.67,-2.438 0.076,-1.738 0.565,-2.065 1.635,-2.781 0.153,-0.102 0.32,-0.214 0.503,-0.341 0.454,-0.315 0.827,-0.69 1.261,-1.123 0.86,-0.86 1.931,-1.931 4.141,-2.952 2.9760002,-1.374 3.3050002,-2.45 3.3080002,-2.46 0.047,-0.167 0.22,-0.271 0.388,-0.232 0.169,0.041 0.276,0.204 0.24,0.375 -0.029,0.138 -0.377,1.385 -3.6660002,2.903 -2.106,0.972 -3.089,1.955 -3.956,2.822 -0.436,0.436 -0.848,0.848 -1.349,1.196 -0.186,0.129 -0.356,0.244 -0.512,0.348 -1.015,0.678 -1.288,0.861 -1.35,2.273 -0.069,1.57 -0.451,2.217 -0.759,2.738 -0.158,0.267 -0.294,0.498 -0.371,0.824 -0.121,0.517 -0.33,0.797 -0.498,1.021 -0.20699997,0.278 -0.35699997,0.48 -0.35699997,1.123 0,0.23 -0.006,0.452 -0.011,0.669 -0.024,0.997 -0.045,1.857 0.48399997,3.129 l 0.132,0.319 c 0.585,1.428 0.907,2.216 2.974,2.924 2.037,0.697 9.1810002,1.742 10.8980002,1.987 0.003,-1.514 0.283,-7.057 4.037,-10.987 2.514,-2.631 6.063,-3.966 10.547,-3.966 4.15,0 7.503,1.304 9.964,3.876 4.37,4.564 4.573,11.606 4.559,13.239 l 68.336996,0.302 c 0.178,10e-4 0.321,0.145 0.321,0.324 0.004,0.174 -0.141,0.318 -0.318,0.318 z"
     id="path151"
     inkscape:connector-curvature="0"
     style="fill:#4e4e4e" /><path
     d="m 118.13345,35.8995 c -0.381,0 -0.816,-0.029 -1.296,-0.06 l -0.457,-0.03 c -1.974,-0.123 -11.74,-1.05 -11.839,-1.059 -0.177,-0.017 -0.307,-0.174 -0.29,-0.351 0.017,-0.177 0.177,-0.309 0.351,-0.29 0.098,0.01 9.854,0.934 11.818,1.058 l 0.46,0.03 c 1.823,0.12 2.294,0.093 2.371,-0.44 0.135,-0.934 -2.254,-1.988 -4.564,-3.007 -1.129,-0.499 -2.298,-1.014 -3.356,-1.58 l -0.417,-0.225 c -13.271996,-7.179 -28.077996,-10.818 -44.004996,-10.818 -20.671,0 -29.761,3.574 -33.34,5.703 -0.075,0.045 -0.136,0.08 -0.183,0.107 -0.922,0.519 -1.415,1.127 -1.03,2.562 0.342,1.271 1.232,2.233 1.505,2.505 1.754,0.067 21.626,0.83 32.5,1.302 11.329,0.493 30.509,1.978 30.701,1.993 0.178,0.013 0.31,0.168 0.296,0.346 -0.013,0.177 -0.167,0.311 -0.346,0.296 -0.192,-0.015 -19.361,-1.499 -30.679,-1.991 -11.323,-0.492 -32.408,-1.299 -32.619,-1.307 -0.075,-0.003 -0.147,-0.032 -0.203,-0.082 -0.054,-0.049 -1.321,-1.204 -1.776,-2.895 -0.526,-1.954 0.438,-2.785 1.336,-3.291 0.043,-0.024 0.098,-0.057 0.168,-0.098 3.636,-2.164 12.843,-5.794 33.669,-5.794 16.035,0 30.944,3.666 44.311996,10.896 l 0.414,0.224 c 1.037,0.555 2.193,1.065 3.312,1.559 2.875,1.269 5.146,2.271 4.942,3.689 -0.123,0.851 -0.757,1.048 -1.755,1.048 z"
     id="path153"
     inkscape:connector-curvature="0"
     style="fill:#4e4e4e" /><path
     d="m 117.47245,35.8785 c -0.101,0 -0.202,-0.048 -0.265,-0.138 -0.101,-0.145 -0.066,-0.345 0.077,-0.447 0.005,-0.003 0.234,-0.174 0.222,-0.396 -0.013,-0.235 -0.286,-0.515 -0.768,-0.789 -0.956,-0.543 -9.665,-5.425 -20.990996,-9.46 -9.658,-3.442 -23.587,-4.35 -26.368,-4.501 l 4.541,11.745 c 0.064,0.166 -0.018,0.353 -0.184,0.417 -0.164,0.064 -0.353,-0.018 -0.417,-0.184 l -4.72,-12.208 c -0.039,-0.101 -0.025,-0.216 0.038,-0.304 0.063,-0.088 0.169,-0.137 0.275,-0.135 0.161,0.007 16.239,0.711 27.05,4.563 11.376996,4.054 20.131996,8.962 21.092996,9.507 0.703,0.4 1.071,0.845 1.093,1.322 0.021,0.462 -0.301,0.814 -0.495,0.949 -0.053,0.04 -0.117,0.059 -0.181,0.059 z"
     id="path155"
     inkscape:connector-curvature="0"
     style="fill:#4e4e4e" /><path
     d="m 69.958454,58.1185 c -0.024,0 -0.049,-0.003 -0.073,-0.009 -0.174,-0.04 -0.282,-0.213 -0.241,-0.386 1.172,-5.062 1.02,-11.625 0.803,-16.12 -0.244,-5.062 -1.835,-9.704 -1.85,-9.75 -0.005,-0.015 -0.01,-0.031 -0.012,-0.046 l -2.429,-12.945 c -0.032,-0.175 0.082,-0.343 0.257,-0.376 0.176,-0.032 0.343,0.082 0.376,0.257 l 2.423,12.922 c 0.124,0.368 1.638,4.94 1.877,9.907 0.219,4.534 0.371,11.157 -0.819,16.296 -0.033,0.15 -0.165,0.25 -0.312,0.25 z"
     id="path157"
     inkscape:connector-curvature="0"
     style="fill:#4e4e4e" /><path
     d="m 65.722454,31.9225 c -0.163,0 -0.303,-0.123 -0.32,-0.29 l -1.305,-12.779 c -0.018,-0.177 0.111,-0.335 0.288,-0.354 0.178,-0.017 0.335,0.111 0.354,0.288 l 1.304,12.779 c 0.018,0.177 -0.111,0.335 -0.288,0.354 -0.011,0.002 -0.023,0.002 -0.033,0.002 z"
     id="path159"
     inkscape:connector-curvature="0"
     style="fill:#4e4e4e" /><path
     d="m 65.069454,31.9225 c -0.163,0 -0.303,-0.123 -0.32,-0.29 l -1.306,-12.779 c -0.018,-0.177 0.111,-0.335 0.288,-0.354 0.178,-0.017 0.335,0.111 0.354,0.288 l 1.306,12.779 c 0.018,0.177 -0.111,0.335 -0.288,0.354 -0.012,0.002 -0.023,0.002 -0.034,0.002 z"
     id="path161"
     inkscape:connector-curvature="0"
     style="fill:#4e4e4e" /><path
     d="m 43.190454,30.7055 c -0.161,0 -0.299,-0.119 -0.319,-0.283 l -0.997,-8.031 c -0.014,-0.118 0.036,-0.233 0.132,-0.302 0.117,-0.083 0.913,-0.426 6.295,-1.363 5.684,-0.989 15.356,-1.248 15.452,-1.25 0.179,-0.009 0.326,0.136 0.331,0.313 0.005,0.177 -0.136,0.326 -0.313,0.33 -0.097,0.003 -9.721,0.26 -15.359,1.24 -4.048,0.704 -5.426,1.063 -5.868,1.201 l 0.965,7.78 c 0.022,0.177 -0.103,0.337 -0.28,0.359 -0.012,0.005 -0.026,0.006 -0.039,0.006 z"
     id="path163"
     inkscape:connector-curvature="0"
     style="fill:#4e4e4e" /><path
     d="m 42.194454,30.7055 c -0.163,0 -0.303,-0.123 -0.32,-0.29 l -0.772,-7.537 c -0.931,0.24 -3.496,0.956 -5.349,1.995 -1.722,0.965 -1.431,1.877 -1.023,2.654 0.48,0.915 1.793,2.642 1.807,2.659 0.108,0.141 0.08,0.344 -0.061,0.452 -0.141,0.108 -0.344,0.081 -0.452,-0.061 -0.055,-0.073 -1.36,-1.788 -1.865,-2.751 -0.486,-0.929 -0.883,-2.303 1.278,-3.515 2.373,-1.33 5.732,-2.116 5.874,-2.149 0.09,-0.021 0.184,-0.002 0.26,0.052 0.075,0.054 0.123,0.138 0.133,0.229 l 0.809,7.906 c 0.018,0.177 -0.111,0.335 -0.288,0.354 -0.009,0.001 -0.02,0.002 -0.031,0.002 z"
     id="path165"
     inkscape:connector-curvature="0"
     style="fill:#4e4e4e" /><path
     d="m 20.787454,46.3065 c -0.032,0 -0.064,-0.005 -0.096,-0.014 -0.082,-0.026 -8.234,-2.562 -10.9410002,-3.112 -2.471,-0.503 -2.842,-0.961 -3.241,-1.668 -0.038,-0.067 -0.076,-0.135 -0.12,-0.205 -0.425,-0.685 -1.01,-1.931 -1.035,-1.984 -0.075,-0.161 -0.006,-0.353 0.155,-0.428 0.161,-0.076 0.353,-0.006 0.428,0.155 0.006,0.012 0.593,1.264 0.999,1.918 0.049,0.078 0.092,0.154 0.134,0.227 0.29,0.514 0.5,0.885 2.808,1.354 2.7390002,0.557 10.6680002,3.023 11.0040002,3.128 0.17,0.053 0.265,0.233 0.211,0.403 -0.041,0.137 -0.168,0.226 -0.306,0.226 z"
     id="path167"
     inkscape:connector-curvature="0"
     style="fill:#4e4e4e" /><path
     d="m 16.200454,48.6955 c 0,0 -6.7240002,-0.233 -9.9690002,-0.35 -3.025,-0.109 -4.475,-0.265 -5.062,-0.902 -0.18999997,-0.206 -0.27999997,-0.456 -0.26799997,-0.741 0.008,-0.178 0.15699997,-0.312 0.33599997,-0.307 0.178,0.008 0.315,0.159 0.307,0.336 -0.005,0.112 0.025,0.197 0.097,0.275 0.466,0.506 2.365,0.614 4.611,0.696 3.245,0.117 9.9680002,0.35 9.9680002,0.35 l -0.02,0.643 z"
     id="path169"
     inkscape:connector-curvature="0"
     style="fill:#4e4e4e" /><path
     d="m 8.0184538,46.5955 c -0.022,0 -0.044,-0.002 -0.066,-0.007 -5.024,-1.05 -5.958,-1.164 -5.995,-1.168 -0.177,-0.02 -0.304,-0.18 -0.284,-0.356 0.02,-0.177 0.178,-0.302 0.355,-0.284 0.037,0.004 0.962,0.113 6.054,1.178 0.174,0.036 0.286,0.207 0.249,0.381 -0.03,0.151 -0.164,0.256 -0.313,0.256 z"
     id="path171"
     inkscape:connector-curvature="0"
     style="fill:#4e4e4e" /><path
     d="m 2.0334538,55.3995 c -0.021,0 -0.042,-0.002 -0.064,-0.007 -0.05,-0.011 -1.22799997,-0.258 -1.78099997,-1.266 -0.509,-0.927 0.171,-1.995 0.201,-2.04 0.097,-0.149 0.296,-0.192 0.445,-0.095 0.149,0.097 0.19099997,0.296 0.095,0.445 -0.005,0.007 -0.499,0.791 -0.177,1.379 0.40699997,0.741 1.33599997,0.943 1.34499997,0.945 0.174,0.036 0.286,0.206 0.25,0.38 -0.03,0.154 -0.164,0.259 -0.314,0.259 z"
     id="path173"
     inkscape:connector-curvature="0"
     style="fill:#4e4e4e" /><path
     d="m 15.488454,58.6565 c -0.054,0 -0.105,-0.013 -0.149,-0.036 -0.103,-0.024 -0.409,-0.073 -0.731,-0.124 -2.633,-0.419 -9.6280002,-1.533 -11.5510002,-4.458 -1.498,-2.279 -1.664,-3.972 -1.786,-5.208 -0.065,-0.664 -0.117,-1.19 -0.33699997,-1.645 -0.077,-0.161 -0.011,-0.353 0.14999997,-0.43 0.16,-0.078 0.353,-0.011 0.43,0.15 0.27,0.56 0.33,1.164 0.398,1.863 0.121,1.235 0.271,2.771 1.683,4.917 1.768,2.688 8.8020002,3.809 11.1140002,4.177 1.019,0.162 1.102,0.175 1.102,0.475 -10e-4,0.175 -0.146,0.319 -0.323,0.319 z"
     id="path175"
     inkscape:connector-curvature="0"
     style="fill:#4e4e4e" /><path
     d="m 4.2064538,40.7605 c -0.144,0 -0.276,-0.097 -0.312,-0.244 -0.038,-0.151 -0.36,-1.493 -0.103,-2.239 0.057,-0.166 0.29,-0.385 0.641,-0.634 -0.069,-0.661 0.095,-1.277 2.096,-2.015 0.746,-0.275 1.275,-0.502 1.7,-0.683 0.784,-0.335 1.222,-0.519 1.8750002,-0.504 0.151,0.004 0.553,0.014 0.61,0.353 0.035,0.212 -0.016,0.451 -1.0420002,0.831 -1.765,0.805 -3.726,1.799 -4.69,2.411 -0.021,0.018 -0.045,0.033 -0.071,0.046 -0.281,0.183 -0.464,0.327 -0.516,0.418 -0.16,0.465 0.041,1.526 0.124,1.859 0.043,0.173 -0.062,0.348 -0.234,0.391 -0.026,0.006 -0.052,0.01 -0.078,0.01 z m 3.206,-4.779 c -0.2,0.079 -0.419,0.163 -0.66,0.252 -1.081,0.398 -1.481,0.703 -1.62,0.96 0.653,-0.389 1.469,-0.814 2.28,-1.212 z"
     id="path177"
     inkscape:connector-curvature="0"
     style="fill:#4e4e4e" /><path
     d="m 3.9994538,39.0615 c -0.177,0 -0.32,-0.142 -0.322,-0.319 -10e-4,-0.092 -0.019,-2.244 0.016,-2.899 0.007,-0.125 0.005,-0.254 0.003,-0.391 -0.009,-0.603 -0.019,-1.354 0.552,-2.576 0.685,-1.465 1.246,-2.181 1.27,-2.211 0.111,-0.14 0.312,-0.162 0.452,-0.053 0.14,0.11 0.163,0.312 0.054,0.452 -0.005,0.007 -0.543,0.697 -1.192,2.085 -0.508,1.087 -0.5,1.729 -0.491,2.294 0.002,0.153 0.004,0.296 -0.004,0.435 -0.034,0.636 -0.015,2.837 -0.015,2.859 0.002,0.178 -0.141,0.323 -0.319,0.325 -0.002,-10e-4 -0.003,-10e-4 -0.004,-10e-4 z"
     id="path179"
     inkscape:connector-curvature="0"
     style="fill:#4e4e4e" /><path
     d="m 4.8844538,37.2865 c -0.013,0 -0.026,-10e-4 -0.039,-0.002 -0.177,-0.022 -0.302,-0.183 -0.281,-0.359 0.011,-0.081 0.247,-1.999 0.567,-2.734 0.35,-0.808 0.63,-1.03 1.577,-1.25 0.683,-0.159 3.7980002,-0.089 5.4210002,-0.039 -0.863,-0.546 -2.1820002,-1.009 -3.3820002,-1.429 -0.603,-0.211 -1.172,-0.412 -1.663,-0.613 -0.762,-0.313 -1.135,-0.669 -1.142,-1.086 -0.008,-0.538 0.615,-0.831 0.686,-0.863 0.162,-0.073 0.353,0.001 0.425,0.163 0.073,0.162 0,0.352 -0.161,0.424 l 0,0 c -0.149,0.069 -0.307,0.204 -0.306,0.266 0,0.002 0.024,0.204 0.742,0.5 0.475,0.196 1.037,0.393 1.631,0.602 1.6670002,0.586 3.5570002,1.249 4.3400002,2.184 0.081,0.097 0.098,0.234 0.042,0.349 -0.055,0.115 -0.174,0.19 -0.301,0.181 -2.157,-0.08 -5.5840002,-0.148 -6.1870002,-0.009 -0.778,0.181 -0.875,0.289 -1.131,0.879 -0.234,0.54 -0.453,2.028 -0.518,2.555 -0.021,0.162 -0.159,0.281 -0.32,0.281 z"
     id="path181"
     inkscape:connector-curvature="0"
     style="fill:#4e4e4e" /><path
     d="m 46.864454,33.4065 c -0.015,0 -0.032,-10e-4 -0.048,-0.004 -0.106,-0.015 -10.686,-1.562 -20.17,-1.562 -9.525,0 -15.569,-0.65 -15.629,-0.655 -0.177,-0.019 -0.305,-0.179 -0.286,-0.355 0.019,-0.177 0.179,-0.303 0.355,-0.286 0.059,0.007 6.072,0.652 15.56,0.652 9.531,0 20.157,1.554 20.263,1.569 0.176,0.026 0.297,0.19 0.271,0.366 -0.021,0.16 -0.159,0.275 -0.316,0.275 z"
     id="path183"
     inkscape:connector-curvature="0"
     style="fill:#4e4e4e" /><path
     d="m 105.64345,59.0595 c -1.681,0 -3.254,-0.104 -4.891,-0.212 -2.035996,-0.135 -4.142996,-0.277 -6.775996,-0.252 -2.916,0.025 -8.208,-0.107 -13.809,-0.245 -5.585,-0.138 -11.915,-0.292 -16.779,-0.316 -2.612,-0.013 -4.851,0.046 -6.826,0.097 -5.409,0.14 -8.389,0.217 -9.546,-1.499 -0.517,-0.767 -0.818,-1.79 -1.166,-2.974 -0.677,-2.301 -1.519,-5.165 -4.397,-8.043 -1.767,-1.767 -2.874,-2.445 -3.683,-2.939 -1.256,-0.768 -1.886,-1.154 -3.066,-4.175 -1.926,-4.934 -1.319,-8.11 -1.292,-8.243 0.035,-0.174 0.204,-0.286 0.379,-0.252 0.174,0.035 0.288,0.204 0.252,0.379 -0.006,0.031 -0.591,3.14 1.26,7.881 1.101,2.819 1.634,3.145 2.802,3.859 0.836,0.511 1.981,1.213 3.802,3.034 2.995,2.995 3.899,6.071 4.56,8.318 0.333,1.133 0.621,2.112 1.083,2.796 0.959,1.423 3.813,1.349 8.994,1.215 1.981,-0.052 4.225,-0.11 6.846,-0.097 4.87,0.024 11.203,0.179 16.792,0.316 5.596,0.138 10.883,0.267 13.788,0.244 2.659,-0.021 4.776,0.118 6.822996,0.254 2.369,0.157 4.606,0.305 7.212,0.137 3.879,-0.25 4.037,-3.365 4.19,-6.377 0.024,-0.471 0.048,-0.934 0.085,-1.374 0.062,-0.731 0.118,-1.295 0.166,-1.782 0.166,-1.681 0.242,-2.448 0.206,-6.142 -0.045,-4.638 -1.67,-7.423 -1.687,-7.451 -0.014,-0.024 -0.026,-0.051 -0.033,-0.078 l -1.351,-4.836 c -0.048,-0.171 0.053,-0.349 0.224,-0.397 0.171,-0.049 0.349,0.052 0.397,0.224 l 1.341,4.797 c 0.211,0.372 1.71,3.168 1.755,7.736 0.036,3.729 -0.04,4.507 -0.209,6.212 -0.048,0.484 -0.103,1.045 -0.165,1.773 -0.037,0.434 -0.06,0.889 -0.084,1.352 -0.151,2.985 -0.34,6.701 -4.792,6.988 -0.834,0.05 -1.631,0.072 -2.405,0.072 z"
     id="path185"
     inkscape:connector-curvature="0"
     style="fill:#4e4e4e" /><path
     d="m 109.21745,35.1855 c -0.16,0 -0.298,-0.118 -0.319,-0.282 l -0.673,-5.29 c -0.022,-0.177 0.102,-0.338 0.279,-0.36 0.177,-0.019 0.338,0.102 0.36,0.279 l 0.673,5.29 c 0.022,0.177 -0.102,0.338 -0.279,0.36 -0.014,0.002 -0.027,0.003 -0.041,0.003 z"
     id="path187"
     inkscape:connector-curvature="0"
     style="fill:#4e4e4e" /><path
     d="m 103.80245,37.7005 -2.008,0 c -0.383,0 -1.134,-0.256 -1.231,-1.224 -0.095,-0.938 -0.101,-3.136 -0.101,-3.23 0,-0.178 0.143,-0.323 0.321,-0.323 l 0.001,0 c 0.178,0 0.322,0.143 0.322,0.321 0,0.022 0.007,2.26 0.097,3.168 0.063,0.626 0.536,0.644 0.59,0.644 l 2.008,0 c 0.549,0 0.762,-0.146 0.981,-0.434 0.108,-0.141 0.311,-0.168 0.452,-0.06 0.141,0.108 0.168,0.311 0.06,0.452 -0.372,0.487 -0.805,0.686 -1.492,0.686 z"
     id="path189"
     inkscape:connector-curvature="0"
     style="fill:#4e4e4e" /><path
     d="m 101.19845,33.4055 c -2.414996,0 -3.960996,-0.989 -4.135996,-2.646 -0.077,-0.725 0.171,-1.428 0.698,-1.977 0.676,-0.706 1.746,-1.085 2.864996,-1.017 0.178,0.011 0.312,0.164 0.301,0.342 -0.011,0.178 -0.161,0.311 -0.342,0.301 -0.931996,-0.057 -1.812996,0.247 -2.358996,0.819 -0.398,0.417 -0.579,0.922 -0.522,1.463 0.138,1.296 1.444,2.07 3.494996,2.07 1.75,0 2.796,-0.752 2.796,-2.012 0,-0.178 0.144,-0.322 0.322,-0.322 0.178,0 0.322,0.144 0.322,0.322 0,1.638 -1.318,2.657 -3.44,2.657 z"
     id="path191"
     inkscape:connector-curvature="0"
     style="fill:#4e4e4e" /><path
     d="m 101.67345,32.6405 c -0.134,0 -0.269,-0.01 -0.404,-0.028 -0.176,-0.024 -0.299,-0.187 -0.275,-0.363 0.024,-0.176 0.185,-0.301 0.363,-0.275 0.6,0.082 1.185,-0.071 1.564,-0.411 0.188,-0.168 0.409,-0.46 0.397,-0.889 -0.025,-0.83 -0.839,-1.386 -2.176,-1.488 -1.418996,-0.109 -2.205996,0.201 -2.630996,1.031 -0.081,0.159 -0.275,0.222 -0.434,0.14 -0.159,-0.081 -0.221,-0.275 -0.14,-0.434 0.718,-1.403 2.200996,-1.458 3.253996,-1.38 1.699,0.129 2.736,0.917 2.771,2.111 0.016,0.527 -0.201,1.02 -0.61,1.387 -0.431,0.387 -1.038,0.599 -1.679,0.599 z"
     id="path193"
     inkscape:connector-curvature="0"
     style="fill:#4e4e4e" /><path
     d="m 104.57245,37.3735 c -0.144,0 -0.275,-0.097 -0.312,-0.243 l -1.135,-4.489 c -0.044,-0.173 0.061,-0.348 0.233,-0.392 0.174,-0.044 0.348,0.061 0.392,0.233 l 1.135,4.489 c 0.044,0.173 -0.061,0.348 -0.233,0.392 -0.027,0.007 -0.054,0.01 -0.08,0.01 z"
     id="path195"
     inkscape:connector-curvature="0"
     style="fill:#4e4e4e" /><path
     d="m 104.89945,35.8065 c -0.118,0 -0.232,-0.065 -0.289,-0.178 l -1.462,-2.922 c -0.079,-0.159 -0.015,-0.353 0.144,-0.432 0.159,-0.079 0.353,-0.015 0.432,0.144 l 1.462,2.922 c 0.079,0.159 0.015,0.353 -0.144,0.432 -0.045,0.023 -0.094,0.034 -0.143,0.034 z"
     id="path197"
     inkscape:connector-curvature="0"
     style="fill:#4e4e4e" /><path
     d="m 103.54545,30.9025 -6.173996,0 c -0.178,0 -0.322,-0.144 -0.322,-0.322 0,-0.178 0.144,-0.322 0.322,-0.322 l 6.173996,0 c 0.178,0 0.322,0.144 0.322,0.322 0,0.178 -0.144,0.322 -0.322,0.322 z"
     id="path199"
     inkscape:connector-curvature="0"
     style="fill:#4e4e4e" /><path
     d="m 27.113454,38.2375 c -2.09,0 -2.794,-1.189 -3.028,-1.898 -0.44,-1.334 0.075,-2.955 0.828,-3.514 0.591,-0.439 1.74,-0.744 2.794,-0.744 0.739,0 1.759,0.146 2.427,0.846 0.442,0.462 0.65,1.085 0.615,1.851 -0.152,3.37 -3.597,3.459 -3.632,3.46 -10e-4,-0.001 -0.002,-0.001 -0.004,-0.001 z m 0.596,-5.512 c -1.025,0 -2.007,0.318 -2.411,0.617 -0.554,0.411 -0.946,1.75 -0.601,2.795 0.314,0.952 1.149,1.454 2.414,1.455 0.147,-0.004 2.872,-0.102 2.996,-2.845 0.026,-0.583 -0.12,-1.045 -0.438,-1.377 -0.397,-0.415 -1.094,-0.645 -1.96,-0.645 z"
     id="path201"
     inkscape:connector-curvature="0"
     style="fill:#4e4e4e" /><path
     d="m 15.992454,47.8665 c -0.043,0 -0.088,-0.009 -0.13,-0.028 -0.162,-0.072 -0.236,-0.262 -0.164,-0.424 0.031,-0.07 3.189,-6.971 13.507,-7.299 2.009,-0.064 3.687,0.218 5.065,0.503 0.174,0.036 0.287,0.206 0.25,0.38 -0.037,0.174 -0.206,0.288 -0.38,0.25 -1.341,-0.277 -2.974,-0.551 -4.914,-0.49 -9.894,0.314 -12.909,6.849 -12.939,6.915 -0.054,0.122 -0.172,0.193 -0.295,0.193 z"
     id="path203"
     inkscape:connector-curvature="0"
     style="fill:#4e4e4e" /><path
     d="m 44.146454,36.6565 c -0.32,0 -0.625,-0.078 -0.978,-0.169 -0.446,-0.115 -0.952,-0.245 -1.66,-0.265 -0.614,-0.017 -1.119,0.072 -1.607,0.157 -0.616,0.108 -1.221,0.191 -1.785,0.077 -0.781,-0.157 -1.722,-0.408 -2.066,-0.973 -0.14,-0.23 -0.173,-0.497 -0.095,-0.77 0.197,-0.687 1.119,-1.007 2.902,-1.007 0.667,0 1.325,0.043 1.938,0.09 0.148,0.011 0.316,0.022 0.501,0.033 1.815,0.115 4.56,0.288 4.56,1.844 0,0.522 -0.557,0.877 -1.528,0.975 -0.06,0.006 -0.121,0.008 -0.182,0.008 z m -2.792,-1.08 c 0.056,0 0.114,10e-4 0.172,0.003 0.78,0.022 1.346,0.168 1.802,0.285 0.377,0.097 0.658,0.171 0.934,0.143 0.675,-0.068 0.947,-0.263 0.947,-0.333 0,-0.952 -2.672,-1.12 -3.956,-1.201 -0.186,-0.011 -0.358,-0.023 -0.508,-0.034 -0.6,-0.046 -1.244,-0.088 -1.889,-0.088 -1.974,0 -2.246,0.414 -2.283,0.541 -0.037,0.13 -0.006,0.205 0.026,0.257 0.161,0.263 0.713,0.491 1.642,0.676 0.465,0.093 0.989,0.017 1.548,-0.08 0.453,-0.079 0.965,-0.169 1.565,-0.169 z"
     id="path205"
     inkscape:connector-curvature="0"
     style="fill:#4e4e4e" /><path
     d="m 45.505454,36.1345 c -0.025,0 -0.051,-0.003 -0.076,-0.009 -0.039,-0.01 -4.02,-0.959 -9.148,-0.827 -0.162,0.012 -0.326,-0.136 -0.331,-0.313 -0.005,-0.178 0.136,-0.326 0.313,-0.331 5.216,-0.14 9.277,0.834 9.317,0.844 0.173,0.042 0.279,0.216 0.237,0.389 -0.036,0.147 -0.168,0.247 -0.312,0.247 z"
     id="path207"
     inkscape:connector-curvature="0"
     style="fill:#4e4e4e" /><path
     d="m 41.494454,37.7935 c -2.779,0 -5.686,-0.73 -5.921,-2.36 -0.026,-0.176 0.097,-0.339 0.273,-0.365 0.175,-0.027 0.339,0.097 0.365,0.273 0.146,1.014 2.467,1.808 5.284,1.808 2.634,0 4.171,-0.831 4.28,-1.615 0.025,-0.176 0.189,-0.299 0.363,-0.274 0.176,0.025 0.299,0.187 0.274,0.363 -0.181,1.298 -2.157,2.17 -4.918,2.17 z"
     id="path209"
     inkscape:connector-curvature="0"
     style="fill:#4e4e4e" /><path
     d="m 45.743454,35.1255 c -0.078,0 -0.157,-0.029 -0.218,-0.085 -0.017,-0.015 -1.389,-1.237 -4.194,-1.237 -0.178,0 -0.322,-0.144 -0.322,-0.322 0,-0.178 0.144,-0.322 0.322,-0.322 3.08,0 4.569,1.351 4.631,1.409 0.131,0.121 0.138,0.325 0.017,0.455 -0.063,0.066 -0.149,0.102 -0.236,0.102 z"
     id="path211"
     inkscape:connector-curvature="0"
     style="fill:#4e4e4e" /><path
     d="m 77.866454,40.5015 c -2.441,0 -3.446,-0.948 -3.747,-1.321 -0.665,-0.069 -2.555,-0.36 -2.552,-1.476 0.001,-0.407 0.153,-0.744 0.44,-0.975 0.698,-0.56 1.958,-0.305 2.099,-0.273 0.174,0.038 0.284,0.209 0.246,0.383 -0.038,0.174 -0.209,0.285 -0.383,0.247 -0.302,-0.065 -1.17,-0.166 -1.559,0.147 -0.134,0.108 -0.197,0.258 -0.198,0.473 -10e-4,0.443 1.223,0.776 2.107,0.846 0.106,0.009 0.202,0.069 0.255,0.161 0.005,0.008 0.723,1.145 3.292,1.145 2.643,0 3.017,-0.825 3.348,-1.553 0.074,-0.162 0.265,-0.234 0.426,-0.161 0.162,0.074 0.234,0.265 0.161,0.426 -0.463,1.018 -1.111,1.931 -3.935,1.931 z"
     id="path213"
     inkscape:connector-curvature="0"
     style="fill:#4e4e4e" /><path
     d="m 80.094454,39.0615 c -0.393,0 -0.918,-0.038 -1.638,-0.126 -2.05,-0.25 -4.107,-0.176 -4.128,-0.176 -0.267,-0.01 -2.389,-0.124 -2.389,-1.288 0,-0.178 0.144,-0.322 0.322,-0.322 0.178,0 0.322,0.144 0.322,0.322 0,0.376 1.013,0.615 1.745,0.644 0.061,-0.004 2.103,-0.077 4.205,0.18 1.908,0.233 2.206,0.07 2.253,0.014 0.011,-0.178 0.168,-0.318 0.341,-0.311 0.178,0.011 0.313,0.155 0.303,0.332 -0.011,0.193 -0.093,0.358 -0.235,0.477 -0.182,0.154 -0.467,0.254 -1.101,0.254 z"
     id="path215"
     inkscape:connector-curvature="0"
     style="fill:#4e4e4e" /><path
     d="m 120.91945,42.7195 c -0.017,0 -0.034,-10e-4 -0.052,-0.004 -0.067,-0.011 -6.836,-1.096 -16.085,-2.202 -7.046996,-0.844 -12.744996,-1.393 -15.482996,-1.658 l -1.001,-0.097 c -3.349,-0.329 -6.812,-0.582 -6.846,-0.585 -0.116,-0.009 -0.218,-0.079 -0.268,-0.183 -0.011,-0.023 -0.022,-0.045 -0.034,-0.067 -0.063,0.15 -0.231,0.231 -0.39,0.183 -0.077,-0.023 -0.14,-0.074 -0.181,-0.137 -0.095,-0.049 -0.446,-0.187 -1.592,-0.343 -1.863,-0.253 -4.259,-0.486 -4.283,-0.488 -0.125,-0.012 -0.231,-0.096 -0.273,-0.214 -0.041,-0.118 -0.011,-0.25 0.08,-0.337 0.035,-0.034 0.883,-0.838 2.512,-0.838 1.759,0 3.911,0.564 4.651,1.795 0.749,0.056 3.761,0.286 6.686,0.572 l 1,0.097 c 2.74,0.265 8.443,0.815 15.496996,1.659 9.263,1.108 16.043,2.196 16.111,2.206 0.176,0.028 0.295,0.194 0.267,0.369 -0.023,0.159 -0.16,0.272 -0.316,0.272 z m -45.148996,-6.12 c 0.879,0.093 2.187,0.237 3.306,0.389 0.674,0.092 1.117,0.182 1.413,0.266 -0.859,-0.564 -2.26,-0.861 -3.465,-0.861 -0.514,0 -0.932,0.091 -1.254,0.206 z"
     id="path217"
     inkscape:connector-curvature="0"
     style="fill:#4e4e4e" /><path
     d="m 81.111454,38.5645 c -0.01,0 -0.02,0 -0.03,-0.001 l -6.373,-0.584 c -0.177,-0.016 -0.308,-0.173 -0.291,-0.351 0.016,-0.177 0.171,-0.31 0.351,-0.291 l 6.373,0.584 c 0.177,0.016 0.308,0.173 0.291,0.351 -0.016,0.166 -0.157,0.292 -0.321,0.292 z"
     id="path219"
     inkscape:connector-curvature="0"
     style="fill:#4e4e4e" /><path
     d="m 74.259454,38.2375 c -0.3,0 -0.544,-0.244 -0.544,-0.544 0,-0.3 0.244,-0.544 0.544,-0.544 0.3,0 0.544,0.244 0.544,0.544 0,0.3 -0.244,0.544 -0.544,0.544 z m 0,-0.644 c -0.055,0 -0.1,0.045 -0.1,0.1 0,0.111 0.201,0.111 0.201,0 -0.001,-0.055 -0.045,-0.1 -0.101,-0.1 z"
     id="path221"
     inkscape:connector-curvature="0"
     style="fill:#4e4e4e" /><path
     d="m 73.045454,37.8635 c -0.248,0 -0.451,-0.203 -0.451,-0.45 0,-0.248 0.203,-0.45 0.451,-0.45 0.248,0 0.45,0.203 0.45,0.45 0.001,0.249 -0.202,0.45 -0.45,0.45 z m 0,-0.644 c -0.107,0 -0.194,0.087 -0.194,0.194 0,0.107 0.087,0.194 0.194,0.194 0.107,0 0.194,-0.087 0.194,-0.194 0,-0.107 -0.087,-0.194 -0.194,-0.194 z"
     id="path223"
     inkscape:connector-curvature="0"
     style="fill:#4e4e4e" /><path
     d="m 117.82045,62.0385 c -0.096,0 -0.223,-0.038 -0.345,-0.195 -0.607,-0.777 -2.393,-6.678 0.762,-12.296 0.087,-0.156 0.283,-0.21 0.439,-0.123 0.155,0.087 0.21,0.284 0.123,0.439 -2.972,5.292 -1.307,10.912 -0.836,11.559 0.085,0.038 0.153,0.112 0.179,0.209 0.047,0.172 -0.054,0.349 -0.225,0.396 -0.027,0.005 -0.06,0.011 -0.097,0.011 z"
     id="path225"
     inkscape:connector-curvature="0"
     style="fill:#4e4e4e" /><path
     d="m 115.77845,32.2035 c -0.074,0 -0.147,-0.025 -0.207,-0.075 -0.136,-0.115 -0.153,-0.318 -0.038,-0.454 l 1.265,-1.498 c 0.115,-0.136 0.318,-0.153 0.454,-0.038 0.136,0.115 0.153,0.318 0.038,0.454 l -1.265,1.498 c -0.065,0.075 -0.155,0.113 -0.247,0.113 z"
     id="path227"
     inkscape:connector-curvature="0"
     style="fill:#4e4e4e" /><path
     d="m 104.00545,33.4055 c -0.11,0 -0.218,-0.056 -0.278,-0.159 -0.091,-0.153 -0.039,-0.351 0.114,-0.441 0.026,-0.015 2.574,-1.517 3.121,-1.881 0.032,-0.021 0.057,-0.039 0.078,-0.055 -0.172,-0.107 -0.511,-0.262 -0.734,-0.363 -0.199,-0.091 -0.508,-0.241 -0.907,-0.434 -1.706,-0.826 -4.88,-2.363 -8.135996,-3.527 -1.074,-0.383 -2.186,-0.828 -3.363,-1.299 -3.318,-1.327 -7.079,-2.832 -12.036,-3.824 -0.175,-0.034 -0.288,-0.204 -0.252,-0.379 0.035,-0.174 0.206,-0.287 0.379,-0.252 5.015,1.003 8.805,2.52 12.148,3.857 1.171,0.468 2.278,0.912 3.34,1.291 3.288996,1.175 6.483996,2.722 8.199996,3.554 0.393,0.19 0.698,0.337 0.893,0.427 0.744,0.339 1.153,0.526 1.184,0.903 0.026,0.328 -0.288,0.537 -0.439,0.637 -0.561,0.375 -3.045,1.838 -3.15,1.901 -0.05,0.029 -0.107,0.044 -0.162,0.044 z"
     id="path229"
     inkscape:connector-curvature="0"
     style="fill:#4e4e4e" /><path
     d="m 97.828454,29.5175 c -0.051,0 -0.101,-0.011 -0.149,-0.037 -0.032,-0.016 -3.23,-1.681 -7.951,-3.164 l -0.352,-0.11 c -5.011,-1.574 -8.035,-2.524 -11.482,-2.849 -3.941,-0.371 -5.345,0.674 -5.765,1.14 -0.512,0.569 -0.304,1.474 -0.12,2.273 0.034,0.15 0.067,0.294 0.095,0.429 0.034,0.175 -0.079,0.344 -0.253,0.378 -0.174,0.035 -0.344,-0.078 -0.378,-0.253 -0.026,-0.13 -0.057,-0.268 -0.09,-0.411 -0.197,-0.857 -0.466,-2.031 0.269,-2.849 0.602,-0.669 2.222,-1.735 6.304,-1.35 3.515,0.331 6.738,1.343 11.615,2.875 l 0.352,0.111 c 4.78,1.501 8.024,3.19 8.057,3.208 0.158,0.082 0.218,0.277 0.136,0.435 -0.06,0.111 -0.172,0.174 -0.288,0.174 z"
     id="path231"
     inkscape:connector-curvature="0"
     style="fill:#4e4e4e" /><path
     d="m 49.477454,31.2575 c -0.149,0 -0.282,-0.103 -0.314,-0.255 l -1.12,-5.252 c -0.032,-0.153 0.05,-0.308 0.195,-0.366 0.071,-0.029 1.775,-0.703 5.672,-1.326 4.594,-0.736 10.289,-0.744 10.346,-0.744 0.178,0 0.322,0.144 0.322,0.322 0,0.178 -0.144,0.322 -0.322,0.322 -0.056,0 -5.701,0.009 -10.244,0.736 -2.985,0.478 -4.678,0.993 -5.28,1.197 l 1.061,4.977 c 0.037,0.174 -0.074,0.345 -0.247,0.382 -0.024,0.004 -0.047,0.007 -0.069,0.007 z"
     id="path233"
     inkscape:connector-curvature="0"
     style="fill:#4e4e4e" /><path
     d="m 48.357454,31.1865 c -0.15,0 -0.285,-0.105 -0.315,-0.258 l -0.906,-4.487 -4.169,1.538 c -0.167,0.062 -0.353,-0.024 -0.414,-0.191 -0.062,-0.167 0.024,-0.353 0.191,-0.414 l 4.522,-1.668 c 0.088,-0.032 0.186,-0.025 0.268,0.021 0.082,0.046 0.14,0.125 0.159,0.218 l 0.98,4.856 c 0.035,0.174 -0.077,0.344 -0.252,0.379 -0.021,0.004 -0.043,0.006 -0.064,0.006 z"
     id="path235"
     inkscape:connector-curvature="0"
     style="fill:#4e4e4e" /><path
     d="m 118.64345,20.5615 c -0.521,-0.097 -0.894,-0.387 -0.91,-0.4 l -7.811,-6.15 c -0.492,0.317 -1.834,1.037 -3.453,0.735 l 0,0 c -0.711,-0.133 -1.39,-0.451 -2.017,-0.944 -2.406,-1.895 -1.959,-4.4779998 -1.938,-4.5869998 0.02,-0.105 0.092,-0.193 0.193,-0.23 0.1,-0.038 0.213,-0.021 0.298,0.046 l 3.138,2.4709998 2.196,-1.267 0.7,-2.4099998 -3.139,-2.471 c -0.083,-0.066 -0.127,-0.169 -0.115,-0.274 0.012,-0.106 0.077,-0.197 0.173,-0.243 0.045,-0.021 1.108,-0.517 2.612,-0.236 0.896,0.167 1.759,0.574 2.567,1.21 1.965,1.546 1.461,4.3529998 1.272,5.1369998 l 7.897,6.217 c 0.019,0.014 0.566,0.436 0.658,1.15 0.064,0.492 -0.1,0.989 -0.485,1.479 -0.63,0.8 -1.346,0.859 -1.836,0.767 z m -8.652,-7.23 c 0.047,0.009 0.093,0.029 0.133,0.06 l 7.987,6.289 c 0.002,0.001 0.275,0.211 0.644,0.279 0.472,0.088 0.89,-0.095 1.242,-0.543 0.279,-0.355 0.401,-0.699 0.359,-1.022 -0.059,-0.455 -0.422,-0.741 -0.425,-0.744 l -8.059,-6.345 c -0.098,-0.078 -0.139,-0.208 -0.104,-0.328 0.01,-0.031 0.911,-3.1729998 -1.011,-4.6849998 -0.73,-0.574 -1.503,-0.94 -2.301,-1.089 -0.726,-0.135 -1.33,-0.064 -1.727,0.026 l 2.849,2.244 c 0.098,0.078 0.139,0.206 0.105,0.326 l -0.792,2.7259998 c -0.022,0.076 -0.073,0.14 -0.141,0.18 l -2.482,1.433 c -0.109,0.062 -0.245,0.052 -0.342,-0.025 l -2.846,-2.2409998 c 0.007,0.7839998 0.245,2.2659998 1.751,3.4509998 0.548,0.432 1.137,0.709 1.751,0.823 1.731,0.323 3.152,-0.746 3.167,-0.757 0.07,-0.054 0.158,-0.073 0.242,-0.058 z m 8.923,6.335 c -0.154,-0.029 -0.301,-0.095 -0.426,-0.193 -0.205,-0.162 -0.335,-0.393 -0.366,-0.652 -0.031,-0.26 0.041,-0.515 0.203,-0.721 0.225,-0.286 0.589,-0.424 0.948,-0.357 0.154,0.029 0.301,0.095 0.426,0.193 0.205,0.162 0.335,0.393 0.366,0.652 0.031,0.26 -0.041,0.515 -0.203,0.721 -0.225,0.288 -0.589,0.424 -0.948,0.357 z m 0.247,-1.321 c -0.134,-0.025 -0.271,0.026 -0.355,0.133 -0.061,0.077 -0.088,0.172 -0.076,0.27 0.012,0.098 0.06,0.184 0.137,0.244 0.158,0.124 0.393,0.093 0.514,-0.061 0.061,-0.077 0.088,-0.172 0.076,-0.27 -0.012,-0.098 -0.06,-0.184 -0.137,-0.244 -0.047,-0.037 -0.1,-0.062 -0.159,-0.072 z"
     id="path237"
     inkscape:connector-curvature="0"
     style="fill:#4e4e4e" /><path
     d="m 155.41045,12.7755 c -0.278,-0.052 -0.547,-0.198 -0.801,-0.435 -0.565,-0.526 -0.561,-1.075 -0.457,-1.442 0.105,-0.374 0.33,-0.624 0.356,-0.651 l 4.782,-5.1289998 c -0.295,-0.598 -0.947,-2.344 0.512,-3.909 1.549,-1.66199998 3.454,-1.12799998 3.454,-1.12699998 0.103,0.029 0.185,0.109 0.213,0.212 0.029,0.103 0.003,0.213 -0.07,0.292 l -1.897,2.03499998 0.727,1.546 1.578,0.605 1.897,-2.034 c 0.073,-0.078 0.197,-0.104 0.283,-0.091 0.104,0.02 0.19,0.093 0.227,0.192 0.029,0.076 0.685,1.882 -1.015,3.705 -0.705,0.756 -1.818,1.037 -3.133,0.792 -0.26,-0.049 -0.476,-0.108 -0.622,-0.154 l -4.838,5.1879998 c -0.016,0.017 -0.492,0.536 -1.196,0.405 z m -0.036,-0.647 c 0.417,0.176 0.77,-0.162 0.783,-0.175 l 4.974,-5.3359998 c 0.085,-0.091 0.216,-0.122 0.335,-0.077 0.003,10e-4 0.293,0.113 0.712,0.191 0.78,0.145 1.859,0.158 2.572,-0.608 0.917,-0.984 1.031,-1.952 0.99,-2.53 l -1.628,1.745 c -0.085,0.091 -0.216,0.122 -0.333,0.077 l -1.886,-0.723 c -0.073,-0.028 -0.134,-0.084 -0.167,-0.156 l -0.868,-1.844 c -0.054,-0.113 -0.032,-0.248 0.053,-0.339 l 1.623,-1.74199998 c -0.577,-0.004 -1.486,0.155 -2.288,1.01499998 -1.464,1.571 -0.34,3.356 -0.329,3.374 0.076,0.118 0.062,0.272 -0.033,0.375 l -4.931,5.2899998 c -0.072,0.08 -0.35,0.423 -0.202,0.835 -0.007,-0.037 -0.011,-0.075 -0.013,-0.114 -0.008,-0.209 0.068,-0.409 0.21,-0.563 0.286,-0.306 0.801,-0.325 1.109,-0.039 0.153,0.142 0.241,0.337 0.249,0.546 0.008,0.209 -0.068,0.409 -0.21,0.563 -0.186,0.198 -0.455,0.283 -0.722,0.235 z m 0.181,-0.939 c -0.058,-0.011 -0.117,0.008 -0.158,0.052 -0.03,0.033 -0.047,0.077 -0.046,0.123 0.002,0.046 0.021,0.089 0.055,0.12 0.068,0.063 0.18,0.059 0.244,-0.009 0.031,-0.033 0.047,-0.077 0.046,-0.123 -0.002,-0.046 -0.021,-0.089 -0.055,-0.12 -0.025,-0.022 -0.054,-0.037 -0.086,-0.043 z"
     id="path239"
     inkscape:connector-curvature="0"
     style="fill:#4e4e4e" /><g
     id="g241"
     transform="translate(-6.0565462,-49.6975)"><g
       id="g243"><g
         id="Expanded_8_"><g
           id="g246"><g
             id="g248"><g
               id="g250"><path
                 d="m 165.711,102.167 -2.531,-3.693 c 0.029,0.094 0.063,0.187 0.087,0.282 0.098,0.395 0.158,0.794 0.185,1.193 l 1.757,2.563 c 0.141,0.207 0.196,0.465 0.151,0.709 -0.045,0.244 -0.19,0.466 -0.395,0.607 l -1.307,0.896 c 0.088,0.188 0.174,0.377 0.248,0.57 l 1.403,-0.962 c 0.338,-0.231 0.576,-0.596 0.651,-0.999 0.073,-0.402 -0.017,-0.827 -0.249,-1.166 z"
                 id="path252"
                 inkscape:connector-curvature="0"
                 style="fill:#4e4e4e" /><path
                 d="m 175.086,84.251 c -0.236,-0.343 -0.591,-0.575 -1,-0.651 l -5.533,-1.032 c -0.431,-0.08 -0.748,-0.443 -0.771,-0.881 -0.111,-2.102 -0.548,-4.165 -1.3,-6.134 -0.157,-0.41 -0.013,-0.87 0.349,-1.118 l 4.643,-3.184 c 0.343,-0.234 0.574,-0.59 0.65,-0.999 0.076,-0.41 -0.011,-0.823 -0.246,-1.167 l -2.831,-4.131 c -0.225,-0.329 -0.591,-0.561 -1.002,-0.638 -0.411,-0.077 -0.836,0.009 -1.165,0.234 l -4.644,3.184 c -0.35,0.242 -0.848,0.209 -1.167,-0.078 -1.567,-1.411 -3.336,-2.563 -5.255,-3.423 -0.4,-0.18 -0.624,-0.607 -0.543,-1.037 l 1.031,-5.532 c 0.157,-0.844 -0.402,-1.66 -1.246,-1.818 l -4.924,-0.918 c -0.844,-0.157 -1.66,0.402 -1.817,1.246 l -1.031,5.532 c -0.08,0.431 -0.442,0.747 -0.88,0.769 -2.101,0.111 -4.164,0.548 -6.134,1.3 -0.401,0.154 -0.875,0.005 -1.117,-0.349 l -3.184,-4.644 c -0.225,-0.329 -0.591,-0.561 -1.002,-0.638 -0.411,-0.077 -0.836,0.008 -1.165,0.234 l -4.132,2.833 c -0.339,0.232 -0.576,0.596 -0.651,0.999 -0.075,0.401 0.015,0.826 0.247,1.167 l 3.184,4.643 c 0.247,0.363 0.216,0.844 -0.077,1.169 -1.411,1.567 -2.563,3.335 -3.423,5.256 -0.178,0.4 -0.604,0.624 -1.036,0.544 l -5.532,-1.031 c -0.844,-0.157 -1.66,0.402 -1.818,1.246 l -0.451,2.417 c 0.045,0.048 0.08,0.103 0.121,0.155 0.15,0.053 0.298,0.115 0.441,0.192 l 0.495,-2.652 c 0.096,-0.513 0.591,-0.852 1.103,-0.757 l 5.532,1.031 c 0.711,0.133 1.414,-0.236 1.707,-0.896 0.834,-1.861 1.951,-3.576 3.32,-5.095 0.483,-0.536 0.535,-1.327 0.127,-1.924 l -3.184,-4.643 c -0.141,-0.207 -0.196,-0.465 -0.15,-0.709 0.046,-0.245 0.19,-0.466 0.395,-0.607 l 4.131,-2.832 c 0.394,-0.269 1.047,-0.147 1.317,0.246 l 3.184,4.643 c 0.397,0.582 1.182,0.828 1.842,0.576 1.91,-0.728 3.91,-1.152 5.946,-1.26 0.722,-0.036 1.318,-0.558 1.45,-1.268 l 1.031,-5.532 c 0.096,-0.513 0.59,-0.852 1.103,-0.757 l 4.924,0.918 c 0.513,0.096 0.852,0.59 0.757,1.103 l -1.031,5.532 c -0.132,0.709 0.235,1.411 0.895,1.707 1.86,0.835 3.575,1.951 5.095,3.32 0.525,0.472 1.346,0.525 1.923,0.127 l 4.643,-3.184 c 0.393,-0.269 1.047,-0.147 1.317,0.246 l 2.831,4.13 c 0.142,0.208 0.195,0.459 0.149,0.708 -0.046,0.249 -0.186,0.464 -0.394,0.607 l -4.643,3.184 c -0.597,0.408 -0.834,1.166 -0.576,1.841 0.729,1.91 1.153,3.911 1.26,5.948 0.038,0.721 0.56,1.318 1.27,1.451 l 5.532,1.031 c 0.249,0.046 0.465,0.187 0.609,0.396 0.141,0.206 0.195,0.457 0.148,0.706 l -0.918,4.925 c -0.096,0.513 -0.59,0.852 -1.103,0.757 l -5.532,-1.031 c -0.71,-0.132 -1.413,0.236 -1.707,0.896 -0.805,1.794 -1.876,3.446 -3.174,4.919 0.139,0.161 0.259,0.335 0.359,0.522 1.384,-1.549 2.52,-3.293 3.371,-5.191 0.179,-0.4 0.605,-0.624 1.038,-0.543 l 5.532,1.031 c 0.844,0.157 1.66,-0.402 1.818,-1.246 l 0.918,-4.925 c 0.073,-0.41 -0.015,-0.825 -0.249,-1.166 z"
                 id="path254"
                 inkscape:connector-curvature="0"
                 style="fill:#4e4e4e" /><path
                 d="m 177.153,82.834 c -0.614,-0.896 -1.54,-1.498 -2.606,-1.697 l -4.359,-0.813 c -0.166,-1.53 -0.486,-3.041 -0.953,-4.497 l 3.658,-2.51 c 1.848,-1.267 2.32,-3.8 1.053,-5.648 l -2.833,-4.132 c -0.586,-0.856 -1.539,-1.461 -2.613,-1.661 -1.074,-0.2 -2.179,0.021 -3.035,0.608 l -3.66,2.51 c -1.196,-0.965 -2.49,-1.807 -3.851,-2.508 l 0.813,-4.359 c 0.411,-2.203 -1.047,-4.328 -3.249,-4.739 l -4.924,-0.918 c -2.203,-0.411 -4.328,1.047 -4.739,3.249 l -0.813,4.359 c -1.524,0.164 -3.034,0.484 -4.496,0.952 l -2.51,-3.66 c -0.587,-0.855 -1.54,-1.46 -2.614,-1.66 -1.074,-0.2 -2.179,0.021 -3.035,0.608 l -4.132,2.832 c -0.895,0.614 -1.498,1.538 -1.697,2.606 -0.199,1.067 0.03,2.148 0.644,3.042 l 2.509,3.66 c -0.966,1.196 -1.809,2.49 -2.511,3.853 l -4.358,-0.813 c -2.203,-0.411 -4.328,1.047 -4.739,3.249 l -0.347,1.859 c 0.165,0.055 0.319,0.123 0.462,0.205 0.039,0.005 0.08,0.009 0.121,0.012 l 0.366,-1.964 c 0.349,-1.87 2.154,-3.108 4.024,-2.76 l 4.583,0.854 c 0.134,0.025 0.268,-0.042 0.33,-0.164 0.736,-1.466 1.64,-2.853 2.686,-4.123 0.087,-0.104 0.093,-0.255 0.016,-0.367 l -2.638,-3.849 c -0.522,-0.759 -0.716,-1.677 -0.547,-2.583 0.169,-0.906 0.681,-1.693 1.441,-2.213 l 4.132,-2.832 c 0.722,-0.495 1.662,-0.682 2.577,-0.511 0.916,0.171 1.725,0.683 2.221,1.406 l 2.639,3.848 c 0.077,0.113 0.22,0.16 0.349,0.117 1.559,-0.517 3.178,-0.86 4.812,-1.019 0.136,-0.014 0.246,-0.115 0.271,-0.249 l 0.855,-4.585 c 0.349,-1.87 2.154,-3.108 4.024,-2.76 l 4.924,0.918 c 1.87,0.349 3.108,2.154 2.759,4.024 l -0.855,4.585 c -0.025,0.134 0.041,0.268 0.163,0.33 1.464,0.735 2.85,1.638 4.12,2.684 0.105,0.086 0.255,0.093 0.367,0.016 l 3.849,-2.639 c 0.722,-0.495 1.662,-0.682 2.577,-0.511 0.915,0.171 1.724,0.683 2.22,1.405 l 2.833,4.132 c 1.076,1.569 0.675,3.721 -0.894,4.797 l -3.847,2.639 c -0.112,0.076 -0.16,0.219 -0.118,0.348 0.517,1.553 0.86,3.172 1.02,4.813 0.014,0.136 0.115,0.246 0.249,0.271 l 4.585,0.855 c 0.906,0.169 1.692,0.681 2.214,1.441 0.521,0.759 0.715,1.677 0.546,2.583 l -0.918,4.925 c -0.349,1.87 -2.154,3.108 -4.024,2.76 l -4.583,-0.854 c -0.134,-0.025 -0.269,0.042 -0.33,0.164 -0.736,1.467 -1.639,2.854 -2.684,4.121 -0.087,0.105 -0.093,0.256 -0.016,0.368 l 2.639,3.85 c 0.521,0.759 0.716,1.677 0.547,2.583 -0.169,0.907 -0.681,1.693 -1.441,2.213 l -1.989,1.363 c 0.03,0.232 0.053,0.464 0.063,0.698 l 2.273,-1.558 c 0.895,-0.613 1.498,-1.538 1.697,-2.605 0.199,-1.067 -0.03,-2.148 -0.644,-3.042 l -2.509,-3.661 c 0.963,-1.194 1.806,-2.488 2.509,-3.852 l 4.358,0.813 c 2.202,0.411 4.328,-1.047 4.739,-3.249 l 0.918,-4.925 c 0.198,-1.064 -0.031,-2.143 -0.644,-3.038 z"
                 id="path256"
                 inkscape:connector-curvature="0"
                 style="fill:#4e4e4e" /></g></g><g
             id="g258"><path
               d="m 149.382,72.626 c -5.561,-1.037 -10.925,2.616 -12.017,8.153 l 0.624,0.021 c 1.071,-5.153 6.082,-8.542 11.281,-7.573 5.265,0.982 8.749,6.063 7.767,11.328 -0.222,1.19 -0.663,2.283 -1.258,3.261 0.187,0.097 0.364,0.193 0.54,0.289 0.624,-1.032 1.086,-2.183 1.32,-3.437 1.043,-5.597 -2.661,-10.998 -8.257,-12.042 z"
               id="path260"
               inkscape:connector-curvature="0"
               style="fill:#4e4e4e" /><path
               d="m 135.455,80.716 c 0.01,-0.06 0.013,-0.12 0.024,-0.18 1.235,-6.622 7.627,-11.006 14.249,-9.771 6.623,1.235 11.006,7.627 9.771,14.249 -0.276,1.481 -0.821,2.841 -1.558,4.06 0.181,0.122 0.347,0.241 0.498,0.358 0.787,-1.291 1.368,-2.734 1.661,-4.306 1.297,-6.955 -3.305,-13.667 -10.26,-14.964 -6.955,-1.297 -13.667,3.306 -14.964,10.261 -0.017,0.091 -0.022,0.182 -0.037,0.273 l 0.616,0.02 z"
               id="path262"
               inkscape:connector-curvature="0"
               style="fill:#4e4e4e" /></g></g></g></g></g></svg>