<?xml version="1.0" encoding="UTF-8" standalone="no"?>
<!-- Generator: Adobe Illustrator 17.0.0, SVG Export Plug-In . SVG Version: 6.00 Build 0)  -->

<svg
   xmlns:dc="http://purl.org/dc/elements/1.1/"
   xmlns:cc="http://creativecommons.org/ns#"
   xmlns:rdf="http://www.w3.org/1999/02/22-rdf-syntax-ns#"
   xmlns:svg="http://www.w3.org/2000/svg"
   xmlns="http://www.w3.org/2000/svg"
   xmlns:xlink="http://www.w3.org/1999/xlink"
   xmlns:sodipodi="http://sodipodi.sourceforge.net/DTD/sodipodi-0.dtd"
   xmlns:inkscape="http://www.inkscape.org/namespaces/inkscape"
   version="1.1"
   id="Слой_1"
   x="0px"
   y="0px"
   width="96.195755"
   height="96.875999"
   viewBox="0 0 96.195755 96.875999"
   enable-background="new 0 0 180 147"
   xml:space="preserve"
   inkscape:version="0.91 r13725"
   sodipodi:docname="kuzov.svg"><metadata
     id="metadata198"><rdf:RDF><cc:Work
         rdf:about=""><dc:format>image/svg+xml</dc:format><dc:type
           rdf:resource="http://purl.org/dc/dcmitype/StillImage" /><dc:title></dc:title></cc:Work></rdf:RDF></metadata><defs
     id="defs196" /><sodipodi:namedview
     pagecolor="#ffffff"
     bordercolor="#666666"
     borderopacity="1"
     objecttolerance="10"
     gridtolerance="10"
     guidetolerance="10"
     inkscape:pageopacity="0"
     inkscape:pageshadow="2"
     inkscape:window-width="712"
     inkscape:window-height="480"
     id="namedview194"
     showgrid="false"
     fit-margin-top="0"
     fit-margin-left="0"
     fit-margin-right="0"
     fit-margin-bottom="0"
     inkscape:zoom="1.6054422"
     inkscape:cx="45.821379"
     inkscape:cy="49.171"
     inkscape:window-x="0"
     inkscape:window-y="0"
     inkscape:window-maximized="0"
     inkscape:current-layer="Слой_1" /><path
     d="m 17.173379,88.107 c -0.972,0 -1.987,-0.065 -3.087,-0.222 -2.111,-0.302 -4.062,-0.323 -5.7830003,-0.341 -2.847,-0.03 -4.905,-0.053 -5.381,-1.48 -0.661,-1.985 -1.571,-11.663 -1.475,-14.619 0.024,-0.746 0.035,-1.601 0.046,-2.518 0.034,-2.79 0.076,-6.262 0.555,-8.913 0.675,-3.728 1.603,-5.969 3.204,-7.734 0.585,-0.645 0.951,-0.954 1.245,-1.202 0.494,-0.417 0.742,-0.626 1.608,-2.255 0.491,-0.924 0.672,-1.58 0.921,-2.488 0.432,-1.573 1.0240003,-3.727 3.6730003,-8.816 4.238,-8.14 7.568,-9.903 8.663,-10.482 1.285,-0.68 2.087,-0.241 2.175,-0.188 0.165,0.099 0.236,0.303 0.166,0.483 -0.07,0.18 -0.258,0.284 -0.448,0.246 l 0,0 c 10e-4,0 -1.339,-0.146 -3.615,2.639 -2.493,3.05 -5.293,8.727 -6.161,10.656 -0.185,0.412 -0.376,0.791 -0.553,1.143 -0.711,1.414 -1,2.065 -0.387,2.678 0.733,0.733 4.184,0.568 6.47,0.458 0.617,-0.03 1.198,-0.058 1.702,-0.07 2.517,-0.063 20.783,-0.24 27.319,-0.24 0.219,0 0.397,0.178 0.397,0.397 0,0.219 -0.178,0.397 -0.397,0.397 -6.533,0 -24.785,0.177 -27.3,0.24 -0.498,0.012 -1.073,0.04 -1.684,0.069 -3.448,0.166 -6.159,0.22 -7.068,-0.69 -1.044,-1.044 -0.449,-2.226 0.24,-3.596 0.173,-0.343 0.359,-0.712 0.539,-1.112 0.866,-1.924 3.63,-7.53 6.145,-10.679 -1.463,1.461 -3.35,3.892 -5.498,8.016 -2.61,5.014 -3.189,7.121 -3.6120003,8.66 -0.253,0.921 -0.453,1.649 -0.985,2.65 -0.9,1.694 -1.202,1.987 -1.797,2.489 -0.276,0.233 -0.62,0.523 -1.169,1.128 -1.493,1.645 -2.365,3.772 -3.011,7.342 -0.468,2.585 -0.509,6.02 -0.543,8.781 -0.011,0.923 -0.022,1.784 -0.046,2.534 -0.101,3.076 0.851,12.593 1.435,14.342 0.297,0.891 2.212,0.912 4.637,0.938 1.659,0.018 3.7240003,0.04 5.8870003,0.349 3.295,0.471 5.846,0.076 8.798,-0.38 1.906,-0.295 4.066,-0.629 6.666,-0.747 6.448,-0.295 18.109,-0.244 18.226,-0.243 0.219,10e-4 0.396,0.18 0.395,0.399 -10e-4,0.219 -0.178,0.395 -0.397,0.395 -10e-4,0 -10e-4,0 -0.002,0 -0.116,0 -11.757,-0.051 -18.185,0.242 -2.557,0.117 -4.603,0.433 -6.581,0.739 -2.046,0.318 -3.901,0.605 -5.947,0.605 z"
     id="path3"
     inkscape:connector-curvature="0"
     style="fill:#4e4e4e" /><path
     d="m 22.509379,29.218 c -0.755,0 -1.027,-0.109 -1.171,-0.38 -0.12,-0.228 -0.065,-0.488 0.165,-0.773 0.977,-1.21 2.112,-1.522 3.732,-1.858 1.644,-0.342 3.798,-0.308 3.89,-0.306 0.148,0.003 0.282,0.088 0.348,0.22 0.04,0.08 0.051,0.169 0.034,0.254 0.13,0.034 0.414,0.072 1,0.023 2.278,-0.188 11.255,-0.536 15.736,-0.536 l 2.836,0 c 0.219,0 0.397,0.178 0.397,0.397 0,0.219 -0.178,0.397 -0.397,0.397 l -2.836,0 c -4.466,0 -13.404,0.347 -15.671,0.534 -1.049,0.087 -1.611,-0.045 -1.825,-0.426 -0.013,-0.023 -0.024,-0.046 -0.034,-0.068 -0.694,0.006 -2.164,0.05 -3.317,0.29 -1.552,0.323 -2.402,0.579 -3.157,1.438 0.562,0.029 1.811,-0.071 3.419,-0.199 1.092,-0.087 2.434,-0.193 4.061,-0.304 6.746,-0.458 18.62,-0.464 18.739,-0.464 0.219,0 0.397,0.178 0.397,0.397 0,0.219 -0.178,0.397 -0.397,0.397 -0.119,0 -11.966,0.005 -18.685,0.462 -1.623,0.111 -2.963,0.217 -4.051,0.304 -1.57,0.121 -2.567,0.201 -3.213,0.201 z"
     id="path5"
     inkscape:connector-curvature="0"
     style="fill:#4e4e4e" /><path
     d="m 16.248379,45.318 c -0.811,0 -1.416,-0.149 -1.78,-0.726 -0.687,-1.091 0.037,-2.675 1.132,-5.071 1.012,-2.215 4.161,-8.059 5.095,-9.064 0.945,-1.018 1.343,-1.246 3.412,-1.35 0.766,-0.038 2.489,-0.164 4.314,-0.298 2.974,-0.217 6.345,-0.463 7.309,-0.463 l 0.211,0 c 1.482,-0.002 2.379,-0.002 3.141,0.741 0.138,0.135 0.255,0.263 0.362,0.38 0.395,0.433 0.575,0.631 1.411,0.631 0.634,0 1.899,-0.043 3.123,-0.085 1.21,-0.041 2.354,-0.08 2.927,-0.08 l 2.175,0 c 0.219,0 0.397,0.178 0.397,0.397 0,0.219 -0.178,0.397 -0.397,0.397 l -2.175,0 c -0.56,0 -1.696,0.039 -2.9,0.08 -1.23,0.042 -2.503,0.085 -3.151,0.085 -1.186,0 -1.562,-0.412 -1.997,-0.89 -0.098,-0.107 -0.204,-0.223 -0.33,-0.347 -0.509,-0.498 -1.142,-0.522 -2.585,-0.516 l -0.212,0 c -0.936,0 -4.291,0.245 -7.252,0.461 -1.909,0.139 -3.558,0.26 -4.333,0.299 -1.882,0.094 -2.088,0.255 -2.87,1.097 -0.804,0.866 -3.908,6.564 -4.955,8.855 -0.916,2.005 -1.641,3.59 -1.182,4.318 0.27,0.428 0.952,0.395 2.346,0.286 0.536,-0.042 1.144,-0.089 1.837,-0.107 0.597,-0.016 1.641,-0.03 2.944,-0.047 4.126,-0.055 11.032,-0.146 14.32,-0.448 4.295,-0.393 11.165,-0.562 11.234,-0.564 l 0.571,0 c 0.219,0 0.397,0.178 0.397,0.397 0,0.219 -0.178,0.397 -0.397,0.397 l -0.559,0 c -0.059,0.002 -6.903,0.169 -11.171,0.56 -3.319,0.304 -10.245,0.396 -14.382,0.451 -1.299,0.017 -2.339,0.031 -2.934,0.046 -0.672,0.018 -1.269,0.065 -1.796,0.106 -0.478,0.038 -0.912,0.072 -1.3,0.072 z"
     id="path7"
     inkscape:connector-curvature="0"
     style="fill:#4e4e4e" /><path
     d="m 12.506379,58.101 c -0.196,0 -0.366,-0.145 -0.393,-0.344 -0.03,-0.23 -0.747,-5.659 -0.648,-9.089 0.05,-1.737 0.382,-2.876 0.985,-3.386 0.361,-0.305 0.692,-0.278 0.756,-0.268 0.131,0.018 0.244,0.1 0.302,0.219 0.031,0.064 3.151,6.431 7.038,10.877 0.144,0.165 0.128,0.416 -0.038,0.56 -0.164,0.144 -0.415,0.127 -0.559,-0.037 -3.46,-3.958 -6.314,-9.393 -6.999,-10.741 -0.225,0.199 -0.635,0.827 -0.692,2.799 -0.097,3.367 0.634,8.906 0.641,8.962 0.029,0.217 -0.123,0.417 -0.341,0.446 -0.017,0.001 -0.035,0.002 -0.052,0.002 z"
     id="path9"
     inkscape:connector-curvature="0"
     style="fill:#4e4e4e" /><path
     d="m 48.625379,60.382 -19.969,0 c -0.106,-10e-4 -2.53,-0.042 -6.612,-0.733 -1.558,-0.264 -3.23,-0.519 -4.846,-0.765 -2.611,-0.399 -5.077,-0.775 -6.55,-1.113 l -0.309,-0.071 C 7.3443787,57.013 5.1703787,56.476 4.4523787,55.814 c -0.117,-0.108 -0.159,-0.275 -0.105,-0.425 0.015,-0.043 0.395,-1.07 1.792,-1.894 1.195,-0.705 1.463,-0.91 1.901,-2.538 0.363,-1.349 0.611,-2.592 0.872,-3.908 l 0.216,-1.078 c 0.044,-0.214 0.256,-0.352 0.468,-0.309 0.215,0.044 0.353,0.253 0.31,0.468 l -0.216,1.075 c -0.264,1.329 -0.514,2.585 -0.884,3.959 -0.488,1.813 -0.865,2.191 -2.265,3.016 -0.738,0.435 -1.128,0.928 -1.311,1.221 0.923,0.527 3.416,1.098 5.2860003,1.527 l 0.31,0.071 c 1.444,0.332 3.895,0.706 6.492,1.102 1.619,0.247 3.294,0.503 4.858,0.768 4.016,0.68 6.461,0.721 6.486,0.722 l 19.963,0 c 0.219,0 0.397,0.178 0.397,0.397 0,0.219 -0.178,0.394 -0.397,0.394 z"
     id="path11"
     inkscape:connector-curvature="0"
     style="fill:#4e4e4e" /><path
     d="m 32.630379,71.452 c -0.033,0 -0.067,-0.004 -0.1,-0.013 -2.296,-0.593 -5.356,-0.878 -8.596,-1.181 -2.381,-0.222 -4.844,-0.452 -7.369,-0.822 -0.931,-0.137 -1.848,-0.259 -2.735,-0.377 -5.1330003,-0.683 -9.1870003,-1.222 -10.1120003,-3.713 -1.023,-2.754 -0.499,-5.335 -0.476,-5.443 0.039,-0.186 0.194,-0.314 0.397,-0.315 0.191,0.004 0.352,0.143 0.383,0.331 0.158,0.951 1.152,1.39 3.043,2.146 0.261,0.105 0.534,0.214 0.816,0.33 1.416,0.583 3.4560003,1.14 5.2560003,1.631 1.039,0.284 2.021,0.552 2.814,0.804 2.639,0.84 4.652,1.234 5.53,1.078 0.69,-0.122 1.509,-0.159 2.068,-0.17 -0.212,-0.422 -0.516,-1.038 -0.837,-1.716 -0.595,-1.255 -1.462,-3.49 -1.499,-3.584 -0.079,-0.204 0.022,-0.434 0.226,-0.513 0.204,-0.08 0.434,0.022 0.513,0.227 0.009,0.023 0.894,2.302 1.476,3.531 0.585,1.236 1.113,2.259 1.118,2.269 0.065,0.124 0.058,0.273 -0.016,0.392 -0.074,0.119 -0.199,0.182 -0.345,0.187 -0.016,-0.002 -1.495,-0.03 -2.567,0.159 -1.295,0.229 -3.929,-0.474 -5.909,-1.104 -0.777,-0.247 -1.751,-0.513 -2.782,-0.795 -1.821,-0.497 -3.8860003,-1.061 -5.3480003,-1.663 -0.28,-0.115 -0.55,-0.223 -0.808,-0.326 -1.236,-0.494 -2.25,-0.9 -2.877,-1.513 -0.036,0.955 0.039,2.355 0.569,3.781 0.759,2.044 4.797,2.581 9.4730003,3.203 0.891,0.119 1.811,0.241 2.746,0.378 2.505,0.368 4.957,0.596 7.328,0.817 3.272,0.305 6.363,0.594 8.721,1.203 0.212,0.055 0.34,0.271 0.285,0.483 -0.049,0.18 -0.21,0.298 -0.386,0.298 z"
     id="path13"
     inkscape:connector-curvature="0"
     style="fill:#4e4e4e" /><path
     d="m 11.498379,62.921 c -0.219,0 -0.397,-0.178 -0.397,-0.397 0,-0.219 0.178,-0.397 0.397,-0.397 0.966,0 1.752,-0.786 1.752,-1.752 0,-0.966 -0.786,-1.752 -1.752,-1.752 -0.966,0 -1.7520003,0.786 -1.7520003,1.752 0,0.241 0.048,0.474 0.143,0.693 0.087,0.201 -0.006,0.435 -0.207,0.521 -0.2,0.087 -0.434,-0.005 -0.521,-0.207 -0.138,-0.319 -0.208,-0.658 -0.208,-1.008 0,-1.404 1.1420003,-2.546 2.5460003,-2.546 1.404,0 2.546,1.142 2.546,2.546 0,1.404 -1.144,2.547 -2.547,2.547 z"
     id="path15"
     inkscape:connector-curvature="0"
     style="fill:#4e4e4e" /><path
     d="m 11.498379,62.247 c -1.032,0 -1.8720003,-0.84 -1.8720003,-1.872 0,-1.032 0.8390003,-1.872 1.8720003,-1.872 0.219,0 0.397,0.178 0.397,0.397 0,0.219 -0.178,0.397 -0.397,0.397 -0.595,0 -1.078,0.484 -1.078,1.079 0,0.595 0.484,1.078 1.078,1.078 0.595,0 1.079,-0.484 1.079,-1.078 0,-0.219 0.178,-0.397 0.397,-0.397 0.219,0 0.397,0.178 0.397,0.397 -10e-4,1.031 -0.841,1.871 -1.873,1.871 z"
     id="path17"
     inkscape:connector-curvature="0"
     style="fill:#4e4e4e" /><path
     d="m 17.765379,64.358 c -0.219,0 -0.397,-0.178 -0.397,-0.397 0,-0.219 0.178,-0.397 0.397,-0.397 0.966,0 1.752,-0.786 1.752,-1.752 0,-0.966 -0.786,-1.752 -1.752,-1.752 -0.966,0 -1.752,0.786 -1.752,1.752 0,0.241 0.048,0.474 0.143,0.693 0.087,0.201 -0.006,0.435 -0.207,0.521 -0.199,0.087 -0.434,-0.006 -0.521,-0.207 -0.138,-0.319 -0.208,-0.658 -0.208,-1.008 0,-1.404 1.142,-2.546 2.546,-2.546 1.404,0 2.546,1.142 2.546,2.546 -0.002,1.405 -1.144,2.547 -2.547,2.547 z"
     id="path19"
     inkscape:connector-curvature="0"
     style="fill:#4e4e4e" /><path
     d="m 17.765379,63.684 c -1.032,0 -1.872,-0.84 -1.872,-1.872 0,-1.032 0.839,-1.872 1.872,-1.872 0.219,0 0.397,0.178 0.397,0.397 0,0.219 -0.178,0.397 -0.397,0.397 -0.595,0 -1.078,0.484 -1.078,1.078 0,0.595 0.484,1.078 1.078,1.078 0.594,0 1.079,-0.484 1.079,-1.078 0,-0.219 0.178,-0.397 0.397,-0.397 0.219,0 0.397,0.178 0.397,0.397 -0.001,1.032 -0.841,1.872 -1.873,1.872 z"
     id="path21"
     inkscape:connector-curvature="0"
     style="fill:#4e4e4e" /><path
     d="m 18.605379,65.275 c -0.185,0 -0.35,-0.13 -0.388,-0.318 -0.043,-0.215 0.096,-0.424 0.31,-0.467 0.079,-0.017 1.952,-0.435 1.868,-2.472 -0.088,-2.127 -1.616,-2.883 -1.681,-2.914 -0.197,-0.094 -0.282,-0.33 -0.189,-0.528 0.094,-0.198 0.33,-0.283 0.525,-0.191 0.083,0.038 2.029,0.975 2.137,3.6 0.089,2.176 -1.598,3.098 -2.502,3.282 -0.027,0.006 -0.053,0.008 -0.08,0.008 z"
     id="path23"
     inkscape:connector-curvature="0"
     style="fill:#4e4e4e" /><path
     d="m 20.525379,66.082 c -0.378,0 -0.806,-0.048 -1.331,-0.192 l -0.751,-0.203 c -2.177,-0.587 -7.274,-1.96 -9.7660003,-2.917 l -0.523,-0.2 c -2.436,-0.932 -3.091,-1.183 -3.929,-2.121 -0.936,-1.048 -0.373,-3.661 -0.306,-3.956 0.049,-0.214 0.261,-0.347 0.475,-0.298 0.213,0.049 0.347,0.261 0.299,0.475 -0.218,0.959 -0.377,2.69 0.124,3.251 0.709,0.794 1.268,1.008 3.62,1.908 l 0.524,0.201 c 2.4540003,0.941 7.5240003,2.308 9.6890003,2.891 l 0.755,0.204 c 0.899,0.247 1.458,0.162 2.048,0.073 0.226,-0.034 0.451,-0.068 0.693,-0.086 0.892,-0.066 1.213,0.022 1.31,0.064 0.201,0.086 0.294,0.319 0.208,0.521 -0.087,0.201 -0.32,0.294 -0.521,0.208 0.013,0.002 -0.093,-0.024 -0.403,-0.024 -0.136,0 -0.312,0.006 -0.535,0.022 -0.221,0.016 -0.427,0.048 -0.633,0.079 -0.327,0.049 -0.66,0.1 -1.047,0.1 z"
     id="path25"
     inkscape:connector-curvature="0"
     style="fill:#4e4e4e" /><path
     d="m 48.172379,69.441 -5.961,0 c -2.725,0 -6.056,-0.215 -10.097,-1.813 -4.308,-1.703 -7.726,-4.095 -8.442,-5.097 -0.695,-0.974 -1.226,-2.973 -1.248,-3.057 -0.056,-0.212 0.071,-0.429 0.283,-0.484 0.212,-0.057 0.428,0.071 0.485,0.283 0.005,0.019 0.516,1.943 1.126,2.798 0.58,0.812 3.779,3.117 8.088,4.821 4.446,1.757 8.066,1.757 9.806,1.757 l 5.961,0 c 0.219,0 0.397,0.178 0.397,0.397 -0.002,0.217 -0.179,0.395 -0.398,0.395 z"
     id="path27"
     inkscape:connector-curvature="0"
     style="fill:#4e4e4e" /><path
     d="m 45.108379,68.351 c -0.606,0 -2.765,-0.026 -6.73,-0.333 -4.802,-0.372 -7.08,-2.025 -9.09,-3.484 -2.065,-1.499 -3.835,-4.441 -3.909,-4.565 -0.113,-0.188 -0.051,-0.431 0.137,-0.544 0.19,-0.113 0.431,-0.051 0.544,0.137 0.018,0.029 1.763,2.928 3.688,4.326 2.025,1.47 4.113,2.985 8.691,3.34 4.623,0.358 6.817,0.329 6.84,0.329 l 3.081,0 c 0.219,0 0.397,0.178 0.397,0.397 0,0.219 -0.178,0.397 -0.397,0.397 l -3.075,0 c -0.012,-0.001 -0.071,0 -0.177,0 z"
     id="path29"
     inkscape:connector-curvature="0"
     style="fill:#4e4e4e" /><path
     d="m 48.360379,73.111 c -0.003,0 -0.006,0 -0.01,0 -0.041,-0.001 -4.142,-0.105 -9.516,-0.608 -5.345,-0.5 -6.31,-0.644 -9.068,-2.816 -2.626,-2.068 -7.02,-6.066 -7.064,-6.106 -0.153,-0.14 -0.173,-0.373 -0.046,-0.537 0.127,-0.163 0.358,-0.202 0.532,-0.088 0.044,0.029 4.486,2.959 7.576,4.65 3.496,1.913 7.057,2.199 8.868,2.199 l 8.728,0 c 0.219,0 0.397,0.178 0.397,0.397 0,0.219 -0.178,0.397 -0.397,0.397 l -8.728,0 c -1.887,0 -5.598,-0.298 -9.249,-2.296 -1.07,-0.586 -2.299,-1.317 -3.453,-2.027 1.145,0.995 2.359,2.025 3.327,2.788 2.567,2.021 3.246,2.145 8.652,2.65 5.345,0.5 9.421,0.604 9.462,0.604 0.219,0.005 0.392,0.187 0.387,0.406 -0.006,0.216 -0.183,0.387 -0.398,0.387 z"
     id="path31"
     inkscape:connector-curvature="0"
     style="fill:#4e4e4e" /><path
     d="m 44.128379,66.081 -1.686,0 c -0.096,0 -0.188,-0.034 -0.259,-0.097 l -0.781,-0.676 -1.919,0 c -0.088,0 -0.174,-0.029 -0.243,-0.083 l -0.802,-0.62 -1.98,0 c -0.095,0 -0.185,-0.034 -0.257,-0.095 l -0.969,-0.827 -1.617,0 c -0.102,0 -0.199,-0.039 -0.273,-0.109 l -1.389,-1.318 c -0.159,-0.151 -0.165,-0.402 -0.014,-0.561 0.151,-0.16 0.402,-0.166 0.561,-0.015 l 1.273,1.209 1.605,0 c 0.095,0 0.185,0.034 0.257,0.095 l 0.969,0.827 1.97,0 c 0.088,0 0.174,0.029 0.243,0.083 l 0.801,0.62 1.931,0 c 0.096,0 0.188,0.034 0.259,0.097 l 0.781,0.676 1.538,0 c 0.219,0 0.397,0.178 0.397,0.397 0,0.219 -0.177,0.397 -0.396,0.397 z"
     id="path33"
     inkscape:connector-curvature="0"
     style="fill:#4e4e4e" /><path
     d="m 48.261379,83.922 -15.693,0 c -5.554,0 -9.279,-0.393 -11.999,-0.681 -0.77,-0.081 -1.448,-0.153 -2.051,-0.202 l -0.707,-0.059 c -2.111,-0.177 -2.523,-0.202 -3.006,0.04 -0.62,0.31 -0.944,0.29 -2.153,0.216 -0.306,-0.019 -0.676,-0.041 -1.13,-0.064 -2.0740003,-0.104 -4.7980003,-0.302 -5.9990003,-0.655 -1.235,-0.363 -1.051,-1.729 -0.89,-2.935 0.037,-0.274 0.074,-0.554 0.099,-0.831 0.202,-2.253 0.848,-3.679 1.975,-4.36 1.245,-0.751 2.175,-0.627 3.3520003,-0.471 0.157,0.021 0.321,0.043 0.493,0.064 0.252,0.03 6.242,0.76 12.255,1.833 3.782,0.675 6.456,1.691 7.332,2.352 l 3.343,0 c 0.219,0 0.397,0.178 0.397,0.397 0,0.219 -0.178,0.397 -0.397,0.397 l -3.427,0 c -0.12,0 -0.227,-0.053 -0.3,-0.137 -0.352,-0.273 -2.53,-1.414 -7.087,-2.228 -5.991,-1.069 -11.959,-1.795 -12.21,-1.826 -0.176,-0.021 -0.343,-0.044 -0.5030003,-0.065 -1.142,-0.152 -1.83,-0.244 -2.837,0.363 -0.896,0.541 -1.417,1.768 -1.595,3.751 -0.026,0.289 -0.065,0.581 -0.103,0.866 -0.173,1.29 -0.197,1.914 0.328,2.068 0.879,0.259 2.943,0.48 5.8140003,0.624 0.458,0.023 0.83,0.046 1.139,0.065 1.189,0.073 1.335,0.074 1.75,-0.134 0.698,-0.349 1.277,-0.3 3.427,-0.121 l 0.706,0.059 c 0.608,0.05 1.292,0.122 2.07,0.204 2.702,0.285 6.403,0.676 11.915,0.676 l 15.692,0 c 0.219,0 0.397,0.178 0.397,0.397 0,0.219 -0.178,0.397 -0.397,0.397 z"
     id="path35"
     inkscape:connector-curvature="0"
     style="fill:#4e4e4e" /><path
     d="m 5.0353787,82.005 c -0.129,0 -0.255,-0.062 -0.332,-0.176 -0.292,-0.432 -0.105,-1.104 0.154,-2.033 l 0.065,-0.233 c 0.051,-0.187 0.098,-0.403 0.148,-0.637 0.188,-0.868 0.444,-2.056 1.214,-3.107 1.137,-1.552 2.624,-1.323 4.6820003,-1.006 0.304,0.047 0.624,0.096 0.96,0.142 2.468,0.341 8.061,1.261 12.733,2.097 4.644,0.83 6.307,2.651 6.376,2.728 0.146,0.164 0.131,0.414 -0.033,0.56 -0.162,0.145 -0.412,0.131 -0.558,-0.032 l 0,0 c -0.016,-0.017 -1.584,-1.7 -5.924,-2.475 -4.664,-0.833 -10.243,-1.752 -12.702,-2.091 -0.341,-0.047 -0.665,-0.097 -0.972,-0.144 -2.1280003,-0.327 -3.1040003,-0.425 -3.9210003,0.691 -0.67,0.914 -0.897,1.963 -1.079,2.805 -0.054,0.25 -0.104,0.48 -0.159,0.68 l -0.066,0.236 c -0.135,0.483 -0.338,1.212 -0.259,1.38 0.123,0.181 0.074,0.426 -0.107,0.549 -0.067,0.044 -0.144,0.066 -0.22,0.066 z"
     id="path37"
     inkscape:connector-curvature="0"
     style="fill:#4e4e4e" /><path
     d="m 6.5383787,81.673 c -0.079,0 -0.158,-0.023 -0.228,-0.072 -0.179,-0.126 -0.222,-0.372 -0.097,-0.551 l 0,0 c 0.005,-0.007 0.493,-0.726 0.436,-1.667 -0.055,-0.929 0.04,-2.271 1.506,-3.202 1.113,-0.707 2.6640003,-0.806 4.4870003,-0.289 1.974,0.56 4.309,0.978 6.94,1.243 1.212,0.122 2.253,0.168 3.261,0.213 1.722,0.077 3.209,0.144 4.996,0.558 0.214,0.049 0.347,0.263 0.297,0.476 -0.049,0.214 -0.264,0.346 -0.476,0.297 -1.716,-0.398 -3.17,-0.463 -4.853,-0.538 -1.018,-0.045 -2.071,-0.092 -3.305,-0.217 -2.677,-0.269 -5.058,-0.697 -7.078,-1.269 -1.114,-0.316 -2.6870003,-0.539 -3.8450003,0.196 -0.869,0.552 -1.21,1.295 -1.139,2.484 0.073,1.226 -0.552,2.131 -0.579,2.169 -0.075,0.111 -0.198,0.169 -0.323,0.169 z"
     id="path39"
     inkscape:connector-curvature="0"
     style="fill:#4e4e4e" /><path
     d="m 12.137379,81.431 c -3.8520003,0 -5.3470003,-1.856 -5.4080003,-1.935 -0.135,-0.173 -0.104,-0.422 0.068,-0.557 0.172,-0.135 0.42,-0.104 0.555,0.066 0.017,0.02 1.353,1.632 4.7850003,1.632 2.73,0 3.245,-0.884 3.435,-1.35 -0.258,-0.202 -0.699,-0.563 -1.277,-1.09 -0.713,-0.65 -3.308,-1.68 -5.5030003,-0.371 -0.187,0.112 -0.431,0.051 -0.544,-0.137 -0.112,-0.188 -0.051,-0.432 0.138,-0.544 2.5010003,-1.492 5.4770003,-0.414 6.4430003,0.466 0.897,0.817 1.458,1.223 1.463,1.227 0.086,0.063 0.144,0.157 0.16,0.262 0.016,0.105 -0.011,0.213 -0.075,0.298 -0.002,0.008 -0.014,0.043 -0.03,0.085 -0.349,0.907 -1.143,1.948 -4.21,1.948 z"
     id="path41"
     inkscape:connector-curvature="0"
     style="fill:#4e4e4e" /><path
     d="m 8.5003787,78.69 c -0.075,0 -0.151,-0.021 -0.219,-0.066 -0.183,-0.121 -0.233,-0.367 -0.112,-0.55 0.833,-1.258 2.8820003,-1.654 2.9690003,-1.671 0.212,-0.04 0.422,0.101 0.462,0.317 0.041,0.215 -0.101,0.423 -0.316,0.463 -0.018,0.004 -1.8070003,0.352 -2.4540003,1.329 -0.075,0.115 -0.202,0.178 -0.33,0.178 z"
     id="path43"
     inkscape:connector-curvature="0"
     style="fill:#4e4e4e" /><path
     d="m 12.953379,81.401 c -3.8780003,0 -4.5820003,-2.009 -4.6100003,-2.095 -0.068,-0.208 0.045,-0.432 0.254,-0.501 0.207,-0.068 0.429,0.044 0.499,0.249 0.027,0.073 0.612,1.554 3.8570003,1.554 0.219,0 0.397,0.178 0.397,0.397 0,0.219 -0.178,0.396 -0.397,0.396 z"
     id="path45"
     inkscape:connector-curvature="0"
     style="fill:#4e4e4e" /><path
     d="m 48.261379,82.114 -11.858,0 c -5.812,0 -8.562,-0.491 -11.553,-1.133 -1.533,-0.329 -2.496,-0.53 -3.308,-0.7 -0.875,-0.183 -1.573,-0.328 -2.614,-0.557 -2.261,-0.497 -2.42,-1.856 -2.425,-1.914 -0.013,-0.13 0.04,-0.259 0.141,-0.343 0.101,-0.084 0.237,-0.113 0.363,-0.077 0.011,0.003 1.099,0.308 2.975,0.508 0.464,0.049 0.928,0.084 1.38,0.118 1.469,0.111 2.855,0.215 3.78,0.784 0.992,0.61 2.763,1.099 4.986,1.377 2.068,0.259 15.595,0.283 15.731,0.284 l 2.82,0 c 0.219,0 0.397,0.178 0.397,0.397 0,0.219 -0.178,0.397 -0.397,0.397 l -2.821,0 c -0.559,-10e-4 -13.713,-0.025 -15.829,-0.29 -2.333,-0.292 -4.217,-0.82 -5.303,-1.488 -0.761,-0.468 -2.055,-0.566 -3.424,-0.669 -0.46,-0.035 -0.932,-0.07 -1.404,-0.121 -0.905,-0.096 -1.629,-0.215 -2.15,-0.316 0.267,0.213 0.688,0.433 1.352,0.579 1.038,0.228 1.734,0.373 2.606,0.555 0.813,0.17 1.778,0.371 3.312,0.7 2.944,0.632 5.652,1.115 11.387,1.115 l 11.856,0 c 0.219,0 0.397,0.178 0.397,0.397 0,0.22 -0.178,0.397 -0.397,0.397 z"
     id="path47"
     inkscape:connector-curvature="0"
     style="fill:#4e4e4e" /><path
     d="m 48.063379,79.69 -14.13,0 c -0.467,0 -0.847,-0.38 -0.847,-0.847 l 0,-5.679 c 0,-0.467 0.38,-0.846 0.847,-0.846 l 14.13,0 c 0.219,0 0.397,0.178 0.397,0.397 0,0.219 -0.178,0.397 -0.397,0.397 l -14.13,0 c -0.029,0 -0.053,0.024 -0.053,0.053 l 0,5.679 c 0,0.029 0.024,0.053 0.053,0.053 l 14.13,0 c 0.219,0 0.397,0.178 0.397,0.397 0,0.219 -0.178,0.396 -0.397,0.396 z"
     id="path49"
     inkscape:connector-curvature="0"
     style="fill:#4e4e4e" /><path
     d="m 47.697379,79.137 -13.202,0 c -0.467,0 -0.847,-0.38 -0.847,-0.847 l 0,-4.882 c 0,-0.219 0.178,-0.397 0.397,-0.397 0.219,0 0.397,0.178 0.397,0.397 l 0,4.882 c 0,0.029 0.024,0.053 0.053,0.053 l 13.203,0 c 0.219,0 0.397,0.178 0.397,0.397 0,0.219 -0.179,0.397 -0.398,0.397 z"
     id="path51"
     inkscape:connector-curvature="0"
     style="fill:#4e4e4e" /><path
     d="m 48.261379,66.995 -1.389,0 c -0.955,0 -1.714,-0.737 -1.891,-1.833 -0.011,-0.044 -0.386,-1.683 -0.443,-2.271 -0.045,-0.47 0.112,-0.93 0.443,-1.294 0.364,-0.401 0.907,-0.64 1.452,-0.64 l 1.928,0 c 0.219,0 0.397,0.178 0.397,0.397 0,0.219 -0.178,0.397 -0.397,0.397 l -1.928,0 c -0.325,0 -0.648,0.142 -0.864,0.38 -0.179,0.197 -0.264,0.44 -0.241,0.684 0.052,0.538 0.428,2.179 0.432,2.196 0.091,0.564 0.433,1.192 1.113,1.192 l 1.389,0 c 0.219,0 0.397,0.178 0.397,0.397 -0.001,0.217 -0.179,0.395 -0.398,0.395 z"
     id="path53"
     inkscape:connector-curvature="0"
     style="fill:#4e4e4e" /><path
     d="m 25.720379,57.781 c -0.129,0 -0.256,-0.063 -0.332,-0.179 -2.722,-4.137 -5.403,-11.656 -5.515,-11.974 -0.073,-0.206 0.035,-0.433 0.241,-0.506 0.208,-0.073 0.433,0.035 0.507,0.241 0.027,0.077 2.762,7.747 5.431,11.803 0.12,0.183 0.069,0.429 -0.114,0.549 -0.067,0.045 -0.143,0.066 -0.218,0.066 z"
     id="path55"
     inkscape:connector-curvature="0"
     style="fill:#4e4e4e" /><path
     d="m 14.103379,45.966 c -0.045,0 -0.09,-0.007 -0.135,-0.024 -0.753,-0.272 -1.261,-0.69 -1.513,-1.243 -0.232,-0.51 -0.226,-1.112 0.017,-1.74 0.333,-0.862 1.217,-3.153 3.481,-7.341 2.193,-4.057 5.064,-7.851 5.092,-7.889 0.132,-0.174 0.382,-0.209 0.556,-0.076 0.175,0.133 0.209,0.381 0.076,0.556 -0.028,0.037 -2.863,3.785 -5.026,7.787 -2.24,4.144 -3.111,6.401 -3.439,7.25 -0.114,0.297 -0.213,0.732 -0.035,1.125 0.16,0.351 0.517,0.628 1.061,0.825 0.206,0.074 0.313,0.302 0.238,0.508 -0.058,0.162 -0.211,0.262 -0.373,0.262 z"
     id="path57"
     inkscape:connector-curvature="0"
     style="fill:#4e4e4e" /><path
     d="m 27.303379,84.703 c -2.594,0 -5.854,-0.056 -8.463,-0.254 -2.036,-0.154 -4.005,-0.193 -5.91,-0.231 -2.146,-0.043 -4.3660003,-0.087 -6.6280003,-0.299 -1.869,-0.175 -3.142,-0.696 -3.784,-1.548 -0.523,-0.694 -0.42,-1.339 -0.407,-1.41 0.04,-0.215 0.248,-0.359 0.463,-0.317 0.213,0.04 0.354,0.244 0.318,0.458 -0.004,0.026 -0.05,0.397 0.277,0.815 0.351,0.449 1.193,1.024 3.208,1.213 2.232,0.209 4.3390003,0.251 6.5690003,0.295 1.915,0.038 3.896,0.077 5.954,0.233 0.176,0.013 0.354,0.026 0.535,0.038 -1.574,-0.176 -3.215,-0.386 -4.868,-0.639 -0.216,-0.033 -0.365,-0.235 -0.332,-0.452 0.033,-0.217 0.24,-0.363 0.452,-0.332 6.57,1.003 12.952,1.34 15.677,1.484 1.586,0.084 1.586,0.084 1.583,0.48 -0.003,0.389 -0.391,0.403 -0.599,0.411 -0.7,0.027 -2.205,0.055 -4.045,0.055 z"
     id="path59"
     inkscape:connector-curvature="0"
     style="fill:#4e4e4e" /><path
     d="m 12.387379,96.871 c -0.17,0 -0.329,-0.009 -0.471,-0.025 l -3.0640003,0.003 c -2.781,0 -4.395,-1.238 -4.934,-3.786 -0.545,-2.573 -0.897,-6.696 -0.912,-6.87 -0.019,-0.218 0.144,-0.41 0.362,-0.429 0.22,-0.014 0.411,0.143 0.429,0.362 0.004,0.042 0.363,4.248 0.897,6.772 0.456,2.154 1.778,3.157 4.158,3.157 l 3.1080003,0 c 0.168,0.016 3.064,0.298 3.715,-2.247 0.646,-2.527 0.824,-6.084 0.825,-6.12 0.011,-0.219 0.202,-0.382 0.415,-0.377 0.219,0.011 0.387,0.196 0.377,0.415 -0.007,0.149 -0.182,3.672 -0.849,6.279 -0.584,2.287 -2.696,2.866 -4.056,2.866 z"
     id="path61"
     inkscape:connector-curvature="0"
     style="fill:#4e4e4e" /><path
     d="m 26.586379,81.326 c -0.014,0 -0.028,-10e-4 -0.042,-0.002 -0.029,-0.003 -2.983,-0.314 -6.465,-0.444 -2.03,-0.078 -3.236,0.218 -3.751,0.344 -0.307,0.075 -0.597,0.145 -0.762,-0.138 -0.165,-0.284 0.05,-0.511 0.207,-0.676 0.613,-0.646 1.991,-1.664 2.05,-1.708 0.177,-0.13 0.425,-0.092 0.554,0.084 0.13,0.176 0.092,0.425 -0.084,0.555 -0.009,0.006 -0.597,0.441 -1.16,0.907 0.694,-0.113 1.675,-0.208 2.976,-0.16 3.51,0.131 6.49,0.445 6.519,0.448 0.218,0.023 0.376,0.219 0.353,0.436 -0.022,0.203 -0.194,0.354 -0.395,0.354 z"
     id="path63"
     inkscape:connector-curvature="0"
     style="fill:#4e4e4e" /><path
     d="m 7.4323787,51.105 c -0.141,0 -0.277,-0.075 -0.349,-0.208 -0.024,-0.045 -0.596,-1.109 -0.77,-2.188 -0.154,-0.953 -0.422,-1.541 -1.339,-1.724 -1.131,-0.226 -3.424,-0.539 -3.447,-0.542 -0.09,-0.012 -0.173,-0.054 -0.235,-0.121 0,0 -0.29599999,-0.316 -0.39299999,-0.444 -0.102,-0.135 -0.384,-0.596 -0.384,-0.596 -0.079,-0.128 -0.078,-0.289 0.001,-0.417 0.079,-0.127 0.225,-0.197 0.373,-0.185 l 5.38899999,0.494 c 0.504,0.077 1.579,0.095 1.847,-0.315 0.37,-0.568 0.425,-1.268 0.473,-1.886 0.009,-0.109 0.017,-0.215 0.026,-0.315 0.059,-0.617 -0.153,-1.478 -0.155,-1.486 -0.051,-0.204 0.066,-0.412 0.267,-0.475 0.204,-0.063 0.415,0.043 0.489,0.239 0.023,0.061 0.56,1.517 0.542,3.802 -0.002,0.218 -0.179,0.394 -0.397,0.394 -10e-4,0 -0.002,0 -0.003,0 -0.161,-10e-4 -0.3,-0.099 -0.361,-0.237 -0.061,0.135 -0.133,0.268 -0.217,0.398 -0.618,0.948 -2.405,0.7 -2.608,0.669 l -4.524,-0.414 c 0.04,0.044 0.082,0.09 0.117,0.129 0.523,0.072 2.35,0.33 3.356,0.531 1.442,0.288 1.803,1.363 1.967,2.375 0.153,0.947 0.679,1.927 0.684,1.937 0.104,0.193 0.033,0.434 -0.16,0.538 -0.061,0.032 -0.126,0.047 -0.189,0.047 z"
     id="path65"
     inkscape:connector-curvature="0"
     style="fill:#4e4e4e" /><path
     d="m 8.8793787,48.503 -2.289,0 c -0.219,0 -0.397,-0.178 -0.397,-0.397 0,-0.219 0.178,-0.397 0.397,-0.397 l 2.289,0 c 0.219,0 0.397,0.178 0.397,0.397 0,0.219 -0.178,0.397 -0.397,0.397 z"
     id="path67"
     inkscape:connector-curvature="0"
     style="fill:#4e4e4e" /><path
     d="m 5.5453787,47.668 c -0.401,0 -0.981,-0.06 -1.809,-0.256 -1.859,-0.439 -2.382,-1.008 -2.469,-1.117 -0.135,-0.172 -0.105,-0.422 0.067,-0.557 0.17,-0.133 0.413,-0.106 0.55,0.057 0.023,0.024 0.469,0.474 2.035,0.845 1.562,0.369 2.054,0.189 2.059,0.188 0.194,-0.104 0.423,-0.026 0.526,0.167 0.104,0.193 0.021,0.439 -0.173,0.543 -0.08,0.043 -0.303,0.13 -0.786,0.13 z"
     id="path69"
     inkscape:connector-curvature="0"
     style="fill:#4e4e4e" /><path
     d="m 0.85237871,45.472 c -0.16,0 -0.311,-0.098 -0.371,-0.256 -0.006,-0.015 -0.146,-0.388 -0.313,-1.109 -0.119,-0.512 -0.239,-1.181 -0.118,-1.827 0.134,-0.716 0.509,-1.244 1.29499999,-1.822 1.007,-0.742 3.244,-0.79 5.457,-0.774 l 0.464,0.002 c 1.39,0 1.902,0.866 1.978,1.323 0.036,0.216 -0.11,0.421 -0.326,0.457 -0.21,0.036 -0.416,-0.107 -0.456,-0.32 -0.015,-0.074 -0.173,-0.666 -1.196,-0.666 l -0.47,-0.002 c -1.431,-0.01 -4.102,-0.028 -4.981,0.619 -0.71,0.523 -0.90299999,0.897 -0.98499999,1.329 -0.094,0.501 0.01,1.065 0.111,1.501 0.15399999,0.662 0.28099999,1.004 0.28299999,1.008 0.077,0.205 -0.027,0.434 -0.23099999,0.511 -0.047,0.018 -0.094,0.026 -0.141,0.026 z"
     id="path71"
     inkscape:connector-curvature="0"
     style="fill:#4e4e4e" /><path
     d="m 4.0293787,44.822 c -0.089,0 -0.165,-0.008 -0.211,-0.013 l -0.312,-0.031 c -1.237,-0.116 -2.60399999,-0.276 -3.18699999,-0.705 -0.176,-0.13 -0.214,-0.378 -0.084,-0.555 0.129,-0.176 0.377,-0.214 0.555,-0.084 0.45399999,0.335 2.15099999,0.494 2.78899999,0.554 0.132,0.012 0.243,0.023 0.326,0.032 0.046,0.005 0.084,0.007 0.114,0.008 -0.007,-0.027 -0.018,-0.059 -0.034,-0.099 -0.045,-0.117 -0.053,-0.138 -0.682,-0.277 -0.171,-0.038 -0.372,-0.082 -0.609,-0.141 -1.575,-0.389 -2.39499999,-0.785 -2.42899999,-0.801 -0.197,-0.096 -0.278,-0.333 -0.182,-0.53 0.096,-0.197 0.334,-0.278 0.53,-0.183 0.008,0.004 0.78799999,0.378 2.27199999,0.744 0.229,0.057 0.424,0.099 0.589,0.136 0.652,0.144 1.046,0.23 1.252,0.767 0.055,0.142 0.222,0.576 -0.031,0.903 -0.177,0.231 -0.459,0.275 -0.666,0.275 z"
     id="path73"
     inkscape:connector-curvature="0"
     style="fill:#4e4e4e" /><path
     d="m 5.7143787,43.342 c -1.489,0 -3.66,-0.723 -4.467,-1.012 -0.206,-0.074 -0.31399999,-0.301 -0.24,-0.507 0.073,-0.206 0.3,-0.314 0.507,-0.24 2.055,0.735 4.519,1.246 4.914,0.837 0.798,-0.829 1.302,-1.616 1.307,-1.624 0.117,-0.185 0.362,-0.239 0.548,-0.122 0.185,0.118 0.24,0.362 0.122,0.547 -0.022,0.035 -0.549,0.859 -1.405,1.749 -0.257,0.269 -0.723,0.372 -1.286,0.372 z"
     id="path75"
     inkscape:connector-curvature="0"
     style="fill:#4e4e4e" /><path
     d="m 7.3773787,45.472 c -0.028,0 -0.056,-0.003 -0.084,-0.009 -0.214,-0.046 -0.351,-0.257 -0.305,-0.471 l 0,0 c -0.001,0 0.054,-0.362 -0.22,-0.992 -0.262,-0.604 -0.449,-0.776 -0.481,-0.803 -0.175,-0.093 -0.257,-0.305 -0.183,-0.494 0.08,-0.204 0.311,-0.305 0.513,-0.226 0.16,0.062 0.486,0.301 0.878,1.206 0.38,0.875 0.28,1.416 0.268,1.475 -0.039,0.187 -0.204,0.314 -0.386,0.314 z"
     id="path77"
     inkscape:connector-curvature="0"
     style="fill:#4e4e4e" /><path
     d="m 29.118379,26.694 c -0.205,0 -0.378,-0.157 -0.395,-0.364 -0.018,-0.219 0.145,-0.41 0.363,-0.428 0.091,-0.007 9.158,-0.74 15.471,-0.74 l 5.092,0 c 0.22,0 0.397,0.178 0.397,0.397 0,0.219 -0.177,0.397 -0.397,0.397 l -5.092,0 c -6.281,0 -15.316,0.73 -15.407,0.737 -0.01,0 -0.021,10e-4 -0.032,10e-4 z"
     id="path79"
     inkscape:connector-curvature="0"
     style="fill:#4e4e4e" /><path
     d="m 29.340379,27.233 c -0.949,0 -1.454,-0.162 -1.647,-0.514 -0.136,-0.246 -0.066,-0.498 0.035,-0.639 0.127,-0.178 0.376,-0.22 0.554,-0.092 0.117,0.084 0.175,0.22 0.165,0.354 0.149,0.052 0.545,0.132 1.499,0.078 0.212,-0.014 0.406,0.154 0.419,0.373 0.012,0.219 -0.154,0.406 -0.373,0.419 -0.238,0.014 -0.455,0.021 -0.652,0.021 z"
     id="path81"
     inkscape:connector-curvature="0"
     style="fill:#4e4e4e" /><path
     d="m 28.601379,45.002 c -0.148,0 -0.289,-0.083 -0.357,-0.225 -0.049,-0.101 -1.187,-2.499 -1.119,-5.013 0.066,-2.42 0.531,-3.743 2.891,-4.256 1.487,-0.323 6.419,-1.162 7.443,1.64 0.888,2.43 0.413,5.748 -0.588,7.321 -0.117,0.185 -0.362,0.24 -0.548,0.122 -0.185,-0.118 -0.24,-0.363 -0.122,-0.548 0.881,-1.385 1.308,-4.446 0.512,-6.623 -0.639,-1.748 -3.916,-1.706 -6.53,-1.137 -1.735,0.377 -2.201,1.097 -2.266,3.502 -0.063,2.317 1.03,4.625 1.04,4.648 0.095,0.198 0.011,0.434 -0.186,0.529 -0.054,0.027 -0.112,0.04 -0.17,0.04 z"
     id="path83"
     inkscape:connector-curvature="0"
     style="fill:#4e4e4e" /><path
     d="m 7.8933787,84.043 c -1.203,0 -2.106,-0.318 -2.686,-0.945 -0.709,-0.767 -0.645,-1.706 -0.642,-1.745 0.017,-0.219 0.194,-0.389 0.427,-0.364 0.217,0.017 0.38,0.206 0.365,0.424 -0.002,0.027 -0.035,0.65 0.441,1.156 0.425,0.452 1.13,0.682 2.096,0.682 0.219,0 0.397,0.178 0.397,0.397 0,0.219 -0.179,0.395 -0.398,0.395 z"
     id="path85"
     inkscape:connector-curvature="0"
     style="fill:#4e4e4e" /><path
     d="m 15.035379,82.912 c -0.149,0 -0.292,-0.085 -0.36,-0.229 -0.058,-0.126 -0.041,-0.3 0.036,-0.415 0.167,-0.25 0.554,-0.835 11.548,-0.362 6.335,0.273 8.288,0.05 8.884,-0.098 -0.019,-0.084 -0.012,-0.174 0.027,-0.256 0.095,-0.198 0.324,-0.287 0.521,-0.192 0.303,0.145 0.456,0.411 0.389,0.677 -0.107,0.427 -0.271,1.072 -9.857,0.661 -8.898,-0.383 -10.592,-0.03 -10.886,0.071 -0.037,0.044 -0.083,0.08 -0.138,0.106 -0.051,0.025 -0.108,0.037 -0.164,0.037 z"
     id="path87"
     inkscape:connector-curvature="0"
     style="fill:#4e4e4e" /><path
     d="m 79.021379,88.11 c -2.047,0 -3.902,-0.287 -5.946,-0.603 -1.978,-0.306 -4.024,-0.622 -6.581,-0.739 -6.429,-0.293 -18.8,-0.243 -18.924,-0.242 -0.001,0 -0.001,0 -0.002,0 -0.219,0 -0.396,-0.176 -0.397,-0.395 -0.001,-0.219 0.176,-0.397 0.395,-0.399 0.124,-0.001 12.514,-0.052 18.963,0.243 2.6,0.119 4.76,0.453 6.666,0.747 2.953,0.457 5.504,0.852 8.798,0.38 2.163,-0.309 4.228,-0.331 5.887,-0.349 2.425,-0.026 4.34,-0.046 4.637,-0.938 0.583,-1.749 1.535,-11.266 1.435,-14.342 -0.024,-0.75 -0.035,-1.611 -0.046,-2.534 -0.034,-2.76 -0.075,-6.196 -0.543,-8.781 -0.646,-3.57 -1.518,-5.697 -3.011,-7.342 -0.549,-0.605 -0.893,-0.895 -1.169,-1.128 -0.595,-0.502 -0.896,-0.796 -1.797,-2.489 -0.533,-1.002 -0.732,-1.729 -0.985,-2.65 -0.423,-1.539 -1.002,-3.646 -3.612,-8.66 -2.147,-4.124 -4.035,-6.555 -5.498,-8.016 2.515,3.149 5.279,8.754 6.145,10.679 0.18,0.401 0.366,0.77 0.539,1.112 0.689,1.369 1.284,2.552 0.24,3.596 -0.909,0.909 -3.622,0.855 -7.069,0.69 -0.61,-0.029 -1.184,-0.057 -1.683,-0.069 -2.788,-0.07 -21.366,-0.24 -27.535,-0.24 -0.219,0 -0.397,-0.178 -0.397,-0.397 0,-0.219 0.178,-0.397 0.397,-0.397 6.173,0 24.764,0.17 27.554,0.24 0.504,0.013 1.084,0.041 1.702,0.07 2.285,0.11 5.736,0.275 6.47,-0.458 0.613,-0.613 0.324,-1.264 -0.387,-2.678 -0.177,-0.352 -0.368,-0.732 -0.553,-1.143 -0.868,-1.93 -3.668,-7.606 -6.161,-10.656 -2.272,-2.781 -3.612,-2.637 -3.627,-2.637 -0.18,0.027 -0.371,-0.083 -0.433,-0.261 -0.063,-0.178 0.002,-0.374 0.164,-0.471 0.087,-0.052 0.891,-0.492 2.175,0.188 1.095,0.579 4.425,2.342 8.663,10.482 2.649,5.088 3.241,7.243 3.673,8.816 0.249,0.908 0.429,1.564 0.921,2.488 0.866,1.63 1.114,1.839 1.608,2.255 0.294,0.248 0.66,0.557 1.245,1.202 1.601,1.765 2.53,4.005 3.204,7.734 0.479,2.651 0.522,6.123 0.555,8.913 0.011,0.917 0.022,1.772 0.046,2.518 0.096,2.956 -0.814,12.634 -1.475,14.619 -0.476,1.428 -2.534,1.45 -5.381,1.48 -1.721,0.018 -3.672,0.039 -5.783,0.341 -1.1,0.157 -2.116,0.221 -3.087,0.221 z"
     id="path89"
     inkscape:connector-curvature="0"
     style="fill:#4e4e4e" /><path
     d="m 73.684379,29.221 c -0.645,0 -1.643,-0.08 -3.213,-0.204 -1.089,-0.087 -2.428,-0.193 -4.051,-0.304 -6.72,-0.457 -18.079,-0.462 -18.193,-0.462 -0.219,0 -0.397,-0.178 -0.397,-0.397 0,-0.219 0.178,-0.397 0.397,-0.397 0.114,0 11.501,0.005 18.247,0.464 1.627,0.111 2.969,0.217 4.061,0.304 1.608,0.128 2.855,0.226 3.419,0.199 -0.755,-0.858 -1.605,-1.115 -3.157,-1.438 -1.152,-0.239 -2.623,-0.283 -3.317,-0.29 -0.01,0.023 -0.021,0.046 -0.034,0.069 -0.214,0.381 -0.776,0.512 -1.825,0.426 -2.269,-0.187 -11.208,-0.534 -15.671,-0.534 l -2.455,0 c -0.219,0 -0.397,-0.178 -0.397,-0.397 0,-0.219 0.178,-0.397 0.397,-0.397 l 2.455,0 c 4.479,0 13.456,0.349 15.736,0.536 0.585,0.048 0.87,0.01 1,-0.023 -0.017,-0.085 -0.006,-0.174 0.034,-0.254 0.066,-0.133 0.2,-0.217 0.348,-0.22 0.092,-0.001 2.247,-0.035 3.89,0.306 1.62,0.337 2.755,0.649 3.732,1.858 0.23,0.284 0.286,0.544 0.165,0.773 -0.144,0.274 -0.416,0.382 -1.171,0.382 z"
     id="path91"
     inkscape:connector-curvature="0"
     style="fill:#4e4e4e" /><path
     d="m 79.945379,45.322 c -0.387,0 -0.822,-0.034 -1.3,-0.071 -0.526,-0.041 -1.124,-0.088 -1.796,-0.106 -0.595,-0.015 -1.635,-0.029 -2.934,-0.046 -4.138,-0.055 -11.063,-0.147 -14.382,-0.451 -4.268,-0.391 -11.112,-0.559 -11.181,-0.56 l -0.237,0 c -0.219,0 -0.397,-0.178 -0.397,-0.397 0,-0.219 0.178,-0.397 0.397,-0.397 l 0.246,0 c 0.079,0.002 6.949,0.17 11.244,0.564 3.288,0.301 10.195,0.393 14.32,0.448 1.303,0.017 2.348,0.031 2.944,0.047 0.693,0.018 1.301,0.066 1.837,0.107 1.394,0.108 2.076,0.142 2.346,-0.286 0.459,-0.729 -0.266,-2.313 -1.182,-4.318 -1.047,-2.29 -4.151,-7.988 -4.955,-8.855 -0.781,-0.841 -0.988,-1.003 -2.87,-1.097 -0.775,-0.039 -2.424,-0.159 -4.333,-0.299 -2.96,-0.216 -6.316,-0.461 -7.252,-0.461 l -0.212,0 c -1.465,-10e-4 -2.076,0.018 -2.585,0.516 -0.127,0.123 -0.232,0.24 -0.33,0.347 -0.435,0.478 -0.812,0.89 -1.997,0.89 -0.648,0 -1.92,-0.043 -3.151,-0.085 -1.203,-0.041 -2.34,-0.08 -2.9,-0.08 l -2.175,0 c -0.219,0 -0.397,-0.178 -0.397,-0.397 0,-0.219 0.178,-0.397 0.397,-0.397 l 2.175,0 c 0.573,0 1.717,0.039 2.927,0.08 1.224,0.042 2.489,0.085 3.123,0.085 0.835,0 1.016,-0.198 1.411,-0.631 0.107,-0.117 0.223,-0.245 0.362,-0.38 0.762,-0.743 1.646,-0.743 3.141,-0.741 l 0.211,0 c 0.965,0 4.336,0.246 7.309,0.463 1.825,0.133 3.549,0.259 4.314,0.298 2.069,0.103 2.467,0.332 3.412,1.35 0.933,1.005 4.082,6.849 5.095,9.064 1.096,2.396 1.819,3.98 1.132,5.071 -0.36,0.577 -0.966,0.725 -1.777,0.725 z"
     id="path93"
     inkscape:connector-curvature="0"
     style="fill:#4e4e4e" /><path
     d="m 83.688379,58.105 c -0.018,0 -0.035,-10e-4 -0.053,-0.003 -0.217,-0.029 -0.37,-0.229 -0.341,-0.446 0.007,-0.056 0.738,-5.595 0.641,-8.962 -0.056,-1.952 -0.459,-2.587 -0.695,-2.792 -0.691,1.359 -3.541,6.782 -6.995,10.734 -0.144,0.165 -0.396,0.182 -0.559,0.037 -0.165,-0.144 -0.182,-0.395 -0.038,-0.56 3.889,-4.449 7.007,-10.813 7.038,-10.877 0.058,-0.119 0.172,-0.201 0.302,-0.219 0.063,-0.009 0.395,-0.037 0.756,0.268 0.603,0.51 0.934,1.649 0.985,3.386 0.099,3.431 -0.618,8.86 -0.648,9.089 -0.027,0.2 -0.197,0.345 -0.393,0.345 z"
     id="path95"
     inkscape:connector-curvature="0"
     style="fill:#4e4e4e" /><path
     d="m 49.519379,60.386 -1.951,0 c -0.219,0 -0.397,-0.178 -0.397,-0.397 0,-0.219 0.178,-0.397 0.397,-0.397 l 19.969,0 c 0.019,0 2.464,-0.042 6.48,-0.722 1.565,-0.265 3.24,-0.521 4.86,-0.768 2.595,-0.396 5.046,-0.77 6.49,-1.102 l 0.317,-0.073 c 1.867,-0.428 4.357,-1 5.279,-1.526 -0.182,-0.292 -0.572,-0.786 -1.311,-1.221 -1.399,-0.825 -1.776,-1.202 -2.265,-3.016 -0.37,-1.374 -0.619,-2.63 -0.884,-3.959 l -0.216,-1.075 c -0.043,-0.215 0.095,-0.424 0.31,-0.468 0.211,-0.042 0.424,0.095 0.468,0.309 l 0.216,1.078 c 0.262,1.316 0.509,2.559 0.872,3.908 0.438,1.628 0.706,1.834 1.901,2.538 1.397,0.824 1.776,1.851 1.792,1.894 0.054,0.15 0.012,0.317 -0.104,0.425 -0.718,0.661 -2.89,1.198 -5.881,1.884 l -0.316,0.073 c -1.472,0.338 -3.938,0.714 -6.548,1.113 -1.617,0.247 -3.29,0.502 -4.848,0.766 -4.082,0.691 -6.506,0.732 -6.607,0.733 l -18.023,0 z"
     id="path97"
     inkscape:connector-curvature="0"
     style="fill:#4e4e4e" /><path
     d="m 63.564379,71.456 c -0.176,0 -0.337,-0.119 -0.384,-0.298 -0.055,-0.212 0.073,-0.428 0.285,-0.483 2.358,-0.609 5.449,-0.898 8.721,-1.203 2.371,-0.221 4.823,-0.45 7.328,-0.817 0.934,-0.137 1.854,-0.259 2.746,-0.378 4.675,-0.622 8.714,-1.159 9.473,-3.203 0.532,-1.431 0.607,-2.829 0.57,-3.782 -0.627,0.614 -1.641,1.019 -2.878,1.514 -0.258,0.103 -0.528,0.211 -0.808,0.326 -1.462,0.602 -3.527,1.166 -5.348,1.663 -1.031,0.282 -2.005,0.547 -2.782,0.795 -1.979,0.63 -4.612,1.332 -5.909,1.104 -1.074,-0.19 -2.552,-0.16 -2.567,-0.159 -0.15,-0.006 -0.271,-0.068 -0.345,-0.187 -0.074,-0.119 -0.081,-0.268 -0.016,-0.392 0.005,-0.01 0.533,-1.034 1.118,-2.269 0.582,-1.229 1.468,-3.508 1.476,-3.531 0.08,-0.205 0.308,-0.306 0.513,-0.226 0.204,0.079 0.305,0.309 0.226,0.513 -0.037,0.094 -0.905,2.329 -1.499,3.584 -0.321,0.678 -0.626,1.294 -0.837,1.716 0.559,0.011 1.379,0.048 2.068,0.17 0.88,0.156 2.892,-0.239 5.53,-1.078 0.793,-0.252 1.774,-0.52 2.814,-0.804 1.8,-0.491 3.839,-1.048 5.256,-1.631 0.282,-0.116 0.554,-0.225 0.816,-0.33 1.891,-0.756 2.885,-1.195 3.043,-2.146 0.032,-0.188 0.193,-0.327 0.383,-0.331 0.182,-0.006 0.357,0.129 0.397,0.315 0.023,0.108 0.547,2.69 -0.476,5.443 -0.926,2.491 -4.98,3.03 -10.112,3.713 -0.887,0.118 -1.804,0.24 -2.735,0.377 -2.525,0.37 -4.987,0.6 -7.368,0.822 -3.24,0.302 -6.3,0.588 -8.597,1.181 -0.035,0.008 -0.069,0.012 -0.102,0.012 z"
     id="path99"
     inkscape:connector-curvature="0"
     style="fill:#4e4e4e" /><path
     d="m 84.696379,62.925 c -1.404,0 -2.546,-1.142 -2.546,-2.546 0,-1.404 1.142,-2.546 2.546,-2.546 1.404,0 2.546,1.142 2.546,2.546 0,0.35 -0.07,0.689 -0.208,1.008 -0.087,0.201 -0.322,0.293 -0.521,0.207 -0.201,-0.087 -0.294,-0.32 -0.207,-0.521 0.095,-0.219 0.143,-0.453 0.143,-0.693 0,-0.966 -0.786,-1.752 -1.752,-1.752 -0.966,0 -1.752,0.786 -1.752,1.752 0,0.966 0.786,1.752 1.752,1.752 0.219,0 0.397,0.178 0.397,0.397 0,0.219 -0.179,0.396 -0.398,0.396 z"
     id="path101"
     inkscape:connector-curvature="0"
     style="fill:#4e4e4e" /><path
     d="m 84.696379,62.251 c -1.032,0 -1.872,-0.84 -1.872,-1.872 0,-0.219 0.178,-0.397 0.397,-0.397 0.219,0 0.397,0.178 0.397,0.397 0,0.595 0.484,1.078 1.079,1.078 0.595,0 1.078,-0.484 1.078,-1.078 0,-0.594 -0.484,-1.078 -1.078,-1.078 -0.219,0 -0.397,-0.178 -0.397,-0.397 0,-0.219 0.178,-0.397 0.397,-0.397 1.032,0 1.872,0.84 1.872,1.872 -0.002,1.032 -0.841,1.872 -1.873,1.872 z"
     id="path103"
     inkscape:connector-curvature="0"
     style="fill:#4e4e4e" /><path
     d="m 78.429379,64.362 c -1.404,0 -2.546,-1.142 -2.546,-2.546 0,-1.404 1.142,-2.546 2.546,-2.546 1.404,0 2.546,1.142 2.546,2.546 0,0.35 -0.07,0.689 -0.208,1.008 -0.087,0.201 -0.322,0.294 -0.521,0.207 -0.201,-0.087 -0.294,-0.32 -0.207,-0.521 0.095,-0.219 0.143,-0.453 0.143,-0.693 0,-0.966 -0.786,-1.752 -1.752,-1.752 -0.966,0 -1.752,0.786 -1.752,1.752 0,0.966 0.786,1.752 1.752,1.752 0.219,0 0.397,0.178 0.397,0.397 0,0.219 -0.179,0.396 -0.398,0.396 z"
     id="path105"
     inkscape:connector-curvature="0"
     style="fill:#4e4e4e" /><path
     d="m 78.429379,63.688 c -1.032,0 -1.872,-0.84 -1.872,-1.872 0,-0.219 0.178,-0.397 0.397,-0.397 0.219,0 0.397,0.178 0.397,0.397 0,0.595 0.484,1.079 1.079,1.079 0.595,0 1.078,-0.484 1.078,-1.079 0,-0.595 -0.484,-1.078 -1.078,-1.078 -0.219,0 -0.397,-0.178 -0.397,-0.397 0,-0.219 0.178,-0.397 0.397,-0.397 1.032,0 1.872,0.84 1.872,1.872 -0.002,1.032 -0.841,1.872 -1.873,1.872 z"
     id="path107"
     inkscape:connector-curvature="0"
     style="fill:#4e4e4e" /><path
     d="m 77.588379,65.279 c -0.026,0 -0.053,-0.003 -0.08,-0.008 -0.905,-0.183 -2.592,-1.105 -2.502,-3.282 0.107,-2.624 2.053,-3.562 2.136,-3.6 0.198,-0.093 0.434,-0.007 0.527,0.192 0.092,0.198 0.007,0.433 -0.19,0.526 l 0,0 c -0.065,0.031 -1.593,0.786 -1.681,2.914 -0.084,2.036 1.789,2.455 1.869,2.472 0.214,0.045 0.352,0.255 0.308,0.469 -0.038,0.188 -0.203,0.317 -0.387,0.317 z"
     id="path109"
     inkscape:connector-curvature="0"
     style="fill:#4e4e4e" /><path
     d="m 75.668379,66.086 c -0.387,0 -0.72,-0.051 -1.047,-0.1 -0.206,-0.031 -0.412,-0.063 -0.633,-0.079 -0.729,-0.055 -0.954,0.009 -0.963,0.012 -0.199,0.085 -0.422,-0.011 -0.508,-0.213 -0.086,-0.201 0.02,-0.439 0.221,-0.526 0.096,-0.042 0.417,-0.13 1.31,-0.064 0.242,0.018 0.467,0.052 0.693,0.086 0.59,0.089 1.15,0.175 2.048,-0.073 l 0.755,-0.204 c 2.165,-0.583 7.235,-1.95 9.689,-2.891 l 0.524,-0.201 c 2.352,-0.9 2.911,-1.114 3.62,-1.908 0.503,-0.563 0.344,-2.293 0.124,-3.251 -0.049,-0.214 0.085,-0.426 0.299,-0.475 0.215,-0.049 0.427,0.084 0.475,0.298 0.067,0.295 0.63,2.908 -0.306,3.956 -0.837,0.938 -1.492,1.188 -3.929,2.121 l -0.523,0.2 c -2.492,0.956 -7.589,2.33 -9.766,2.917 l -0.751,0.203 c -0.525,0.143 -0.954,0.192 -1.332,0.192 z"
     id="path111"
     inkscape:connector-curvature="0"
     style="fill:#4e4e4e" /><path
     d="m 53.983379,69.445 -5.961,0 c -0.219,0 -0.397,-0.178 -0.397,-0.397 0,-0.219 0.178,-0.397 0.397,-0.397 l 5.961,0 c 1.74,0 5.36,0 9.806,-1.757 4.309,-1.704 7.508,-4.009 8.088,-4.821 0.612,-0.856 1.121,-2.778 1.126,-2.797 0.056,-0.212 0.276,-0.338 0.485,-0.283 0.212,0.056 0.339,0.273 0.283,0.485 -0.022,0.085 -0.553,2.083 -1.248,3.057 -0.716,1.002 -4.134,3.394 -8.442,5.097 -4.043,1.598 -7.373,1.813 -10.098,1.813 z"
     id="path113"
     inkscape:connector-curvature="0"
     style="fill:#4e4e4e" /><path
     d="m 51.083379,68.355 c -0.107,0 -0.167,-0.001 -0.181,-0.001 l -3.068,0 c -0.219,0 -0.397,-0.178 -0.397,-0.397 0,-0.219 0.178,-0.397 0.397,-0.397 l 3.075,0 c 0.026,0 2.234,0.028 6.846,-0.329 4.578,-0.355 6.665,-1.87 8.684,-3.335 1.932,-1.402 3.677,-4.301 3.695,-4.33 0.113,-0.188 0.354,-0.249 0.544,-0.137 0.188,0.112 0.25,0.356 0.137,0.544 -0.074,0.125 -1.844,3.067 -3.903,4.561 -2.016,1.463 -4.294,3.117 -9.096,3.489 -3.964,0.306 -6.122,0.332 -6.733,0.332 z"
     id="path115"
     inkscape:connector-curvature="0"
     style="fill:#4e4e4e" /><path
     d="m 47.833379,73.115 c -0.215,0 -0.392,-0.171 -0.397,-0.387 -0.005,-0.219 0.168,-0.401 0.387,-0.406 0.041,-0.001 4.117,-0.105 9.462,-0.604 5.405,-0.505 6.085,-0.629 8.652,-2.65 0.969,-0.763 2.183,-1.793 3.327,-2.788 -1.155,0.71 -2.383,1.441 -3.453,2.027 -3.652,1.998 -7.362,2.296 -9.249,2.296 l -8.728,0 c -0.219,0 -0.397,-0.178 -0.397,-0.397 0,-0.219 0.178,-0.397 0.397,-0.397 l 8.728,0 c 1.811,0 5.372,-0.286 8.868,-2.199 3.091,-1.691 7.532,-4.62 7.576,-4.65 0.174,-0.114 0.404,-0.076 0.532,0.088 0.127,0.163 0.107,0.397 -0.046,0.537 -0.044,0.04 -4.438,4.038 -7.064,6.106 -2.758,2.172 -3.723,2.317 -9.068,2.816 -5.374,0.502 -9.475,0.607 -9.516,0.608 -0.005,0 -0.008,0 -0.011,0 z"
     id="path117"
     inkscape:connector-curvature="0"
     style="fill:#4e4e4e" /><path
     d="m 53.751379,66.085 -1.686,0 c -0.219,0 -0.397,-0.178 -0.397,-0.397 0,-0.219 0.178,-0.397 0.397,-0.397 l 1.538,0 0.781,-0.676 c 0.072,-0.063 0.164,-0.097 0.26,-0.097 l 1.931,0 0.801,-0.62 c 0.069,-0.054 0.155,-0.083 0.243,-0.083 l 1.97,0 0.969,-0.826 c 0.072,-0.061 0.163,-0.095 0.257,-0.095 l 1.605,0 1.273,-1.209 c 0.159,-0.151 0.41,-0.145 0.561,0.015 0.151,0.159 0.144,0.41 -0.014,0.561 l -1.389,1.318 c -0.074,0.07 -0.172,0.109 -0.273,0.109 l -1.617,0 -0.969,0.826 c -0.072,0.061 -0.163,0.095 -0.257,0.095 l -1.98,0 -0.802,0.62 c -0.069,0.054 -0.155,0.083 -0.243,0.083 l -1.919,0 -0.781,0.676 c -0.071,0.063 -0.163,0.097 -0.259,0.097 z"
     id="path119"
     inkscape:connector-curvature="0"
     style="fill:#4e4e4e" /><path
     d="m 63.625379,83.925 -15.494,0 c -0.219,0 -0.397,-0.178 -0.397,-0.397 0,-0.219 0.178,-0.397 0.397,-0.397 l 15.495,0 c 5.512,0 9.213,-0.391 11.915,-0.676 0.777,-0.082 1.462,-0.154 2.07,-0.204 l 0.71,-0.059 c 2.147,-0.179 2.724,-0.227 3.422,0.121 0.417,0.208 0.562,0.207 1.752,0.134 0.308,-0.019 0.68,-0.042 1.137,-0.065 2.871,-0.144 4.935,-0.365 5.814,-0.624 0.524,-0.154 0.501,-0.778 0.328,-2.068 -0.038,-0.285 -0.077,-0.576 -0.103,-0.866 -0.178,-1.984 -0.699,-3.21 -1.595,-3.751 -1.006,-0.607 -1.695,-0.515 -2.838,-0.363 -0.16,0.021 -0.327,0.043 -0.503,0.065 -0.252,0.03 -6.239,0.76 -12.21,1.826 -4.558,0.813 -6.736,1.954 -7.087,2.227 -0.073,0.084 -0.18,0.137 -0.3,0.137 l -3.427,0 c -0.219,0 -0.397,-0.178 -0.397,-0.397 0,-0.219 0.178,-0.397 0.397,-0.397 l 3.343,0 c 0.877,-0.661 3.55,-1.677 7.332,-2.352 5.993,-1.07 12.001,-1.802 12.255,-1.833 0.172,-0.021 0.336,-0.043 0.493,-0.064 1.179,-0.157 2.108,-0.281 3.353,0.47 1.128,0.681 1.773,2.107 1.975,4.36 0.025,0.278 0.063,0.558 0.099,0.831 0.162,1.205 0.345,2.571 -0.89,2.935 -1.201,0.353 -3.925,0.551 -5.999,0.655 -0.453,0.023 -0.821,0.045 -1.128,0.064 -1.209,0.074 -1.535,0.094 -2.155,-0.216 -0.485,-0.243 -0.896,-0.217 -3.002,-0.041 l -0.711,0.059 c -0.603,0.049 -1.281,0.121 -2.051,0.202 -2.72,0.291 -6.445,0.684 -12,0.684 z"
     id="path121"
     inkscape:connector-curvature="0"
     style="fill:#4e4e4e" /><path
     d="m 91.161379,82.007 c -0.076,0 -0.154,-0.022 -0.222,-0.068 -0.181,-0.123 -0.229,-0.37 -0.106,-0.551 0.076,-0.163 -0.127,-0.893 -0.261,-1.376 l -0.065,-0.235 c -0.055,-0.2 -0.105,-0.43 -0.159,-0.68 -0.182,-0.842 -0.409,-1.891 -1.079,-2.805 -0.817,-1.116 -1.794,-1.019 -3.921,-0.691 -0.307,0.047 -0.631,0.097 -0.972,0.144 -2.457,0.339 -8.036,1.257 -12.702,2.091 -4.34,0.776 -5.909,2.459 -5.924,2.475 -0.145,0.162 -0.397,0.176 -0.559,0.029 -0.162,-0.146 -0.177,-0.395 -0.032,-0.558 0.069,-0.077 1.732,-1.898 6.376,-2.728 4.752,-0.849 10.227,-1.751 12.733,-2.096 0.337,-0.046 0.656,-0.096 0.959,-0.142 2.057,-0.317 3.546,-0.546 4.683,1.006 0.769,1.051 1.026,2.239 1.214,3.107 0.051,0.235 0.097,0.45 0.149,0.637 l 0.065,0.233 c 0.259,0.93 0.446,1.603 0.154,2.034 -0.079,0.113 -0.204,0.174 -0.331,0.174 z"
     id="path123"
     inkscape:connector-curvature="0"
     style="fill:#4e4e4e" /><path
     d="m 89.654379,81.677 c -0.124,0 -0.247,-0.058 -0.324,-0.168 -0.027,-0.038 -0.652,-0.943 -0.579,-2.169 0.072,-1.189 -0.269,-1.932 -1.139,-2.484 -1.158,-0.735 -2.73,-0.512 -3.844,-0.196 -2.021,0.573 -4.403,1 -7.078,1.269 -1.234,0.124 -2.286,0.171 -3.305,0.217 -1.683,0.075 -3.137,0.14 -4.853,0.538 -0.215,0.048 -0.427,-0.083 -0.476,-0.297 -0.05,-0.213 0.083,-0.427 0.297,-0.476 1.787,-0.415 3.275,-0.481 4.996,-0.558 1.007,-0.045 2.049,-0.091 3.261,-0.213 2.629,-0.265 4.964,-0.683 6.941,-1.243 1.821,-0.517 3.373,-0.417 4.486,0.289 1.467,0.931 1.562,2.273 1.506,3.202 -0.057,0.941 0.431,1.66 0.436,1.667 0.124,0.18 0.08,0.427 -0.099,0.552 -0.068,0.047 -0.147,0.07 -0.226,0.07 z"
     id="path125"
     inkscape:connector-curvature="0"
     style="fill:#4e4e4e" /><path
     d="m 84.057379,81.435 c -3.067,0 -3.861,-1.041 -4.211,-1.947 -0.016,-0.042 -0.028,-0.077 -0.042,-0.103 -0.064,-0.085 -0.085,-0.184 -0.069,-0.289 0.016,-0.105 0.08,-0.191 0.166,-0.253 0.006,-0.004 0.567,-0.41 1.463,-1.227 0.965,-0.88 3.94,-1.959 6.443,-0.466 0.189,0.112 0.25,0.356 0.138,0.544 -0.113,0.188 -0.356,0.249 -0.544,0.137 -2.193,-1.307 -4.79,-0.278 -5.503,0.371 -0.579,0.528 -1.02,0.888 -1.277,1.09 0.191,0.466 0.706,1.35 3.435,1.35 3.436,0 4.772,-1.616 4.785,-1.632 0.137,-0.17 0.387,-0.199 0.556,-0.064 0.171,0.135 0.201,0.383 0.067,0.554 -0.06,0.079 -1.555,1.935 -5.407,1.935 z"
     id="path127"
     inkscape:connector-curvature="0"
     style="fill:#4e4e4e" /><path
     d="m 87.694379,78.694 c -0.129,0 -0.255,-0.063 -0.331,-0.178 -0.539,-0.814 -1.954,-1.235 -2.454,-1.329 -0.215,-0.04 -0.357,-0.248 -0.317,-0.463 0.04,-0.215 0.251,-0.359 0.463,-0.317 0.087,0.016 2.137,0.413 2.969,1.671 0.121,0.183 0.071,0.429 -0.112,0.55 -0.067,0.045 -0.143,0.066 -0.218,0.066 z"
     id="path129"
     inkscape:connector-curvature="0"
     style="fill:#4e4e4e" /><path
     d="m 83.240379,81.405 c -0.219,0 -0.397,-0.178 -0.397,-0.397 0,-0.219 0.178,-0.397 0.397,-0.397 3.257,0 3.835,-1.491 3.858,-1.554 0.073,-0.204 0.299,-0.313 0.503,-0.243 0.205,0.071 0.316,0.29 0.249,0.496 -0.028,0.086 -0.732,2.095 -4.61,2.095 z"
     id="path131"
     inkscape:connector-curvature="0"
     style="fill:#4e4e4e" /><path
     d="m 59.790379,82.118 -11.659,0 c -0.219,0 -0.397,-0.178 -0.397,-0.397 0,-0.219 0.178,-0.397 0.397,-0.397 l 11.66,0 c 5.734,0 8.442,-0.483 11.387,-1.115 1.524,-0.327 2.487,-0.528 3.296,-0.697 0.879,-0.184 1.578,-0.33 2.622,-0.559 0.663,-0.146 1.084,-0.365 1.351,-0.579 -0.521,0.101 -1.245,0.22 -2.149,0.316 -0.471,0.05 -0.943,0.086 -1.402,0.12 -1.37,0.103 -2.664,0.201 -3.426,0.669 -1.087,0.668 -2.97,1.197 -5.303,1.489 -2.116,0.264 -17.089,0.289 -17.725,0.29 l -0.001,0 c -0.219,0 -0.396,-0.177 -0.397,-0.396 -10e-4,-0.219 0.177,-0.397 0.396,-0.397 0.155,0 15.56,-0.025 17.628,-0.283 2.223,-0.278 3.994,-0.767 4.986,-1.377 0.925,-0.569 2.313,-0.674 3.782,-0.784 0.451,-0.034 0.915,-0.069 1.378,-0.118 1.875,-0.2 2.964,-0.505 2.975,-0.508 0.127,-0.036 0.262,-0.007 0.363,0.077 0.101,0.084 0.153,0.213 0.141,0.343 -0.006,0.058 -0.165,1.417 -2.425,1.914 -1.048,0.23 -1.748,0.377 -2.63,0.561 -0.808,0.169 -1.769,0.369 -3.292,0.696 -2.994,0.641 -5.743,1.132 -11.556,1.132 z"
     id="path133"
     inkscape:connector-curvature="0"
     style="fill:#4e4e4e" /><path
     d="m 62.261379,79.694 -14.13,0 c -0.219,0 -0.397,-0.178 -0.397,-0.397 0,-0.219 0.178,-0.397 0.397,-0.397 l 14.13,0 c 0.029,0 0.053,-0.024 0.053,-0.053 l 0,-5.679 c 0,-0.029 -0.024,-0.053 -0.053,-0.053 l -14.13,0 c -0.219,0 -0.397,-0.178 -0.397,-0.397 0,-0.219 0.178,-0.397 0.397,-0.397 l 14.13,0 c 0.467,0 0.847,0.38 0.847,0.847 l 0,5.679 c -10e-4,0.467 -0.38,0.847 -0.847,0.847 z"
     id="path135"
     inkscape:connector-curvature="0"
     style="fill:#4e4e4e" /><path
     d="m 61.699379,79.141 -14.13,0 c -0.219,0 -0.397,-0.178 -0.397,-0.397 0,-0.219 0.178,-0.397 0.397,-0.397 l 14.13,0 c 0.029,0 0.053,-0.024 0.053,-0.053 l 0,-4.882 c 0,-0.219 0.178,-0.397 0.397,-0.397 0.219,0 0.397,0.178 0.397,0.397 l 0,4.882 c -0.001,0.467 -0.38,0.847 -0.847,0.847 z"
     id="path137"
     inkscape:connector-curvature="0"
     style="fill:#4e4e4e" /><path
     d="m 49.321379,66.998 -1.389,0 c -0.219,0 -0.397,-0.178 -0.397,-0.397 0,-0.219 0.178,-0.397 0.397,-0.397 l 1.389,0 c 0.324,0 0.792,-0.126 1.119,-1.217 0,0 0,0 0,0 -10e-4,0 0.373,-1.635 0.426,-2.171 0.023,-0.244 -0.062,-0.487 -0.241,-0.684 -0.216,-0.238 -0.539,-0.38 -0.864,-0.38 l -1.928,0 c -0.219,0 -0.397,-0.178 -0.397,-0.397 0,-0.219 0.178,-0.397 0.397,-0.397 l 1.928,0 c 0.545,0 1.087,0.239 1.452,0.64 0.331,0.364 0.488,0.824 0.443,1.294 -0.057,0.589 -0.432,2.228 -0.448,2.297 -0.362,1.21 -0.995,1.809 -1.887,1.809 z"
     id="path139"
     inkscape:connector-curvature="0"
     style="fill:#4e4e4e" /><path
     d="m 70.473379,57.785 c -0.075,0 -0.15,-0.021 -0.217,-0.065 -0.183,-0.12 -0.234,-0.367 -0.114,-0.549 2.67,-4.057 5.403,-11.726 5.431,-11.803 0.073,-0.206 0.3,-0.315 0.507,-0.242 0.206,0.073 0.315,0.3 0.241,0.507 -0.113,0.318 -2.794,7.837 -5.515,11.974 -0.077,0.115 -0.204,0.178 -0.333,0.178 z"
     id="path141"
     inkscape:connector-curvature="0"
     style="fill:#4e4e4e" /><path
     d="m 82.090379,45.97 c -0.162,0 -0.315,-0.1 -0.373,-0.262 -0.075,-0.206 0.032,-0.433 0.238,-0.508 0.544,-0.197 0.901,-0.475 1.061,-0.826 0.179,-0.393 0.08,-0.829 -0.035,-1.125 -0.328,-0.85 -1.199,-3.106 -3.439,-7.25 -2.163,-4.002 -4.998,-7.749 -5.026,-7.787 -0.132,-0.175 -0.098,-0.423 0.076,-0.556 0.175,-0.133 0.424,-0.098 0.556,0.076 0.028,0.038 2.899,3.832 5.092,7.889 2.264,4.188 3.148,6.479 3.481,7.341 0.243,0.628 0.249,1.23 0.017,1.74 -0.252,0.552 -0.76,0.97 -1.513,1.243 -0.044,0.018 -0.09,0.025 -0.135,0.025 z"
     id="path143"
     inkscape:connector-curvature="0"
     style="fill:#4e4e4e" /><path
     d="m 68.890379,84.707 c -1.84,0 -3.344,-0.028 -4.046,-0.055 -0.208,-0.008 -0.596,-0.022 -0.599,-0.411 -0.003,-0.396 -0.003,-0.396 1.583,-0.48 2.725,-0.144 9.108,-0.481 15.677,-1.484 0.215,-0.032 0.419,0.116 0.452,0.332 0.033,0.217 -0.116,0.419 -0.332,0.452 -1.653,0.252 -3.294,0.463 -4.868,0.639 0.181,-0.012 0.36,-0.025 0.535,-0.038 2.058,-0.156 4.039,-0.195 5.954,-0.233 2.23,-0.044 4.337,-0.086 6.569,-0.295 2.015,-0.189 2.856,-0.764 3.207,-1.213 0.332,-0.424 0.279,-0.8 0.277,-0.815 -0.033,-0.214 0.112,-0.418 0.325,-0.454 0.21,-0.036 0.416,0.101 0.456,0.314 0.013,0.071 0.116,0.717 -0.407,1.41 -0.642,0.852 -1.915,1.373 -3.784,1.548 -2.262,0.212 -4.481,0.256 -6.628,0.299 -1.905,0.038 -3.874,0.077 -5.91,0.231 -2.606,0.197 -5.867,0.253 -8.461,0.253 z"
     id="path145"
     inkscape:connector-curvature="0"
     style="fill:#4e4e4e" /><path
     d="m 83.781379,96.876 c -1.329,0 -3.446,-0.577 -4.032,-2.868 -0.667,-2.606 -0.842,-6.13 -0.849,-6.278 -0.01,-0.219 0.158,-0.405 0.377,-0.415 0.211,-0.01 0.405,0.158 0.415,0.377 0.002,0.036 0.179,3.593 0.825,6.12 0.654,2.558 3.548,2.264 3.671,2.25 l 3.152,-0.002 c 2.381,0 3.702,-1.003 4.158,-3.157 0.534,-2.525 0.894,-6.73 0.897,-6.772 0.019,-0.219 0.216,-0.375 0.429,-0.362 0.218,0.019 0.38,0.211 0.362,0.429 -0.014,0.174 -0.367,4.296 -0.912,6.87 -0.539,2.547 -2.153,3.786 -4.934,3.786 l -3.108,0 c -0.134,0.014 -0.287,0.022 -0.451,0.022 z"
     id="path147"
     inkscape:connector-curvature="0"
     style="fill:#4e4e4e" /><path
     d="m 69.607379,81.33 c -0.2,0 -0.372,-0.151 -0.394,-0.355 -0.023,-0.218 0.135,-0.413 0.353,-0.436 0.029,-0.003 3.009,-0.317 6.519,-0.449 1.301,-0.047 2.283,0.048 2.977,0.16 -0.564,-0.466 -1.152,-0.9 -1.161,-0.907 -0.177,-0.13 -0.214,-0.378 -0.084,-0.555 0.129,-0.176 0.378,-0.215 0.554,-0.084 0.059,0.043 1.438,1.061 2.05,1.708 0.157,0.165 0.371,0.392 0.207,0.676 -0.166,0.283 -0.455,0.213 -0.762,0.138 -0.515,-0.126 -1.725,-0.421 -3.751,-0.344 -3.482,0.13 -6.436,0.441 -6.465,0.445 -0.014,0.003 -0.029,0.003 -0.043,0.003 z"
     id="path149"
     inkscape:connector-curvature="0"
     style="fill:#4e4e4e" /><path
     d="m 88.762379,51.109 c -0.064,0 -0.129,-0.016 -0.189,-0.048 -0.193,-0.104 -0.264,-0.345 -0.161,-0.538 0.006,-0.01 0.533,-0.993 0.685,-1.937 0.163,-1.013 0.525,-2.087 1.967,-2.375 1.005,-0.201 2.833,-0.459 3.356,-0.531 0.036,-0.039 0.077,-0.084 0.117,-0.128 l -4.548,0.417 c -0.178,0.028 -1.967,0.274 -2.583,-0.673 -0.085,-0.13 -0.157,-0.263 -0.217,-0.398 -0.061,0.139 -0.199,0.236 -0.361,0.238 -0.001,0 -0.002,0 -0.003,0 -0.217,0 -0.395,-0.176 -0.397,-0.394 -0.018,-2.286 0.519,-3.742 0.542,-3.803 0.073,-0.197 0.286,-0.303 0.489,-0.239 0.201,0.063 0.318,0.271 0.267,0.475 -0.002,0.009 -0.214,0.87 -0.155,1.486 0.009,0.101 0.018,0.206 0.026,0.315 0.048,0.618 0.103,1.318 0.473,1.886 0.27,0.412 1.345,0.393 1.822,0.319 l 5.414,-0.497 c 0.149,-0.011 0.294,0.058 0.373,0.185 0.079,0.128 0.08,0.289 0.001,0.417 0,0 -0.283,0.461 -0.384,0.595 -0.097,0.129 -0.393,0.445 -0.393,0.445 -0.063,0.066 -0.145,0.108 -0.235,0.121 -0.023,0.003 -2.316,0.316 -3.447,0.542 -0.917,0.183 -1.186,0.771 -1.339,1.724 -0.174,1.079 -0.746,2.143 -0.77,2.188 -0.073,0.133 -0.209,0.208 -0.35,0.208 z"
     id="path151"
     inkscape:connector-curvature="0"
     style="fill:#4e4e4e" /><path
     d="m 89.604379,48.507 -2.289,0 c -0.219,0 -0.397,-0.178 -0.397,-0.397 0,-0.219 0.178,-0.397 0.397,-0.397 l 2.289,0 c 0.219,0 0.397,0.178 0.397,0.397 0,0.219 -0.178,0.397 -0.397,0.397 z"
     id="path153"
     inkscape:connector-curvature="0"
     style="fill:#4e4e4e" /><path
     d="m 90.649379,47.672 c -0.483,0 -0.706,-0.087 -0.787,-0.131 -0.193,-0.104 -0.265,-0.345 -0.161,-0.537 0.104,-0.193 0.344,-0.264 0.537,-0.161 -0.004,-0.001 0.079,0.036 0.401,0.036 0.314,0 0.834,-0.045 1.635,-0.235 1.602,-0.379 2.032,-0.841 2.036,-0.845 0.143,-0.16 0.391,-0.182 0.555,-0.044 0.164,0.138 0.193,0.376 0.061,0.544 -0.086,0.11 -0.61,0.678 -2.469,1.117 -0.827,0.196 -1.407,0.256 -1.808,0.256 z"
     id="path155"
     inkscape:connector-curvature="0"
     style="fill:#4e4e4e" /><path
     d="m 95.341379,45.476 c -0.046,0 -0.094,-0.008 -0.14,-0.026 -0.205,-0.077 -0.308,-0.306 -0.231,-0.511 0.002,-0.003 0.129,-0.345 0.283,-1.008 0.101,-0.436 0.205,-1.001 0.111,-1.501 -0.081,-0.433 -0.274,-0.806 -0.985,-1.33 -0.88,-0.647 -3.551,-0.63 -4.982,-0.619 l -0.469,0.002 c -1.073,0 -1.194,0.654 -1.195,0.66 -0.036,0.216 -0.244,0.36 -0.457,0.326 -0.216,-0.036 -0.362,-0.24 -0.326,-0.457 0.076,-0.458 0.588,-1.323 1.978,-1.323 l 0.464,-0.002 c 2.208,-0.012 4.45,0.033 5.458,0.774 0.785,0.578 1.16,1.106 1.295,1.822 0.121,0.645 10e-4,1.315 -0.118,1.827 -0.167,0.721 -0.307,1.093 -0.313,1.109 -0.062,0.159 -0.213,0.257 -0.373,0.257 z"
     id="path157"
     inkscape:connector-curvature="0"
     style="fill:#4e4e4e" /><path
     d="m 92.164379,44.826 c -0.207,0 -0.489,-0.044 -0.667,-0.276 -0.253,-0.327 -0.086,-0.76 -0.031,-0.903 0.186,-0.483 0.513,-0.531 0.927,-0.592 0.24,-0.035 0.569,-0.084 1.063,-0.212 1.37,-0.355 1.985,-0.687 1.991,-0.691 0.191,-0.105 0.433,-0.036 0.538,0.156 0.106,0.191 0.037,0.432 -0.154,0.538 -0.027,0.015 -0.693,0.38 -2.176,0.765 -0.535,0.139 -0.903,0.193 -1.147,0.229 -0.111,0.016 -0.236,0.035 -0.286,0.051 -0.001,0.006 -0.008,0.02 -0.015,0.041 -0.016,0.04 -0.026,0.073 -0.034,0.099 0.03,-10e-4 0.068,-0.003 0.114,-0.008 0.083,-0.009 0.194,-0.02 0.326,-0.032 0.638,-0.06 2.336,-0.22 2.789,-0.554 0.178,-0.13 0.426,-0.092 0.555,0.084 0.13,0.176 0.092,0.425 -0.084,0.555 -0.583,0.429 -1.95,0.589 -3.187,0.705 l -0.312,0.031 c -0.045,0.006 -0.12,0.014 -0.21,0.014 z"
     id="path159"
     inkscape:connector-curvature="0"
     style="fill:#4e4e4e" /><path
     d="m 90.479379,43.346 c -0.563,0 -1.028,-0.103 -1.287,-0.372 -0.855,-0.889 -1.382,-1.714 -1.404,-1.749 -0.118,-0.185 -0.063,-0.43 0.122,-0.547 0.185,-0.117 0.43,-0.063 0.548,0.122 0.005,0.008 0.509,0.795 1.306,1.624 0.396,0.409 2.859,-0.101 4.914,-0.837 0.207,-0.074 0.433,0.033 0.507,0.24 0.074,0.206 -0.034,0.433 -0.24,0.507 -0.806,0.289 -2.976,1.012 -4.466,1.012 z"
     id="path161"
     inkscape:connector-curvature="0"
     style="fill:#4e4e4e" /><path
     d="m 88.814379,45.472 c -0.182,0 -0.345,-0.124 -0.385,-0.309 -0.012,-0.059 -0.112,-0.599 0.268,-1.474 0.393,-0.906 0.719,-1.145 0.878,-1.207 0.202,-0.078 0.434,0.021 0.513,0.226 0.073,0.189 -0.008,0.401 -0.183,0.494 -0.032,0.026 -0.219,0.199 -0.48,0.803 -0.275,0.634 -0.219,0.996 -0.219,1 0.036,0.213 -0.104,0.419 -0.316,0.46 -0.024,0.004 -0.05,0.007 -0.076,0.007 z"
     id="path163"
     inkscape:connector-curvature="0"
     style="fill:#4e4e4e" /><path
     d="m 67.075379,26.698 c -0.011,0 -0.022,-0.001 -0.033,-0.001 -0.091,-0.007 -9.127,-0.737 -15.407,-0.737 l -5.092,0 c -0.22,0 -0.397,-0.178 -0.397,-0.397 0,-0.219 0.177,-0.397 0.397,-0.397 l 5.092,0 c 6.313,0 15.38,0.732 15.471,0.739 0.219,0.018 0.381,0.209 0.363,0.428 -0.016,0.208 -0.189,0.365 -0.394,0.365 z"
     id="path165"
     inkscape:connector-curvature="0"
     style="fill:#4e4e4e" /><path
     d="m 66.852379,27.237 c -0.197,0 -0.413,-0.007 -0.649,-0.021 -0.219,-0.012 -0.386,-0.2 -0.373,-0.419 0.013,-0.219 0.199,-0.391 0.419,-0.373 0.957,0.055 1.351,-0.026 1.501,-0.079 -0.01,-0.137 0.051,-0.275 0.172,-0.358 0.178,-0.121 0.419,-0.08 0.546,0.096 0.101,0.141 0.17,0.393 0.035,0.639 -0.196,0.354 -0.701,0.515 -1.651,0.515 z"
     id="path167"
     inkscape:connector-curvature="0"
     style="fill:#4e4e4e" /><path
     d="m 67.593379,45.006 c -0.058,0 -0.116,-0.013 -0.172,-0.039 -0.197,-0.095 -0.281,-0.332 -0.186,-0.529 0.011,-0.023 1.103,-2.331 1.04,-4.648 -0.065,-2.405 -0.531,-3.125 -2.266,-3.502 -2.614,-0.569 -5.891,-0.611 -6.53,1.137 -0.796,2.178 -0.368,5.239 0.512,6.623 0.118,0.185 0.063,0.43 -0.122,0.548 -0.185,0.118 -0.43,0.063 -0.548,-0.122 -1.001,-1.573 -1.476,-4.891 -0.588,-7.321 1.023,-2.801 5.956,-1.963 7.443,-1.64 2.361,0.513 2.826,1.836 2.891,4.256 0.068,2.514 -1.07,4.912 -1.119,5.013 -0.066,0.141 -0.208,0.224 -0.355,0.224 z"
     id="path169"
     inkscape:connector-curvature="0"
     style="fill:#4e4e4e" /><path
     d="m 88.301379,84.047 c -0.219,0 -0.397,-0.178 -0.397,-0.397 0,-0.219 0.178,-0.397 0.397,-0.397 0.972,0 1.68,-0.232 2.103,-0.69 0.469,-0.506 0.433,-1.139 0.433,-1.145 -0.017,-0.219 0.146,-0.409 0.365,-0.426 0.226,-0.019 0.409,0.146 0.427,0.364 0.003,0.04 0.068,0.979 -0.642,1.745 -0.58,0.628 -1.484,0.946 -2.686,0.946 z"
     id="path171"
     inkscape:connector-curvature="0"
     style="fill:#4e4e4e" /><path
     d="m 81.159379,82.916 c -0.056,0 -0.113,-0.012 -0.167,-0.037 -0.055,-0.026 -0.101,-0.062 -0.138,-0.106 -0.292,-0.101 -1.989,-0.453 -10.886,-0.071 -9.586,0.41 -9.75,-0.234 -9.857,-0.661 -0.067,-0.266 0.086,-0.532 0.389,-0.677 0.198,-0.094 0.434,-0.011 0.529,0.187 0.041,0.085 0.049,0.178 0.028,0.263 0.606,0.147 2.57,0.367 8.876,0.096 10.992,-0.472 11.382,0.113 11.548,0.362 0.077,0.115 0.095,0.289 0.036,0.415 -0.066,0.144 -0.209,0.229 -0.358,0.229 z"
     id="path173"
     inkscape:connector-curvature="0"
     style="fill:#4e4e4e" /><g
     id="g175"
     transform="translate(-44.178621,-25.795)"><defs
       id="defs177"><path
         id="SVGID_1_"
         d="m 70.612,52.185 c 0,0 4.225,-0.834 8.243,0.148 4.018,0.982 9.487,-0.091 17.762,-0.33 8.275,-0.239 9.811,-1.028 20.001,0.748 10.19,1.776 8.619,-15.403 8.619,-15.403 0,0 -7.843,-12.068 -10.044,-12.989 -2.201,-0.921 -22.334,-9.454 -25.684,-9.675 -3.35,-0.221 -14.192,-2.991 -17.873,0.886 -3.681,3.877 -7.014,27.786 -6.983,28.133 0.031,0.348 5.959,8.482 5.959,8.482 z"
         inkscape:connector-curvature="0" /></defs><clipPath
       id="SVGID_2_"><use
         xlink:href="#SVGID_1_"
         overflow="visible"
         id="use181"
         style="overflow:visible"
         x="0"
         y="0"
         width="100%"
         height="100%" /></clipPath><g
       id="Expanded_12_"
       clip-path="url(#SVGID_2_)"><g
         id="g184"><g
           id="g186"><path
             d="m 87.349,71.796 c -0.338,0 -0.674,-0.053 -0.998,-0.157 l -3.647,-1.171 c -0.83,-0.267 -1.507,-0.841 -1.907,-1.619 -0.4,-0.778 -0.473,-1.663 -0.206,-2.493 l 1,-3.113 c -0.906,-0.632 -1.752,-1.351 -2.522,-2.142 l -2.91,1.496 c -0.437,0.224 -0.936,0.343 -1.442,0.343 -1.249,0 -2.411,-0.69 -2.96,-1.757 l -1.751,-3.407 c -0.399,-0.777 -0.472,-1.662 -0.205,-2.494 0.267,-0.832 0.842,-1.509 1.619,-1.908 l 2.91,-1.496 c -0.195,-1.086 -0.286,-2.192 -0.271,-3.296 l -3.113,-1 C 69.23,47.031 68.282,45.186 68.833,43.47 l 1.172,-3.647 c 0.267,-0.831 0.841,-1.509 1.618,-1.908 0.768,-0.394 1.672,-0.469 2.495,-0.205 l 3.113,1 c 0.634,-0.907 1.352,-1.753 2.141,-2.521 l -1.494,-2.91 c -0.824,-1.603 -0.19,-3.578 1.414,-4.402 l 3.407,-1.751 c 0.437,-0.224 0.936,-0.343 1.442,-0.343 1.25,0 2.411,0.689 2.96,1.757 l 1.495,2.911 c 1.088,-0.194 2.191,-0.284 3.295,-0.272 l 1,-3.114 c 0.435,-1.358 1.687,-2.27 3.114,-2.27 0.338,0 0.674,0.053 0.998,0.157 l 3.646,1.171 c 0.83,0.267 1.508,0.841 1.907,1.619 0.399,0.777 0.473,1.663 0.206,2.493 l -1,3.114 c 0.903,0.63 1.75,1.349 2.52,2.139 l 2.911,-1.495 c 0.438,-0.224 0.937,-0.343 1.443,-0.343 1.25,0 2.411,0.69 2.96,1.757 l 1.751,3.407 c 0.399,0.777 0.472,1.662 0.205,2.494 -0.267,0.832 -0.842,1.509 -1.619,1.908 l -2.909,1.495 c 0.195,1.088 0.286,2.194 0.272,3.297 l 3.112,1 c 0.83,0.267 1.507,0.841 1.907,1.619 0.4,0.778 0.473,1.663 0.206,2.493 l -1.171,3.647 c -0.267,0.832 -0.842,1.509 -1.618,1.908 -0.768,0.394 -1.673,0.469 -2.495,0.205 l -3.114,-1 c -0.632,0.906 -1.35,1.752 -2.141,2.522 l 1.494,2.91 c 0.824,1.603 0.19,3.578 -1.414,4.402 l -3.407,1.751 c -0.437,0.224 -0.936,0.343 -1.442,0.343 -1.249,0 -2.411,-0.69 -2.96,-1.757 l -1.494,-2.91 c -1.083,0.194 -2.196,0.281 -3.296,0.272 l -1,3.114 c -0.435,1.357 -1.688,2.269 -3.114,2.269 z M 79.151,60.214 c 0.107,0 0.212,0.043 0.289,0.125 0.853,0.907 1.809,1.718 2.842,2.413 0.147,0.099 0.21,0.282 0.156,0.45 l -1.09,3.395 c -0.202,0.628 -0.146,1.299 0.157,1.888 0.303,0.589 0.815,1.025 1.444,1.227 l 3.647,1.171 c 0.245,0.079 0.5,0.119 0.755,0.119 1.081,0 2.029,-0.691 2.36,-1.719 l 1.09,-3.395 c 0.054,-0.168 0.204,-0.291 0.389,-0.275 1.245,0.037 2.497,-0.067 3.713,-0.307 0.172,-0.035 0.349,0.05 0.429,0.208 l 1.629,3.173 c 0.414,0.805 1.299,1.326 2.254,1.326 0.381,0 0.755,-0.088 1.08,-0.255 l 3.407,-1.751 c 1.214,-0.624 1.694,-2.119 1.071,-3.333 l -1.63,-3.174 c -0.081,-0.157 -0.048,-0.349 0.081,-0.47 0.906,-0.852 1.717,-1.808 2.411,-2.84 0.098,-0.146 0.28,-0.211 0.45,-0.156 l 3.395,1.09 c 0.629,0.201 1.302,0.146 1.889,-0.155 0.587,-0.302 1.023,-0.815 1.225,-1.445 l 1.171,-3.647 c 0.202,-0.628 0.146,-1.299 -0.157,-1.888 -0.303,-0.589 -0.815,-1.025 -1.444,-1.227 l -3.394,-1.09 c -0.168,-0.054 -0.28,-0.213 -0.275,-0.389 0.037,-1.243 -0.066,-2.492 -0.306,-3.713 -0.034,-0.174 0.051,-0.349 0.208,-0.43 l 3.173,-1.631 c 0.588,-0.302 1.024,-0.815 1.226,-1.445 0.202,-0.63 0.147,-1.3 -0.155,-1.889 l -1.751,-3.407 c -0.414,-0.806 -1.299,-1.326 -2.254,-1.326 -0.381,0 -0.755,0.088 -1.081,0.255 l -3.173,1.631 c -0.157,0.081 -0.349,0.048 -0.47,-0.081 -0.854,-0.907 -1.809,-1.717 -2.84,-2.41 -0.146,-0.099 -0.21,-0.282 -0.156,-0.451 l 1.09,-3.395 c 0.202,-0.628 0.146,-1.299 -0.156,-1.888 -0.303,-0.589 -0.816,-1.025 -1.444,-1.227 L 96.76,26.705 c -0.245,-0.079 -0.5,-0.119 -0.755,-0.119 -1.081,0 -2.029,0.691 -2.359,1.719 l -1.09,3.395 c -0.054,0.168 -0.196,0.287 -0.389,0.275 -1.241,-0.037 -2.489,0.066 -3.712,0.306 -0.177,0.035 -0.349,-0.051 -0.429,-0.208 l -1.631,-3.174 c -0.414,-0.805 -1.299,-1.326 -2.254,-1.326 -0.381,0 -0.755,0.088 -1.08,0.255 l -3.407,1.751 c -1.214,0.624 -1.694,2.119 -1.071,3.333 l 1.63,3.174 c 0.081,0.157 0.048,0.349 -0.081,0.47 -0.903,0.849 -1.714,1.805 -2.411,2.84 -0.099,0.146 -0.281,0.211 -0.45,0.156 l -3.395,-1.09 c -0.627,-0.202 -1.301,-0.146 -1.89,0.155 -0.588,0.302 -1.023,0.815 -1.225,1.445 l -1.172,3.647 c -0.417,1.3 0.301,2.697 1.6,3.115 l 3.394,1.09 c 0.168,0.054 0.28,0.213 0.275,0.39 -0.038,1.243 0.065,2.492 0.305,3.712 0.035,0.174 -0.05,0.349 -0.208,0.43 l -3.174,1.632 c -0.589,0.302 -1.024,0.815 -1.226,1.445 -0.202,0.629 -0.147,1.3 0.155,1.888 l 1.751,3.407 c 0.415,0.806 1.3,1.327 2.255,1.327 0.381,0 0.754,-0.088 1.08,-0.255 l 3.173,-1.631 c 0.058,-0.03 0.12,-0.045 0.182,-0.045 z m 8.199,9.666 c -0.14,0 -0.279,-0.022 -0.414,-0.065 L 83.29,68.644 c -0.344,-0.11 -0.625,-0.348 -0.79,-0.67 -0.166,-0.322 -0.196,-0.689 -0.085,-1.033 l 1.316,-4.096 c 0.08,-0.247 -0.02,-0.515 -0.242,-0.651 -0.474,-0.289 -0.982,-0.498 -1.473,-0.701 -0.878,-0.361 -1.786,-0.735 -2.501,-1.565 -0.067,-0.077 -0.154,-0.135 -0.253,-0.167 -0.142,-0.045 -0.293,-0.033 -0.426,0.036 -0.021,0.011 -0.043,0.02 -0.066,0.027 l -3.518,1.087 c -0.174,0.083 -0.369,0.126 -0.566,0.126 l 0,0 c -0.516,0 -0.996,-0.286 -1.224,-0.729 l -1.751,-3.407 c -0.163,-0.318 -0.194,-0.695 -0.085,-1.033 0.108,-0.338 0.352,-0.626 0.669,-0.79 l 3.83,-1.969 c 0.231,-0.119 0.35,-0.379 0.289,-0.632 -0.384,-1.581 -0.518,-3.205 -0.399,-4.828 0.02,-0.26 -0.14,-0.497 -0.387,-0.576 l -4.096,-1.316 c -0.711,-0.229 -1.103,-0.993 -0.875,-1.704 l 1.171,-3.647 c 0.111,-0.346 0.349,-0.626 0.671,-0.79 0.316,-0.162 0.694,-0.193 1.033,-0.084 l 4.097,1.316 c 0.241,0.077 0.519,-0.027 0.65,-0.243 0.847,-1.388 1.901,-2.63 3.136,-3.694 0.197,-0.17 0.252,-0.45 0.133,-0.681 L 79.58,32.4 c -0.341,-0.664 -0.079,-1.482 0.586,-1.823 l 3.405,-1.75 c 0.183,-0.094 0.391,-0.143 0.601,-0.143 0.515,0 0.994,0.286 1.223,0.729 l 1.967,3.83 c 0.117,0.228 0.382,0.349 0.631,0.289 1.577,-0.382 3.212,-0.518 4.829,-0.398 10e-4,0 0.003,0 0.004,0 0.284,0 0.497,-0.156 0.571,-0.388 l 1.316,-4.096 c 0.181,-0.562 0.699,-0.94 1.29,-0.94 0.141,0 0.279,0.022 0.414,0.065 l 3.647,1.171 c 0.711,0.229 1.103,0.993 0.875,1.704 l -1.316,4.096 c -0.08,0.247 0.02,0.513 0.241,0.648 1.388,0.847 2.63,1.902 3.693,3.136 0.166,0.194 0.456,0.25 0.68,0.134 l 3.83,-1.968 c 0.183,-0.094 0.391,-0.143 0.601,-0.143 0.515,0 0.994,0.286 1.223,0.729 l 1.751,3.407 c 0.163,0.317 0.194,0.693 0.085,1.033 -0.108,0.338 -0.352,0.626 -0.669,0.79 l -3.83,1.968 c -0.231,0.119 -0.35,0.379 -0.289,0.632 0.384,1.583 0.519,3.208 0.399,4.829 -0.02,0.26 0.139,0.496 0.387,0.576 l 4.096,1.316 c 0.344,0.11 0.624,0.348 0.79,0.67 0.166,0.322 0.196,0.689 0.085,1.033 l -1.172,3.647 c -0.111,0.346 -0.349,0.626 -0.671,0.79 -0.315,0.162 -0.691,0.194 -1.033,0.084 l -4.096,-1.316 c -0.241,-0.078 -0.519,0.027 -0.65,0.243 -0.849,1.391 -1.904,2.634 -3.136,3.695 -0.197,0.17 -0.252,0.45 -0.133,0.681 l 1.968,3.83 c 0.341,0.664 0.079,1.482 -0.585,1.823 l -3.407,1.751 c -0.181,0.093 -0.388,0.142 -0.598,0.142 -0.517,0 -0.998,-0.286 -1.226,-0.728 L 95.991,64.349 C 95.873,64.122 95.608,64 95.359,64.06 c -1.574,0.382 -3.209,0.518 -4.829,0.399 -0.002,0 -0.003,0 -0.004,0 -0.284,0 -0.497,0.156 -0.571,0.388 L 88.64,68.94 c -0.18,0.563 -0.699,0.94 -1.29,0.94 z M 79.09,58.941 c 0.141,0 0.279,0.022 0.414,0.065 0.237,0.076 0.448,0.216 0.611,0.404 0.591,0.687 1.374,1.009 2.202,1.35 0.52,0.214 1.058,0.435 1.585,0.757 0.536,0.328 0.775,0.973 0.584,1.57 l -1.316,4.096 c -0.045,0.142 -0.033,0.294 0.036,0.428 0.069,0.133 0.184,0.232 0.327,0.277 l 3.646,1.172 c 0.292,0.094 0.613,-0.074 0.706,-0.363 l 1.316,-4.096 c 0.191,-0.594 0.751,-0.982 1.389,-0.937 1.536,0.113 3.089,-0.015 4.585,-0.379 0.607,-0.146 1.241,0.148 1.524,0.696 l 1.967,3.83 c 0.128,0.247 0.504,0.372 0.756,0.243 l 3.407,-1.751 c 0.275,-0.141 0.383,-0.48 0.242,-0.755 l -1.967,-3.829 c -0.288,-0.558 -0.156,-1.234 0.321,-1.645 1.169,-1.007 2.17,-2.187 2.976,-3.506 0.317,-0.52 0.987,-0.772 1.57,-0.585 l 4.096,1.316 c 0.145,0.046 0.296,0.033 0.429,-0.035 0.132,-0.067 0.23,-0.183 0.276,-0.326 l 1.172,-3.647 c 0.045,-0.142 0.033,-0.294 -0.036,-0.427 -0.069,-0.134 -0.185,-0.232 -0.327,-0.278 l -4.096,-1.316 c -0.599,-0.192 -0.984,-0.764 -0.936,-1.391 0.114,-1.538 -0.013,-3.081 -0.378,-4.583 -0.148,-0.609 0.138,-1.236 0.697,-1.524 l 3.83,-1.968 c 0.131,-0.068 0.232,-0.187 0.277,-0.327 0.045,-0.141 0.033,-0.297 -0.035,-0.427 l -1.751,-3.407 c -0.129,-0.249 -0.503,-0.372 -0.756,-0.243 l -3.829,1.967 c -0.538,0.279 -1.246,0.143 -1.645,-0.321 -1.009,-1.171 -2.188,-2.173 -3.504,-2.976 -0.536,-0.325 -0.776,-0.97 -0.584,-1.568 l 1.316,-4.096 c 0.095,-0.294 -0.068,-0.611 -0.363,-0.706 l -3.647,-1.171 c -0.291,-0.093 -0.613,0.075 -0.706,0.363 l -1.316,4.096 c -0.191,0.594 -0.753,0.98 -1.389,0.937 -1.536,-0.113 -3.087,0.015 -4.584,0.378 -0.605,0.146 -1.242,-0.148 -1.524,-0.698 l -1.967,-3.829 c -0.129,-0.249 -0.503,-0.372 -0.757,-0.243 l -3.405,1.75 c -0.275,0.141 -0.384,0.48 -0.243,0.755 l 1.968,3.829 c 0.287,0.558 0.156,1.234 -0.32,1.645 -1.172,1.009 -2.173,2.189 -2.976,3.506 -0.318,0.52 -0.988,0.772 -1.571,0.585 L 73.29,40.287 c -0.143,-0.045 -0.295,-0.034 -0.429,0.035 -0.133,0.068 -0.231,0.184 -0.277,0.327 l -1.171,3.647 c -0.095,0.294 0.068,0.611 0.363,0.706 l 4.096,1.316 c 0.598,0.192 0.983,0.764 0.936,1.39 -0.113,1.54 0.014,3.082 0.378,4.583 0.148,0.609 -0.138,1.236 -0.697,1.524 l -3.83,1.969 c -0.131,0.068 -0.233,0.188 -0.278,0.327 -0.045,0.14 -0.032,0.296 0.036,0.428 l 1.751,3.406 c 0.129,0.249 0.504,0.372 0.757,0.243 0.021,-0.011 0.042,-0.019 0.064,-0.026 l 3.517,-1.086 c 0.18,-0.089 0.382,-0.135 0.584,-0.135 z"
             id="path188"
             inkscape:connector-curvature="0"
             style="fill:#4e4e4e" /></g><g
           id="g190"><path
             d="m 91.671,58.768 c -1.031,0 -2.055,-0.161 -3.044,-0.479 -2.532,-0.813 -4.598,-2.568 -5.817,-4.939 -1.219,-2.372 -1.442,-5.072 -0.628,-7.605 1.33,-4.141 5.148,-6.923 9.501,-6.923 1.031,0 2.054,0.161 3.043,0.479 5.235,1.681 8.127,7.308 6.445,12.544 -1.33,4.141 -5.148,6.923 -9.5,6.923 z m 0.012,-19.153 c -4.007,0 -7.521,2.561 -8.746,6.373 -0.749,2.331 -0.543,4.816 0.579,7 1.122,2.183 3.023,3.798 5.354,4.547 0.91,0.292 1.852,0.441 2.801,0.441 4.007,0 7.521,-2.561 8.746,-6.373 1.547,-4.819 -1.114,-9.998 -5.933,-11.546 -0.911,-0.293 -1.853,-0.442 -2.801,-0.442 z m -0.011,17.238 c 0,0 0,0 0,0 -0.834,0 -1.661,-0.13 -2.459,-0.387 -2.046,-0.657 -3.715,-2.074 -4.699,-3.991 -0.985,-1.916 -1.165,-4.098 -0.508,-6.144 1.074,-3.346 4.159,-5.594 7.676,-5.594 0.833,0 1.66,0.13 2.459,0.387 4.23,1.359 6.566,5.905 5.207,10.135 -1.075,3.346 -4.159,5.594 -7.676,5.594 z m 0.01,-15.322 c -3.171,0 -5.952,2.027 -6.921,5.043 -0.593,1.844 -0.43,3.811 0.458,5.539 0.887,1.728 2.392,3.006 4.236,3.598 0.72,0.231 1.466,0.348 2.216,0.348 l 10e-4,0 c 3.17,0 5.951,-2.027 6.921,-5.043 1.224,-3.813 -0.881,-7.912 -4.695,-9.137 -0.72,-0.231 -1.466,-0.348 -2.216,-0.348 z"
             id="path192"
             inkscape:connector-curvature="0"
             style="fill:#4e4e4e" /></g></g></g></g></svg>