<?xml version="1.0" encoding="UTF-8" standalone="no"?>
<!-- Generator: Adobe Illustrator 17.0.0, SVG Export Plug-In . SVG Version: 6.00 Build 0)  -->

<svg
   xmlns:dc="http://purl.org/dc/elements/1.1/"
   xmlns:cc="http://creativecommons.org/ns#"
   xmlns:rdf="http://www.w3.org/1999/02/22-rdf-syntax-ns#"
   xmlns:svg="http://www.w3.org/2000/svg"
   xmlns="http://www.w3.org/2000/svg"
   xmlns:sodipodi="http://sodipodi.sourceforge.net/DTD/sodipodi-0.dtd"
   xmlns:inkscape="http://www.inkscape.org/namespaces/inkscape"
   version="1.1"
   id="Слой_1"
   x="0px"
   y="0px"
   width="172.76549"
   height="88.587196"
   viewBox="0 0 172.76549 88.587196"
   enable-background="new 0 0 180 98"
   xml:space="preserve"
   inkscape:version="0.91 r13725"
   sodipodi:docname="diagnos.svg"><metadata
     id="metadata201"><rdf:RDF><cc:Work
         rdf:about=""><dc:format>image/svg+xml</dc:format><dc:type
           rdf:resource="http://purl.org/dc/dcmitype/StillImage" /><dc:title></dc:title></cc:Work></rdf:RDF></metadata><defs
     id="defs199" /><sodipodi:namedview
     pagecolor="#ffffff"
     bordercolor="#666666"
     borderopacity="1"
     objecttolerance="10"
     gridtolerance="10"
     guidetolerance="10"
     inkscape:pageopacity="0"
     inkscape:pageshadow="2"
     inkscape:window-width="1440"
     inkscape:window-height="837"
     id="namedview197"
     showgrid="false"
     fit-margin-top="0"
     fit-margin-left="0"
     fit-margin-right="0"
     fit-margin-bottom="0"
     inkscape:zoom="2.2777778"
     inkscape:cx="84.306689"
     inkscape:cy="45.499"
     inkscape:window-x="-8"
     inkscape:window-y="-8"
     inkscape:window-maximized="1"
     inkscape:current-layer="Слой_1" /><path
     d="m 143.09469,62.258195 c -10.852,0 -19.68,-8.829 -19.68,-19.68 0,-10.851 8.829,-19.68 19.68,-19.68 10.852,0 19.68,8.829 19.68,19.68 0,10.851 -8.828,19.68 -19.68,19.68 z m 0,-38.691 c -10.483,0 -19.011,8.528 -19.011,19.011 0,10.483 8.528,19.011 19.011,19.011 10.483,0 19.011,-8.528 19.011,-19.011 0,-10.483 -8.529,-19.011 -19.011,-19.011 z"
     id="path3"
     inkscape:connector-curvature="0"
     style="fill:#4e4e4e" /><path
     d="m 143.02569,59.826195 c -9.548,0 -17.316,-7.769 -17.316,-17.317 0,-9.548 7.768,-17.317 17.316,-17.317 9.548,0 17.317,7.769 17.317,17.317 0,9.548 -7.768,17.317 -17.317,17.317 z m 0,-33.964 c -9.18,0 -16.647,7.468 -16.647,16.647 0,9.179 7.468,16.647 16.647,16.647 9.18,0 16.648,-7.468 16.648,-16.647 0,-9.179 -7.469,-16.647 -16.648,-16.647 z"
     id="path5"
     inkscape:connector-curvature="0"
     style="fill:#4e4e4e" /><path
     d="m 131.80869,44.323195 c -0.077,0 -0.152,-0.026 -0.215,-0.078 -0.142,-0.119 -0.161,-0.329 -0.042,-0.471 l 11.487,-13.703 c 0.119,-0.142 0.331,-0.16 0.471,-0.041 0.142,0.119 0.161,0.329 0.042,0.471 l -11.487,13.703 c -0.065,0.078 -0.16,0.119 -0.256,0.119 z"
     id="path7"
     inkscape:connector-curvature="0"
     style="fill:#4e4e4e" /><path
     d="m 131.80869,48.756195 c -0.077,0 -0.152,-0.026 -0.215,-0.078 -0.142,-0.119 -0.161,-0.329 -0.042,-0.471 l 11.487,-13.703 c 0.119,-0.141 0.329,-0.16 0.471,-0.041 0.142,0.119 0.161,0.329 0.042,0.471 l -11.487,13.703 c -0.065,0.079 -0.16,0.119 -0.256,0.119 z"
     id="path9"
     inkscape:connector-curvature="0"
     style="fill:#4e4e4e" /><path
     d="m 144.10169,53.794195 c -0.077,0 -0.152,-0.026 -0.215,-0.078 -0.142,-0.119 -0.161,-0.329 -0.042,-0.471 l 11.487,-13.703 c 0.119,-0.142 0.331,-0.16 0.471,-0.041 0.142,0.119 0.161,0.329 0.042,0.471 l -11.487,13.703 c -0.065,0.079 -0.16,0.119 -0.256,0.119 z"
     id="path11"
     inkscape:connector-curvature="0"
     style="fill:#4e4e4e" /><path
     d="m 140.07169,54.399195 c -0.076,0 -0.152,-0.026 -0.215,-0.078 -0.142,-0.119 -0.161,-0.329 -0.042,-0.471 l 11.487,-13.703 c 0.119,-0.142 0.331,-0.16 0.471,-0.041 0.142,0.119 0.161,0.329 0.042,0.471 l -11.487,13.703 c -0.066,0.078 -0.161,0.119 -0.256,0.119 z"
     id="path13"
     inkscape:connector-curvature="0"
     style="fill:#4e4e4e" /><path
     d="m 156.79769,58.404195 c -0.112,0 -0.222,-0.056 -0.286,-0.16 l -0.605,-0.983 c -0.097,-0.158 -0.048,-0.363 0.109,-0.46 0.158,-0.097 0.364,-0.048 0.461,0.109 l 0.605,0.983 c 0.097,0.158 0.048,0.363 -0.109,0.46 -0.055,0.035 -0.115,0.051 -0.175,0.051 z"
     id="path15"
     inkscape:connector-curvature="0"
     style="fill:#4e4e4e" /><path
     d="m 148.87669,66.358195 c -0.112,0 -0.222,-0.057 -0.286,-0.16 l -2.457,-3.999 c -0.097,-0.158 -0.048,-0.364 0.11,-0.46 0.158,-0.097 0.363,-0.048 0.46,0.11 l 2.457,3.999 c 0.097,0.158 0.048,0.364 -0.11,0.46 -0.053,0.034 -0.114,0.05 -0.174,0.05 z"
     id="path17"
     inkscape:connector-curvature="0"
     style="fill:#4e4e4e" /><path
     d="m 160.17469,88.587195 c -0.316,0 -0.629,-0.189 -0.815,-0.495 l -12.03,-19.768 c -0.125,-0.205 -0.179,-0.441 -0.152,-0.664 0.03,-0.248 0.161,-0.46 0.359,-0.58 l 11.84,-7.205 c 0.377,-0.231 0.934,-0.049 1.2,0.388 l 12.03,19.768 c 0.125,0.206 0.179,0.441 0.152,0.664 -0.03,0.248 -0.161,0.46 -0.359,0.58 l -11.84,7.205 c -0.114,0.07 -0.247,0.107 -0.385,0.107 z m -0.412,-28.149 -11.878,7.214 c -0.031,0.019 -0.04,0.069 -0.043,0.09 -0.009,0.073 0.013,0.159 0.059,0.235 l 12.03,19.768 c 0.097,0.16 0.266,0.173 0.281,0.164 l 11.84,-7.205 c 0.031,-0.019 0.04,-0.069 0.043,-0.09 0.008,-0.073 -0.013,-0.159 -0.06,-0.235 l -12.03,-19.767 c -0.071,-0.12 -0.176,-0.174 -0.242,-0.174 z"
     id="path19"
     inkscape:connector-curvature="0"
     style="fill:#4e4e4e" /><path
     d="m 160.51269,86.778195 c -0.29,0 -0.58,-0.178 -0.755,-0.467 l -10.732,-17.635 c -0.114,-0.188 -0.166,-0.4 -0.148,-0.601 0.021,-0.234 0.138,-0.433 0.323,-0.545 l 9.912,-6.033 c 0.343,-0.208 0.848,-0.037 1.098,0.371 l 10.733,17.635 c 0.259,0.426 0.183,0.929 -0.174,1.146 l -9.912,6.032 c -0.104,0.064 -0.223,0.097 -0.345,0.097 z m -1.058,-24.705 -9.907,6.029 c -0.009,0.017 -0.019,0.114 0.05,0.226 l 10.732,17.635 c 0.066,0.11 0.152,0.146 0.184,0.146 l 0.002,0 9.905,-6.029 c 0.009,-0.017 0.019,-0.114 -0.05,-0.226 l -10.733,-17.636 c -0.067,-0.11 -0.152,-0.145 -0.183,-0.145 z"
     id="path21"
     inkscape:connector-curvature="0"
     style="fill:#4e4e4e" /><path
     d="m 159.95969,82.002195 c -0.006,0 -0.011,0 -0.016,0 -0.185,-0.008 -0.328,-0.165 -0.318,-0.35 l 0.64,-13.611 c 0.008,-0.185 0.184,-0.325 0.35,-0.318 0.185,0.008 0.328,0.165 0.318,0.35 l -0.64,13.611 c -0.008,0.179 -0.157,0.318 -0.334,0.318 z"
     id="path23"
     inkscape:connector-curvature="0"
     style="fill:#4e4e4e" /><path
     d="m 158.20169,79.170195 c -0.006,0 -0.011,0 -0.016,0 -0.185,-0.008 -0.328,-0.165 -0.318,-0.35 l 0.641,-13.611 c 0.008,-0.185 0.183,-0.321 0.35,-0.318 0.185,0.008 0.328,0.165 0.318,0.35 l -0.641,13.611 c -0.009,0.178 -0.157,0.318 -0.334,0.318 z"
     id="path25"
     inkscape:connector-curvature="0"
     style="fill:#4e4e4e" /><path
     d="m 4.909689,42.811195 c -0.992,0 -2.088,-0.175 -2.258,-0.204 -0.103,-0.017 -0.191,-0.081 -0.241,-0.174 l -1.132,-2.134 c -0.015,-0.026 -0.025,-0.056 -0.032,-0.086 -0.066,-0.314 0.018,-1.005 0.813,-1.375 0.593,-0.276 1.056,-0.455 1.248,-0.526 -0.026,-0.032 -0.077,-0.079 -0.172,-0.142 -0.355,-0.236 -1.282,0.408 -1.793,0.918 -0.096,0.095 -0.24,0.124 -0.36499999,0.072 -0.125,-0.052 -0.206,-0.174 -0.206,-0.309 l 0,-0.959 c 0,-0.122 0.066,-0.231 0.164,-0.288 -0.108,-0.063 -0.173,-0.183 -0.164,-0.311 l 0.29099999,-4.316 c 0.008,-0.132 0.093,-0.245 0.217,-0.291 0.031,-0.011 3.141,-1.185 7.582,-3.429 3.22,-1.628 6.825,-3.875 8.584,-5.001 -1.207,0.089 -3.111,0.24 -5.052,0.443 -0.789,0.082 -1.572,0.232 -2.304,0.412 -0.023,0.01 -0.036,0.016 -0.039,0.017 -0.047,0.021 -0.091,0.029 -0.144,0.029 -2.112,0.536 -3.756,1.289 -3.778,1.299 -0.134,0.062 -0.292,0.029 -0.39,-0.081 -0.099,-0.11 -0.113,-0.272 -0.035,-0.398 0.05,-0.083 1.343,-2.067 10.036,-5.175 l 1.213,-0.434 c 7.813,-2.797 11.048,-3.954 14.703,-4.048 3.707,-0.095 5.796,-0.476 5.817,-0.48 0.175,-0.032 0.347,0.079 0.387,0.254 0.04,0.175 -0.064,0.35 -0.237,0.398 0,0 -6.646,1.843 -13.922,3.832 -4.289,1.172 -8.311,2.652 -10.861,3.658 3.029,-0.304 5.825,-0.481 5.854,-0.483 0.152,-0.007 0.289,0.084 0.338,0.228 0.049,0.144 -0.007,0.301 -0.132,0.385 -0.052,0.035 -5.258,3.481 -9.735,5.743 -3.83,1.936 -6.684,3.083 -7.447,3.38 l -0.221,3.277 c 0.462,-0.356 1.126,-0.743 1.825,-0.743 1.344,0 1.97,0.93 2.543,2.432 0.545,1.424 1.065,2.868 1.07,2.883 0.017,0.046 0.176,0.499 -0.041,0.951 -0.146,0.302 -0.415,0.519 -0.803,0.644 -0.31,0.097 -0.736,0.132 -1.181,0.132 z m -1.985,-0.838 c 0.728,0.109 2.298,0.28 2.961,0.066 0.204,-0.065 0.34,-0.164 0.403,-0.294 0.098,-0.199 0.017,-0.434 0.017,-0.436 -0.007,-0.016 -0.524,-1.454 -1.066,-2.872 -0.572,-1.496 -1.056,-2.001 -1.919,-2.001 -0.967,0 -1.956,1.09 -1.966,1.101 -0.023,0.026 -0.05,0.048 -0.079,0.064 0.098,0.059 0.164,0.165 0.164,0.288 l 0,0.224 c 0.573,-0.44 1.431,-0.923 2.065,-0.503 0.336,0.222 0.504,0.47 0.498,0.737 -0.006,0.254 -0.173,0.444 -0.315,0.53 -0.02,0.012 -0.04,0.021 -0.062,0.029 -0.006,0.002 -0.546,0.193 -1.283,0.537 -0.426,0.199 -0.45,0.495 -0.444,0.595 l 1.026,1.935 z m 30.675,-25.066 c -0.582,0.034 -1.225,0.062 -1.928,0.079 -3.548,0.091 -6.752,1.238 -14.495,4.008 l -1.213,0.434 c -4.266,1.525 -6.7,2.766 -8.062,3.617 0.581,-0.197 1.257,-0.402 1.987,-0.58 0.876,-0.379 6.931,-2.958 13.635,-4.791 3.824,-1.044 7.474,-2.049 10.076,-2.767 z"
     id="path27"
     inkscape:connector-curvature="0"
     style="fill:#4e4e4e" /><path
     d="m 1.396689,33.332195 c -0.064,0 -0.129,-0.019 -0.186,-0.057 -0.153,-0.103 -0.194,-0.311 -0.091,-0.464 l 4.591,-6.848 c 0.103,-0.154 0.31,-0.195 0.465,-0.091 0.153,0.103 0.194,0.311 0.091,0.464 l -4.591,6.848 c -0.065,0.096 -0.172,0.148 -0.279,0.148 z"
     id="path29"
     inkscape:connector-curvature="0"
     style="fill:#4e4e4e" /><path
     d="m 2.202689,33.014195 c -0.079,0 -0.158,-0.028 -0.221,-0.083 -0.129,-0.113 -0.151,-0.304 -0.052,-0.444 l 4.912,-6.975 c 0.106,-0.151 0.315,-0.189 0.467,-0.081 0.151,0.106 0.188,0.315 0.081,0.467 l -3.595,5.105 c 1.244,-0.877 3.019,-1.943 4.975,-2.543 3.31,-1.016 3.702,-1.172 3.737,-1.186 0.16,-0.092 0.351,-0.03 0.442,0.131 0.092,0.161 0.022,0.372 -0.138,0.464 -0.165,0.095 -2.48,0.813 -3.844,1.232 -3.507,1.077 -6.508,3.801 -6.537,3.829 -0.066,0.055 -0.147,0.084 -0.227,0.084 z"
     id="path31"
     inkscape:connector-curvature="0"
     style="fill:#4e4e4e" /><path
     d="m 7.821689,29.483195 c -0.047,0 -0.094,-0.01 -0.139,-0.03 -0.168,-0.077 -0.242,-0.275 -0.164,-0.443 l 1.724,-3.767 c 0.054,-0.119 0.174,-0.195 0.304,-0.195 l 2.62,0 c 0.119,0 0.231,0.064 0.29,0.168 0.059,0.104 0.059,0.231 -0.001,0.335 l -1.686,2.897 c -0.092,0.16 -0.298,0.215 -0.457,0.12 -0.16,-0.093 -0.214,-0.298 -0.121,-0.457 l 1.394,-2.394 -1.823,0 -1.637,3.571 c -0.056,0.122 -0.177,0.195 -0.304,0.195 z"
     id="path33"
     inkscape:connector-curvature="0"
     style="fill:#4e4e4e" /><path
     d="m 13.635689,27.329195 c -0.009,0 -0.019,0 -0.027,-10e-4 -0.142,-0.011 -0.26,-0.112 -0.296,-0.249 l -0.516,-1.979 -0.543,0.793 c -0.105,0.152 -0.313,0.191 -0.466,0.088 -0.152,-0.105 -0.191,-0.313 -0.087,-0.465 l 0.958,-1.4 c 0.075,-0.108 0.205,-0.163 0.334,-0.141 0.129,0.022 0.233,0.119 0.266,0.245 l 0.46,1.765 0.808,-1.816 c 0.049,-0.111 0.156,-0.188 0.277,-0.198 0.118,-0.013 0.239,0.046 0.307,0.147 l 0.936,1.4 c 0.103,0.154 0.062,0.361 -0.092,0.464 -0.154,0.103 -0.361,0.062 -0.464,-0.092 l -0.599,-0.895 -0.95,2.135 c -0.054,0.123 -0.174,0.199 -0.306,0.199 z"
     id="path35"
     inkscape:connector-curvature="0"
     style="fill:#4e4e4e" /><path
     d="m 19.537689,31.000195 c -0.06,0 -0.121,-0.017 -0.176,-0.05 l -5.903,-3.671 c -0.157,-0.098 -0.204,-0.304 -0.107,-0.461 0.097,-0.157 0.302,-0.205 0.461,-0.107 l 5.903,3.671 c 0.157,0.098 0.204,0.304 0.107,0.461 -0.063,0.101 -0.173,0.157 -0.285,0.157 z"
     id="path37"
     inkscape:connector-curvature="0"
     style="fill:#4e4e4e" /><path
     d="m 29.203689,53.681195 c -6.745,0 -12.232,-5.488 -12.232,-12.232 0,-6.744 5.488,-12.232 12.232,-12.232 6.746,0 12.232,5.488 12.232,12.232 0,6.744 -5.486,12.232 -12.232,12.232 z m 0,-23.796 c -6.376,0 -11.562,5.187 -11.562,11.563 0,6.376 5.187,11.563 11.562,11.563 6.376,0 11.563,-5.187 11.563,-11.563 0,-6.376 -5.187,-11.563 -11.563,-11.563 z"
     id="path39"
     inkscape:connector-curvature="0"
     style="fill:#4e4e4e" /><path
     d="m 29.092689,50.711195 c -4.98,0 -9.031,-4.051 -9.031,-9.031 0,-4.98 4.051,-9.031 9.031,-9.031 4.98,0 9.031,4.051 9.031,9.031 0,4.98 -4.051,9.031 -9.031,9.031 z m 0,-17.393 c -4.61,0 -8.362,3.751 -8.362,8.362 0,4.611 3.751,8.362 8.362,8.362 4.611,0 8.362,-3.751 8.362,-8.362 0,-4.611 -3.751,-8.362 -8.362,-8.362 z"
     id="path41"
     inkscape:connector-curvature="0"
     style="fill:#4e4e4e" /><path
     d="m 29.027689,51.400195 c -0.788,0 -1.572,-0.093 -2.329,-0.278 -0.179,-0.044 -0.289,-0.225 -0.245,-0.404 0.044,-0.18 0.229,-0.289 0.404,-0.245 0.706,0.172 1.436,0.259 2.171,0.259 3.259,0 6.295,-1.756 7.924,-4.583 0.092,-0.16 0.297,-0.216 0.456,-0.123 0.161,0.092 0.216,0.297 0.123,0.457 -1.748,3.033 -5.006,4.917 -8.504,4.917 z"
     id="path43"
     inkscape:connector-curvature="0"
     style="fill:#4e4e4e" /><path
     d="m 37.852689,38.480195 c -0.133,0 -0.26,-0.08 -0.312,-0.213 -1.38,-3.531 -4.722,-5.812 -8.514,-5.812 -0.621,0 -1.24,0.063 -1.842,0.186 -0.181,0.035 -0.358,-0.079 -0.395,-0.26 -0.037,-0.181 0.079,-0.358 0.26,-0.395 0.646,-0.132 1.31,-0.199 1.976,-0.199 4.069,0 7.656,2.448 9.137,6.237 0.067,0.172 -0.018,0.366 -0.189,0.434 -0.039,0.014 -0.08,0.022 -0.121,0.022 z"
     id="path45"
     inkscape:connector-curvature="0"
     style="fill:#4e4e4e" /><path
     d="m 29.302689,43.098195 c -0.906,0 -1.644,-0.737 -1.644,-1.644 0,-0.906 0.737,-1.644 1.644,-1.644 0.907,0 1.644,0.737 1.644,1.644 0.001,0.906 -0.737,1.644 -1.644,1.644 z m 0,-2.62 c -0.538,0 -0.974,0.438 -0.974,0.975 0,0.537 0.438,0.975 0.974,0.975 0.538,0 0.975,-0.438 0.975,-0.975 0,-0.537 -0.437,-0.975 -0.975,-0.975 z"
     id="path47"
     inkscape:connector-curvature="0"
     style="fill:#4e4e4e" /><path
     d="m 29.302689,43.826195 c -1.308,0 -2.372,-1.064 -2.372,-2.372 0,-1.308 1.065,-2.372 2.372,-2.372 1.308,0 2.372,1.064 2.372,2.372 0,1.308 -1.063,2.372 -2.372,2.372 z m 0,-4.076 c -0.939,0 -1.703,0.764 -1.703,1.703 0,0.939 0.764,1.703 1.703,1.703 0.939,0 1.703,-0.764 1.703,-1.703 0,-0.939 -0.764,-1.703 -1.703,-1.703 z"
     id="path49"
     inkscape:connector-curvature="0"
     style="fill:#4e4e4e" /><path
     d="m 27.637689,39.750195 c -0.088,0 -0.174,-0.035 -0.237,-0.099 l -4.269,-4.282 c -0.131,-0.131 -0.131,-0.343 10e-4,-0.473 0.132,-0.131 0.343,-0.13 0.473,0.001 l 3.929,3.942 0.769,-1.665 c 0.006,-0.012 0.309,-0.662 0.007,-1.24 -0.374,-0.717 -1.594,-2.483 -1.607,-2.5 -0.105,-0.152 -0.067,-0.36 0.085,-0.466 0.152,-0.106 0.36,-0.066 0.466,0.085 0.051,0.074 1.256,1.818 1.65,2.572 0.461,0.884 0.022,1.799 0.004,1.838 l -0.968,2.094 c -0.046,0.099 -0.137,0.17 -0.245,0.189 -0.02,0.002 -0.038,0.004 -0.058,0.004 z"
     id="path51"
     inkscape:connector-curvature="0"
     style="fill:#4e4e4e" /><path
     d="m 27.516689,39.629195 c -0.028,0 -0.057,-0.004 -0.086,-0.011 -0.178,-0.048 -0.285,-0.231 -0.237,-0.41 0.633,-2.38 -0.147,-3.175 -0.154,-3.182 -0.017,-0.015 -0.032,-0.032 -0.045,-0.05 l -1.542,-2.119 c -0.109,-0.149 -0.076,-0.358 0.074,-0.468 0.15,-0.11 0.359,-0.076 0.468,0.074 l 1.528,2.1 c 0.178,0.191 1.001,1.248 0.318,3.817 -0.04,0.15 -0.176,0.249 -0.324,0.249 z"
     id="path53"
     inkscape:connector-curvature="0"
     style="fill:#4e4e4e" /><path
     d="m 28.381689,39.971195 c -0.053,0 -0.107,-0.013 -0.158,-0.04 -0.162,-0.087 -0.224,-0.29 -0.137,-0.453 0.008,-0.016 0.846,-1.598 1.062,-3.385 0.22,-1.826 0.196,-3.07 0.195,-3.083 -0.004,-0.185 0.143,-0.338 0.328,-0.343 0.199,-0.007 0.338,0.142 0.343,0.327 10e-4,0.052 0.026,1.301 -0.201,3.179 -0.231,1.916 -1.099,3.552 -1.137,3.621 -0.061,0.113 -0.177,0.177 -0.295,0.177 z"
     id="path55"
     inkscape:connector-curvature="0"
     style="fill:#4e4e4e" /><path
     d="m 29.994689,39.872195 c -0.049,0 -0.098,-0.01 -0.145,-0.033 -0.167,-0.08 -0.237,-0.28 -0.157,-0.446 l 2.758,-5.749 c 0.08,-0.167 0.279,-0.238 0.446,-0.157 0.167,0.08 0.237,0.28 0.157,0.446 l -2.758,5.749 c -0.057,0.12 -0.176,0.19 -0.301,0.19 z"
     id="path57"
     inkscape:connector-curvature="0"
     style="fill:#4e4e4e" /><path
     d="m 31.853689,39.944195 c -0.856,0 -1.353,-0.214 -1.375,-0.222 -0.085,-0.037 -0.15,-0.107 -0.181,-0.194 -0.032,-0.087 -0.025,-0.183 0.017,-0.265 l 2.49,-4.866 c 0.042,-0.082 0.117,-0.144 0.206,-0.169 0.089,-0.025 0.185,-0.013 0.264,0.035 0.055,0.033 1.355,0.816 1.952,1.437 0.735,0.764 1.046,1.448 1.058,1.477 0.045,0.1 0.038,0.216 -0.019,0.309 -0.044,0.073 -1.093,1.785 -2.887,2.252 -0.522,0.137 -1.035,0.206 -1.525,0.206 z m -0.757,-0.74 c 0.185,0.036 0.441,0.07 0.757,0.07 0.433,0 0.89,-0.062 1.359,-0.184 1.238,-0.322 2.097,-1.399 2.38,-1.799 -0.125,-0.225 -0.398,-0.66 -0.848,-1.128 -0.373,-0.388 -1.098,-0.874 -1.51,-1.138 l -2.138,4.179 z"
     id="path59"
     inkscape:connector-curvature="0"
     style="fill:#4e4e4e" /><path
     d="m 27.311689,42.224195 c -0.127,0 -0.249,-0.073 -0.305,-0.197 -0.003,-0.007 -0.49,-0.996 -2.474,-2.098 -2.035,-1.131 -3.478,-1.277 -3.493,-1.278 -0.184,-0.017 -0.319,-0.18 -0.302,-0.364 0.017,-0.184 0.179,-0.322 0.362,-0.303 0.063,0.006 1.587,0.153 3.757,1.359 2.205,1.225 2.737,2.36 2.76,2.408 0.077,0.168 10e-4,0.367 -0.167,0.442 -0.044,0.022 -0.092,0.031 -0.138,0.031 z"
     id="path61"
     inkscape:connector-curvature="0"
     style="fill:#4e4e4e" /><path
     d="m 27.741689,40.478195 c -0.081,0 -0.162,-0.029 -0.227,-0.089 l -4.903,-4.507 c -0.135,-0.124 -0.145,-0.336 -0.02,-0.472 0.125,-0.136 0.337,-0.145 0.473,-0.02 l 4.903,4.507 c 0.136,0.125 0.145,0.337 0.02,0.473 -0.066,0.072 -0.156,0.108 -0.246,0.108 z"
     id="path63"
     inkscape:connector-curvature="0"
     style="fill:#4e4e4e" /><path
     d="m 21.136689,45.530195 c -0.119,0 -0.233,-0.063 -0.294,-0.175 -0.089,-0.162 -0.029,-0.366 0.133,-0.455 l 5.255,-2.868 c -0.655,-0.652 -1.614,-1.471 -2.122,-1.56 -0.616,-0.108 -2.517,0.446 -3.574,0.818 -0.175,0.063 -0.366,-0.03 -0.427,-0.204 -0.062,-0.175 0.03,-0.366 0.204,-0.427 0.297,-0.105 2.93,-1.019 3.911,-0.847 1.01,0.175 2.618,1.881 2.798,2.074 0.07,0.076 0.102,0.18 0.085,0.282 -0.017,0.102 -0.079,0.19 -0.17,0.24 l -5.642,3.079 c -0.048,0.03 -0.103,0.043 -0.157,0.043 z"
     id="path65"
     inkscape:connector-curvature="0"
     style="fill:#4e4e4e" /><path
     d="m 23.759689,48.108195 c -0.092,0 -0.183,-0.038 -0.246,-0.108 l -1.843,-2.005 c -0.068,-0.075 -0.099,-0.175 -0.085,-0.274 0.014,-0.099 0.073,-0.188 0.16,-0.239 l 5.202,-3.108 c 0.095,-0.056 0.211,-0.063 0.312,-0.017 0.099,0.046 0.17,0.137 0.189,0.245 0,-0.001 0,-0.001 0,-0.001 0.006,0 0.075,0.135 0.342,0.36 0.371,0.315 0.718,0.463 0.721,0.465 0.116,0.049 0.195,0.159 0.204,0.285 0.009,0.125 -0.052,0.245 -0.161,0.311 -0.015,0.009 -1.551,0.94 -2.782,1.886 -1.176,0.904 -1.704,1.999 -1.71,2.01 -0.048,0.101 -0.143,0.171 -0.252,0.188 -0.017,0 -0.035,0.002 -0.051,0.002 z m -1.318,-2.264 1.254,1.364 c 0.281,-0.449 0.82,-1.181 1.669,-1.833 0.842,-0.648 1.797,-1.273 2.36,-1.629 -0.115,-0.077 -0.24,-0.168 -0.368,-0.276 -0.157,-0.133 -0.27,-0.25 -0.353,-0.352 l -4.562,2.726 z"
     id="path67"
     inkscape:connector-curvature="0"
     style="fill:#4e4e4e" /><path
     d="m 29.532689,49.982195 0,0 c -0.267,0 -0.641,-0.007 -1.165,-0.029 -1.583,-0.066 -2.369,-0.33 -2.401,-0.342 -0.136,-0.047 -0.228,-0.175 -0.226,-0.32 0,-0.001 0.011,-1.097 0,-2.225 -0.011,-1.108 0.47,-2.004 1.356,-2.524 0.668,-0.392 1.84,-0.93 1.89,-0.953 0.098,-0.045 0.211,-0.04 0.304,0.013 0.093,0.053 0.156,0.148 0.168,0.255 l 0.177,1.649 c 0.173,1.603 0.839,3.996 0.846,4.021 0.049,0.177 -0.053,0.361 -0.231,0.412 -0.119,0.035 -0.457,0.043 -0.718,0.043 z m -3.121,-0.943 c 0.321,0.077 0.981,0.203 1.984,0.244 0.511,0.021 0.876,0.029 1.137,0.029 l 0,0 c 0.076,0 0.141,-0.001 0.198,-0.002 -0.201,-0.762 -0.622,-2.457 -0.76,-3.731 l -0.127,-1.182 c -0.405,0.193 -1.011,0.491 -1.408,0.724 -0.474,0.278 -1.036,0.84 -1.025,1.939 0.006,0.802 0.003,1.587 10e-4,1.979 z"
     id="path69"
     inkscape:connector-curvature="0"
     style="fill:#4e4e4e" /><path
     d="m 30.965689,49.790195 c -0.146,0 -0.278,-0.096 -0.321,-0.241 -0.007,-0.021 -0.595,-2.036 -0.978,-3.807 -0.411,-1.899 -0.336,-2.036 -0.283,-2.137 0.041,-0.076 0.109,-0.133 0.191,-0.16 0.023,-0.007 0.233,-0.073 0.515,-0.073 0.663,0 1.165,0.348 1.414,0.98 0.446,1.132 0.808,1.779 1.21,2.164 0.534,0.51 0.874,1.557 0.91,1.674 0.017,0.055 0.02,0.114 0.007,0.17 -0.037,0.173 -0.336,1.051 -2.614,1.424 -0.014,0.005 -0.032,0.006 -0.051,0.006 z m -0.937,-5.745 c 0.03,0.234 0.105,0.692 0.293,1.558 0.292,1.352 0.707,2.853 0.883,3.471 1.245,-0.25 1.633,-0.647 1.742,-0.803 -0.119,-0.338 -0.388,-0.977 -0.692,-1.268 -0.484,-0.462 -0.882,-1.158 -1.372,-2.402 -0.147,-0.374 -0.406,-0.556 -0.79,-0.556 -0.023,-0.002 -0.043,-0.002 -0.064,0 z"
     id="path71"
     inkscape:connector-curvature="0"
     style="fill:#4e4e4e" /><path
     d="m 35.286689,46.997195 c -0.118,0 -0.237,-0.024 -0.366,-0.075 -0.102,-0.039 -0.235,-0.082 -0.39,-0.132 -0.742,-0.238 -1.982,-0.636 -2.777,-1.581 -1.009,-1.198 -0.416,-2.966 -0.39,-3.041 0.03,-0.086 0.092,-0.155 0.174,-0.194 0.082,-0.039 0.175,-0.042 0.26,-0.01 2.031,0.765 5.056,0.787 5.394,0.787 l 0.046,0 c 0.103,-0.004 0.202,0.046 0.266,0.128 0.064,0.081 0.087,0.188 0.062,0.288 -0.009,0.038 -0.242,0.955 -0.833,2.135 l -0.081,0.162 c -0.478,0.956 -0.766,1.533 -1.365,1.533 z m -3.374,-4.284 c -0.099,0.489 -0.19,1.42 0.353,2.064 0.672,0.797 1.755,1.145 2.47,1.376 0.17,0.054 0.316,0.102 0.427,0.145 0.049,0.019 0.091,0.029 0.123,0.029 0.185,0 0.441,-0.512 0.765,-1.162 l 0.081,-0.163 c 0.329,-0.654 0.539,-1.224 0.659,-1.587 -0.961,-0.021 -3.138,-0.135 -4.878,-0.702 z"
     id="path73"
     inkscape:connector-curvature="0"
     style="fill:#4e4e4e" /><path
     d="m 36.167689,42.692195 c -0.371,0 -0.826,-0.027 -1.353,-0.082 -2.554,-0.262 -3.281,-0.84 -3.356,-0.905 -0.097,-0.085 -0.136,-0.217 -0.102,-0.341 l 0,0 c 0,0 0.022,-0.133 -0.01,-0.442 -0.041,-0.395 -0.216,-0.557 -0.223,-0.564 -0.12,-0.109 -0.148,-0.293 -0.062,-0.431 0.088,-0.137 0.258,-0.194 0.408,-0.133 0.534,0.223 1.123,0.336 1.75,0.336 1.864,0 3.474,-0.99 3.49,-1 0.077,-0.048 0.168,-0.062 0.255,-0.042 0.087,0.021 0.162,0.076 0.209,0.152 0.026,0.044 0.263,0.453 0.401,1.301 0.121,0.753 0.032,1.398 0.004,1.564 -0.003,0.086 -0.034,0.174 -0.091,0.248 -0.176,0.235 -0.583,0.339 -1.32,0.339 z m -4.135,-1.411 c 0.288,0.151 1.093,0.483 2.85,0.664 0.506,0.052 0.938,0.078 1.285,0.078 0.458,0 0.668,-0.046 0.756,-0.075 0.026,-0.186 0.083,-0.708 -0.012,-1.299 -0.054,-0.334 -0.125,-0.587 -0.187,-0.762 -0.608,0.315 -1.962,0.914 -3.506,0.914 -0.427,0 -0.841,-0.047 -1.236,-0.139 0.012,0.06 0.021,0.123 0.029,0.19 0.02,0.181 0.024,0.322 0.021,0.429 z"
     id="path75"
     inkscape:connector-curvature="0"
     style="fill:#4e4e4e" /><circle
     cx="29.302687"
     cy="41.485195"
     r="0.625"
     id="circle77"
     style="fill:#4e4e4e" /><path
     d="m 17.381689,40.438195 c -0.028,0 -0.056,-0.004 -0.084,-0.011 -0.178,-0.047 -0.286,-0.228 -0.24,-0.407 0.021,-0.082 0.542,-2.029 2.679,-3.233 0.162,-0.091 0.366,-0.034 0.455,0.127 0.091,0.161 0.034,0.365 -0.127,0.455 -1.879,1.058 -2.356,2.8 -2.36,2.817 -0.038,0.152 -0.174,0.252 -0.323,0.252 z"
     id="path79"
     inkscape:connector-curvature="0"
     style="fill:#4e4e4e" /><path
     d="m 18.307689,36.998195 c -0.073,0 -0.146,-0.023 -0.207,-0.072 -0.145,-0.115 -0.171,-0.325 -0.056,-0.469 0.055,-0.07 1.374,-1.728 3.245,-2.576 0.167,-0.076 0.366,-0.002 0.442,0.167 0.077,0.168 0.002,0.367 -0.166,0.443 -1.719,0.779 -2.984,2.364 -2.996,2.38 -0.065,0.083 -0.163,0.127 -0.262,0.127 z"
     id="path81"
     inkscape:connector-curvature="0"
     style="fill:#4e4e4e" /><path
     d="m 20.396689,33.786195 c -0.103,0 -0.204,-0.047 -0.27,-0.136 -0.11,-0.148 -0.078,-0.358 0.071,-0.468 0.062,-0.046 1.539,-1.126 3.56,-1.741 0.178,-0.055 0.364,0.046 0.418,0.222 0.053,0.176 -0.046,0.364 -0.223,0.418 -1.911,0.582 -3.343,1.629 -3.357,1.64 -0.06,0.043 -0.13,0.065 -0.199,0.065 z"
     id="path83"
     inkscape:connector-curvature="0"
     style="fill:#4e4e4e" /><path
     d="m 37.853689,47.980195 c -0.124,0 -0.243,-0.069 -0.301,-0.188 -0.081,-0.166 -0.013,-0.367 0.153,-0.448 1.483,-0.728 2.455,-2.174 2.465,-2.189 0.103,-0.154 0.309,-0.196 0.464,-0.093 0.154,0.102 0.196,0.31 0.093,0.464 -0.044,0.065 -1.084,1.613 -2.728,2.419 -0.047,0.025 -0.097,0.035 -0.146,0.035 z"
     id="path85"
     inkscape:connector-curvature="0"
     style="fill:#4e4e4e" /><path
     d="m 35.688689,50.470195 c -0.154,0 -0.292,-0.107 -0.327,-0.263 -0.039,-0.181 0.075,-0.358 0.256,-0.399 2.066,-0.45 2.939,-1.56 2.947,-1.571 0.112,-0.146 0.322,-0.175 0.469,-0.063 0.147,0.112 0.176,0.32 0.065,0.468 -0.04,0.053 -1.013,1.315 -3.338,1.821 -0.025,0.005 -0.048,0.007 -0.072,0.007 z"
     id="path87"
     inkscape:connector-curvature="0"
     style="fill:#4e4e4e" /><path
     d="m 32.092689,52.381195 c -0.105,0 -0.213,-10e-4 -0.324,-0.004 -0.185,-0.005 -0.331,-0.158 -0.327,-0.343 0.005,-0.185 0.172,-0.329 0.343,-0.327 2.632,0.06 3.699,-0.673 3.709,-0.68 0.15,-0.105 0.358,-0.073 0.467,0.076 0.107,0.149 0.077,0.356 -0.072,0.465 -0.048,0.036 -1.138,0.813 -3.796,0.813 z"
     id="path89"
     inkscape:connector-curvature="0"
     style="fill:#4e4e4e" /><path
     d="m 1.574689,40.478195 c -0.137,0 -0.265,-0.085 -0.315,-0.22 l -0.46899999,-1.294 c -0.063,-0.174 0.027,-0.366 0.201,-0.428 0.17499999,-0.063 0.36599999,0.027 0.42799999,0.201 l 0.469,1.294 c 0.063,0.174 -0.027,0.366 -0.201,0.428 -0.037,0.013 -0.075,0.019 -0.113,0.019 z"
     id="path91"
     inkscape:connector-curvature="0"
     style="fill:#4e4e4e" /><path
     d="m 2.965689,42.692195 c -0.01,0 -0.021,0 -0.031,-10e-4 -0.066,-0.007 -1.639,-0.152 -2.54299999,-0.487 -0.297,-0.11 -0.427,-0.276 -0.382,-0.494 0.053,-0.266 0.09,-0.458 2.39399999,-0.364 0.184,0.007 0.329,0.163 0.32,0.348 -0.005,0.122 -0.075,0.227 -0.175,0.281 0.264,0.034 0.441,0.049 0.447,0.05 0.184,0.017 0.319,0.18 0.302,0.364 -0.016,0.172 -0.161,0.303 -0.332,0.303 z"
     id="path93"
     inkscape:connector-curvature="0"
     style="fill:#4e4e4e" /><path
     d="m 44.516689,48.368195 c -0.042,0 -0.084,-0.007 -0.125,-0.024 -0.125,-0.05 -0.208,-0.171 -0.21,-0.306 -10e-4,-0.075 -0.112,-7.551 -1.658,-11.436 -0.358,-0.901 -3.768,-8.798 -13.043,-8.798 -8.07,0 -11.027,3.841 -12.7,7.187 -1.826,3.653 -1.281,10.088 -1.276,10.152 0.007,0.089 -0.02,0.176 -0.077,0.245 -0.057,0.068 -0.139,0.111 -0.228,0.119 -7.053,0.62 -13.097,-1.218 -14.053,-1.887 -0.87699999,-0.615 -1.12599999,-1.608 -1.13699999,-1.65 -0.044,-0.179 0.066,-0.36 0.246,-0.404 0.179,-0.044 0.36,0.066 0.404,0.245 l 0,0 c 0.002,0.007 0.205,0.794 0.87099999,1.261 0.628,0.441 6.273,2.342 13.281,1.795 -0.092,-1.406 -0.319,-6.8 1.369,-10.175 1.759,-3.518 4.861,-7.558 13.298,-7.558 7.379,0 11.974,4.967 13.666,9.22 0.477,1.198 0.82,2.699 1.069,4.221 0.05,-0.009 0.105,-0.007 0.159,0.01 0.921,0.287 1.318,0.794 1.772,2.258 0.426,1.372 1,2.666 1.005,2.679 0.056,0.125 0.029,0.273 -0.066,0.371 l -2.329,2.376 c -0.063,0.064 -0.15,0.099 -0.238,0.099 z m -0.195,-7.096 c 0.347,2.411 0.468,4.768 0.509,5.962 l 1.617,-1.651 c -0.182,-0.427 -0.602,-1.449 -0.942,-2.543 -0.397,-1.283 -0.685,-1.584 -1.184,-1.768 z"
     id="path95"
     inkscape:connector-curvature="0"
     style="fill:#4e4e4e" /><path
     d="m 7.065689,43.098195 c -0.185,0 -0.334,-0.149 -0.335,-0.334 0,-0.185 0.149,-0.335 0.334,-0.335 0.008,0 0.112,0 0.547,-0.012 -0.7,-0.041 -1.112,-0.073 -1.122,-0.073 -0.184,-0.014 -0.323,-0.175 -0.309,-0.359 0.014,-0.184 0.18,-0.323 0.359,-0.308 0.027,0.002 2.708,0.204 6.108,0.268 1.741,0.033 1.964,0.052 1.966,0.439 0.003,0.372 0.004,0.472 -4.137,0.613 -2.977,0.099 -3.395,0.101 -3.411,0.101 z"
     id="path97"
     inkscape:connector-curvature="0"
     style="fill:#4e4e4e" /><path
     d="m 14.280689,47.980195 c -0.087,0 -0.173,-0.034 -0.237,-0.099 -0.041,-0.041 -0.404,-0.426 -0.502,-1.176 -0.091,-0.694 -0.004,-1.378 0,-1.407 0.024,-0.183 0.189,-0.31 0.375,-0.288 0.183,0.024 0.313,0.191 0.289,0.375 -10e-4,0.007 -0.079,0.628 0,1.234 0.034,0.259 0.108,0.453 0.177,0.584 0.357,-0.193 1.029,-0.525 1.843,-0.763 l 0.153,-0.045 c 1.078,-0.315 1.217,-0.383 1.246,-1.067 0.007,-0.185 0.188,-0.323 0.349,-0.32 0.185,0.008 0.329,0.164 0.32,0.349 -0.051,1.189 -0.682,1.374 -1.727,1.68 l -0.152,0.045 c -1.108,0.327 -1.949,0.844 -1.957,0.849 -0.055,0.033 -0.115,0.049 -0.177,0.049 z"
     id="path99"
     inkscape:connector-curvature="0"
     style="fill:#4e4e4e" /><path
     d="m 39.151689,48.368195 c -0.103,0 -0.204,-0.048 -0.27,-0.137 -0.109,-0.148 -0.077,-0.358 0.072,-0.468 0.058,-0.042 1.433,-1.042 3.163,-1.428 1.734,-0.386 2.383,-0.026 2.495,0.049 0.153,0.104 0.193,0.312 0.089,0.465 -0.104,0.152 -0.312,0.192 -0.465,0.089 l 0,0 c -0.002,0 -0.517,-0.275 -1.974,0.049 -1.588,0.355 -2.899,1.305 -2.912,1.314 -0.06,0.046 -0.129,0.067 -0.198,0.067 z"
     id="path101"
     inkscape:connector-curvature="0"
     style="fill:#4e4e4e" /><path
     d="m 17.381689,20.901195 c -0.146,0 -0.28,-0.096 -0.322,-0.244 -0.05,-0.177 0.052,-0.363 0.231,-0.413 0.073,-0.021 7.406,-2.092 14.682,-2.885 0.184,-0.02 0.349,0.113 0.369,0.297 0.02,0.184 -0.112,0.349 -0.296,0.369 -7.222,0.787 -14.499,2.842 -14.572,2.862 -0.031,0.01 -0.062,0.014 -0.092,0.014 z"
     id="path103"
     inkscape:connector-curvature="0"
     style="fill:#4e4e4e" /><path
     d="m 18.712689,24.164195 c -0.151,0 -0.288,-0.103 -0.325,-0.257 -0.043,-0.179 0.067,-0.36 0.247,-0.403 0.066,-0.016 5.98,-1.425 13.149,-2.09 -3.951,0.173 -7.566,0.699 -11.367,1.253 -2.084,0.303 -4.238,0.618 -6.505,0.879 -0.184,0.021 -0.349,-0.111 -0.371,-0.294 -0.021,-0.184 0.111,-0.35 0.294,-0.371 2.257,-0.26 4.406,-0.574 6.485,-0.876 4.308,-0.628 8.377,-1.222 12.981,-1.308 6.623,-0.125 6.624,-0.049 6.641,0.369 0.017,0.418 0.02,0.471 -5.55,0.818 -8.207,0.51 -15.528,2.254 -15.601,2.271 -0.026,0.007 -0.052,0.009 -0.078,0.009 z"
     id="path105"
     inkscape:connector-curvature="0"
     style="fill:#4e4e4e" /><path
     d="m 17.305689,29.483195 c -0.066,0 -0.133,-0.02 -0.191,-0.06 -0.151,-0.105 -0.189,-0.315 -0.083,-0.466 0.134,-0.192 3.382,-4.702 12.172,-4.702 8.797,0 11.419,3.868 11.526,4.032 0.101,0.155 0.058,0.362 -0.098,0.463 -0.154,0.102 -0.362,0.057 -0.463,-0.098 -0.024,-0.036 -2.568,-3.728 -10.965,-3.728 -8.443,0 -11.592,4.371 -11.623,4.415 -0.065,0.095 -0.169,0.144 -0.275,0.144 z"
     id="path107"
     inkscape:connector-curvature="0"
     style="fill:#4e4e4e" /><path
     d="m 89.138689,21.321195 c -0.173,0 -0.319,-0.133 -0.333,-0.308 -0.015,-0.184 0.122,-0.345 0.307,-0.36 0.035,-0.003 3.514,-0.285 10.990001,-0.987 7.484,-0.704 15.963,-1.288 16.047,-1.294 0.188,-0.014 0.344,0.126 0.357,0.311 0.013,0.184 -0.126,0.344 -0.311,0.357 -0.085,0.006 -8.555,0.59 -16.031,1.293 -7.482001,0.704 -10.964001,0.986 -10.999001,0.988 -0.008,0 -0.017,0 -0.027,0 z"
     id="path109"
     inkscape:connector-curvature="0"
     style="fill:#4e4e4e" /><path
     d="m 49.651689,41.784195 c -0.13,0 -0.248,-0.076 -0.303,-0.194 -0.058,-0.125 -0.033,-0.273 0.063,-0.372 1.069,-1.111 2.076,-1.217 7.666,-1.808 0.774,-0.082 1.637,-0.173 2.601,-0.277 3.445,-0.373 8.56,-0.663 14.482,-0.998 7.461,-0.422 16.745,-0.947 26.396001,-1.848 5.397,-0.503 9.398,-0.759 11.893,-0.759 2.783,0 3.09,0.306 3.175,0.648 0.069,0.276 -0.133,0.495 -0.329,0.598 -0.065,0.05 -2.593,1.797 -11.248,2.637 -8.777001,0.851 -29.332001,1.686 -38.377001,1.811 -9.134,0.127 -15.928,0.557 -15.995,0.562 -0.01,-10e-4 -0.017,0 -0.024,0 z m 62.797001,-5.588 c -2.474,0 -6.455,0.254 -11.831,0.756 -9.663001,0.902 -18.954001,1.428 -26.420001,1.85 -5.913,0.335 -11.019,0.623 -14.447,0.995 -0.966,0.105 -1.829,0.196 -2.604,0.277 -3.828,0.404 -5.425,0.573 -6.351,0.972 2.326,-0.128 7.922,-0.399 14.863,-0.496 9.035,-0.125 29.562,-0.958 38.322001,-1.809 7.059,-0.685 9.968,-1.993 10.74,-2.409 -0.323,-0.063 -0.976,-0.136 -2.272,-0.136 z"
     id="path111"
     inkscape:connector-curvature="0"
     style="fill:#4e4e4e" /><path
     d="m 126.80469,18.329195 c -0.168,0 -0.313,-0.126 -0.332,-0.297 -0.021,-0.184 0.112,-0.349 0.295,-0.37 0.014,-0.002 1.478,-0.164 4.655,-0.307 0.175,-0.017 0.342,0.134 0.349,0.319 0.008,0.185 -0.134,0.341 -0.319,0.349 -3.15,0.142 -4.595,0.301 -4.609,0.303 -0.013,0.002 -0.026,0.003 -0.039,0.003 z"
     id="path113"
     inkscape:connector-curvature="0"
     style="fill:#4e4e4e" /><path
     d="m 133.80969,17.925195 c -0.179,0 -0.328,-0.142 -0.334,-0.323 -0.007,-0.185 0.137,-0.34 0.322,-0.346 l 0.709,-0.026 c 0.926,-0.035 1.673,-0.063 2.671,-0.08 0.002,0 0.004,0 0.006,0 0.182,0 0.331,0.147 0.335,0.329 0.003,0.185 -0.145,0.337 -0.329,0.341 -0.992,0.017 -1.737,0.045 -2.657,0.08 l -0.71,0.026 c -0.004,-0.001 -0.009,-0.001 -0.013,-0.001 z"
     id="path115"
     inkscape:connector-curvature="0"
     style="fill:#4e4e4e" /><path
     d="m 150.12369,17.811195 c -0.001,0 -0.002,0 -0.003,0 -0.057,0 -5.798,-0.057 -10.875,-0.01 -0.203,0.008 -0.336,-0.147 -0.338,-0.331 -0.002,-0.185 0.147,-0.336 0.331,-0.338 4.419,-0.039 9.336,-0.003 10.586,0.008 0.017,-0.045 0.039,-0.088 0.066,-0.128 0.281,-0.425 0.987,-0.56 2.159,-0.786 0.955,-0.184 2.143,-0.413 3.39,-0.874 1.716,-0.635 2.65,-1.175 2.629,-1.521 -0.01,-0.194 -0.032,-0.594 -1.74,-0.627 -2.315,-0.046 -6.282,-0.647 -10.611,-1.609 l -0.196,-0.044 c -3.595,-0.798 -3.595,-0.798 -10.496,-3.6159997 -1.655,-0.676 -3.708,-1.514 -6.304,-2.565 -12.691,-5.13700003 -32.626001,-5.39400003 -47.050001,-3.923 -11.938,1.218 -17.306,3.521 -27.051,7.701 l -1.701,0.729 c -10.61,4.5379997 -15.207,6.5749997 -15.253,6.5949997 -0.168,0.075 -0.367,-10e-4 -0.441,-0.17 -0.075,-0.169 10e-4,-0.367 0.171,-0.441 0.045,-0.02 4.646,-2.058 15.26,-6.5979997 l 1.7,-0.729 c 9.806,-4.206 15.208,-6.524 27.246,-7.75300003 14.504,-1.48 34.565001,-1.215 47.369001,3.96700003 2.598,1.052 4.651,1.89 6.306,2.566 6.848,2.7959997 6.848,2.7959997 10.388,3.5829997 l 0.197,0.044 c 4.224,0.939 8.239,1.549 10.479,1.592 1.634,0.032 2.35,0.402 2.394,1.238 0.033,0.54 -0.178,1.14 -3.064,2.207 -1.298,0.48 -2.516,0.714 -3.495,0.902 -0.698,0.134 -1.656,0.319 -1.728,0.501 0.021,0.099 -0.003,0.215 -0.066,0.293 -0.064,0.081 -0.158,0.137 -0.259,0.137 z"
     id="path117"
     inkscape:connector-curvature="0"
     style="fill:#4e4e4e" /><path
     d="m 41.100689,19.844195 c -1.037,0 -1.695,-0.204 -1.823,-1.091 -0.213,-1.473 2.147,-2.514 5.134,-3.832 1.162,-0.512 2.364,-1.042 3.44,-1.619 l 0.429,-0.231 c 13.886,-7.5119997 29.374,-11.3209997 46.033,-11.3209997 21.634001,0 31.200001,3.771 34.976001,6.02 0.072,0.043 0.131,0.077 0.175,0.103 0.933,0.525 1.935,1.388 1.388,3.4189997 -0.473,1.757 -1.79,2.958 -1.845,3.008 -0.059,0.052 -0.133,0.082 -0.211,0.086 -0.219,0.008 -22.123,0.846 -33.885001,1.358 -11.757,0.511 -31.672,2.053 -31.871,2.069 -0.176,0.02 -0.344,-0.123 -0.359,-0.308 -0.014,-0.184 0.124,-0.345 0.308,-0.359 0.2,-0.016 20.125,-1.559 31.895,-2.07 11.295001,-0.491 31.940001,-1.283 33.761001,-1.353 0.284,-0.283 1.208,-1.282 1.563,-2.603 0.401,-1.4899997 -0.112,-2.1219997 -1.07,-2.6609997 -0.049,-0.027 -0.111,-0.064 -0.189,-0.111 -3.717,-2.213 -13.16,-5.925 -34.634001,-5.925 -16.546,0 -31.926,3.782 -45.715,11.2389997 l -0.432,0.233 c -1.099,0.589 -2.313,1.124 -3.487,1.642 -2.4,1.059 -4.882,2.154 -4.742,3.125 0.079,0.553 0.568,0.581 2.464,0.456 l 0.476,-0.031 c 2.04,-0.128 12.175,-1.089 12.276,-1.098 0.192,-0.017 0.348,0.118 0.365,0.301 0.018,0.184 -0.118,0.347 -0.301,0.365 -0.103,0.01 -10.247,0.972 -12.299,1.1 l -0.474,0.031 c -0.498,0.028 -0.95,0.058 -1.346,0.058 z"
     id="path119"
     inkscape:connector-curvature="0"
     style="fill:#4e4e4e" /><path
     d="m 41.785689,19.822195 c -0.065,0 -0.132,-0.02 -0.189,-0.06 -0.202,-0.14 -0.537,-0.506 -0.514,-0.986 0.023,-0.497 0.405,-0.958 1.136,-1.374 0.999,-0.567 10.099,-5.667 21.912,-9.8769997 11.232,-4.002 27.934,-4.734 28.101,-4.74 0.12,-0.004 0.22,0.048 0.286,0.14 0.066,0.091 0.081,0.21 0.04,0.315 l -4.903,12.6819997 c -0.066,0.173 -0.26,0.258 -0.433,0.191 -0.173,-0.067 -0.258,-0.26 -0.191,-0.433 l 4.716,-12.1989997 c -2.889,0.157 -17.361,1.101 -27.392,4.676 -11.76,4.1899997 -20.812,9.2639997 -21.806,9.8279997 -0.5,0.285 -0.784,0.576 -0.797,0.819 -0.013,0.231 0.229,0.41 0.231,0.412 0.148,0.108 0.184,0.316 0.077,0.466 -0.066,0.09 -0.17,0.14 -0.274,0.14 z"
     id="path121"
     inkscape:connector-curvature="0"
     style="fill:#4e4e4e" /><path
     d="m 91.145689,42.927195 c -0.152,0 -0.289,-0.105 -0.326,-0.259 -1.237,-5.34 -1.078,-12.219 -0.85,-16.93 0.249,-5.159 1.821,-9.909 1.95,-10.291 l 2.518,-13.4239997 c 0.034,-0.182 0.209,-0.301 0.391,-0.267 0.181,0.035 0.301,0.209 0.267,0.391 l -2.523,13.4479997 c -0.003,0.017 -0.007,0.033 -0.013,0.048 -0.017,0.049 -1.669,4.875 -1.922,10.129 -0.225,4.67 -0.384,11.487 0.834,16.747 0.042,0.18 -0.071,0.359 -0.25,0.401 -0.025,0.004 -0.051,0.007 -0.076,0.007 z"
     id="path123"
     inkscape:connector-curvature="0"
     style="fill:#4e4e4e" /><path
     d="m 95.546689,15.714195 c -0.011,0 -0.022,-10e-4 -0.035,-0.002 -0.184,-0.019 -0.317,-0.183 -0.299,-0.367 l 1.356,-13.2749997 c 0.019,-0.184 0.189,-0.316 0.367,-0.299 0.184,0.019 0.317,0.183 0.299,0.367 l -1.356,13.2749997 c -0.016,0.172 -0.162,0.301 -0.332,0.301 z"
     id="path125"
     inkscape:connector-curvature="0"
     style="fill:#4e4e4e" /><path
     d="m 96.225689,15.714195 c -0.011,0 -0.023,-10e-4 -0.035,-0.002 -0.184,-0.019 -0.317,-0.183 -0.299,-0.367 l 1.356,-13.2749997 c 0.019,-0.184 0.185,-0.316 0.367,-0.299 0.184,0.019 0.317,0.183 0.299,0.367 l -1.356,13.2749997 c -0.017,0.172 -0.162,0.301 -0.332,0.301 z"
     id="path127"
     inkscape:connector-curvature="0"
     style="fill:#4e4e4e" /><path
     d="m 118.95469,14.448195 c -0.014,0 -0.027,-10e-4 -0.042,-0.003 -0.183,-0.022 -0.314,-0.189 -0.29,-0.373 l 1.002,-8.0859997 c -0.429,-0.132 -1.847,-0.505 -6.096,-1.244 -5.857,-1.019 -15.855001,-1.286 -15.955001,-1.289 -0.185,-0.005 -0.33,-0.158 -0.326,-0.343 0.005,-0.182 0.154,-0.326 0.335,-0.326 0.003,0 0.006,0 0.008,0 0.101,0.003 10.148001,0.271 16.053001,1.298 5.59,0.972 6.418,1.329 6.539,1.415 0.1,0.072 0.153,0.191 0.138,0.314 l -1.034,8.3429997 c -0.022,0.17 -0.166,0.294 -0.332,0.294 z"
     id="path129"
     inkscape:connector-curvature="0"
     style="fill:#4e4e4e" /><path
     d="m 119.98869,14.448195 c -0.011,0 -0.023,-10e-4 -0.035,-0.002 -0.184,-0.019 -0.317,-0.183 -0.299,-0.367 l 0.841,-8.2129997 c 0.009,-0.095 0.06,-0.182 0.138,-0.238 0.078,-0.056 0.177,-0.077 0.27,-0.054 0.147,0.034 3.638,0.851 6.103,2.232 2.246,1.26 1.834,2.6869997 1.329,3.6519997 -0.524,1 -1.88,2.782 -1.937,2.858 -0.112,0.147 -0.321,0.175 -0.469,0.063 -0.147,-0.112 -0.175,-0.322 -0.063,-0.469 0.014,-0.018 1.378,-1.812 1.877,-2.763 0.424,-0.808 0.725,-1.7539997 -1.064,-2.7569997 -1.926,-1.08 -4.59,-1.824 -5.557,-2.073 l -0.802,7.8289997 c -0.017,0.173 -0.162,0.302 -0.332,0.302 z"
     id="path131"
     inkscape:connector-curvature="0"
     style="fill:#4e4e4e" /><path
     d="m 159.45169,24.894195 c -0.027,0 -0.054,-0.003 -0.081,-0.01 -0.179,-0.045 -0.288,-0.227 -0.244,-0.406 0.092,-0.372 0.296,-1.448 0.123,-1.946 -0.05,-0.089 -0.231,-0.231 -0.509,-0.412 -0.041,-0.016 -0.079,-0.04 -0.11,-0.07 -1.004,-0.632 -3.036,-1.661 -4.878,-2.5 -1.044,-0.386 -1.098,-0.635 -1.061,-0.855 0.059,-0.352 0.476,-0.362 0.633,-0.367 0.685,-0.013 1.133,0.175 1.948,0.524 0.441,0.189 0.991,0.424 1.766,0.71 2.08,0.768 2.249,1.407 2.178,2.093 0.363,0.259 0.606,0.485 0.665,0.658 0.268,0.775 -0.067,2.17 -0.106,2.326 -0.037,0.154 -0.173,0.255 -0.324,0.255 z m -3.335,-4.967 c 0.846,0.415 1.695,0.858 2.374,1.262 -0.144,-0.267 -0.559,-0.583 -1.683,-0.998 -0.252,-0.094 -0.482,-0.182 -0.691,-0.264 z"
     id="path133"
     inkscape:connector-curvature="0"
     style="fill:#4e4e4e" /><path
     d="m 159.66769,23.130195 c -0.001,0 -0.002,0 -0.003,0 -0.185,-0.002 -0.333,-0.153 -0.331,-0.338 0,-0.023 0.02,-2.309 -0.016,-2.97 -0.007,-0.145 -0.007,-0.294 -0.004,-0.453 0.008,-0.587 0.019,-1.253 -0.511,-2.383 -0.675,-1.443 -1.233,-2.159 -1.238,-2.166 -0.114,-0.145 -0.09,-0.356 0.056,-0.469 0.145,-0.115 0.356,-0.09 0.469,0.055 0.025,0.031 0.608,0.776 1.32,2.297 0.594,1.268 0.582,2.049 0.573,2.676 -0.002,0.143 -0.004,0.276 0.003,0.407 0.036,0.682 0.018,2.917 0.017,3.013 -0.002,0.183 -0.152,0.331 -0.335,0.331 z"
     id="path135"
     inkscape:connector-curvature="0"
     style="fill:#4e4e4e" /><path
     d="m 158.74769,21.285195 c -0.166,0 -0.311,-0.124 -0.331,-0.294 -0.067,-0.549 -0.296,-2.095 -0.538,-2.655 -0.266,-0.613 -0.368,-0.725 -1.175,-0.913 -0.7,-0.162 -4.877,-0.049 -6.427,0.008 -0.131,0.005 -0.255,-0.069 -0.313,-0.188 -0.058,-0.119 -0.041,-0.26 0.044,-0.362 0.813,-0.971 2.777,-1.66 4.509,-2.269 0.618,-0.217 1.201,-0.422 1.695,-0.625 0.748,-0.307 0.771,-0.517 0.771,-0.52 0.001,-0.069 -0.177,-0.214 -0.316,-0.275 -0.169,-0.076 -0.245,-0.273 -0.17,-0.441 0.076,-0.169 0.273,-0.245 0.442,-0.17 0.074,0.033 0.72,0.337 0.712,0.896 -0.007,0.434 -0.394,0.803 -1.185,1.128 -0.51,0.21 -1.101,0.417 -1.727,0.637 -1.246,0.438 -2.617,0.918 -3.514,1.485 1.685,-0.05 4.92,-0.124 5.63,0.041 0.983,0.229 1.274,0.459 1.638,1.298 0.33,0.763 0.578,2.755 0.588,2.84 0.022,0.184 -0.107,0.35 -0.291,0.373 -0.015,0.005 -0.029,0.006 -0.042,0.006 z"
     id="path137"
     inkscape:connector-curvature="0"
     style="fill:#4e4e4e" /><path
     d="m 115.13769,17.254195 c -0.163,0 -0.306,-0.119 -0.33,-0.286 -0.027,-0.183 0.099,-0.353 0.283,-0.38 0.11,-0.016 11.149,-1.63 21.051,-1.63 9.856,0 16.102,-0.671 16.163,-0.678 0.19,-0.018 0.349,0.113 0.369,0.296 0.021,0.184 -0.112,0.349 -0.296,0.369 -0.063,0.007 -6.342,0.681 -16.237,0.681 -9.853,0 -20.843,1.606 -20.953,1.623 -0.018,0.004 -0.035,0.005 -0.05,0.005 z"
     id="path139"
     inkscape:connector-curvature="0"
     style="fill:#4e4e4e" /><path
     d="m 54.074689,43.904195 c -0.804,0 -1.631,-0.023 -2.498,-0.079 -4.625,-0.299 -4.821,-4.158 -4.979,-7.259 -0.024,-0.482 -0.049,-0.954 -0.087,-1.405 -0.065,-0.755 -0.122,-1.337 -0.172,-1.84 -0.175,-1.771 -0.255,-2.58 -0.217,-6.455 0.046,-4.745 1.603,-7.649 1.823,-8.036 l 1.392,-4.983 c 0.05,-0.177 0.233,-0.283 0.413,-0.232 0.177,0.049 0.282,0.234 0.232,0.413 l -1.404,5.024 c -0.007,0.028 -0.02,0.056 -0.035,0.081 -0.018,0.029 -1.706,2.937 -1.753,7.741 -0.038,3.839 0.041,4.636 0.214,6.383 0.05,0.506 0.108,1.091 0.173,1.85 0.039,0.457 0.063,0.938 0.089,1.428 0.159,3.129 0.323,6.365 4.353,6.625 2.71,0.175 5.033,0.021 7.492,-0.142 2.127,-0.141 4.327,-0.286 7.088,-0.264 3.017,0.025 8.51,-0.111 14.324,-0.254 5.805,-0.143 12.386,-0.304 17.444,-0.329 2.722001,-0.014 5.055001,0.047 7.113001,0.1 5.383,0.139 8.347,0.216 9.344,-1.262 0.48,-0.711 0.778,-1.727 1.125,-2.905 0.686,-2.333 1.626,-5.529 4.737,-8.64 1.892,-1.892 3.081,-2.62 3.95,-3.152 1.213,-0.743 1.768,-1.082 2.911,-4.009 1.923,-4.926 1.316,-8.155 1.309,-8.188 -0.036,-0.181 0.081,-0.357 0.262,-0.394 0.182,-0.035 0.357,0.08 0.394,0.261 0.028,0.138 0.659,3.437 -1.342,8.563 -1.224,3.138 -1.88,3.538 -3.185,4.337 -0.84,0.514 -1.99,1.218 -3.826,3.054 -2.99,2.99 -3.865,5.966 -4.568,8.356 -0.362,1.231 -0.674,2.293 -1.211,3.09 -1.201,1.783 -4.297,1.702 -9.916,1.558 -2.053,-0.053 -4.38,-0.115 -7.091001,-0.1 -5.053,0.024 -11.629,0.186 -17.431,0.329 -5.819,0.143 -11.316,0.279 -14.345,0.254 -2.743,-0.024 -4.924,0.122 -7.039,0.262 -1.702,0.111 -3.337,0.219 -5.083,0.219 z"
     id="path141"
     inkscape:connector-curvature="0"
     style="fill:#4e4e4e" /><path
     d="m 50.362689,19.103195 c -0.014,0 -0.028,-0.001 -0.043,-0.003 -0.184,-0.023 -0.313,-0.19 -0.289,-0.374 l 0.699,-5.495 c 0.023,-0.184 0.189,-0.315 0.374,-0.289 0.184,0.023 0.313,0.191 0.289,0.374 l -0.699,5.495 c -0.022,0.168 -0.165,0.292 -0.331,0.292 z"
     id="path143"
     inkscape:connector-curvature="0"
     style="fill:#4e4e4e" /><path
     d="m 58.073689,21.715195 -2.086,0 c -0.714,0 -1.164,-0.207 -1.551,-0.713 -0.112,-0.147 -0.084,-0.357 0.063,-0.469 0.147,-0.113 0.357,-0.084 0.469,0.063 0.229,0.299 0.449,0.451 1.019,0.451 l 2.086,0 c 0.088,-0.003 0.551,-0.046 0.612,-0.668 0.094,-0.944 0.102,-3.267 0.102,-3.291 0,-0.185 0.15,-0.334 0.335,-0.334 0,0 0,0 10e-4,0 0.185,0 0.334,0.151 0.334,0.336 0,0.097 -0.007,2.38 -0.105,3.355 -0.101,1.005 -0.881,1.27 -1.279,1.27 z"
     id="path145"
     inkscape:connector-curvature="0"
     style="fill:#4e4e4e" /><path
     d="m 58.693689,17.253195 c -2.204,0 -3.574,-1.057 -3.574,-2.76 0,-0.185 0.15,-0.335 0.335,-0.335 0.185,0 0.335,0.15 0.335,0.335 0,1.309 1.085,2.091 2.904,2.091 2.131,0 3.488,-0.804 3.631,-2.15 0.06,-0.562 -0.128,-1.087 -0.542,-1.52 -0.568,-0.594 -1.485,-0.91 -2.451,-0.851 -0.181,0.009 -0.343,-0.129 -0.356,-0.313 -0.011,-0.185 0.129,-0.343 0.314,-0.355 1.159,-0.072 2.273,0.322 2.976,1.056 0.547,0.571 0.804,1.3 0.724,2.053 -0.183,1.721 -1.788,2.749 -4.296,2.749 z"
     id="path147"
     inkscape:connector-curvature="0"
     style="fill:#4e4e4e" /><path
     d="m 58.199689,16.459195 c -0.667,0 -1.297,-0.22 -1.743,-0.621 -0.425,-0.382 -0.65,-0.893 -0.634,-1.441 0.037,-1.24 1.113,-2.06 2.879,-2.193 1.095,-0.082 2.634,-0.024 3.379,1.434 0.084,0.164 0.019,0.366 -0.146,0.45 -0.165,0.085 -0.367,0.019 -0.451,-0.146 -0.441,-0.862 -1.259,-1.181 -2.733,-1.07 -1.389,0.105 -2.234,0.683 -2.26,1.546 -0.013,0.446 0.217,0.748 0.412,0.924 0.394,0.354 1,0.513 1.625,0.427 0.183,-0.026 0.352,0.103 0.378,0.286 0.025,0.183 -0.103,0.352 -0.286,0.377 -0.14,0.018 -0.281,0.027 -0.42,0.027 z"
     id="path149"
     inkscape:connector-curvature="0"
     style="fill:#4e4e4e" /><path
     d="m 55.187689,21.376195 c -0.027,0 -0.055,-0.004 -0.082,-0.01 -0.179,-0.046 -0.288,-0.227 -0.243,-0.407 l 1.18,-4.664 c 0.046,-0.179 0.23,-0.287 0.407,-0.243 0.179,0.046 0.288,0.227 0.243,0.407 l -1.18,4.664 c -0.039,0.152 -0.175,0.253 -0.325,0.253 z"
     id="path151"
     inkscape:connector-curvature="0"
     style="fill:#4e4e4e" /><path
     d="m 54.847689,19.747195 c -0.05,0 -0.101,-0.011 -0.149,-0.035 -0.165,-0.083 -0.232,-0.284 -0.149,-0.449 l 1.519,-3.035 c 0.083,-0.165 0.283,-0.231 0.449,-0.149 0.165,0.083 0.232,0.284 0.149,0.449 l -1.519,3.035 c -0.059,0.117 -0.177,0.184 -0.3,0.184 z"
     id="path153"
     inkscape:connector-curvature="0"
     style="fill:#4e4e4e" /><path
     d="m 62.668689,14.654195 -6.413,0 c -0.185,0 -0.335,-0.15 -0.335,-0.335 0,-0.185 0.15,-0.335 0.335,-0.335 l 6.413,0 c 0.185,0 0.335,0.15 0.335,0.335 -0.001,0.185 -0.15,0.335 -0.335,0.335 z"
     id="path155"
     inkscape:connector-curvature="0"
     style="fill:#4e4e4e" /><path
     d="m 135.65469,22.273195 c -0.002,0 -0.004,0 -0.005,0 -0.036,-0.001 -3.616,-0.093 -3.773,-3.594 -0.035,-0.794 0.179,-1.441 0.638,-1.923 0.693,-0.726 1.755,-0.878 2.522,-0.878 1.095,0 2.288,0.318 2.902,0.773 0.784,0.581 1.319,2.266 0.861,3.651 -0.242,0.736 -0.974,1.971 -3.145,1.971 z m -0.617,-5.726 c -0.901,0 -1.624,0.239 -2.038,0.671 -0.329,0.343 -0.481,0.825 -0.455,1.43 0.13,2.862 2.961,2.953 3.112,2.955 1.314,-0.001 2.181,-0.524 2.508,-1.512 0.358,-1.086 -0.048,-2.476 -0.623,-2.903 -0.42,-0.31 -1.44,-0.641 -2.504,-0.641 z"
     id="path157"
     inkscape:connector-curvature="0"
     style="fill:#4e4e4e" /><path
     d="m 117.96069,20.632195 0,0 c -0.063,0 -0.125,-0.003 -0.188,-0.009 -1.009,-0.101 -1.587,-0.469 -1.587,-1.012 0,-1.617 2.851,-1.797 4.738,-1.915 0.19,-0.012 0.365,-0.023 0.519,-0.035 0.637,-0.049 1.321,-0.093 2.014,-0.093 1.852,0 2.81,0.332 3.014,1.046 0.081,0.284 0.048,0.561 -0.099,0.8 -0.357,0.587 -1.336,0.848 -2.146,1.011 -0.587,0.118 -1.214,0.032 -1.854,-0.08 -0.508,-0.089 -1.033,-0.18 -1.67,-0.163 -0.735,0.021 -1.261,0.156 -1.725,0.275 -0.367,0.093 -0.684,0.175 -1.016,0.175 z m 5.495,-2.397 c -0.671,0 -1.34,0.044 -1.963,0.092 -0.157,0.012 -0.334,0.023 -0.527,0.035 -1.335,0.084 -4.111,0.259 -4.111,1.248 0,0.073 0.283,0.276 0.984,0.346 0.04,0.004 0.081,0.006 0.121,0.006 l 0,0 c 0.247,0 0.513,-0.068 0.85,-0.155 0.473,-0.121 1.061,-0.273 1.871,-0.296 0.704,-0.02 1.29,0.083 1.804,0.173 0.58,0.102 1.124,0.179 1.607,0.083 0.966,-0.193 1.54,-0.429 1.706,-0.703 0.033,-0.054 0.065,-0.133 0.027,-0.267 -0.036,-0.131 -0.319,-0.562 -2.369,-0.562 z"
     id="path159"
     inkscape:connector-curvature="0"
     style="fill:#4e4e4e" /><path
     d="m 116.54969,20.088195 c -0.151,0 -0.287,-0.103 -0.325,-0.256 -0.044,-0.179 0.066,-0.36 0.245,-0.404 0.042,-0.01 4.267,-1.018 9.68,-0.877 0.185,0.005 0.33,0.159 0.326,0.343 -0.005,0.182 -0.154,0.326 -0.335,0.326 -0.003,0 -0.006,0 -0.008,0 -5.333,-0.138 -9.463,0.848 -9.504,0.859 -0.026,0.006 -0.053,0.009 -0.079,0.009 z"
     id="path161"
     inkscape:connector-curvature="0"
     style="fill:#4e4e4e" /><path
     d="m 120.71569,21.813195 c -2.868,0 -4.921,-0.906 -5.109,-2.254 -0.025,-0.183 0.103,-0.352 0.286,-0.378 0.186,-0.026 0.353,0.103 0.378,0.286 0.113,0.813 1.71,1.677 4.446,1.677 2.926,0 5.337,-0.825 5.489,-1.879 0.026,-0.183 0.187,-0.312 0.379,-0.284 0.183,0.026 0.31,0.196 0.283,0.379 -0.245,1.694 -3.266,2.453 -6.152,2.453 z"
     id="path163"
     inkscape:connector-curvature="0"
     style="fill:#4e4e4e" /><path
     d="m 116.30169,19.040195 c -0.09,0 -0.179,-0.036 -0.245,-0.107 -0.125,-0.135 -0.118,-0.347 0.018,-0.473 0.064,-0.06 1.613,-1.464 4.811,-1.464 0.185,0 0.335,0.15 0.335,0.335 0,0.185 -0.15,0.335 -0.335,0.335 -2.939,0 -4.343,1.272 -4.356,1.285 -0.064,0.059 -0.146,0.089 -0.228,0.089 z"
     id="path165"
     inkscape:connector-curvature="0"
     style="fill:#4e4e4e" /><path
     d="m 82.931689,24.625195 c -2.933,0 -3.607,-0.948 -4.088,-2.006 -0.077,-0.168 -0.002,-0.367 0.166,-0.443 0.167,-0.077 0.367,-0.003 0.443,0.166 0.343,0.756 0.733,1.613 3.478,1.613 2.669,0 3.415,-1.182 3.422,-1.193 0.056,-0.092 0.155,-0.156 0.262,-0.164 0.918,-0.072 2.19,-0.417 2.189,-0.878 0,-0.224 -0.066,-0.38 -0.206,-0.492 -0.405,-0.326 -1.328,-0.217 -1.619,-0.152 -0.178,0.039 -0.358,-0.075 -0.399,-0.255 -0.039,-0.181 0.075,-0.359 0.256,-0.399 0.146,-0.033 1.455,-0.299 2.181,0.284 0.297,0.239 0.455,0.589 0.456,1.012 0.004,1.158 -1.96,1.462 -2.651,1.533 -0.311,0.39 -1.354,1.374 -3.89,1.374 z"
     id="path167"
     inkscape:connector-curvature="0"
     style="fill:#4e4e4e" /><path
     d="m 80.615689,23.129195 c -0.658,0 -0.954,-0.104 -1.145,-0.263 -0.147,-0.123 -0.232,-0.295 -0.245,-0.496 -0.011,-0.185 0.13,-0.343 0.315,-0.354 0.173,-0.012 0.343,0.129 0.354,0.315 0.001,0.015 0.003,0.021 0.003,0.021 0.046,0.055 0.355,0.225 2.339,-0.018 2.184,-0.267 4.305,-0.191 4.394,-0.187 0.734,-0.03 1.787,-0.28 1.787,-0.669 0,-0.185 0.15,-0.335 0.335,-0.335 0.185,0 0.335,0.15 0.335,0.335 0,1.209 -2.204,1.328 -2.455,1.338 -0.048,-0.001 -2.185,-0.078 -4.314,0.183 -0.749,0.09 -1.296,0.13 -1.703,0.13 z"
     id="path169"
     inkscape:connector-curvature="0"
     style="fill:#4e4e4e" /><path
     d="m 38.205689,26.930195 c -0.161,0 -0.303,-0.117 -0.329,-0.282 -0.03,-0.182 0.094,-0.355 0.277,-0.384 0.07,-0.011 7.114,-1.14 16.736,-2.292 7.329,-0.877 13.253,-1.448 16.099,-1.724 l 1.04,-0.101 c 3.039,-0.298 6.166,-0.537 6.945,-0.594 0.769,-1.28 3.005,-1.866 4.832,-1.866 1.693,0 2.573,0.835 2.609,0.871 0.093,0.091 0.126,0.228 0.083,0.351 -0.043,0.123 -0.154,0.21 -0.284,0.223 -0.025,0.003 -2.514,0.245 -4.449,0.508 -1.191,0.161 -1.556,0.305 -1.654,0.357 -0.042,0.066 -0.106,0.119 -0.188,0.142 -0.169,0.051 -0.339,-0.035 -0.404,-0.191 -0.013,0.023 -0.024,0.046 -0.035,0.07 -0.051,0.109 -0.158,0.182 -0.278,0.191 -0.036,0.003 -3.633,0.266 -7.112,0.607 l -1.04,0.101 c -2.845,0.274 -8.763,0.846 -16.084,1.722 -9.608,1.15 -16.639,2.277 -16.709,2.288 -0.02,10e-4 -0.038,0.003 -0.055,0.003 z m 45.599,-6.572 c -1.252,0 -2.706,0.309 -3.599,0.895 0.307,-0.087 0.768,-0.181 1.468,-0.275 1.163,-0.158 2.523,-0.308 3.435,-0.405 -0.334,-0.12 -0.769,-0.215 -1.304,-0.215 z"
     id="path171"
     inkscape:connector-curvature="0"
     style="fill:#4e4e4e" /><path
     d="m 79.559689,22.612195 c -0.171,0 -0.316,-0.131 -0.333,-0.304 -0.017,-0.184 0.119,-0.347 0.302,-0.364 l 6.621,-0.607 c 0.183,-0.017 0.347,0.119 0.364,0.302 0.017,0.184 -0.119,0.347 -0.302,0.364 l -6.621,0.607 c -0.01,0.002 -0.021,0.002 -0.031,0.002 z"
     id="path173"
     inkscape:connector-curvature="0"
     style="fill:#4e4e4e" /><path
     d="m 86.677689,22.273195 c -0.312,0 -0.565,-0.253 -0.565,-0.565 0,-0.312 0.253,-0.566 0.565,-0.566 0.312,0 0.566,0.254 0.566,0.566 0,0.312 -0.254,0.565 -0.566,0.565 z m 0,-0.669 c -0.058,0 -0.105,0.047 -0.105,0.105 0,0.115 0.209,0.115 0.209,0 0.001,-0.059 -0.046,-0.105 -0.104,-0.105 z"
     id="path175"
     inkscape:connector-curvature="0"
     style="fill:#4e4e4e" /><path
     d="m 87.939689,21.885195 c -0.258,0 -0.468,-0.21 -0.468,-0.468 0,-0.258 0.21,-0.468 0.468,-0.468 0.259,0 0.469,0.21 0.469,0.468 -10e-4,0.258 -0.211,0.468 -0.469,0.468 z m 0,-0.669 c -0.111,0 -0.201,0.091 -0.201,0.202 0,0.111 0.091,0.202 0.201,0.202 0.111,0 0.202,-0.091 0.202,-0.202 -0.001,-0.112 -0.091,-0.202 -0.202,-0.202 z"
     id="path177"
     inkscape:connector-curvature="0"
     style="fill:#4e4e4e" /><path
     d="m 41.424689,46.998195 c -0.039,0 -0.073,-0.006 -0.099,-0.013 -0.178,-0.049 -0.283,-0.233 -0.234,-0.412 0.027,-0.101 0.098,-0.177 0.186,-0.217 0.489,-0.672 2.218,-6.511 -0.869,-12.008 -0.091,-0.161 -0.033,-0.365 0.128,-0.455 0.162,-0.091 0.366,-0.033 0.455,0.128 3.278,5.835 1.421,11.967 0.791,12.774 -0.126,0.163 -0.258,0.203 -0.358,0.203 z"
     id="path179"
     inkscape:connector-curvature="0"
     style="fill:#4e4e4e" /><path
     d="m 43.546689,16.005195 c -0.095,0 -0.189,-0.04 -0.256,-0.119 l -1.314,-1.557 c -0.119,-0.141 -0.102,-0.353 0.04,-0.471 0.142,-0.119 0.352,-0.102 0.471,0.04 l 1.314,1.557 c 0.119,0.141 0.102,0.353 -0.04,0.471 -0.062,0.053 -0.139,0.079 -0.215,0.079 z"
     id="path181"
     inkscape:connector-curvature="0"
     style="fill:#4e4e4e" /><path
     d="m 55.776689,17.253195 c -0.058,0 -0.116,-0.015 -0.17,-0.047 -0.109,-0.064 -2.691,-1.586 -3.273,-1.974 -0.157,-0.105 -0.483,-0.322 -0.455,-0.663 0.032,-0.391 0.457,-0.585 1.23,-0.938 0.203,-0.092 0.52,-0.246 0.928,-0.443 1.783,-0.863 5.102,-2.47 8.52,-3.6909997 1.103,-0.395 2.253,-0.854 3.47,-1.341 3.474,-1.39 7.411,-2.965 12.621,-4.007 0.18,-0.036 0.357,0.081 0.394,0.262 0.036,0.181 -0.081,0.357 -0.262,0.394 -5.149,1.03 -9.057,2.593 -12.504,3.972 -1.223,0.489 -2.378,0.951 -3.493,1.3499997 -3.383,1.209 -6.68,2.805 -8.453,3.664 -0.414,0.201 -0.735,0.356 -0.942,0.45 -0.231,0.105 -0.583,0.266 -0.762,0.377 0.022,0.017 0.049,0.035 0.081,0.057 0.567,0.378 3.215,1.939 3.241,1.954 0.159,0.093 0.212,0.299 0.119,0.458 -0.064,0.108 -0.176,0.166 -0.29,0.166 z"
     id="path183"
     inkscape:connector-curvature="0"
     style="fill:#4e4e4e" /><path
     d="m 62.194689,13.214195 c -0.12,0 -0.237,-0.065 -0.297,-0.179 -0.086,-0.163 -0.022,-0.366 0.141,-0.452 0.034,-0.018 3.405,-1.773 8.371,-3.3329997 l 0.365,-0.115 c 5.068,-1.592 8.414,-2.644 12.066,-2.987 4.241,-0.4 5.924,0.707 6.549,1.403 0.764,0.849 0.484,2.069 0.28,2.9589997 -0.035,0.148 -0.067,0.292 -0.094,0.427 -0.035,0.181 -0.209,0.3 -0.394,0.263 -0.181,-0.036 -0.299,-0.212 -0.263,-0.394 0.028,-0.141 0.063,-0.29 0.098,-0.446 0.19,-0.8299997 0.407,-1.7709997 -0.125,-2.3619997 -0.436,-0.484 -1.892,-1.569 -5.989,-1.184 -3.581,0.337 -6.723,1.324 -11.928,2.959 l -0.366,0.115 c -4.904,1.5409997 -8.227,3.2689997 -8.26,3.2869997 -0.049,0.027 -0.102,0.039 -0.154,0.039 z"
     id="path185"
     inkscape:connector-curvature="0"
     style="fill:#4e4e4e" /><path
     d="m 112.42369,15.022195 c -0.023,0 -0.047,-0.003 -0.07,-0.007 -0.181,-0.038 -0.296,-0.217 -0.258,-0.397 l 1.102,-5.1699997 c -0.625,-0.212 -2.385,-0.748 -5.485,-1.244 -4.721,-0.756 -10.583001,-0.764 -10.642001,-0.764 -0.185,0 -0.335,-0.15 -0.335,-0.335 0,-0.185 0.15,-0.335 0.335,-0.335 0.059,0 5.976001,0.009 10.748001,0.773 4.049,0.648 5.819,1.349 5.893,1.378 0.151,0.061 0.237,0.221 0.203,0.38 l -1.163,5.4559997 c -0.035,0.157 -0.174,0.265 -0.328,0.265 z"
     id="path187"
     inkscape:connector-curvature="0"
     style="fill:#4e4e4e" /><path
     d="m 113.58569,14.949195 c -0.022,0 -0.045,-0.002 -0.066,-0.007 -0.181,-0.036 -0.299,-0.213 -0.262,-0.395 l 1.018,-5.0439997 c 0.02,-0.096 0.079,-0.178 0.165,-0.226 0.085,-0.048 0.188,-0.055 0.279,-0.021 l 4.698,1.7329997 c 0.174,0.064 0.262,0.257 0.198,0.43 -0.064,0.174 -0.256,0.262 -0.43,0.198 l -4.331,-1.598 -0.941,4.661 c -0.032,0.159 -0.172,0.269 -0.328,0.269 z"
     id="path189"
     inkscape:connector-curvature="0"
     style="fill:#4e4e4e" /><g
     id="g191"
     transform="translate(-5.693311,-5.9118047)"><path
       d="m 159.299,26.471 c 0.846,0.391 1.515,0.783 2.073,1.17 0.99,0.482 1.942,1.028 2.857,1.627 -0.115,-0.112 -0.227,-0.217 -0.347,-0.338 -0.894,-0.894 -2.007,-2.007 -4.302,-3.067 -3.056,-1.41 -3.425,-2.519 -3.436,-2.555 -0.043,-0.175 -0.218,-0.287 -0.395,-0.249 -0.18,0.038 -0.297,0.216 -0.259,0.397 0.03,0.142 0.393,1.438 3.809,3.015 z"
       id="path193"
       inkscape:connector-curvature="0"
       style="fill:#4e4e4e" /><path
       d="m 123.806,51.141 c 0,0.446 -0.278,-0.221 -0.278,-0.221 l -70.992,0.314 c -0.185,10e-4 -0.334,0.151 -0.333,0.336 10e-4,0.185 0.151,0.333 0.335,0.333 0.001,0 0.001,0 0,-10e-4 l 71.279,-0.314 c -0.002,-0.149 -0.011,-0.596 -0.011,-0.447 z"
       id="path195"
       inkscape:connector-curvature="0"
       style="fill:#4e4e4e" /></g></svg>