<?xml version="1.0" encoding="UTF-8" standalone="no"?>
<!-- Generator: Adobe Illustrator 17.0.0, SVG Export Plug-In . SVG Version: 6.00 Build 0)  -->

<svg
   xmlns:dc="http://purl.org/dc/elements/1.1/"
   xmlns:cc="http://creativecommons.org/ns#"
   xmlns:rdf="http://www.w3.org/1999/02/22-rdf-syntax-ns#"
   xmlns:svg="http://www.w3.org/2000/svg"
   xmlns="http://www.w3.org/2000/svg"
   xmlns:xlink="http://www.w3.org/1999/xlink"
   xmlns:sodipodi="http://sodipodi.sourceforge.net/DTD/sodipodi-0.dtd"
   xmlns:inkscape="http://www.inkscape.org/namespaces/inkscape"
   version="1.1"
   id="Слой_1"
   x="0px"
   y="0px"
   width="180px"
   height="98px"
   viewBox="0 0 180 98"
   enable-background="new 0 0 180 98"
   xml:space="preserve"
   inkscape:version="0.91 r13725"
   sodipodi:docname="diagnos.svg"><metadata
     id="metadata277"><rdf:RDF><cc:Work
         rdf:about=""><dc:format>image/svg+xml</dc:format><dc:type
           rdf:resource="http://purl.org/dc/dcmitype/StillImage" /><dc:title></dc:title></cc:Work></rdf:RDF></metadata><defs
     id="defs275" /><sodipodi:namedview
     pagecolor="#ffffff"
     bordercolor="#666666"
     borderopacity="1"
     objecttolerance="10"
     gridtolerance="10"
     guidetolerance="10"
     inkscape:pageopacity="0"
     inkscape:pageshadow="2"
     inkscape:window-width="1440"
     inkscape:window-height="837"
     id="namedview273"
     showgrid="false"
     inkscape:zoom="2.2777778"
     inkscape:cx="90"
     inkscape:cy="66.560976"
     inkscape:window-x="-8"
     inkscape:window-y="-8"
     inkscape:window-maximized="1"
     inkscape:current-layer="g4405" /><g
     id="g4405"><g
       id="g3"><path
         id="path7"
         d="M144.778,62.348c-10.231,0-18.554-8.324-18.554-18.555s8.323-18.555,18.554-18.555   s18.555,8.324,18.555,18.555S155.009,62.348,144.778,62.348z M144.778,25.956c-9.836,0-17.837,8.002-17.837,17.837   s8.002,17.837,17.837,17.837c9.836,0,17.838-8.002,17.838-17.837S154.613,25.956,144.778,25.956z"
         fill="#4E4E4E" /><path
         id="path9"
         d="M132.759,45.737c-0.082,0-0.163-0.028-0.23-0.084c-0.152-0.127-0.172-0.353-0.045-0.505l12.308-14.683   c0.128-0.152,0.355-0.171,0.505-0.044c0.152,0.127,0.172,0.353,0.045,0.505l-12.308,14.683   C132.963,45.693,132.862,45.737,132.759,45.737z"
         fill="#4E4E4E" /><path
         id="path11"
         d="M132.759,50.487c-0.082,0-0.163-0.028-0.23-0.084c-0.152-0.127-0.172-0.353-0.045-0.505l12.308-14.683   c0.128-0.151,0.353-0.171,0.505-0.044c0.152,0.127,0.172,0.353,0.045,0.505l-12.308,14.683   C132.963,50.444,132.862,50.487,132.759,50.487z"
         fill="#4E4E4E" /><path
         id="path13"
         d="M145.931,55.885c-0.082,0-0.163-0.028-0.23-0.084c-0.152-0.127-0.172-0.353-0.045-0.505l12.308-14.683   c0.127-0.152,0.355-0.171,0.505-0.044c0.152,0.127,0.172,0.353,0.045,0.505l-12.308,14.683   C146.135,55.842,146.033,55.885,145.931,55.885z"
         fill="#4E4E4E" /><path
         id="path15"
         d="M141.612,56.533c-0.081,0-0.163-0.028-0.23-0.084c-0.152-0.127-0.172-0.353-0.045-0.505l12.308-14.683   c0.127-0.152,0.355-0.171,0.505-0.044c0.152,0.127,0.172,0.353,0.045,0.505l-12.308,14.683   C141.816,56.49,141.714,56.533,141.612,56.533z"
         fill="#4E4E4E" /><path
         id="path17"
         d="M159.534,60.825c-0.12,0-0.238-0.06-0.306-0.171l-0.648-1.053c-0.104-0.169-0.051-0.389,0.117-0.493   c0.169-0.104,0.39-0.051,0.494,0.117l0.648,1.053c0.104,0.169,0.051,0.389-0.117,0.493   C159.663,60.808,159.598,60.825,159.534,60.825z"
         fill="#4E4E4E" /><path
         id="path19"
         d="M151.047,69.347c-0.12,0-0.238-0.061-0.306-0.171l-2.633-4.285c-0.104-0.169-0.051-0.39,0.118-0.493   c0.169-0.104,0.389-0.051,0.493,0.118l2.633,4.285c0.104,0.169,0.051,0.39-0.118,0.493   C151.176,69.33,151.111,69.347,151.047,69.347z"
         fill="#4E4E4E" /><path
         id="path21"
         d="M163.153,93.166c-0.339,0-0.674-0.203-0.873-0.53l-12.89-21.181c-0.134-0.22-0.192-0.473-0.163-0.711   c0.032-0.266,0.173-0.493,0.385-0.622l12.686-7.72c0.404-0.247,1.001-0.053,1.286,0.416l12.89,21.181   c0.134,0.221,0.192,0.473,0.163,0.711c-0.032,0.266-0.173,0.493-0.385,0.622l-12.686,7.72   C163.443,93.126,163.3,93.166,163.153,93.166z M162.711,63.004l-12.727,7.73c-0.033,0.02-0.043,0.074-0.046,0.096   c-0.01,0.078,0.014,0.17,0.063,0.252l12.89,21.181c0.104,0.171,0.285,0.185,0.301,0.176l12.686-7.72   c0.033-0.02,0.043-0.074,0.046-0.096c0.009-0.078-0.014-0.17-0.064-0.252l-12.89-21.18   C162.894,63.062,162.782,63.004,162.711,63.004z"
         fill="#4E4E4E" /><path
         id="path25"
         d="M162.922,86.11c-0.006,0-0.012,0-0.017,0c-0.198-0.009-0.351-0.177-0.341-0.375l0.686-14.584   c0.009-0.198,0.197-0.348,0.375-0.341c0.198,0.009,0.351,0.177,0.341,0.375l-0.686,14.584   C163.271,85.961,163.112,86.11,162.922,86.11z"
         fill="#4E4E4E" /><path
         id="path27"
         d="M161.038,83.075c-0.006,0-0.012,0-0.017,0c-0.198-0.009-0.351-0.177-0.341-0.375l0.687-14.584   c0.009-0.198,0.196-0.344,0.375-0.341c0.198,0.009,0.351,0.177,0.341,0.375l-0.687,14.584   C161.387,82.925,161.228,83.075,161.038,83.075z"
         fill="#4E4E4E" /><g
         id="g29"><defs
           id="defs31"><path
             d="M113.126,55.649c0,0-4.94-22.789,14.821-38.726s57.85-4.94,57.85-4.94s-42.71-20.08-63.268-22.152     S33.124-3.954,24.997-0.926s-33.945,30.28-31.236,37.77S15.594,73.02,15.753,73.498c0.159,0.478,19.921,7.171,31.873,7.171     s73.627,0,73.627,0L113.126,55.649z"
             id="SVGID_1_" /></defs><clipPath
           id="SVGID_2_"><use
             id="use35"
             overflow="visible"
             xlink:href="#SVGID_1_" /></clipPath><g
           id="g37"
           clip-path="url(#SVGID_2_)"><path
             id="path41"
             d="M7.19,41.627c-0.069,0-0.138-0.02-0.199-0.061c-0.164-0.11-0.208-0.333-0.098-0.497l4.919-7.338     c0.11-0.165,0.332-0.209,0.498-0.098c0.164,0.11,0.208,0.333,0.098,0.497l-4.919,7.338C7.419,41.571,7.305,41.627,7.19,41.627z"
             fill="#4E4E4E" /><path
             id="path47"
             d="M20.304,35.195c-0.01,0-0.02,0-0.029-0.001c-0.152-0.012-0.279-0.12-0.317-0.267l-0.553-2.121     l-0.582,0.85c-0.112,0.163-0.335,0.205-0.499,0.094c-0.163-0.112-0.205-0.335-0.093-0.498l1.026-1.5     c0.08-0.116,0.22-0.175,0.358-0.151c0.138,0.024,0.25,0.127,0.285,0.263l0.493,1.891l0.866-1.946     c0.053-0.119,0.167-0.201,0.297-0.212c0.126-0.014,0.256,0.049,0.329,0.158l1.003,1.5c0.11,0.165,0.066,0.387-0.099,0.497     c-0.165,0.11-0.387,0.066-0.497-0.099l-0.642-0.959l-1.018,2.288C20.574,35.113,20.445,35.195,20.304,35.195z"
             fill="#4E4E4E" /><path
             id="path53"
             d="M36.866,60.248c-5.336,0-9.677-4.341-9.677-9.677s4.341-9.677,9.677-9.677s9.677,4.341,9.677,9.677     S42.202,60.248,36.866,60.248z M36.866,41.612c-4.94,0-8.96,4.019-8.96,8.96s4.019,8.96,8.96,8.96s8.96-4.019,8.96-8.96     S41.806,41.612,36.866,41.612z"
             fill="#4E4E4E" /><path
             id="path55"
             d="M36.796,60.987c-0.844,0-1.684-0.1-2.496-0.298c-0.192-0.047-0.31-0.241-0.263-0.433     c0.047-0.193,0.245-0.31,0.433-0.263c0.756,0.184,1.539,0.278,2.326,0.278c3.492,0,6.745-1.882,8.49-4.911     c0.099-0.171,0.318-0.231,0.489-0.132c0.172,0.099,0.231,0.318,0.132,0.49C44.035,58.968,40.544,60.987,36.796,60.987z"
             fill="#4E4E4E" /><path
             id="path57"
             d="M46.252,47.143c-0.143,0-0.279-0.086-0.334-0.228c-1.479-3.783-5.06-6.227-9.123-6.227     c-0.665,0-1.329,0.067-1.974,0.199c-0.194,0.038-0.384-0.085-0.423-0.279c-0.04-0.194,0.085-0.384,0.279-0.423     c0.692-0.141,1.404-0.213,2.117-0.213c4.36,0,8.203,2.623,9.79,6.683c0.072,0.184-0.019,0.392-0.203,0.465     C46.34,47.135,46.296,47.143,46.252,47.143z"
             fill="#4E4E4E" /><path
             id="path59"
             d="M37.091,52.091c-0.971,0-1.762-0.79-1.762-1.762c0-0.971,0.79-1.762,1.762-1.762     c0.972,0,1.762,0.79,1.762,1.762C38.853,51.3,38.063,52.091,37.091,52.091z M37.091,49.284c-0.576,0-1.044,0.469-1.044,1.045     c0,0.576,0.469,1.045,1.044,1.045c0.576,0,1.045-0.469,1.045-1.045C38.136,49.753,37.667,49.284,37.091,49.284z"
             fill="#4E4E4E" /><path
             id="path61"
             d="M37.091,52.871c-1.402,0-2.542-1.14-2.542-2.542c0-1.402,1.141-2.542,2.542-2.542     c1.402,0,2.542,1.14,2.542,2.542C39.633,51.731,38.493,52.871,37.091,52.871z M37.091,48.504c-1.006,0-1.825,0.819-1.825,1.825     c0,1.006,0.819,1.825,1.825,1.825c1.006,0,1.825-0.819,1.825-1.825C38.916,49.322,38.097,48.504,37.091,48.504z"
             fill="#4E4E4E" /><path
             id="path63"
             d="M35.307,48.504c-0.094,0-0.186-0.037-0.254-0.106l-4.574-4.588c-0.14-0.14-0.14-0.367,0.001-0.507     c0.141-0.14,0.367-0.139,0.507,0.001l4.21,4.224l0.824-1.784c0.006-0.013,0.331-0.709,0.007-1.329     c-0.401-0.768-1.708-2.66-1.722-2.679c-0.113-0.163-0.072-0.386,0.091-0.499c0.163-0.114,0.386-0.071,0.499,0.091     c0.055,0.079,1.346,1.948,1.768,2.756c0.494,0.947,0.024,1.928,0.004,1.969l-1.037,2.244c-0.049,0.106-0.147,0.182-0.263,0.203     C35.348,48.502,35.328,48.504,35.307,48.504z"
             fill="#4E4E4E" /><path
             id="path65"
             d="M35.177,48.374c-0.03,0-0.061-0.004-0.092-0.012c-0.191-0.051-0.305-0.247-0.254-0.439     c0.678-2.55-0.157-3.402-0.165-3.41c-0.018-0.016-0.034-0.034-0.048-0.054l-1.652-2.27c-0.117-0.16-0.081-0.384,0.079-0.501     c0.16-0.117,0.385-0.081,0.501,0.079l1.637,2.25c0.191,0.205,1.073,1.337,0.341,4.09C35.481,48.268,35.336,48.374,35.177,48.374z     "
             fill="#4E4E4E" /><path
             id="path67"
             d="M36.104,48.741c-0.057,0-0.115-0.014-0.169-0.043c-0.174-0.093-0.24-0.311-0.147-0.485     c0.009-0.017,0.907-1.712,1.138-3.627c0.236-1.957,0.21-3.29,0.209-3.303c-0.004-0.198,0.153-0.362,0.351-0.367     c0.213-0.008,0.362,0.152,0.367,0.35c0.001,0.056,0.028,1.394-0.215,3.406c-0.247,2.053-1.178,3.806-1.218,3.88     C36.355,48.672,36.231,48.741,36.104,48.741z"
             fill="#4E4E4E" /><path
             id="path69"
             d="M37.832,48.635c-0.052,0-0.105-0.011-0.155-0.035c-0.179-0.086-0.254-0.3-0.168-0.478l2.955-6.16     c0.086-0.179,0.299-0.255,0.478-0.168c0.179,0.086,0.254,0.3,0.168,0.478l-2.955,6.16C38.094,48.56,37.966,48.635,37.832,48.635z     "
             fill="#4E4E4E" /><path
             id="path71"
             d="M39.824,48.712c-0.917,0-1.45-0.229-1.473-0.238c-0.091-0.04-0.161-0.115-0.194-0.208     c-0.034-0.093-0.027-0.196,0.018-0.284l2.668-5.214c0.045-0.088,0.125-0.154,0.221-0.181c0.095-0.027,0.198-0.014,0.283,0.037     c0.059,0.035,1.452,0.874,2.092,1.54c0.788,0.819,1.121,1.552,1.134,1.583c0.048,0.107,0.041,0.231-0.02,0.331     c-0.047,0.078-1.171,1.913-3.093,2.413C40.899,48.638,40.349,48.712,39.824,48.712z M39.013,47.919     c0.198,0.039,0.472,0.075,0.811,0.075c0.464,0,0.954-0.066,1.456-0.197c1.327-0.345,2.247-1.499,2.55-1.928     c-0.134-0.241-0.426-0.707-0.909-1.209c-0.4-0.416-1.177-0.937-1.618-1.219L39.013,47.919z"
             fill="#4E4E4E" /><path
             id="path73"
             d="M34.958,51.155c-0.136,0-0.267-0.078-0.327-0.211c-0.003-0.007-0.525-1.067-2.651-2.248     c-2.181-1.212-3.727-1.368-3.743-1.369c-0.197-0.018-0.342-0.193-0.324-0.39s0.192-0.345,0.388-0.325     c0.068,0.006,1.7,0.164,4.026,1.456c2.363,1.313,2.933,2.529,2.957,2.58c0.082,0.18,0.001,0.393-0.179,0.474     C35.058,51.145,35.007,51.155,34.958,51.155z"
             fill="#4E4E4E" /><path
             id="path75"
             d="M35.418,49.284c-0.087,0-0.174-0.031-0.243-0.095l-5.254-4.829C29.776,44.227,29.766,44,29.9,43.854     c0.134-0.146,0.361-0.155,0.507-0.021l5.254,4.829c0.146,0.134,0.155,0.361,0.021,0.507     C35.611,49.245,35.515,49.284,35.418,49.284z"
             fill="#4E4E4E" /><path
             id="path77"
             d="M28.341,54.697c-0.127,0-0.25-0.067-0.315-0.187c-0.095-0.174-0.031-0.392,0.143-0.487L33.8,50.95     c-0.702-0.699-1.729-1.576-2.274-1.671c-0.66-0.116-2.697,0.478-3.829,0.877c-0.187,0.067-0.392-0.032-0.458-0.219     c-0.066-0.187,0.032-0.392,0.219-0.458c0.318-0.113,3.139-1.092,4.191-0.908c1.082,0.188,2.805,2.015,2.998,2.222     c0.075,0.081,0.109,0.193,0.091,0.302c-0.018,0.109-0.085,0.204-0.182,0.257l-6.045,3.299     C28.458,54.683,28.399,54.697,28.341,54.697z"
             fill="#4E4E4E" /><path
             id="path79"
             d="M31.152,57.459c-0.099,0-0.196-0.041-0.264-0.116l-1.975-2.148c-0.073-0.08-0.106-0.188-0.091-0.294     s0.078-0.201,0.171-0.256l5.574-3.33c0.102-0.06,0.226-0.067,0.334-0.018c0.106,0.049,0.182,0.147,0.203,0.262     c0-0.001,0-0.001,0-0.001c0.006,0,0.08,0.145,0.366,0.386c0.398,0.337,0.769,0.496,0.773,0.498     c0.124,0.053,0.209,0.17,0.219,0.305c0.01,0.134-0.056,0.263-0.172,0.333c-0.016,0.01-1.662,1.007-2.981,2.021     c-1.26,0.969-1.826,2.142-1.832,2.154c-0.051,0.108-0.153,0.183-0.27,0.201C31.188,57.457,31.169,57.459,31.152,57.459z      M29.739,55.034l1.344,1.461c0.301-0.481,0.879-1.265,1.788-1.964c0.902-0.694,1.926-1.364,2.529-1.745     c-0.123-0.082-0.257-0.18-0.394-0.296c-0.168-0.142-0.289-0.268-0.378-0.377L29.739,55.034z"
             fill="#4E4E4E" /><path
             id="path83"
             d="M38.873,59.262c-0.156,0-0.298-0.103-0.344-0.258c-0.007-0.022-0.637-2.182-1.048-4.079     c-0.44-2.035-0.36-2.182-0.303-2.29c0.044-0.081,0.117-0.142,0.205-0.171c0.025-0.008,0.25-0.078,0.552-0.078     c0.71,0,1.248,0.373,1.515,1.05c0.478,1.213,0.866,1.906,1.297,2.319c0.572,0.546,0.936,1.668,0.975,1.794     c0.018,0.059,0.021,0.122,0.008,0.182c-0.04,0.185-0.36,1.126-2.801,1.526C38.912,59.261,38.893,59.262,38.873,59.262z      M37.869,53.106c0.032,0.251,0.113,0.741,0.314,1.669c0.313,1.449,0.758,3.057,0.946,3.719c1.334-0.268,1.75-0.693,1.867-0.86     c-0.128-0.362-0.416-1.047-0.742-1.359c-0.519-0.495-0.945-1.241-1.47-2.574c-0.158-0.401-0.435-0.596-0.847-0.596     C37.913,53.104,37.891,53.104,37.869,53.106z"
             fill="#4E4E4E" /><path
             id="path85"
             d="M43.503,56.269c-0.126,0-0.254-0.026-0.392-0.08c-0.109-0.042-0.252-0.088-0.418-0.141     c-0.795-0.255-2.124-0.682-2.976-1.694c-1.081-1.284-0.446-3.178-0.418-3.258c0.032-0.092,0.099-0.166,0.186-0.208     c0.088-0.042,0.188-0.045,0.279-0.011c2.176,0.82,5.418,0.843,5.78,0.843l0.049,0c0.11-0.004,0.216,0.049,0.285,0.137     c0.069,0.087,0.093,0.201,0.066,0.309c-0.01,0.041-0.259,1.023-0.893,2.288l-0.087,0.174     C44.453,55.651,44.144,56.269,43.503,56.269z M39.887,51.679c-0.106,0.524-0.204,1.521,0.378,2.212     c0.72,0.854,1.88,1.227,2.647,1.474c0.182,0.058,0.339,0.109,0.458,0.155c0.052,0.02,0.098,0.031,0.132,0.031     c0.198,0,0.472-0.549,0.82-1.245l0.087-0.175c0.352-0.701,0.578-1.312,0.706-1.7C44.085,52.408,41.752,52.286,39.887,51.679z"
             fill="#4E4E4E" /><path
             id="path91"
             d="M24.318,49.241c-0.03,0-0.06-0.004-0.09-0.012c-0.191-0.05-0.306-0.244-0.257-0.436     c0.023-0.088,0.581-2.174,2.871-3.464c0.174-0.097,0.392-0.036,0.488,0.136c0.097,0.173,0.036,0.391-0.136,0.488     c-2.013,1.134-2.524,3-2.529,3.018C24.623,49.134,24.477,49.241,24.318,49.241z"
             fill="#4E4E4E" /><path
             id="path93"
             d="M25.31,45.555c-0.078,0-0.156-0.025-0.222-0.077c-0.155-0.123-0.183-0.348-0.06-0.503     c0.059-0.075,1.472-1.851,3.477-2.76c0.179-0.081,0.392-0.002,0.474,0.179c0.082,0.18,0.002,0.393-0.178,0.475     c-1.842,0.835-3.197,2.533-3.21,2.55C25.521,45.508,25.416,45.555,25.31,45.555z"
             fill="#4E4E4E" /><path
             id="path97"
             d="M46.253,57.322c-0.133,0-0.26-0.074-0.322-0.201c-0.087-0.178-0.014-0.393,0.164-0.48     c1.589-0.78,2.631-2.329,2.641-2.345c0.11-0.165,0.331-0.21,0.497-0.1c0.165,0.109,0.21,0.332,0.1,0.497     c-0.047,0.07-1.162,1.728-2.923,2.592C46.359,57.311,46.306,57.322,46.253,57.322z"
             fill="#4E4E4E" /><path
             id="path99"
             d="M43.933,59.99c-0.165,0-0.313-0.115-0.35-0.282c-0.042-0.194,0.08-0.384,0.274-0.427     c2.214-0.482,3.149-1.671,3.158-1.683c0.12-0.156,0.345-0.187,0.502-0.068c0.157,0.12,0.189,0.343,0.07,0.501     c-0.043,0.057-1.085,1.409-3.577,1.951C43.984,59.988,43.959,59.99,43.933,59.99z"
             fill="#4E4E4E" /><path
             id="path105"
             d="M148.266,60.248c-5.336,0-9.677-4.341-9.677-9.677s4.341-9.677,9.677-9.677s9.677,4.341,9.677,9.677     S153.602,60.248,148.266,60.248z M148.266,41.612c-4.94,0-8.96,4.019-8.96,8.96s4.02,8.96,8.96,8.96s8.96-4.019,8.96-8.96     S153.206,41.612,148.266,41.612z"
             fill="#4E4E4E" /><path
             id="path107"
             d="M148.196,60.987c-0.844,0-1.684-0.1-2.496-0.298c-0.192-0.047-0.31-0.241-0.263-0.433     c0.047-0.193,0.245-0.31,0.433-0.263c0.756,0.184,1.539,0.278,2.326,0.278c3.492,0,6.745-1.882,8.49-4.911     c0.099-0.171,0.319-0.231,0.489-0.132c0.172,0.099,0.231,0.318,0.132,0.49C155.435,58.968,151.944,60.987,148.196,60.987z"
             fill="#4E4E4E" /><path
             id="path109"
             d="M157.652,47.143c-0.143,0-0.279-0.086-0.334-0.228c-1.479-3.783-5.06-6.227-9.123-6.227     c-0.665,0-1.329,0.067-1.974,0.199c-0.193,0.038-0.383-0.085-0.423-0.279c-0.04-0.194,0.085-0.384,0.279-0.423     c0.692-0.141,1.404-0.213,2.117-0.213c4.36,0,8.203,2.623,9.79,6.683c0.072,0.184-0.019,0.392-0.203,0.465     C157.74,47.135,157.696,47.143,157.652,47.143z"
             fill="#4E4E4E" /><path
             id="path111"
             d="M148.491,52.091c-0.971,0-1.762-0.79-1.762-1.762c0-0.971,0.79-1.762,1.762-1.762     c0.972,0,1.762,0.79,1.762,1.762C150.253,51.3,149.463,52.091,148.491,52.091z M148.491,49.284c-0.576,0-1.044,0.469-1.044,1.045     c0,0.576,0.469,1.045,1.044,1.045c0.576,0,1.045-0.469,1.045-1.045C149.536,49.753,149.067,49.284,148.491,49.284z"
             fill="#4E4E4E" /><path
             id="path113"
             d="M148.491,52.871c-1.402,0-2.542-1.14-2.542-2.542c0-1.402,1.141-2.542,2.542-2.542     c1.402,0,2.542,1.14,2.542,2.542C151.033,51.731,149.893,52.871,148.491,52.871z M148.491,48.504     c-1.006,0-1.825,0.819-1.825,1.825c0,1.006,0.819,1.825,1.825,1.825c1.006,0,1.825-0.819,1.825-1.825     C150.316,49.322,149.497,48.504,148.491,48.504z"
             fill="#4E4E4E" /><path
             id="path115"
             d="M146.706,48.504c-0.094,0-0.186-0.037-0.254-0.106l-4.574-4.588c-0.14-0.14-0.14-0.367,0.001-0.507     c0.141-0.14,0.367-0.139,0.507,0.001l4.21,4.224l0.824-1.784c0.006-0.013,0.331-0.709,0.007-1.329     c-0.401-0.768-1.708-2.66-1.722-2.679c-0.113-0.163-0.072-0.386,0.091-0.499c0.163-0.114,0.386-0.071,0.499,0.091     c0.055,0.079,1.346,1.948,1.768,2.756c0.494,0.947,0.024,1.928,0.004,1.969l-1.037,2.244c-0.049,0.106-0.147,0.182-0.263,0.203     C146.748,48.502,146.728,48.504,146.706,48.504z"
             fill="#4E4E4E" /><path
             id="path117"
             d="M146.577,48.374c-0.03,0-0.061-0.004-0.092-0.012c-0.191-0.051-0.305-0.247-0.254-0.439     c0.678-2.55-0.157-3.402-0.165-3.41c-0.018-0.016-0.034-0.034-0.048-0.054l-1.652-2.27c-0.117-0.16-0.081-0.384,0.079-0.501     c0.16-0.117,0.385-0.081,0.501,0.079l1.637,2.25c0.191,0.205,1.073,1.337,0.341,4.09     C146.881,48.268,146.736,48.374,146.577,48.374z"
             fill="#4E4E4E" /><path
             id="path119"
             d="M147.503,48.741c-0.057,0-0.115-0.014-0.169-0.043c-0.174-0.093-0.24-0.311-0.147-0.485     c0.009-0.017,0.907-1.712,1.138-3.627c0.236-1.957,0.21-3.29,0.21-3.304c-0.004-0.198,0.153-0.362,0.351-0.366     c0.003,0,0.006,0,0.008,0c0.194,0,0.354,0.155,0.359,0.35c0.001,0.056,0.028,1.394-0.215,3.406     c-0.247,2.053-1.178,3.806-1.218,3.88C147.755,48.672,147.631,48.741,147.503,48.741z"
             fill="#4E4E4E" /><path
             id="path121"
             d="M149.232,48.635c-0.052,0-0.105-0.011-0.155-0.035c-0.179-0.086-0.254-0.3-0.168-0.478l2.955-6.16     c0.085-0.179,0.299-0.255,0.478-0.168c0.179,0.086,0.254,0.3,0.168,0.478l-2.954,6.16     C149.494,48.56,149.366,48.635,149.232,48.635z"
             fill="#4E4E4E" /><path
             id="path123"
             d="M151.224,48.712c-0.917,0-1.45-0.229-1.473-0.238c-0.091-0.04-0.161-0.115-0.194-0.208     c-0.034-0.093-0.027-0.196,0.018-0.284l2.668-5.214c0.045-0.088,0.125-0.154,0.221-0.181c0.095-0.027,0.198-0.014,0.283,0.037     c0.059,0.035,1.452,0.874,2.092,1.54c0.788,0.819,1.121,1.552,1.134,1.583c0.048,0.107,0.041,0.231-0.02,0.331     c-0.047,0.078-1.171,1.913-3.093,2.413C152.299,48.638,151.749,48.712,151.224,48.712z M150.413,47.919     c0.198,0.039,0.472,0.075,0.811,0.075c0.464,0,0.954-0.066,1.456-0.197c1.327-0.345,2.247-1.499,2.55-1.928     c-0.134-0.241-0.426-0.707-0.909-1.209c-0.4-0.416-1.177-0.937-1.618-1.219L150.413,47.919z"
             fill="#4E4E4E" /><path
             id="path125"
             d="M146.358,51.155c-0.136,0-0.267-0.078-0.327-0.211c-0.003-0.007-0.525-1.067-2.651-2.248     c-2.181-1.212-3.728-1.368-3.743-1.369c-0.197-0.018-0.342-0.193-0.324-0.39c0.018-0.197,0.194-0.345,0.388-0.325     c0.068,0.006,1.7,0.164,4.027,1.456c2.363,1.313,2.933,2.529,2.956,2.58c0.082,0.18,0.001,0.393-0.179,0.474     C146.458,51.145,146.407,51.155,146.358,51.155z"
             fill="#4E4E4E" /><path
             id="path127"
             d="M146.818,49.284c-0.087,0-0.174-0.031-0.243-0.095l-5.253-4.829c-0.146-0.134-0.155-0.361-0.021-0.507     c0.134-0.146,0.36-0.155,0.507-0.021l5.253,4.829c0.146,0.134,0.155,0.361,0.021,0.507     C147.011,49.245,146.915,49.284,146.818,49.284z"
             fill="#4E4E4E" /><path
             id="path129"
             d="M139.741,54.697c-0.127,0-0.25-0.067-0.315-0.187c-0.095-0.174-0.031-0.392,0.143-0.487l5.632-3.074     c-0.702-0.699-1.728-1.576-2.273-1.671c-0.657-0.114-2.697,0.477-3.829,0.877c-0.187,0.067-0.392-0.032-0.458-0.219     c-0.066-0.187,0.032-0.392,0.219-0.458c0.318-0.112,3.133-1.093,4.191-0.908c1.081,0.188,2.805,2.015,2.998,2.222     c0.075,0.081,0.109,0.193,0.091,0.302c-0.018,0.109-0.085,0.204-0.182,0.257l-6.045,3.299     C139.858,54.683,139.799,54.697,139.741,54.697z"
             fill="#4E4E4E" /><path
             id="path133"
             d="M148.737,59.467C148.737,59.467,148.737,59.467,148.737,59.467c-0.286,0-0.687-0.008-1.248-0.031     c-1.696-0.071-2.538-0.354-2.573-0.366c-0.146-0.05-0.244-0.188-0.242-0.343c0-0.001,0.012-1.175,0-2.383     c-0.012-1.187,0.504-2.147,1.453-2.704c0.716-0.42,1.972-0.997,2.025-1.021c0.105-0.048,0.226-0.043,0.326,0.014     c0.1,0.057,0.167,0.159,0.18,0.273l0.19,1.767c0.185,1.717,0.9,4.282,0.907,4.308c0.053,0.19-0.057,0.387-0.247,0.441     C149.379,59.459,149.018,59.467,148.737,59.467z M145.393,58.457c0.344,0.082,1.051,0.217,2.126,0.261     c0.548,0.023,0.939,0.031,1.218,0.031h0c0.08,0,0.151-0.001,0.212-0.002c-0.215-0.817-0.667-2.633-0.815-3.998l-0.136-1.267     c-0.434,0.207-1.083,0.526-1.509,0.776c-0.508,0.298-1.11,0.9-1.098,2.078C145.399,57.195,145.395,58.037,145.393,58.457z"
             fill="#4E4E4E" /><path
             id="path135"
             d="M150.273,59.262c-0.156,0-0.298-0.103-0.344-0.258c-0.007-0.022-0.637-2.182-1.048-4.079     c-0.44-2.035-0.36-2.182-0.303-2.29c0.044-0.081,0.117-0.142,0.205-0.171c0.025-0.008,0.25-0.078,0.552-0.078     c0.71,0,1.248,0.373,1.515,1.05c0.478,1.213,0.866,1.906,1.298,2.319c0.572,0.546,0.936,1.668,0.975,1.794     c0.018,0.059,0.021,0.122,0.008,0.182c-0.04,0.185-0.36,1.126-2.801,1.526C150.312,59.261,150.293,59.262,150.273,59.262z      M149.269,53.106c0.032,0.251,0.113,0.741,0.314,1.669c0.313,1.449,0.758,3.057,0.946,3.719c1.334-0.268,1.75-0.693,1.867-0.86     c-0.128-0.362-0.416-1.047-0.742-1.359c-0.519-0.495-0.945-1.241-1.47-2.574c-0.158-0.401-0.435-0.596-0.847-0.596     C149.313,53.104,149.291,53.104,149.269,53.106z"
             fill="#4E4E4E" /><path
             id="path137"
             d="M154.903,56.269c-0.126,0-0.254-0.026-0.392-0.08c-0.109-0.042-0.252-0.088-0.418-0.141     c-0.794-0.255-2.124-0.682-2.976-1.695c-1.082-1.284-0.446-3.178-0.418-3.258c0.032-0.092,0.099-0.166,0.187-0.208     c0.087-0.042,0.187-0.045,0.279-0.011c2.175,0.82,5.417,0.843,5.78,0.843l0.049,0c0.001,0,0.002,0,0.003,0     c0.11,0,0.213,0.05,0.282,0.137c0.069,0.087,0.093,0.201,0.066,0.309c-0.01,0.041-0.259,1.023-0.893,2.288l-0.087,0.174     C155.853,55.651,155.544,56.269,154.903,56.269z M151.288,51.679c-0.106,0.524-0.204,1.521,0.378,2.212     c0.719,0.855,1.88,1.227,2.647,1.474c0.182,0.058,0.339,0.109,0.458,0.155c0.052,0.02,0.098,0.031,0.132,0.031     c0.198,0,0.472-0.549,0.82-1.245l0.087-0.175c0.352-0.701,0.578-1.312,0.706-1.7C155.485,52.408,153.152,52.286,151.288,51.679z"
             fill="#4E4E4E" /><path
             id="path139"
             d="M155.847,51.656c-0.397,0-0.885-0.029-1.45-0.088c-2.737-0.281-3.515-0.9-3.595-0.97     c-0.103-0.09-0.146-0.232-0.11-0.364l0,0c-0.001,0,0.024-0.143-0.011-0.475c-0.044-0.422-0.232-0.597-0.24-0.604     c-0.129-0.117-0.159-0.314-0.066-0.461c0.094-0.147,0.277-0.209,0.437-0.142c0.572,0.239,1.203,0.36,1.875,0.36     c1.997,0,3.722-1.061,3.739-1.072c0.082-0.051,0.179-0.066,0.273-0.045c0.093,0.022,0.174,0.081,0.223,0.162     c0.028,0.047,0.283,0.485,0.43,1.395c0.13,0.807,0.034,1.498,0.004,1.676c-0.003,0.092-0.036,0.186-0.097,0.266     C157.072,51.545,156.636,51.656,155.847,51.656z M151.416,50.144c0.308,0.162,1.17,0.518,3.053,0.712     c0.542,0.056,1.005,0.084,1.377,0.084c0.491,0,0.716-0.049,0.81-0.08c0.028-0.199,0.089-0.759-0.013-1.392     c-0.058-0.358-0.134-0.629-0.2-0.816c-0.65,0.338-2.102,0.979-3.757,0.979c-0.458,0-0.901-0.05-1.324-0.149     c0.013,0.064,0.023,0.132,0.031,0.204C151.415,49.879,151.419,50.03,151.416,50.144z"
             fill="#4E4E4E" /><circle
             id="circle141"
             r="0.67"
             cy="50.363"
             cx="148.491"
             fill="#4E4E4E" /><path
             id="path143"
             d="M135.718,49.241c-0.03,0-0.06-0.004-0.09-0.012c-0.191-0.05-0.306-0.244-0.257-0.436     c0.023-0.088,0.581-2.174,2.871-3.464c0.174-0.097,0.392-0.036,0.488,0.136c0.097,0.173,0.036,0.391-0.136,0.488     c-2.013,1.134-2.524,3-2.529,3.018C136.023,49.134,135.877,49.241,135.718,49.241z"
             fill="#4E4E4E" /><path
             id="path145"
             d="M136.71,45.555c-0.078,0-0.155-0.025-0.221-0.077c-0.155-0.123-0.183-0.348-0.06-0.504     c0.059-0.075,1.472-1.851,3.478-2.76c0.18-0.082,0.393-0.002,0.474,0.179c0.082,0.18,0.002,0.393-0.178,0.475     c-1.848,0.838-3.197,2.533-3.211,2.55C136.921,45.508,136.816,45.555,136.71,45.555z"
             fill="#4E4E4E" /><path
             id="path147"
             d="M138.948,42.113c-0.11,0-0.219-0.05-0.289-0.146c-0.118-0.159-0.084-0.384,0.076-0.501     c0.066-0.049,1.649-1.206,3.814-1.865c0.191-0.059,0.39,0.049,0.448,0.238c0.057,0.189-0.049,0.39-0.239,0.448     c-2.048,0.624-3.582,1.745-3.597,1.757C139.097,42.09,139.022,42.113,138.948,42.113z"
             fill="#4E4E4E" /><path
             id="path149"
             d="M157.653,57.322c-0.133,0-0.26-0.074-0.322-0.201c-0.087-0.178-0.014-0.393,0.164-0.48     c1.589-0.78,2.631-2.329,2.641-2.345c0.11-0.165,0.331-0.21,0.497-0.1c0.165,0.109,0.21,0.332,0.1,0.497     c-0.047,0.07-1.162,1.728-2.923,2.592C157.759,57.311,157.706,57.322,157.653,57.322z"
             fill="#4E4E4E" /><path
             id="path151"
             d="M155.333,59.99c-0.165,0-0.313-0.115-0.35-0.282c-0.042-0.194,0.08-0.384,0.274-0.427     c2.214-0.482,3.149-1.671,3.158-1.683c0.12-0.156,0.345-0.187,0.502-0.068c0.157,0.12,0.189,0.343,0.07,0.501     c-0.043,0.057-1.085,1.409-3.577,1.951C155.384,59.988,155.359,59.99,155.333,59.99z"
             fill="#4E4E4E" /><path
             id="path155"
             d="M7.381,49.284c-0.147,0-0.284-0.091-0.337-0.236l-0.502-1.386c-0.068-0.186,0.029-0.392,0.215-0.459     c0.188-0.068,0.392,0.029,0.459,0.215l0.502,1.386c0.068,0.186-0.029,0.392-0.215,0.459C7.462,49.277,7.421,49.284,7.381,49.284z     "
             fill="#4E4E4E" /><path
             id="path157"
             d="M8.871,51.656c-0.011,0-0.022,0-0.033-0.001c-0.071-0.007-1.756-0.163-2.725-0.522     c-0.318-0.118-0.457-0.296-0.409-0.529c0.057-0.285,0.096-0.491,2.565-0.39c0.197,0.008,0.352,0.175,0.343,0.373     c-0.005,0.131-0.08,0.243-0.188,0.301c0.283,0.036,0.473,0.053,0.479,0.054c0.197,0.018,0.342,0.193,0.324,0.39     C9.21,51.516,9.054,51.656,8.871,51.656z"
             fill="#4E4E4E" /><path
             id="path163"
             d="M20.995,57.322c-0.093,0-0.185-0.036-0.254-0.106c-0.044-0.044-0.433-0.456-0.538-1.26     c-0.097-0.744-0.004-1.477,0-1.508c0.026-0.196,0.203-0.332,0.402-0.309c0.196,0.026,0.335,0.205,0.31,0.402     c-0.001,0.007-0.085,0.673,0,1.322c0.036,0.277,0.116,0.485,0.19,0.626c0.383-0.207,1.103-0.562,1.975-0.818l0.164-0.048     c1.155-0.338,1.304-0.41,1.335-1.143c0.008-0.198,0.201-0.346,0.374-0.343c0.198,0.009,0.352,0.176,0.343,0.374     c-0.055,1.274-0.731,1.472-1.85,1.8l-0.163,0.048c-1.187,0.35-2.088,0.904-2.097,0.91C21.126,57.305,21.061,57.322,20.995,57.322     z"
             fill="#4E4E4E" /><path
             id="path165"
             d="M47.644,57.738c-0.11,0-0.219-0.051-0.289-0.147c-0.117-0.159-0.083-0.384,0.077-0.501     c0.062-0.045,1.535-1.116,3.389-1.53c1.858-0.414,2.553-0.028,2.673,0.053c0.164,0.111,0.207,0.334,0.095,0.498     c-0.111,0.163-0.334,0.206-0.498,0.095l0,0c-0.002,0-0.554-0.295-2.115,0.053c-1.702,0.38-3.106,1.398-3.12,1.408     C47.792,57.715,47.718,57.738,47.644,57.738z"
             fill="#4E4E4E" /><path
             id="path167"
             d="M163.426,54.032c-0.085,0-0.169-0.03-0.237-0.089c-0.001-0.001-0.342-0.285-1.103-0.51     c-0.229-0.067-0.414-0.095-0.577-0.119c-0.487-0.073-0.863-0.188-0.895-0.945c-0.009-0.198,0.145-0.365,0.343-0.374     c0.005,0,0.01,0,0.016,0c0.191,0,0.35,0.151,0.358,0.343c0.008,0.18,0.034,0.226,0.035,0.228     c0.018,0.005,0.147,0.024,0.249,0.039c0.168,0.025,0.397,0.059,0.674,0.141c0.462,0.136,0.797,0.293,1.02,0.42     c0.026-0.073,0.05-0.162,0.064-0.268c0.071-0.543,0.3-1.002,0.31-1.022c0.089-0.176,0.302-0.249,0.481-0.159     c0.176,0.088,0.248,0.304,0.16,0.481c-0.002,0.004-0.184,0.374-0.239,0.793c-0.078,0.592-0.371,0.902-0.404,0.936     C163.61,53.997,163.518,54.032,163.426,54.032z"
             fill="#4E4E4E" /><path
             id="path169"
             d="M132.319,54.853c-0.05,0-0.101-0.011-0.15-0.033c-0.179-0.083-0.258-0.294-0.176-0.473     c0.021-0.045,0.517-1.105,1.876-1.728c1.332-0.61,1.756-0.534,1.977-0.4c0.137,0.083,0.223,0.22,0.23,0.365     c0.01,0.198-0.142,0.366-0.34,0.376c-0.122,0.003-0.215-0.041-0.284-0.118c-0.118,0.002-0.464,0.052-1.284,0.428     c-1.105,0.507-1.519,1.367-1.523,1.376C132.584,54.776,132.455,54.853,132.319,54.853z"
             fill="#4E4E4E" /><path
             id="path173"
             d="M25.744,31.804c-0.162,0-0.309-0.11-0.348-0.275c-0.046-0.192,0.072-0.386,0.265-0.432     c0.071-0.017,6.408-1.527,14.089-2.239c-4.234,0.185-8.107,0.749-12.18,1.343c-2.233,0.325-4.541,0.662-6.97,0.942     c-0.197,0.023-0.374-0.119-0.397-0.315c-0.023-0.197,0.119-0.375,0.315-0.397c2.418-0.279,4.721-0.615,6.949-0.939     c4.616-0.673,8.976-1.309,13.909-1.402c7.096-0.134,7.098-0.053,7.116,0.395c0.018,0.448,0.021,0.505-5.947,0.876     c-8.794,0.546-16.638,2.415-16.716,2.433C25.8,31.801,25.772,31.804,25.744,31.804z"
             fill="#4E4E4E" /><path
             id="path181"
             d="M141.564,25.551c-0.18,0-0.335-0.135-0.356-0.318c-0.022-0.197,0.12-0.374,0.316-0.396     c0.015-0.002,1.584-0.176,4.988-0.329c0.187-0.018,0.366,0.144,0.374,0.342c0.009,0.198-0.144,0.365-0.342,0.374     c-3.375,0.152-4.924,0.323-4.939,0.325C141.591,25.55,141.578,25.551,141.564,25.551z"
             fill="#4E4E4E" /><path
             id="path183"
             d="M149.069,25.119c-0.192,0-0.351-0.152-0.358-0.346c-0.007-0.198,0.147-0.364,0.345-0.371l0.76-0.028     c0.992-0.038,1.793-0.068,2.862-0.086c0.002,0,0.004,0,0.006,0c0.195,0,0.355,0.157,0.359,0.353     c0.003,0.198-0.155,0.361-0.353,0.365c-1.063,0.018-1.861,0.048-2.847,0.086l-0.761,0.028     C149.079,25.119,149.074,25.119,149.069,25.119z"
             fill="#4E4E4E" /><path
             id="path191"
             d="M50.466,27.151c-0.07,0-0.141-0.021-0.203-0.064c-0.216-0.15-0.575-0.542-0.551-1.056     c0.025-0.532,0.434-1.027,1.217-1.472c1.07-0.608,10.821-6.072,23.479-10.583c12.035-4.288,29.931-5.072,30.11-5.079     c0.129-0.004,0.236,0.051,0.306,0.15c0.071,0.098,0.087,0.225,0.043,0.338l-5.253,13.589c-0.071,0.185-0.279,0.276-0.464,0.205     c-0.185-0.071-0.276-0.279-0.205-0.464l5.054-13.073c-3.096,0.168-18.602,1.18-29.35,5.01c-12.601,4.49-22.3,9.926-23.365,10.531     c-0.536,0.305-0.84,0.617-0.854,0.878c-0.014,0.248,0.245,0.439,0.247,0.441c0.159,0.116,0.197,0.339,0.083,0.499     C50.689,27.098,50.578,27.151,50.466,27.151z"
             fill="#4E4E4E" /><path
             id="path195"
             d="M108.071,22.749c-0.012,0-0.024-0.001-0.037-0.002c-0.197-0.02-0.34-0.196-0.32-0.393l1.453-14.224     c0.02-0.197,0.203-0.339,0.393-0.32c0.197,0.02,0.34,0.196,0.32,0.393l-1.453,14.224     C108.409,22.611,108.253,22.749,108.071,22.749z"
             fill="#4E4E4E" /><path
             id="path197"
             d="M108.798,22.749c-0.012,0-0.025-0.001-0.037-0.002c-0.197-0.02-0.34-0.196-0.32-0.393l1.453-14.224     c0.02-0.197,0.198-0.339,0.393-0.32c0.197,0.02,0.34,0.196,0.32,0.393l-1.453,14.224     C109.136,22.611,108.98,22.749,108.798,22.749z"
             fill="#4E4E4E" /><path
             id="path199"
             d="M133.152,21.393c-0.015,0-0.029-0.001-0.045-0.003c-0.196-0.024-0.336-0.203-0.311-0.4l1.074-8.664     c-0.46-0.141-1.979-0.541-6.532-1.333c-6.276-1.092-16.989-1.378-17.096-1.381c-0.198-0.005-0.354-0.169-0.349-0.367     c0.005-0.195,0.165-0.349,0.359-0.349c0.003,0,0.006,0,0.009,0c0.108,0.003,10.873,0.29,17.201,1.391     c5.99,1.042,6.877,1.424,7.007,1.516c0.107,0.077,0.164,0.205,0.148,0.336l-1.108,8.939     C133.485,21.26,133.33,21.393,133.152,21.393z"
             fill="#4E4E4E" /><path
             id="path201"
             d="M134.26,21.393c-0.012,0-0.025-0.001-0.037-0.002c-0.197-0.02-0.34-0.196-0.32-0.393l0.901-8.8     c0.01-0.102,0.064-0.195,0.148-0.255c0.084-0.06,0.19-0.082,0.289-0.058c0.158,0.036,3.898,0.912,6.539,2.392     c2.407,1.35,1.965,2.879,1.424,3.913c-0.562,1.072-2.014,2.981-2.076,3.062c-0.12,0.157-0.344,0.188-0.503,0.068     c-0.157-0.12-0.188-0.345-0.068-0.503c0.015-0.019,1.477-1.942,2.011-2.96c0.454-0.866,0.777-1.879-1.14-2.954     c-2.064-1.157-4.918-1.954-5.954-2.221l-0.859,8.389C134.598,21.255,134.442,21.393,134.26,21.393z"
             fill="#4E4E4E" /><path
             id="path203"
             d="M158.088,38.759c-0.153,0-0.295-0.098-0.342-0.252c-0.059-0.189,0.047-0.39,0.236-0.449     c0.374-0.117,9.2-2.862,12.249-3.482c2.57-0.523,2.803-0.936,3.127-1.507c0.046-0.082,0.094-0.167,0.148-0.254     c0.451-0.727,1.105-2.12,1.112-2.134c0.084-0.179,0.296-0.257,0.477-0.173c0.179,0.084,0.256,0.297,0.172,0.477     c-0.027,0.059-0.678,1.446-1.152,2.208c-0.049,0.078-0.092,0.155-0.134,0.229c-0.445,0.787-0.857,1.297-3.608,1.857     c-3.013,0.613-12.087,3.435-12.178,3.464C158.159,38.754,158.123,38.759,158.088,38.759z"
             fill="#4E4E4E" /><path
             id="path205"
             d="M163.194,41.419l-0.025-0.717c0,0,7.484-0.26,11.095-0.39c2.501-0.09,4.613-0.21,5.133-0.774     c0.081-0.088,0.114-0.182,0.109-0.307c-0.009-0.198,0.144-0.366,0.342-0.374c0.204-0.012,0.366,0.144,0.374,0.342     c0.014,0.318-0.086,0.596-0.298,0.825c-0.654,0.709-2.267,0.883-5.634,1.005C170.678,41.159,163.194,41.419,163.194,41.419z"
             fill="#4E4E4E" /><path
             id="path207"
             d="M172.302,39.08c-0.166,0-0.315-0.116-0.351-0.285c-0.041-0.194,0.084-0.384,0.278-0.424     c5.668-1.185,6.698-1.306,6.739-1.311c0.197-0.024,0.373,0.12,0.395,0.316c0.022,0.197-0.119,0.374-0.315,0.397     c-0.042,0.005-1.081,0.131-6.673,1.3C172.351,39.078,172.326,39.08,172.302,39.08z"
             fill="#4E4E4E" /><path
             id="path209"
             d="M178.963,48.88c-0.167,0-0.317-0.117-0.351-0.288c-0.039-0.194,0.086-0.383,0.28-0.422l0,0     c0.01-0.002,1.044-0.226,1.497-1.052c0.359-0.654-0.191-1.527-0.197-1.536c-0.107-0.166-0.059-0.388,0.107-0.495     c0.166-0.107,0.387-0.06,0.495,0.106c0.033,0.05,0.79,1.239,0.223,2.271c-0.616,1.122-1.927,1.398-1.983,1.409     C179.011,48.878,178.987,48.88,178.963,48.88z"
             fill="#4E4E4E" /><path
             id="path213"
             d="M176.545,32.586c-0.029,0-0.058-0.003-0.087-0.011c-0.192-0.048-0.309-0.243-0.261-0.435     c0.099-0.399,0.317-1.551,0.132-2.085c-0.054-0.095-0.248-0.247-0.545-0.441c-0.044-0.017-0.085-0.043-0.118-0.075     c-1.076-0.677-3.253-1.78-5.227-2.679c-1.119-0.414-1.177-0.68-1.137-0.916c0.063-0.377,0.51-0.388,0.678-0.393     c0.734-0.014,1.214,0.187,2.087,0.561c0.473,0.202,1.062,0.454,1.892,0.761c2.229,0.823,2.41,1.508,2.334,2.243     c0.389,0.277,0.649,0.52,0.713,0.705c0.287,0.83-0.072,2.325-0.114,2.492C176.852,32.477,176.706,32.586,176.545,32.586z      M172.971,27.264c0.906,0.445,1.816,0.919,2.544,1.352c-0.154-0.286-0.599-0.625-1.803-1.069     C173.441,27.446,173.195,27.352,172.971,27.264z"
             fill="#4E4E4E" /><path
             id="path215"
             d="M176.776,30.696c-0.001,0-0.002,0-0.003,0c-0.198-0.002-0.357-0.164-0.355-0.362     c0-0.025,0.021-2.474-0.017-3.182c-0.008-0.155-0.007-0.315-0.004-0.485c0.009-0.629,0.02-1.343-0.547-2.553     c-0.723-1.546-1.321-2.313-1.327-2.321c-0.122-0.155-0.096-0.381,0.06-0.503c0.155-0.123,0.381-0.096,0.503,0.059     c0.027,0.033,0.652,0.831,1.414,2.461c0.636,1.359,0.624,2.195,0.614,2.867c-0.002,0.153-0.004,0.296,0.003,0.436     c0.039,0.731,0.019,3.126,0.018,3.228C177.133,30.537,176.972,30.696,176.776,30.696z"
             fill="#4E4E4E" /><path
             id="path217"
             d="M175.79,28.719c-0.178,0-0.333-0.133-0.355-0.315c-0.072-0.588-0.317-2.245-0.577-2.845     c-0.285-0.657-0.394-0.777-1.259-0.978c-0.75-0.174-5.226-0.053-6.887,0.009c-0.14,0.005-0.273-0.074-0.335-0.201     c-0.062-0.127-0.044-0.279,0.047-0.388c0.871-1.04,2.975-1.779,4.831-2.431c0.662-0.233,1.287-0.452,1.816-0.67     c0.801-0.329,0.826-0.554,0.826-0.557c0.001-0.074-0.19-0.229-0.339-0.295c-0.181-0.081-0.262-0.293-0.182-0.473     c0.081-0.181,0.293-0.263,0.474-0.182c0.079,0.035,0.772,0.361,0.763,0.96c-0.007,0.465-0.422,0.86-1.27,1.209     c-0.546,0.225-1.18,0.447-1.851,0.683c-1.335,0.469-2.804,0.984-3.765,1.591c1.805-0.054,5.272-0.133,6.033,0.044     c1.053,0.245,1.365,0.492,1.755,1.391c0.354,0.818,0.619,2.952,0.63,3.043c0.024,0.197-0.115,0.375-0.312,0.4     C175.819,28.718,175.804,28.719,175.79,28.719z"
             fill="#4E4E4E" /><path
             id="path219"
             d="M129.062,24.4c-0.175,0-0.328-0.128-0.354-0.306c-0.029-0.196,0.106-0.378,0.303-0.407     c0.118-0.017,11.946-1.746,22.556-1.746c10.561,0,17.253-0.719,17.319-0.726c0.204-0.019,0.374,0.121,0.395,0.317     c0.022,0.197-0.12,0.374-0.317,0.395c-0.067,0.007-6.795,0.73-17.398,0.73c-10.557,0-22.333,1.721-22.451,1.739     C129.097,24.399,129.079,24.4,129.062,24.4z"
             fill="#4E4E4E" /><path
             id="path221"
             d="M63.634,52.955c-0.861,0-1.748-0.025-2.677-0.085c-4.956-0.32-5.166-4.455-5.335-7.778     c-0.026-0.516-0.052-1.022-0.093-1.505c-0.07-0.809-0.131-1.433-0.184-1.972c-0.188-1.898-0.273-2.764-0.233-6.916     c0.049-5.084,1.718-8.196,1.953-8.61l1.492-5.339c0.054-0.19,0.25-0.303,0.442-0.249c0.19,0.053,0.302,0.251,0.249,0.442     l-1.504,5.383c-0.008,0.03-0.021,0.06-0.037,0.087c-0.019,0.031-1.828,3.147-1.878,8.294c-0.041,4.113,0.044,4.967,0.229,6.839     c0.054,0.542,0.116,1.169,0.185,1.982c0.042,0.49,0.068,1.005,0.095,1.53c0.17,3.353,0.346,6.82,4.664,7.099     c2.904,0.188,5.393,0.023,8.028-0.152c2.279-0.151,4.636-0.306,7.595-0.283c3.233,0.027,9.118-0.119,15.348-0.272     c6.22-0.153,13.271-0.326,18.691-0.352c2.917-0.015,5.416,0.05,7.621,0.107c5.768,0.149,8.944,0.231,10.012-1.352     c0.514-0.762,0.834-1.851,1.205-3.113c0.735-2.5,1.742-5.924,5.076-9.258c2.027-2.027,3.301-2.807,4.232-3.377     c1.3-0.796,1.894-1.159,3.119-4.296c2.061-5.278,1.41-8.738,1.403-8.773c-0.039-0.194,0.087-0.383,0.281-0.422     c0.195-0.038,0.383,0.086,0.422,0.28c0.03,0.148,0.706,3.683-1.438,9.175c-1.312,3.362-2.014,3.791-3.413,4.647     c-0.9,0.551-2.132,1.305-4.099,3.272c-3.204,3.204-4.141,6.392-4.895,8.953c-0.388,1.319-0.722,2.457-1.298,3.311     c-1.287,1.91-4.604,1.824-10.625,1.669c-2.2-0.057-4.693-0.123-7.598-0.107c-5.414,0.026-12.46,0.199-18.677,0.352     c-6.235,0.153-12.125,0.299-15.371,0.272c-2.939-0.026-5.276,0.131-7.542,0.281C67.257,52.839,65.505,52.955,63.634,52.955z"
             fill="#4E4E4E" /><path
             id="path223"
             d="M59.656,26.381c-0.015,0-0.03-0.001-0.046-0.003c-0.197-0.025-0.335-0.204-0.31-0.401l0.749-5.888     c0.025-0.197,0.203-0.337,0.401-0.31c0.197,0.025,0.335,0.205,0.31,0.401l-0.749,5.888     C59.988,26.248,59.834,26.381,59.656,26.381z"
             fill="#4E4E4E" /><path
             id="path225"
             d="M67.919,29.18h-2.235c-0.765,0-1.247-0.222-1.662-0.764c-0.12-0.157-0.09-0.382,0.067-0.503     c0.158-0.121,0.382-0.09,0.502,0.067c0.245,0.32,0.481,0.483,1.092,0.483h2.235c0.094-0.003,0.59-0.049,0.656-0.716     c0.101-1.011,0.109-3.501,0.109-3.526c0-0.198,0.161-0.358,0.359-0.358c0,0,0,0,0.001,0c0.198,0,0.358,0.162,0.358,0.36     c0,0.104-0.008,2.55-0.113,3.595C69.181,28.895,68.345,29.18,67.919,29.18z"
             fill="#4E4E4E" /><path
             id="path227"
             d="M68.583,24.399c-2.362,0-3.829-1.133-3.829-2.957c0-0.198,0.161-0.359,0.359-0.359     c0.198,0,0.359,0.161,0.359,0.359c0,1.403,1.163,2.24,3.112,2.24c2.283,0,3.737-0.861,3.891-2.304     c0.064-0.602-0.137-1.165-0.581-1.629c-0.609-0.636-1.591-0.975-2.626-0.912c-0.194,0.01-0.368-0.138-0.381-0.335     c-0.012-0.198,0.138-0.368,0.336-0.38c1.242-0.077,2.435,0.345,3.189,1.132c0.586,0.612,0.862,1.393,0.776,2.2     C72.99,23.297,71.27,24.399,68.583,24.399z"
             fill="#4E4E4E" /><path
             id="path229"
             d="M68.054,23.548c-0.715,0-1.39-0.236-1.868-0.665c-0.455-0.409-0.697-0.957-0.679-1.544     c0.04-1.329,1.193-2.207,3.085-2.35c1.173-0.088,2.822-0.026,3.621,1.536c0.09,0.176,0.02,0.392-0.156,0.482     c-0.177,0.091-0.393,0.02-0.483-0.156c-0.472-0.924-1.349-1.265-2.928-1.147c-1.488,0.112-2.394,0.732-2.422,1.656     c-0.014,0.478,0.232,0.802,0.441,0.99c0.422,0.379,1.072,0.55,1.741,0.457c0.196-0.028,0.377,0.11,0.405,0.306     c0.027,0.196-0.11,0.377-0.306,0.404C68.354,23.538,68.203,23.548,68.054,23.548z"
             fill="#4E4E4E" /><path
             id="path231"
             d="M64.827,28.816c-0.029,0-0.059-0.004-0.088-0.011c-0.192-0.049-0.309-0.243-0.26-0.436l1.264-4.997     c0.049-0.192,0.246-0.307,0.436-0.26c0.192,0.049,0.309,0.243,0.26,0.436l-1.264,4.997     C65.133,28.708,64.987,28.816,64.827,28.816z"
             fill="#4E4E4E" /><path
             id="path233"
             d="M64.462,27.071c-0.054,0-0.108-0.012-0.16-0.038c-0.177-0.089-0.249-0.304-0.16-0.481L65.77,23.3     c0.089-0.177,0.303-0.248,0.481-0.16c0.177,0.089,0.249,0.304,0.16,0.481l-1.628,3.252C64.72,26.999,64.594,27.071,64.462,27.071     z"
             fill="#4E4E4E" /><path
             id="path235"
             d="M72.842,21.614H65.97c-0.198,0-0.359-0.161-0.359-0.359c0-0.198,0.161-0.359,0.359-0.359h6.872     c0.198,0,0.359,0.161,0.359,0.359C73.2,21.453,73.04,21.614,72.842,21.614z"
             fill="#4E4E4E" /><path
             id="path237"
             d="M151.046,29.777c-0.002,0-0.004,0-0.005,0c-0.039-0.001-3.874-0.1-4.043-3.851     c-0.038-0.851,0.192-1.544,0.684-2.06c0.743-0.778,1.88-0.941,2.702-0.941c1.173,0,2.452,0.341,3.11,0.828     c0.84,0.623,1.413,2.428,0.923,3.912C154.157,28.454,153.372,29.777,151.046,29.777z M150.385,23.642     c-0.965,0-1.74,0.256-2.184,0.719c-0.352,0.368-0.515,0.884-0.487,1.532c0.139,3.067,3.173,3.164,3.335,3.166     c1.408-0.001,2.337-0.561,2.687-1.62c0.384-1.164-0.051-2.653-0.668-3.111C152.618,23.997,151.525,23.642,150.385,23.642z"
             fill="#4E4E4E" /><path
             id="path241"
             d="M132.087,28.019L132.087,28.019c-0.067,0-0.134-0.003-0.201-0.01c-1.081-0.108-1.7-0.503-1.7-1.084     c0-1.733,3.055-1.925,5.077-2.052c0.204-0.013,0.391-0.025,0.556-0.037c0.682-0.052,1.415-0.1,2.158-0.1     c1.984,0,3.011,0.356,3.23,1.121c0.087,0.304,0.051,0.601-0.106,0.857c-0.383,0.629-1.431,0.909-2.299,1.083     c-0.629,0.126-1.301,0.034-1.987-0.086c-0.544-0.095-1.107-0.193-1.789-0.175c-0.788,0.022-1.351,0.167-1.848,0.295     C132.783,27.931,132.443,28.019,132.087,28.019z M137.975,25.451c-0.719,0-1.436,0.047-2.103,0.099     c-0.168,0.013-0.358,0.025-0.565,0.038c-1.43,0.09-4.405,0.278-4.405,1.337c0,0.078,0.303,0.296,1.054,0.371     c0.043,0.004,0.087,0.006,0.13,0.006l0,0c0.265,0,0.55-0.073,0.911-0.166c0.507-0.13,1.137-0.293,2.005-0.317     c0.754-0.021,1.382,0.089,1.933,0.185c0.621,0.109,1.204,0.192,1.722,0.089c1.035-0.207,1.65-0.46,1.828-0.753     c0.035-0.058,0.07-0.142,0.029-0.286C140.475,25.912,140.172,25.451,137.975,25.451z"
             fill="#4E4E4E" /><path
             id="path243"
             d="M130.575,27.436c-0.162,0-0.308-0.11-0.348-0.274c-0.047-0.192,0.071-0.386,0.263-0.433     c0.045-0.011,4.572-1.091,10.372-0.94c0.198,0.005,0.354,0.17,0.349,0.368c-0.005,0.195-0.165,0.349-0.359,0.349     c-0.003,0-0.006,0-0.009,0c-5.714-0.148-10.139,0.909-10.183,0.92C130.632,27.433,130.603,27.436,130.575,27.436z"
             fill="#4E4E4E" /><path
             id="path247"
             d="M130.31,26.313c-0.096,0-0.192-0.039-0.263-0.115c-0.134-0.145-0.126-0.372,0.019-0.507     c0.069-0.064,1.728-1.569,5.155-1.569c0.198,0,0.359,0.161,0.359,0.359c0,0.198-0.161,0.359-0.359,0.359     c-3.149,0-4.653,1.363-4.667,1.377C130.485,26.281,130.397,26.313,130.31,26.313z"
             fill="#4E4E4E" /><path
             id="path249"
             d="M94.554,32.298c-3.143,0-3.865-1.016-4.38-2.149c-0.082-0.18-0.002-0.393,0.178-0.475     c0.179-0.083,0.393-0.003,0.475,0.178c0.368,0.81,0.785,1.728,3.727,1.728c2.86,0,3.659-1.266,3.667-1.278     c0.06-0.099,0.166-0.167,0.281-0.176c0.984-0.077,2.347-0.447,2.346-0.941c0-0.24-0.071-0.407-0.221-0.527     c-0.434-0.349-1.423-0.232-1.735-0.163c-0.191,0.042-0.384-0.08-0.427-0.273c-0.042-0.194,0.08-0.385,0.274-0.427     c0.156-0.035,1.559-0.32,2.337,0.304c0.318,0.256,0.487,0.631,0.489,1.084c0.004,1.241-2.1,1.566-2.84,1.643     C98.389,31.243,97.271,32.298,94.554,32.298z"
             fill="#4E4E4E" /><path
             id="path251"
             d="M92.072,30.695c-0.705,0-1.022-0.111-1.227-0.282c-0.158-0.132-0.249-0.316-0.262-0.531     c-0.012-0.198,0.139-0.367,0.337-0.379c0.185-0.013,0.367,0.138,0.379,0.337c0.001,0.016,0.003,0.022,0.003,0.022     c0.049,0.059,0.38,0.241,2.506-0.019c2.34-0.286,4.613-0.205,4.708-0.2c0.787-0.032,1.915-0.3,1.915-0.717     c0-0.198,0.161-0.359,0.359-0.359c0.198,0,0.359,0.161,0.359,0.359c0,1.295-2.362,1.423-2.631,1.434     c-0.051-0.001-2.341-0.084-4.622,0.196C93.095,30.652,92.509,30.695,92.072,30.695z"
             fill="#4E4E4E" /><path
             id="path255"
             d="M90.941,30.141c-0.183,0-0.339-0.14-0.357-0.326c-0.018-0.197,0.127-0.372,0.324-0.39l7.094-0.65     c0.196-0.018,0.372,0.127,0.39,0.324c0.018,0.197-0.127,0.372-0.324,0.39l-7.094,0.65C90.963,30.141,90.952,30.141,90.941,30.141     z"
             fill="#4E4E4E" /><path
             id="path257"
             d="M98.568,29.777c-0.334,0-0.605-0.271-0.605-0.605s0.271-0.606,0.605-0.606     c0.334,0,0.606,0.272,0.606,0.606S98.902,29.777,98.568,29.777z M98.568,29.06c-0.062,0-0.112,0.05-0.112,0.112     c0,0.123,0.224,0.123,0.224,0C98.68,29.11,98.63,29.06,98.568,29.06z"
             fill="#4E4E4E" /><path
             id="path263"
             d="M52.353,23.061c-0.102,0-0.203-0.043-0.274-0.127l-1.408-1.668c-0.127-0.151-0.109-0.378,0.043-0.505     c0.152-0.127,0.377-0.109,0.505,0.043l1.408,1.668c0.127,0.151,0.109,0.378-0.043,0.505     C52.517,23.033,52.435,23.061,52.353,23.061z"
             fill="#4E4E4E" /><path
             id="path265"
             d="M65.458,24.399c-0.062,0-0.124-0.016-0.182-0.05c-0.117-0.069-2.883-1.699-3.507-2.115     c-0.168-0.112-0.518-0.345-0.488-0.71c0.034-0.419,0.49-0.627,1.318-1.005c0.218-0.099,0.557-0.264,0.994-0.475     c1.911-0.925,5.467-2.647,9.129-3.955c1.182-0.423,2.414-0.915,3.718-1.437c3.722-1.489,7.941-3.177,13.523-4.293     c0.193-0.039,0.383,0.087,0.422,0.281c0.039,0.194-0.087,0.383-0.281,0.422c-5.517,1.104-9.704,2.778-13.398,4.256     c-1.31,0.524-2.548,1.019-3.743,1.446c-3.625,1.295-7.158,3.006-9.057,3.926c-0.444,0.215-0.788,0.381-1.009,0.482     c-0.247,0.113-0.625,0.285-0.817,0.404c0.024,0.018,0.052,0.038,0.087,0.061c0.608,0.405,3.445,2.078,3.473,2.094     c0.17,0.1,0.227,0.32,0.127,0.491C65.7,24.336,65.58,24.399,65.458,24.399z"
             fill="#4E4E4E" /><g
             id="g4548"><path
               fill="#4E4E4E"
               d="M144.851,64.954c-11.628,0-21.087-9.46-21.087-21.087s9.46-21.087,21.087-21.087   c11.628,0,21.087,9.46,21.087,21.087S156.479,64.954,144.851,64.954z M144.851,23.497c-11.232,0-20.37,9.138-20.37,20.37   s9.138,20.37,20.37,20.37c11.232,0,20.37-9.138,20.37-20.37S156.083,23.497,144.851,23.497z"
               id="path5"
               style="" /><path
               fill="#4E4E4E"
               d="M163.515,91.227c-0.311,0-0.621-0.191-0.809-0.5l-11.499-18.896c-0.122-0.201-0.178-0.429-0.159-0.644   c0.023-0.251,0.148-0.464,0.346-0.584l10.621-6.464c0.367-0.223,0.909-0.04,1.176,0.398l11.5,18.896   c0.277,0.456,0.196,0.995-0.186,1.228l-10.621,6.463C163.773,91.192,163.646,91.227,163.515,91.227z M162.381,64.756l-10.615,6.46   c-0.01,0.018-0.02,0.122,0.054,0.242l11.499,18.896c0.071,0.118,0.163,0.156,0.197,0.156h0.002l10.613-6.46   c0.01-0.018,0.02-0.122-0.054-0.242l-11.5-18.896C162.505,64.794,162.414,64.756,162.381,64.756z"
               id="path23"
               style="" /><path
               fill="#4E4E4E"
               d="M8.053,41.286c-0.085,0-0.169-0.03-0.237-0.089c-0.138-0.121-0.162-0.326-0.056-0.476l5.263-7.474     c0.114-0.162,0.338-0.202,0.5-0.087c0.162,0.114,0.201,0.338,0.087,0.5L9.758,39.13c1.333-0.94,3.235-2.082,5.331-2.725     c3.547-1.089,3.967-1.256,4.004-1.271c0.171-0.099,0.376-0.032,0.474,0.14c0.099,0.172,0.024,0.399-0.148,0.497     c-0.177,0.102-2.657,0.871-4.119,1.32c-3.758,1.154-6.973,4.073-7.004,4.103C8.226,41.255,8.139,41.286,8.053,41.286z"
               id="path43" /><path
               fill="#4E4E4E"
               d="M14.074,37.503c-0.05,0-0.101-0.011-0.149-0.032c-0.18-0.083-0.259-0.295-0.176-0.475l1.847-4.036     c0.058-0.128,0.186-0.209,0.326-0.209h2.807c0.128,0,0.247,0.069,0.311,0.18c0.064,0.111,0.063,0.248-0.001,0.359l-1.807,3.104     c-0.099,0.171-0.319,0.23-0.49,0.129c-0.171-0.1-0.229-0.319-0.13-0.49l1.494-2.565h-1.953L14.4,37.294     C14.34,37.425,14.21,37.503,14.074,37.503z"
               id="path45" /><path
               fill="#4E4E4E"
               d="M26.628,39.128c-0.064,0-0.13-0.018-0.189-0.054l-6.325-3.933c-0.168-0.105-0.219-0.326-0.115-0.494     c0.104-0.168,0.324-0.22,0.494-0.115l6.325,3.933c0.168,0.105,0.219,0.326,0.115,0.494     C26.866,39.068,26.748,39.128,26.628,39.128z"
               id="path49" /><path
               fill="#4E4E4E"
               d="M37.337,59.467C37.337,59.467,37.337,59.467,37.337,59.467c-0.286,0-0.687-0.008-1.248-0.031     c-1.696-0.071-2.538-0.354-2.573-0.366c-0.146-0.05-0.244-0.188-0.242-0.343c0-0.001,0.012-1.175,0-2.384     c-0.012-1.187,0.504-2.147,1.453-2.704c0.716-0.42,1.972-0.997,2.025-1.021c0.105-0.048,0.226-0.043,0.326,0.014     c0.1,0.057,0.167,0.159,0.18,0.273l0.19,1.767c0.185,1.718,0.899,4.282,0.907,4.308c0.053,0.19-0.057,0.387-0.247,0.441     C37.979,59.459,37.617,59.467,37.337,59.467z M33.993,58.457c0.344,0.082,1.051,0.217,2.126,0.261     c0.548,0.023,0.939,0.031,1.218,0.031l0,0c0.081,0,0.151-0.001,0.212-0.002c-0.215-0.817-0.667-2.633-0.814-3.998l-0.136-1.267     c-0.434,0.207-1.083,0.526-1.509,0.776c-0.508,0.298-1.11,0.9-1.098,2.078C33.999,57.196,33.995,58.037,33.993,58.457z"
               id="path81" /><path
               fill="#4E4E4E"
               d="M44.447,51.656c-0.397,0-0.885-0.029-1.45-0.088c-2.737-0.281-3.516-0.9-3.596-0.97     c-0.104-0.091-0.146-0.233-0.109-0.365h0c0,0,0.024-0.143-0.011-0.474c-0.044-0.423-0.231-0.597-0.239-0.604     c-0.129-0.117-0.159-0.314-0.066-0.462c0.094-0.147,0.276-0.208,0.437-0.142c0.572,0.239,1.203,0.36,1.875,0.36     c1.997,0,3.722-1.061,3.739-1.072c0.082-0.051,0.18-0.066,0.273-0.045c0.093,0.022,0.174,0.081,0.224,0.163     c0.028,0.047,0.282,0.485,0.43,1.394c0.13,0.807,0.034,1.498,0.004,1.676c-0.003,0.092-0.036,0.186-0.097,0.266     C45.672,51.545,45.236,51.656,44.447,51.656z M40.016,50.144c0.309,0.162,1.171,0.518,3.054,0.712     c0.542,0.056,1.005,0.084,1.377,0.084c0.491,0,0.716-0.049,0.81-0.08c0.028-0.199,0.089-0.759-0.013-1.392     c-0.058-0.358-0.134-0.629-0.2-0.816c-0.651,0.338-2.102,0.979-3.757,0.979c-0.458,0-0.901-0.05-1.324-0.149     c0.013,0.064,0.023,0.132,0.031,0.204C40.015,49.879,40.019,50.03,40.016,50.144z"
               id="path87" /><circle
               fill="#4E4E4E"
               cx="37.091"
               cy="50.363"
               r="0.67"
               id="circle89" /><path
               fill="#4E4E4E"
               d="M27.548,42.113c-0.11,0-0.219-0.05-0.289-0.146c-0.118-0.159-0.084-0.384,0.076-0.501     c0.066-0.049,1.649-1.206,3.814-1.865c0.191-0.059,0.39,0.049,0.448,0.238c0.057,0.189-0.049,0.39-0.239,0.448     c-2.048,0.624-3.582,1.745-3.597,1.757C27.697,42.09,27.622,42.113,27.548,42.113z"
               id="path95" /><path
               fill="#4E4E4E"
               d="M142.552,57.459c-0.099,0-0.196-0.041-0.264-0.116l-1.974-2.148c-0.073-0.079-0.106-0.187-0.091-0.294     c0.015-0.107,0.078-0.201,0.171-0.256l5.573-3.33c0.101-0.06,0.226-0.067,0.334-0.018c0.106,0.049,0.182,0.147,0.203,0.262     c0-0.001,0-0.001,0-0.001c0.006,0,0.08,0.145,0.366,0.386c0.398,0.337,0.769,0.496,0.773,0.498     c0.124,0.053,0.209,0.17,0.219,0.305c0.01,0.134-0.057,0.263-0.172,0.333c-0.016,0.01-1.662,1.007-2.981,2.021     c-1.26,0.969-1.826,2.142-1.832,2.154c-0.051,0.108-0.153,0.183-0.27,0.201C142.588,57.457,142.569,57.459,142.552,57.459z      M141.139,55.034l1.343,1.461c0.301-0.481,0.879-1.265,1.788-1.964c0.902-0.694,1.926-1.364,2.529-1.745     c-0.123-0.082-0.257-0.18-0.394-0.296c-0.168-0.142-0.289-0.268-0.378-0.377L141.139,55.034z"
               id="path131" /><path
               fill="#4E4E4E"
               d="M151.48,62.038c-0.113,0-0.228-0.001-0.347-0.004c-0.198-0.005-0.355-0.169-0.35-0.367     s0.171-0.353,0.367-0.35c2.821,0.064,3.963-0.721,3.974-0.729c0.161-0.113,0.384-0.078,0.5,0.081     c0.115,0.16,0.082,0.381-0.077,0.498C155.496,61.205,154.328,62.038,151.48,62.038z"
               id="path153" /><path
               fill="#4E4E4E"
               d="M53.393,57.738c-0.045,0-0.09-0.008-0.134-0.026c-0.134-0.054-0.223-0.183-0.225-0.328     c-0.001-0.08-0.12-8.091-1.777-12.254c-0.384-0.965-4.037-9.427-13.976-9.427c-8.647,0-11.815,4.116-13.608,7.701     c-1.957,3.914-1.373,10.809-1.367,10.878c0.008,0.095-0.021,0.189-0.082,0.262c-0.061,0.073-0.149,0.119-0.244,0.127     c-7.558,0.666-14.034-1.304-15.058-2.021c-0.94-0.659-1.207-1.723-1.218-1.768c-0.047-0.192,0.071-0.386,0.264-0.433     c0.192-0.047,0.386,0.071,0.433,0.263l0,0c0.002,0.008,0.22,0.851,0.933,1.351c0.673,0.472,6.721,2.509,14.23,1.923     c-0.099-1.507-0.342-7.286,1.467-10.902c1.885-3.77,5.209-8.098,14.249-8.098c7.907,0,12.83,5.322,14.643,9.879     c0.511,1.284,0.879,2.892,1.145,4.523c0.054-0.01,0.113-0.008,0.17,0.011c0.987,0.308,1.412,0.851,1.899,2.419     c0.456,1.47,1.071,2.857,1.077,2.871c0.06,0.134,0.031,0.292-0.071,0.397l-2.495,2.546C53.58,57.7,53.487,57.738,53.393,57.738z      M53.184,50.135c0.372,2.583,0.501,5.109,0.545,6.388l1.733-1.769c-0.195-0.458-0.645-1.553-1.009-2.725     C54.027,50.654,53.718,50.332,53.184,50.135z"
               id="path159" /><path
               fill="#4E4E4E"
               d="M13.264,52.091c-0.198,0-0.358-0.16-0.359-0.358c0-0.198,0.16-0.359,0.358-0.359     c0.009,0,0.12,0,0.586-0.013c-0.75-0.044-1.191-0.078-1.202-0.078c-0.197-0.015-0.346-0.187-0.331-0.385     c0.015-0.198,0.193-0.346,0.385-0.33c0.029,0.002,2.902,0.219,6.545,0.287c1.866,0.035,2.104,0.056,2.107,0.47     c0.003,0.399,0.004,0.506-4.433,0.657C13.729,52.089,13.281,52.091,13.264,52.091z"
               id="path161" /><path
               fill="#4E4E4E"
               d="M24.318,28.307c-0.156,0-0.3-0.103-0.345-0.261c-0.054-0.19,0.056-0.389,0.247-0.443     c0.078-0.022,7.935-2.242,15.732-3.091c0.197-0.021,0.374,0.121,0.395,0.318c0.021,0.197-0.12,0.374-0.317,0.395     c-7.738,0.843-15.536,3.045-15.614,3.067C24.383,28.303,24.35,28.307,24.318,28.307z"
               id="path171" /><path
               fill="#4E4E4E"
               d="M24.236,37.503c-0.071,0-0.142-0.021-0.205-0.064c-0.162-0.113-0.202-0.337-0.089-0.499     c0.144-0.206,3.624-5.038,13.042-5.038c9.426,0,12.235,4.144,12.35,4.32c0.108,0.166,0.062,0.388-0.105,0.496     c-0.165,0.109-0.388,0.061-0.496-0.105c-0.026-0.039-2.752-3.995-11.749-3.995c-9.047,0-12.421,4.684-12.454,4.731     C24.461,37.45,24.35,37.503,24.236,37.503z"
               id="path175" /><path
               fill="#4E4E4E"
               d="M101.205,28.757c-0.185,0-0.342-0.142-0.357-0.33c-0.016-0.197,0.131-0.37,0.329-0.386     c0.037-0.003,3.765-0.305,11.776-1.058c8.019-0.754,17.104-1.38,17.194-1.386c0.201-0.015,0.369,0.135,0.382,0.333     c0.014,0.197-0.135,0.369-0.333,0.382c-0.091,0.006-9.167,0.632-17.177,1.385c-8.017,0.754-11.748,1.056-11.785,1.059     C101.225,28.757,101.215,28.757,101.205,28.757z"
               id="path177" /><path
               fill="#4E4E4E"
               d="M166.55,24.996c-0.001,0-0.002,0-0.003,0c-0.061,0-6.212-0.061-11.652-0.011     c-0.217,0.009-0.36-0.158-0.362-0.355c-0.002-0.198,0.157-0.36,0.355-0.362c4.735-0.042,10.003-0.003,11.343,0.009     c0.018-0.048,0.042-0.094,0.071-0.137c0.301-0.455,1.058-0.6,2.313-0.842c1.023-0.197,2.296-0.442,3.632-0.936     c1.839-0.68,2.839-1.259,2.817-1.63c-0.011-0.208-0.034-0.637-1.864-0.672c-2.481-0.049-6.731-0.693-11.37-1.724l-0.21-0.047     c-3.852-0.855-3.852-0.855-11.246-3.875c-1.773-0.724-3.973-1.622-6.755-2.748c-13.598-5.504-34.959-5.78-50.414-4.203     c-12.791,1.305-18.543,3.773-28.985,8.252l-1.823,0.781c-11.368,4.862-16.294,7.045-16.343,7.066     c-0.18,0.08-0.393-0.001-0.473-0.182c-0.08-0.181,0.001-0.393,0.183-0.473c0.048-0.021,4.978-2.205,16.351-7.07l1.822-0.781     c10.507-4.507,16.295-6.99,29.194-8.307c15.541-1.586,37.036-1.302,50.756,4.251c2.784,1.127,4.984,2.025,6.757,2.749     c7.338,2.996,7.338,2.996,11.131,3.839l0.211,0.047c4.526,1.006,8.828,1.66,11.228,1.706c1.751,0.034,2.518,0.431,2.565,1.327     c0.035,0.579-0.191,1.222-3.283,2.365c-1.391,0.514-2.696,0.765-3.745,0.967c-0.748,0.144-1.774,0.342-1.852,0.537     c0.023,0.106-0.003,0.23-0.071,0.314C166.759,24.936,166.658,24.996,166.55,24.996z"
               id="path185" /><path
               fill="#4E4E4E"
               d="M103.355,51.908c-0.163,0-0.31-0.112-0.349-0.278c-1.325-5.722-1.155-13.093-0.911-18.14     c0.267-5.528,1.951-10.617,2.089-11.027l2.698-14.384c0.036-0.195,0.224-0.323,0.419-0.286c0.194,0.037,0.323,0.224,0.286,0.419     l-2.703,14.409c-0.003,0.018-0.008,0.035-0.014,0.051c-0.018,0.052-1.788,5.223-2.059,10.853     c-0.241,5.004-0.411,12.308,0.894,17.944c0.045,0.193-0.076,0.385-0.268,0.43C103.41,51.905,103.382,51.908,103.355,51.908z"
               id="path193" /><path
               fill="#4E4E4E"
               d="M163.987,52.506c-0.198,0-0.359-0.161-0.359-0.359c0-0.334,0.092-0.348,1.226-0.529     c2.574-0.41,10.404-1.657,12.371-4.649c1.571-2.388,1.738-4.099,1.873-5.473c0.076-0.779,0.142-1.451,0.444-2.074     c0.086-0.178,0.302-0.253,0.479-0.167c0.178,0.086,0.253,0.301,0.167,0.479c-0.245,0.508-0.303,1.092-0.375,1.832     c-0.135,1.376-0.319,3.261-1.987,5.797c-2.142,3.257-9.927,4.496-12.858,4.963c-0.359,0.057-0.7,0.111-0.814,0.138     C164.104,52.492,164.047,52.506,163.987,52.506z"
               id="path211" /><path
               fill="#4E4E4E"
               d="M163.426,40.496c-0.138,0-0.269-0.08-0.328-0.213c-0.033-0.073-3.388-7.348-14.402-7.697     c-2.163-0.069-3.978,0.237-5.471,0.545c-0.189,0.04-0.383-0.084-0.423-0.279c-0.04-0.194,0.085-0.384,0.279-0.423     c1.534-0.317,3.407-0.631,5.638-0.56c11.485,0.364,15.001,8.047,15.035,8.124c0.08,0.181-0.002,0.392-0.183,0.472     C163.524,40.487,163.475,40.496,163.426,40.496z"
               id="path239" /><path
               fill="#4E4E4E"
               d="M135.039,29.284c-3.073,0-5.273-0.971-5.474-2.415c-0.027-0.196,0.11-0.377,0.306-0.405     c0.199-0.028,0.378,0.11,0.405,0.306c0.121,0.871,1.832,1.797,4.764,1.797c3.135,0,5.719-0.884,5.881-2.013     c0.028-0.196,0.2-0.334,0.406-0.304c0.196,0.028,0.332,0.21,0.303,0.406C141.369,28.471,138.132,29.284,135.039,29.284z"
               id="path245" /><g
               id="g4582"><path
                 id="path101"
                 d="M40.08,62.038c-0.113,0-0.228-0.001-0.347-0.004c-0.198-0.005-0.355-0.169-0.35-0.367     c0.005-0.198,0.184-0.353,0.367-0.35c2.82,0.064,3.963-0.721,3.974-0.729c0.161-0.113,0.384-0.078,0.5,0.081     c0.115,0.16,0.082,0.381-0.077,0.498C44.096,61.205,42.928,62.038,40.08,62.038z"
                 fill="#4E4E4E" /><path
                 id="path179"
                 d="M58.895,50.683c-0.139,0-0.266-0.081-0.325-0.208c-0.062-0.134-0.035-0.293,0.067-0.399     c1.145-1.19,2.224-1.304,8.214-1.937c0.829-0.088,1.754-0.185,2.787-0.297c3.691-0.4,9.172-0.71,15.517-1.069     c7.994-0.452,17.942-1.015,28.283-1.98c5.783-0.539,10.07-0.813,12.743-0.813c2.982,0,3.311,0.328,3.402,0.694     c0.074,0.296-0.143,0.53-0.352,0.641c-0.07,0.054-2.778,1.925-12.052,2.825c-9.404,0.912-31.429,1.806-41.121,1.941     c-9.787,0.136-17.067,0.597-17.139,0.602C58.91,50.682,58.902,50.683,58.895,50.683z M126.181,44.696     c-2.651,0-6.916,0.272-12.677,0.81c-10.354,0.966-20.309,1.53-28.309,1.982c-6.336,0.359-11.807,0.668-15.48,1.066     c-1.035,0.112-1.96,0.21-2.79,0.297c-4.102,0.433-5.813,0.614-6.805,1.042c2.492-0.137,8.488-0.428,15.926-0.531     c9.681-0.134,31.675-1.027,41.062-1.938c7.564-0.734,10.681-2.136,11.508-2.581C128.27,44.774,127.57,44.696,126.181,44.696z"
                 fill="#4E4E4E" /></g><path
               fill="#4E4E4E"
               d="M99.92,29.362c-0.276,0-0.501-0.225-0.501-0.501c0-0.276,0.225-0.501,0.501-0.501     c0.277,0,0.502,0.225,0.502,0.501C100.421,29.137,100.196,29.362,99.92,29.362z M99.92,28.645c-0.119,0-0.215,0.097-0.215,0.216     c0,0.119,0.097,0.216,0.215,0.216c0.119,0,0.216-0.097,0.216-0.216C100.135,28.741,100.039,28.645,99.92,28.645z"
               id="path259" /><path
               fill="#4E4E4E"
               d="M50.08,56.27c-0.042,0-0.078-0.006-0.106-0.014c-0.191-0.052-0.303-0.25-0.251-0.441     c0.029-0.108,0.105-0.19,0.199-0.233c0.524-0.72,2.377-6.976-0.931-12.866c-0.097-0.173-0.035-0.391,0.137-0.488     c0.174-0.097,0.392-0.035,0.488,0.137c3.512,6.252,1.523,12.823,0.848,13.687C50.328,56.227,50.187,56.27,50.08,56.27z"
               id="path261" /><path
               fill="#4E4E4E"
               d="M72.334,20.071c-0.129,0-0.254-0.07-0.318-0.192c-0.092-0.175-0.024-0.392,0.151-0.484     c0.036-0.019,3.648-1.9,8.969-3.571l0.391-0.123c5.43-1.706,9.016-2.833,12.929-3.201c4.544-0.429,6.347,0.758,7.017,1.503     c0.819,0.91,0.519,2.217,0.3,3.171c-0.037,0.159-0.072,0.313-0.101,0.457c-0.038,0.194-0.224,0.321-0.422,0.282     c-0.194-0.039-0.32-0.227-0.282-0.422c0.03-0.151,0.067-0.311,0.105-0.478c0.204-0.889,0.436-1.898-0.134-2.531     c-0.467-0.519-2.027-1.681-6.417-1.269c-3.837,0.361-7.204,1.419-12.781,3.171l-0.391,0.123c-5.255,1.651-8.815,3.503-8.85,3.522     C72.447,20.058,72.39,20.071,72.334,20.071z"
               id="path267" /></g><g
             id="g4597"><path
               id="path103"
               d="M148.385,63.431c-7.227,0-13.107-5.88-13.107-13.107s5.88-13.107,13.107-13.107     s13.107,5.88,13.107,13.107S155.613,63.431,148.385,63.431z M148.385,37.934c-6.832,0-12.39,5.558-12.39,12.39     s5.558,12.39,12.39,12.39c6.832,0,12.389-5.558,12.389-12.39S155.217,37.934,148.385,37.934z"
               fill="#4E4E4E"
               style="" /><path
               style=""
               id="path51"
               d="M36.985,63.431c-7.227,0-13.107-5.88-13.107-13.107s5.88-13.107,13.107-13.107     c7.228,0,13.107,5.88,13.107,13.107S44.213,63.431,36.985,63.431z M36.985,37.934c-6.832,0-12.389,5.558-12.389,12.39     s5.558,12.39,12.389,12.39c6.832,0,12.39-5.558,12.39-12.39S43.817,37.934,36.985,37.934z"
               fill="#4E4E4E" /><path
               fill="#4E4E4E"
               d="M10.954,51.784c-1.063,0-2.237-0.188-2.419-0.219c-0.11-0.018-0.205-0.087-0.258-0.186l-1.213-2.287     C7.048,49.064,7.037,49.032,7.03,49c-0.071-0.336,0.019-1.077,0.871-1.473c0.635-0.296,1.131-0.488,1.337-0.564     c-0.028-0.034-0.083-0.085-0.184-0.152c-0.381-0.253-1.374,0.437-1.922,0.983c-0.103,0.102-0.257,0.133-0.391,0.077     c-0.134-0.056-0.221-0.186-0.221-0.331v-1.028c0-0.131,0.071-0.247,0.176-0.309c-0.116-0.068-0.185-0.196-0.176-0.333     l0.312-4.625c0.009-0.141,0.1-0.262,0.232-0.312c0.033-0.012,3.366-1.27,8.124-3.674c3.45-1.744,7.313-4.152,9.198-5.359     c-1.293,0.095-3.333,0.257-5.413,0.475c-0.845,0.088-1.684,0.249-2.469,0.441c-0.025,0.011-0.039,0.017-0.042,0.018     c-0.05,0.022-0.098,0.031-0.154,0.031c-2.263,0.574-4.024,1.381-4.048,1.392c-0.144,0.066-0.313,0.031-0.418-0.087     c-0.106-0.118-0.121-0.291-0.038-0.426c0.054-0.089,1.439-2.215,10.753-5.545l1.3-0.465c8.372-2.997,11.838-4.237,15.754-4.337     c3.972-0.102,6.21-0.51,6.233-0.514c0.188-0.034,0.372,0.085,0.415,0.272c0.043,0.187-0.069,0.375-0.254,0.426     c0,0-7.121,1.975-14.917,4.106c-4.596,1.256-8.905,2.842-11.638,3.919c3.246-0.326,6.241-0.515,6.273-0.517     c0.163-0.008,0.31,0.09,0.362,0.244c0.052,0.154-0.007,0.323-0.141,0.413c-0.056,0.037-5.634,3.73-10.431,6.154     c-4.104,2.074-7.162,3.303-7.979,3.622l-0.237,3.512c0.495-0.381,1.206-0.796,1.956-0.796c1.44,0,2.111,0.997,2.725,2.606     c0.584,1.526,1.141,3.073,1.146,3.089c0.018,0.049,0.189,0.535-0.044,1.019c-0.156,0.324-0.445,0.556-0.86,0.69     C11.887,51.746,11.431,51.784,10.954,51.784z M8.827,50.886c0.78,0.117,2.462,0.3,3.173,0.071     c0.219-0.07,0.364-0.176,0.432-0.315c0.105-0.213,0.018-0.465,0.018-0.467c-0.007-0.017-0.561-1.558-1.142-3.077     c-0.613-1.603-1.132-2.144-2.056-2.144c-1.036,0-2.096,1.168-2.107,1.18c-0.025,0.028-0.054,0.051-0.085,0.069     c0.105,0.063,0.176,0.177,0.176,0.309v0.24c0.614-0.471,1.533-0.989,2.213-0.539c0.36,0.238,0.54,0.504,0.534,0.79     c-0.006,0.272-0.185,0.476-0.338,0.568c-0.021,0.013-0.043,0.023-0.066,0.031c-0.006,0.002-0.585,0.207-1.375,0.575     c-0.456,0.213-0.482,0.53-0.476,0.638L8.827,50.886z M41.695,24.028c-0.624,0.036-1.313,0.066-2.066,0.085     c-3.802,0.097-7.235,1.326-15.531,4.295l-1.3,0.465c-4.571,1.634-7.179,2.964-8.638,3.876c0.623-0.211,1.347-0.431,2.129-0.622     c0.939-0.406,7.426-3.169,14.61-5.133C34.996,25.874,38.907,24.797,41.695,24.028z"
               id="path39"
               style="" /><path
               fill="#4E4E4E"
               d="M55.887,55.191c-0.197,0-0.358-0.159-0.359-0.357c-0.001-0.198,0.159-0.359,0.357-0.36l76.067-0.336     c-0.016-1.817,0.21-9.655,5.074-14.736c2.74-2.862,6.472-4.314,11.091-4.314c4.992,0,8.941,1.485,11.741,4.415     c4.179,4.375,4.491,10.544,4.494,12.23c1.911-0.273,9.863-1.436,12.13-2.212c2.302-0.788,2.661-1.664,3.311-3.254l0.147-0.356     c0.589-1.417,0.565-2.374,0.538-3.483c-0.006-0.241-0.012-0.488-0.012-0.745c0-0.716-0.167-0.94-0.398-1.25     c-0.186-0.25-0.418-0.562-0.554-1.137c-0.085-0.363-0.237-0.62-0.412-0.917c-0.342-0.579-0.768-1.3-0.844-3.047     c-0.069-1.572-0.373-1.775-1.503-2.531c-0.173-0.116-0.363-0.243-0.57-0.387c-0.557-0.388-1.016-0.846-1.501-1.332     c-0.965-0.965-2.059-2.059-4.403-3.141c-3.661-1.69-4.049-3.079-4.082-3.231c-0.041-0.194,0.084-0.384,0.277-0.425     c0.189-0.041,0.377,0.079,0.423,0.267c0.012,0.039,0.408,1.227,3.682,2.738c2.46,1.136,3.652,2.328,4.61,3.286     c0.482,0.482,0.899,0.899,1.404,1.25c0.203,0.141,0.389,0.266,0.559,0.379c1.192,0.797,1.736,1.161,1.82,3.096     c0.069,1.569,0.413,2.151,0.746,2.714c0.188,0.319,0.382,0.648,0.493,1.117c0.101,0.43,0.261,0.645,0.43,0.873     c0.266,0.356,0.54,0.725,0.54,1.678c0,0.251,0.006,0.492,0.012,0.727c0.028,1.141,0.054,2.219-0.593,3.776l-0.145,0.352     c-0.657,1.607-1.132,2.768-3.743,3.661c-2.636,0.902-12.27,2.246-12.679,2.303c-0.108,0.016-0.212-0.018-0.291-0.09     c-0.079-0.072-0.121-0.175-0.117-0.281c0.003-0.073,0.274-7.361-4.293-12.136c-2.658-2.78-6.432-4.189-11.218-4.189     c-4.416,0-7.974,1.377-10.573,4.092c-5.204,5.436-4.871,14.491-4.867,14.581c0.004,0.097-0.031,0.192-0.099,0.263     c-0.067,0.071-0.161,0.111-0.258,0.111l-76.432,0.337C55.888,55.191,55.888,55.191,55.887,55.191z"
               id="path187"
               style="" /><path
               fill="#4E4E4E"
               d="M49.732,27.175c-1.111,0-1.816-0.219-1.953-1.169c-0.228-1.578,2.3-2.694,5.501-4.106     c1.245-0.549,2.533-1.117,3.686-1.735l0.46-0.248C72.305,11.868,88.9,7.787,106.75,7.787c23.181,0,33.431,4.041,37.477,6.45     c0.077,0.046,0.14,0.083,0.188,0.11c1,0.562,2.073,1.487,1.487,3.663c-0.507,1.883-1.918,3.169-1.977,3.223     c-0.063,0.056-0.142,0.088-0.226,0.092c-0.235,0.009-23.705,0.907-36.308,1.455c-12.598,0.548-33.936,2.2-34.15,2.217     c-0.189,0.021-0.369-0.132-0.385-0.33c-0.015-0.197,0.133-0.37,0.33-0.385c0.214-0.017,21.564-1.67,34.175-2.218     c12.102-0.526,34.223-1.375,36.175-1.45c0.304-0.303,1.294-1.374,1.675-2.789c0.43-1.596-0.12-2.274-1.146-2.851     c-0.052-0.029-0.119-0.069-0.203-0.119c-3.983-2.371-14.101-6.349-37.11-6.349c-17.729,0-34.209,4.052-48.983,12.042l-0.463,0.25     c-1.178,0.631-2.478,1.204-3.736,1.759c-2.572,1.135-5.231,2.308-5.081,3.348c0.085,0.592,0.609,0.623,2.64,0.489l0.51-0.033     c2.186-0.137,13.045-1.167,13.154-1.177c0.206-0.018,0.373,0.126,0.391,0.323c0.019,0.197-0.126,0.372-0.323,0.391     c-0.11,0.011-10.98,1.041-13.178,1.179l-0.508,0.033C50.641,27.143,50.157,27.175,49.732,27.175z"
               id="path189"
               style="" /><path
               fill="#4E4E4E"
               d="M46.63,34.767c-0.173,0-0.325-0.125-0.353-0.302c-0.032-0.195,0.101-0.38,0.297-0.411     c0.075-0.012,7.623-1.222,17.933-2.456c7.853-0.94,14.2-1.552,17.25-1.847l1.114-0.108c3.256-0.319,6.607-0.575,7.441-0.637     c0.824-1.372,3.22-1.999,5.177-1.999c1.814,0,2.757,0.895,2.796,0.933c0.1,0.097,0.135,0.244,0.089,0.376     c-0.046,0.132-0.165,0.225-0.304,0.239c-0.027,0.003-2.694,0.262-4.767,0.544c-1.276,0.173-1.667,0.327-1.772,0.382     c-0.045,0.071-0.114,0.127-0.201,0.152c-0.181,0.055-0.363-0.038-0.433-0.205c-0.014,0.025-0.026,0.049-0.038,0.075     c-0.055,0.117-0.169,0.195-0.298,0.205c-0.039,0.003-3.893,0.285-7.62,0.65l-1.114,0.108c-3.048,0.294-9.39,0.906-17.234,1.845     c-10.295,1.232-17.829,2.44-17.904,2.452C46.668,34.765,46.649,34.767,46.63,34.767z M95.489,27.725     c-1.341,0-2.899,0.331-3.856,0.959c0.329-0.093,0.823-0.194,1.573-0.295c1.246-0.169,2.703-0.33,3.681-0.434     C96.529,27.827,96.063,27.725,95.489,27.725z"
               id="path253"
               style="" /><path
               fill="#4E4E4E"
               d="M126.154,22.008c-0.025,0-0.05-0.003-0.075-0.008c-0.194-0.041-0.317-0.232-0.276-0.425l1.181-5.54     c-0.67-0.227-2.555-0.801-5.877-1.333c-5.058-0.81-11.34-0.819-11.403-0.819c-0.198,0-0.359-0.161-0.359-0.359     c0-0.198,0.161-0.359,0.359-0.359c0.063,0,6.403,0.01,11.516,0.828c4.338,0.694,6.235,1.445,6.314,1.477     c0.162,0.065,0.254,0.237,0.217,0.407l-1.246,5.846C126.468,21.892,126.319,22.008,126.154,22.008z"
               id="path269" /></g><path
             id="path271"
             d="M127.4,21.93c-0.024,0-0.048-0.002-0.071-0.007c-0.194-0.039-0.32-0.228-0.281-0.423l1.091-5.405     c0.021-0.103,0.085-0.191,0.177-0.242c0.091-0.051,0.201-0.059,0.299-0.023l5.034,1.857c0.186,0.069,0.281,0.275,0.212,0.461     c-0.069,0.186-0.274,0.281-0.461,0.212l-4.641-1.712l-1.008,4.994C127.717,21.812,127.567,21.93,127.4,21.93z"
             fill="#4E4E4E" /></g></g></g></g></svg>