<?xml version="1.0" encoding="utf-8"?>
<!-- Generator: Adobe Illustrator 17.0.0, SVG Export Plug-In . SVG Version: 6.00 Build 0)  -->
<!DOCTYPE svg PUBLIC "-//W3C//DTD SVG 1.1//EN" "http://www.w3.org/Graphics/SVG/1.1/DTD/svg11.dtd">
<svg version="1.1" id="Слой_1" xmlns="http://www.w3.org/2000/svg" xmlns:xlink="http://www.w3.org/1999/xlink" x="0px" y="0px"
	 width="112px" height="147px" viewBox="0 0 112 147" enable-background="new 0 0 112 147" xml:space="preserve">
<path fill="#4E4E4E" d="M98.149,125.553H54.628c-0.347,0-0.629-0.282-0.629-0.629s0.282-0.629,0.629-0.629h43.521
	c0.964,0,1.747-0.784,1.747-1.747V17.902c0-0.964-0.784-1.747-1.747-1.747H8.802c-0.964,0-1.747,0.784-1.747,1.747v104.646
	c0,0.964,0.784,1.747,1.747,1.747H24.03c0.347,0,0.629,0.282,0.629,0.629s-0.282,0.629-0.629,0.629H8.802
	c-1.657,0-3.005-1.348-3.005-3.005V17.902c0-1.657,1.348-3.005,3.005-3.005h89.347c1.657,0,3.005,1.348,3.005,3.005v104.646
	C101.154,124.205,99.806,125.553,98.149,125.553z"/>
<path fill="#4E4E4E" d="M101.293,121.78H54.104c-0.347,0-0.629-0.282-0.629-0.629s0.282-0.629,0.629-0.629h47.188
	c0.964,0,1.747-0.784,1.747-1.747V14.13c0-0.964-0.784-1.747-1.747-1.747H11.946c-0.964,0-1.747,0.784-1.747,1.747v104.646
	c0,0.964,0.784,1.747,1.747,1.747h12.399c0.347,0,0.629,0.282,0.629,0.629s-0.282,0.629-0.629,0.629H11.946
	c-1.657,0-3.005-1.348-3.005-3.005V14.13c0-1.657,1.348-3.005,3.005-3.005h89.347c1.657,0,3.005,1.348,3.005,3.005v104.646
	C104.297,120.432,102.949,121.78,101.293,121.78z"/>
<path fill="#4E4E4E" d="M93.819,25.166H16.695c-0.347,0-0.629-0.282-0.629-0.629c0-0.347,0.282-0.629,0.629-0.629h77.123
	c0.347,0,0.629,0.282,0.629,0.629C94.447,24.885,94.166,25.166,93.819,25.166z"/>
<path fill="#4E4E4E" d="M93.714,35.226H16.59c-0.347,0-0.629-0.282-0.629-0.629s0.282-0.629,0.629-0.629h77.123
	c0.347,0,0.629,0.282,0.629,0.629S94.061,35.226,93.714,35.226z"/>
<path fill="#4E4E4E" d="M93.609,45.286H16.486c-0.347,0-0.629-0.282-0.629-0.629c0-0.347,0.282-0.629,0.629-0.629h77.123
	c0.347,0,0.629,0.282,0.629,0.629C94.238,45.004,93.956,45.286,93.609,45.286z"/>
<path fill="#4E4E4E" d="M93.504,55.345H16.381c-0.347,0-0.629-0.282-0.629-0.629c0-0.347,0.282-0.629,0.629-0.629h77.123
	c0.347,0,0.629,0.282,0.629,0.629C94.133,55.064,93.851,55.345,93.504,55.345z"/>
<path fill="#4E4E4E" d="M93.399,65.405H16.276c-0.347,0-0.629-0.282-0.629-0.629s0.282-0.629,0.629-0.629h77.123
	c0.347,0,0.629,0.282,0.629,0.629S93.747,65.405,93.399,65.405z"/>
<path fill="#4E4E4E" d="M93.714,30.301h-41.64c-0.347,0-0.629-0.282-0.629-0.629s0.282-0.629,0.629-0.629h41.64
	c0.347,0,0.629,0.282,0.629,0.629S94.061,30.301,93.714,30.301z"/>
<path fill="#4E4E4E" d="M93.657,40.361H52.017c-0.347,0-0.629-0.282-0.629-0.629s0.282-0.629,0.629-0.629h41.641
	c0.347,0,0.629,0.282,0.629,0.629S94.004,40.361,93.657,40.361z"/>
<path fill="#4E4E4E" d="M93.601,50.42H51.96c-0.347,0-0.629-0.282-0.629-0.629s0.282-0.629,0.629-0.629h41.641
	c0.347,0,0.629,0.282,0.629,0.629S93.948,50.42,93.601,50.42z"/>
<path fill="#4E4E4E" d="M93.544,60.48h-41.64c-0.347,0-0.629-0.282-0.629-0.629s0.282-0.629,0.629-0.629h41.64
	c0.347,0,0.629,0.282,0.629,0.629S93.891,60.48,93.544,60.48z"/>
<path fill="#4E4E4E" d="M39.173,104.306c-0.21,0-0.407-0.106-0.524-0.281l-3.956-5.956l-7.009,1.414
	c-0.206,0.042-0.42-0.023-0.569-0.172c-0.149-0.149-0.213-0.362-0.172-0.569l1.414-7.009l-5.956-3.956
	c-0.175-0.116-0.281-0.313-0.281-0.524c0-0.21,0.106-0.407,0.281-0.524l5.956-3.956l-1.414-7.009
	c-0.041-0.207,0.023-0.42,0.172-0.569c0.149-0.149,0.363-0.213,0.569-0.172l7.009,1.414l3.956-5.956c0.232-0.35,0.815-0.35,1.047,0
	l3.956,5.956l7.009-1.414c0.206-0.041,0.42,0.023,0.569,0.172c0.149,0.149,0.213,0.362,0.172,0.569l-1.414,7.009l5.956,3.956
	c0.175,0.116,0.281,0.313,0.281,0.524c0,0.21-0.106,0.407-0.281,0.524l-5.956,3.956l1.414,7.009c0.041,0.207-0.023,0.42-0.172,0.569
	c-0.149,0.149-0.363,0.214-0.569,0.172l-7.009-1.414l-3.956,5.956C39.58,104.2,39.383,104.306,39.173,104.306z M34.983,96.741
	c0.208,0,0.406,0.103,0.524,0.281l3.666,5.519l3.666-5.519c0.141-0.213,0.397-0.318,0.648-0.269l6.495,1.31l-1.31-6.495
	c-0.05-0.251,0.056-0.507,0.269-0.648l5.519-3.666l-5.519-3.666c-0.213-0.141-0.319-0.397-0.269-0.648l1.31-6.495l-6.495,1.311
	c-0.251,0.05-0.507-0.056-0.648-0.269l-3.666-5.52l-3.666,5.52c-0.141,0.213-0.396,0.318-0.648,0.269l-6.495-1.311l1.311,6.495
	c0.05,0.251-0.056,0.507-0.269,0.648l-5.52,3.666l5.52,3.666c0.213,0.141,0.319,0.397,0.269,0.648l-1.311,6.495l6.495-1.31
	C34.9,96.745,34.942,96.741,34.983,96.741z"/>
<path fill="#4E4E4E" d="M39.132,99.951c-0.21,0-0.407-0.106-0.524-0.281l-3.322-5.001l-6.498,1.183
	c-0.218,0.039-0.436-0.037-0.581-0.199c-0.146-0.163-0.196-0.39-0.133-0.6l1.751-5.836l-4.399-2.963
	c-0.288-0.194-0.364-0.585-0.17-0.873c0.194-0.288,0.586-0.363,0.873-0.17l4.783,3.222c0.228,0.154,0.33,0.438,0.251,0.702
	l-1.589,5.296l5.896-1.074c0.247-0.048,0.497,0.061,0.636,0.271l3.027,4.557l3.027-4.557c0.141-0.213,0.396-0.32,0.649-0.268
	l5.863,1.19L47.1,89.131c-0.076-0.263,0.026-0.544,0.253-0.697l5.004-3.361c0.287-0.194,0.679-0.117,0.873,0.171
	c0.194,0.289,0.117,0.679-0.171,0.873l-4.623,3.106l1.732,5.977c0.061,0.212,0.008,0.44-0.141,0.601
	c-0.149,0.162-0.372,0.235-0.588,0.19l-6.466-1.313l-3.317,4.993C39.539,99.845,39.343,99.951,39.132,99.951z"/>
<path fill="#4E4E4E" d="M39.015,90.868c-2.889,0-5.239-2.35-5.239-5.239s2.35-5.239,5.239-5.239c2.889,0,5.239,2.35,5.239,5.239
	S41.904,90.868,39.015,90.868z M39.015,81.647c-2.196,0-3.982,1.786-3.982,3.982s1.786,3.982,3.982,3.982
	c2.196,0,3.982-1.786,3.982-3.982S41.211,81.647,39.015,81.647z"/>
<path fill="#4E4E4E" d="M39.015,88.091c-0.347,0-0.629-0.282-0.629-0.629s0.282-0.629,0.629-0.629c0.664,0,1.205-0.541,1.205-1.205
	s-0.541-1.205-1.205-1.205c-0.347,0-0.629-0.282-0.629-0.629s0.282-0.629,0.629-0.629c1.358,0,2.463,1.105,2.463,2.463
	S40.373,88.091,39.015,88.091z"/>
<path fill="#4E4E4E" d="M26.894,138.407c-0.103,0-0.206-0.025-0.3-0.076c-0.203-0.11-0.329-0.322-0.329-0.553v-32.484
	c0-0.048,0.005-0.095,0.016-0.14c-0.001-0.007-0.003-0.014-0.004-0.02c-0.066-0.341,0.157-0.671,0.498-0.737l6.497-1.257
	c0.242-0.045,0.484,0.05,0.627,0.246l5.335,7.304l4.811-7.279c0.144-0.218,0.407-0.325,0.663-0.266l7.126,1.607
	c0.287,0.065,0.49,0.319,0.49,0.613v32.344c0,0.23-0.126,0.442-0.329,0.553c-0.202,0.11-0.449,0.101-0.643-0.025l-12.022-7.811
	l-12.092,7.88C27.134,138.372,27.014,138.407,26.894,138.407z M27.523,105.533v31.085l11.463-7.471c0.208-0.136,0.476-0.136,0.686,0
	l11.394,7.403v-30.683l-6.212-1.4l-5.07,7.672c-0.113,0.172-0.304,0.277-0.51,0.282c-0.201-0.001-0.401-0.092-0.522-0.258
	l-5.633-7.712L27.523,105.533z"/>
<path fill="#4E4E4E" d="M76.435,105.995c-0.255,0-0.523-0.013-0.804-0.04c-1.083-0.103-1.853-0.524-2.288-1.252
	c-1.074-1.798,0.244-4.931,1.641-8.248c0.396-0.941,0.809-1.922,1.147-2.847c-0.175-0.729-0.378-1.435-0.558-2.064
	c-0.551-1.919-0.855-2.975-0.176-3.475c0.591-0.436,1.36,0.068,1.687,0.283c1.462,0.961,1.186,2.956,0.356,5.334
	c0.585,2.607,0.761,5.487-1.401,6.927c-0.289,0.193-0.679,0.114-0.872-0.174c-0.193-0.289-0.115-0.679,0.174-0.872
	c1.066-0.711,1.311-2.063,1.196-3.566c-0.129,0.312-0.262,0.626-0.395,0.942c-1.157,2.748-2.468,5.863-1.72,7.115
	c0.221,0.37,0.656,0.581,1.328,0.645c1.29,0.125,2.153-0.068,2.571-0.567c0.693-0.828,0.201-2.594-0.093-3.649
	c-0.252-0.903-0.404-1.448,0.011-1.815c0.105-0.093,0.397-0.289,0.837-0.106c0.984,0.411,0.985,0.412,1.79-0.555
	c0.849-1.019,1.618-1.44,2.286-1.245c0.56,0.162,0.903,0.688,1.02,1.564c0.034,0.257,0.099,0.476,0.17,0.648
	c0.025-0.184,0.045-0.436,0.045-0.774c0-1.918,0.582-3.187,1.518-3.313c0.445-0.056,1.247,0.095,1.708,1.785
	c0.091,0.335-0.106,0.681-0.441,0.772c-0.334,0.092-0.681-0.106-0.772-0.441c-0.131-0.478-0.269-0.707-0.35-0.808
	c-0.144,0.199-0.406,0.789-0.406,2.005c0,0.574,0,2.322-1.131,2.397c-0.837,0.047-1.443-1.016-1.589-2.104
	c-0.05-0.372-0.132-0.503-0.156-0.535c-0.013,0.031-0.334,0.13-0.938,0.854c-0.956,1.148-1.458,1.462-2.429,1.201
	c0.012,0.045,0.025,0.09,0.037,0.133c0.384,1.377,0.963,3.458-0.155,4.794C78.699,105.642,77.742,105.995,76.435,105.995z
	 M76.299,89.342c0.086,0.478,0.3,1.221,0.482,1.854c0.007,0.023,0.013,0.047,0.02,0.07c0.143-0.881,0.059-1.557-0.408-1.864
	C76.36,89.381,76.328,89.361,76.299,89.342z"/>
</svg>
