<?xml version="1.0" encoding="utf-8"?>
<!-- Generator: Adobe Illustrator 17.0.0, SVG Export Plug-In . SVG Version: 6.00 Build 0)  -->
<!DOCTYPE svg PUBLIC "-//W3C//DTD SVG 1.1//EN" "http://www.w3.org/Graphics/SVG/1.1/DTD/svg11.dtd">
<svg version="1.1" id="Слой_1" xmlns="http://www.w3.org/2000/svg" xmlns:xlink="http://www.w3.org/1999/xlink" x="0px" y="0px"
	 width="216px" height="65px" viewBox="0 0 216 65" enable-background="new 0 0 216 65" xml:space="preserve">
<path fill="#4E4E4E" d="M26.619,52.811c-1,0-2.105-0.177-2.276-0.206c-0.104-0.017-0.193-0.082-0.243-0.175l-1.142-2.152
	c-0.015-0.028-0.026-0.058-0.032-0.088c-0.067-0.316,0.018-1.013,0.819-1.387c0.598-0.278,1.065-0.459,1.258-0.531
	c-0.027-0.031-0.078-0.08-0.173-0.143c-0.358-0.237-1.293,0.411-1.809,0.925c-0.097,0.096-0.243,0.125-0.368,0.073
	c-0.126-0.052-0.208-0.175-0.208-0.312v-0.968c0-0.124,0.066-0.232,0.166-0.291c-0.109-0.064-0.174-0.185-0.165-0.313l0.294-4.353
	c0.009-0.132,0.094-0.247,0.218-0.293c0.031-0.012,3.168-1.195,7.646-3.458c3.247-1.641,6.883-3.908,8.656-5.044
	c-1.217,0.089-3.137,0.242-5.094,0.447c-0.794,0.083-1.585,0.234-2.323,0.414c-0.024,0.011-0.038,0.016-0.04,0.018
	c-0.047,0.021-0.086,0.029-0.146,0.029c-2.129,0.54-3.786,1.3-3.809,1.31c-0.135,0.062-0.295,0.029-0.394-0.082
	c-0.099-0.111-0.114-0.274-0.036-0.401c0.051-0.084,1.354-2.085,10.12-5.219l1.22-0.437c7.881-2.821,11.143-3.988,14.83-4.083
	c3.738-0.096,5.845-0.48,5.866-0.484c0.174-0.034,0.349,0.08,0.39,0.256c0.041,0.176-0.065,0.353-0.239,0.401
	c0,0-6.701,1.859-14.039,3.864c-4.325,1.182-8.38,2.674-10.952,3.688c3.055-0.307,5.873-0.484,5.903-0.486
	c0.157-0.008,0.292,0.085,0.341,0.229c0.049,0.145-0.006,0.304-0.133,0.389c-0.053,0.035-5.303,3.51-9.817,5.792
	c-3.862,1.952-6.74,3.109-7.509,3.409l-0.223,3.305c0.466-0.359,1.135-0.749,1.841-0.749c1.355,0,1.986,0.938,2.565,2.452
	c0.55,1.436,1.073,2.893,1.079,2.907c0.017,0.046,0.178,0.503-0.041,0.959c-0.147,0.305-0.419,0.523-0.809,0.649
	C27.498,52.775,27.069,52.811,26.619,52.811z M24.618,51.965c0.735,0.11,2.317,0.283,2.986,0.067
	c0.206-0.067,0.342-0.166,0.407-0.296c0.099-0.2,0.017-0.437,0.017-0.44c-0.006-0.016-0.528-1.466-1.074-2.896
	c-0.577-1.509-1.066-2.018-1.935-2.018c-0.812,0-1.706,0.801-1.982,1.11c-0.024,0.026-0.051,0.048-0.08,0.066
	c0.099,0.059,0.166,0.167,0.166,0.291v0.226c0.578-0.444,1.443-0.931,2.082-0.507c0.339,0.224,0.508,0.474,0.502,0.743
	c-0.005,0.256-0.174,0.448-0.318,0.535c-0.02,0.012-0.04,0.022-0.062,0.029c-0.006,0.002-0.551,0.195-1.295,0.542
	c-0.423,0.197-0.454,0.485-0.447,0.601L24.618,51.965z M55.551,26.688c-0.587,0.034-1.236,0.062-1.944,0.08
	c-3.579,0.092-6.811,1.249-14.62,4.044l-1.22,0.437c-4.299,1.537-6.753,2.788-8.127,3.647c0.587-0.198,1.267-0.405,2.002-0.585
	c0.887-0.384,6.991-2.982,13.749-4.83C49.246,28.426,52.927,27.412,55.551,26.688z"/>
<path fill="#4E4E4E" d="M23.077,43.251c-0.065,0-0.13-0.018-0.188-0.057c-0.155-0.104-0.196-0.314-0.092-0.468l4.63-6.906
	c0.103-0.154,0.312-0.196,0.468-0.092c0.155,0.104,0.196,0.314,0.092,0.468l-4.63,6.906C23.293,43.198,23.186,43.251,23.077,43.251z
	"/>
<path fill="#4E4E4E" d="M23.889,42.93c-0.08,0-0.159-0.028-0.223-0.084c-0.13-0.114-0.152-0.307-0.053-0.448l4.954-7.034
	c0.107-0.152,0.317-0.19,0.47-0.082c0.152,0.107,0.189,0.318,0.082,0.47l-3.625,5.147c1.255-0.885,3.045-1.959,5.017-2.565
	c3.337-1.025,3.734-1.182,3.767-1.197c0.162-0.093,0.354-0.03,0.447,0.132c0.093,0.161,0.023,0.375-0.138,0.468
	c-0.167,0.096-2.501,0.819-3.877,1.242c-3.532,1.085-6.563,3.833-6.592,3.861C24.052,42.901,23.97,42.93,23.889,42.93z"/>
<path fill="#4E4E4E" d="M29.556,39.37c-0.047,0-0.095-0.01-0.141-0.031c-0.169-0.078-0.244-0.278-0.166-0.447l1.739-3.798
	c0.055-0.12,0.175-0.197,0.307-0.197h2.641c0.121,0,0.232,0.065,0.293,0.169c0.06,0.105,0.06,0.234-0.001,0.338l-1.701,2.921
	c-0.094,0.161-0.3,0.216-0.461,0.122c-0.161-0.094-0.216-0.3-0.122-0.461l1.406-2.414h-1.838l-1.649,3.601
	C29.806,39.297,29.684,39.37,29.556,39.37z"/>
<path fill="#4E4E4E" d="M35.42,37.198c-0.009,0-0.018,0-0.028-0.001c-0.143-0.012-0.263-0.112-0.299-0.251l-0.52-1.996l-0.548,0.8
	c-0.105,0.153-0.315,0.193-0.469,0.088c-0.154-0.105-0.193-0.315-0.088-0.469l0.966-1.411c0.075-0.109,0.207-0.165,0.337-0.142
	c0.13,0.023,0.235,0.119,0.268,0.247l0.464,1.78l0.815-1.832c0.05-0.112,0.157-0.189,0.279-0.199
	c0.12-0.013,0.241,0.046,0.309,0.149l0.944,1.411c0.104,0.155,0.062,0.364-0.093,0.468c-0.154,0.103-0.364,0.062-0.468-0.093
	l-0.604-0.903l-0.958,2.154C35.674,37.12,35.552,37.198,35.42,37.198z"/>
<path fill="#4E4E4E" d="M41.371,40.899c-0.061,0-0.122-0.016-0.178-0.051l-5.952-3.701c-0.158-0.098-0.207-0.306-0.108-0.465
	c0.098-0.158,0.305-0.207,0.465-0.108l5.952,3.701c0.158,0.098,0.207,0.306,0.108,0.465C41.595,40.843,41.484,40.899,41.371,40.899z
	"/>
<path fill="#4E4E4E" d="M51.118,63.772c-6.802,0-12.335-5.534-12.335-12.336c0-6.802,5.533-12.335,12.335-12.335
	s12.336,5.534,12.336,12.335C63.454,58.238,57.92,63.772,51.118,63.772z M51.118,39.776c-6.429,0-11.66,5.231-11.66,11.66
	s5.231,11.661,11.66,11.661c6.43,0,11.661-5.231,11.661-11.661S57.548,39.776,51.118,39.776z"/>
<path fill="#4E4E4E" d="M51.006,60.776c-5.022,0-9.107-4.085-9.107-9.107s4.086-9.107,9.107-9.107s9.107,4.085,9.107,9.107
	S56.028,60.776,51.006,60.776z M51.006,43.236c-4.649,0-8.432,3.783-8.432,8.432s3.783,8.432,8.432,8.432s8.432-3.783,8.432-8.432
	S55.656,43.236,51.006,43.236z"/>
<path fill="#4E4E4E" d="M50.94,61.472c-0.794,0-1.584-0.094-2.349-0.281c-0.181-0.044-0.292-0.227-0.248-0.408
	c0.044-0.182,0.228-0.292,0.408-0.248c0.713,0.173,1.449,0.261,2.189,0.261c3.286,0,6.348-1.771,7.991-4.622
	c0.093-0.161,0.3-0.217,0.46-0.124c0.162,0.093,0.217,0.299,0.124,0.461C57.753,59.571,54.467,61.472,50.94,61.472z"/>
<path fill="#4E4E4E" d="M59.84,48.442c-0.135,0-0.262-0.081-0.314-0.215c-1.392-3.56-4.762-5.861-8.586-5.861
	c-0.625,0-1.25,0.063-1.857,0.187c-0.181,0.037-0.361-0.08-0.398-0.263s0.08-0.361,0.263-0.398c0.652-0.133,1.323-0.201,1.993-0.201
	c4.104,0,7.72,2.469,9.214,6.29c0.068,0.174-0.018,0.369-0.191,0.437C59.923,48.435,59.881,48.442,59.84,48.442z"/>
<path fill="#4E4E4E" d="M51.218,53.099c-0.914,0-1.658-0.744-1.658-1.658c0-0.914,0.744-1.658,1.658-1.658
	c0.914,0,1.658,0.744,1.658,1.658C52.876,52.355,52.132,53.099,51.218,53.099z M51.218,50.457c-0.542,0-0.983,0.441-0.983,0.983
	c0,0.542,0.441,0.983,0.983,0.983c0.542,0,0.983-0.441,0.983-0.983C52.201,50.898,51.76,50.457,51.218,50.457z"/>
<path fill="#4E4E4E" d="M51.218,53.833c-1.319,0-2.393-1.073-2.393-2.393c0-1.319,1.073-2.393,2.393-2.393
	c1.319,0,2.393,1.073,2.393,2.393C53.611,52.76,52.537,53.833,51.218,53.833z M51.218,49.723c-0.947,0-1.718,0.771-1.718,1.718
	c0,0.947,0.771,1.718,1.718,1.718c0.947,0,1.718-0.771,1.718-1.718C52.936,50.493,52.165,49.723,51.218,49.723z"/>
<path fill="#4E4E4E" d="M49.539,49.723c-0.089,0-0.175-0.035-0.239-0.099l-4.305-4.318c-0.131-0.132-0.131-0.346,0.001-0.477
	c0.132-0.132,0.346-0.131,0.477,0.001l3.963,3.975l0.776-1.679c0.006-0.012,0.312-0.667,0.007-1.251
	c-0.377-0.723-1.608-2.504-1.621-2.522c-0.106-0.153-0.068-0.364,0.086-0.47c0.154-0.107,0.364-0.068,0.47,0.085
	c0.051,0.074,1.267,1.834,1.664,2.593c0.464,0.891,0.023,1.815,0.004,1.853l-0.975,2.112c-0.046,0.1-0.138,0.172-0.247,0.191
	C49.578,49.721,49.559,49.723,49.539,49.723z"/>
<path fill="#4E4E4E" d="M49.417,49.601c-0.029,0-0.058-0.004-0.087-0.011c-0.18-0.048-0.287-0.233-0.239-0.413
	c0.638-2.4-0.148-3.202-0.156-3.209c-0.017-0.015-0.032-0.032-0.045-0.051l-1.555-2.136c-0.11-0.151-0.076-0.362,0.074-0.471
	c0.151-0.11,0.362-0.076,0.471,0.074l1.541,2.117c0.18,0.193,1.01,1.258,0.321,3.849C49.703,49.501,49.566,49.601,49.417,49.601z"/>
<path fill="#4E4E4E" d="M50.289,49.946c-0.054,0-0.109-0.013-0.16-0.04c-0.164-0.088-0.226-0.292-0.138-0.457
	c0.008-0.016,0.854-1.611,1.071-3.413c0.222-1.842,0.197-3.097,0.197-3.109c-0.004-0.186,0.144-0.341,0.33-0.345
	c0.205-0.006,0.341,0.143,0.345,0.33c0.001,0.053,0.027,1.312-0.202,3.205c-0.233,1.932-1.109,3.582-1.146,3.651
	C50.525,49.882,50.409,49.946,50.289,49.946z"/>
<path fill="#4E4E4E" d="M51.916,49.847c-0.049,0-0.098-0.011-0.145-0.033c-0.168-0.081-0.239-0.282-0.158-0.45l2.781-5.798
	c0.08-0.168,0.281-0.24,0.45-0.158c0.168,0.081,0.239,0.282,0.158,0.45l-2.781,5.798C52.162,49.776,52.042,49.847,51.916,49.847z"/>
<path fill="#4E4E4E" d="M53.79,49.919c-0.863,0-1.365-0.215-1.386-0.224c-0.085-0.037-0.152-0.108-0.183-0.196
	c-0.032-0.088-0.025-0.184,0.017-0.267l2.511-4.907c0.043-0.083,0.118-0.145,0.208-0.171c0.09-0.025,0.186-0.013,0.266,0.035
	c0.055,0.033,1.367,0.823,1.969,1.45c0.741,0.771,1.055,1.461,1.067,1.49c0.045,0.101,0.038,0.217-0.019,0.312
	c-0.044,0.073-1.102,1.801-2.911,2.271C54.802,49.849,54.284,49.919,53.79,49.919z M53.026,49.173
	c0.187,0.037,0.445,0.071,0.764,0.071c0.437,0,0.898-0.062,1.371-0.185c1.25-0.325,2.115-1.41,2.4-1.814
	c-0.127-0.227-0.401-0.666-0.855-1.138c-0.376-0.392-1.108-0.882-1.523-1.148L53.026,49.173z"/>
<path fill="#4E4E4E" d="M49.211,52.218c-0.128,0-0.251-0.074-0.308-0.198c-0.003-0.007-0.494-1.004-2.495-2.116
	c-2.052-1.141-3.508-1.287-3.522-1.289c-0.185-0.017-0.322-0.181-0.305-0.367c0.017-0.185,0.181-0.323,0.366-0.306
	c0.064,0.006,1.6,0.154,3.789,1.371c2.224,1.236,2.761,2.38,2.783,2.428c0.077,0.17,0.001,0.37-0.168,0.446
	C49.305,52.209,49.257,52.218,49.211,52.218z"/>
<path fill="#4E4E4E" d="M49.644,50.457c-0.082,0-0.163-0.029-0.228-0.089l-4.945-4.544c-0.137-0.126-0.146-0.34-0.02-0.477
	c0.126-0.138,0.34-0.146,0.477-0.02l4.945,4.544c0.137,0.126,0.146,0.34,0.02,0.477C49.826,50.421,49.735,50.457,49.644,50.457z"/>
<path fill="#4E4E4E" d="M42.983,55.552c-0.12,0-0.236-0.063-0.297-0.176c-0.089-0.164-0.029-0.369,0.134-0.458l5.3-2.893
	c-0.661-0.658-1.627-1.483-2.14-1.573c-0.62-0.109-2.538,0.45-3.603,0.826c-0.176,0.062-0.369-0.03-0.431-0.206
	c-0.062-0.176,0.03-0.369,0.206-0.431c0.299-0.106,2.954-1.028,3.944-0.854c1.018,0.177,2.64,1.896,2.822,2.092
	c0.071,0.076,0.102,0.181,0.086,0.284s-0.08,0.192-0.171,0.242l-5.689,3.105C43.093,55.538,43.038,55.552,42.983,55.552z"/>
<path fill="#4E4E4E" d="M45.628,58.151c-0.094,0-0.184-0.039-0.248-0.109l-1.859-2.021c-0.069-0.075-0.1-0.177-0.086-0.277
	c0.014-0.1,0.074-0.189,0.161-0.241l5.246-3.134c0.095-0.057,0.213-0.063,0.314-0.017c0.1,0.046,0.171,0.138,0.191,0.246
	c0-0.001,0-0.001,0-0.001c0.006,0,0.076,0.136,0.344,0.363c0.375,0.317,0.724,0.467,0.728,0.468c0.117,0.049,0.196,0.16,0.206,0.287
	c0.009,0.127-0.053,0.248-0.162,0.313c-0.015,0.009-1.564,0.948-2.806,1.902c-1.186,0.912-1.719,2.016-1.724,2.027
	c-0.048,0.101-0.144,0.172-0.254,0.189C45.662,58.149,45.645,58.151,45.628,58.151z M44.299,55.869l1.265,1.375
	c0.283-0.452,0.827-1.19,1.683-1.848c0.849-0.653,1.813-1.283,2.38-1.642c-0.116-0.077-0.242-0.169-0.37-0.278
	c-0.158-0.134-0.272-0.252-0.356-0.355L44.299,55.869z"/>
<path fill="#4E4E4E" d="M51.45,60.04C51.449,60.04,51.449,60.04,51.45,60.04c-0.269,0-0.647-0.007-1.175-0.029
	c-1.596-0.066-2.389-0.333-2.422-0.344c-0.138-0.047-0.229-0.177-0.228-0.323c0-0.001,0.011-1.106,0-2.243
	c-0.011-1.117,0.475-2.021,1.367-2.544c0.674-0.395,1.856-0.938,1.906-0.961c0.099-0.045,0.213-0.04,0.307,0.013
	c0.094,0.054,0.157,0.149,0.169,0.257l0.179,1.663c0.174,1.617,0.846,4.03,0.853,4.054c0.05,0.179-0.054,0.364-0.232,0.415
	C52.053,60.033,51.713,60.04,51.45,60.04z M48.302,59.091c0.324,0.077,0.99,0.204,2.001,0.246c0.515,0.022,0.884,0.029,1.146,0.029
	l0,0c0.076,0,0.142-0.001,0.199-0.002c-0.202-0.769-0.627-2.478-0.766-3.762l-0.128-1.193c-0.408,0.195-1.019,0.495-1.421,0.73
	c-0.478,0.28-1.044,0.847-1.033,1.956C48.308,57.903,48.304,58.695,48.302,59.091z"/>
<path fill="#4E4E4E" d="M52.895,59.848c-0.147,0-0.281-0.097-0.323-0.243c-0.006-0.02-0.6-2.054-0.986-3.838
	c-0.414-1.915-0.339-2.054-0.285-2.156c0.041-0.076,0.11-0.134,0.193-0.161c0.023-0.007,0.236-0.074,0.52-0.074
	c0.668,0,1.175,0.351,1.426,0.988c0.45,1.142,0.815,1.795,1.221,2.182c0.539,0.515,0.881,1.57,0.918,1.688
	c0.017,0.056,0.02,0.115,0.008,0.172c-0.037,0.174-0.339,1.06-2.636,1.436C52.932,59.847,52.914,59.848,52.895,59.848z
	 M51.95,54.054c0.03,0.237,0.107,0.697,0.296,1.571c0.295,1.363,0.714,2.877,0.89,3.5c1.256-0.252,1.647-0.652,1.757-0.81
	c-0.121-0.341-0.392-0.985-0.699-1.279c-0.487-0.465-0.888-1.167-1.383-2.423c-0.149-0.377-0.41-0.561-0.798-0.561
	C51.992,54.052,51.971,54.053,51.95,54.054z"/>
<path fill="#4E4E4E" d="M57.253,57.031c-0.118,0-0.239-0.025-0.369-0.075c-0.103-0.04-0.237-0.083-0.393-0.133
	c-0.748-0.24-1.999-0.642-2.801-1.594c-1.019-1.209-0.42-2.991-0.394-3.067c0.03-0.086,0.093-0.157,0.176-0.195
	c0.082-0.039,0.176-0.043,0.262-0.01c2.047,0.771,5.098,0.794,5.439,0.794l0.047,0c0.001,0,0.002,0,0.003,0
	c0.103,0,0.201,0.047,0.265,0.129c0.065,0.082,0.088,0.189,0.062,0.291c-0.01,0.039-0.244,0.963-0.841,2.154l-0.082,0.164
	C58.147,56.45,57.856,57.031,57.253,57.031z M53.85,52.712c-0.1,0.493-0.192,1.432,0.355,2.082c0.678,0.804,1.769,1.155,2.491,1.387
	c0.171,0.055,0.319,0.103,0.431,0.146c0.049,0.019,0.092,0.029,0.124,0.029c0.186,0,0.445-0.517,0.772-1.171l0.082-0.165
	c0.33-0.657,0.544-1.234,0.664-1.601C57.8,53.398,55.605,53.283,53.85,52.712z"/>
<path fill="#4E4E4E" d="M58.141,52.69c-0.373,0-0.832-0.028-1.364-0.082c-2.576-0.264-3.309-0.848-3.384-0.913
	c-0.097-0.085-0.137-0.218-0.103-0.343c0,0,0,0,0,0c0,0,0.022-0.135-0.01-0.447c-0.041-0.398-0.218-0.562-0.225-0.569
	c-0.121-0.111-0.149-0.296-0.062-0.434c0.088-0.138,0.26-0.196,0.411-0.133c0.539,0.225,1.132,0.339,1.764,0.339
	c1.879,0,3.503-0.999,3.519-1.009c0.076-0.048,0.169-0.063,0.257-0.042c0.088,0.021,0.163,0.076,0.21,0.153
	c0.027,0.044,0.266,0.457,0.404,1.312c0.123,0.76,0.032,1.41,0.004,1.577c-0.003,0.087-0.034,0.175-0.091,0.25
	C59.294,52.585,58.884,52.69,58.141,52.69z M53.971,51.266c0.29,0.153,1.101,0.488,2.874,0.67c0.509,0.052,0.945,0.079,1.296,0.079
	c0.462,0,0.674-0.046,0.763-0.075c0.027-0.187,0.084-0.714-0.012-1.31c-0.054-0.337-0.127-0.592-0.188-0.768
	c-0.613,0.318-1.979,0.921-3.536,0.921c-0.431,0-0.848-0.047-1.246-0.14c0.012,0.061,0.022,0.125,0.029,0.193
	C53.969,51.018,53.973,51.159,53.971,51.266z"/>
<circle fill="#4E4E4E" cx="51.218" cy="51.473" r="0.631"/>
<path fill="#4E4E4E" d="M39.197,50.417c-0.028,0-0.056-0.003-0.084-0.011c-0.181-0.047-0.289-0.23-0.243-0.411
	c0.022-0.083,0.547-2.046,2.702-3.26c0.163-0.091,0.369-0.034,0.46,0.128c0.091,0.162,0.034,0.368-0.128,0.46
	c-1.907,1.074-2.375,2.822-2.379,2.84C39.485,50.316,39.348,50.417,39.197,50.417z"/>
<path fill="#4E4E4E" d="M40.131,46.948c-0.073,0-0.146-0.024-0.208-0.072c-0.146-0.115-0.172-0.328-0.056-0.474
	c0.055-0.071,1.385-1.742,3.273-2.597c0.17-0.077,0.37-0.002,0.446,0.168c0.077,0.17,0.002,0.37-0.168,0.447
	c-1.739,0.788-3.009,2.384-3.021,2.4C40.33,46.904,40.231,46.948,40.131,46.948z"/>
<path fill="#4E4E4E" d="M42.237,43.708c-0.104,0-0.206-0.047-0.272-0.137c-0.111-0.15-0.079-0.361,0.071-0.472
	c0.062-0.046,1.552-1.135,3.589-1.756c0.179-0.055,0.367,0.046,0.421,0.224c0.054,0.178-0.046,0.367-0.225,0.421
	c-1.928,0.588-3.371,1.643-3.385,1.653C42.377,43.687,42.307,43.708,42.237,43.708z"/>
<path fill="#4E4E4E" d="M59.841,58.022c-0.125,0-0.245-0.069-0.303-0.189c-0.082-0.167-0.013-0.37,0.154-0.452
	c1.496-0.734,2.476-2.192,2.486-2.207c0.103-0.155,0.312-0.198,0.468-0.094c0.155,0.103,0.197,0.312,0.094,0.468
	c-0.044,0.066-1.093,1.626-2.751,2.439C59.941,58.011,59.89,58.022,59.841,58.022z"/>
<path fill="#4E4E4E" d="M57.658,60.533c-0.155,0-0.295-0.108-0.329-0.266c-0.04-0.182,0.076-0.362,0.258-0.401
	c2.084-0.453,2.963-1.572,2.972-1.584c0.113-0.147,0.324-0.176,0.472-0.064c0.148,0.112,0.178,0.323,0.065,0.471
	c-0.04,0.054-1.022,1.326-3.367,1.836C57.706,60.531,57.681,60.533,57.658,60.533z"/>
<path fill="#4E4E4E" d="M54.031,62.461c-0.106,0-0.214-0.001-0.326-0.004c-0.186-0.004-0.334-0.159-0.33-0.345
	c0.005-0.186,0.178-0.331,0.345-0.33c2.687,0.063,3.728-0.677,3.738-0.684c0.15-0.111,0.361-0.078,0.472,0.072
	c0.11,0.15,0.078,0.361-0.072,0.472C57.811,61.676,56.712,62.461,54.031,62.461z"/>
<path fill="#4E4E4E" d="M155.961,63.772c-6.802,0-12.336-5.534-12.336-12.336c0-6.802,5.533-12.335,12.336-12.335
	c6.802,0,12.335,5.534,12.335,12.335C168.296,58.238,162.762,63.772,155.961,63.772z M155.961,39.776
	c-6.43,0-11.661,5.231-11.661,11.66s5.231,11.661,11.661,11.661c6.429,0,11.66-5.231,11.66-11.661S162.39,39.776,155.961,39.776z"/>
<path fill="#4E4E4E" d="M155.848,60.776c-5.022,0-9.107-4.085-9.107-9.107s4.086-9.107,9.107-9.107s9.107,4.085,9.107,9.107
	S160.87,60.776,155.848,60.776z M155.848,43.236c-4.649,0-8.432,3.783-8.432,8.432s3.783,8.432,8.432,8.432s8.432-3.783,8.432-8.432
	S160.498,43.236,155.848,43.236z"/>
<path fill="#4E4E4E" d="M155.782,61.472c-0.794,0-1.584-0.094-2.349-0.281c-0.181-0.044-0.292-0.227-0.248-0.408
	c0.044-0.182,0.23-0.292,0.408-0.248c0.713,0.173,1.449,0.261,2.189,0.261c3.286,0,6.348-1.771,7.991-4.622
	c0.093-0.161,0.3-0.217,0.46-0.124c0.162,0.093,0.217,0.299,0.124,0.461C162.595,59.571,159.309,61.472,155.782,61.472z"/>
<path fill="#4E4E4E" d="M164.682,48.442c-0.135,0-0.262-0.081-0.314-0.215c-1.392-3.56-4.762-5.861-8.586-5.861
	c-0.625,0-1.25,0.063-1.857,0.187c-0.184,0.037-0.361-0.08-0.398-0.263c-0.037-0.183,0.08-0.361,0.263-0.398
	c0.652-0.133,1.323-0.201,1.993-0.201c4.104,0,7.72,2.469,9.214,6.29c0.068,0.174-0.018,0.369-0.191,0.437
	C164.765,48.435,164.723,48.442,164.682,48.442z"/>
<path fill="#4E4E4E" d="M156.06,53.099c-0.914,0-1.658-0.744-1.658-1.658c0-0.914,0.744-1.658,1.658-1.658
	c0.914,0,1.658,0.744,1.658,1.658C157.719,52.355,156.975,53.099,156.06,53.099z M156.06,50.457c-0.542,0-0.983,0.441-0.983,0.983
	c0,0.542,0.441,0.983,0.983,0.983c0.542,0,0.983-0.441,0.983-0.983C157.044,50.898,156.602,50.457,156.06,50.457z"/>
<path fill="#4E4E4E" d="M156.06,53.833c-1.319,0-2.393-1.073-2.393-2.393c0-1.319,1.073-2.393,2.393-2.393
	c1.319,0,2.393,1.073,2.393,2.393C158.453,52.76,157.379,53.833,156.06,53.833z M156.06,49.723c-0.947,0-1.718,0.771-1.718,1.718
	c0,0.947,0.771,1.718,1.718,1.718c0.947,0,1.718-0.771,1.718-1.718C157.778,50.493,157.007,49.723,156.06,49.723z"/>
<path fill="#4E4E4E" d="M154.381,49.723c-0.089,0-0.175-0.035-0.239-0.099l-4.305-4.318c-0.131-0.132-0.131-0.346,0.001-0.477
	s0.346-0.131,0.477,0.001l3.963,3.975l0.776-1.679c0.006-0.012,0.312-0.667,0.007-1.251c-0.377-0.723-1.608-2.504-1.621-2.522
	c-0.106-0.153-0.068-0.364,0.086-0.47c0.153-0.107,0.364-0.068,0.47,0.085c0.051,0.074,1.267,1.834,1.664,2.593
	c0.464,0.891,0.023,1.815,0.004,1.853l-0.975,2.112c-0.046,0.1-0.138,0.172-0.247,0.191
	C154.42,49.721,154.401,49.723,154.381,49.723z"/>
<path fill="#4E4E4E" d="M154.259,49.601c-0.029,0-0.058-0.004-0.087-0.011c-0.18-0.048-0.287-0.233-0.239-0.413
	c0.638-2.4-0.148-3.202-0.156-3.209c-0.017-0.015-0.032-0.032-0.045-0.051l-1.555-2.136c-0.11-0.151-0.076-0.362,0.074-0.471
	c0.151-0.11,0.362-0.076,0.471,0.074l1.541,2.117c0.18,0.193,1.01,1.258,0.321,3.849C154.545,49.501,154.408,49.601,154.259,49.601z
	"/>
<path fill="#4E4E4E" d="M155.131,49.946c-0.054,0-0.109-0.013-0.16-0.04c-0.164-0.088-0.226-0.292-0.138-0.457
	c0.008-0.016,0.854-1.611,1.071-3.413c0.222-1.842,0.197-3.097,0.197-3.109c-0.004-0.186,0.144-0.341,0.33-0.345
	c0.193-0.006,0.341,0.143,0.345,0.33c0.001,0.053,0.027,1.312-0.202,3.205c-0.233,1.932-1.109,3.582-1.146,3.651
	C155.367,49.882,155.251,49.946,155.131,49.946z"/>
<path fill="#4E4E4E" d="M156.758,49.847c-0.049,0-0.098-0.011-0.145-0.033c-0.168-0.081-0.239-0.282-0.158-0.45l2.781-5.798
	c0.08-0.168,0.282-0.24,0.45-0.158c0.168,0.081,0.239,0.282,0.158,0.45l-2.781,5.798C157.004,49.776,156.884,49.847,156.758,49.847z
	"/>
<path fill="#4E4E4E" d="M158.632,49.919c-0.863,0-1.365-0.215-1.386-0.224c-0.085-0.037-0.152-0.108-0.183-0.196
	c-0.032-0.088-0.025-0.185,0.017-0.267l2.511-4.907c0.043-0.083,0.118-0.145,0.208-0.171c0.089-0.025,0.187-0.013,0.266,0.035
	c0.055,0.033,1.366,0.823,1.969,1.45c0.741,0.771,1.055,1.461,1.067,1.49c0.045,0.101,0.038,0.217-0.019,0.312
	c-0.044,0.073-1.102,1.801-2.911,2.271C159.644,49.849,159.126,49.919,158.632,49.919z M157.869,49.173
	c0.187,0.037,0.444,0.071,0.763,0.071c0.437,0,0.898-0.062,1.371-0.185c1.25-0.325,2.115-1.41,2.4-1.814
	c-0.127-0.227-0.401-0.666-0.855-1.138c-0.376-0.392-1.108-0.882-1.523-1.148L157.869,49.173z"/>
<path fill="#4E4E4E" d="M154.053,52.218c-0.128,0-0.251-0.074-0.308-0.198c-0.003-0.007-0.494-1.004-2.495-2.116
	c-2.052-1.141-3.508-1.287-3.522-1.289c-0.185-0.017-0.322-0.181-0.305-0.367c0.017-0.185,0.183-0.323,0.366-0.306
	c0.064,0.006,1.6,0.154,3.789,1.371c2.224,1.236,2.761,2.38,2.783,2.428c0.077,0.17,0.001,0.37-0.168,0.446
	C154.147,52.209,154.099,52.218,154.053,52.218z"/>
<path fill="#4E4E4E" d="M154.486,50.457c-0.082,0-0.163-0.029-0.229-0.089l-4.945-4.544c-0.137-0.126-0.146-0.34-0.02-0.477
	c0.126-0.138,0.34-0.146,0.477-0.02l4.945,4.544c0.137,0.126,0.146,0.34,0.02,0.477C154.668,50.421,154.577,50.457,154.486,50.457z"
	/>
<path fill="#4E4E4E" d="M147.825,55.552c-0.12,0-0.236-0.063-0.297-0.176c-0.089-0.164-0.029-0.369,0.134-0.458l5.3-2.893
	c-0.661-0.658-1.627-1.483-2.14-1.573c-0.618-0.109-2.538,0.45-3.603,0.826c-0.176,0.062-0.369-0.03-0.431-0.206
	c-0.062-0.176,0.03-0.369,0.206-0.431c0.299-0.106,2.952-1.028,3.944-0.854c1.018,0.177,2.64,1.896,2.822,2.092
	c0.071,0.076,0.102,0.181,0.086,0.284c-0.017,0.103-0.08,0.192-0.171,0.242l-5.689,3.105
	C147.935,55.538,147.88,55.552,147.825,55.552z"/>
<path fill="#4E4E4E" d="M150.47,58.151c-0.094,0-0.184-0.039-0.248-0.109l-1.858-2.021c-0.069-0.075-0.1-0.177-0.086-0.277
	c0.015-0.1,0.074-0.189,0.161-0.241l5.245-3.134c0.096-0.057,0.213-0.063,0.314-0.017c0.1,0.046,0.171,0.138,0.191,0.246
	c0-0.001,0-0.001,0-0.001c0.006,0,0.076,0.136,0.344,0.363c0.375,0.317,0.724,0.467,0.728,0.468c0.117,0.049,0.196,0.16,0.206,0.287
	c0.009,0.127-0.053,0.248-0.162,0.313c-0.015,0.009-1.564,0.948-2.806,1.902c-1.193,0.918-1.719,2.015-1.724,2.026
	c-0.048,0.102-0.143,0.173-0.254,0.19C150.504,58.15,150.487,58.151,150.47,58.151z M149.141,55.869l1.264,1.375
	c0.283-0.452,0.827-1.19,1.683-1.848c0.849-0.653,1.813-1.283,2.38-1.642c-0.116-0.077-0.242-0.169-0.37-0.278
	c-0.158-0.134-0.272-0.252-0.356-0.355L149.141,55.869z"/>
<path fill="#4E4E4E" d="M156.292,60.04C156.291,60.04,156.291,60.04,156.292,60.04c-0.269,0-0.647-0.007-1.175-0.029
	c-1.596-0.066-2.389-0.333-2.422-0.344c-0.138-0.047-0.229-0.177-0.228-0.323c0-0.001,0.011-1.106,0-2.243
	c-0.011-1.117,0.475-2.021,1.367-2.544c0.674-0.395,1.856-0.938,1.906-0.961c0.099-0.045,0.213-0.04,0.307,0.013
	c0.094,0.054,0.157,0.149,0.169,0.257l0.179,1.663c0.174,1.617,0.846,4.03,0.853,4.054c0.05,0.179-0.054,0.364-0.232,0.415
	C156.895,60.033,156.555,60.04,156.292,60.04z M153.144,59.091c0.323,0.077,0.989,0.204,2.001,0.246
	c0.515,0.022,0.884,0.029,1.146,0.029l0,0c0.076,0,0.142-0.001,0.199-0.002c-0.202-0.769-0.627-2.478-0.766-3.762l-0.128-1.193
	c-0.408,0.195-1.019,0.495-1.421,0.73c-0.478,0.28-1.044,0.847-1.033,1.956C153.15,57.903,153.146,58.695,153.144,59.091z"/>
<path fill="#4E4E4E" d="M157.737,59.848c-0.147,0-0.281-0.097-0.323-0.243c-0.006-0.02-0.6-2.054-0.986-3.838
	c-0.414-1.915-0.339-2.054-0.285-2.156c0.041-0.076,0.11-0.134,0.193-0.161c0.023-0.007,0.236-0.074,0.52-0.074
	c0.668,0,1.175,0.351,1.426,0.988c0.45,1.142,0.815,1.794,1.221,2.182c0.539,0.515,0.881,1.57,0.918,1.688
	c0.017,0.056,0.02,0.115,0.008,0.172c-0.037,0.174-0.339,1.06-2.636,1.436C157.774,59.847,157.756,59.848,157.737,59.848z
	 M156.792,54.054c0.03,0.237,0.107,0.697,0.296,1.571c0.295,1.363,0.714,2.877,0.89,3.5c1.256-0.252,1.647-0.652,1.757-0.81
	c-0.121-0.341-0.392-0.985-0.699-1.279c-0.488-0.466-0.888-1.168-1.383-2.423c-0.149-0.377-0.41-0.561-0.798-0.561
	C156.834,54.052,156.813,54.053,156.792,54.054z"/>
<path fill="#4E4E4E" d="M162.095,57.031c-0.118,0-0.239-0.025-0.369-0.075c-0.103-0.04-0.237-0.083-0.393-0.133
	c-0.748-0.24-1.999-0.642-2.801-1.595c-1.018-1.209-0.42-2.991-0.394-3.067c0.03-0.086,0.093-0.157,0.175-0.195
	c0.083-0.039,0.177-0.043,0.263-0.01c2.047,0.771,5.098,0.794,5.439,0.794l0.047,0c0.089,0.004,0.203,0.046,0.268,0.129
	c0.065,0.082,0.088,0.189,0.062,0.291c-0.01,0.039-0.244,0.963-0.841,2.154l-0.082,0.164
	C162.989,56.45,162.698,57.031,162.095,57.031z M158.692,52.712c-0.1,0.493-0.192,1.432,0.355,2.082
	c0.678,0.804,1.77,1.155,2.491,1.387c0.171,0.055,0.319,0.103,0.432,0.146c0.049,0.019,0.092,0.029,0.124,0.029
	c0.186,0,0.445-0.517,0.772-1.171l0.082-0.165c0.33-0.657,0.544-1.234,0.664-1.601C162.642,53.398,160.447,53.283,158.692,52.712z"
	/>
<path fill="#4E4E4E" d="M162.983,52.69c-0.374,0-0.832-0.028-1.364-0.082c-2.576-0.264-3.309-0.848-3.384-0.913
	c-0.098-0.085-0.138-0.219-0.103-0.344c0,0,0,0,0,0c-0.001,0,0.022-0.134-0.011-0.446c-0.041-0.398-0.218-0.562-0.225-0.569
	c-0.122-0.111-0.15-0.296-0.062-0.434c0.088-0.139,0.26-0.196,0.411-0.134c0.539,0.225,1.132,0.339,1.764,0.339
	c1.879,0,3.503-0.999,3.519-1.009c0.076-0.048,0.169-0.063,0.257-0.042c0.088,0.021,0.163,0.076,0.21,0.153
	c0.027,0.044,0.266,0.457,0.404,1.312c0.123,0.76,0.032,1.41,0.004,1.577c-0.003,0.087-0.034,0.175-0.091,0.25
	C164.136,52.585,163.726,52.69,162.983,52.69z M158.813,51.266c0.291,0.153,1.102,0.488,2.874,0.67
	c0.509,0.052,0.945,0.079,1.296,0.079c0.462,0,0.674-0.046,0.763-0.075c0.027-0.187,0.084-0.714-0.012-1.31
	c-0.054-0.337-0.127-0.592-0.188-0.768c-0.613,0.318-1.979,0.921-3.536,0.921c-0.432,0-0.848-0.047-1.246-0.14
	c0.012,0.061,0.022,0.125,0.029,0.193C158.812,51.018,158.816,51.159,158.813,51.266z"/>
<circle fill="#4E4E4E" cx="156.06" cy="51.473" r="0.631"/>
<path fill="#4E4E4E" d="M144.039,50.417c-0.028,0-0.056-0.003-0.084-0.011c-0.181-0.047-0.289-0.23-0.243-0.411
	c0.022-0.083,0.547-2.046,2.702-3.26c0.163-0.091,0.369-0.034,0.46,0.128c0.091,0.162,0.034,0.368-0.128,0.46
	c-1.907,1.074-2.375,2.822-2.379,2.84C144.327,50.316,144.19,50.417,144.039,50.417z"/>
<path fill="#4E4E4E" d="M144.973,46.948c-0.073,0-0.146-0.024-0.208-0.072c-0.146-0.115-0.172-0.328-0.056-0.474
	c0.055-0.071,1.385-1.742,3.273-2.597c0.17-0.077,0.37-0.002,0.446,0.168c0.077,0.17,0.002,0.37-0.168,0.447
	c-1.739,0.788-3.009,2.384-3.021,2.4C145.172,46.904,145.073,46.948,144.973,46.948z"/>
<path fill="#4E4E4E" d="M147.079,43.708c-0.104,0-0.206-0.047-0.272-0.137c-0.111-0.15-0.079-0.361,0.071-0.472
	c0.062-0.046,1.552-1.135,3.589-1.756c0.181-0.055,0.367,0.046,0.421,0.224c0.054,0.178-0.046,0.367-0.225,0.421
	c-1.928,0.588-3.371,1.643-3.385,1.653C147.219,43.687,147.149,43.708,147.079,43.708z"/>
<path fill="#4E4E4E" d="M164.683,58.022c-0.125,0-0.245-0.069-0.303-0.189c-0.082-0.167-0.013-0.37,0.154-0.452
	c1.496-0.734,2.476-2.192,2.486-2.207c0.103-0.155,0.312-0.198,0.468-0.094c0.155,0.103,0.197,0.312,0.094,0.468
	c-0.044,0.066-1.093,1.626-2.751,2.439C164.783,58.011,164.732,58.022,164.683,58.022z"/>
<path fill="#4E4E4E" d="M162.5,60.533c-0.155,0-0.295-0.108-0.329-0.266c-0.04-0.182,0.076-0.362,0.258-0.401
	c2.103-0.457,2.962-1.571,2.971-1.582c0.111-0.149,0.323-0.179,0.472-0.067s0.179,0.324,0.066,0.473
	c-0.04,0.054-1.021,1.326-3.367,1.836C162.548,60.531,162.523,60.533,162.5,60.533z"/>
<path fill="#4E4E4E" d="M158.873,62.461c-0.106,0-0.214-0.001-0.326-0.004c-0.186-0.004-0.334-0.159-0.33-0.345
	c0.004-0.186,0.165-0.331,0.345-0.33c2.684,0.063,3.727-0.677,3.738-0.684c0.15-0.111,0.361-0.078,0.472,0.072
	c0.11,0.15,0.078,0.361-0.072,0.472C162.653,61.676,161.554,62.461,158.873,62.461z"/>
<path fill="#4E4E4E" d="M23.257,50.457c-0.138,0-0.268-0.085-0.317-0.222l-0.473-1.304c-0.064-0.175,0.027-0.369,0.202-0.432
	c0.176-0.063,0.369,0.027,0.432,0.202l0.473,1.304c0.064,0.175-0.027,0.369-0.202,0.432C23.334,50.451,23.295,50.457,23.257,50.457z
	"/>
<path fill="#4E4E4E" d="M24.659,52.69c-0.01,0-0.021,0-0.031-0.001c-0.067-0.006-1.653-0.154-2.564-0.491
	c-0.3-0.111-0.43-0.279-0.385-0.498c0.054-0.269,0.093-0.463,2.414-0.368c0.186,0.008,0.331,0.165,0.323,0.351
	c-0.005,0.123-0.076,0.228-0.177,0.283c0.267,0.034,0.446,0.05,0.451,0.051c0.185,0.017,0.322,0.181,0.305,0.367
	C24.979,52.558,24.832,52.69,24.659,52.69z"/>
<path fill="#4E4E4E" d="M66.56,58.414c-0.042,0-0.085-0.008-0.126-0.024c-0.127-0.051-0.21-0.173-0.212-0.309
	c-0.001-0.076-0.113-7.615-1.672-11.533c-0.361-0.908-3.8-8.872-13.153-8.872c-8.138,0-11.119,3.873-12.807,7.248
	c-1.842,3.684-1.292,10.172-1.286,10.237c0.008,0.089-0.02,0.178-0.077,0.247c-0.058,0.069-0.14,0.112-0.229,0.12
	c-7.117,0.629-13.208-1.227-14.171-1.902c-0.885-0.62-1.136-1.622-1.146-1.664c-0.044-0.181,0.067-0.364,0.248-0.408
	c0.181-0.044,0.363,0.067,0.407,0.248c0.007,0.025,0.214,0.806,0.878,1.271c0.634,0.444,6.317,2.36,13.393,1.81
	c-0.094-1.418-0.322-6.857,1.38-10.26C39.761,41.073,42.89,37,51.397,37c7.441,0,12.074,5.009,13.781,9.297
	c0.481,1.209,0.827,2.721,1.077,4.256c0.051-0.009,0.106-0.007,0.16,0.01c0.928,0.29,1.329,0.801,1.787,2.276
	c0.429,1.382,1.008,2.689,1.013,2.702c0.056,0.127,0.029,0.274-0.067,0.373l-2.348,2.397C66.736,58.378,66.649,58.414,66.56,58.414z
	 M66.363,51.258c0.351,2.431,0.472,4.809,0.514,6.012l1.631-1.665c-0.184-0.431-0.607-1.462-0.95-2.565
	C67.157,51.747,66.866,51.443,66.363,51.258z"/>
<path fill="#4E4E4E" d="M28.794,53.099c-0.186,0-0.337-0.151-0.337-0.337c0-0.186,0.151-0.337,0.337-0.338
	c0.008,0,0.113,0,0.552-0.012c-0.706-0.042-1.121-0.073-1.132-0.074c-0.186-0.014-0.325-0.176-0.311-0.362
	c0.014-0.186,0.183-0.328,0.362-0.311c0.027,0.002,2.731,0.206,6.16,0.27c1.756,0.033,1.98,0.052,1.983,0.443
	c0.003,0.375,0.004,0.476-4.172,0.618C29.232,53.097,28.81,53.099,28.794,53.099z"/>
<path fill="#4E4E4E" d="M36.07,58.022c-0.087,0-0.174-0.034-0.239-0.1c-0.041-0.042-0.407-0.429-0.507-1.186
	c-0.091-0.701-0.004-1.39,0-1.419c0.024-0.185,0.193-0.312,0.378-0.291c0.185,0.024,0.315,0.193,0.291,0.378
	c-0.001,0.006-0.08,0.633,0,1.244c0.034,0.261,0.109,0.456,0.178,0.589c0.361-0.195,1.039-0.529,1.859-0.77l0.155-0.045
	c1.086-0.318,1.226-0.385,1.256-1.075c0.008-0.187,0.183-0.327,0.352-0.323c0.186,0.008,0.331,0.166,0.323,0.352
	c-0.052,1.199-0.688,1.385-1.74,1.694l-0.154,0.045c-1.117,0.329-1.965,0.851-1.973,0.856C36.193,58.006,36.132,58.022,36.07,58.022
	z"/>
<path fill="#4E4E4E" d="M61.15,58.414c-0.104,0-0.207-0.048-0.272-0.138c-0.11-0.15-0.078-0.361,0.072-0.471
	c0.058-0.043,1.444-1.051,3.189-1.44c1.748-0.39,2.403-0.027,2.516,0.05c0.154,0.105,0.195,0.315,0.09,0.469
	c-0.104,0.154-0.314,0.194-0.468,0.09l0,0c-0.002,0-0.521-0.277-1.99,0.05c-1.602,0.357-2.923,1.316-2.937,1.325
	C61.289,58.392,61.219,58.414,61.15,58.414z"/>
<path fill="#4E4E4E" d="M170.116,54.926c-0.08,0-0.159-0.028-0.223-0.084c-0.001-0.001-0.322-0.268-1.038-0.48
	c-0.216-0.063-0.39-0.089-0.543-0.112c-0.459-0.068-0.812-0.177-0.842-0.89c-0.008-0.186,0.136-0.344,0.323-0.352
	c0.167-0.011,0.344,0.136,0.352,0.323c0.007,0.169,0.032,0.213,0.033,0.214c0.017,0.004,0.138,0.022,0.235,0.037
	c0.157,0.024,0.374,0.056,0.634,0.132c0.435,0.128,0.75,0.276,0.96,0.395c0.025-0.069,0.047-0.153,0.06-0.252
	c0.067-0.511,0.282-0.943,0.291-0.961c0.083-0.166,0.284-0.234,0.453-0.15c0.166,0.083,0.234,0.286,0.151,0.453
	c-0.002,0.004-0.174,0.352-0.225,0.746c-0.073,0.558-0.349,0.849-0.381,0.88C170.29,54.893,170.203,54.926,170.116,54.926z"/>
<path fill="#4E4E4E" d="M140.84,55.699c-0.047,0-0.095-0.01-0.141-0.031c-0.169-0.078-0.243-0.277-0.165-0.446
	c0.019-0.042,0.487-1.039,1.766-1.626c1.253-0.574,1.652-0.503,1.86-0.377c0.129,0.078,0.21,0.207,0.217,0.344
	c0.009,0.186-0.134,0.344-0.32,0.354c-0.116,0.002-0.202-0.038-0.268-0.111c-0.111,0.002-0.436,0.049-1.208,0.403
	c-1.041,0.477-1.43,1.287-1.434,1.295C141.089,55.626,140.967,55.699,140.84,55.699z"/>
<path fill="#4E4E4E" d="M39.197,30.715c-0.147,0-0.283-0.097-0.325-0.245c-0.051-0.179,0.053-0.366,0.232-0.417
	c0.074-0.021,7.468-2.109,14.806-2.909c0.182-0.02,0.352,0.114,0.372,0.299c0.02,0.185-0.113,0.352-0.299,0.372
	c-7.281,0.793-14.621,2.866-14.695,2.887C39.258,30.711,39.227,30.715,39.197,30.715z"/>
<path fill="#4E4E4E" d="M40.539,34.007c-0.152,0-0.29-0.104-0.328-0.259c-0.043-0.181,0.068-0.363,0.249-0.407
	c0.066-0.016,6.033-1.438,13.263-2.107c-3.985,0.174-7.631,0.705-11.465,1.264c-2.102,0.306-4.275,0.623-6.561,0.887
	c-0.19,0.024-0.353-0.112-0.374-0.297c-0.022-0.185,0.112-0.353,0.297-0.374c2.276-0.262,4.444-0.578,6.541-0.884
	c4.344-0.633,8.446-1.231,13.089-1.319c6.678-0.126,6.68-0.05,6.697,0.372c0.017,0.422,0.019,0.476-5.596,0.824
	c-8.28,0.514-15.659,2.272-15.732,2.29C40.592,34.004,40.565,34.007,40.539,34.007z"/>
<path fill="#4E4E4E" d="M39.12,39.37c-0.066,0-0.134-0.02-0.193-0.061c-0.152-0.107-0.19-0.317-0.083-0.47
	c0.135-0.194,3.411-4.741,12.274-4.741c8.87,0,11.515,3.9,11.623,4.066c0.102,0.156,0.058,0.365-0.098,0.467
	c-0.156,0.102-0.365,0.058-0.467-0.098c-0.025-0.036-2.59-3.76-11.058-3.76c-8.515,0-11.69,4.408-11.721,4.453
	C39.332,39.32,39.227,39.37,39.12,39.37z"/>
<path fill="#4E4E4E" d="M111.558,31.139c-0.174,0-0.322-0.134-0.336-0.31c-0.015-0.186,0.123-0.349,0.309-0.364
	c0.035-0.003,3.543-0.287,11.082-0.996c7.547-0.71,16.097-1.299,16.182-1.305c0.189-0.015,0.347,0.127,0.36,0.314
	c0.013,0.186-0.127,0.347-0.313,0.36c-0.086,0.006-8.627,0.595-16.165,1.304c-7.546,0.709-11.056,0.994-11.091,0.997
	C111.577,31.139,111.567,31.139,111.558,31.139z"/>
<path fill="#4E4E4E" d="M71.739,51.774c-0.131,0-0.25-0.076-0.306-0.196c-0.058-0.126-0.033-0.276,0.063-0.376
	c1.077-1.12,2.093-1.227,7.731-1.823c0.78-0.082,1.65-0.174,2.623-0.279c3.474-0.376,8.632-0.668,14.604-1.006
	c7.523-0.426,16.885-0.956,26.618-1.864c5.443-0.508,9.477-0.765,11.992-0.765c2.807,0,3.116,0.309,3.202,0.653
	c0.069,0.279-0.135,0.499-0.331,0.603c-0.066,0.051-2.614,1.812-11.343,2.659c-8.849,0.858-29.578,1.7-38.7,1.827
	c-9.21,0.128-16.062,0.562-16.13,0.566C71.753,51.773,71.746,51.774,71.739,51.774z M135.063,46.139
	c-2.494,0-6.508,0.256-11.93,0.762c-9.745,0.909-19.114,1.44-26.642,1.866c-5.963,0.338-11.113,0.629-14.569,1.004
	c-0.973,0.105-1.844,0.197-2.625,0.28c-3.861,0.408-5.472,0.578-6.406,0.981c2.346-0.129,7.988-0.403,14.989-0.5
	c9.112-0.127,29.812-0.967,38.645-1.824c7.118-0.691,10.052-2.01,10.831-2.429C137.03,46.213,136.371,46.139,135.063,46.139z"/>
<path fill="#4E4E4E" d="M149.541,28.121c-0.17,0-0.315-0.127-0.335-0.3c-0.021-0.185,0.112-0.352,0.297-0.373
	c0.014-0.002,1.491-0.166,4.695-0.309c0.17-0.018,0.344,0.136,0.352,0.322c0.008,0.186-0.136,0.344-0.322,0.352
	c-3.176,0.143-4.634,0.304-4.649,0.306C149.566,28.12,149.553,28.121,149.541,28.121z"/>
<path fill="#4E4E4E" d="M156.605,27.715c-0.181,0-0.33-0.143-0.337-0.325c-0.007-0.186,0.138-0.343,0.325-0.35l0.711-0.027
	c0.935-0.035,1.69-0.064,2.698-0.081c0.002,0,0.004,0,0.006,0c0.184,0,0.334,0.147,0.337,0.332c0.003,0.186-0.145,0.34-0.332,0.343
	c-1.002,0.016-1.753,0.045-2.683,0.08l-0.712,0.027C156.613,27.715,156.609,27.715,156.605,27.715z"/>
<path fill="#4E4E4E" d="M173.056,27.599c-0.001,0-0.002,0-0.003,0c-0.058,0-5.844-0.056-10.966-0.011c-0.001,0-0.002,0-0.003,0
	c-0.185,0-0.336-0.149-0.337-0.334c-0.002-0.187,0.148-0.339,0.334-0.341c4.455-0.04,9.413-0.003,10.675,0.008
	c0.017-0.045,0.04-0.088,0.067-0.129c0.283-0.428,0.996-0.565,2.176-0.792c0.963-0.185,2.161-0.416,3.418-0.881
	c1.73-0.64,2.672-1.184,2.651-1.534c-0.01-0.196-0.031-0.599-1.755-0.633c-2.335-0.045-6.335-0.652-10.7-1.622l-0.198-0.044
	c-3.625-0.805-3.625-0.805-10.584-3.647c-1.669-0.681-3.739-1.527-6.358-2.587c-12.798-5.18-32.9-5.439-47.446-3.955
	c-12.038,1.228-17.451,3.55-27.278,7.766L75.034,19.6c-10.699,4.576-15.335,6.63-15.381,6.65c-0.17,0.076-0.37-0.001-0.445-0.172
	c-0.076-0.17,0.001-0.37,0.172-0.445c0.045-0.02,4.685-2.076,15.389-6.654l1.715-0.735c9.888-4.242,15.335-6.579,27.476-7.817
	c14.627-1.493,34.856-1.225,47.768,4.001c2.62,1.06,4.691,1.906,6.36,2.587c6.906,2.82,6.906,2.82,10.476,3.613l0.198,0.044
	c4.26,0.947,8.309,1.562,10.567,1.606c1.648,0.032,2.37,0.406,2.414,1.249c0.033,0.545-0.18,1.15-3.09,2.225
	c-1.309,0.484-2.537,0.72-3.524,0.91c-0.704,0.136-1.669,0.322-1.743,0.506c0.022,0.1-0.003,0.216-0.067,0.296
	C173.253,27.543,173.158,27.599,173.056,27.599z"/>
<path fill="#4E4E4E" d="M68.908,56.017c-0.186,0-0.337-0.15-0.337-0.336c-0.001-0.187,0.149-0.338,0.336-0.339l71.589-0.316
	c-0.015-1.71,0.198-9.087,4.775-13.868c2.579-2.694,6.091-4.06,10.439-4.06c4.698,0,8.415,1.398,11.049,4.155
	c3.933,4.117,4.226,9.924,4.229,11.51c1.799-0.257,9.282-1.352,11.416-2.082c2.167-0.741,2.504-1.566,3.117-3.063l0.138-0.334
	c0.554-1.333,0.532-2.235,0.507-3.278c-0.005-0.227-0.011-0.459-0.011-0.701c0-0.673-0.157-0.884-0.374-1.176
	c-0.176-0.236-0.394-0.529-0.522-1.07c-0.08-0.342-0.223-0.583-0.388-0.863c-0.322-0.545-0.722-1.223-0.794-2.868
	c-0.065-1.479-0.351-1.67-1.414-2.382c-0.163-0.109-0.342-0.228-0.537-0.364c-0.524-0.365-0.956-0.796-1.413-1.253
	c-0.908-0.908-1.938-1.938-4.144-2.956c-3.446-1.59-3.811-2.897-3.841-3.041c-0.038-0.182,0.079-0.361,0.261-0.4
	c0.177-0.038,0.355,0.074,0.398,0.251c0.011,0.037,0.384,1.155,3.466,2.577c2.315,1.069,3.437,2.191,4.338,3.092
	c0.454,0.454,0.846,0.846,1.321,1.176c0.191,0.133,0.366,0.25,0.526,0.357c1.121,0.75,1.633,1.092,1.713,2.913
	c0.065,1.476,0.388,2.024,0.701,2.554c0.177,0.3,0.36,0.61,0.464,1.052c0.095,0.405,0.246,0.607,0.405,0.821
	c0.25,0.335,0.508,0.682,0.508,1.579c0,0.236,0.006,0.463,0.011,0.684c0.026,1.074,0.051,2.088-0.558,3.554l-0.136,0.331
	c-0.619,1.512-1.066,2.605-3.522,3.446c-2.48,0.848-11.548,2.114-11.932,2.167c-0.102,0.013-0.2-0.017-0.274-0.085
	c-0.074-0.067-0.114-0.165-0.11-0.265c0.003-0.069,0.258-6.927-4.04-11.422c-2.502-2.616-6.054-3.942-10.558-3.942
	c-4.155,0-7.502,1.295-9.949,3.849c-4.895,5.11-4.587,13.64-4.583,13.725c0.004,0.092-0.029,0.181-0.093,0.248
	c-0.063,0.066-0.151,0.104-0.243,0.105l-71.933,0.317C68.909,56.017,68.908,56.017,68.908,56.017z"/>
<path fill="#4E4E4E" d="M63.115,29.65c-1.045,0-1.709-0.206-1.839-1.1c-0.215-1.486,2.165-2.535,5.177-3.865
	c1.172-0.517,2.384-1.052,3.469-1.633l0.434-0.234c14.004-7.574,29.622-11.414,46.42-11.414c21.814,0,31.461,3.803,35.27,6.07
	c0.073,0.044,0.132,0.078,0.177,0.104c0.941,0.529,1.951,1.4,1.4,3.447c-0.477,1.771-1.805,2.982-1.861,3.033
	c-0.059,0.053-0.134,0.083-0.213,0.086c-0.221,0.008-22.31,0.854-34.171,1.37c-11.856,0.515-31.938,2.07-32.14,2.086
	c-0.177,0.022-0.348-0.124-0.363-0.31c-0.015-0.186,0.125-0.348,0.311-0.363c0.201-0.016,20.295-1.572,32.163-2.088
	c11.39-0.495,32.209-1.294,34.046-1.365c0.286-0.286,1.218-1.293,1.576-2.625c0.405-1.502-0.113-2.14-1.079-2.683
	c-0.048-0.027-0.112-0.065-0.191-0.112c-3.749-2.231-13.272-5.975-34.925-5.975c-16.685,0-32.195,3.813-46.099,11.333l-0.436,0.235
	c-1.108,0.594-2.332,1.134-3.516,1.656c-2.42,1.068-4.923,2.172-4.782,3.15c0.081,0.557,0.574,0.587,2.485,0.46l0.48-0.031
	c2.058-0.129,12.277-1.098,12.38-1.108c0.19-0.017,0.351,0.119,0.368,0.304c0.018,0.185-0.119,0.35-0.304,0.368
	c-0.103,0.01-10.334,0.98-12.402,1.11l-0.478,0.031C63.971,29.619,63.515,29.65,63.115,29.65z"/>
<path fill="#4E4E4E" d="M63.805,29.627c-0.066,0-0.133-0.02-0.191-0.06c-0.203-0.141-0.54-0.51-0.519-0.994
	c0.023-0.5,0.408-0.967,1.145-1.386c1.007-0.572,10.178-5.713,22.097-9.96c11.326-4.036,28.169-4.773,28.337-4.78
	c0.125-0.003,0.223,0.049,0.288,0.141c0.066,0.092,0.082,0.212,0.04,0.318l-4.944,12.789c-0.067,0.174-0.263,0.26-0.436,0.193
	c-0.174-0.067-0.26-0.263-0.193-0.437l4.757-12.304c-2.914,0.158-17.506,1.111-27.623,4.716C74.7,22.09,65.576,27.204,64.575,27.773
	c-0.505,0.287-0.791,0.581-0.805,0.827c-0.013,0.233,0.23,0.413,0.232,0.414c0.15,0.109,0.185,0.319,0.078,0.47
	C64.015,29.577,63.911,29.627,63.805,29.627z"/>
<path fill="#4E4E4E" d="M113.582,52.927c-0.153,0-0.292-0.105-0.328-0.261c-1.247-5.385-1.087-12.323-0.858-17.072
	c0.251-5.203,1.836-9.993,1.966-10.378l2.539-13.537c0.034-0.183,0.21-0.306,0.394-0.27c0.183,0.034,0.304,0.211,0.269,0.394
	l-2.544,13.561c-0.003,0.016-0.007,0.033-0.013,0.048c-0.017,0.049-1.682,4.915-1.938,10.214
	c-0.227,4.709-0.387,11.583,0.841,16.887c0.042,0.181-0.071,0.363-0.253,0.405C113.633,52.924,113.607,52.927,113.582,52.927z"/>
<path fill="#4E4E4E" d="M118.02,25.484c-0.011,0-0.023-0.001-0.035-0.002c-0.185-0.019-0.32-0.185-0.301-0.37l1.367-13.387
	c0.019-0.185,0.188-0.317,0.37-0.301c0.185,0.019,0.32,0.185,0.301,0.37l-1.367,13.387C118.338,25.355,118.191,25.484,118.02,25.484
	z"/>
<path fill="#4E4E4E" d="M118.704,25.484c-0.011,0-0.023-0.001-0.035-0.002c-0.185-0.019-0.32-0.185-0.301-0.37l1.368-13.387
	c0.019-0.185,0.191-0.317,0.37-0.301c0.185,0.019,0.32,0.185,0.301,0.37l-1.368,13.387
	C119.022,25.355,118.875,25.484,118.704,25.484z"/>
<path fill="#4E4E4E" d="M141.623,24.208c-0.014,0-0.028-0.001-0.042-0.003c-0.185-0.023-0.316-0.191-0.293-0.376l1.012-8.154
	c-0.433-0.133-1.863-0.509-6.147-1.255c-5.906-1.027-15.989-1.297-16.09-1.3c-0.186-0.005-0.334-0.16-0.329-0.346
	c0.005-0.183,0.155-0.329,0.337-0.329c0.003,0,0.006,0,0.009,0c0.102,0.002,10.233,0.274,16.188,1.309
	c5.637,0.98,6.472,1.34,6.595,1.427c0.101,0.072,0.154,0.193,0.138,0.316l-1.044,8.413
	C141.937,24.083,141.791,24.208,141.623,24.208z"/>
<path fill="#4E4E4E" d="M142.667,24.208c-0.011,0-0.023-0.001-0.035-0.002c-0.185-0.019-0.32-0.185-0.301-0.37l0.848-8.282
	c0.01-0.096,0.061-0.184,0.139-0.24c0.079-0.056,0.178-0.076,0.272-0.054c0.149,0.034,3.669,0.858,6.154,2.252
	c2.265,1.27,1.849,2.71,1.34,3.682c-0.529,1.009-1.896,2.806-1.954,2.882c-0.113,0.148-0.324,0.178-0.473,0.064
	c-0.148-0.113-0.177-0.325-0.064-0.473c0.014-0.018,1.39-1.827,1.893-2.786c0.427-0.815,0.732-1.769-1.073-2.78
	c-1.942-1.089-4.628-1.839-5.603-2.09l-0.809,7.895C142.985,24.079,142.838,24.208,142.667,24.208z"/>
<path fill="#4E4E4E" d="M165.092,40.552c-0.144,0-0.277-0.092-0.322-0.237c-0.055-0.178,0.044-0.367,0.222-0.423
	c0.352-0.11,8.658-2.693,11.527-3.277c2.418-0.492,2.638-0.88,2.942-1.418c0.044-0.077,0.089-0.157,0.14-0.239
	c0.424-0.684,1.04-1.996,1.046-2.009c0.079-0.169,0.279-0.242,0.449-0.163c0.169,0.079,0.241,0.28,0.163,0.449
	c-0.026,0.055-0.638,1.361-1.084,2.078c-0.046,0.074-0.086,0.146-0.126,0.215c-0.419,0.74-0.807,1.221-3.395,1.747
	c-2.836,0.577-11.375,3.233-11.462,3.26C165.159,40.547,165.125,40.552,165.092,40.552z"/>
<path fill="#4E4E4E" d="M169.898,43.055l-0.024-0.674c0,0,7.043-0.245,10.443-0.367c2.354-0.085,4.342-0.198,4.831-0.728
	c0.076-0.082,0.108-0.171,0.102-0.288c-0.008-0.186,0.135-0.344,0.322-0.352c0.185-0.006,0.344,0.135,0.352,0.322
	c0.014,0.299-0.081,0.56-0.28,0.777c-0.616,0.668-2.133,0.832-5.302,0.945C176.941,42.811,169.898,43.055,169.898,43.055z"/>
<path fill="#4E4E4E" d="M178.47,40.854c-0.156,0-0.297-0.109-0.33-0.268c-0.038-0.182,0.079-0.361,0.261-0.399
	c5.334-1.116,6.304-1.23,6.342-1.234c0.185-0.022,0.351,0.112,0.372,0.297c0.021,0.185-0.112,0.352-0.297,0.373
	c-0.039,0.005-1.017,0.123-6.28,1.224C178.516,40.852,178.492,40.854,178.47,40.854z"/>
<path fill="#4E4E4E" d="M184.739,50.077c-0.157,0-0.298-0.111-0.33-0.271c-0.037-0.183,0.081-0.36,0.264-0.397
	c0.024-0.005,0.985-0.219,1.409-0.99c0.338-0.616-0.18-1.437-0.185-1.445c-0.101-0.157-0.055-0.365,0.101-0.466
	c0.156-0.1,0.365-0.057,0.466,0.1c0.031,0.047,0.743,1.166,0.21,2.137c-0.58,1.056-1.814,1.316-1.866,1.326
	C184.783,50.075,184.761,50.077,184.739,50.077z"/>
<path fill="#4E4E4E" d="M170.644,53.49c-0.186,0-0.337-0.151-0.337-0.337c0-0.314,0.087-0.328,1.154-0.498
	c2.422-0.386,9.791-1.559,11.643-4.375c1.478-2.248,1.636-3.857,1.763-5.151c0.072-0.732,0.134-1.365,0.417-1.952
	c0.081-0.167,0.284-0.237,0.45-0.157c0.168,0.081,0.238,0.283,0.157,0.451c-0.231,0.478-0.285,1.028-0.353,1.724
	c-0.127,1.295-0.301,3.069-1.87,5.456c-2.016,3.065-9.343,4.232-12.101,4.671c-0.338,0.054-0.659,0.105-0.766,0.13
	C170.754,53.476,170.701,53.49,170.644,53.49z"/>
<path fill="#4E4E4E" d="M182.463,34.742c-0.027,0-0.054-0.003-0.082-0.01c-0.181-0.045-0.291-0.228-0.246-0.409
	c0.093-0.375,0.298-1.459,0.124-1.962c-0.051-0.089-0.233-0.232-0.513-0.414c-0.042-0.016-0.08-0.041-0.112-0.071
	c-1.012-0.637-3.061-1.675-4.919-2.521c-1.053-0.39-1.107-0.64-1.07-0.862c0.059-0.355,0.48-0.365,0.638-0.37
	c0.69-0.014,1.142,0.176,1.965,0.528c0.445,0.19,0.999,0.427,1.78,0.716c2.098,0.774,2.269,1.419,2.197,2.111
	c0.366,0.26,0.611,0.489,0.671,0.663c0.27,0.781-0.068,2.188-0.108,2.346C182.752,34.64,182.614,34.742,182.463,34.742z
	 M179.099,29.733c0.852,0.419,1.709,0.864,2.394,1.273c-0.145-0.269-0.565-0.588-1.697-1.006
	C179.541,29.905,179.31,29.817,179.099,29.733z"/>
<path fill="#4E4E4E" d="M182.68,32.963c-0.001,0-0.002,0-0.003,0c-0.186-0.002-0.336-0.154-0.334-0.341
	c0-0.023,0.02-2.329-0.016-2.995c-0.008-0.146-0.006-0.296-0.004-0.456c0.009-0.592,0.018-1.264-0.515-2.402
	c-0.68-1.455-1.243-2.177-1.249-2.184c-0.115-0.146-0.09-0.358,0.056-0.474c0.146-0.116,0.358-0.091,0.473,0.055
	c0.025,0.031,0.613,0.782,1.331,2.316c0.598,1.28,0.587,2.066,0.578,2.698c-0.002,0.144-0.004,0.279,0.003,0.41
	c0.037,0.688,0.018,2.942,0.017,3.038C183.016,32.814,182.865,32.963,182.68,32.963z"/>
<path fill="#4E4E4E" d="M181.752,31.103c-0.168,0-0.313-0.125-0.334-0.296c-0.068-0.553-0.298-2.112-0.543-2.677
	c-0.268-0.618-0.37-0.731-1.185-0.92c-0.705-0.163-4.918-0.049-6.482,0.009c-0.134,0.003-0.257-0.069-0.315-0.189
	c-0.058-0.12-0.041-0.263,0.044-0.365c0.82-0.979,2.8-1.675,4.547-2.288c0.623-0.219,1.211-0.425,1.709-0.63
	c0.754-0.31,0.777-0.522,0.777-0.524c0.001-0.069-0.178-0.215-0.319-0.277c-0.17-0.076-0.247-0.275-0.171-0.446
	c0.076-0.171,0.276-0.247,0.446-0.171c0.074,0.033,0.727,0.34,0.718,0.904c-0.006,0.437-0.397,0.81-1.196,1.138
	c-0.514,0.211-1.11,0.421-1.742,0.642c-1.256,0.441-2.639,0.926-3.543,1.498c1.699-0.051,4.962-0.125,5.678,0.041
	c0.991,0.23,1.284,0.463,1.652,1.309c0.333,0.77,0.582,2.778,0.593,2.863c0.023,0.185-0.109,0.353-0.294,0.376
	C181.78,31.102,181.766,31.103,181.752,31.103z"/>
<path fill="#4E4E4E" d="M137.775,27.039c-0.164,0-0.308-0.12-0.334-0.288c-0.027-0.184,0.1-0.356,0.285-0.383
	c0.111-0.016,11.243-1.644,21.228-1.644c9.942,0,16.237-0.676,16.299-0.683c0.19-0.019,0.352,0.113,0.372,0.299
	c0.021,0.185-0.113,0.352-0.298,0.372c-0.063,0.007-6.395,0.687-16.373,0.687c-9.936,0-21.019,1.62-21.129,1.637
	C137.808,27.037,137.791,27.039,137.775,27.039z"/>
<path fill="#4E4E4E" d="M76.2,53.912c-0.811,0-1.645-0.023-2.52-0.08c-4.664-0.301-4.862-4.193-5.021-7.32
	c-0.025-0.486-0.049-0.962-0.087-1.416c-0.065-0.762-0.123-1.349-0.174-1.857c-0.177-1.786-0.257-2.601-0.219-6.508
	c0.047-4.785,1.617-7.714,1.839-8.104l1.403-5.025c0.05-0.179,0.236-0.285,0.416-0.234c0.179,0.05,0.284,0.236,0.234,0.416
	l-1.415,5.067c-0.008,0.029-0.02,0.056-0.035,0.082c-0.018,0.029-1.72,2.962-1.768,7.806c-0.038,3.87,0.042,4.674,0.216,6.435
	c0.051,0.51,0.109,1.1,0.174,1.866c0.04,0.462,0.064,0.946,0.089,1.44c0.16,3.156,0.326,6.418,4.39,6.681
	c2.733,0.176,5.076,0.022,7.557-0.143c2.144-0.141,4.362-0.288,7.147-0.266c3.048,0.025,8.582-0.112,14.444-0.256
	c5.854-0.144,12.489-0.307,17.59-0.331c2.749-0.016,5.098,0.047,7.173,0.101c5.428,0.14,8.417,0.217,9.421-1.273
	c0.483-0.717,0.785-1.742,1.134-2.93c0.692-2.353,1.639-5.575,4.777-8.713c1.908-1.908,3.107-2.642,3.983-3.178
	c1.224-0.749,1.782-1.09,2.935-4.043c1.94-4.967,1.327-8.224,1.32-8.256c-0.036-0.183,0.082-0.361,0.265-0.397
	c0.183-0.037,0.36,0.081,0.397,0.264c0.028,0.139,0.665,3.466-1.354,8.635c-1.235,3.164-1.896,3.568-3.212,4.373
	c-0.847,0.518-2.007,1.228-3.858,3.079c-3.016,3.015-3.898,6.016-4.607,8.426c-0.365,1.241-0.68,2.312-1.222,3.116
	c-1.211,1.797-4.331,1.716-9.998,1.57c-2.07-0.054-4.42-0.116-7.152-0.101c-5.095,0.024-11.727,0.187-17.577,0.331
	c-5.868,0.144-11.409,0.279-14.466,0.256c-2.767-0.024-4.965,0.124-7.097,0.265C79.61,53.803,77.961,53.912,76.2,53.912z"/>
<path fill="#4E4E4E" d="M72.455,28.902c-0.014,0-0.029-0.001-0.043-0.003c-0.185-0.024-0.315-0.192-0.292-0.377l0.705-5.541
	c0.023-0.185,0.187-0.315,0.377-0.292c0.185,0.024,0.315,0.192,0.292,0.377l-0.705,5.541C72.768,28.778,72.623,28.902,72.455,28.902
	z"/>
<path fill="#4E4E4E" d="M80.231,31.537h-2.103c-0.721,0-1.174-0.208-1.564-0.72c-0.113-0.148-0.085-0.36,0.063-0.473
	c0.149-0.113,0.36-0.084,0.473,0.063c0.23,0.301,0.453,0.454,1.028,0.454h2.103c0.089-0.002,0.555-0.046,0.618-0.674
	c0.095-0.951,0.102-3.294,0.102-3.318c0-0.186,0.152-0.337,0.337-0.337c0.165-0.005,0.338,0.152,0.337,0.338
	c0,0.098-0.007,2.4-0.106,3.383C81.419,31.269,80.633,31.537,80.231,31.537z"/>
<path fill="#4E4E4E" d="M80.856,27.037c-2.223,0-3.604-1.066-3.604-2.783c0-0.186,0.151-0.337,0.337-0.337
	c0.186,0,0.337,0.151,0.337,0.337c0,1.32,1.095,2.108,2.929,2.108c2.149,0,3.517-0.81,3.662-2.168
	c0.06-0.567-0.129-1.097-0.547-1.533c-0.573-0.598-1.495-0.918-2.472-0.858c-0.183,0.013-0.346-0.13-0.358-0.316
	c-0.011-0.186,0.13-0.346,0.316-0.358c1.173-0.074,2.293,0.325,3.001,1.065c0.551,0.576,0.811,1.311,0.731,2.071
	C85.004,26.001,83.385,27.037,80.856,27.037z"/>
<path fill="#4E4E4E" d="M80.359,26.236c-0.673,0-1.309-0.222-1.758-0.626c-0.428-0.385-0.656-0.901-0.639-1.454
	c0.038-1.25,1.123-2.077,2.903-2.212c1.104-0.082,2.656-0.024,3.408,1.446c0.085,0.166,0.019,0.369-0.147,0.454
	c-0.167,0.085-0.37,0.019-0.454-0.147c-0.445-0.869-1.268-1.191-2.756-1.08c-1.401,0.106-2.253,0.689-2.279,1.559
	c-0.014,0.45,0.218,0.755,0.415,0.931c0.397,0.357,1.01,0.516,1.639,0.43c0.18-0.026,0.355,0.103,0.381,0.288
	c0.025,0.185-0.103,0.355-0.288,0.381C80.641,26.227,80.499,26.236,80.359,26.236z"/>
<path fill="#4E4E4E" d="M77.321,31.194c-0.028,0-0.055-0.003-0.083-0.01c-0.181-0.046-0.29-0.229-0.245-0.41l1.189-4.702
	c0.046-0.181,0.233-0.29,0.41-0.244c0.181,0.046,0.29,0.229,0.245,0.41l-1.189,4.702C77.609,31.093,77.472,31.194,77.321,31.194z"/>
<path fill="#4E4E4E" d="M76.978,29.552c-0.051,0-0.102-0.011-0.151-0.036c-0.167-0.083-0.234-0.286-0.151-0.453l1.532-3.06
	c0.083-0.166,0.285-0.234,0.453-0.151c0.167,0.083,0.234,0.286,0.151,0.453l-1.532,3.06C77.221,29.484,77.102,29.552,76.978,29.552z
	"/>
<path fill="#4E4E4E" d="M84.864,24.416h-6.467c-0.186,0-0.337-0.151-0.337-0.337c0-0.186,0.151-0.337,0.337-0.337h6.467
	c0.186,0,0.337,0.151,0.337,0.337C85.202,24.265,85.05,24.416,84.864,24.416z"/>
<path fill="#4E4E4E" d="M158.465,32.099c-0.002,0-0.004,0-0.005,0c-0.036-0.001-3.646-0.094-3.805-3.625
	c-0.036-0.801,0.181-1.453,0.644-1.938c0.7-0.732,1.769-0.885,2.542-0.885c1.105,0,2.308,0.321,2.927,0.78
	c0.79,0.586,1.33,2.285,0.869,3.682C161.392,30.854,160.654,32.099,158.465,32.099z M157.842,26.325
	c-0.908,0-1.637,0.24-2.055,0.677c-0.331,0.347-0.485,0.832-0.458,1.442c0.13,2.873,2.984,2.977,3.139,2.98
	c1.325-0.001,2.199-0.528,2.528-1.524c0.362-1.095-0.049-2.497-0.629-2.928C159.944,26.659,158.915,26.325,157.842,26.325z"/>
<path fill="#4E4E4E" d="M170.116,42.187c-0.13,0-0.253-0.075-0.309-0.201c-0.031-0.069-3.189-6.915-13.554-7.244
	c-2.036-0.064-3.744,0.223-5.149,0.513c-0.178,0.04-0.361-0.079-0.399-0.262c-0.038-0.182,0.08-0.361,0.262-0.399
	c1.443-0.298,3.205-0.593,5.306-0.527c10.809,0.343,14.118,7.573,14.15,7.646c0.075,0.17-0.002,0.369-0.173,0.444
	C170.208,42.178,170.162,42.187,170.116,42.187z"/>
<path fill="#4E4E4E" d="M140.622,30.444L140.622,30.444c-0.063,0-0.127-0.003-0.189-0.009c-1.017-0.102-1.6-0.474-1.6-1.021
	c0-1.63,2.874-1.812,4.776-1.932c0.192-0.012,0.369-0.023,0.524-0.035c0.642-0.049,1.333-0.094,2.031-0.094
	c1.867,0,2.833,0.335,3.039,1.055c0.082,0.286,0.048,0.565-0.099,0.807c-0.361,0.592-1.346,0.856-2.164,1.019
	c-0.591,0.118-1.225,0.032-1.871-0.081c-0.511-0.09-1.048-0.182-1.683-0.164c-0.741,0.021-1.271,0.158-1.738,0.278
	C141.277,30.362,140.957,30.444,140.622,30.444z M146.163,28.027c-0.675,0-1.35,0.045-1.979,0.093
	c-0.158,0.012-0.338,0.023-0.534,0.036c-1.345,0.085-4.144,0.261-4.144,1.258c0,0.074,0.286,0.278,0.992,0.349
	c0.041,0.004,0.082,0.006,0.123,0.006l0,0c0.25,0,0.518-0.069,0.857-0.156c0.477-0.123,1.07-0.276,1.887-0.299
	c0.707-0.019,1.301,0.083,1.819,0.174c0.586,0.103,1.134,0.181,1.622,0.084c0.974-0.195,1.552-0.433,1.72-0.709
	c0.033-0.054,0.066-0.134,0.027-0.269C148.516,28.461,148.231,28.027,146.163,28.027z"/>
<path fill="#4E4E4E" d="M139.199,29.895c-0.152,0-0.29-0.103-0.327-0.258c-0.044-0.181,0.067-0.364,0.248-0.408
	c0.042-0.01,4.302-1.027,9.761-0.884c0.186,0.005,0.334,0.16,0.329,0.346c-0.005,0.183-0.155,0.329-0.337,0.329
	c-0.003,0-0.006,0-0.009,0c-5.377-0.139-9.542,0.856-9.583,0.865C139.252,29.892,139.225,29.895,139.199,29.895z"/>
<path fill="#4E4E4E" d="M143.4,31.635c-2.893,0-4.963-0.914-5.152-2.274c-0.025-0.185,0.103-0.355,0.288-0.381
	c0.188-0.025,0.355,0.103,0.381,0.288c0.114,0.82,1.724,1.691,4.483,1.691c2.951,0,5.382-0.832,5.535-1.894
	c0.026-0.185,0.197-0.312,0.382-0.286c0.184,0.027,0.312,0.198,0.286,0.382C149.357,30.87,146.311,31.635,143.4,31.635z"/>
<path fill="#4E4E4E" d="M138.949,28.838c-0.091,0-0.181-0.036-0.247-0.108c-0.127-0.136-0.119-0.35,0.018-0.477
	c0.065-0.06,1.626-1.476,4.852-1.476c0.186,0,0.337,0.151,0.337,0.337c0,0.186-0.151,0.337-0.337,0.337
	c-2.963,0-4.379,1.282-4.392,1.295C139.114,28.808,139.031,28.838,138.949,28.838z"/>
<path fill="#4E4E4E" d="M105.298,34.471c-2.959,0-3.638-0.957-4.122-2.022c-0.077-0.17-0.002-0.37,0.167-0.447
	c0.169-0.077,0.37-0.003,0.447,0.168c0.346,0.762,0.739,1.626,3.508,1.626c2.692,0,3.444-1.191,3.451-1.203
	c0.056-0.093,0.156-0.157,0.265-0.165c0.926-0.073,2.209-0.421,2.208-0.885c0-0.225-0.067-0.383-0.207-0.496
	c-0.409-0.328-1.339-0.218-1.633-0.154c-0.179,0.039-0.362-0.075-0.402-0.257s0.075-0.362,0.257-0.402
	c0.147-0.033,1.467-0.301,2.199,0.286c0.3,0.241,0.459,0.594,0.46,1.021c0.004,1.168-1.976,1.474-2.673,1.546
	C108.907,33.479,107.855,34.471,105.298,34.471z"/>
<path fill="#4E4E4E" d="M102.963,32.963c-0.663,0-0.961-0.105-1.154-0.266c-0.149-0.124-0.235-0.297-0.247-0.5
	c-0.011-0.186,0.131-0.346,0.317-0.357c0.172-0.016,0.346,0.13,0.357,0.317c0.001,0.015,0.003,0.021,0.003,0.021
	c0.047,0.055,0.358,0.227,2.358-0.018c2.202-0.269,4.342-0.192,4.431-0.189c0.74-0.03,1.802-0.282,1.802-0.675
	c0-0.186,0.151-0.337,0.337-0.337c0.186,0,0.337,0.151,0.337,0.337c0,1.219-2.223,1.34-2.477,1.349
	c-0.047,0-2.201-0.078-4.349,0.184C103.925,32.922,103.374,32.963,102.963,32.963z"/>
<path fill="#4E4E4E" d="M60.196,36.795c-0.163,0-0.306-0.118-0.333-0.284c-0.03-0.184,0.095-0.357,0.279-0.387
	c0.071-0.011,7.174-1.15,16.877-2.311c7.394-0.885,13.369-1.461,16.24-1.739l1.043-0.101c3.064-0.3,6.218-0.541,7.003-0.599
	c0.776-1.291,3.031-1.882,4.873-1.882c1.707,0,2.595,0.842,2.632,0.878c0.094,0.091,0.127,0.23,0.083,0.354
	c-0.044,0.124-0.155,0.212-0.286,0.225c-0.025,0.002-2.535,0.247-4.487,0.512c-1.2,0.163-1.569,0.308-1.668,0.359
	c-0.042,0.067-0.107,0.119-0.189,0.143c-0.168,0.05-0.342-0.035-0.408-0.192c-0.013,0.023-0.025,0.047-0.036,0.07
	c-0.052,0.11-0.16,0.184-0.281,0.193c-0.036,0.003-3.664,0.268-7.172,0.612l-1.044,0.101c-2.869,0.277-8.838,0.853-16.225,1.737
	c-9.689,1.16-16.78,2.296-16.85,2.307C60.232,36.793,60.214,36.795,60.196,36.795z M106.179,30.167
	c-1.262,0-2.728,0.312-3.629,0.902c0.31-0.088,0.774-0.182,1.48-0.278c1.172-0.159,2.544-0.311,3.464-0.408
	C107.158,30.263,106.719,30.167,106.179,30.167z"/>
<path fill="#4E4E4E" d="M101.898,32.442c-0.172,0-0.319-0.132-0.336-0.307c-0.017-0.186,0.12-0.35,0.305-0.367l6.676-0.611
	c0.182-0.014,0.35,0.12,0.367,0.305c0.017,0.186-0.12,0.35-0.305,0.367l-6.676,0.611C101.919,32.441,101.909,32.442,101.898,32.442z
	"/>
<path fill="#4E4E4E" d="M109.076,32.099c-0.314,0-0.569-0.256-0.569-0.57c0-0.314,0.255-0.57,0.569-0.57s0.57,0.256,0.57,0.57
	C109.646,31.843,109.391,32.099,109.076,32.099z M109.076,31.424c-0.058,0-0.105,0.047-0.105,0.105c0,0.116,0.21,0.116,0.21,0
	C109.182,31.471,109.134,31.424,109.076,31.424z"/>
<path fill="#4E4E4E" d="M110.348,31.708c-0.26,0-0.472-0.212-0.472-0.472c0-0.26,0.212-0.472,0.472-0.472
	c0.261,0,0.472,0.212,0.472,0.472C110.82,31.496,110.609,31.708,110.348,31.708z M110.348,31.033c-0.112,0-0.203,0.091-0.203,0.203
	c0,0.112,0.091,0.203,0.203,0.203c0.112,0,0.203-0.091,0.203-0.203C110.551,31.124,110.46,31.033,110.348,31.033z"/>
<path fill="#4E4E4E" d="M63.443,57.032c-0.039,0-0.072-0.006-0.099-0.013c-0.18-0.049-0.286-0.235-0.237-0.414
	c0.028-0.101,0.098-0.179,0.187-0.219c0.493-0.678,2.237-6.565-0.876-12.109c-0.091-0.163-0.033-0.368,0.129-0.459
	c0.163-0.091,0.369-0.033,0.46,0.129c3.304,5.883,1.433,12.067,0.798,12.881C63.676,56.992,63.543,57.032,63.443,57.032z"/>
<path fill="#4E4E4E" d="M65.582,25.778c-0.096,0-0.191-0.041-0.258-0.12l-1.325-1.57c-0.12-0.143-0.102-0.355,0.04-0.476
	c0.142-0.12,0.355-0.102,0.475,0.04l1.325,1.57c0.12,0.143,0.102,0.355-0.04,0.476C65.736,25.752,65.659,25.778,65.582,25.778z"/>
<path fill="#4E4E4E" d="M77.915,27.037c-0.058,0-0.117-0.015-0.171-0.047c-0.11-0.065-2.713-1.599-3.3-1.991
	c-0.158-0.105-0.487-0.325-0.46-0.668c0.032-0.395,0.461-0.59,1.24-0.946c0.206-0.094,0.526-0.249,0.939-0.448
	c1.798-0.87,5.144-2.491,8.588-3.721c1.112-0.397,2.271-0.861,3.498-1.352c3.503-1.402,7.474-2.99,12.728-4.041
	c0.18-0.036,0.36,0.082,0.397,0.265c0.036,0.183-0.082,0.361-0.265,0.397c-5.193,1.039-9.134,2.615-12.61,4.006
	c-1.233,0.493-2.397,0.959-3.522,1.361c-3.41,1.218-6.735,2.828-8.521,3.693c-0.419,0.203-0.743,0.36-0.953,0.455
	c-0.232,0.106-0.587,0.268-0.768,0.38c0.022,0.016,0.049,0.036,0.082,0.058c0.572,0.382,3.242,1.955,3.269,1.971
	c0.16,0.094,0.214,0.301,0.12,0.462C78.143,26.977,78.03,27.037,77.915,27.037z"/>
<path fill="#4E4E4E" d="M84.386,22.964c-0.122,0-0.239-0.066-0.299-0.181c-0.087-0.165-0.023-0.369,0.142-0.455
	c0.034-0.018,3.433-1.788,8.441-3.36l0.372-0.117c5.108-1.605,8.482-2.665,12.164-3.011c4.276-0.403,5.973,0.713,6.604,1.414
	c0.771,0.856,0.489,2.087,0.283,2.985c-0.035,0.15-0.068,0.294-0.095,0.43c-0.036,0.183-0.211,0.303-0.397,0.265
	c-0.183-0.036-0.301-0.214-0.265-0.397c0.028-0.142,0.063-0.293,0.099-0.45c0.192-0.837,0.41-1.786-0.127-2.382
	c-0.439-0.489-1.906-1.582-6.039-1.194c-3.611,0.34-6.778,1.335-12.025,2.983l-0.372,0.117c-4.946,1.554-8.296,3.297-8.329,3.314
	C84.492,22.952,84.439,22.964,84.386,22.964z"/>
<path fill="#4E4E4E" d="M135.038,24.787c-0.023,0-0.047-0.002-0.071-0.007c-0.182-0.039-0.299-0.218-0.26-0.4l1.111-5.214
	c-0.631-0.214-2.404-0.754-5.531-1.254c-4.761-0.762-10.672-0.771-10.732-0.771c-0.186,0-0.337-0.151-0.337-0.337
	s0.151-0.337,0.337-0.337c0.06,0,6.025,0.009,10.838,0.779c4.083,0.653,5.868,1.36,5.942,1.39c0.152,0.061,0.239,0.223,0.204,0.383
	l-1.173,5.502C135.334,24.678,135.194,24.787,135.038,24.787z"/>
<path fill="#4E4E4E" d="M136.211,24.713c-0.022,0-0.045-0.002-0.067-0.007c-0.183-0.037-0.301-0.215-0.264-0.398l1.027-5.087
	c0.02-0.097,0.08-0.18,0.167-0.228c0.086-0.048,0.189-0.056,0.281-0.022l4.737,1.748c0.175,0.065,0.264,0.259,0.2,0.433
	c-0.065,0.175-0.258,0.265-0.434,0.2l-4.368-1.611l-0.949,4.7C136.509,24.603,136.368,24.713,136.211,24.713z"/>
<polygon fill="#4E4E4E" points="36.684,31.161 10.999,31.193 10.999,32.061 34.865,32.098 "/>
<polygon fill="#4E4E4E" points="28.77,35.267 10.943,35.299 10.943,36.167 28.06,36.204 "/>
<polygon fill="#4E4E4E" points="25.979,39.316 10.943,39.348 10.943,40.216 25.268,40.254 "/>
<polygon fill="#4E4E4E" points="23.279,43.76 10.943,43.791 10.943,44.66 22.568,44.697 "/>
<circle fill="#4E4E4E" cx="10.258" cy="31.395" r="1.49"/>
<polygon fill="#4E4E4E" points="54.682,17.137 31.547,17.169 31.547,18.037 55.413,18.075 "/>
<polygon fill="#4E4E4E" points="60.944,25.087 54.741,17.128 54.061,17.668 60.327,25.817 "/>
<circle fill="#4E4E4E" cx="30.806" cy="17.372" r="1.49"/>
<polygon fill="#4E4E4E" points="67.956,11.4 44.82,11.432 44.82,12.3 68.687,12.338 "/>
<polygon fill="#4E4E4E" points="74.217,19.35 68.014,11.391 67.335,11.931 73.6,20.08 "/>
<circle fill="#4E4E4E" cx="44.08" cy="11.635" r="1.49"/>
<polygon fill="#4E4E4E" points="169.579,11.4 192.714,11.432 192.714,12.3 168.847,12.338 "/>
<polygon fill="#4E4E4E" points="163.317,19.35 169.52,11.391 170.199,11.931 163.934,20.08 "/>
<circle fill="#4E4E4E" cx="193.454" cy="11.635" r="1.49"/>
<polygon fill="#4E4E4E" points="187.437,17.25 210.572,17.282 210.572,18.15 186.706,18.187 "/>
<polygon fill="#4E4E4E" points="181.175,25.199 187.378,17.24 188.058,17.781 181.792,25.929 "/>
<circle fill="#4E4E4E" cx="211.313" cy="17.484" r="1.49"/>
<circle fill="#4E4E4E" cx="10.315" cy="35.557" r="1.49"/>
<circle fill="#4E4E4E" cx="10.371" cy="39.719" r="1.49"/>
<circle fill="#4E4E4E" cx="10.427" cy="44.219" r="1.49"/>
<polygon fill="#4E4E4E" points="181.663,31.161 198.226,31.193 198.226,32.061 182.76,32.098 "/>
<polygon fill="#4E4E4E" points="183.434,35.267 198.282,35.299 198.282,36.167 184.137,36.204 "/>
<polygon fill="#4E4E4E" points="184.756,39.316 198.282,39.348 198.282,40.216 185.262,40.254 "/>
<polygon fill="#4E4E4E" points="186.359,43.76 198.282,43.791 198.282,44.66 186.656,44.697 "/>
<circle fill="#4E4E4E" cx="198.966" cy="31.395" r="1.49"/>
<circle fill="#4E4E4E" cx="198.91" cy="35.557" r="1.49"/>
<circle fill="#4E4E4E" cx="198.854" cy="39.719" r="1.49"/>
<circle fill="#4E4E4E" cx="198.798" cy="44.219" r="1.49"/>
</svg>
