<?xml version="1.0" encoding="UTF-8" standalone="no"?>
<!-- Generator: Adobe Illustrator 17.0.0, SVG Export Plug-In . SVG Version: 6.00 Build 0)  -->

<svg
   xmlns:dc="http://purl.org/dc/elements/1.1/"
   xmlns:cc="http://creativecommons.org/ns#"
   xmlns:rdf="http://www.w3.org/1999/02/22-rdf-syntax-ns#"
   xmlns:svg="http://www.w3.org/2000/svg"
   xmlns="http://www.w3.org/2000/svg"
   xmlns:sodipodi="http://sodipodi.sourceforge.net/DTD/sodipodi-0.dtd"
   xmlns:inkscape="http://www.inkscape.org/namespaces/inkscape"
   version="1.1"
   id="Слой_1"
   x="0px"
   y="0px"
   width="118.73095"
   height="117.22725"
   viewBox="0 0 118.73095 117.22725"
   enable-background="new 0 0 135.5 147"
   xml:space="preserve"
   inkscape:version="0.91 r13725"
   sodipodi:docname="kuzov.svg"><metadata
     id="metadata192"><rdf:RDF><cc:Work
         rdf:about=""><dc:format>image/svg+xml</dc:format><dc:type
           rdf:resource="http://purl.org/dc/dcmitype/StillImage" /><dc:title></dc:title></cc:Work></rdf:RDF></metadata><defs
     id="defs190" /><sodipodi:namedview
     pagecolor="#ffffff"
     bordercolor="#666666"
     borderopacity="1"
     objecttolerance="10"
     gridtolerance="10"
     guidetolerance="10"
     inkscape:pageopacity="0"
     inkscape:pageshadow="2"
     inkscape:window-width="1440"
     inkscape:window-height="837"
     id="namedview188"
     showgrid="false"
     inkscape:zoom="1.6054422"
     inkscape:cx="56.362976"
     inkscape:cy="61.608"
     inkscape:window-x="-8"
     inkscape:window-y="-8"
     inkscape:window-maximized="1"
     inkscape:current-layer="Слой_1"
     fit-margin-top="0"
     fit-margin-left="0"
     fit-margin-right="0"
     fit-margin-bottom="0" /><path
     d="m 21.195976,106.40425 c -1.2,0 -2.452,-0.08 -3.81,-0.274 -2.606,-0.373 -5.014,-0.399 -7.138,-0.421 -3.5139996,-0.037 -6.0539996,-0.065 -6.6419996,-1.827 -0.816,-2.45 -1.939,-14.394999 -1.821,-18.043999 0.03,-0.921 0.043,-1.976 0.057,-3.108 0.042,-3.444 0.094,-7.729 0.685,-11.001 0.833,-4.601 1.979,-7.367 3.955,-9.546 0.722,-0.796 1.174,-1.177 1.537,-1.484 0.61,-0.515 0.916,-0.773 1.9849996,-2.783 0.606,-1.14 0.829,-1.95 1.137,-3.071 0.533,-1.942 1.264,-4.6 4.533,-10.881 5.231,-10.047 9.341,-12.223 10.692,-12.938 1.586,-0.839 2.576,-0.297 2.685,-0.232 0.204,0.122 0.291,0.374 0.205,0.596 -0.086,0.222 -0.318,0.351 -0.553,0.304 l 0,0 c 0.001,0 -1.653,-0.18 -4.462,3.257 -3.077,3.765 -6.533,10.771 -7.604,13.152 -0.228,0.509 -0.464,0.976 -0.683,1.411 -0.878,1.745 -1.234,2.549 -0.478,3.305 0.905,0.905 5.164,0.701 7.986,0.565 0.762,-0.037 1.479,-0.072 2.101,-0.086 3.107,-0.078 25.652,-0.296 33.719,-0.296 0.27,0 0.49,0.22 0.49,0.49 0,0.27 -0.22,0.49 -0.49,0.49 -8.063,0 -30.591,0.218 -33.696,0.296 -0.615,0.015 -1.324,0.049 -2.079,0.085 -4.256,0.205 -7.602,0.272 -8.724,-0.852 -1.289,-1.289 -0.554,-2.747 0.296,-4.438 0.214,-0.423 0.443,-0.879 0.665,-1.373 1.069,-2.375 4.48,-9.294 7.585,-13.181 -1.806,1.803 -4.135,4.804 -6.786,9.894 -3.221,6.189 -3.936,8.789 -4.458,10.689 -0.312,1.137 -0.559,2.035 -1.216,3.271 -1.1109996,2.091 -1.4839996,2.452 -2.2179996,3.072 -0.341,0.288 -0.765,0.646 -1.443,1.392 -1.843,2.03 -2.919,4.656 -3.716,9.062 -0.578,3.191 -0.628,7.43 -0.67,10.838 -0.014,1.139 -0.027,2.202 -0.057,3.128 -0.125,3.797 1.05,15.542999 1.771,17.701999 0.367,1.1 2.73,1.126 5.7229996,1.158 2.048,0.022 4.596,0.049 7.266,0.431 4.067,0.581 7.216,0.094 10.859,-0.469 2.353,-0.364 5.019,-0.776 8.228,-0.922 7.959,-0.364 22.351,-0.301 22.496,-0.3 0.27,0.001 0.489,0.222 0.488,0.492 -10e-4,0.27 -0.22,0.488 -0.49,0.488 -10e-4,0 -10e-4,0 -0.002,0 -0.143,0 -14.511,-0.063 -22.445,0.299 -3.156,0.144 -5.681,0.534 -8.123,0.912 -2.525,0.393 -4.814,0.748 -7.34,0.748 z"
     id="path3"
     inkscape:connector-curvature="0"
     style="fill:#4e4e4e" /><path
     d="m 27.781976,33.719251 c -0.932,0 -1.268,-0.135 -1.445,-0.469 -0.148,-0.281 -0.08,-0.602 0.204,-0.954 1.206,-1.493 2.607,-1.879 4.606,-2.293 2.029,-0.422 4.688,-0.38 4.801,-0.378 0.183,0.004 0.348,0.109 0.43,0.272 0.049,0.099 0.063,0.209 0.042,0.314 0.16,0.042 0.511,0.089 1.234,0.028 2.812,-0.232 13.892,-0.662 19.422,-0.662 l 3.5,0 c 0.27,0 0.49,0.22 0.49,0.49 0,0.27 -0.22,0.49 -0.49,0.49 l -3.5,0 c -5.512,0 -16.544,0.428 -19.342,0.659 -1.295,0.107 -1.988,-0.056 -2.253,-0.526 -0.016,-0.028 -0.03,-0.057 -0.042,-0.084 -0.857,0.007 -2.671,0.062 -4.094,0.358 -1.916,0.399 -2.965,0.715 -3.897,1.775 0.694,0.036 2.235,-0.088 4.22,-0.246 1.348,-0.107 3.004,-0.238 5.012,-0.375 8.326,-0.565 22.982,-0.573 23.129,-0.573 0.27,0 0.49,0.22 0.49,0.49 0,0.27 -0.22,0.49 -0.49,0.49 -0.147,0 -14.769,0.006 -23.062,0.57 -2.003,0.137 -3.657,0.268 -5,0.375 -1.937,0.15 -3.167,0.249 -3.965,0.249 z"
     id="path5"
     inkscape:connector-curvature="0"
     style="fill:#4e4e4e" /><path
     d="m 20.054976,53.590251 c -1.001,0 -1.748,-0.184 -2.197,-0.896 -0.848,-1.347 0.046,-3.302 1.397,-6.259 1.249,-2.734 5.136,-9.947 6.289,-11.187 1.166,-1.256 1.658,-1.538 4.211,-1.666 0.945,-0.047 3.072,-0.202 5.325,-0.368 3.671,-0.268 7.831,-0.571 9.021,-0.571 l 0.26,0 c 1.829,-0.002 2.936,-0.002 3.877,0.915 0.17,0.167 0.315,0.325 0.447,0.469 0.488,0.534 0.71,0.779 1.742,0.779 0.783,0 2.344,-0.053 3.855,-0.105 1.493,-0.051 2.905,-0.099 3.613,-0.099 l 2.685,0 c 0.27,0 0.49,0.22 0.49,0.49 0,0.27 -0.22,0.49 -0.49,0.49 l -2.685,0 c -0.691,0 -2.093,0.048 -3.579,0.099 -1.518,0.052 -3.089,0.105 -3.889,0.105 -1.464,0 -1.928,-0.509 -2.465,-1.098 -0.121,-0.132 -0.252,-0.275 -0.407,-0.428 -0.628,-0.615 -1.41,-0.644 -3.191,-0.637 l -0.262,0 c -1.155,0 -5.296,0.302 -8.951,0.569 -2.356,0.172 -4.392,0.321 -5.348,0.369 -2.323,0.116 -2.577,0.315 -3.542,1.354 -0.992,1.069 -4.824,8.102 -6.116,10.929 -1.131,2.475 -2.025,4.431 -1.459,5.33 0.333,0.528 1.175,0.488 2.896,0.353 0.662,-0.052 1.412,-0.11 2.267,-0.132 0.737,-0.02 2.025,-0.037 3.634,-0.058 5.093,-0.068 13.616,-0.18 17.675,-0.553 5.301,-0.485 13.781,-0.694 13.866,-0.696 l 0.705,0 c 0.27,0 0.49,0.22 0.49,0.49 0,0.27 -0.22,0.49 -0.49,0.49 l -0.69,0 c -0.073,0.002 -8.52,0.209 -13.788,0.691 -4.097,0.375 -12.645,0.489 -17.751,0.557 -1.603,0.021 -2.887,0.038 -3.621,0.057 -0.829,0.022 -1.566,0.08 -2.217,0.131 -0.593,0.044 -1.128,0.086 -1.607,0.086 z"
     id="path7"
     inkscape:connector-curvature="0"
     style="fill:#4e4e4e" /><path
     d="m 15.435976,69.368251 c -0.242,0 -0.452,-0.179 -0.485,-0.425 -0.037,-0.284 -0.922,-6.985 -0.8,-11.218 0.062,-2.144 0.471,-3.55 1.216,-4.179 0.446,-0.376 0.854,-0.343 0.933,-0.331 0.162,0.022 0.301,0.123 0.373,0.27 0.038,0.079 3.889,7.938 8.687,13.425 0.178,0.204 0.158,0.513 -0.047,0.691 -0.202,0.178 -0.512,0.157 -0.69,-0.046 -4.271,-4.885 -7.793,-11.594 -8.639,-13.257 -0.278,0.246 -0.784,1.021 -0.854,3.455 -0.12,4.156 0.783,10.992 0.791,11.062 0.036,0.268 -0.152,0.515 -0.421,0.55 -0.021,0.002 -0.043,0.003 -0.064,0.003 z"
     id="path9"
     inkscape:connector-curvature="0"
     style="fill:#4e4e4e" /><path
     d="m 60.016976,72.184251 -24.648,0 c -0.131,-0.001 -3.123,-0.052 -8.161,-0.905 -1.923,-0.326 -3.987,-0.641 -5.981,-0.944 -3.223,-0.492 -6.266,-0.957 -8.084,-1.374 l -0.381,-0.088 c -3.6969996,-0.848 -6.3799996,-1.511 -7.2659996,-2.328 -0.144,-0.133 -0.196,-0.339 -0.13,-0.525 0.019,-0.053 0.488,-1.321 2.212,-2.338 1.475,-0.87 1.806,-1.123 2.346,-3.133 0.4479996,-1.665 0.7539996,-3.199 1.0759996,-4.824 l 0.267,-1.331 c 0.054,-0.264 0.316,-0.434 0.578,-0.381 0.265,0.054 0.436,0.312 0.383,0.578 l -0.267,1.327 c -0.326,1.64 -0.634,3.191 -1.091,4.886 -0.602,2.238 -1.0679996,2.704 -2.7959996,3.723 -0.911,0.537 -1.392,1.145 -1.618,1.507 1.139,0.65 4.2159996,1.355 6.5239996,1.885 l 0.383,0.088 c 1.782,0.41 4.807,0.871 8.013,1.36 1.998,0.305 4.066,0.621 5.996,0.948 4.957,0.839 7.975,0.89 8.005,0.891 l 24.64,0 c 0.27,0 0.49,0.22 0.49,0.49 0,0.272 -0.22,0.488 -0.49,0.488 z"
     id="path11"
     inkscape:connector-curvature="0"
     style="fill:#4e4e4e" /><path
     d="m 40.273976,85.847251 c -0.041,0 -0.083,-0.005 -0.123,-0.016 -2.834,-0.732 -6.611,-1.084 -10.61,-1.458 -2.939,-0.274 -5.979,-0.558 -9.095,-1.015 -1.149,-0.169 -2.281,-0.32 -3.376,-0.465 -6.336,-0.843 -11.3389996,-1.508 -12.4809996,-4.583 -1.263,-3.399 -0.616,-6.585 -0.588,-6.718 0.048,-0.23 0.239,-0.388 0.49,-0.389 0.236,0.005 0.434,0.176 0.473,0.409 0.195,1.174 1.422,1.716 3.756,2.649 0.322,0.13 0.659,0.264 1.007,0.407 1.7479996,0.72 4.2659996,1.407 6.4869996,2.013 1.282,0.351 2.494,0.681 3.473,0.992 3.257,1.037 5.742,1.523 6.826,1.331 0.852,-0.151 1.863,-0.196 2.552,-0.21 -0.262,-0.521 -0.637,-1.281 -1.033,-2.118 -0.734,-1.549 -1.805,-4.308 -1.85,-4.424 -0.098,-0.252 0.027,-0.536 0.279,-0.633 0.252,-0.099 0.536,0.027 0.633,0.28 0.011,0.028 1.103,2.841 1.822,4.358 0.722,1.526 1.374,2.788 1.38,2.801 0.08,0.153 0.072,0.337 -0.02,0.484 -0.091,0.147 -0.246,0.225 -0.426,0.231 -0.02,-0.002 -1.845,-0.037 -3.168,0.196 -1.598,0.283 -4.849,-0.585 -7.293,-1.363 -0.959,-0.305 -2.161,-0.633 -3.434,-0.981 -2.248,-0.613 -4.796,-1.31 -6.6009996,-2.053 -0.346,-0.142 -0.679,-0.275 -0.997,-0.402 -1.526,-0.61 -2.777,-1.111 -3.551,-1.867 -0.044,1.179 0.048,2.907 0.702,4.667 0.937,2.523 5.9209996,3.186 11.6919996,3.953 1.1,0.147 2.235,0.297 3.389,0.467 3.092,0.454 6.118,0.736 9.045,1.008 4.039,0.376 7.854,0.733 10.764,1.485 0.262,0.068 0.42,0.334 0.352,0.596 -0.06,0.222 -0.258,0.368 -0.476,0.368 z"
     id="path13"
     inkscape:connector-curvature="0"
     style="fill:#4e4e4e" /><path
     d="m 14.191976,75.317251 c -0.27,0 -0.49,-0.22 -0.49,-0.49 0,-0.27 0.22,-0.49 0.49,-0.49 1.192,0 2.162,-0.97 2.162,-2.162 0,-1.192 -0.97,-2.162 -2.162,-2.162 -1.192,0 -2.162,0.97 -2.162,2.162 0,0.297 0.059,0.585 0.177,0.855 0.107,0.248 -0.007,0.537 -0.255,0.643 -0.247,0.107 -0.536,-0.006 -0.643,-0.255 -0.17,-0.394 -0.257,-0.812 -0.257,-1.244 0,-1.733 1.41,-3.142 3.142,-3.142 1.732,0 3.142,1.41 3.142,3.142 0,1.732 -1.412,3.143 -3.144,3.143 z"
     id="path15"
     inkscape:connector-curvature="0"
     style="fill:#4e4e4e" /><path
     d="m 14.191976,74.485251 c -1.274,0 -2.311,-1.037 -2.311,-2.311 0,-1.274 1.036,-2.311 2.311,-2.311 0.27,0 0.49,0.22 0.49,0.49 0,0.27 -0.22,0.49 -0.49,0.49 -0.734,0 -1.331,0.597 -1.331,1.332 0,0.734 0.597,1.331 1.331,1.331 0.734,0 1.332,-0.597 1.332,-1.331 0,-0.27 0.22,-0.49 0.49,-0.49 0.27,0 0.49,0.22 0.49,0.49 -0.002,1.274 -1.038,2.31 -2.312,2.31 z"
     id="path17"
     inkscape:connector-curvature="0"
     style="fill:#4e4e4e" /><path
     d="m 21.926976,77.091251 c -0.27,0 -0.49,-0.22 -0.49,-0.49 0,-0.27 0.22,-0.49 0.49,-0.49 1.192,0 2.162,-0.97 2.162,-2.162 0,-1.192 -0.97,-2.162 -2.162,-2.162 -1.192,0 -2.162,0.97 -2.162,2.162 0,0.297 0.059,0.585 0.177,0.855 0.107,0.248 -0.007,0.537 -0.255,0.643 -0.246,0.107 -0.536,-0.007 -0.643,-0.255 -0.17,-0.394 -0.257,-0.812 -0.257,-1.244 0,-1.733 1.41,-3.142 3.142,-3.142 1.733,0 3.142,1.41 3.142,3.142 -0.003,1.733 -1.412,3.143 -3.144,3.143 z"
     id="path19"
     inkscape:connector-curvature="0"
     style="fill:#4e4e4e" /><path
     d="m 21.926976,76.259251 c -1.274,0 -2.311,-1.037 -2.311,-2.311 0,-1.274 1.036,-2.311 2.311,-2.311 0.27,0 0.49,0.22 0.49,0.49 0,0.27 -0.22,0.49 -0.49,0.49 -0.734,0 -1.331,0.597 -1.331,1.331 0,0.734 0.597,1.331 1.331,1.331 0.734,0 1.332,-0.597 1.332,-1.331 0,-0.27 0.22,-0.49 0.49,-0.49 0.27,0 0.49,0.22 0.49,0.49 -0.001,1.274 -1.038,2.311 -2.312,2.311 z"
     id="path21"
     inkscape:connector-curvature="0"
     style="fill:#4e4e4e" /><path
     d="m 22.963976,78.223251 c -0.228,0 -0.432,-0.16 -0.479,-0.393 -0.053,-0.265 0.118,-0.523 0.383,-0.576 0.098,-0.021 2.409,-0.537 2.306,-3.051 -0.109,-2.625 -1.995,-3.558 -2.075,-3.597 -0.243,-0.116 -0.348,-0.407 -0.233,-0.652 0.116,-0.244 0.407,-0.349 0.648,-0.236 0.102,0.047 2.504,1.203 2.638,4.443 0.11,2.686 -1.972,3.824 -3.088,4.051 -0.035,0.008 -0.067,0.011 -0.1,0.011 z"
     id="path23"
     inkscape:connector-curvature="0"
     style="fill:#4e4e4e" /><path
     d="m 25.333976,79.219251 c -0.467,0 -0.995,-0.059 -1.643,-0.237 l -0.927,-0.251 c -2.687,-0.725 -8.978,-2.419 -12.054,-3.6 l -0.646,-0.247 c -3.0069996,-1.15 -3.8149996,-1.46 -4.8489996,-2.618 -1.155,-1.294 -0.46,-4.519 -0.378,-4.883 0.06,-0.264 0.322,-0.428 0.586,-0.368 0.263,0.06 0.428,0.322 0.369,0.586 -0.269,1.184 -0.465,3.32 0.153,4.013 0.875,0.98 1.565,1.244 4.4679996,2.355 l 0.647,0.248 c 3.029,1.161 9.287,2.849 11.959,3.568 l 0.932,0.252 c 1.11,0.305 1.8,0.2 2.528,0.09 0.279,-0.042 0.557,-0.084 0.855,-0.106 1.101,-0.081 1.497,0.027 1.617,0.079 0.248,0.106 0.363,0.394 0.257,0.643 -0.107,0.248 -0.395,0.363 -0.643,0.257 0.016,0.002 -0.115,-0.03 -0.497,-0.03 -0.168,0 -0.385,0.007 -0.66,0.027 -0.273,0.02 -0.527,0.059 -0.781,0.098 -0.405,0.061 -0.816,0.124 -1.293,0.124 z"
     id="path25"
     inkscape:connector-curvature="0"
     style="fill:#4e4e4e" /><path
     d="m 59.457976,83.365251 -7.357,0 c -3.363,0 -7.475,-0.265 -12.462,-2.238 -5.317,-2.102 -9.536,-5.054 -10.42,-6.291 -0.858,-1.202 -1.513,-3.669 -1.54,-3.773 -0.069,-0.262 0.088,-0.53 0.349,-0.597 0.262,-0.07 0.528,0.088 0.599,0.349 0.006,0.023 0.637,2.398 1.39,3.453 0.716,1.002 4.664,3.847 9.983,5.95 5.488,2.169 9.956,2.169 12.103,2.169 l 7.357,0 c 0.27,0 0.49,0.22 0.49,0.49 -0.004,0.268 -0.222,0.488 -0.492,0.488 z"
     id="path27"
     inkscape:connector-curvature="0"
     style="fill:#4e4e4e" /><path
     d="m 55.675976,82.019251 c -0.748,0 -3.413,-0.032 -8.307,-0.411 -5.927,-0.459 -8.739,-2.499 -11.22,-4.3 -2.549,-1.85 -4.733,-5.481 -4.825,-5.634 -0.139,-0.232 -0.063,-0.532 0.169,-0.671 0.235,-0.139 0.532,-0.063 0.671,0.169 0.022,0.036 2.176,3.614 4.552,5.339 2.499,1.814 5.077,3.684 10.727,4.122 5.706,0.442 8.414,0.406 8.442,0.406 l 3.803,0 c 0.27,0 0.49,0.22 0.49,0.49 0,0.27 -0.22,0.49 -0.49,0.49 l -3.795,0 c -0.014,-10e-4 -0.086,0 -0.217,0 z"
     id="path29"
     inkscape:connector-curvature="0"
     style="fill:#4e4e4e" /><path
     d="m 59.689976,87.895251 c -0.004,0 -0.007,0 -0.012,0 -0.051,-0.001 -5.112,-0.13 -11.745,-0.75 -6.597,-0.617 -7.788,-0.795 -11.192,-3.476 -3.241,-2.552 -8.665,-7.487 -8.719,-7.536 -0.189,-0.173 -0.214,-0.46 -0.057,-0.663 0.157,-0.201 0.442,-0.249 0.657,-0.109 0.054,0.036 5.537,3.652 9.351,5.739 4.315,2.361 8.71,2.714 10.946,2.714 l 10.773,0 c 0.27,0 0.49,0.22 0.49,0.49 0,0.27 -0.22,0.49 -0.49,0.49 l -10.775,0 c -2.329,0 -6.909,-0.368 -11.416,-2.834 -1.321,-0.723 -2.838,-1.626 -4.262,-2.502 1.413,1.228 2.912,2.499 4.106,3.441 3.168,2.494 4.006,2.648 10.679,3.271 6.597,0.617 11.628,0.745 11.679,0.745 0.27,0.006 0.484,0.231 0.478,0.501 -0.008,0.267 -0.226,0.479 -0.491,0.479 z"
     id="path31"
     inkscape:connector-curvature="0"
     style="fill:#4e4e4e" /><path
     d="m 54.465976,79.218251 -2.081,0 c -0.118,0 -0.232,-0.042 -0.32,-0.12 l -0.964,-0.834 -2.368,0 c -0.109,0 -0.215,-0.036 -0.3,-0.102 l -0.99,-0.765 -2.444,0 c -0.117,0 -0.228,-0.042 -0.317,-0.117 l -1.196,-1.021 -1.996,0 c -0.126,0 -0.246,-0.048 -0.337,-0.135 l -1.714,-1.627 c -0.196,-0.186 -0.204,-0.496 -0.017,-0.692 0.186,-0.197 0.496,-0.205 0.692,-0.019 l 1.571,1.492 1.981,0 c 0.117,0 0.228,0.042 0.317,0.117 l 1.196,1.021 2.432,0 c 0.109,0 0.215,0.036 0.3,0.102 l 0.989,0.765 2.383,0 c 0.118,0 0.232,0.042 0.32,0.12 l 0.964,0.834 1.898,0 c 0.27,0 0.49,0.22 0.49,0.49 0,0.27 -0.219,0.491 -0.489,0.491 z"
     id="path33"
     inkscape:connector-curvature="0"
     style="fill:#4e4e4e" /><path
     d="m 59.566976,101.23825 -19.369,0 c -6.855,0 -11.453,-0.485 -14.81,-0.841 -0.95,-0.1 -1.787,-0.189 -2.531,-0.249 l -0.873,-0.073 c -2.606,-0.217999 -3.114,-0.248999 -3.71,0.049 -0.765,0.383 -1.165,0.358 -2.657,0.267 -0.378,-0.023 -0.834,-0.051 -1.395,-0.079 -2.56,-0.128 -5.9219996,-0.372999 -7.4039996,-0.807999 -1.524,-0.448 -1.297,-2.134 -1.098,-3.623 0.046,-0.338 0.091,-0.684 0.122,-1.026 0.249,-2.781 1.047,-4.541 2.438,-5.381 1.537,-0.927 2.6849996,-0.774 4.1369996,-0.581 0.194,0.026 0.396,0.053 0.608,0.079 0.311,0.037 7.704,0.938 15.126,2.262 4.668,0.833 7.968,2.087 9.05,2.903 l 4.126,0 c 0.27,0 0.49,0.22 0.49,0.49 0,0.27 -0.22,0.49 -0.49,0.49 l -4.23,0 c -0.148,0 -0.28,-0.065 -0.37,-0.169 -0.434,-0.337 -3.123,-1.745 -8.747,-2.75 -7.395,-1.319 -14.761,-2.216 -15.07,-2.254 -0.217,-0.026 -0.423,-0.054 -0.621,-0.08 -1.41,-0.188 -2.259,-0.301 -3.5019996,0.448 -1.106,0.668 -1.749,2.182 -1.969,4.63 -0.032,0.357 -0.08,0.717 -0.127,1.069 -0.214,1.592 -0.243,2.362 0.405,2.552 1.085,0.32 3.6319996,0.592 7.1759996,0.77 0.565,0.028 1.024,0.057 1.406,0.08 1.468,0.09 1.648,0.091 2.16,-0.165 0.862,-0.431 1.576,-0.37 4.23,-0.149 l 0.871,0.073 c 0.75,0.062 1.595,0.151 2.555,0.252 3.335,0.352 7.903,0.833999 14.706,0.833999 l 19.368,0 c 0.27,0 0.49,0.22 0.49,0.49 -10e-4,0.271 -0.22,0.49 -0.491,0.49 z"
     id="path35"
     inkscape:connector-curvature="0"
     style="fill:#4e4e4e" /><path
     d="m 6.2149764,98.872251 c -0.159,0 -0.315,-0.077 -0.41,-0.217 -0.36,-0.533 -0.13,-1.363 0.19,-2.509 l 0.08,-0.288 c 0.063,-0.231 0.121,-0.497 0.183,-0.786 0.232,-1.071 0.548,-2.538 1.498,-3.835 1.403,-1.916 3.2389996,-1.633 5.7789996,-1.242 0.375,0.058 0.77,0.118 1.185,0.175 3.046,0.421 9.949,1.556 15.716,2.588 5.732,1.024 7.785,3.272 7.87,3.367 0.18,0.202 0.162,0.511 -0.041,0.691 -0.2,0.179 -0.509,0.162 -0.689,-0.039 l 0,0 c -0.02,-0.021 -1.955,-2.098 -7.312,-3.055 -5.757,-1.028 -12.643,-2.162 -15.678,-2.581 -0.421,-0.058 -0.821,-0.12 -1.2,-0.178 -2.627,-0.404 -3.8309996,-0.525 -4.8399996,0.853 -0.827,1.128 -1.107,2.423 -1.332,3.462 -0.067,0.309 -0.128,0.592 -0.196,0.839 l -0.081,0.291 c -0.167,0.596 -0.417,1.496 -0.32,1.703 0.152,0.223 0.091,0.526 -0.132,0.678 -0.081,0.056 -0.176,0.083 -0.27,0.083 z"
     id="path37"
     inkscape:connector-curvature="0"
     style="fill:#4e4e4e" /><path
     d="m 8.0699764,98.462251 c -0.098,0 -0.195,-0.028 -0.281,-0.089 -0.221,-0.156 -0.274,-0.459 -0.12,-0.68 l 0,0 c 0.006,-0.009 0.608,-0.896 0.538,-2.058 -0.068,-1.147 0.049,-2.803 1.8589996,-3.952 1.374,-0.873 3.288,-0.995 5.538,-0.357 2.436,0.691 5.318,1.207 8.566,1.534 1.496,0.151 2.781,0.207 4.025,0.263 2.125,0.095 3.961,0.178 6.166,0.689 0.264,0.06 0.428,0.325 0.367,0.588 -0.06,0.264 -0.326,0.427 -0.588,0.367 -2.118,-0.491 -3.913,-0.571 -5.99,-0.664 -1.256,-0.056 -2.556,-0.114 -4.079,-0.268 -3.304,-0.332 -6.243,-0.86 -8.736,-1.566 -1.375,-0.39 -3.316,-0.665 -4.746,0.242 -1.0729996,0.681 -1.4929996,1.598 -1.4059996,3.066 0.09,1.513 -0.681,2.63 -0.715,2.677 -0.092,0.137 -0.244,0.208 -0.398,0.208 z"
     id="path39"
     inkscape:connector-curvature="0"
     style="fill:#4e4e4e" /><path
     d="m 14.980976,98.164251 c -4.754,0 -6.5999996,-2.291 -6.6749996,-2.388 -0.167,-0.214 -0.128,-0.521 0.084,-0.687 0.212,-0.167 0.518,-0.128 0.685,0.081 0.021,0.025 1.6699996,2.014 5.9059996,2.014 3.37,0 4.005,-1.091 4.24,-1.666 -0.318,-0.249 -0.863,-0.695 -1.576,-1.345 -0.88,-0.802 -4.083,-2.074 -6.792,-0.458 -0.231,0.138 -0.532,0.063 -0.671,-0.169 -0.138,-0.232 -0.063,-0.533 0.17,-0.671 3.087,-1.842 6.76,-0.511 7.952,0.575 1.107,1.008 1.8,1.51 1.806,1.514 0.106,0.078 0.178,0.194 0.197,0.323 0.02,0.13 -0.014,0.263 -0.093,0.368 -0.002,0.01 -0.017,0.053 -0.037,0.105 -0.431,1.119 -1.411,2.404 -5.196,2.404 z"
     id="path41"
     inkscape:connector-curvature="0"
     style="fill:#4e4e4e" /><path
     d="m 10.491976,94.781251 c -0.093,0 -0.186,-0.026 -0.27,-0.081 -0.2259996,-0.149 -0.2879996,-0.453 -0.138,-0.679 1.028,-1.553 3.557,-2.041 3.665,-2.062 0.262,-0.049 0.521,0.125 0.57,0.391 0.051,0.265 -0.125,0.522 -0.39,0.571 -0.022,0.005 -2.23,0.434 -3.029,1.64 -0.094,0.142 -0.25,0.22 -0.408,0.22 z"
     id="path43"
     inkscape:connector-curvature="0"
     style="fill:#4e4e4e" /><path
     d="m 15.987976,98.127251 c -4.787,0 -5.655,-2.48 -5.69,-2.586 -0.084,-0.257 0.056,-0.533 0.314,-0.618 0.255,-0.084 0.53,0.054 0.616,0.307 0.033,0.09 0.755,1.918 4.761,1.918 0.27,0 0.49,0.22 0.49,0.49 -10e-4,0.27 -0.221,0.489 -0.491,0.489 z"
     id="path45"
     inkscape:connector-curvature="0"
     style="fill:#4e4e4e" /><path
     d="m 59.566976,99.007251 -14.636,0 c -7.174,0 -10.568,-0.606 -14.26,-1.398 -1.892,-0.406 -3.081,-0.654 -4.083,-0.864 -1.08,-0.226 -1.942,-0.405 -3.226,-0.687 -2.791,-0.613 -2.987,-2.291 -2.993,-2.362 -0.016,-0.16 0.049,-0.32 0.174,-0.423 0.125,-0.104 0.293,-0.139 0.448,-0.095 0.014,0.004 1.356,0.38 3.672,0.627 0.573,0.06 1.145,0.104 1.703,0.146 1.813,0.137 3.524,0.265 4.666,0.968 1.224,0.753 3.41,1.356 6.154,1.7 2.552,0.32 19.248,0.349 19.416,0.351 l 3.481,0 c 0.27,0 0.49,0.22 0.49,0.49 0,0.27 -0.22,0.49 -0.49,0.49 l -3.482,0 c -0.69,-10e-4 -16.926,-0.031 -19.537,-0.358 -2.88,-0.36 -5.205,-1.012 -6.545,-1.837 -0.939,-0.578 -2.536,-0.699 -4.226,-0.826 -0.568,-0.043 -1.15,-0.086 -1.733,-0.149 -1.117,-0.118 -2.011,-0.265 -2.654,-0.39 0.33,0.263 0.849,0.534 1.669,0.715 1.281,0.281 2.14,0.46 3.217,0.685 1.003,0.21 2.195,0.458 4.088,0.864 3.634,0.78 6.976,1.376 14.055,1.376 l 14.634,0 c 0.27,0 0.49,0.22 0.49,0.49 -0.002,0.268 -0.221,0.487 -0.492,0.487 z"
     id="path47"
     inkscape:connector-curvature="0"
     style="fill:#4e4e4e" /><path
     d="m 59.322976,96.015251 -17.44,0 c -0.576,0 -1.045,-0.469 -1.045,-1.045 l 0,-7.009 c 0,-0.576 0.469,-1.044 1.045,-1.044 l 17.44,0 c 0.27,0 0.49,0.22 0.49,0.49 0,0.27 -0.22,0.49 -0.49,0.49 l -17.44,0 c -0.036,0 -0.065,0.03 -0.065,0.065 l 0,7.009 c 0,0.036 0.03,0.065 0.065,0.065 l 17.44,0 c 0.27,0 0.49,0.22 0.49,0.49 0,0.27 -0.22,0.489 -0.49,0.489 z"
     id="path49"
     inkscape:connector-curvature="0"
     style="fill:#4e4e4e" /><path
     d="m 58.870976,95.332251 -16.295,0 c -0.576,0 -1.045,-0.469 -1.045,-1.045 l 0,-6.026 c 0,-0.27 0.22,-0.49 0.49,-0.49 0.27,0 0.49,0.22 0.49,0.49 l 0,6.026 c 0,0.036 0.03,0.065 0.065,0.065 l 16.296,0 c 0.27,0 0.49,0.22 0.49,0.49 0,0.27 -0.22,0.49 -0.491,0.49 z"
     id="path51"
     inkscape:connector-curvature="0"
     style="fill:#4e4e4e" /><path
     d="m 59.566976,80.346251 -1.714,0 c -1.179,0 -2.116,-0.91 -2.334,-2.262 -0.014,-0.054 -0.476,-2.077 -0.547,-2.803 -0.056,-0.58 0.138,-1.148 0.547,-1.597 0.449,-0.495 1.119,-0.79 1.792,-0.79 l 2.38,0 c 0.27,0 0.49,0.22 0.49,0.49 0,0.27 -0.22,0.49 -0.49,0.49 l -2.38,0 c -0.401,0 -0.8,0.175 -1.066,0.469 -0.221,0.243 -0.326,0.543 -0.297,0.844 0.064,0.664 0.528,2.689 0.533,2.71 0.112,0.696 0.534,1.471 1.374,1.471 l 1.714,0 c 0.27,0 0.49,0.22 0.49,0.49 -0.002,0.268 -0.221,0.488 -0.492,0.488 z"
     id="path53"
     inkscape:connector-curvature="0"
     style="fill:#4e4e4e" /><path
     d="m 31.745976,68.973251 c -0.159,0 -0.316,-0.078 -0.41,-0.221 -3.36,-5.106 -6.669,-14.387 -6.807,-14.779 -0.09,-0.254 0.043,-0.534 0.297,-0.625 0.257,-0.09 0.534,0.043 0.626,0.297 0.033,0.095 3.409,9.562 6.703,14.568 0.148,0.226 0.085,0.53 -0.141,0.678 -0.082,0.056 -0.176,0.082 -0.268,0.082 z"
     id="path55"
     inkscape:connector-curvature="0"
     style="fill:#4e4e4e" /><path
     d="m 17.406976,54.390251 c -0.056,0 -0.111,-0.009 -0.167,-0.03 -0.929,-0.336 -1.556,-0.852 -1.867,-1.534 -0.286,-0.629 -0.279,-1.373 0.021,-2.148 0.411,-1.064 1.502,-3.892 4.296,-9.061 2.707,-5.007 6.25,-9.69 6.285,-9.737 0.163,-0.215 0.471,-0.258 0.686,-0.094 0.216,0.164 0.258,0.47 0.094,0.686 -0.035,0.046 -3.534,4.672 -6.203,9.611 -2.765,5.115 -3.84,7.901 -4.245,8.948 -0.141,0.367 -0.263,0.903 -0.043,1.389 0.197,0.433 0.638,0.775 1.31,1.018 0.254,0.091 0.386,0.373 0.294,0.627 -0.072,0.202 -0.261,0.325 -0.461,0.325 z"
     id="path57"
     inkscape:connector-curvature="0"
     style="fill:#4e4e4e" /><path
     d="m 33.699976,102.20225 c -3.202,0 -7.225,-0.069 -10.446,-0.314 -2.513,-0.19 -4.943,-0.238 -7.295,-0.285 -2.649,-0.053 -5.389,-0.107 -8.1809996,-0.369 -2.307,-0.216 -3.878,-0.859 -4.67,-1.910999 -0.646,-0.857 -0.518,-1.653 -0.502,-1.74 0.049,-0.265 0.306,-0.443 0.571,-0.391 0.263,0.049 0.437,0.301 0.392,0.565 -0.005,0.032 -0.062,0.49 0.342,1.006 0.433,0.554 1.472,1.263999 3.96,1.496999 2.7549996,0.258 5.3559996,0.31 8.1079996,0.364 2.364,0.047 4.809,0.095 7.349,0.288 0.217,0.016 0.437,0.032 0.66,0.047 -1.943,-0.217 -3.968,-0.476 -6.008,-0.789 -0.267,-0.041 -0.451,-0.289999 -0.41,-0.557999 0.041,-0.268 0.296,-0.448 0.558,-0.41 8.109,1.237999 15.986,1.653999 19.35,1.831999 1.958,0.104 1.958,0.104 1.954,0.592 -0.004,0.48 -0.483,0.497 -0.739,0.507 -0.865,0.035 -2.722,0.069 -4.993,0.069 z"
     id="path59"
     inkscape:connector-curvature="0"
     style="fill:#4e4e4e" /><path
     d="m 15.288976,117.22125 c -0.21,0 -0.406,-0.011 -0.581,-0.031 l -3.782,0.004 c -3.4329996,0 -5.4249996,-1.528 -6.0899996,-4.673 -0.673,-3.176 -1.107,-8.265 -1.126,-8.479 -0.023,-0.269 0.178,-0.506 0.447,-0.53 0.272,-0.017 0.507,0.176 0.53,0.447 0.005,0.052 0.448,5.243 1.107,8.358 0.563,2.659 2.195,3.897 5.1319996,3.897 l 3.836,0 c 0.207,0.02 3.782,0.368 4.585,-2.773 0.797,-3.119 1.017,-7.509 1.018,-7.554 0.014,-0.27 0.249,-0.471 0.512,-0.465 0.27,0.014 0.478,0.242 0.465,0.512 -0.009,0.184 -0.225,4.532 -1.048,7.75 -0.719,2.822 -3.326,3.537 -5.005,3.537 z"
     id="path61"
     inkscape:connector-curvature="0"
     style="fill:#4e4e4e" /><path
     d="m 32.814976,98.034251 c -0.017,0 -0.035,-10e-4 -0.052,-0.002 -0.036,-0.004 -3.682,-0.388 -7.98,-0.548 -2.506,-0.096 -3.994,0.269 -4.63,0.425 -0.379,0.093 -0.737,0.179 -0.941,-0.17 -0.204,-0.351 0.062,-0.631 0.255,-0.834 0.757,-0.797 2.457,-2.054 2.53,-2.108 0.218,-0.16 0.525,-0.114 0.684,0.104 0.16,0.217 0.114,0.525 -0.104,0.685 -0.011,0.007 -0.737,0.544 -1.432,1.119 0.857,-0.139 2.067,-0.257 3.673,-0.197 4.332,0.162 8.01,0.549 8.046,0.553 0.269,0.028 0.464,0.27 0.436,0.538 -0.025,0.249 -0.237,0.435 -0.485,0.435 z"
     id="path63"
     inkscape:connector-curvature="0"
     style="fill:#4e4e4e" /><path
     d="m 9.1729764,60.733251 c -0.174,0 -0.342,-0.093 -0.431,-0.257 -0.03,-0.056 -0.736,-1.369 -0.95,-2.701 -0.19,-1.176 -0.521,-1.902 -1.653,-2.128 -1.396,-0.279 -4.226,-0.665 -4.255,-0.669 -0.111,-0.015 -0.214,-0.067 -0.29,-0.149 0,0 -0.365,-0.39 -0.485,-0.548 -0.12599999,-0.167 -0.47399999,-0.736 -0.47399999,-0.736 -0.098,-0.158 -0.096,-0.357 0.001,-0.515 0.098,-0.157 0.278,-0.243 0.45999999,-0.228 l 6.651,0.61 c 0.622,0.095 1.949,0.117 2.2799996,-0.389 0.457,-0.701 0.525,-1.565 0.584,-2.328 0.011,-0.135 0.021,-0.265 0.032,-0.389 0.073,-0.762 -0.189,-1.824 -0.191,-1.834 -0.063,-0.252 0.081,-0.509 0.33,-0.586 0.252,-0.078 0.512,0.053 0.604,0.295 0.028,0.075 0.691,1.872 0.669,4.693 -0.002,0.269 -0.221,0.486 -0.49,0.486 -10e-4,0 -0.002,0 -0.004,0 -0.199,-10e-4 -0.37,-0.122 -0.446,-0.293 -0.075,0.167 -0.164,0.331 -0.268,0.491 -0.763,1.17 -2.9679996,0.864 -3.2189996,0.826 l -5.584,-0.511 c 0.049,0.054 0.101,0.111 0.144,0.159 0.646,0.089 2.901,0.407 4.142,0.655 1.78,0.355 2.225,1.682 2.428,2.931 0.189,1.169 0.838,2.378 0.844,2.391 0.128,0.238 0.041,0.536 -0.197,0.664 -0.074,0.042 -0.154,0.06 -0.232,0.06 z"
     id="path65"
     inkscape:connector-curvature="0"
     style="fill:#4e4e4e" /><path
     d="m 10.958976,57.522251 -2.8249996,0 c -0.27,0 -0.49,-0.22 -0.49,-0.49 0,-0.27 0.22,-0.49 0.49,-0.49 l 2.8249996,0 c 0.27,0 0.49,0.22 0.49,0.49 0,0.27 -0.219,0.49 -0.49,0.49 z"
     id="path67"
     inkscape:connector-curvature="0"
     style="fill:#4e4e4e" /><path
     d="m 6.8439764,56.491251 c -0.495,0 -1.211,-0.074 -2.233,-0.316 -2.295,-0.542 -2.94,-1.244 -3.047,-1.379 -0.167,-0.212 -0.13,-0.521 0.083,-0.687 0.21,-0.164 0.51,-0.131 0.679,0.07 0.028,0.03 0.579,0.585 2.512,1.043 1.928,0.455 2.535,0.233 2.541,0.232 0.239,-0.128 0.522,-0.032 0.649,0.206 0.128,0.238 0.026,0.542 -0.214,0.67 -0.098,0.054 -0.374,0.161 -0.97,0.161 z"
     id="path69"
     inkscape:connector-curvature="0"
     style="fill:#4e4e4e" /><path
     d="m 1.0519764,53.781251 c -0.19699999,0 -0.38399999,-0.121 -0.45799999,-0.316 -0.007,-0.019 -0.18,-0.479 -0.386,-1.369 -0.147,-0.632 -0.295,-1.458 -0.146,-2.255 0.165,-0.884 0.628,-1.535 1.59799999,-2.249 1.243,-0.916 4.004,-0.975 6.735,-0.955 l 0.573,0.002 c 1.7159996,0 2.3479996,1.069 2.4409996,1.633 0.044,0.267 -0.136,0.52 -0.402,0.564 -0.259,0.044 -0.513,-0.132 -0.563,-0.395 -0.019,-0.091 -0.214,-0.822 -1.4759996,-0.822 l -0.58,-0.002 c -1.766,-0.012 -5.063,-0.035 -6.148,0.764 -0.876,0.646 -1.115,1.107 -1.216,1.64 -0.11599999,0.618 0.012,1.314 0.137,1.853 0.19,0.817 0.347,1.239 0.349,1.244 0.095,0.253 -0.033,0.536 -0.285,0.631 -0.057,0.022 -0.115,0.032 -0.173,0.032 z"
     id="path71"
     inkscape:connector-curvature="0"
     style="fill:#4e4e4e" /><path
     d="m 4.9729764,52.978251 c -0.11,0 -0.204,-0.01 -0.26,-0.016 l -0.385,-0.038 c -1.527,-0.143 -3.214,-0.341 -3.93399999,-0.87 -0.217,-0.16 -0.264,-0.467 -0.104,-0.685 0.159,-0.217 0.465,-0.264 0.685,-0.104 0.55999999,0.413 2.65499999,0.61 3.44199999,0.684 0.163,0.015 0.3,0.028 0.402,0.039 0.057,0.006 0.104,0.009 0.141,0.01 -0.009,-0.033 -0.022,-0.073 -0.042,-0.122 -0.056,-0.144 -0.065,-0.17 -0.842,-0.342 -0.211,-0.047 -0.459,-0.101 -0.752,-0.174 -1.944,-0.48 -2.95599999,-0.969 -2.99799999,-0.989 -0.243,-0.118 -0.343,-0.411 -0.225,-0.654 0.118,-0.243 0.412,-0.343 0.654,-0.226 0.01,0.005 0.97299999,0.467 2.80399999,0.918 0.283,0.07 0.523,0.122 0.727,0.168 0.805,0.178 1.291,0.284 1.545,0.947 0.068,0.175 0.274,0.711 -0.038,1.115 -0.216,0.285 -0.564,0.339 -0.82,0.339 z"
     id="path73"
     inkscape:connector-curvature="0"
     style="fill:#4e4e4e" /><path
     d="m 7.0529764,51.152251 c -1.838,0 -4.517,-0.892 -5.513,-1.249 -0.254,-0.091 -0.388,-0.372 -0.296,-0.626 0.09,-0.254 0.37,-0.388 0.626,-0.296 2.536,0.907 5.578,1.538 6.065,1.033 0.985,-1.023 1.607,-1.995 1.613,-2.004 0.144,-0.228 0.447,-0.295 0.6759996,-0.151 0.228,0.146 0.296,0.447 0.151,0.675 -0.027,0.043 -0.6779996,1.06 -1.7339996,2.159 -0.318,0.331 -0.893,0.459 -1.588,0.459 z"
     id="path75"
     inkscape:connector-curvature="0"
     style="fill:#4e4e4e" /><path
     d="m 9.1049764,53.781251 c -0.035,0 -0.069,-0.004 -0.104,-0.011 -0.264,-0.057 -0.433,-0.317 -0.376,-0.581 l 0,0 c -10e-4,0 0.067,-0.447 -0.272,-1.224 -0.323,-0.745 -0.554,-0.958 -0.594,-0.991 -0.216,-0.115 -0.317,-0.376 -0.226,-0.61 0.099,-0.252 0.384,-0.376 0.633,-0.279 0.197,0.077 0.6,0.372 1.084,1.489 0.469,1.08 0.346,1.748 0.331,1.821 -0.047,0.229 -0.251,0.386 -0.476,0.386 z"
     id="path77"
     inkscape:connector-curvature="0"
     style="fill:#4e4e4e" /><path
     d="m 35.939976,30.603251 c -0.253,0 -0.467,-0.194 -0.488,-0.449 -0.022,-0.27 0.179,-0.506 0.448,-0.528 0.112,-0.009 11.303,-0.913 19.095,-0.913 l 6.285,0 c 0.272,0 0.49,0.22 0.49,0.49 0,0.27 -0.218,0.49 -0.49,0.49 l -6.285,0 c -7.752,0 -18.904,0.901 -19.016,0.91 -0.012,-0.001 -0.026,0 -0.039,0 z"
     id="path79"
     inkscape:connector-curvature="0"
     style="fill:#4e4e4e" /><path
     d="m 36.213976,31.269251 c -1.171,0 -1.795,-0.2 -2.033,-0.634 -0.168,-0.304 -0.081,-0.615 0.043,-0.789 0.157,-0.22 0.464,-0.272 0.684,-0.114 0.144,0.104 0.216,0.272 0.204,0.437 0.184,0.064 0.673,0.163 1.85,0.096 0.262,-0.017 0.501,0.19 0.517,0.46 0.015,0.27 -0.19,0.501 -0.46,0.517 -0.294,0.018 -0.562,0.027 -0.805,0.027 z"
     id="path81"
     inkscape:connector-curvature="0"
     style="fill:#4e4e4e" /><path
     d="m 35.301976,53.200251 c -0.183,0 -0.357,-0.102 -0.441,-0.278 -0.06,-0.125 -1.465,-3.084 -1.381,-6.187 0.081,-2.987 0.655,-4.62 3.568,-5.253 1.835,-0.399 7.923,-1.434 9.187,2.024 1.096,2.999 0.51,7.095 -0.726,9.036 -0.144,0.228 -0.447,0.296 -0.676,0.151 -0.228,-0.146 -0.296,-0.448 -0.151,-0.676 1.087,-1.709 1.614,-5.488 0.632,-8.175 -0.789,-2.158 -4.833,-2.106 -8.06,-1.403 -2.141,0.465 -2.717,1.354 -2.797,4.322 -0.078,2.86 1.271,5.709 1.284,5.737 0.117,0.244 0.014,0.536 -0.23,0.653 -0.066,0.033 -0.138,0.049 -0.209,0.049 z"
     id="path83"
     inkscape:connector-curvature="0"
     style="fill:#4e4e4e" /><path
     d="m 9.7419764,101.38825 c -1.485,0 -2.599,-0.392 -3.315,-1.166 -0.875,-0.946999 -0.796,-2.105999 -0.792,-2.153999 0.021,-0.27 0.239,-0.48 0.527,-0.449 0.268,0.021 0.469,0.254 0.451,0.523 -0.002,0.033 -0.043,0.802 0.544,1.427 0.525,0.557999 1.395,0.841999 2.587,0.841999 0.2699996,0 0.4899996,0.22 0.4899996,0.49 0,0.269 -0.221,0.487 -0.4919996,0.487 z"
     id="path85"
     inkscape:connector-curvature="0"
     style="fill:#4e4e4e" /><path
     d="m 18.556976,99.992251 c -0.184,0 -0.36,-0.105 -0.444,-0.283 -0.072,-0.156 -0.051,-0.37 0.044,-0.512 0.206,-0.309 0.684,-1.031 14.253,-0.447 7.819,0.337 10.23,0.062 10.965,-0.121 -0.023,-0.104 -0.015,-0.215 0.033,-0.316 0.117,-0.244 0.4,-0.354 0.643,-0.237 0.374,0.179 0.563,0.507 0.48,0.836 -0.132,0.527 -0.334,1.322999 -12.166,0.816 -10.983,-0.473 -13.073,-0.037 -13.436,0.088 -0.046,0.054 -0.102,0.099 -0.17,0.131 -0.062,0.03 -0.132,0.045 -0.202,0.045 z"
     id="path87"
     inkscape:connector-curvature="0"
     style="fill:#4e4e4e" /><path
     d="m 97.533976,106.40725 c -2.527,0 -4.816,-0.354 -7.339,-0.744 -2.441,-0.378 -4.967,-0.768 -8.123,-0.912 -7.935,-0.362 -23.204,-0.3 -23.357,-0.299 -10e-4,0 -10e-4,0 -0.002,0 -0.27,0 -0.489,-0.217 -0.49,-0.488 -0.001,-0.27 0.217,-0.49 0.488,-0.492 0.153,-0.001 15.446,-0.064 23.405,0.3 3.209,0.147 5.875,0.559 8.228,0.922 3.645,0.564 6.793,1.052 10.859004,0.469 2.67,-0.381 5.218,-0.409 7.266,-0.431 2.993,-0.032 5.357,-0.057 5.723,-1.158 0.72,-2.159 1.895,-13.904999 1.771,-17.701999 -0.03,-0.926 -0.043,-1.988 -0.057,-3.128 -0.042,-3.407 -0.093,-7.648 -0.67,-10.838 -0.797,-4.406 -1.874,-7.032 -3.716,-9.062 -0.678,-0.747 -1.102,-1.105 -1.443,-1.392 -0.734,-0.62 -1.106,-0.982 -2.218,-3.072 -0.658,-1.237 -0.903,-2.134 -1.216,-3.271 -0.522,-1.9 -1.237,-4.5 -4.458,-10.689 -2.650004,-5.09 -4.980004,-8.091 -6.786004,-9.894 3.104,3.887 6.516004,10.805 7.585004,13.181 0.222,0.495 0.452,0.95 0.665,1.373 0.85,1.69 1.585,3.15 0.296,4.438 -1.122,1.122 -4.471004,1.055 -8.725004,0.852 -0.753,-0.036 -1.461,-0.07 -2.077,-0.085 -3.441,-0.086 -26.371,-0.296 -33.986,-0.296 -0.27,0 -0.49,-0.22 -0.49,-0.49 0,-0.27 0.22,-0.49 0.49,-0.49 7.619,0 30.565,0.21 34.009,0.296 0.622,0.016 1.338,0.051 2.101,0.086 2.82,0.136 7.080004,0.339 7.986004,-0.565 0.757,-0.757 0.4,-1.56 -0.478,-3.305 -0.218,-0.434 -0.454,-0.903 -0.683,-1.411 -1.071,-2.382 -4.527004,-9.388 -7.604004,-13.152 -2.804,-3.433 -4.458,-3.255 -4.477,-3.255 -0.222,0.033 -0.458,-0.102 -0.534,-0.322 -0.078,-0.22 0.002,-0.462 0.202,-0.581 0.107,-0.064 1.1,-0.607 2.685,0.232 1.352,0.715 5.462,2.891 10.692004,12.938 3.27,6.28 4,8.94 4.533,10.881 0.307,1.121 0.53,1.93 1.137,3.071 1.069,2.012 1.375,2.27 1.985,2.783 0.363,0.306 0.815,0.687 1.537,1.484 1.976,2.178 3.123,4.943 3.955,9.546 0.591,3.272 0.644,7.557 0.685,11.001 0.014,1.132 0.027,2.187 0.057,3.108 0.118,3.649 -1.005,15.593999 -1.821,18.043999 -0.588,1.763 -3.128,1.79 -6.642,1.827 -2.124,0.022 -4.532,0.048 -7.138,0.421 -1.358004,0.192 -2.612004,0.271 -3.810004,0.271 z"
     id="path89"
     inkscape:connector-curvature="0"
     style="fill:#4e4e4e" /><path
     d="m 90.945976,33.722251 c -0.796,0 -2.028,-0.099 -3.966,-0.252 -1.344,-0.107 -2.997,-0.238 -5,-0.375 -8.294,-0.564 -22.314,-0.57 -22.455,-0.57 -0.27,0 -0.49,-0.22 -0.49,-0.49 0,-0.27 0.22,-0.49 0.49,-0.49 0.141,0 14.195,0.006 22.522,0.573 2.008,0.137 3.665,0.268 5.012,0.375 1.985,0.158 3.524,0.279 4.22,0.246 -0.932,-1.059 -1.981,-1.376 -3.897,-1.775 -1.422,-0.295 -3.237,-0.349 -4.094,-0.358 -0.012,0.028 -0.026,0.057 -0.042,0.085 -0.264,0.47 -0.958,0.632 -2.253,0.526 -2.801,-0.231 -13.834,-0.659 -19.342,-0.659 l -3.03,0 c -0.27,0 -0.49,-0.22 -0.49,-0.49 0,-0.27 0.22,-0.49 0.49,-0.49 l 3.03,0 c 5.528,0 16.608,0.431 19.422,0.662 0.722,0.059 1.074,0.012 1.234,-0.028 -0.021,-0.105 -0.007,-0.215 0.042,-0.314 0.081,-0.164 0.247,-0.268 0.43,-0.272 0.114,-0.001 2.773,-0.043 4.801,0.378 2,0.416 3.4,0.801 4.606,2.293 0.284,0.351 0.353,0.671 0.204,0.954 -0.176,0.338 -0.512,0.471 -1.444,0.471 z"
     id="path91"
     inkscape:connector-curvature="0"
     style="fill:#4e4e4e" /><path
     d="m 98.673976,53.595251 c -0.478,0 -1.015,-0.042 -1.605,-0.088 -0.649,-0.051 -1.387,-0.109 -2.217,-0.131 -0.734,-0.019 -2.018,-0.036 -3.621,-0.057 -5.107,-0.068 -13.655,-0.181 -17.751,-0.557 -5.268,-0.483 -13.715,-0.69 -13.8,-0.691 l -0.293,0 c -0.27,0 -0.49,-0.22 -0.49,-0.49 0,-0.27 0.22,-0.49 0.49,-0.49 l 0.304,0 c 0.098,0.002 8.577,0.21 13.878,0.696 4.058,0.372 12.583,0.485 17.675,0.553 1.608,0.021 2.898,0.038 3.634,0.058 0.855,0.022 1.606,0.081 2.267,0.132 1.721,0.133 2.562,0.175 2.896004,-0.353 0.567,-0.9 -0.328004,-2.855 -1.459004,-5.33 -1.292,-2.826 -5.123,-9.859 -6.116,-10.929 -0.964,-1.038 -1.219,-1.238 -3.542,-1.354 -0.957,-0.048 -2.992,-0.196 -5.348,-0.369 -3.653,-0.267 -7.796,-0.569 -8.951,-0.569 l -0.262,0 c -1.808,-0.001 -2.562,0.022 -3.191,0.637 -0.157,0.152 -0.286,0.296 -0.407,0.428 -0.537,0.59 -1.002,1.098 -2.465,1.098 -0.8,0 -2.37,-0.053 -3.889,-0.105 -1.485,-0.051 -2.888,-0.099 -3.579,-0.099 l -2.685,0 c -0.27,0 -0.49,-0.22 -0.49,-0.49 0,-0.27 0.22,-0.49 0.49,-0.49 l 2.685,0 c 0.707,0 2.119,0.048 3.613,0.099 1.511,0.052 3.072,0.105 3.855,0.105 1.031,0 1.254,-0.244 1.742,-0.779 0.132,-0.144 0.275,-0.302 0.447,-0.469 0.941,-0.917 2.032,-0.917 3.877,-0.915 l 0.26,0 c 1.191,0 5.352,0.304 9.021,0.571 2.253,0.164 4.38,0.32 5.325,0.368 2.554,0.127 3.045,0.41 4.211,1.666 1.152,1.24 5.038,8.454 6.289,11.187 1.353004,2.957 2.245004,4.912 1.397004,6.259 -0.446,0.716 -1.194004,0.898 -2.195004,0.898 z"
     id="path93"
     inkscape:connector-curvature="0"
     style="fill:#4e4e4e" /><path
     d="m 103.29398,69.373251 c -0.022,0 -0.043,-10e-4 -0.065,-0.004 -0.268,-0.036 -0.457,-0.283 -0.421,-0.55 0.009,-0.069 0.911,-6.906 0.791,-11.062 -0.069,-2.409 -0.567,-3.193 -0.858,-3.446 -0.853,1.677 -4.371004,8.371 -8.634004,13.249 -0.178,0.204 -0.489,0.225 -0.69,0.046 -0.204,-0.178 -0.225,-0.488 -0.047,-0.691 4.8,-5.491 8.649004,-13.346 8.687004,-13.425 0.072,-0.147 0.212,-0.248 0.373,-0.27 0.078,-0.011 0.488,-0.046 0.933,0.331 0.744,0.629 1.153,2.035 1.216,4.179 0.122,4.235 -0.763,10.936 -0.8,11.218 -0.033,0.246 -0.243,0.425 -0.485,0.425 z"
     id="path95"
     inkscape:connector-curvature="0"
     style="fill:#4e4e4e" /><path
     d="m 61.119976,72.188251 -2.408,0 c -0.27,0 -0.49,-0.22 -0.49,-0.49 0,-0.27 0.22,-0.49 0.49,-0.49 l 24.647,0 c 0.023,0 3.041,-0.052 7.998,-0.891 1.932,-0.327 3.999,-0.643 5.999,-0.948 3.203004,-0.489 6.228004,-0.95 8.010004,-1.36 l 0.391,-0.09 c 2.304,-0.528 5.378,-1.234 6.516,-1.883 -0.225,-0.36 -0.706,-0.97 -1.618,-1.507 -1.727,-1.018 -2.192,-1.484 -2.796,-3.723 -0.457,-1.696 -0.764,-3.246 -1.091,-4.886 l -0.267,-1.327 c -0.053,-0.265 0.117,-0.523 0.383,-0.578 0.26,-0.052 0.523,0.117 0.578,0.381 l 0.267,1.331 c 0.323,1.624 0.628,3.159 1.076,4.824 0.541,2.009 0.871,2.264 2.346,3.133 1.724,1.017 2.192,2.285 2.212,2.338 0.067,0.185 0.015,0.391 -0.128,0.525 -0.886,0.816 -3.567,1.479 -7.259,2.325 l -0.39,0.09 c -1.817,0.417 -4.861,0.881 -8.082004,1.374 -1.996,0.305 -4.061,0.62 -5.984,0.945 -5.038,0.853 -8.03,0.903 -8.155,0.905 l -22.245,0 0,0.002 z"
     id="path97"
     inkscape:connector-curvature="0"
     style="fill:#4e4e4e" /><path
     d="m 78.454976,85.852251 c -0.217,0 -0.416,-0.147 -0.474,-0.368 -0.068,-0.262 0.09,-0.528 0.352,-0.596 2.91,-0.752 6.726,-1.108 10.764,-1.485 2.926,-0.273 5.953,-0.555 9.045,-1.008 1.153,-0.169 2.288004,-0.32 3.389004,-0.467 5.77,-0.768 10.755,-1.431 11.692,-3.953 0.657,-1.766 0.749,-3.492 0.704,-4.668 -0.774,0.758 -2.025,1.258 -3.552,1.869 -0.318,0.127 -0.652,0.26 -0.997,0.402 -1.805,0.743 -4.353,1.439 -6.601,2.053 -1.273,0.348 -2.475,0.675 -3.434004,0.981 -2.443,0.778 -5.692,1.644 -7.293,1.363 -1.326,-0.235 -3.15,-0.197 -3.168,-0.196 -0.185,-0.007 -0.334,-0.084 -0.426,-0.231 -0.091,-0.147 -0.1,-0.331 -0.02,-0.484 0.006,-0.012 0.658,-1.276 1.38,-2.801 0.718,-1.517 1.812,-4.33 1.822,-4.358 0.099,-0.253 0.38,-0.378 0.633,-0.279 0.252,0.098 0.376,0.381 0.279,0.633 -0.046,0.116 -1.117,2.875 -1.85,4.424 -0.396,0.837 -0.773,1.597 -1.033,2.118 0.69,0.014 1.702,0.059 2.552,0.21 1.086,0.193 3.57,-0.295 6.826,-1.331 0.979004,-0.311 2.190004,-0.642 3.473004,-0.992 2.222,-0.606 4.738,-1.294 6.487,-2.013 0.348,-0.143 0.684,-0.278 1.007,-0.407 2.334,-0.933 3.561,-1.475 3.756,-2.649 0.039,-0.232 0.238,-0.404 0.473,-0.409 0.225,-0.007 0.441,0.159 0.49,0.389 0.028,0.133 0.675,3.32 -0.588,6.718 -1.143,3.075 -6.147,3.74 -12.481,4.583 -1.095,0.146 -2.227004,0.296 -3.376004,0.465 -3.117,0.457 -6.155,0.741 -9.094,1.015 -3.999,0.373 -7.776,0.726 -10.611,1.458 -0.043,0.009 -0.085,0.014 -0.126,0.014 z"
     id="path99"
     inkscape:connector-curvature="0"
     style="fill:#4e4e4e" /><path
     d="m 104.53798,75.322251 c -1.733,0 -3.142,-1.41 -3.142,-3.142 0,-1.733 1.41,-3.142 3.142,-3.142 1.733,0 3.142,1.41 3.142,3.142 0,0.432 -0.086,0.85 -0.257,1.244 -0.107,0.248 -0.397,0.362 -0.643,0.255 -0.248,-0.107 -0.363,-0.395 -0.256,-0.643 0.117,-0.27 0.177,-0.559 0.177,-0.855 0,-1.192 -0.97,-2.162 -2.162,-2.162 -1.192,0 -2.162,0.97 -2.162,2.162 0,1.192 0.97,2.162 2.162,2.162 0.27,0 0.49,0.22 0.49,0.49 0,0.271 -0.221,0.489 -0.491,0.489 z"
     id="path101"
     inkscape:connector-curvature="0"
     style="fill:#4e4e4e" /><path
     d="m 104.53798,74.490251 c -1.274,0 -2.311,-1.037 -2.311,-2.311 0,-0.27 0.22,-0.49 0.49,-0.49 0.27,0 0.49,0.22 0.49,0.49 0,0.734 0.597,1.331 1.332,1.331 0.734,0 1.331,-0.597 1.331,-1.331 0,-0.733 -0.597,-1.331 -1.331,-1.331 -0.27,0 -0.49,-0.22 -0.49,-0.49 0,-0.27 0.22,-0.49 0.49,-0.49 1.274,0 2.311,1.037 2.311,2.311 -0.003,1.275 -1.038,2.311 -2.312,2.311 z"
     id="path103"
     inkscape:connector-curvature="0"
     style="fill:#4e4e4e" /><path
     d="m 96.802976,77.096251 c -1.733,0 -3.142,-1.41 -3.142,-3.142 0,-1.733 1.41,-3.142 3.142,-3.142 1.732,0 3.142,1.41 3.142,3.142 0,0.432 -0.086,0.85 -0.257,1.244 -0.107,0.248 -0.397,0.363 -0.643,0.255 -0.248,-0.107 -0.363,-0.395 -0.255,-0.643 0.117,-0.27 0.176,-0.559 0.176,-0.855 0,-1.192 -0.97,-2.162 -2.162,-2.162 -1.192,0 -2.162,0.97 -2.162,2.162 0,1.192 0.97,2.162 2.162,2.162 0.27,0 0.49,0.22 0.49,0.49 0,0.27 -0.221,0.489 -0.491,0.489 z"
     id="path105"
     inkscape:connector-curvature="0"
     style="fill:#4e4e4e" /><path
     d="m 96.802976,76.264251 c -1.274,0 -2.311,-1.037 -2.311,-2.311 0,-0.27 0.22,-0.49 0.49,-0.49 0.27,0 0.49,0.22 0.49,0.49 0,0.734 0.597,1.332 1.332,1.332 0.735,0 1.331,-0.597 1.331,-1.332 0,-0.734 -0.597,-1.331 -1.331,-1.331 -0.27,0 -0.49,-0.22 -0.49,-0.49 0,-0.27 0.22,-0.49 0.49,-0.49 1.274,0 2.311,1.037 2.311,2.311 -0.003,1.274 -1.038,2.311 -2.312,2.311 z"
     id="path107"
     inkscape:connector-curvature="0"
     style="fill:#4e4e4e" /><path
     d="m 95.764976,78.228251 c -0.032,0 -0.065,-0.004 -0.099,-0.01 -1.117,-0.226 -3.199,-1.364 -3.088,-4.051 0.132,-3.239 2.534,-4.396 2.636,-4.443 0.244,-0.115 0.536,-0.009 0.65,0.237 0.114,0.244 0.009,0.534 -0.235,0.649 l 0,0 c -0.08,0.038 -1.966,0.97 -2.075,3.597 -0.104,2.513 2.208,3.03 2.307,3.051 0.264,0.056 0.434,0.315 0.38,0.579 -0.045,0.232 -0.249,0.391 -0.476,0.391 z"
     id="path109"
     inkscape:connector-curvature="0"
     style="fill:#4e4e4e" /><path
     d="m 93.394976,79.224251 c -0.478,0 -0.889,-0.063 -1.292,-0.123 -0.254,-0.038 -0.509,-0.078 -0.781,-0.098 -0.9,-0.068 -1.177,0.011 -1.189,0.015 -0.246,0.105 -0.521,-0.014 -0.627,-0.263 -0.106,-0.248 0.025,-0.542 0.273,-0.649 0.118,-0.052 0.515,-0.16 1.617,-0.079 0.299,0.022 0.576,0.064 0.855,0.106 0.728,0.11 1.419,0.216 2.528,-0.09 l 0.932,-0.252 c 2.672,-0.72 8.930004,-2.407 11.959004,-3.568 l 0.647,-0.248 c 2.903,-1.111 3.593,-1.375 4.468,-2.355 0.621,-0.695 0.425,-2.83 0.153,-4.013 -0.06,-0.264 0.105,-0.526 0.369,-0.586 0.265,-0.06 0.527,0.104 0.586,0.368 0.083,0.364 0.778,3.589 -0.378,4.883 -1.033,1.158 -1.842,1.466 -4.849,2.618 l -0.646,0.247 c -3.076,1.18 -9.367004,2.876 -12.054004,3.6 l -0.927,0.251 c -0.648,0.175 -1.177,0.236 -1.644,0.236 z"
     id="path111"
     inkscape:connector-curvature="0"
     style="fill:#4e4e4e" /><path
     d="m 66.629976,83.370251 -7.357,0 c -0.27,0 -0.49,-0.22 -0.49,-0.49 0,-0.27 0.22,-0.49 0.49,-0.49 l 7.357,0 c 2.148,0 6.616,0 12.103,-2.169 5.318,-2.103 9.267,-4.948 9.983,-5.95 0.755,-1.057 1.384,-3.429 1.39,-3.452 0.069,-0.262 0.341,-0.417 0.599,-0.349 0.262,0.069 0.418,0.337 0.349,0.599 -0.027,0.105 -0.683,2.571 -1.54,3.773 -0.884,1.237 -5.102,4.189 -10.42,6.291 -4.991,1.971 -9.101,2.237 -12.464,2.237 z"
     id="path113"
     inkscape:connector-curvature="0"
     style="fill:#4e4e4e" /><path
     d="m 63.049976,82.024251 c -0.132,0 -0.206,-0.001 -0.223,-0.001 l -3.787,0 c -0.27,0 -0.49,-0.22 -0.49,-0.49 0,-0.27 0.22,-0.49 0.49,-0.49 l 3.795,0 c 0.032,0 2.757,0.035 8.45,-0.406 5.65,-0.438 8.226,-2.308 10.718,-4.116 2.385,-1.73 4.538,-5.309 4.561,-5.344 0.139,-0.232 0.437,-0.307 0.671,-0.169 0.232,0.138 0.309,0.439 0.169,0.671 -0.091,0.154 -2.276,3.786 -4.817,5.63 -2.488,1.806 -5.3,3.847 -11.227,4.306 -4.892,0.377 -7.555,0.409 -8.31,0.409 z"
     id="path115"
     inkscape:connector-curvature="0"
     style="fill:#4e4e4e" /><path
     d="m 59.038976,87.899251 c -0.265,0 -0.484,-0.211 -0.49,-0.478 -0.006,-0.27 0.207,-0.495 0.478,-0.501 0.051,-10e-4 5.081,-0.13 11.679,-0.745 6.671,-0.623 7.511,-0.776 10.679,-3.271 1.196,-0.942 2.694,-2.213 4.106,-3.441 -1.426,0.876 -2.941,1.779 -4.262,2.502 -4.508,2.466 -9.087,2.834 -11.416,2.834 l -10.773,0 c -0.27,0 -0.49,-0.22 -0.49,-0.49 0,-0.27 0.22,-0.49 0.49,-0.49 l 10.773,0 c 2.235,0 6.631,-0.353 10.946,-2.714 3.815,-2.087 9.297,-5.702 9.351,-5.739 0.215,-0.141 0.499,-0.094 0.657,0.109 0.157,0.201 0.132,0.49 -0.057,0.663 -0.054,0.049 -5.478,4.984 -8.719,7.536 -3.404,2.681 -4.595,2.86 -11.192,3.476 -6.633,0.62 -11.695,0.749 -11.745,0.75 -0.007,-10e-4 -0.011,-10e-4 -0.015,-10e-4 z"
     id="path117"
     inkscape:connector-curvature="0"
     style="fill:#4e4e4e" /><path
     d="m 66.343976,79.223251 -2.081,0 c -0.27,0 -0.49,-0.22 -0.49,-0.49 0,-0.27 0.22,-0.49 0.49,-0.49 l 1.898,0 0.964,-0.834 c 0.089,-0.078 0.202,-0.12 0.321,-0.12 l 2.383,0 0.989,-0.765 c 0.085,-0.067 0.191,-0.102 0.3,-0.102 l 2.432,0 1.196,-1.02 c 0.089,-0.075 0.201,-0.117 0.317,-0.117 l 1.981,0 1.571,-1.492 c 0.196,-0.186 0.506,-0.179 0.692,0.019 0.186,0.196 0.178,0.506 -0.017,0.692 l -1.714,1.627 c -0.091,0.086 -0.212,0.135 -0.337,0.135 l -1.996,0 -1.196,1.02 c -0.089,0.075 -0.201,0.117 -0.317,0.117 l -2.444,0 -0.99,0.765 c -0.085,0.067 -0.191,0.102 -0.3,0.102 l -2.369,0 -0.964,0.834 c -0.087,0.077 -0.201,0.119 -0.319,0.119 z"
     id="path119"
     inkscape:connector-curvature="0"
     style="fill:#4e4e4e" /><path
     d="m 78.530976,101.24225 -19.124,0 c -0.27,0 -0.49,-0.22 -0.49,-0.49 0,-0.27 0.22,-0.49 0.49,-0.49 l 19.125,0 c 6.803,0 11.371,-0.482999 14.706,-0.833999 0.959,-0.101 1.805,-0.19 2.555,-0.252 l 0.876,-0.073 c 2.65,-0.221 3.362004,-0.28 4.224004,0.149 0.515,0.257 0.694,0.256 2.162,0.165 0.38,-0.023 0.839,-0.052 1.403,-0.08 3.544,-0.178 6.091,-0.451 7.176,-0.77 0.647,-0.19 0.618,-0.96 0.405,-2.552 -0.047,-0.352 -0.095,-0.711 -0.127,-1.069 -0.22,-2.449 -0.863,-3.962 -1.969,-4.63 -1.242,-0.749 -2.092,-0.636 -3.503,-0.448 -0.197,0.026 -0.404,0.053 -0.621,0.08 -0.311,0.037 -7.701004,0.938 -15.070004,2.254 -5.626,1.003 -8.314,2.412 -8.747,2.749 -0.09,0.104 -0.222,0.169 -0.37,0.169 l -4.23,0 c -0.27,0 -0.49,-0.22 -0.49,-0.49 0,-0.27 0.22,-0.49 0.49,-0.49 l 4.126,0 c 1.082,-0.816 4.382,-2.07 9.05,-2.903 7.397,-1.321 14.812004,-2.224 15.126004,-2.262 0.212,-0.026 0.415,-0.053 0.608,-0.079 1.455,-0.194 2.602,-0.347 4.139,0.58 1.392,0.841 2.188,2.601 2.438,5.381 0.031,0.343 0.078,0.689 0.122,1.026 0.2,1.487 0.426,3.173 -1.099,3.623 -1.482,0.436 -4.845,0.679999 -7.404,0.807999 -0.559,0.028 -1.013,0.056 -1.392,0.079 -1.492,0.091 -1.895,0.116 -2.66,-0.267 -0.599004,-0.299999 -1.106004,-0.267999 -3.705004,-0.051 l -0.878,0.073 c -0.744,0.06 -1.581,0.149 -2.531,0.249 -3.357,0.36 -7.955,0.845 -14.811,0.845 z"
     id="path121"
     inkscape:connector-curvature="0"
     style="fill:#4e4e4e" /><path
     d="m 112.51798,98.875251 c -0.094,0 -0.19,-0.027 -0.274,-0.084 -0.223,-0.152 -0.283,-0.457 -0.131,-0.68 0.094,-0.201 -0.157,-1.102 -0.322,-1.698 l -0.08,-0.29 c -0.068,-0.247 -0.13,-0.531 -0.196,-0.839 -0.225,-1.039 -0.505,-2.334 -1.332,-3.462 -1.008,-1.377 -2.214,-1.258 -4.84,-0.853 -0.379,0.058 -0.779,0.12 -1.2,0.178 -3.033,0.418 -9.919004,1.551 -15.678004,2.581 -5.357,0.958 -7.293,3.035 -7.312,3.055 -0.179,0.2 -0.49,0.217 -0.69,0.036 -0.2,-0.18 -0.218,-0.488 -0.039,-0.689 0.085,-0.095 2.138,-2.343 7.87,-3.367 5.865,-1.048 12.623004,-2.161 15.716004,-2.587 0.416,-0.057 0.81,-0.118 1.184,-0.175 2.539,-0.391 4.377,-0.674 5.78,1.242 0.949,1.297 1.266,2.764 1.498,3.835 0.063,0.29 0.12,0.555 0.184,0.786 l 0.08,0.288 c 0.32,1.148 0.55,1.979 0.19,2.51 -0.097,0.137 -0.252,0.213 -0.408,0.213 z"
     id="path123"
     inkscape:connector-curvature="0"
     style="fill:#4e4e4e" /><path
     d="m 110.65798,98.467251 c -0.153,0 -0.305,-0.072 -0.4,-0.207 -0.033,-0.047 -0.805,-1.164 -0.715,-2.677 0.089,-1.468 -0.332,-2.385 -1.406,-3.066 -1.429,-0.907 -3.37,-0.632 -4.745,-0.242 -2.494,0.707 -5.434004,1.234 -8.736004,1.566 -1.523,0.153 -2.822,0.211 -4.079,0.268 -2.077,0.093 -3.872,0.173 -5.99,0.664 -0.265,0.059 -0.527,-0.102 -0.588,-0.367 -0.062,-0.263 0.102,-0.527 0.367,-0.588 2.206,-0.512 4.042,-0.594 6.166,-0.689 1.243,-0.056 2.529,-0.112 4.025,-0.263 3.245,-0.327 6.127004,-0.843 8.567004,-1.534 2.248,-0.638 4.163,-0.515 5.537,0.357 1.811,1.149 1.928,2.806 1.859,3.952 -0.07,1.161 0.532,2.049 0.538,2.058 0.153,0.222 0.099,0.527 -0.122,0.681 -0.083,0.059 -0.181,0.087 -0.278,0.087 z"
     id="path125"
     inkscape:connector-curvature="0"
     style="fill:#4e4e4e" /><path
     d="m 103.74898,98.169251 c -3.786004,0 -4.766004,-1.285 -5.198004,-2.403 -0.02,-0.052 -0.035,-0.095 -0.052,-0.127 -0.079,-0.105 -0.105,-0.227 -0.085,-0.357 0.02,-0.13 0.099,-0.236 0.205,-0.312 0.007,-0.005 0.7,-0.506 1.806004,-1.514 1.191,-1.086 4.863,-2.418 7.952,-0.575 0.233,0.138 0.309,0.439 0.17,0.671 -0.139,0.232 -0.439,0.307 -0.671,0.169 -2.707,-1.613 -5.912,-0.343 -6.792,0.458 -0.715,0.652 -1.259004,1.096 -1.576004,1.345 0.236,0.575 0.871004,1.666 4.240004,1.666 4.241,0 5.89,-1.995 5.906,-2.014 0.169,-0.21 0.478,-0.246 0.686,-0.079 0.211,0.167 0.248,0.473 0.083,0.684 -0.074,0.097 -1.919,2.388 -6.674,2.388 z"
     id="path127"
     inkscape:connector-curvature="0"
     style="fill:#4e4e4e" /><path
     d="m 108.23798,94.785251 c -0.159,0 -0.315,-0.078 -0.409,-0.22 -0.665,-1.005 -2.412,-1.524 -3.029,-1.64 -0.265,-0.049 -0.441,-0.306 -0.391,-0.571 0.049,-0.265 0.31,-0.443 0.571,-0.391 0.107,0.02 2.638,0.51 3.665,2.062 0.149,0.226 0.088,0.53 -0.138,0.679 -0.082,0.056 -0.176,0.081 -0.269,0.081 z"
     id="path129"
     inkscape:connector-curvature="0"
     style="fill:#4e4e4e" /><path
     d="m 102.74098,98.132251 c -0.27,0 -0.49,-0.22 -0.49,-0.49 0,-0.27 0.22,-0.49 0.49,-0.49 4.02,0 4.733,-1.84 4.762,-1.918 0.09,-0.252 0.369,-0.386 0.621,-0.3 0.253,0.088 0.39,0.358 0.307,0.612 -0.035,0.106 -0.904,2.586 -5.69,2.586 z"
     id="path131"
     inkscape:connector-curvature="0"
     style="fill:#4e4e4e" /><path
     d="m 73.796976,99.012251 -14.39,0 c -0.27,0 -0.49,-0.22 -0.49,-0.49 0,-0.27 0.22,-0.49 0.49,-0.49 l 14.392,0 c 7.077,0 10.42,-0.596 14.055,-1.376 1.881,-0.404 3.07,-0.652 4.068,-0.86 1.085,-0.227 1.948,-0.407 3.236,-0.69 0.818,-0.18 1.338,-0.451 1.667,-0.715 -0.643,0.125 -1.537,0.272 -2.652,0.39 -0.581,0.062 -1.164,0.106 -1.73,0.148 -1.691,0.127 -3.288,0.248 -4.229,0.826 -1.342,0.824 -3.666,1.477 -6.545,1.838 -2.612,0.326 -21.092,0.357 -21.877,0.358 l -10e-4,0 c -0.27,0 -0.489,-0.218 -0.49,-0.489 -10e-4,-0.27 0.218,-0.49 0.489,-0.49 0.191,0 19.205,-0.031 21.758,-0.349 2.744,-0.343 4.93,-0.947 6.154,-1.7 1.142,-0.702 2.855,-0.832 4.668,-0.968 0.557,-0.042 1.129,-0.085 1.701,-0.146 2.314,-0.247 3.658,-0.623 3.672,-0.627 0.157,-0.044 0.323,-0.009 0.448,0.095 0.125,0.104 0.189,0.263 0.174,0.423 -0.007,0.072 -0.204,1.749 -2.993,2.362 -1.294,0.284 -2.158,0.465 -3.246,0.692 -0.997,0.209 -2.183,0.455 -4.063,0.859 -3.698,0.793 -7.091,1.399 -14.266,1.399 z"
     id="path133"
     inkscape:connector-curvature="0"
     style="fill:#4e4e4e" /><path
     d="m 76.846976,96.020251 -17.44,0 c -0.27,0 -0.49,-0.22 -0.49,-0.49 0,-0.27 0.22,-0.49 0.49,-0.49 l 17.44,0 c 0.036,0 0.065,-0.03 0.065,-0.065 l 0,-7.009 c 0,-0.036 -0.03,-0.065 -0.065,-0.065 l -17.44,0 c -0.27,0 -0.49,-0.22 -0.49,-0.49 0,-0.27 0.22,-0.49 0.49,-0.49 l 17.44,0 c 0.576,0 1.045,0.469 1.045,1.045 l 0,7.009 c -0.001,0.576 -0.468,1.045 -1.045,1.045 z"
     id="path135"
     inkscape:connector-curvature="0"
     style="fill:#4e4e4e" /><path
     d="m 76.152976,95.337251 -17.44,0 c -0.27,0 -0.49,-0.22 -0.49,-0.49 0,-0.27 0.22,-0.49 0.49,-0.49 l 17.44,0 c 0.036,0 0.065,-0.03 0.065,-0.065 l 0,-6.026 c 0,-0.27 0.22,-0.49 0.49,-0.49 0.27,0 0.49,0.22 0.49,0.49 l 0,6.026 c 0,0.576 -0.468,1.045 -1.045,1.045 z"
     id="path137"
     inkscape:connector-curvature="0"
     style="fill:#4e4e4e" /><path
     d="m 60.875976,80.349251 -1.714,0 c -0.27,0 -0.49,-0.22 -0.49,-0.49 0,-0.27 0.22,-0.49 0.49,-0.49 l 1.714,0 c 0.4,0 0.978,-0.156 1.381,-1.502 l 0,0 c -0.001,0 0.46,-2.018 0.526,-2.68 0.028,-0.301 -0.077,-0.601 -0.297,-0.844 -0.267,-0.294 -0.665,-0.469 -1.066,-0.469 l -2.38,0 c -0.27,0 -0.49,-0.22 -0.49,-0.49 0,-0.27 0.22,-0.49 0.49,-0.49 l 2.38,0 c 0.673,0 1.342,0.295 1.792,0.79 0.409,0.449 0.602,1.017 0.547,1.597 -0.07,0.727 -0.533,2.75 -0.553,2.835 -0.448,1.494 -1.229,2.233 -2.33,2.233 z"
     id="path139"
     inkscape:connector-curvature="0"
     style="fill:#4e4e4e" /><path
     d="m 86.982976,68.978251 c -0.093,0 -0.185,-0.026 -0.268,-0.08 -0.226,-0.148 -0.289,-0.453 -0.141,-0.678 3.295,-5.007 6.669,-14.473 6.703,-14.568 0.09,-0.254 0.37,-0.389 0.626,-0.299 0.254,0.09 0.389,0.37 0.297,0.626 -0.139,0.392 -3.449,9.673 -6.807,14.779 -0.094,0.142 -0.251,0.22 -0.41,0.22 z"
     id="path141"
     inkscape:connector-curvature="0"
     style="fill:#4e4e4e" /><path
     d="m 101.32198,54.395251 c -0.2,0 -0.389,-0.123 -0.46,-0.323 -0.093,-0.254 0.039,-0.534 0.294,-0.627 0.671,-0.243 1.112,-0.586 1.31,-1.02 0.221,-0.485 0.099,-1.023 -0.043,-1.389 -0.405,-1.049 -1.48,-3.834 -4.245004,-8.948 -2.67,-4.94 -6.169,-9.564 -6.203,-9.611 -0.163,-0.216 -0.121,-0.522 0.094,-0.686 0.216,-0.164 0.523,-0.121 0.686,0.094 0.035,0.047 3.578,4.73 6.285,9.737 2.794004,5.169 3.885004,7.997 4.297004,9.061 0.3,0.775 0.307,1.518 0.021,2.148 -0.311,0.681 -0.938,1.197 -1.867,1.534 -0.057,0.022 -0.114,0.03 -0.169,0.03 z"
     id="path143"
     inkscape:connector-curvature="0"
     style="fill:#4e4e4e" /><path
     d="m 85.028976,102.20725 c -2.271,0 -4.127,-0.035 -4.994,-0.068 -0.257,-0.01 -0.736,-0.027 -0.739,-0.507 -0.004,-0.489 -0.004,-0.489 1.954,-0.592 3.363,-0.178 11.242,-0.594 19.350004,-1.831999 0.265,-0.039 0.517,0.143 0.558,0.41 0.041,0.268 -0.143,0.516999 -0.41,0.557999 -2.040004,0.311 -4.066004,0.571 -6.008004,0.789 0.223,-0.015 0.444,-0.031 0.66,-0.047 2.54,-0.193 4.985004,-0.241 7.349004,-0.288 2.752,-0.054 5.353,-0.106 8.108,-0.364 2.487,-0.233 3.525,-0.942999 3.958,-1.496999 0.41,-0.523 0.344,-0.987 0.342,-1.006 -0.041,-0.264 0.138,-0.516 0.401,-0.56 0.259,-0.044 0.513,0.125 0.563,0.388 0.016,0.088 0.143,0.885 -0.502,1.74 -0.792,1.051999 -2.364,1.694999 -4.67,1.910999 -2.792,0.262 -5.531,0.316 -8.181,0.369 -2.351,0.047 -4.782004,0.095 -7.295004,0.285 -3.217,0.242 -7.242,0.311 -10.444,0.311 z"
     id="path145"
     inkscape:connector-curvature="0"
     style="fill:#4e4e4e" /><path
     d="m 103.40898,117.22725 c -1.64,0 -4.253004,-0.712 -4.977004,-3.54 -0.823,-3.217 -1.039,-7.566 -1.048,-7.749 -0.012,-0.27 0.195,-0.5 0.465,-0.512 0.26,-0.012 0.5,0.195 0.512,0.465 0.002,0.044 0.221,4.435 1.018,7.554 0.807004,3.157 4.379004,2.794 4.531004,2.777 l 3.89,-0.002 c 2.939,0 4.569,-1.238 5.132,-3.897 0.659,-3.117 1.103,-8.307 1.107,-8.358 0.023,-0.27 0.267,-0.463 0.53,-0.447 0.269,0.023 0.469,0.26 0.447,0.53 -0.017,0.215 -0.453,5.302 -1.126,8.479 -0.665,3.144 -2.657,4.673 -6.09,4.673 l -3.836,0 c -0.164,0.017 -0.353,0.027 -0.555,0.027 z"
     id="path147"
     inkscape:connector-curvature="0"
     style="fill:#4e4e4e" /><path
     d="m 85.913976,98.039251 c -0.247,0 -0.459,-0.186 -0.486,-0.438 -0.028,-0.269 0.167,-0.51 0.436,-0.538 0.036,-0.004 3.714,-0.391 8.046,-0.554 1.606,-0.058 2.818,0.059 3.674,0.197 -0.696,-0.575 -1.422,-1.111 -1.433,-1.119 -0.218,-0.16 -0.264,-0.467 -0.104,-0.685 0.159,-0.217 0.467,-0.265 0.684,-0.104 0.073,0.053 1.775,1.31 2.53,2.108 0.194,0.204 0.458,0.484 0.255,0.834 -0.205,0.349 -0.562,0.263 -0.941,0.17 -0.636,-0.156 -2.129,-0.52 -4.63,-0.425 -4.298,0.16 -7.944,0.544 -7.98,0.549 -0.015,0.005 -0.034,0.005 -0.051,0.005 z"
     id="path149"
     inkscape:connector-curvature="0"
     style="fill:#4e4e4e" /><path
     d="m 109.55698,60.738251 c -0.079,0 -0.159,-0.02 -0.233,-0.059 -0.238,-0.128 -0.326,-0.426 -0.199,-0.664 0.007,-0.012 0.658,-1.226 0.845,-2.391 0.201,-1.25 0.648,-2.576 2.428,-2.931 1.24,-0.248 3.497,-0.567 4.142,-0.655 0.044,-0.048 0.095,-0.104 0.144,-0.158 l -5.613,0.515 c -0.22,0.035 -2.428,0.338 -3.188,-0.831 -0.105,-0.16 -0.194,-0.325 -0.268,-0.491 -0.075,0.172 -0.246,0.291 -0.446,0.294 -0.001,0 -0.002,0 -0.004,0 -0.268,0 -0.488,-0.217 -0.49,-0.486 -0.022,-2.822 0.641,-4.619 0.669,-4.694 0.09,-0.243 0.353,-0.374 0.604,-0.295 0.248,0.078 0.392,0.334 0.33,0.586 -0.002,0.011 -0.264,1.074 -0.191,1.834 0.011,0.125 0.022,0.254 0.032,0.389 0.059,0.763 0.127,1.627 0.584,2.328 0.333,0.509 1.66,0.485 2.249,0.394 l 6.682,-0.613 c 0.184,-0.014 0.363,0.072 0.46,0.228 0.098,0.158 0.099,0.357 0.001,0.515 0,0 -0.349,0.569 -0.474,0.734 -0.12,0.159 -0.485,0.549 -0.485,0.549 -0.078,0.081 -0.179,0.133 -0.29,0.149 -0.028,0.004 -2.859,0.39 -4.255,0.669 -1.132,0.226 -1.464,0.952 -1.653,2.128 -0.215,1.332 -0.921,2.645 -0.95,2.701 -0.09,0.163 -0.257,0.255 -0.431,0.255 z"
     id="path151"
     inkscape:connector-curvature="0"
     style="fill:#4e4e4e" /><path
     d="m 110.59598,57.527251 -2.825,0 c -0.27,0 -0.49,-0.22 -0.49,-0.49 0,-0.27 0.22,-0.49 0.49,-0.49 l 2.825,0 c 0.27,0 0.49,0.22 0.49,0.49 0,0.27 -0.22,0.49 -0.49,0.49 z"
     id="path153"
     inkscape:connector-curvature="0"
     style="fill:#4e4e4e" /><path
     d="m 111.88598,56.496251 c -0.596,0 -0.871,-0.107 -0.971,-0.162 -0.238,-0.128 -0.327,-0.426 -0.199,-0.663 0.128,-0.238 0.425,-0.326 0.663,-0.199 -0.005,-10e-4 0.097,0.044 0.495,0.044 0.388,0 1.029,-0.056 2.018,-0.29 1.977,-0.468 2.508,-1.038 2.513,-1.043 0.177,-0.197 0.483,-0.225 0.685,-0.054 0.202,0.17 0.238,0.464 0.075,0.671 -0.106,0.136 -0.753,0.837 -3.047,1.379 -1.022,0.243 -1.737,0.317 -2.232,0.317 z"
     id="path155"
     inkscape:connector-curvature="0"
     style="fill:#4e4e4e" /><path
     d="m 117.67698,53.785251 c -0.057,0 -0.116,-0.01 -0.173,-0.032 -0.253,-0.095 -0.38,-0.378 -0.285,-0.631 0.002,-0.004 0.159,-0.426 0.349,-1.244 0.125,-0.538 0.253,-1.236 0.137,-1.853 -0.1,-0.534 -0.338,-0.995 -1.216,-1.642 -1.086,-0.799 -4.383,-0.778 -6.149,-0.764 l -0.579,0.002 c -1.324,0 -1.474,0.807 -1.475,0.815 -0.044,0.267 -0.301,0.444 -0.564,0.402 -0.267,-0.044 -0.447,-0.296 -0.402,-0.564 0.094,-0.565 0.726,-1.633 2.441,-1.633 l 0.573,-0.002 c 2.725,-0.015 5.493,0.041 6.737,0.955 0.969,0.713 1.432,1.365 1.598,2.249 0.149,0.796 10e-4,1.623 -0.146,2.255 -0.206,0.89 -0.379,1.349 -0.386,1.369 -0.076,0.198 -0.263,0.318 -0.46,0.318 z"
     id="path157"
     inkscape:connector-curvature="0"
     style="fill:#4e4e4e" /><path
     d="m 113.75598,52.983251 c -0.255,0 -0.604,-0.054 -0.823,-0.341 -0.312,-0.404 -0.106,-0.938 -0.038,-1.115 0.23,-0.596 0.633,-0.655 1.144,-0.731 0.296,-0.043 0.702,-0.104 1.312,-0.262 1.691,-0.438 2.45,-0.848 2.457,-0.853 0.236,-0.13 0.534,-0.044 0.664,0.193 0.131,0.236 0.046,0.533 -0.19,0.664 -0.033,0.019 -0.855,0.469 -2.686,0.944 -0.66,0.172 -1.115,0.238 -1.416,0.283 -0.137,0.02 -0.291,0.043 -0.353,0.063 -0.001,0.007 -0.01,0.025 -0.019,0.051 -0.02,0.049 -0.032,0.09 -0.042,0.122 0.037,-0.001 0.084,-0.004 0.141,-0.01 0.102,-0.011 0.239,-0.025 0.402,-0.039 0.787,-0.074 2.883,-0.272 3.442,-0.684 0.22,-0.16 0.526,-0.114 0.685,0.104 0.16,0.217 0.114,0.525 -0.104,0.685 -0.72,0.53 -2.407,0.727 -3.934,0.87 l -0.385,0.038 c -0.054,0.008 -0.146,0.018 -0.257,0.018 z"
     id="path159"
     inkscape:connector-curvature="0"
     style="fill:#4e4e4e" /><path
     d="m 111.67598,51.156251 c -0.695,0 -1.269,-0.127 -1.589,-0.459 -1.055,-1.097 -1.706,-2.116 -1.733,-2.159 -0.146,-0.228 -0.078,-0.531 0.151,-0.675 0.228,-0.144 0.531,-0.078 0.676,0.151 0.006,0.01 0.628,0.981 1.612,2.004 0.489,0.505 3.529,-0.125 6.065,-1.033 0.255,-0.091 0.534,0.041 0.626,0.296 0.091,0.254 -0.042,0.534 -0.296,0.626 -0.995,0.357 -3.673,1.249 -5.512,1.249 z"
     id="path161"
     inkscape:connector-curvature="0"
     style="fill:#4e4e4e" /><path
     d="m 109.62098,53.781251 c -0.225,0 -0.426,-0.153 -0.475,-0.381 -0.015,-0.073 -0.138,-0.739 0.331,-1.819 0.485,-1.118 0.887,-1.413 1.084,-1.49 0.249,-0.096 0.536,0.026 0.633,0.279 0.09,0.233 -0.01,0.495 -0.226,0.61 -0.039,0.032 -0.27,0.246 -0.592,0.991 -0.339,0.783 -0.27,1.229 -0.27,1.234 0.044,0.263 -0.128,0.517 -0.39,0.568 -0.031,0.004 -0.063,0.008 -0.095,0.008 z"
     id="path163"
     inkscape:connector-curvature="0"
     style="fill:#4e4e4e" /><path
     d="m 82.788976,30.608251 c -0.014,0 -0.027,-10e-4 -0.041,-10e-4 -0.112,-0.009 -11.265,-0.91 -19.016,-0.91 l -6.285,0 c -0.272,0 -0.49,-0.22 -0.49,-0.49 0,-0.27 0.218,-0.49 0.49,-0.49 l 6.285,0 c 7.792,0 18.983,0.903 19.095,0.912 0.27,0.022 0.47,0.258 0.448,0.528 -0.02,0.258 -0.233,0.451 -0.486,0.451 z"
     id="path165"
     inkscape:connector-curvature="0"
     style="fill:#4e4e4e" /><path
     d="m 82.513976,31.274251 c -0.243,0 -0.51,-0.009 -0.801,-0.026 -0.27,-0.015 -0.476,-0.247 -0.46,-0.517 0.016,-0.27 0.246,-0.483 0.517,-0.46 1.181,0.068 1.667,-0.032 1.853,-0.098 -0.012,-0.169 0.063,-0.339 0.212,-0.442 0.22,-0.149 0.517,-0.099 0.674,0.118 0.125,0.174 0.21,0.485 0.043,0.789 -0.242,0.437 -0.866,0.636 -2.038,0.636 z"
     id="path167"
     inkscape:connector-curvature="0"
     style="fill:#4e4e4e" /><path
     d="m 83.427976,53.205251 c -0.072,0 -0.143,-0.016 -0.212,-0.048 -0.243,-0.117 -0.347,-0.41 -0.23,-0.653 0.014,-0.028 1.361,-2.877 1.284,-5.737 -0.08,-2.968 -0.655,-3.857 -2.797,-4.322 -3.226,-0.702 -7.271,-0.754 -8.06,1.403 -0.982,2.688 -0.454,6.466 0.632,8.175 0.146,0.228 0.078,0.531 -0.151,0.676 -0.228,0.146 -0.531,0.078 -0.676,-0.151 -1.236,-1.942 -1.822,-6.037 -0.726,-9.036 1.263,-3.457 7.351,-2.423 9.187,-2.024 2.914,0.633 3.488,2.266 3.568,5.253 0.084,3.103 -1.321,6.063 -1.381,6.187 -0.081,0.175 -0.256,0.277 -0.438,0.277 z"
     id="path169"
     inkscape:connector-curvature="0"
     style="fill:#4e4e4e" /><path
     d="m 108.98798,101.39325 c -0.27,0 -0.49,-0.22 -0.49,-0.49 0,-0.27 0.22,-0.49 0.49,-0.49 1.2,0 2.074,-0.286 2.596,-0.851999 0.579,-0.625 0.534,-1.406 0.534,-1.413 -0.021,-0.27 0.18,-0.505 0.451,-0.526 0.279,-0.023 0.505,0.18 0.527,0.449 0.004,0.049 0.084,1.208 -0.792,2.153999 -0.717,0.775 -1.833,1.168 -3.316,1.168 z"
     id="path171"
     inkscape:connector-curvature="0"
     style="fill:#4e4e4e" /><path
     d="m 100.17198,99.997251 c -0.069,0 -0.139,-0.015 -0.206004,-0.046 -0.068,-0.032 -0.125,-0.077 -0.17,-0.131 -0.36,-0.125 -2.455,-0.559 -13.436,-0.088 -11.832,0.505999 -12.034,-0.289 -12.166,-0.816 -0.083,-0.328 0.106,-0.657 0.48,-0.836 0.244,-0.116 0.536,-0.014 0.653,0.231 0.051,0.105 0.06,0.22 0.035,0.325 0.748,0.181 3.172,0.453 10.955,0.118 13.567,-0.583 14.048004,0.139 14.253004,0.447 0.095,0.142 0.117,0.357 0.044,0.512 -0.081,0.179 -0.258,0.284 -0.442,0.284 z"
     id="path173"
     inkscape:connector-curvature="0"
     style="fill:#4e4e4e" /><g
     id="g175"
     transform="translate(-11.387024,-17.880749)"><g
       id="Expanded_12_"><g
         id="g178"><path
           d="m 44.866,42.65 3.751,1.489 c -0.056,0.69 -0.077,1.381 -0.065,2.074 0.325,-0.027 0.649,-0.053 0.979,-0.079 -0.01,-0.758 0.02,-1.516 0.094,-2.27 0.021,-0.217 -0.104,-0.422 -0.306,-0.504 L 45.23,41.737 c -1.565,-0.622 -2.334,-2.402 -1.713,-3.968 l 1.745,-4.394 c 0.301,-0.759 0.879,-1.355 1.628,-1.679 0.75,-0.322 1.585,-0.336 2.34,-0.035 l 4.09,1.623 c 0.204,0.081 0.433,0.016 0.567,-0.156 0.944,-1.217 2.022,-2.328 3.204,-3.298 0.169,-0.138 0.225,-0.372 0.138,-0.571 l -1.745,-4.043 c -0.667,-1.547 0.048,-3.349 1.595,-4.016 l 4.341,-1.875 c 0.413,-0.179 0.881,-0.257 1.352,-0.225 1.176,0.079 2.223,0.794 2.666,1.819 l 1.746,4.043 c 0.085,0.2 0.29,0.32 0.511,0.291 1.526,-0.195 3.071,-0.218 4.596,-0.07 0.237,0.031 0.421,-0.104 0.501,-0.306 l 1.623,-4.09 c 0.491,-1.239 1.716,-2.012 3.047,-1.922 0.315,0.021 0.625,0.091 0.92,0.209 l 4.393,1.744 c 0.757,0.301 1.353,0.88 1.677,1.63 0.323,0.75 0.337,1.581 0.036,2.338 l -1.623,4.09 c -0.08,0.204 -0.017,0.434 0.154,0.568 1.212,0.938 2.322,2.016 3.298,3.203 0.138,0.169 0.373,0.226 0.573,0.138 l 4.042,-1.746 c 0.416,-0.179 0.884,-0.257 1.353,-0.225 1.176,0.079 2.223,0.792 2.666,1.819 l 1.875,4.341 c 0.323,0.75 0.336,1.58 0.035,2.339 -0.301,0.759 -0.88,1.355 -1.629,1.679 l -4.042,1.746 c -0.2,0.086 -0.32,0.295 -0.291,0.512 0.105,0.821 0.151,1.647 0.157,2.473 0.327,0.023 0.653,0.044 0.98,0.07 C 92.034,45.024 92,44.256 91.916,43.491 l 3.707,-1.601 c 0.99,-0.427 1.754,-1.213 2.151,-2.216 0.397,-1.002 0.38,-2.098 -0.047,-3.088 l -1.875,-4.341 c -0.588,-1.359 -1.96,-2.306 -3.5,-2.408 -0.623,-0.042 -1.248,0.063 -1.806,0.304 l -3.709,1.601 C 85.955,30.705 84.971,29.75 83.911,28.899 L 85.4,25.147 c 0.397,-1 0.38,-2.097 -0.048,-3.087 -0.427,-0.991 -1.215,-1.754 -2.214,-2.151 l -4.393,-1.743 c -0.39,-0.154 -0.8,-0.248 -1.216,-0.276 -1.758,-0.118 -3.375,0.902 -4.022,2.538 l -1.489,3.752 c -1.359,-0.106 -2.724,-0.086 -4.08,0.063 l -1.601,-3.709 c -0.588,-1.36 -1.961,-2.304 -3.5,-2.408 -0.623,-0.042 -1.248,0.063 -1.805,0.304 l -4.341,1.875 c -2.044,0.883 -2.987,3.262 -2.106,5.304 l 1.6,3.708 c -1.036,0.88 -1.99,1.863 -2.845,2.928 l -3.751,-1.489 c -0.991,-0.394 -2.111,-0.375 -3.089,0.046 -0.99,0.427 -1.753,1.215 -2.15,2.216 l -1.745,4.394 c -0.823,2.067 0.193,4.417 2.261,5.238 z"
           id="path180"
           inkscape:connector-curvature="0"
           style="fill:#4e4e4e" /><path
           d="m 45.738,40.451 4.936,1.959 c 0.297,0.117 0.475,0.423 0.43,0.742 -0.141,0.992 -0.202,1.991 -0.188,2.988 0.323,-0.019 0.649,-0.037 0.982,-0.056 -0.012,-0.933 0.046,-1.866 0.176,-2.794 0.11,-0.768 -0.317,-1.503 -1.038,-1.79 L 46.1,39.541 c -0.355,-0.142 -0.53,-0.546 -0.389,-0.9 l 1.743,-4.394 c 0.069,-0.173 0.199,-0.307 0.368,-0.38 0.17,-0.074 0.359,-0.075 0.531,-0.007 l 4.937,1.959 c 0.702,0.279 1.549,0.023 1.983,-0.59 1.097,-1.555 2.428,-2.926 3.955,-4.072 0.62,-0.467 0.837,-1.289 0.53,-2 l -2.107,-4.878 c -0.151,-0.351 0.011,-0.759 0.362,-0.91 l 4.338,-1.874 c 0.323,-0.138 0.774,0.044 0.912,0.362 l 2.106,4.878 c 0.302,0.701 1.061,1.116 1.819,0.985 1.874,-0.323 3.794,-0.353 5.676,-0.086 0.78,0.106 1.503,-0.323 1.788,-1.039 l 1.959,-4.936 c 0.138,-0.347 0.549,-0.527 0.9,-0.389 l 4.394,1.744 c 0.355,0.142 0.53,0.546 0.389,0.9 l -1.96,4.936 c -0.286,0.721 -0.043,1.534 0.59,1.98 1.554,1.097 2.923,2.429 4.069,3.955 0.453,0.605 1.313,0.831 2,0.531 l 4.878,-2.106 c 0.322,-0.138 0.773,0.044 0.911,0.362 l 1.875,4.341 c 0.073,0.165 0.075,0.359 0.007,0.528 -0.067,0.169 -0.201,0.307 -0.368,0.38 l -4.879,2.107 c -0.712,0.309 -1.116,1.057 -0.984,1.819 0.196,1.137 0.272,2.285 0.252,3.431 0.325,0.021 0.649,0.043 0.974,0.065 0.023,-1.223 -0.054,-2.448 -0.264,-3.661 -0.054,-0.317 0.114,-0.627 0.409,-0.754 l 4.879,-2.107 c 0.404,-0.175 0.728,-0.51 0.889,-0.917 0.162,-0.41 0.156,-0.875 -0.02,-1.279 L 93.677,33.184 C 93.431,32.62 92.865,32.227 92.23,32.185 91.972,32.168 91.712,32.211 91.478,32.311 L 86.6,34.419 c -0.285,0.125 -0.638,0.031 -0.827,-0.221 -1.207,-1.607 -2.649,-3.009 -4.289,-4.167 -0.26,-0.184 -0.362,-0.521 -0.243,-0.818 L 83.2,24.277 c 0.339,-0.857 -0.08,-1.83 -0.937,-2.171 l -4.394,-1.744 c -0.163,-0.064 -0.331,-0.102 -0.505,-0.115 -0.728,-0.049 -1.397,0.374 -1.666,1.052 l -1.959,4.936 c -0.11,0.28 -0.385,0.454 -0.736,0.431 -0.001,0 -0.004,0 -0.005,0 -1.981,-0.281 -4.006,-0.249 -5.98,0.091 -0.311,0.053 -0.628,-0.117 -0.753,-0.409 l -2.106,-4.879 c -0.246,-0.564 -0.812,-0.957 -1.447,-0.999 -0.259,-0.017 -0.518,0.026 -0.752,0.126 l -4.338,1.874 c -0.847,0.365 -1.238,1.35 -0.873,2.197 l 2.107,4.879 c 0.127,0.294 0.037,0.634 -0.22,0.828 -1.609,1.208 -3.009,2.651 -4.167,4.29 -0.179,0.255 -0.531,0.36 -0.821,0.246 l -4.937,-1.959 c -0.409,-0.162 -0.876,-0.156 -1.279,0.019 -0.41,0.175 -0.727,0.501 -0.891,0.917 l -1.744,4.394 c -0.335,0.855 0.085,1.829 0.941,2.17 z"
           id="path182"
           inkscape:connector-curvature="0"
           style="fill:#4e4e4e" /><path
           d="m 58.979,45.738 c 0.039,-1.02 0.209,-2.04 0.528,-3.038 1.512,-4.705 5.849,-7.866 10.795,-7.866 1.17,0 2.333,0.184 3.457,0.546 4.689,1.506 7.71,5.8 7.849,10.464 0.326,0.014 0.653,0.03 0.98,0.044 -0.12,-5.095 -3.41,-9.798 -8.529,-11.442 -1.221,-0.392 -2.483,-0.591 -3.756,-0.591 -5.373,0 -10.085,3.434 -11.727,8.545 -0.355,1.106 -0.543,2.239 -0.58,3.37 0.326,-0.01 0.651,-0.021 0.983,-0.032 z"
           id="path184"
           inkscape:connector-curvature="0"
           style="fill:#4e4e4e" /><path
           d="m 61.353,45.625 c 0.046,-0.739 0.173,-1.477 0.406,-2.201 1.196,-3.723 4.629,-6.224 8.542,-6.224 0.926,0 1.846,0.144 2.735,0.43 3.623,1.164 5.987,4.43 6.2,8.017 0.326,0.01 0.653,0.021 0.98,0.033 -0.201,-4.015 -2.833,-7.681 -6.881,-8.982 -0.986,-0.317 -2.007,-0.478 -3.035,-0.478 -4.341,0 -8.149,2.775 -9.474,6.905 -0.267,0.831 -0.411,1.68 -0.455,2.53 0.327,-0.011 0.654,-0.021 0.982,-0.03 z"
           id="path186"
           inkscape:connector-curvature="0"
           style="fill:#4e4e4e" /></g></g></g></svg>