<?xml version="1.0" encoding="utf-8"?>
<!-- Generator: Adobe Illustrator 17.0.0, SVG Export Plug-In . SVG Version: 6.00 Build 0)  -->
<!DOCTYPE svg PUBLIC "-//W3C//DTD SVG 1.1//EN" "http://www.w3.org/Graphics/SVG/1.1/DTD/svg11.dtd">
<svg version="1.1" id="Слой_1" xmlns="http://www.w3.org/2000/svg" xmlns:xlink="http://www.w3.org/1999/xlink" x="0px" y="0px"
	 width="135.5px" height="147px" viewBox="0 0 135.5 147" enable-background="new 0 0 135.5 147" xml:space="preserve">
<path fill="#4E4E4E" d="M32.804,124.578c-1.207,0-2.466-0.08-3.83-0.275c-2.619-0.374-5.041-0.4-7.177-0.423
	c-3.534-0.038-6.087-0.065-6.678-1.837c-0.821-2.463-1.95-14.474-1.83-18.143c0.03-0.925,0.043-1.987,0.057-3.125
	c0.042-3.463,0.094-7.772,0.689-11.061c0.837-4.627,1.989-7.408,3.977-9.598c0.726-0.8,1.18-1.183,1.545-1.491
	c0.613-0.517,0.921-0.776,1.996-2.799c0.61-1.147,0.833-1.961,1.142-3.087c0.537-1.952,1.271-4.626,4.559-10.941
	c5.259-10.102,9.393-12.29,10.751-13.009c1.594-0.844,2.591-0.298,2.699-0.233c0.205,0.123,0.292,0.376,0.206,0.6
	s-0.321,0.35-0.556,0.305l0,0c0.001,0-1.662-0.181-4.486,3.275c-3.094,3.786-6.569,10.83-7.646,13.225
	c-0.23,0.511-0.467,0.982-0.687,1.419c-0.883,1.755-1.241,2.563-0.481,3.324c0.91,0.91,5.195,0.705,8.03,0.569
	c0.766-0.037,1.486-0.071,2.112-0.087c3.127-0.078,25.797-0.298,33.905-0.298c0.272,0,0.492,0.221,0.492,0.492
	s-0.221,0.492-0.492,0.492c-8.103,0-30.756,0.22-33.88,0.298c-0.619,0.015-1.332,0.049-2.089,0.086
	c-4.281,0.204-7.646,0.272-8.773-0.856c-1.296-1.296-0.557-2.763,0.297-4.462c0.214-0.425,0.445-0.883,0.669-1.381
	c1.074-2.388,4.506-9.344,7.626-13.253c-1.816,1.813-4.158,4.83-6.823,9.948c-3.239,6.222-3.957,8.837-4.482,10.747
	c-0.313,1.143-0.562,2.046-1.223,3.289c-1.117,2.102-1.491,2.466-2.23,3.089c-0.342,0.289-0.769,0.649-1.451,1.4
	c-1.853,2.042-2.936,4.682-3.737,9.112c-0.581,3.208-0.632,7.472-0.674,10.897c-0.014,1.146-0.027,2.214-0.057,3.145
	c-0.125,3.818,1.057,15.629,1.78,17.799c0.369,1.106,2.745,1.132,5.754,1.164c2.059,0.022,4.622,0.049,7.306,0.433
	c4.089,0.585,7.255,0.095,10.919-0.472c2.365-0.366,5.046-0.781,8.273-0.928c8.003-0.366,22.472-0.303,22.619-0.301
	c0.272,0.001,0.491,0.223,0.49,0.495c-0.001,0.271-0.221,0.49-0.492,0.49c-0.001,0-0.001,0-0.003,0
	c-0.144-0.001-14.591-0.064-22.569,0.3c-3.173,0.145-5.712,0.538-8.167,0.917C37.646,124.222,35.344,124.578,32.804,124.578z"/>
<path fill="#4E4E4E" d="M39.427,51.494c-0.937,0-1.274-0.135-1.453-0.472c-0.149-0.283-0.08-0.606,0.205-0.959
	c1.213-1.502,2.621-1.888,4.632-2.306c2.04-0.423,4.714-0.382,4.827-0.38c0.183,0.003,0.35,0.109,0.432,0.273
	c0.049,0.099,0.063,0.21,0.042,0.315c0.162,0.042,0.514,0.089,1.241,0.029c2.83-0.233,13.971-0.665,19.529-0.665h3.52
	c0.272,0,0.492,0.221,0.492,0.492s-0.221,0.492-0.492,0.492h-3.52c-5.539,0-16.633,0.43-19.449,0.662
	c-1.302,0.106-2-0.056-2.265-0.529c-0.016-0.029-0.029-0.057-0.042-0.085c-0.862,0.008-2.686,0.062-4.116,0.359
	c-1.926,0.401-2.98,0.719-3.918,1.784c0.703,0.036,2.248-0.088,4.243-0.247c1.355-0.108,3.021-0.24,5.04-0.377
	c8.372-0.569,23.108-0.576,23.256-0.576c0.272,0,0.492,0.221,0.492,0.492c0,0.272-0.221,0.492-0.492,0.492
	c-0.147,0-14.851,0.007-23.189,0.573c-2.014,0.137-3.677,0.269-5.028,0.377C41.466,51.395,40.228,51.494,39.427,51.494z"/>
<path fill="#4E4E4E" d="M31.656,71.476c-1.007,0-1.758-0.184-2.209-0.901c-0.853-1.354,0.046-3.319,1.405-6.293
	c1.257-2.749,5.165-10.002,6.323-11.249c1.173-1.263,1.667-1.547,4.234-1.675c0.95-0.047,3.089-0.204,5.354-0.369
	c3.691-0.27,7.874-0.575,9.071-0.575l0.262,0c1.841,0.002,2.952-0.003,3.898,0.92c0.172,0.168,0.316,0.326,0.449,0.472
	c0.49,0.538,0.714,0.783,1.751,0.783c0.787,0,2.357-0.054,3.876-0.105c1.502-0.051,2.921-0.1,3.632-0.1h2.7
	c0.272,0,0.492,0.221,0.492,0.492c0,0.272-0.221,0.492-0.492,0.492h-2.7c-0.695,0-2.105,0.048-3.598,0.099
	c-1.527,0.052-3.106,0.106-3.91,0.106c-1.471,0-1.938-0.512-2.478-1.105c-0.121-0.133-0.253-0.277-0.41-0.43
	c-0.632-0.618-1.417-0.647-3.208-0.64l-0.263,0c-1.162,0-5.326,0.304-9,0.572c-2.369,0.173-4.416,0.322-5.377,0.371
	c-2.335,0.117-2.592,0.317-3.561,1.361c-0.998,1.075-4.85,8.146-6.15,10.989c-1.137,2.489-2.036,4.455-1.467,5.359
	c0.335,0.531,1.181,0.489,2.912,0.355c0.665-0.052,1.42-0.111,2.28-0.133c0.74-0.02,2.037-0.037,3.654-0.058
	c5.12-0.068,13.691-0.181,17.772-0.556c5.33-0.488,13.856-0.697,13.942-0.699h0.709c0.272,0,0.492,0.221,0.492,0.492
	s-0.221,0.492-0.492,0.492h-0.698c-0.073,0.002-8.567,0.21-13.864,0.696c-4.119,0.377-12.714,0.491-17.849,0.559
	c-1.612,0.021-2.903,0.038-3.641,0.058c-0.834,0.022-1.575,0.08-2.228,0.131C32.676,71.433,32.137,71.476,31.656,71.476z"/>
<path fill="#4E4E4E" d="M27.012,87.34c-0.243,0-0.455-0.18-0.487-0.427c-0.038-0.285-0.927-7.022-0.805-11.28
	c0.062-2.156,0.474-3.569,1.222-4.202c0.448-0.38,0.861-0.345,0.939-0.332c0.162,0.022,0.303,0.125,0.375,0.272
	c0.038,0.079,3.911,7.98,8.734,13.499c0.179,0.205,0.158,0.516-0.047,0.695c-0.204,0.178-0.515,0.158-0.694-0.047
	c-4.293-4.912-7.835-11.657-8.685-13.33c-0.279,0.247-0.788,1.026-0.858,3.473c-0.121,4.179,0.787,11.053,0.796,11.122
	c0.036,0.27-0.153,0.517-0.423,0.553C27.055,87.339,27.034,87.34,27.012,87.34z"/>
<path fill="#4E4E4E" d="M71.837,90.171H47.055c-0.132-0.002-3.139-0.052-8.206-0.91c-1.934-0.327-4.009-0.644-6.017-0.95
	c-3.239-0.494-6.299-0.961-8.126-1.381l-0.392-0.09c-3.712-0.851-6.408-1.518-7.299-2.339c-0.145-0.134-0.196-0.341-0.13-0.528
	c0.019-0.054,0.49-1.328,2.224-2.351c1.483-0.874,1.816-1.13,2.359-3.15c0.451-1.674,0.758-3.216,1.083-4.85l0.268-1.338
	c0.055-0.266,0.319-0.437,0.581-0.384c0.267,0.054,0.439,0.314,0.385,0.581l-0.268,1.334c-0.328,1.65-0.638,3.208-1.097,4.913
	c-0.606,2.251-1.074,2.719-2.811,3.743c-0.915,0.54-1.4,1.152-1.627,1.516c1.144,0.653,4.234,1.362,6.551,1.893l0.393,0.09
	c1.791,0.412,4.833,0.876,8.054,1.367c2.011,0.307,4.09,0.624,6.032,0.953c4.984,0.844,8.019,0.895,8.049,0.896h24.775
	c0.272,0,0.492,0.221,0.492,0.492S72.109,90.171,71.837,90.171z"/>
<path fill="#4E4E4E" d="M51.987,103.909c-0.041,0-0.083-0.005-0.124-0.016c-2.85-0.736-6.648-1.09-10.669-1.466
	c-2.955-0.275-6.011-0.561-9.144-1.02c-1.156-0.17-2.293-0.321-3.395-0.467c-6.37-0.847-11.401-1.516-12.55-4.608
	c-1.269-3.418-0.619-6.621-0.591-6.755c0.049-0.231,0.271-0.392,0.492-0.391c0.237,0.005,0.437,0.178,0.476,0.411
	c0.196,1.18,1.43,1.725,3.777,2.663c0.324,0.13,0.662,0.265,1.012,0.409c1.758,0.724,4.289,1.415,6.522,2.024
	c1.29,0.352,2.508,0.685,3.492,0.998c3.275,1.042,5.772,1.533,6.863,1.338c0.856-0.151,1.873-0.198,2.567-0.211
	c-0.263-0.524-0.64-1.288-1.039-2.129c-0.738-1.558-1.815-4.331-1.86-4.448c-0.098-0.254,0.028-0.539,0.281-0.637
	c0.255-0.098,0.539,0.027,0.637,0.281c0.011,0.029,1.11,2.857,1.832,4.382c0.726,1.534,1.381,2.803,1.387,2.816
	c0.08,0.154,0.072,0.339-0.02,0.486c-0.092,0.147-0.252,0.231-0.428,0.232C41.487,97.8,39.65,97.765,38.319,98
	c-1.608,0.283-4.876-0.588-7.333-1.37c-0.965-0.307-2.173-0.637-3.453-0.986c-2.26-0.617-4.823-1.317-6.637-2.064
	c-0.347-0.143-0.683-0.277-1.003-0.405c-1.534-0.614-2.793-1.117-3.571-1.878c-0.045,1.185,0.048,2.922,0.706,4.692
	c0.942,2.536,5.954,3.203,11.756,3.975c1.106,0.147,2.248,0.299,3.407,0.469c3.109,0.456,6.151,0.74,9.094,1.015
	c4.061,0.379,7.898,0.736,10.823,1.492c0.263,0.068,0.422,0.337,0.354,0.6C52.405,103.762,52.205,103.909,51.987,103.909z"/>
<path fill="#4E4E4E" d="M25.761,93.321c-0.272,0-0.492-0.221-0.492-0.492s0.221-0.492,0.492-0.492c1.199,0,2.175-0.975,2.175-2.175
	c0-1.199-0.976-2.175-2.175-2.175s-2.175,0.975-2.175,2.175c0,0.299,0.06,0.589,0.177,0.861c0.108,0.25-0.007,0.539-0.257,0.647
	c-0.248,0.108-0.539-0.007-0.647-0.257c-0.171-0.396-0.258-0.817-0.258-1.251c0-1.742,1.417-3.159,3.159-3.159
	s3.159,1.417,3.159,3.159S27.503,93.321,25.761,93.321z"/>
<path fill="#4E4E4E" d="M25.761,92.485c-1.281,0-2.323-1.042-2.323-2.323s1.042-2.323,2.323-2.323c0.272,0,0.492,0.221,0.492,0.492
	s-0.221,0.492-0.492,0.492c-0.738,0-1.339,0.6-1.339,1.338s0.601,1.338,1.339,1.338s1.339-0.6,1.339-1.338
	c0-0.272,0.221-0.492,0.492-0.492c0.272,0,0.492,0.221,0.492,0.492C28.084,91.443,27.042,92.485,25.761,92.485z"/>
<path fill="#4E4E4E" d="M33.539,95.104c-0.272,0-0.492-0.221-0.492-0.492s0.221-0.492,0.492-0.492c1.199,0,2.175-0.975,2.175-2.175
	c0-1.199-0.976-2.175-2.175-2.175s-2.175,0.975-2.175,2.175c0,0.299,0.06,0.589,0.177,0.861c0.108,0.25-0.007,0.539-0.257,0.647
	c-0.248,0.107-0.539-0.007-0.647-0.257c-0.171-0.396-0.258-0.817-0.258-1.251c0-1.742,1.417-3.159,3.159-3.159
	c1.742,0,3.159,1.417,3.159,3.159C36.698,93.687,35.28,95.104,33.539,95.104z"/>
<path fill="#4E4E4E" d="M33.539,94.268c-1.281,0-2.323-1.042-2.323-2.323c0-1.281,1.042-2.323,2.323-2.323
	c0.272,0,0.492,0.221,0.492,0.492s-0.221,0.492-0.492,0.492c-0.738,0-1.338,0.6-1.338,1.338c0,0.738,0.6,1.339,1.338,1.339
	c0.738,0,1.339-0.6,1.339-1.339c0-0.272,0.221-0.492,0.492-0.492s0.492,0.221,0.492,0.492C35.862,93.226,34.82,94.268,33.539,94.268
	z"/>
<path fill="#4E4E4E" d="M34.582,96.243c-0.23,0-0.435-0.161-0.482-0.395c-0.054-0.266,0.119-0.526,0.385-0.58
	c0.097-0.021,2.422-0.54,2.318-3.067c-0.109-2.64-2.006-3.578-2.087-3.616c-0.244-0.117-0.349-0.41-0.234-0.655
	c0.116-0.246,0.41-0.351,0.652-0.237c0.103,0.048,2.519,1.21,2.652,4.467c0.111,2.701-1.983,3.845-3.105,4.073
	C34.647,96.24,34.614,96.243,34.582,96.243z"/>
<path fill="#4E4E4E" d="M36.965,97.244c-0.469,0-1.001-0.06-1.651-0.239l-0.931-0.252c-2.702-0.728-9.028-2.433-12.12-3.62
	l-0.649-0.249c-3.023-1.157-3.836-1.468-4.875-2.632c-1.162-1.301-0.464-4.544-0.38-4.91c0.061-0.265,0.326-0.429,0.59-0.37
	c0.265,0.06,0.431,0.324,0.371,0.589c-0.271,1.19-0.468,3.338,0.155,4.035c0.88,0.986,1.573,1.251,4.493,2.368l0.65,0.249
	c3.045,1.168,9.337,2.864,12.024,3.588l0.937,0.254c1.115,0.307,1.809,0.201,2.542,0.09c0.28-0.042,0.56-0.084,0.86-0.107
	c1.107-0.082,1.506,0.028,1.626,0.079c0.249,0.107,0.365,0.397,0.258,0.647c-0.108,0.25-0.397,0.364-0.647,0.259
	c0.017,0.003-0.116-0.03-0.501-0.03c-0.169,0-0.387,0.007-0.664,0.028c-0.274,0.02-0.53,0.059-0.786,0.098
	C37.858,97.181,37.444,97.244,36.965,97.244z"/>
<path fill="#4E4E4E" d="M71.275,101.413h-7.398c-3.382,0-7.515-0.267-12.531-2.25c-5.347-2.114-9.589-5.082-10.477-6.326
	c-0.863-1.208-1.521-3.689-1.549-3.794c-0.069-0.263,0.088-0.532,0.351-0.601c0.263-0.071,0.531,0.088,0.601,0.351
	c0.006,0.024,0.64,2.411,1.398,3.472c0.719,1.007,4.69,3.868,10.038,5.983c5.517,2.181,10.01,2.181,12.169,2.181h7.398
	c0.272,0,0.492,0.221,0.492,0.492C71.767,101.192,71.547,101.413,71.275,101.413z"/>
<path fill="#4E4E4E" d="M67.473,100.06c-0.753,0-3.431-0.032-8.352-0.413c-5.958-0.461-8.785-2.513-11.28-4.323
	c-2.564-1.861-4.76-5.512-4.852-5.667c-0.14-0.233-0.063-0.536,0.17-0.675c0.236-0.138,0.536-0.063,0.675,0.17
	c0.022,0.036,2.187,3.634,4.577,5.368c2.514,1.824,5.105,3.705,10.786,4.145c5.738,0.445,8.462,0.409,8.489,0.409h3.823
	c0.272,0,0.492,0.221,0.492,0.492s-0.221,0.492-0.492,0.492h-3.816C67.678,100.059,67.605,100.06,67.473,100.06z"/>
<path fill="#4E4E4E" d="M71.509,105.967c-0.004,0-0.008,0-0.012,0c-0.051-0.001-5.14-0.131-11.809-0.754
	c-6.634-0.62-7.832-0.8-11.255-3.495c-3.259-2.566-8.712-7.528-8.766-7.578c-0.19-0.173-0.215-0.464-0.057-0.666
	c0.158-0.203,0.444-0.251,0.66-0.109c0.055,0.037,5.567,3.672,9.402,5.77c4.339,2.374,8.758,2.729,11.006,2.729h10.832
	c0.272,0,0.492,0.221,0.492,0.492c0,0.272-0.221,0.492-0.492,0.492H60.677c-2.342,0-6.947-0.37-11.479-2.85
	c-1.328-0.726-2.853-1.634-4.286-2.515c1.421,1.235,2.927,2.513,4.129,3.46c3.186,2.508,4.029,2.661,10.738,3.289
	c6.633,0.62,11.691,0.749,11.742,0.75c0.272,0.007,0.487,0.232,0.48,0.504C71.995,105.755,71.776,105.967,71.509,105.967z"/>
<path fill="#4E4E4E" d="M66.257,97.243h-2.093c-0.119,0-0.233-0.043-0.322-0.12l-0.969-0.839h-2.382
	c-0.109,0-0.215-0.036-0.301-0.103l-0.994-0.77h-2.458c-0.117,0-0.23-0.042-0.319-0.118l-1.203-1.026H53.21
	c-0.126,0-0.247-0.048-0.339-0.135l-1.723-1.636c-0.197-0.187-0.205-0.499-0.018-0.696c0.187-0.198,0.498-0.205,0.696-0.018
	l1.58,1.5h1.992c0.117,0,0.23,0.042,0.319,0.118l1.203,1.026h2.444c0.109,0,0.215,0.036,0.301,0.103l0.994,0.77h2.397
	c0.119,0,0.233,0.043,0.322,0.12l0.969,0.839h1.909c0.272,0,0.492,0.221,0.492,0.492S66.529,97.243,66.257,97.243z"/>
<path fill="#4E4E4E" d="M71.386,119.384H51.91c-6.893,0-11.516-0.488-14.891-0.845c-0.956-0.101-1.798-0.19-2.546-0.251
	l-0.883-0.073c-2.616-0.218-3.125-0.25-3.725,0.05c-0.769,0.385-1.174,0.36-2.675,0.268c-0.38-0.023-0.838-0.051-1.399-0.079
	c-2.574-0.129-5.954-0.374-7.445-0.813c-1.532-0.451-1.305-2.146-1.104-3.642c0.046-0.339,0.092-0.687,0.123-1.032
	c0.251-2.796,1.052-4.566,2.452-5.411c1.545-0.933,2.698-0.78,4.161-0.584c0.195,0.026,0.398,0.053,0.612,0.079
	c0.314,0.038,7.771,0.947,15.209,2.275c4.694,0.837,8.012,2.098,9.1,2.919h4.148c0.272,0,0.492,0.221,0.492,0.492
	s-0.221,0.492-0.492,0.492h-4.254c-0.149,0-0.281-0.066-0.372-0.17c-0.437-0.339-3.139-1.755-8.796-2.764
	c-7.411-1.323-14.841-2.228-15.153-2.266c-0.218-0.027-0.425-0.054-0.624-0.08c-1.417-0.188-2.273-0.302-3.521,0.451
	c-1.112,0.671-1.759,2.194-1.98,4.656c-0.032,0.359-0.081,0.721-0.128,1.074c-0.215,1.6-0.244,2.375,0.406,2.567
	c1.09,0.321,3.653,0.596,7.215,0.774c0.567,0.028,1.028,0.057,1.411,0.08c1.478,0.091,1.658,0.093,2.175-0.166
	c0.866-0.433,1.583-0.374,4.247-0.151l0.881,0.073c0.755,0.062,1.604,0.152,2.569,0.253c3.354,0.354,7.946,0.839,14.787,0.839
	h19.476c0.272,0,0.492,0.221,0.492,0.492S71.658,119.384,71.386,119.384z"/>
<path fill="#4E4E4E" d="M17.741,117.006c-0.16,0-0.316-0.077-0.412-0.218c-0.363-0.535-0.131-1.37,0.191-2.524l0.081-0.289
	c0.063-0.232,0.121-0.5,0.184-0.791c0.233-1.077,0.552-2.551,1.507-3.855c1.411-1.925,3.256-1.641,5.811-1.249
	c0.376,0.058,0.773,0.119,1.191,0.177c3.111,0.429,9.904,1.547,15.802,2.602c5.764,1.031,7.828,3.29,7.913,3.386
	c0.181,0.203,0.162,0.514-0.041,0.695c-0.201,0.18-0.511,0.164-0.694-0.039c-0.033-0.036-1.985-2.112-7.351-3.072
	c-5.791-1.035-12.715-2.175-15.764-2.595c-0.423-0.059-0.824-0.12-1.206-0.179c-2.64-0.407-3.852-0.528-4.866,0.857
	c-0.831,1.135-1.113,2.436-1.339,3.481c-0.067,0.311-0.129,0.596-0.197,0.844l-0.081,0.292c-0.167,0.599-0.419,1.505-0.321,1.713
	c0.153,0.225,0.092,0.528-0.133,0.681C17.931,116.979,17.835,117.006,17.741,117.006z"/>
<path fill="#4E4E4E" d="M19.606,116.594c-0.097,0-0.196-0.029-0.283-0.089c-0.222-0.156-0.276-0.462-0.121-0.684l0,0
	c0.006-0.009,0.612-0.901,0.541-2.069c-0.069-1.153,0.049-2.819,1.869-3.974c1.382-0.877,3.306-1.001,5.568-0.359
	c2.453,0.696,5.351,1.215,8.613,1.543c1.504,0.151,2.796,0.209,4.047,0.265c2.137,0.096,3.982,0.178,6.201,0.693
	c0.265,0.061,0.43,0.326,0.369,0.591c-0.062,0.265-0.326,0.428-0.591,0.368c-2.13-0.494-3.934-0.574-6.022-0.668
	c-1.264-0.056-2.57-0.115-4.101-0.269c-3.32-0.334-6.275-0.864-8.783-1.575c-1.385-0.393-3.335-0.668-4.772,0.243
	c-1.079,0.685-1.502,1.607-1.413,3.083c0.091,1.522-0.685,2.645-0.718,2.692C19.914,116.521,19.761,116.594,19.606,116.594z"/>
<path fill="#4E4E4E" d="M26.554,116.293c-4.781,0-6.636-2.303-6.712-2.401c-0.167-0.214-0.129-0.524,0.085-0.691
	c0.213-0.168,0.522-0.13,0.689,0.082c0.021,0.025,1.68,2.025,5.938,2.025c3.388,0,4.027-1.097,4.263-1.675
	c-0.32-0.251-0.867-0.698-1.585-1.353c-0.885-0.806-4.107-2.084-6.83-0.461c-0.233,0.139-0.535,0.063-0.675-0.171
	c-0.139-0.234-0.063-0.536,0.171-0.675c3.106-1.853,6.799-0.513,7.996,0.579c1.113,1.014,1.809,1.518,1.816,1.523
	c0.107,0.078,0.179,0.195,0.199,0.325c0.02,0.131-0.013,0.264-0.093,0.37c-0.002,0.01-0.017,0.054-0.037,0.105
	C31.346,115.002,30.361,116.293,26.554,116.293z"/>
<path fill="#4E4E4E" d="M22.04,112.891c-0.093,0-0.187-0.026-0.271-0.082c-0.227-0.15-0.289-0.455-0.138-0.682
	c1.033-1.561,3.577-2.053,3.685-2.073c0.262-0.051,0.524,0.126,0.574,0.393c0.051,0.267-0.125,0.524-0.392,0.575
	c-0.022,0.004-2.243,0.437-3.046,1.649C22.357,112.814,22.2,112.891,22.04,112.891z"/>
<path fill="#4E4E4E" d="M27.568,116.256c-4.813,0-5.686-2.494-5.721-2.6c-0.085-0.258,0.056-0.536,0.315-0.621
	c0.255-0.083,0.532,0.055,0.619,0.309c0.034,0.093,0.762,1.928,4.787,1.928c0.272,0,0.492,0.221,0.492,0.492
	S27.839,116.256,27.568,116.256z"/>
<path fill="#4E4E4E" d="M71.386,117.141H56.67c-7.214,0-10.626-0.609-14.338-1.406c-1.889-0.405-3.082-0.655-4.085-0.864
	c-1.095-0.229-1.964-0.41-3.264-0.696c-2.805-0.617-3.003-2.303-3.01-2.375c-0.016-0.162,0.049-0.322,0.174-0.426
	c0.126-0.105,0.294-0.14,0.45-0.096c0.013,0.004,1.365,0.382,3.692,0.631c0.575,0.061,1.15,0.104,1.71,0.146
	c1.823,0.137,3.545,0.267,4.693,0.973c1.232,0.757,3.429,1.364,6.188,1.709c2.566,0.321,19.353,0.351,19.522,0.352h3.501
	c0.272,0,0.492,0.221,0.492,0.492s-0.221,0.492-0.492,0.492h-3.502c-0.694-0.001-17.018-0.031-19.644-0.359
	c-2.896-0.362-5.233-1.018-6.581-1.847c-0.945-0.581-2.552-0.702-4.252-0.83c-0.571-0.043-1.156-0.087-1.741-0.149
	c-1.123-0.12-2.022-0.267-2.669-0.393c0.331,0.264,0.854,0.537,1.678,0.718c1.296,0.285,2.162,0.466,3.254,0.694
	c1.005,0.21,2.199,0.459,4.091,0.865c3.654,0.784,7.015,1.384,14.131,1.384h14.716c0.272,0,0.492,0.221,0.492,0.492
	S71.658,117.141,71.386,117.141z"/>
<path fill="#4E4E4E" d="M71.14,114.132H53.604c-0.58,0-1.051-0.471-1.051-1.05v-7.048c0-0.579,0.471-1.051,1.051-1.051H71.14
	c0.272,0,0.492,0.221,0.492,0.492s-0.221,0.492-0.492,0.492H53.604c-0.037,0-0.066,0.029-0.066,0.066v7.048
	c0,0.036,0.029,0.066,0.066,0.066H71.14c0.272,0,0.492,0.221,0.492,0.492C71.632,113.912,71.412,114.132,71.14,114.132z"/>
<path fill="#4E4E4E" d="M70.686,113.446H54.302c-0.58,0-1.051-0.471-1.051-1.05v-6.059c0-0.272,0.221-0.492,0.492-0.492
	c0.272,0,0.492,0.221,0.492,0.492v6.059c0,0.036,0.029,0.066,0.066,0.066h16.385c0.272,0,0.492,0.221,0.492,0.492
	S70.958,113.446,70.686,113.446z"/>
<path fill="#4E4E4E" d="M71.386,98.377h-1.723c-1.185,0-2.128-0.914-2.347-2.275c-0.013-0.054-0.48-2.089-0.55-2.819
	c-0.056-0.583,0.138-1.154,0.549-1.606c0.452-0.497,1.125-0.795,1.801-0.795h2.393c0.272,0,0.492,0.221,0.492,0.492
	s-0.221,0.492-0.492,0.492h-2.393c-0.403,0-0.804,0.176-1.072,0.472c-0.222,0.244-0.328,0.546-0.299,0.849
	c0.065,0.667,0.531,2.705,0.537,2.726c0.113,0.699,0.538,1.479,1.381,1.479h1.723c0.272,0,0.492,0.221,0.492,0.492
	S71.658,98.377,71.386,98.377z"/>
<path fill="#4E4E4E" d="M43.412,86.943c-0.16,0-0.317-0.078-0.412-0.222c-3.378-5.134-6.705-14.465-6.846-14.86
	c-0.091-0.256,0.044-0.538,0.299-0.629c0.258-0.091,0.538,0.044,0.629,0.3c0.034,0.096,3.428,9.614,6.74,14.648
	c0.149,0.227,0.086,0.532-0.141,0.682C43.599,86.916,43.505,86.943,43.412,86.943z"/>
<path fill="#4E4E4E" d="M28.995,72.28c-0.056,0-0.112-0.009-0.167-0.029c-0.934-0.338-1.566-0.857-1.877-1.542
	c-0.288-0.633-0.281-1.38,0.021-2.16c0.413-1.07,1.51-3.913,4.32-9.11c2.722-5.036,6.285-9.744,6.32-9.791
	c0.164-0.216,0.474-0.26,0.69-0.094c0.217,0.164,0.259,0.473,0.095,0.69c-0.035,0.046-3.553,4.697-6.238,9.663
	c-2.78,5.142-3.861,7.943-4.268,8.997c-0.142,0.368-0.265,0.909-0.043,1.397c0.199,0.435,0.641,0.78,1.316,1.024
	c0.256,0.092,0.389,0.375,0.296,0.631C29.385,72.155,29.196,72.28,28.995,72.28z"/>
<path fill="#4E4E4E" d="M45.376,120.354c-3.22,0-7.265-0.07-10.503-0.315c-2.527-0.192-4.97-0.24-7.334-0.287
	c-2.664-0.053-5.418-0.107-8.225-0.371c-2.319-0.217-3.9-0.864-4.697-1.921c-0.649-0.861-0.522-1.662-0.505-1.75
	c0.05-0.267,0.307-0.445,0.575-0.393c0.265,0.05,0.44,0.303,0.394,0.568c-0.004,0.03-0.063,0.492,0.344,1.011
	c0.436,0.557,1.481,1.271,3.981,1.506c2.77,0.26,5.384,0.312,8.152,0.366c2.377,0.047,4.835,0.096,7.389,0.289
	c0.218,0.017,0.439,0.032,0.664,0.047c-1.953-0.218-3.989-0.48-6.041-0.793c-0.269-0.041-0.453-0.292-0.412-0.561
	c0.041-0.269,0.297-0.453,0.561-0.412c8.153,1.245,16.074,1.663,19.456,1.842c1.968,0.104,1.968,0.104,1.964,0.596
	c-0.003,0.483-0.485,0.501-0.743,0.511C49.527,120.319,47.659,120.354,45.376,120.354z"/>
<path fill="#4E4E4E" d="M26.865,135.454c-0.212,0-0.408-0.011-0.584-0.031l-3.802,0.003c-3.452,0-5.454-1.537-6.124-4.699
	c-0.677-3.194-1.114-8.309-1.132-8.525c-0.023-0.271,0.178-0.509,0.449-0.532c0.264-0.02,0.509,0.178,0.532,0.449
	c0.004,0.052,0.45,5.271,1.114,8.404c0.566,2.673,2.206,3.918,5.161,3.918h3.857c0.208,0.019,3.803,0.37,4.611-2.789
	c0.803-3.138,1.023-7.551,1.024-7.595c0.013-0.272,0.252-0.478,0.515-0.468c0.272,0.013,0.481,0.244,0.468,0.515
	c-0.009,0.185-0.226,4.557-1.054,7.792C31.174,134.737,28.552,135.454,26.865,135.454z"/>
<path fill="#4E4E4E" d="M44.486,116.163c-0.017,0-0.035-0.001-0.053-0.003c-0.037-0.004-3.702-0.39-8.024-0.552
	c-2.518-0.097-4.016,0.271-4.656,0.427c-0.381,0.093-0.74,0.18-0.946-0.172c-0.205-0.353,0.062-0.634,0.256-0.839
	c0.76-0.802,2.471-2.066,2.544-2.119c0.219-0.161,0.527-0.114,0.688,0.104c0.162,0.219,0.115,0.527-0.104,0.689
	c-0.011,0.008-0.741,0.547-1.44,1.125c0.862-0.14,2.08-0.259,3.694-0.199c4.356,0.163,8.054,0.553,8.091,0.557
	c0.271,0.029,0.467,0.271,0.438,0.541C44.949,115.976,44.735,116.163,44.486,116.163z"/>
<path fill="#4E4E4E" d="M20.715,78.657c-0.175,0-0.344-0.093-0.433-0.258c-0.03-0.056-0.74-1.377-0.956-2.716
	c-0.191-1.183-0.524-1.912-1.662-2.14c-1.404-0.281-4.249-0.669-4.278-0.673c-0.112-0.015-0.214-0.068-0.292-0.15
	c0,0-0.367-0.392-0.487-0.551c-0.126-0.167-0.477-0.74-0.477-0.74c-0.097-0.159-0.097-0.358,0.001-0.517
	c0.098-0.158,0.279-0.247,0.464-0.23l6.688,0.613c0.626,0.096,1.96,0.118,2.292-0.392c0.459-0.705,0.527-1.574,0.587-2.341
	c0.011-0.135,0.021-0.266,0.033-0.391c0.073-0.765-0.19-1.834-0.192-1.844c-0.063-0.253,0.082-0.512,0.331-0.589
	c0.252-0.077,0.516,0.053,0.607,0.297c0.028,0.075,0.695,1.883,0.673,4.719c-0.002,0.271-0.222,0.489-0.492,0.489
	c-0.001,0-0.003,0-0.004,0c-0.2-0.002-0.372-0.122-0.447-0.295c-0.076,0.168-0.165,0.333-0.27,0.494
	c-0.767,1.176-2.985,0.869-3.237,0.831l-5.615-0.514c0.049,0.055,0.101,0.112,0.146,0.16c0.649,0.09,2.917,0.41,4.165,0.659
	c1.789,0.358,2.238,1.691,2.441,2.948c0.19,1.176,0.843,2.392,0.849,2.403c0.129,0.239,0.041,0.538-0.198,0.668
	C20.875,78.638,20.794,78.657,20.715,78.657z"/>
<path fill="#4E4E4E" d="M22.511,75.428h-2.842c-0.272,0-0.492-0.221-0.492-0.492s0.221-0.492,0.492-0.492h2.842
	c0.272,0,0.492,0.221,0.492,0.492S22.783,75.428,22.511,75.428z"/>
<path fill="#4E4E4E" d="M18.373,74.392c-0.497,0-1.217-0.075-2.244-0.317c-2.307-0.545-2.957-1.251-3.064-1.387
	c-0.168-0.213-0.131-0.523,0.083-0.691c0.211-0.165,0.514-0.131,0.682,0.071c0.029,0.03,0.581,0.589,2.526,1.048
	c1.939,0.458,2.55,0.234,2.555,0.233c0.24-0.129,0.524-0.032,0.653,0.207c0.129,0.239,0.026,0.545-0.214,0.674
	C19.249,74.283,18.972,74.392,18.373,74.392z"/>
<path fill="#4E4E4E" d="M12.549,71.667c-0.199,0-0.386-0.121-0.46-0.318c-0.008-0.019-0.181-0.481-0.388-1.376
	c-0.147-0.635-0.297-1.466-0.147-2.267c0.167-0.889,0.632-1.544,1.607-2.262c1.25-0.92,4.034-0.975,6.773-0.96l0.576,0.003
	c1.725,0,2.36,1.074,2.455,1.642c0.044,0.268-0.137,0.522-0.405,0.567c-0.261,0.043-0.517-0.133-0.565-0.397
	c-0.019-0.091-0.214-0.827-1.485-0.827l-0.582-0.003c-1.78-0.011-5.092-0.035-6.183,0.769c-0.881,0.649-1.121,1.113-1.222,1.65
	c-0.117,0.621,0.012,1.322,0.138,1.863c0.191,0.822,0.349,1.246,0.351,1.25c0.096,0.254-0.033,0.538-0.287,0.634
	C12.666,71.656,12.607,71.667,12.549,71.667z"/>
<path fill="#4E4E4E" d="M16.493,70.86c-0.112,0-0.205-0.01-0.263-0.017l-0.387-0.038c-1.535-0.144-3.232-0.343-3.955-0.875
	c-0.219-0.162-0.265-0.47-0.104-0.689c0.16-0.219,0.468-0.266,0.689-0.104c0.563,0.415,2.669,0.614,3.462,0.688
	c0.163,0.015,0.301,0.029,0.405,0.04c0.058,0.006,0.104,0.009,0.142,0.01c-0.009-0.033-0.022-0.074-0.042-0.123
	c-0.056-0.145-0.066-0.171-0.845-0.343c-0.213-0.047-0.462-0.102-0.757-0.175c-1.955-0.483-2.973-0.973-3.015-0.994
	c-0.244-0.119-0.346-0.414-0.226-0.658c0.119-0.245,0.415-0.346,0.658-0.228c0.01,0.004,0.978,0.469,2.82,0.923
	c0.285,0.071,0.527,0.124,0.733,0.169c0.808,0.178,1.296,0.285,1.553,0.951c0.068,0.177,0.275,0.714-0.038,1.12
	C17.099,70.805,16.749,70.86,16.493,70.86z"/>
<path fill="#4E4E4E" d="M18.583,69.023c-1.848,0-4.542-0.897-5.543-1.255c-0.256-0.092-0.389-0.373-0.297-0.629
	c0.091-0.256,0.371-0.389,0.63-0.298c2.551,0.912,5.609,1.546,6.098,1.038c0.99-1.028,1.616-2.005,1.622-2.015
	c0.146-0.229,0.449-0.297,0.68-0.151c0.23,0.146,0.297,0.45,0.151,0.679c-0.027,0.043-0.681,1.067-1.743,2.17
	C19.859,68.895,19.281,69.023,18.583,69.023z"/>
<path fill="#4E4E4E" d="M20.646,71.667c-0.034,0-0.069-0.004-0.104-0.011c-0.265-0.057-0.435-0.319-0.378-0.584l0,0
	c-0.001,0,0.066-0.45-0.273-1.231c-0.325-0.75-0.557-0.964-0.596-0.996c-0.217-0.115-0.319-0.378-0.228-0.613
	c0.099-0.254,0.387-0.379,0.637-0.28c0.198,0.077,0.603,0.374,1.09,1.498c0.471,1.086,0.347,1.756,0.332,1.829
	C21.078,71.509,20.873,71.667,20.646,71.667z"/>
<path fill="#4E4E4E" d="M47.629,48.362c-0.254,0-0.469-0.195-0.49-0.452c-0.022-0.271,0.18-0.509,0.451-0.531
	c0.113-0.009,11.366-0.918,19.201-0.918h6.319c0.272,0,0.492,0.221,0.492,0.492c0,0.272-0.22,0.492-0.492,0.492h-6.319
	c-7.795,0-19.008,0.905-19.121,0.915C47.656,48.361,47.643,48.362,47.629,48.362z"/>
<path fill="#4E4E4E" d="M47.905,49.031c-1.179,0-1.805-0.201-2.046-0.638c-0.168-0.305-0.081-0.618,0.044-0.793
	c0.158-0.221,0.465-0.273,0.687-0.114c0.146,0.104,0.217,0.273,0.205,0.44c0.187,0.065,0.676,0.165,1.86,0.097
	c0.265-0.024,0.504,0.192,0.52,0.463c0.015,0.272-0.192,0.505-0.464,0.52C48.418,49.023,48.15,49.031,47.905,49.031z"/>
<path fill="#4E4E4E" d="M46.987,71.083c-0.183,0-0.359-0.103-0.444-0.279c-0.06-0.125-1.473-3.102-1.389-6.221
	c0.081-3.004,0.658-4.645,3.588-5.282c1.845-0.402,7.967-1.441,9.237,2.035c1.102,3.017,0.512,7.134-0.73,9.086
	c-0.146,0.23-0.449,0.297-0.68,0.151c-0.23-0.146-0.297-0.45-0.151-0.68c1.093-1.719,1.623-5.518,0.636-8.22
	c-0.792-2.169-4.86-2.116-8.104-1.411c-2.153,0.468-2.732,1.362-2.812,4.346c-0.078,2.876,1.278,5.74,1.291,5.768
	c0.118,0.245,0.014,0.539-0.231,0.657C47.131,71.067,47.059,71.083,46.987,71.083z"/>
<path fill="#4E4E4E" d="M21.287,119.535c-1.492,0-2.614-0.395-3.334-1.173c-0.88-0.951-0.799-2.117-0.796-2.166
	c0.021-0.271,0.253-0.481,0.53-0.452c0.27,0.021,0.472,0.256,0.453,0.526c-0.003,0.043-0.04,0.81,0.547,1.434
	c0.527,0.561,1.402,0.846,2.601,0.846c0.272,0,0.492,0.221,0.492,0.492S21.559,119.535,21.287,119.535z"/>
<path fill="#4E4E4E" d="M30.15,118.131c-0.185,0-0.363-0.105-0.446-0.285c-0.072-0.156-0.051-0.372,0.045-0.515
	c0.206-0.311,0.688-1.036,14.332-0.45c7.862,0.339,10.286,0.063,11.026-0.121c-0.024-0.104-0.015-0.215,0.034-0.317
	c0.117-0.246,0.403-0.355,0.647-0.238c0.376,0.18,0.566,0.51,0.483,0.84c-0.133,0.53-0.337,1.331-12.233,0.821
	c-11.043-0.475-13.145-0.038-13.51,0.088c-0.046,0.054-0.103,0.1-0.171,0.132C30.291,118.116,30.22,118.131,30.15,118.131z"/>
<path fill="#4E4E4E" d="M109.56,124.583c-2.54,0-4.842-0.356-7.379-0.748c-2.455-0.38-4.993-0.772-8.167-0.917
	c-7.978-0.364-23.331-0.302-23.486-0.3c-0.001,0-0.001,0-0.002,0c-0.271,0-0.491-0.219-0.492-0.49
	c-0.001-0.272,0.218-0.493,0.49-0.495c0.153-0.001,15.532-0.064,23.534,0.302c3.227,0.147,5.908,0.562,8.273,0.928
	c3.664,0.567,6.83,1.057,10.919,0.472c2.684-0.383,5.247-0.411,7.306-0.433c3.009-0.032,5.386-0.058,5.754-1.164
	c0.724-2.17,1.905-13.981,1.78-17.799c-0.03-0.931-0.043-1.999-0.057-3.145c-0.042-3.426-0.093-7.689-0.674-10.897
	c-0.801-4.43-1.884-7.07-3.737-9.112c-0.681-0.751-1.108-1.111-1.451-1.4c-0.739-0.623-1.112-0.988-2.23-3.089
	c-0.661-1.243-0.909-2.146-1.223-3.289c-0.525-1.909-1.243-4.525-4.482-10.747c-2.665-5.118-5.008-8.135-6.823-9.948
	c3.121,3.908,6.552,10.864,7.626,13.253c0.224,0.497,0.455,0.955,0.669,1.381c0.855,1.699,1.593,3.167,0.297,4.462
	c-1.128,1.128-4.492,1.061-8.773,0.856c-0.758-0.036-1.471-0.071-2.09-0.086c-3.456-0.087-26.511-0.297-34.171-0.297
	c-0.272,0-0.492-0.221-0.492-0.492s0.221-0.492,0.492-0.492c7.664,0,30.736,0.211,34.196,0.297c0.626,0.016,1.346,0.05,2.112,0.087
	c2.836,0.135,7.12,0.34,8.03-0.569c0.76-0.761,0.402-1.568-0.481-3.324c-0.22-0.437-0.457-0.908-0.687-1.419
	c-1.078-2.395-4.552-9.439-7.646-13.225c-2.821-3.452-4.484-3.272-4.502-3.273c-0.222,0.034-0.46-0.103-0.538-0.323
	c-0.078-0.221,0.003-0.464,0.203-0.584c0.108-0.065,1.105-0.611,2.699,0.233c1.358,0.719,5.492,2.907,10.751,13.009
	c3.288,6.315,4.022,8.988,4.559,10.941c0.309,1.127,0.533,1.941,1.142,3.087c1.075,2.023,1.383,2.282,1.996,2.799
	c0.365,0.308,0.819,0.691,1.545,1.491c1.987,2.19,3.139,4.971,3.977,9.598c0.595,3.289,0.647,7.598,0.689,11.061
	c0.014,1.138,0.027,2.2,0.057,3.125c0.119,3.669-1.01,15.679-1.83,18.143c-0.591,1.772-3.145,1.799-6.678,1.837
	c-2.136,0.023-4.557,0.049-7.177,0.423C112.026,124.502,110.766,124.583,109.56,124.583z"/>
<path fill="#4E4E4E" d="M102.937,51.499c-0.801,0-2.039-0.099-3.988-0.254c-1.351-0.108-3.014-0.24-5.028-0.377
	c-8.339-0.567-22.437-0.573-22.578-0.573c-0.272,0-0.492-0.221-0.492-0.492s0.221-0.492,0.492-0.492
	c0.142,0,14.273,0.007,22.645,0.576c2.019,0.137,3.685,0.27,5.04,0.377c1.996,0.159,3.543,0.281,4.243,0.247
	c-0.937-1.066-1.992-1.384-3.918-1.784c-1.432-0.298-3.255-0.352-4.116-0.359c-0.012,0.028-0.026,0.057-0.042,0.085
	c-0.265,0.473-0.961,0.637-2.265,0.529c-2.813-0.232-13.906-0.663-19.449-0.663h-3.046c-0.272,0-0.492-0.221-0.492-0.492
	c0-0.272,0.221-0.492,0.492-0.492h3.046c5.562,0,16.702,0.433,19.529,0.666c0.729,0.061,1.08,0.013,1.241-0.029
	c-0.021-0.105-0.008-0.216,0.042-0.315c0.082-0.164,0.249-0.27,0.432-0.273c0.111-0.002,2.787-0.045,4.827,0.38
	c2.01,0.418,3.419,0.804,4.632,2.306c0.285,0.353,0.355,0.676,0.205,0.959C104.211,51.364,103.874,51.499,102.937,51.499z"/>
<path fill="#4E4E4E" d="M110.708,71.481c-0.481,0-1.02-0.042-1.613-0.088c-0.653-0.051-1.394-0.109-2.228-0.131
	c-0.739-0.019-2.03-0.036-3.641-0.058c-5.135-0.068-13.73-0.182-17.849-0.559c-5.297-0.485-13.791-0.694-13.876-0.696h-0.294
	c-0.272,0-0.492-0.221-0.492-0.492s0.221-0.492,0.492-0.492h0.305c0.097,0.002,8.624,0.211,13.954,0.699
	c4.081,0.374,12.652,0.488,17.772,0.556c1.617,0.021,2.914,0.039,3.654,0.058c0.86,0.022,1.614,0.081,2.28,0.133
	c1.731,0.134,2.577,0.176,2.912-0.355c0.569-0.904-0.33-2.87-1.467-5.359c-1.299-2.843-5.152-9.914-6.15-10.989
	c-0.969-1.044-1.226-1.245-3.561-1.361c-0.962-0.048-3.008-0.197-5.377-0.371c-3.674-0.268-7.838-0.572-9-0.572l-0.263,0
	c-1.819,0-2.577,0.022-3.208,0.64c-0.157,0.153-0.288,0.298-0.41,0.43c-0.54,0.593-1.007,1.105-2.478,1.105
	c-0.804,0-2.383-0.054-3.91-0.106c-1.493-0.051-2.903-0.099-3.598-0.099h-2.7c-0.272,0-0.492-0.221-0.492-0.492
	s0.221-0.492,0.492-0.492h2.7c0.712,0,2.13,0.048,3.632,0.1c1.519,0.052,3.089,0.105,3.876,0.105c1.037,0,1.26-0.246,1.751-0.783
	c0.133-0.146,0.277-0.304,0.449-0.472c0.945-0.923,2.049-0.917,3.898-0.92l0.262,0c1.198,0,5.381,0.305,9.071,0.575
	c2.265,0.165,4.404,0.322,5.354,0.369c2.568,0.128,3.061,0.412,4.234,1.675c1.158,1.248,5.067,8.5,6.323,11.249
	c1.36,2.974,2.258,4.939,1.405,6.293C112.466,71.296,111.714,71.481,110.708,71.481z"/>
<path fill="#4E4E4E" d="M115.352,87.345c-0.022,0-0.044-0.001-0.065-0.004c-0.27-0.036-0.459-0.284-0.423-0.553
	c0.009-0.069,0.916-6.944,0.796-11.122c-0.07-2.422-0.569-3.21-0.863-3.465c-0.857,1.688-4.394,8.417-8.681,13.321
	c-0.18,0.205-0.49,0.226-0.694,0.046c-0.205-0.179-0.226-0.49-0.047-0.695c4.824-5.518,8.696-13.42,8.734-13.499
	c0.072-0.147,0.213-0.25,0.375-0.272c0.079-0.012,0.491-0.045,0.939,0.333c0.748,0.633,1.16,2.046,1.222,4.202
	c0.122,4.258-0.767,10.995-0.805,11.28C115.807,87.165,115.595,87.345,115.352,87.345z"/>
<path fill="#4E4E4E" d="M72.948,90.176h-2.421c-0.272,0-0.492-0.221-0.492-0.492c0-0.272,0.221-0.492,0.492-0.492h24.782
	c0.023,0,3.058-0.052,8.042-0.896c1.941-0.329,4.02-0.646,6.029-0.953c3.221-0.492,6.265-0.956,8.057-1.368l0.383-0.088
	c2.32-0.532,5.415-1.242,6.561-1.895c-0.226-0.363-0.71-0.975-1.627-1.516c-1.737-1.024-2.205-1.492-2.811-3.743
	c-0.458-1.701-0.767-3.255-1.095-4.901l-0.271-1.346c-0.054-0.266,0.118-0.526,0.385-0.581c0.261-0.053,0.526,0.117,0.581,0.384
	l0.271,1.35c0.324,1.629,0.631,3.168,1.08,4.837c0.544,2.02,0.876,2.276,2.359,3.15c1.734,1.023,2.205,2.297,2.224,2.351
	c0.067,0.186,0.015,0.394-0.13,0.528c-0.892,0.821-3.591,1.488-7.308,2.34l-0.383,0.088c-1.828,0.42-4.888,0.887-8.128,1.381
	c-2.006,0.306-4.081,0.623-6.014,0.95c-5.067,0.858-8.074,0.908-8.2,0.91H72.948z"/>
<path fill="#4E4E4E" d="M90.377,103.914c-0.219,0-0.419-0.147-0.476-0.369c-0.068-0.263,0.09-0.532,0.354-0.6
	c2.926-0.756,6.762-1.114,10.823-1.492c2.943-0.274,5.986-0.558,9.094-1.014c1.16-0.17,2.302-0.322,3.407-0.469
	c5.802-0.772,10.814-1.439,11.756-3.975c0.66-1.776,0.753-3.511,0.707-4.694c-0.778,0.762-2.037,1.265-3.572,1.879
	c-0.321,0.128-0.656,0.262-1.003,0.405c-1.814,0.747-4.377,1.447-6.637,2.064c-1.28,0.349-2.488,0.679-3.453,0.986
	c-2.457,0.782-5.723,1.655-7.333,1.37c-1.333-0.235-3.168-0.198-3.186-0.198c-0.185-0.002-0.337-0.084-0.428-0.232
	c-0.092-0.147-0.1-0.332-0.02-0.486c0.006-0.013,0.661-1.283,1.387-2.816c0.723-1.525,1.821-4.354,1.832-4.382
	c0.099-0.254,0.381-0.38,0.637-0.281c0.253,0.098,0.379,0.383,0.281,0.637c-0.046,0.117-1.122,2.891-1.86,4.448
	c-0.399,0.842-0.776,1.606-1.039,2.129c0.694,0.013,1.711,0.06,2.567,0.211c1.094,0.194,3.589-0.296,6.863-1.338
	c0.984-0.313,2.202-0.646,3.492-0.998c2.234-0.61,4.765-1.3,6.522-2.024c0.35-0.144,0.688-0.28,1.012-0.409
	c2.346-0.939,3.58-1.483,3.777-2.663c0.039-0.233,0.239-0.406,0.476-0.411c0.21-0.011,0.444,0.16,0.492,0.391
	c0.028,0.135,0.678,3.338-0.591,6.755c-1.149,3.091-6.18,3.761-12.55,4.608c-1.101,0.146-2.239,0.298-3.395,0.467
	c-3.134,0.46-6.19,0.745-9.145,1.02c-4.021,0.375-7.819,0.729-10.668,1.465C90.46,103.909,90.418,103.914,90.377,103.914z"/>
<path fill="#4E4E4E" d="M116.603,93.326c-1.742,0-3.159-1.417-3.159-3.159s1.417-3.159,3.159-3.159s3.159,1.417,3.159,3.159
	c0,0.434-0.087,0.855-0.258,1.251c-0.108,0.25-0.399,0.364-0.647,0.257c-0.25-0.108-0.365-0.397-0.257-0.647
	c0.117-0.272,0.177-0.562,0.177-0.86c0-1.199-0.976-2.175-2.175-2.175c-1.199,0-2.175,0.975-2.175,2.175
	c0,1.199,0.976,2.175,2.175,2.175c0.272,0,0.492,0.221,0.492,0.492S116.875,93.326,116.603,93.326z"/>
<path fill="#4E4E4E" d="M116.603,92.49c-1.281,0-2.323-1.042-2.323-2.323c0-0.272,0.221-0.492,0.492-0.492s0.492,0.221,0.492,0.492
	c0,0.738,0.601,1.338,1.339,1.338s1.338-0.6,1.338-1.338c0-0.738-0.6-1.339-1.338-1.339c-0.272,0-0.492-0.221-0.492-0.492
	s0.221-0.492,0.492-0.492c1.281,0,2.323,1.042,2.323,2.323C118.926,91.448,117.884,92.49,116.603,92.49z"/>
<path fill="#4E4E4E" d="M108.825,95.11c-1.742,0-3.159-1.417-3.159-3.159s1.417-3.159,3.159-3.159c1.742,0,3.159,1.417,3.159,3.159
	c0,0.435-0.087,0.856-0.257,1.251c-0.108,0.25-0.4,0.363-0.647,0.257c-0.25-0.108-0.365-0.397-0.257-0.647
	c0.117-0.271,0.176-0.561,0.176-0.861c0-1.199-0.976-2.175-2.175-2.175c-1.199,0-2.175,0.975-2.175,2.175
	c0,1.199,0.976,2.175,2.175,2.175c0.272,0,0.492,0.221,0.492,0.492S109.097,95.11,108.825,95.11z"/>
<path fill="#4E4E4E" d="M108.825,94.273c-1.281,0-2.323-1.042-2.323-2.323c0-0.272,0.221-0.492,0.492-0.492s0.492,0.221,0.492,0.492
	c0,0.738,0.6,1.338,1.338,1.338s1.339-0.6,1.339-1.338s-0.601-1.338-1.339-1.338c-0.272,0-0.492-0.221-0.492-0.492
	s0.221-0.492,0.492-0.492c1.281,0,2.323,1.042,2.323,2.323S110.106,94.273,108.825,94.273z"/>
<path fill="#4E4E4E" d="M107.782,96.248c-0.033,0-0.065-0.003-0.099-0.01c-1.123-0.228-3.217-1.372-3.106-4.073
	c0.133-3.257,2.549-4.42,2.652-4.467c0.247-0.116,0.539-0.008,0.654,0.238c0.115,0.246,0.009,0.538-0.237,0.653
	c-0.085,0.041-1.978,0.979-2.086,3.616c-0.104,2.527,2.221,3.047,2.321,3.068c0.265,0.056,0.436,0.316,0.381,0.582
	C108.215,96.088,108.011,96.248,107.782,96.248z"/>
<path fill="#4E4E4E" d="M105.399,97.249c-0.48,0-0.893-0.063-1.299-0.124c-0.256-0.039-0.512-0.078-0.786-0.098
	c-0.905-0.068-1.183,0.011-1.196,0.014c-0.247,0.106-0.523-0.014-0.631-0.265c-0.107-0.25,0.024-0.545,0.274-0.652
	c0.119-0.051,0.517-0.162,1.626-0.079c0.3,0.022,0.58,0.064,0.86,0.107c0.733,0.111,1.427,0.217,2.542-0.09l0.937-0.254
	c2.687-0.724,8.979-2.42,12.024-3.588l0.65-0.249c2.92-1.117,3.613-1.383,4.493-2.368c0.624-0.699,0.426-2.846,0.155-4.035
	c-0.06-0.265,0.106-0.529,0.371-0.589c0.266-0.061,0.53,0.105,0.59,0.37c0.083,0.366,0.781,3.609-0.38,4.91
	c-1.039,1.164-1.852,1.475-4.875,2.632l-0.649,0.249c-3.093,1.187-9.419,2.892-12.12,3.62l-0.932,0.252
	C106.4,97.189,105.868,97.249,105.399,97.249z"/>
<path fill="#4E4E4E" d="M78.487,101.418h-7.398c-0.272,0-0.492-0.221-0.492-0.492c0-0.272,0.221-0.492,0.492-0.492h7.398
	c2.159,0,6.652,0,12.169-2.181c5.348-2.115,9.318-4.975,10.038-5.983c0.759-1.063,1.391-3.448,1.398-3.472
	c0.07-0.263,0.342-0.418,0.601-0.351c0.263,0.069,0.421,0.338,0.351,0.601c-0.028,0.105-0.686,2.586-1.549,3.794
	c-0.889,1.244-5.131,4.212-10.477,6.326C86.002,101.151,81.869,101.418,78.487,101.418z"/>
<path fill="#4E4E4E" d="M74.888,100.065c-0.133,0-0.208-0.001-0.224-0.001h-3.808c-0.272,0-0.492-0.221-0.492-0.492
	s0.221-0.492,0.492-0.492h3.816c0.033,0.001,2.772,0.035,8.496-0.409c5.681-0.44,8.272-2.321,10.777-4.139
	c2.398-1.741,4.564-5.338,4.586-5.374c0.14-0.233,0.44-0.31,0.675-0.17c0.233,0.139,0.31,0.441,0.17,0.675
	c-0.092,0.155-2.289,3.806-4.844,5.66c-2.502,1.816-5.329,3.868-11.288,4.33C78.325,100.033,75.647,100.065,74.888,100.065z"/>
<path fill="#4E4E4E" d="M70.855,105.972c-0.267,0-0.486-0.213-0.492-0.48c-0.006-0.272,0.208-0.497,0.48-0.504
	c0.051-0.001,5.109-0.13,11.742-0.75c6.709-0.627,7.552-0.78,10.738-3.288c1.202-0.947,2.709-2.225,4.129-3.46
	c-1.433,0.881-2.958,1.789-4.286,2.515c-4.532,2.479-9.137,2.849-11.479,2.849H70.855c-0.272,0-0.492-0.221-0.492-0.492
	s0.221-0.492,0.492-0.492h10.832c2.248,0,6.667-0.355,11.006-2.729c3.835-2.098,9.347-5.734,9.402-5.771
	c0.215-0.142,0.502-0.094,0.66,0.109c0.158,0.203,0.133,0.493-0.057,0.666c-0.054,0.05-5.508,5.012-8.766,7.578
	c-3.423,2.695-4.621,2.875-11.255,3.495c-6.669,0.624-11.758,0.753-11.809,0.755C70.863,105.972,70.859,105.972,70.855,105.972z"/>
<path fill="#4E4E4E" d="M78.199,97.248h-2.093c-0.272,0-0.492-0.221-0.492-0.492c0-0.272,0.221-0.492,0.492-0.492h1.909l0.969-0.839
	c0.09-0.078,0.204-0.12,0.322-0.12h2.397l0.994-0.77c0.086-0.067,0.192-0.103,0.301-0.103h2.444l1.201-1.025
	c0.089-0.076,0.203-0.118,0.32-0.118h1.993l1.58-1.5c0.197-0.187,0.508-0.18,0.696,0.018c0.187,0.197,0.179,0.509-0.018,0.696
	l-1.723,1.635c-0.092,0.087-0.213,0.135-0.339,0.135h-2.007l-1.201,1.025c-0.089,0.076-0.203,0.118-0.32,0.118h-2.457l-0.995,0.77
	c-0.086,0.067-0.192,0.103-0.301,0.103h-2.382l-0.969,0.839C78.432,97.206,78.318,97.248,78.199,97.248z"/>
<path fill="#4E4E4E" d="M90.453,119.389H71.224c-0.272,0-0.492-0.221-0.492-0.492s0.221-0.492,0.492-0.492h19.229
	c6.842,0,11.435-0.485,14.789-0.839c0.964-0.102,1.814-0.191,2.568-0.253l0.876-0.073c2.671-0.222,3.388-0.283,4.253,0.15
	c0.515,0.258,0.694,0.256,2.172,0.166c0.383-0.023,0.845-0.052,1.413-0.08c3.563-0.178,6.126-0.453,7.216-0.774
	c0.651-0.191,0.621-0.966,0.406-2.566c-0.047-0.354-0.096-0.716-0.128-1.076c-0.221-2.462-0.868-3.984-1.98-4.655
	c-1.248-0.754-2.103-0.641-3.52-0.451c-0.199,0.026-0.406,0.054-0.624,0.08c-0.312,0.038-7.721,0.94-15.153,2.266
	c-5.656,1.009-8.36,2.426-8.796,2.765c-0.09,0.104-0.223,0.17-0.372,0.17h-4.253c-0.272,0-0.492-0.221-0.492-0.492
	s0.221-0.492,0.492-0.492h4.148c1.089-0.821,4.406-2.082,9.1-2.919c7.46-1.331,14.896-2.236,15.209-2.274
	c0.213-0.026,0.417-0.053,0.612-0.079c1.461-0.194,2.614-0.348,4.159,0.584c1.399,0.844,2.201,2.614,2.452,5.41
	c0.031,0.345,0.078,0.693,0.123,1.033c0.201,1.495,0.429,3.191-1.103,3.641c-1.491,0.438-4.872,0.684-7.446,0.813
	c-0.563,0.028-1.021,0.056-1.401,0.079c-1.5,0.092-1.903,0.117-2.672-0.268c-0.601-0.301-1.112-0.269-3.731-0.05l-0.878,0.073
	c-0.748,0.061-1.589,0.15-2.545,0.251C101.97,118.901,97.347,119.389,90.453,119.389z"/>
<path fill="#4E4E4E" d="M124.627,117.009c-0.095,0-0.191-0.028-0.276-0.085c-0.225-0.153-0.284-0.459-0.131-0.684
	c0.094-0.202-0.156-1.103-0.322-1.7l-0.083-0.3c-0.068-0.248-0.13-0.533-0.197-0.843c-0.226-1.046-0.508-2.347-1.339-3.482
	c-1.014-1.385-2.226-1.263-4.866-0.857c-0.381,0.059-0.783,0.121-1.207,0.179c-3.052,0.421-9.977,1.561-15.763,2.595
	c-5.431,0.971-7.331,3.049-7.35,3.07c-0.181,0.204-0.493,0.221-0.695,0.041c-0.203-0.181-0.222-0.492-0.041-0.695
	c0.085-0.096,2.149-2.355,7.913-3.385c5.797-1.036,12.738-2.179,15.802-2.602c0.419-0.058,0.815-0.119,1.192-0.177
	c2.555-0.392,4.4-0.676,5.81,1.249c0.955,1.304,1.274,2.779,1.507,3.856c0.063,0.291,0.121,0.558,0.185,0.791l0.082,0.297
	c0.32,1.15,0.551,1.982,0.189,2.516C124.94,116.933,124.785,117.009,124.627,117.009z"/>
<path fill="#4E4E4E" d="M122.758,116.599c-0.155,0-0.308-0.073-0.403-0.209c-0.033-0.047-0.81-1.17-0.719-2.693
	c0.089-1.476-0.334-2.398-1.413-3.083c-1.435-0.911-3.387-0.636-4.772-0.243c-2.505,0.711-5.46,1.241-8.783,1.575
	c-1.531,0.154-2.837,0.213-4.101,0.269c-2.088,0.094-3.892,0.174-6.022,0.668c-0.266,0.061-0.53-0.103-0.591-0.368
	c-0.062-0.265,0.103-0.53,0.369-0.591c2.218-0.514,4.063-0.597,6.201-0.692c1.249-0.056,2.543-0.114,4.046-0.265
	c3.266-0.329,6.164-0.848,8.613-1.543c2.263-0.641,4.188-0.517,5.568,0.359c1.819,1.155,1.938,2.821,1.869,3.974
	c-0.071,1.182,0.535,2.058,0.54,2.067c0.156,0.222,0.103,0.53-0.119,0.686C122.954,116.57,122.856,116.599,122.758,116.599z"/>
<path fill="#4E4E4E" d="M115.809,116.298c-3.806,0-4.792-1.291-5.225-2.417c-0.02-0.052-0.035-0.096-0.052-0.127
	c-0.079-0.106-0.106-0.228-0.085-0.359c0.02-0.131,0.099-0.237,0.206-0.314c0.007-0.005,0.703-0.509,1.816-1.523
	c1.198-1.091,4.891-2.431,7.996-0.579c0.234,0.139,0.31,0.441,0.171,0.675c-0.14,0.233-0.442,0.31-0.675,0.171
	c-2.724-1.623-5.944-0.345-6.83,0.461c-0.718,0.655-1.266,1.102-1.585,1.353c0.237,0.578,0.875,1.675,4.263,1.675
	c4.265,0,5.923-2.005,5.939-2.026c0.17-0.211,0.48-0.247,0.69-0.079c0.212,0.168,0.25,0.475,0.083,0.688
	C122.445,113.995,120.59,116.298,115.809,116.298z"/>
<path fill="#4E4E4E" d="M120.323,112.896c-0.16,0-0.317-0.078-0.411-0.221c-0.802-1.212-3.023-1.645-3.045-1.649
	c-0.267-0.05-0.443-0.308-0.392-0.575c0.05-0.267,0.31-0.444,0.574-0.393c0.108,0.02,2.652,0.513,3.684,2.073
	c0.151,0.227,0.088,0.532-0.138,0.682C120.51,112.87,120.416,112.896,120.323,112.896z"/>
<path fill="#4E4E4E" d="M114.796,116.262c-0.272,0-0.492-0.221-0.492-0.492c0-0.272,0.221-0.492,0.492-0.492
	c4.043,0,4.759-1.85,4.788-1.929c0.091-0.253,0.372-0.388,0.624-0.302c0.255,0.088,0.392,0.36,0.309,0.615
	C120.483,113.768,119.61,116.262,114.796,116.262z"/>
<path fill="#4E4E4E" d="M85.694,117.146H71.224c-0.272,0-0.492-0.221-0.492-0.492s0.221-0.492,0.492-0.492h14.469
	c7.117,0,10.478-0.6,14.132-1.384c1.901-0.408,3.098-0.658,4.106-0.868c1.084-0.226,1.948-0.407,3.238-0.69
	c0.825-0.181,1.348-0.454,1.678-0.718c-0.646,0.126-1.546,0.273-2.669,0.393c-0.585,0.063-1.171,0.107-1.742,0.15
	c-1.699,0.128-3.304,0.249-4.249,0.83c-1.348,0.829-3.686,1.485-6.581,1.847c-2.626,0.328-21.208,0.358-21.998,0.36h-0.001
	c-0.272,0-0.492-0.22-0.492-0.492c-0.001-0.272,0.22-0.493,0.492-0.493c0.193,0,19.311-0.031,21.877-0.352
	c2.759-0.345,4.956-0.952,6.188-1.709c1.148-0.706,2.869-0.836,4.691-0.973c0.562-0.042,1.137-0.086,1.712-0.147
	c2.328-0.248,3.679-0.626,3.692-0.63c0.155-0.045,0.324-0.009,0.45,0.096c0.125,0.104,0.19,0.264,0.174,0.426
	c-0.007,0.071-0.203,1.758-3.01,2.375c-1.294,0.284-2.161,0.465-3.249,0.692c-1.006,0.21-2.201,0.46-4.1,0.867
	C96.32,116.537,92.908,117.146,85.694,117.146z"/>
<path fill="#4E4E4E" d="M88.76,114.137H71.224c-0.272,0-0.492-0.221-0.492-0.492s0.221-0.492,0.492-0.492H88.76
	c0.037,0,0.066-0.029,0.066-0.066v-7.048c0-0.037-0.029-0.066-0.066-0.066H71.224c-0.272,0-0.492-0.221-0.492-0.492
	s0.221-0.492,0.492-0.492H88.76c0.58,0,1.051,0.472,1.051,1.051v7.048C89.811,113.666,89.34,114.137,88.76,114.137z"/>
<path fill="#4E4E4E" d="M88.062,113.451H70.527c-0.272,0-0.492-0.221-0.492-0.492s0.221-0.492,0.492-0.492h17.536
	c0.037,0,0.066-0.029,0.066-0.066v-6.059c0-0.272,0.221-0.492,0.492-0.492s0.492,0.221,0.492,0.492v6.059
	C89.113,112.98,88.642,113.451,88.062,113.451z"/>
<path fill="#4E4E4E" d="M72.701,98.382h-1.723c-0.272,0-0.492-0.221-0.492-0.492s0.221-0.492,0.492-0.492h1.723
	c0.402,0,0.983-0.156,1.389-1.51l0,0c-0.001,0,0.464-2.029,0.528-2.694c0.029-0.303-0.077-0.605-0.299-0.849
	c-0.268-0.296-0.669-0.472-1.072-0.472h-2.393c-0.272,0-0.492-0.221-0.492-0.492s0.221-0.492,0.492-0.492h2.393
	c0.676,0,1.349,0.297,1.801,0.795c0.411,0.453,0.606,1.023,0.549,1.606c-0.071,0.73-0.537,2.764-0.556,2.851
	C74.594,97.638,73.809,98.382,72.701,98.382z"/>
<path fill="#4E4E4E" d="M98.952,86.948c-0.093,0-0.187-0.026-0.27-0.081c-0.227-0.149-0.29-0.455-0.141-0.682
	c3.313-5.034,6.706-14.553,6.74-14.648c0.091-0.256,0.372-0.389,0.629-0.3c0.256,0.091,0.39,0.372,0.299,0.629
	c-0.14,0.395-3.467,9.727-6.845,14.86C99.269,86.87,99.112,86.948,98.952,86.948z"/>
<path fill="#4E4E4E" d="M113.369,72.285c-0.201,0-0.39-0.124-0.463-0.325c-0.093-0.256,0.04-0.538,0.296-0.631
	c0.674-0.244,1.117-0.589,1.316-1.024c0.222-0.488,0.099-1.029-0.042-1.397c-0.407-1.054-1.489-3.855-4.269-8.997
	c-2.686-4.969-6.202-9.617-6.237-9.663c-0.164-0.217-0.122-0.525,0.095-0.69c0.217-0.165,0.526-0.121,0.69,0.094
	c0.035,0.047,3.598,4.756,6.319,9.791c2.809,5.198,3.907,8.041,4.32,9.111c0.301,0.78,0.308,1.527,0.021,2.16
	c-0.312,0.685-0.944,1.204-1.877,1.541C113.482,72.275,113.425,72.285,113.369,72.285z"/>
<path fill="#4E4E4E" d="M96.988,120.359c-2.284,0-4.15-0.035-5.021-0.068c-0.258-0.01-0.74-0.028-0.743-0.511
	c-0.004-0.492-0.004-0.492,1.964-0.596c3.382-0.179,11.302-0.597,19.456-1.842c0.267-0.038,0.52,0.143,0.561,0.412
	s-0.144,0.52-0.412,0.561c-2.052,0.313-4.088,0.574-6.042,0.793c0.225-0.015,0.447-0.031,0.665-0.047
	c2.554-0.193,5.012-0.242,7.389-0.289c2.768-0.055,5.382-0.107,8.152-0.366c2.532-0.238,3.573-0.965,4.002-1.533
	c0.389-0.516,0.325-0.972,0.324-0.976c-0.05-0.267,0.126-0.525,0.393-0.575c0.267-0.05,0.524,0.126,0.575,0.393
	c0.017,0.088,0.144,0.89-0.505,1.751c-0.797,1.057-2.377,1.704-4.696,1.921c-2.807,0.263-5.561,0.318-8.225,0.371
	c-2.364,0.047-4.808,0.095-7.334,0.287C104.253,120.29,100.207,120.359,96.988,120.359z"/>
<path fill="#4E4E4E" d="M115.468,135.462c-1.649,0-4.277-0.716-5.004-3.56c-0.828-3.235-1.046-7.607-1.055-7.792
	c-0.013-0.271,0.196-0.502,0.468-0.515c0.263-0.005,0.503,0.196,0.515,0.468c0.002,0.044,0.223,4.459,1.025,7.595
	c0.812,3.175,4.404,2.81,4.556,2.792l3.911-0.003c2.955,0,4.595-1.245,5.161-3.918c0.664-3.134,1.109-8.352,1.114-8.405
	c0.023-0.271,0.272-0.466,0.532-0.449c0.271,0.023,0.472,0.261,0.449,0.532c-0.018,0.216-0.455,5.332-1.132,8.526
	c-0.669,3.162-2.672,4.699-6.124,4.699h-3.857C115.861,135.451,115.672,135.462,115.468,135.462z"/>
<path fill="#4E4E4E" d="M97.878,116.168c-0.249,0-0.462-0.188-0.489-0.44c-0.029-0.27,0.167-0.513,0.438-0.541
	c0.037-0.004,3.734-0.394,8.091-0.556c1.616-0.059,2.833,0.059,3.695,0.199c-0.699-0.579-1.43-1.117-1.441-1.125
	c-0.219-0.161-0.266-0.47-0.104-0.689c0.16-0.219,0.469-0.266,0.688-0.104c0.073,0.054,1.784,1.317,2.544,2.119
	c0.194,0.205,0.461,0.487,0.256,0.839c-0.206,0.352-0.564,0.264-0.946,0.172c-0.64-0.156-2.139-0.522-4.656-0.427
	c-4.322,0.162-7.987,0.547-8.024,0.551C97.913,116.167,97.895,116.168,97.878,116.168z"/>
<path fill="#4E4E4E" d="M121.65,78.662c-0.079,0-0.16-0.019-0.234-0.059c-0.239-0.13-0.328-0.428-0.199-0.667
	c0.007-0.012,0.661-1.233,0.85-2.404c0.203-1.257,0.651-2.59,2.441-2.948c1.248-0.249,3.516-0.57,4.164-0.659
	c0.044-0.048,0.096-0.104,0.145-0.159l-5.645,0.517c-0.22,0.035-2.439,0.342-3.206-0.834c-0.105-0.161-0.194-0.326-0.27-0.494
	c-0.076,0.172-0.247,0.293-0.447,0.295c-0.001,0-0.003,0-0.004,0c-0.27,0-0.49-0.218-0.492-0.489
	c-0.022-2.836,0.644-4.644,0.673-4.719c0.091-0.244,0.354-0.375,0.607-0.297c0.249,0.078,0.394,0.336,0.331,0.589
	c-0.003,0.011-0.265,1.079-0.192,1.844c0.012,0.125,0.022,0.256,0.033,0.391c0.06,0.767,0.128,1.636,0.587,2.341
	c0.333,0.509,1.669,0.485,2.262,0.395l6.718-0.617c0.185-0.013,0.365,0.072,0.464,0.23c0.098,0.158,0.099,0.358,0.001,0.517
	c0,0-0.351,0.572-0.476,0.738c-0.121,0.16-0.489,0.552-0.489,0.552c-0.078,0.082-0.18,0.135-0.292,0.15
	c-0.029,0.004-2.874,0.392-4.278,0.673c-1.139,0.228-1.471,0.957-1.662,2.14c-0.216,1.339-0.926,2.66-0.956,2.716
	C121.993,78.569,121.824,78.662,121.65,78.662z"/>
<path fill="#4E4E4E" d="M122.694,75.433h-2.842c-0.272,0-0.492-0.221-0.492-0.492s0.221-0.492,0.492-0.492h2.842
	c0.272,0,0.492,0.221,0.492,0.492S122.966,75.433,122.694,75.433z"/>
<path fill="#4E4E4E" d="M123.991,74.397c-0.599,0-0.876-0.108-0.976-0.163c-0.24-0.129-0.329-0.428-0.2-0.667
	c0.13-0.239,0.428-0.328,0.667-0.2c-0.006-0.001,0.098,0.045,0.497,0.045c0.39,0,1.035-0.056,2.03-0.291
	c1.989-0.47,2.521-1.044,2.527-1.049c0.178-0.198,0.485-0.225,0.689-0.054c0.203,0.171,0.24,0.466,0.076,0.675
	c-0.107,0.136-0.756,0.841-3.064,1.387C125.209,74.322,124.488,74.397,123.991,74.397z"/>
<path fill="#4E4E4E" d="M129.815,71.672c-0.058,0-0.116-0.01-0.174-0.032c-0.254-0.096-0.383-0.38-0.287-0.634
	c0.002-0.004,0.16-0.429,0.351-1.25c0.125-0.54,0.254-1.241,0.137-1.863c-0.101-0.538-0.34-1.001-1.221-1.65
	c-1.092-0.803-4.407-0.781-6.182-0.769l-0.583,0.003c-1.332,0-1.482,0.811-1.483,0.82c-0.045,0.268-0.305,0.447-0.567,0.405
	c-0.269-0.045-0.449-0.298-0.405-0.567c0.095-0.568,0.73-1.642,2.455-1.642l0.576-0.003c2.737-0.017,5.522,0.04,6.772,0.96
	c0.974,0.717,1.439,1.372,1.606,2.261c0.151,0.802,0.001,1.633-0.146,2.267c-0.208,0.895-0.381,1.357-0.389,1.376
	C130.201,71.551,130.013,71.671,129.815,71.672z"/>
<path fill="#4E4E4E" d="M125.872,70.865c-0.256,0-0.606-0.055-0.828-0.342c-0.313-0.406-0.106-0.944-0.038-1.12
	c0.231-0.599,0.637-0.659,1.151-0.735c0.298-0.044,0.706-0.104,1.318-0.263c1.7-0.441,2.464-0.853,2.471-0.857
	c0.237-0.13,0.537-0.044,0.669,0.194c0.131,0.238,0.046,0.536-0.192,0.668c-0.035,0.019-0.861,0.472-2.7,0.949
	c-0.664,0.172-1.121,0.239-1.423,0.284c-0.138,0.02-0.293,0.043-0.356,0.063c-0.001,0.007-0.01,0.024-0.019,0.05
	c-0.019,0.049-0.033,0.09-0.042,0.123c0.037-0.001,0.084-0.003,0.142-0.01c0.103-0.011,0.241-0.024,0.405-0.04
	c0.792-0.074,2.899-0.272,3.462-0.688c0.221-0.162,0.528-0.114,0.689,0.104c0.162,0.219,0.115,0.527-0.104,0.689
	c-0.723,0.532-2.42,0.731-3.955,0.875l-0.387,0.038C126.076,70.855,125.983,70.865,125.872,70.865z"/>
<path fill="#4E4E4E" d="M123.78,69.028c-0.698,0-1.276-0.128-1.596-0.461c-1.062-1.104-1.716-2.127-1.743-2.17
	c-0.146-0.23-0.078-0.533,0.151-0.68c0.23-0.146,0.534-0.078,0.68,0.151c0.006,0.01,0.632,0.987,1.622,2.015
	c0.489,0.509,3.548-0.126,6.099-1.039c0.256-0.092,0.538,0.042,0.63,0.298c0.092,0.256-0.042,0.538-0.297,0.629
	C128.323,68.131,125.629,69.028,123.78,69.028z"/>
<path fill="#4E4E4E" d="M121.714,71.666c-0.226,0-0.428-0.154-0.478-0.384c-0.015-0.073-0.138-0.743,0.333-1.829
	c0.487-1.124,0.892-1.42,1.09-1.497c0.251-0.098,0.539,0.027,0.637,0.281c0.091,0.235-0.01,0.497-0.228,0.613
	c-0.039,0.032-0.271,0.246-0.596,0.996c-0.342,0.787-0.272,1.238-0.272,1.242c0.044,0.264-0.13,0.52-0.392,0.57
	C121.777,71.663,121.745,71.666,121.714,71.666z"/>
<path fill="#4E4E4E" d="M94.735,48.367c-0.013,0-0.027-0.001-0.04-0.002c-0.113-0.009-11.327-0.915-19.121-0.915h-6.319
	c-0.272,0-0.492-0.221-0.492-0.492s0.22-0.492,0.492-0.492h6.319c7.834,0,19.088,0.909,19.201,0.918
	c0.271,0.022,0.473,0.26,0.451,0.531C95.204,48.172,94.989,48.367,94.735,48.367z"/>
<path fill="#4E4E4E" d="M94.46,49.036c-0.245,0-0.514-0.009-0.807-0.026c-0.272-0.016-0.479-0.248-0.464-0.52
	c0.016-0.272,0.249-0.483,0.52-0.463c1.184,0.068,1.674-0.031,1.86-0.096c-0.013-0.166,0.059-0.336,0.205-0.44
	c0.221-0.159,0.53-0.107,0.687,0.114c0.125,0.175,0.212,0.488,0.043,0.793C96.264,48.836,95.638,49.036,94.46,49.036z"/>
<path fill="#4E4E4E" d="M95.377,71.088c-0.072,0-0.144-0.016-0.213-0.049c-0.246-0.118-0.349-0.412-0.231-0.657
	c0.013-0.029,1.37-2.892,1.292-5.768c-0.081-2.984-0.659-3.878-2.812-4.346c-3.243-0.706-7.312-0.759-8.104,1.411
	c-0.987,2.702-0.458,6.501,0.636,8.22c0.146,0.229,0.078,0.534-0.151,0.68c-0.23,0.146-0.534,0.079-0.68-0.151
	c-1.242-1.953-1.832-6.07-0.73-9.086c1.269-3.476,7.391-2.436,9.237-2.035c2.93,0.637,3.507,2.278,3.588,5.282
	c0.084,3.119-1.329,6.096-1.389,6.221C95.736,70.985,95.56,71.088,95.377,71.088z"/>
<path fill="#4E4E4E" d="M121.077,119.54c-0.272,0-0.492-0.221-0.492-0.492s0.221-0.492,0.492-0.492c1.207,0,2.085-0.288,2.611-0.857
	c0.581-0.629,0.538-1.413,0.537-1.421c-0.021-0.271,0.181-0.508,0.453-0.529c0.28-0.022,0.508,0.181,0.53,0.452
	c0.004,0.049,0.084,1.215-0.796,2.166C123.691,119.145,122.57,119.54,121.077,119.54z"/>
<path fill="#4E4E4E" d="M112.214,118.136c-0.07,0-0.14-0.015-0.208-0.046c-0.069-0.032-0.126-0.077-0.171-0.132
	c-0.363-0.125-2.468-0.563-13.51-0.088c-11.897,0.51-12.101-0.291-12.233-0.821c-0.083-0.33,0.107-0.66,0.483-0.84
	c0.247-0.117,0.539-0.013,0.656,0.232c0.051,0.106,0.06,0.221,0.035,0.326c0.753,0.183,3.189,0.455,11.016,0.119
	c13.642-0.586,14.125,0.14,14.332,0.45c0.096,0.143,0.117,0.359,0.045,0.515C112.576,118.03,112.399,118.136,112.214,118.136z"/>
<g>
	<defs>
		<path id="SVGID_1_" d="M44.296,47.985c0,0,5.243-1.035,10.23,0.183c4.987,1.219,11.773-0.113,22.043-0.409
			s12.176-1.276,24.822,0.929s10.696-19.116,10.696-19.116s-9.734-14.977-12.465-16.12C96.892,12.309,71.905,1.719,67.748,1.445
			c-4.157-0.274-17.613-3.712-22.182,1.1s-8.704,34.484-8.666,34.915S44.296,47.985,44.296,47.985z"/>
	</defs>
	<clipPath id="SVGID_2_">
		<use xlink:href="#SVGID_1_"  overflow="visible"/>
	</clipPath>
	<g id="Expanded_2_" clip-path="url(#SVGID_2_)">
		<g>
			<g>
				<path fill="#4E4E4E" d="M65.068,72.323c-0.42,0-0.837-0.065-1.239-0.195l-4.525-1.454c-1.03-0.331-1.871-1.045-2.366-2.01
					c-0.496-0.965-0.587-2.064-0.256-3.094l1.241-3.864c-1.123-0.784-2.173-1.676-3.13-2.658l-3.612,1.856
					c-0.542,0.279-1.161,0.426-1.789,0.426c-1.55,0-2.992-0.856-3.674-2.18l-2.173-4.228c-0.496-0.962-0.587-2.062-0.255-3.095
					c0.331-1.033,1.046-1.874,2.01-2.368l3.612-1.857c-0.242-1.348-0.355-2.721-0.337-4.09l-3.863-1.241
					c-1.03-0.331-1.871-1.044-2.366-2.009c-0.496-0.965-0.587-2.064-0.256-3.094l1.454-4.526c0.331-1.032,1.044-1.873,2.007-2.368
					c0.955-0.489,2.078-0.581,3.096-0.254l3.864,1.241c0.787-1.126,1.678-2.176,2.657-3.129l-1.855-3.612
					c-0.495-0.963-0.585-2.062-0.253-3.094c0.331-1.032,1.044-1.874,2.007-2.368l4.227-2.173c0.542-0.279,1.162-0.425,1.791-0.425
					c1.551,0,2.993,0.856,3.673,2.18l1.856,3.613c1.35-0.241,2.732-0.354,4.089-0.338l1.241-3.864
					c0.541-1.685,2.095-2.817,3.866-2.817c0.419,0,0.836,0.066,1.238,0.195l4.525,1.454c1.03,0.331,1.871,1.044,2.366,2.009
					c0.496,0.965,0.587,2.064,0.256,3.095l-1.241,3.864c1.122,0.783,2.171,1.674,3.128,2.655l3.613-1.856
					c0.543-0.278,1.162-0.425,1.791-0.425c1.551,0,2.993,0.856,3.673,2.18l2.173,4.228c0.496,0.964,0.586,2.063,0.255,3.095
					c-0.332,1.033-1.046,1.874-2.01,2.368l-3.611,1.856c0.242,1.351,0.355,2.724,0.338,4.092l3.863,1.241
					c1.03,0.331,1.871,1.044,2.366,2.009c0.496,0.965,0.587,2.064,0.256,3.094l-1.453,4.526c-0.331,1.032-1.045,1.873-2.008,2.368
					c-0.951,0.489-2.078,0.582-3.096,0.254l-3.864-1.241c-0.785,1.125-1.676,2.175-2.657,3.13l1.855,3.612
					c1.022,1.99,0.235,4.44-1.755,5.462l-4.228,2.173c-0.542,0.278-1.161,0.425-1.79,0.425c-1.55,0-2.992-0.856-3.673-2.18
					l-1.854-3.612c-1.345,0.241-2.723,0.351-4.09,0.338l-1.241,3.864C68.392,71.191,66.838,72.323,65.068,72.323z M54.893,57.95
					c0.133,0,0.263,0.054,0.358,0.155c1.06,1.126,2.246,2.133,3.527,2.995c0.181,0.122,0.261,0.35,0.194,0.559l-1.353,4.214
					c-0.251,0.78-0.181,1.612,0.194,2.343c0.376,0.731,1.012,1.272,1.792,1.523l4.525,1.454c0.305,0.098,0.621,0.147,0.938,0.147
					c1.341,0,2.518-0.857,2.929-2.134l1.353-4.213c0.067-0.208,0.263-0.361,0.483-0.341c1.545,0.046,3.098-0.083,4.608-0.381
					c0.212-0.044,0.433,0.063,0.533,0.258l2.021,3.938c0.514,0.999,1.612,1.646,2.798,1.645c0.473,0,0.937-0.109,1.34-0.317
					l4.228-2.173c1.507-0.774,2.103-2.63,1.329-4.137l-2.023-3.939c-0.101-0.195-0.06-0.433,0.101-0.584
					c1.123-1.056,2.129-2.243,2.993-3.525c0.122-0.182,0.348-0.261,0.559-0.194l4.214,1.353c0.78,0.25,1.616,0.182,2.344-0.193
					c0.729-0.375,1.269-1.012,1.521-1.793l1.453-4.526c0.251-0.78,0.181-1.612-0.194-2.343s-1.012-1.272-1.792-1.522l-4.212-1.353
					c-0.209-0.067-0.348-0.264-0.342-0.483c0.046-1.541-0.081-3.091-0.381-4.608c-0.042-0.215,0.063-0.433,0.258-0.533l3.938-2.024
					c0.73-0.374,1.27-1.011,1.522-1.793c0.251-0.781,0.182-1.614-0.193-2.343l-2.173-4.228c-0.514-0.999-1.612-1.645-2.798-1.645
					c-0.473,0-0.937,0.11-1.341,0.317l-3.938,2.023c-0.195,0.1-0.433,0.059-0.583-0.1c-1.059-1.124-2.244-2.131-3.524-2.991
					c-0.181-0.122-0.261-0.35-0.194-0.559l1.353-4.214c0.251-0.78,0.181-1.612-0.194-2.343s-1.012-1.272-1.792-1.522l-4.525-1.454
					c-0.305-0.098-0.62-0.147-0.937-0.147c-1.342,0-2.519,0.857-2.929,2.134l-1.353,4.214c-0.067,0.208-0.233,0.356-0.483,0.341
					c-1.54-0.047-3.089,0.082-4.606,0.38c-0.219,0.043-0.433-0.063-0.533-0.258l-2.024-3.939c-0.514-1-1.612-1.646-2.798-1.646
					c-0.474,0-0.937,0.109-1.341,0.317l-4.227,2.173c-0.729,0.374-1.269,1.012-1.52,1.793c-0.251,0.782-0.183,1.614,0.191,2.343
					l2.023,3.939c0.101,0.195,0.06,0.433-0.101,0.584c-1.121,1.054-2.128,2.24-2.993,3.524c-0.123,0.182-0.348,0.26-0.559,0.194
					l-4.213-1.353c-0.778-0.249-1.615-0.181-2.346,0.193c-0.729,0.375-1.269,1.011-1.519,1.793l-1.454,4.526
					c-0.251,0.78-0.181,1.612,0.194,2.343c0.376,0.731,1.012,1.272,1.792,1.522l4.213,1.353c0.209,0.067,0.348,0.264,0.342,0.484
					c-0.047,1.543,0.081,3.093,0.379,4.607c0.043,0.215-0.062,0.433-0.258,0.533l-3.939,2.025c-0.73,0.374-1.271,1.011-1.522,1.793
					c-0.251,0.782-0.183,1.614,0.193,2.343l2.173,4.228c0.515,1,1.614,1.646,2.798,1.646c0.472,0,0.936-0.11,1.339-0.317
					l3.938-2.024C54.739,57.967,54.817,57.95,54.893,57.95z M65.069,69.946c-0.174,0-0.347-0.027-0.514-0.081l-4.525-1.454
					c-0.427-0.137-0.775-0.432-0.98-0.832c-0.206-0.4-0.243-0.855-0.106-1.282l1.633-5.084c0.098-0.306-0.026-0.639-0.301-0.807
					c-0.588-0.359-1.218-0.619-1.828-0.87c-1.089-0.449-2.216-0.913-3.104-1.943c-0.083-0.096-0.192-0.168-0.314-0.207
					c-0.174-0.055-0.365-0.04-0.528,0.044c-0.026,0.014-0.054,0.025-0.082,0.034l-4.366,1.348c-0.216,0.103-0.458,0.156-0.703,0.156
					l0,0c-0.64,0-1.235-0.355-1.518-0.905l-2.173-4.228c-0.202-0.394-0.24-0.861-0.105-1.282c0.135-0.419,0.437-0.777,0.831-0.98
					l4.754-2.443c0.287-0.148,0.435-0.471,0.359-0.784c-0.477-1.96-0.643-3.976-0.495-5.993c0.024-0.322-0.174-0.616-0.481-0.715
					l-5.084-1.633c-0.427-0.137-0.775-0.432-0.98-0.832c-0.206-0.4-0.243-0.855-0.106-1.282l1.453-4.526
					c0.138-0.429,0.433-0.777,0.832-0.981c0.392-0.201,0.859-0.239,1.282-0.105l5.085,1.633c0.302,0.096,0.644-0.033,0.807-0.301
					c1.051-1.723,2.36-3.265,3.892-4.584c0.245-0.211,0.313-0.558,0.165-0.845l-2.442-4.752c-0.205-0.399-0.242-0.854-0.105-1.282
					c0.138-0.428,0.433-0.776,0.832-0.981l4.226-2.172c0.227-0.116,0.485-0.178,0.746-0.178c0.639,0,1.234,0.355,1.517,0.904
					l2.442,4.752c0.144,0.282,0.468,0.433,0.783,0.358c1.958-0.475,3.988-0.642,5.993-0.494c0.324-0.001,0.621-0.193,0.714-0.481
					l1.633-5.084c0.224-0.698,0.867-1.167,1.601-1.167c0.174,0,0.347,0.027,0.514,0.081l4.526,1.454
					c0.426,0.137,0.774,0.432,0.98,0.831c0.206,0.4,0.243,0.855,0.106,1.282l-1.633,5.084c-0.099,0.306,0.025,0.637,0.299,0.804
					c1.723,1.051,3.264,2.36,4.584,3.892c0.205,0.239,0.564,0.311,0.844,0.166l4.754-2.442c0.227-0.116,0.485-0.178,0.746-0.178
					c0.639,0,1.234,0.355,1.517,0.905l2.173,4.228c0.202,0.393,0.24,0.861,0.105,1.282c-0.135,0.42-0.437,0.777-0.831,0.98
					L89.74,38.42c-0.287,0.148-0.435,0.471-0.359,0.784c0.477,1.965,0.644,3.981,0.495,5.994c-0.024,0.323,0.173,0.616,0.481,0.715
					l5.083,1.633c0.881,0.283,1.369,1.232,1.087,2.114l-1.454,4.526c-0.138,0.43-0.434,0.778-0.833,0.98
					c-0.389,0.2-0.857,0.239-1.28,0.104l-5.084-1.633c-0.298-0.096-0.644,0.033-0.807,0.301c-1.054,1.726-2.363,3.269-3.893,4.586
					c-0.245,0.211-0.313,0.558-0.165,0.845l2.442,4.753c0.205,0.399,0.242,0.854,0.105,1.282c-0.138,0.428-0.433,0.776-0.832,0.981
					l-4.227,2.173c-0.225,0.116-0.481,0.177-0.742,0.177c-0.642,0-1.239-0.355-1.522-0.903l-2.44-4.752
					c-0.146-0.282-0.476-0.433-0.785-0.358c-1.954,0.475-3.984,0.642-5.993,0.495c-0.368,0.015-0.621,0.192-0.714,0.481
					l-1.633,5.084C66.446,69.477,65.803,69.946,65.069,69.946z M54.818,56.369c0.174,0,0.347,0.027,0.513,0.08
					c0.294,0.095,0.556,0.268,0.758,0.501c0.735,0.853,1.706,1.253,2.734,1.676c0.646,0.266,1.312,0.54,1.967,0.94
					c0.664,0.406,0.962,1.207,0.725,1.948l-1.633,5.084c-0.056,0.177-0.041,0.365,0.044,0.53c0.085,0.166,0.229,0.288,0.406,0.345
					l4.525,1.454c0.363,0.116,0.761-0.092,0.876-0.45l1.633-5.083c0.237-0.737,0.937-1.221,1.723-1.162
					c1.907,0.14,3.834-0.019,5.69-0.47c0.755-0.181,1.54,0.184,1.891,0.865l2.441,4.753c0.158,0.306,0.626,0.462,0.939,0.301
					l4.227-2.173c0.165-0.085,0.287-0.229,0.344-0.406c0.057-0.177,0.042-0.366-0.043-0.531l-2.442-4.752
					c-0.357-0.692-0.194-1.532,0.398-2.041c1.451-1.25,2.694-2.714,3.695-4.352c0.392-0.646,1.224-0.959,1.949-0.726l5.083,1.633
					c0.177,0.057,0.367,0.041,0.532-0.044c0.165-0.084,0.286-0.227,0.343-0.404l1.454-4.526c0.117-0.365-0.085-0.758-0.451-0.876
					l-5.083-1.633c-0.743-0.238-1.221-0.948-1.162-1.726c0.141-1.909-0.017-3.823-0.469-5.688c-0.184-0.756,0.172-1.533,0.865-1.891
					l4.752-2.442c0.163-0.084,0.289-0.233,0.345-0.406c0.056-0.174,0.04-0.368-0.044-0.531l-2.173-4.228
					c-0.16-0.309-0.624-0.462-0.939-0.301l-4.752,2.441c-0.67,0.346-1.548,0.176-2.042-0.398c-1.253-1.454-2.716-2.696-4.349-3.693
					c-0.665-0.404-0.964-1.204-0.725-1.946l1.633-5.084c0.056-0.177,0.041-0.365-0.044-0.531c-0.085-0.166-0.23-0.288-0.406-0.345
					l-4.526-1.454c-0.362-0.116-0.76,0.093-0.876,0.45l-1.633,5.084c-0.237,0.737-0.942,1.214-1.723,1.162
					c-1.905-0.142-3.83,0.018-5.689,0.469c-0.748,0.181-1.542-0.184-1.891-0.866l-2.441-4.751c-0.16-0.31-0.623-0.462-0.939-0.301
					l-4.225,2.172c-0.165,0.085-0.287,0.229-0.344,0.406c-0.057,0.177-0.042,0.366,0.043,0.531l2.442,4.752
					c0.357,0.692,0.193,1.532-0.398,2.042c-1.453,1.252-2.696,2.716-3.693,4.351c-0.394,0.646-1.226,0.957-1.95,0.725l-5.084-1.633
					c-0.177-0.057-0.367-0.041-0.532,0.044c-0.165,0.084-0.287,0.228-0.344,0.405l-1.453,4.526
					c-0.056,0.177-0.041,0.365,0.044,0.531c0.085,0.166,0.229,0.288,0.406,0.345l5.084,1.633c0.742,0.238,1.22,0.948,1.162,1.725
					c-0.141,1.913,0.017,3.827,0.469,5.687c0.184,0.756-0.172,1.534-0.865,1.892l-4.753,2.443c-0.163,0.084-0.289,0.233-0.345,0.406
					c-0.056,0.174-0.04,0.368,0.044,0.531l2.173,4.227c0.114,0.221,0.372,0.37,0.642,0.37l0,0c0.107,0,0.207-0.023,0.296-0.069
					c0.025-0.013,0.052-0.024,0.079-0.032l4.365-1.348C54.316,56.427,54.567,56.369,54.818,56.369z"/>
			</g>
			<g>
				<path fill="#4E4E4E" d="M70.431,56.155c-1.279,0-2.55-0.2-3.777-0.594c-3.143-1.009-5.706-3.186-7.219-6.13
					s-1.789-6.295-0.78-9.438c1.65-5.139,6.388-8.592,11.791-8.592c1.279,0,2.55,0.2,3.777,0.594
					c6.497,2.086,10.086,9.07,7.999,15.568C80.571,52.702,75.833,56.155,70.431,56.155z M70.447,32.385
					c-4.973,0-9.334,3.179-10.854,7.909c-0.929,2.892-0.674,5.977,0.718,8.687c1.392,2.71,3.752,4.714,6.644,5.643
					c1.13,0.363,2.3,0.547,3.476,0.547c4.972,0,9.334-3.179,10.854-7.909c1.92-5.98-1.383-12.409-7.363-14.329
					C72.792,32.569,71.623,32.385,70.447,32.385z M70.433,53.778c-0.001,0-0.001,0-0.001,0c-1.033,0-2.06-0.162-3.051-0.48
					c-5.249-1.686-8.149-7.329-6.463-12.578c1.334-4.152,5.163-6.942,9.527-6.942c1.033,0,2.06,0.161,3.052,0.48
					c5.249,1.686,8.148,7.329,6.462,12.578C78.625,50.988,74.797,53.778,70.433,53.778z M70.445,34.762
					c-3.935,0-7.387,2.515-8.59,6.259c-1.519,4.733,1.094,9.82,5.827,11.34c0.894,0.287,1.819,0.432,2.75,0.432
					c3.935,0,7.387-2.515,8.59-6.259c1.519-4.733-1.094-9.819-5.826-11.34C72.302,34.908,71.377,34.762,70.445,34.762z"/>
			</g>
		</g>
	</g>
</g>
</svg>
