<?xml version="1.0" encoding="utf-8"?>
<!-- Generator: Adobe Illustrator 17.0.0, SVG Export Plug-In . SVG Version: 6.00 Build 0)  -->
<!DOCTYPE svg PUBLIC "-//W3C//DTD SVG 1.1//EN" "http://www.w3.org/Graphics/SVG/1.1/DTD/svg11.dtd">
<svg version="1.1" id="Слой_1" xmlns="http://www.w3.org/2000/svg" xmlns:xlink="http://www.w3.org/1999/xlink" x="0px" y="0px"
	 width="142px" height="125px" viewBox="0 0 142 125" enable-background="new 0 0 142 125" xml:space="preserve">
<path fill="#4E4E4E" d="M87.285,27.372c-8.932,0-19.687-0.518-30.685-1.584c-27.591-2.676-40.095-6.251-42.851-7.766
	c-0.783-0.431-1.248-1.184-1.344-2.178c-0.159-1.653,0.76-3.765,2.137-4.913c1.87-1.558,4.556-2.109,4.67-2.132
	c0.32-0.063,0.631,0.143,0.697,0.464c0.064,0.32-0.143,0.632-0.464,0.697c-0.025,0.005-2.509,0.518-4.144,1.88
	c-1.068,0.89-1.838,2.635-1.717,3.89c0.057,0.595,0.304,1.017,0.735,1.254c2.158,1.187,13.979,4.869,42.395,7.625
	c13.539,1.313,26.697,1.841,37.044,1.49c12.045-0.41,14.933-1.865,14.995-2.343c-0.179-2.764-0.673-4.411-1.604-5.342
	c-0.739-0.739-2.745-1.653-3.456-1.942c-0.303-0.123-0.448-0.469-0.325-0.772c0.123-0.303,0.469-0.449,0.772-0.325
	c0.113,0.046,2.786,1.142,3.846,2.201c1.149,1.149,1.75,3.031,1.948,6.103c0.018,0.265-0.048,0.663-0.455,1.057
	C107.69,26.469,99.078,27.372,87.285,27.372z"/>
<path fill="#4E4E4E" d="M87.149,18.315c-1.141,0-2.359-0.007-3.662-0.023c-12.385-0.149-62.854-3.567-64.383-8.028
	c-0.076-0.22-0.18-0.789,0.482-1.315c4.959-3.947,41.012-1.231,42.543-1.113c0.326,0.025,0.57,0.309,0.545,0.635
	c-0.025,0.326-0.322,0.57-0.636,0.545c-10.308-0.79-37.899-2.178-41.716,0.86c-0.03,0.024-0.052,0.044-0.067,0.06
	c1.952,3.025,45.874,6.963,63.245,7.172c16.145,0.197,18.86-0.905,19.318-1.274c-0.031-0.033-0.078-0.077-0.148-0.13
	c-1.436-1.094-11.018-3.069-17.108-4.13c-0.322-0.056-0.537-0.363-0.482-0.685c0.056-0.322,0.362-0.537,0.685-0.481
	c1.579,0.275,15.496,2.735,17.622,4.355c0.718,0.547,0.728,1.069,0.61,1.411C103.771,16.831,103.259,18.315,87.149,18.315z"/>
<path fill="#4E4E4E" d="M93.063,18.324c-0.265,0-0.506-0.18-0.573-0.448c-0.079-0.317,0.113-0.639,0.431-0.718
	c2.173-0.543,2.374-0.997,2.376-1.002c-0.309-0.984-7.756-3.091-20.938-4.379c-13.844-1.353-42.692-2.193-45.455-0.733
	c0.412,0.87,4.203,2.054,8.492,2.616c0.324,0.042,0.553,0.34,0.51,0.664c-0.042,0.324-0.335,0.555-0.664,0.51
	c-2.242-0.294-9.559-1.445-9.559-3.942c0-0.169,0.052-0.418,0.303-0.645c2.487-2.256,35.939-0.679,46.488,0.352
	c3.632,0.355,21.762,2.289,22,5.501c0.089,1.21-1.699,1.815-3.267,2.207C93.16,18.318,93.111,18.324,93.063,18.324z"/>
<path fill="#4E4E4E" d="M14.528,17.897c-0.031,0-0.062-0.002-0.094-0.007c-0.323-0.052-0.543-0.355-0.491-0.678
	c0.839-5.244,6.116-6.824,6.34-6.888c0.317-0.089,0.641,0.091,0.732,0.404c0.091,0.314-0.089,0.642-0.403,0.733
	c-0.048,0.014-4.781,1.446-5.501,5.938C15.066,17.689,14.814,17.897,14.528,17.897z"/>
<path fill="#4E4E4E" stroke="#FFFFFF" stroke-width="1.5" stroke-linecap="round" stroke-linejoin="round" stroke-miterlimit="10" d="
	M22.322,11.582"/>
<path fill="#4E4E4E" d="M17.39,19.377c-0.03,0-0.061-0.002-0.092-0.007c-0.323-0.05-0.544-0.353-0.494-0.676
	c0.937-6.035,5.564-7.335,5.76-7.387c0.318-0.083,0.641,0.104,0.725,0.419c0.084,0.316-0.103,0.64-0.419,0.724
	c-0.18,0.05-4.084,1.189-4.896,6.426C17.928,19.168,17.676,19.377,17.39,19.377z"/>
<path fill="#4E4E4E" d="M107.272,25.593c-0.327,0-0.592-0.265-0.592-0.592c0-5.342-5.081-7.219-5.132-7.237
	c-0.308-0.11-0.469-0.449-0.358-0.757c0.109-0.309,0.449-0.468,0.756-0.358c0.059,0.021,5.918,2.185,5.918,8.352
	C107.864,25.327,107.598,25.593,107.272,25.593z"/>
<path fill="#4E4E4E" d="M103.916,26.185c-0.281,0-0.53-0.201-0.582-0.487c-1.011-5.61-5.568-7.568-5.761-7.649
	c-0.301-0.126-0.445-0.472-0.32-0.773c0.125-0.301,0.47-0.447,0.772-0.321c0.218,0.089,5.345,2.267,6.475,8.532
	c0.058,0.322-0.156,0.63-0.478,0.688C103.986,26.181,103.951,26.185,103.916,26.185z"/>
<path fill="#4E4E4E" d="M99.674,27.073c-0.296,0-0.552-0.222-0.587-0.523c-0.742-6.309-5.046-8.392-5.09-8.413
	c-0.296-0.138-0.423-0.491-0.285-0.787c0.139-0.296,0.49-0.424,0.788-0.285c0.201,0.094,4.945,2.39,5.763,9.347
	c0.038,0.325-0.194,0.619-0.519,0.657C99.72,27.071,99.697,27.073,99.674,27.073z"/>
<path fill="#4E4E4E" d="M21.434,20.067c-0.321,0-0.584-0.256-0.592-0.578c-0.105-4.611,3.937-7.393,4.108-7.509
	c0.271-0.183,0.638-0.112,0.821,0.159c0.183,0.271,0.113,0.639-0.157,0.822c-0.037,0.025-3.678,2.546-3.588,6.501
	c0.007,0.327-0.252,0.598-0.579,0.605C21.443,20.067,21.439,20.067,21.434,20.067z"/>
<path fill="#4E4E4E" d="M25.085,21.153c-0.004,0-0.008,0-0.012,0c-0.327-0.007-0.587-0.277-0.58-0.604
	c0.103-5.234,3.227-8.015,3.361-8.131c0.245-0.213,0.618-0.189,0.833,0.057c0.215,0.246,0.19,0.619-0.055,0.835
	c-0.029,0.025-2.864,2.574-2.955,7.262C25.67,20.895,25.406,21.153,25.085,21.153z"/>
<path fill="#4E4E4E" d="M28.834,21.942c-0.327,0-0.592-0.265-0.592-0.592c0-5.516,2.729-8.208,2.845-8.319
	c0.236-0.226,0.61-0.22,0.837,0.016c0.227,0.235,0.22,0.609-0.015,0.836c-0.04,0.04-2.484,2.501-2.484,7.468
	C29.426,21.677,29.161,21.942,28.834,21.942z"/>
<path fill="#4E4E4E" d="M32.484,22.435c-0.003,0-0.006,0-0.009,0c-0.327-0.005-0.588-0.275-0.583-0.602
	c0.103-6.329,2.401-8.178,2.499-8.253c0.26-0.2,0.631-0.153,0.831,0.106c0.198,0.257,0.153,0.625-0.101,0.826
	c-0.048,0.04-1.954,1.707-2.045,7.34C33.071,22.177,32.807,22.435,32.484,22.435z"/>
<path fill="#4E4E4E" d="M36.43,23.126c-0.314,0-0.576-0.247-0.59-0.565c-0.203-4.353,1.76-8.136,1.843-8.295
	c0.153-0.29,0.51-0.4,0.799-0.248c0.289,0.152,0.401,0.51,0.249,0.799c-0.019,0.036-1.896,3.666-1.709,7.689
	c0.015,0.326-0.237,0.604-0.563,0.619C36.449,23.126,36.439,23.126,36.43,23.126z"/>
<path fill="#4E4E4E" d="M40.969,23.718c-0.287,0-0.538-0.209-0.584-0.5c-0.82-5.231,1.694-8.421,1.801-8.554
	c0.206-0.256,0.579-0.294,0.832-0.089c0.254,0.205,0.294,0.577,0.09,0.831c-0.032,0.04-2.289,2.948-1.554,7.628
	c0.05,0.323-0.17,0.626-0.493,0.676C41.03,23.716,40.999,23.718,40.969,23.718z"/>
<path fill="#4E4E4E" d="M45.213,24.113c-0.217,0-0.426-0.12-0.53-0.327c-1.159-2.317,0.554-7.991,0.754-8.63
	c0.097-0.311,0.427-0.487,0.741-0.389c0.312,0.097,0.486,0.429,0.389,0.741c-0.501,1.611-1.627,6.144-0.825,7.748
	c0.146,0.293,0.028,0.648-0.265,0.794C45.392,24.093,45.301,24.113,45.213,24.113z"/>
<path fill="#4E4E4E" d="M48.96,24.705c-0.279,0-0.528-0.198-0.581-0.483c-0.61-3.258,0.839-8.346,0.901-8.561
	c0.09-0.314,0.416-0.495,0.733-0.405c0.314,0.091,0.495,0.419,0.405,0.733c-0.015,0.05-1.434,5.034-0.875,8.015
	c0.06,0.321-0.152,0.631-0.473,0.691C49.034,24.702,48.997,24.705,48.96,24.705z"/>
<path fill="#4E4E4E" d="M94.938,26.678c-0.303,0-0.561-0.232-0.589-0.539c-0.465-5.204-3.877-7.843-3.911-7.868
	c-0.261-0.197-0.312-0.568-0.115-0.829c0.197-0.26,0.568-0.313,0.829-0.115c0.158,0.119,3.866,2.987,4.377,8.707
	c0.029,0.326-0.211,0.613-0.537,0.642C94.973,26.677,94.956,26.678,94.938,26.678z"/>
<path fill="#4E4E4E" d="M89.809,27.171c-0.039,0-0.079-0.004-0.119-0.012c-0.321-0.065-0.527-0.378-0.462-0.698
	c1.006-4.938-2.443-8.092-2.478-8.123c-0.244-0.218-0.264-0.592-0.046-0.836c0.217-0.244,0.593-0.265,0.836-0.047
	c0.163,0.146,3.99,3.646,2.85,9.242C90.331,26.978,90.084,27.171,89.809,27.171z"/>
<path fill="#4E4E4E" d="M84.382,26.974c-0.051,0-0.103-0.007-0.155-0.02c-0.315-0.086-0.502-0.411-0.416-0.726
	c1.187-4.384-1.26-7.745-1.284-7.779c-0.195-0.262-0.141-0.633,0.12-0.828c0.262-0.196,0.633-0.142,0.827,0.118
	c0.116,0.155,2.822,3.84,1.479,8.798C84.882,26.8,84.643,26.974,84.382,26.974z"/>
<path fill="#4E4E4E" d="M53.894,25.297c-0.254,0-0.489-0.165-0.567-0.42c-1.021-3.367,0.136-8.568,0.187-8.787
	c0.072-0.319,0.388-0.52,0.708-0.447c0.319,0.072,0.52,0.389,0.447,0.708c-0.012,0.051-1.137,5.117-0.208,8.183
	c0.095,0.313-0.082,0.643-0.395,0.738C54.009,25.288,53.951,25.297,53.894,25.297z"/>
<path fill="#4E4E4E" d="M58.235,25.593c-0.266,0-0.509-0.181-0.574-0.452c-1.014-4.159,0.347-8.522,0.405-8.706
	c0.099-0.311,0.434-0.483,0.743-0.385c0.311,0.099,0.484,0.432,0.385,0.743c-0.013,0.042-1.318,4.238-0.384,8.067
	c0.078,0.318-0.117,0.638-0.435,0.715C58.329,25.587,58.282,25.593,58.235,25.593z"/>
<path fill="#4E4E4E" d="M62.971,26.086c-0.327,0-0.592-0.265-0.592-0.592V16.91c0-0.327,0.265-0.592,0.592-0.592
	s0.592,0.265,0.592,0.592v8.584C63.563,25.821,63.298,26.086,62.971,26.086z"/>
<path fill="#4E4E4E" d="M68.497,26.086c-0.029,0-0.058-0.002-0.086-0.006c-0.324-0.047-0.547-0.348-0.5-0.671
	c0.564-3.857-0.847-7.966-0.861-8.007c-0.108-0.309,0.055-0.646,0.364-0.754c0.309-0.109,0.647,0.055,0.754,0.364
	c0.062,0.179,1.521,4.427,0.915,8.568C69.039,25.874,68.786,26.086,68.497,26.086z"/>
<path fill="#4E4E4E" d="M73.628,26.678c-0.032,0-0.063-0.002-0.095-0.008c-0.323-0.052-0.543-0.356-0.49-0.679
	c0.927-5.752-1.292-8.048-1.314-8.071c-0.231-0.231-0.231-0.606,0-0.837c0.231-0.231,0.606-0.231,0.837,0
	c0.109,0.109,2.669,2.753,1.646,9.097C74.164,26.471,73.913,26.678,73.628,26.678z"/>
<path fill="#4E4E4E" d="M79.449,27.023c-0.029,0-0.057-0.002-0.086-0.006c-0.324-0.047-0.548-0.347-0.501-0.671
	c0.742-5.112-1.616-7.938-1.64-7.966c-0.212-0.248-0.183-0.622,0.066-0.834c0.249-0.212,0.622-0.185,0.835,0.065
	c0.112,0.131,2.73,3.268,1.912,8.906C79.992,26.811,79.738,27.023,79.449,27.023z"/>
<path fill="#4E4E4E" d="M89.572,32.249c-8.183,0-18.612-0.441-30.927-1.33c-35.243-2.546-45.386-8.353-45.801-8.599
	c-0.194-0.115-0.306-0.331-0.288-0.557l0.392-4.9c0.027-0.326,0.318-0.568,0.637-0.543c0.326,0.026,0.569,0.311,0.543,0.637
	l-0.362,4.511c1.972,0.979,13.424,5.991,44.962,8.27c33.449,2.416,47.817,1.154,50.113-0.833c0.074-0.064,0.199-0.187,0.207-0.296
	c0.182-2.554-0.343-3.86-0.348-3.873c-0.124-0.301,0.017-0.647,0.318-0.774c0.298-0.126,0.645,0.012,0.772,0.312
	c0.027,0.062,0.644,1.546,0.439,4.418c-0.029,0.408-0.235,0.78-0.613,1.107C107.74,31.426,100.752,32.249,89.572,32.249z"/>
<path fill="#4E4E4E" d="M15.217,23.619c-0.273,0-0.519-0.19-0.578-0.468l-1.184-5.525c-0.069-0.32,0.135-0.634,0.455-0.703
	c0.314-0.066,0.635,0.135,0.703,0.455l1.184,5.525c0.069,0.32-0.135,0.634-0.455,0.703C15.301,23.615,15.259,23.619,15.217,23.619z"
	/>
<path fill="#4E4E4E" d="M18.276,24.507c-0.269,0-0.513-0.185-0.576-0.459l-1.184-5.131c-0.074-0.318,0.125-0.636,0.443-0.71
	c0.319-0.071,0.637,0.125,0.71,0.444l1.184,5.131c0.074,0.318-0.125,0.636-0.443,0.71C18.365,24.502,18.32,24.507,18.276,24.507z"/>
<path fill="#4E4E4E" d="M21.335,25.297c-0.27,0-0.513-0.186-0.577-0.46l-1.184-5.18c-0.072-0.319,0.126-0.636,0.446-0.709
	c0.313-0.074,0.636,0.126,0.709,0.445l1.184,5.18c0.072,0.319-0.126,0.636-0.446,0.709C21.423,25.292,21.378,25.297,21.335,25.297z"
	/>
<path fill="#4E4E4E" d="M24.442,26.283c-0.271,0-0.516-0.188-0.577-0.465l-1.184-5.377c-0.07-0.319,0.132-0.635,0.451-0.705
	c0.313-0.074,0.634,0.131,0.705,0.451l1.184,5.377c0.07,0.319-0.132,0.635-0.451,0.705C24.528,26.279,24.485,26.283,24.442,26.283z"
	/>
<path fill="#4E4E4E" d="M27.649,27.023c-0.273,0-0.519-0.19-0.578-0.468l-1.184-5.525c-0.069-0.32,0.135-0.634,0.455-0.703
	c0.314-0.066,0.634,0.135,0.703,0.455l1.184,5.525c0.069,0.32-0.135,0.634-0.455,0.703C27.732,27.019,27.691,27.023,27.649,27.023z"
	/>
<path fill="#4E4E4E" d="M31.152,27.665c-0.273,0-0.519-0.19-0.578-0.468l-1.184-5.525c-0.069-0.32,0.135-0.634,0.455-0.703
	c0.314-0.066,0.635,0.135,0.703,0.455l1.184,5.525c0.069,0.32-0.135,0.634-0.455,0.703C31.235,27.66,31.193,27.665,31.152,27.665z"
	/>
<path fill="#4E4E4E" d="M34.259,28.158c-0.273,0-0.519-0.19-0.578-0.468l-1.184-5.525c-0.069-0.32,0.135-0.634,0.455-0.703
	c0.314-0.067,0.634,0.135,0.703,0.455l1.184,5.525c0.069,0.32-0.135,0.634-0.455,0.703C34.343,28.154,34.301,28.158,34.259,28.158z"
	/>
<path fill="#4E4E4E" d="M38.009,28.7c-0.273,0-0.519-0.19-0.578-0.468l-1.184-5.525c-0.069-0.32,0.135-0.634,0.455-0.703
	c0.315-0.066,0.634,0.135,0.703,0.455l1.184,5.525c0.069,0.32-0.135,0.634-0.455,0.703C38.092,28.696,38.05,28.7,38.009,28.7z"/>
<path fill="#4E4E4E" d="M41.758,29.243c-0.273,0-0.519-0.19-0.578-0.468l-1.184-5.525c-0.069-0.32,0.135-0.634,0.455-0.703
	c0.317-0.067,0.634,0.135,0.703,0.455l1.184,5.525c0.069,0.32-0.135,0.634-0.455,0.703C41.841,29.239,41.8,29.243,41.758,29.243z"/>
<path fill="#4E4E4E" d="M45.852,29.687c-0.273,0-0.519-0.19-0.578-0.468l-1.184-5.525c-0.069-0.32,0.135-0.634,0.455-0.703
	c0.316-0.065,0.634,0.135,0.703,0.455l1.184,5.525c0.069,0.32-0.135,0.634-0.455,0.703C45.936,29.683,45.894,29.687,45.852,29.687z"
	/>
<path fill="#4E4E4E" d="M49.7,30.082c-0.27,0-0.513-0.186-0.577-0.46l-1.184-5.18c-0.072-0.319,0.126-0.636,0.446-0.709
	c0.314-0.074,0.635,0.126,0.709,0.445l1.184,5.18c0.072,0.319-0.126,0.636-0.446,0.709C49.789,30.077,49.744,30.082,49.7,30.082z"/>
<path fill="#4E4E4E" d="M53.154,30.535c-0.269,0-0.513-0.185-0.576-0.459l-1.184-5.139c-0.074-0.319,0.125-0.636,0.444-0.71
	c0.318-0.075,0.637,0.126,0.709,0.444l1.184,5.139c0.074,0.319-0.125,0.636-0.444,0.71C53.242,30.53,53.198,30.535,53.154,30.535z"
	/>
<path fill="#4E4E4E" d="M56.508,30.772c-0.269,0-0.513-0.185-0.576-0.459l-1.184-5.139c-0.074-0.319,0.125-0.636,0.444-0.71
	c0.318-0.074,0.637,0.126,0.709,0.444l1.184,5.139c0.074,0.319-0.125,0.636-0.444,0.71C56.597,30.768,56.552,30.772,56.508,30.772z"
	/>
<path fill="#4E4E4E" d="M60.159,31.019c-0.267,0-0.51-0.183-0.575-0.455L58.4,25.581c-0.076-0.318,0.121-0.637,0.439-0.713
	c0.317-0.079,0.637,0.121,0.713,0.439l1.184,4.983c0.076,0.318-0.121,0.637-0.439,0.713C60.25,31.014,60.204,31.019,60.159,31.019z"
	/>
<path fill="#4E4E4E" d="M63.809,31.315c-0.27,0-0.513-0.186-0.577-0.46l-1.184-5.18c-0.072-0.319,0.126-0.636,0.446-0.709
	c0.314-0.074,0.636,0.126,0.709,0.445l1.184,5.18c0.072,0.319-0.126,0.636-0.446,0.709C63.898,31.31,63.853,31.315,63.809,31.315z"
	/>
<path fill="#4E4E4E" d="M67.657,31.315c-0.265,0-0.506-0.18-0.573-0.448L65.9,26.131c-0.079-0.317,0.113-0.639,0.431-0.718
	c0.314-0.078,0.638,0.114,0.718,0.43l1.184,4.736c0.079,0.317-0.113,0.639-0.431,0.718C67.754,31.309,67.705,31.315,67.657,31.315z"
	/>
<path fill="#4E4E4E" d="M71.357,31.71c-0.265,0-0.506-0.18-0.573-0.448L69.6,26.526c-0.079-0.317,0.113-0.639,0.431-0.718
	c0.314-0.079,0.638,0.113,0.718,0.43l1.184,4.736c0.079,0.317-0.113,0.639-0.431,0.718C71.453,31.704,71.405,31.71,71.357,31.71z"/>
<path fill="#4E4E4E" d="M75.205,31.808c-0.262,0-0.502-0.175-0.572-0.441l-1.184-4.489c-0.083-0.316,0.106-0.64,0.422-0.723
	c0.317-0.082,0.641,0.105,0.724,0.421l1.184,4.489c0.083,0.316-0.106,0.64-0.422,0.723C75.306,31.802,75.255,31.808,75.205,31.808z"
	/>
<path fill="#4E4E4E" d="M79.102,32.006c-0.265,0-0.506-0.18-0.573-0.448l-1.184-4.736c-0.079-0.317,0.113-0.639,0.431-0.718
	c0.313-0.077,0.639,0.114,0.718,0.43l1.184,4.736c0.079,0.317-0.113,0.639-0.431,0.718C79.199,32,79.15,32.006,79.102,32.006z"/>
<path fill="#4E4E4E" d="M82.851,32.154c-0.265,0-0.506-0.18-0.573-0.448l-1.184-4.736c-0.079-0.317,0.113-0.639,0.431-0.718
	c0.314-0.078,0.638,0.113,0.718,0.43l1.184,4.736c0.079,0.317-0.113,0.639-0.431,0.718C82.948,32.148,82.899,32.154,82.851,32.154z"
	/>
<path fill="#4E4E4E" d="M86.601,32.203c-0.264,0-0.504-0.178-0.573-0.446l-1.184-4.637c-0.081-0.317,0.11-0.639,0.427-0.72
	c0.317-0.082,0.638,0.111,0.72,0.427l1.184,4.637c0.081,0.317-0.11,0.639-0.427,0.72C86.699,32.197,86.649,32.203,86.601,32.203z"/>
<path fill="#4E4E4E" d="M90.35,32.203c-0.262,0-0.502-0.175-0.572-0.441l-1.184-4.489c-0.083-0.316,0.106-0.64,0.422-0.723
	c0.318-0.082,0.641,0.105,0.724,0.421l1.184,4.489c0.083,0.316-0.106,0.64-0.422,0.723C90.451,32.197,90.4,32.203,90.35,32.203z"/>
<path fill="#4E4E4E" d="M93.902,32.203c-0.262,0-0.502-0.175-0.572-0.441l-1.184-4.489c-0.083-0.316,0.106-0.64,0.422-0.723
	c0.318-0.082,0.641,0.105,0.724,0.421l1.184,4.489c0.083,0.316-0.106,0.64-0.422,0.723C94.003,32.197,93.952,32.203,93.902,32.203z"
	/>
<path fill="#4E4E4E" d="M97.306,31.956c-0.262,0-0.502-0.175-0.572-0.441l-1.184-4.489c-0.083-0.316,0.106-0.64,0.422-0.723
	c0.318-0.083,0.641,0.105,0.724,0.421l1.184,4.489c0.083,0.316-0.106,0.64-0.422,0.723C97.407,31.95,97.356,31.956,97.306,31.956z"
	/>
<path fill="#4E4E4E" d="M100.661,31.808c-0.261,0-0.499-0.173-0.571-0.436l-1.184-4.341c-0.086-0.315,0.1-0.641,0.415-0.727
	c0.321-0.088,0.641,0.101,0.727,0.415l1.184,4.341c0.086,0.315-0.1,0.641-0.415,0.727C100.764,31.802,100.712,31.808,100.661,31.808
	z"/>
<path fill="#4E4E4E" d="M103.768,31.414c-0.262,0-0.502-0.175-0.572-0.441l-1.184-4.489c-0.083-0.316,0.106-0.64,0.422-0.723
	c0.318-0.083,0.641,0.105,0.724,0.421l1.184,4.489c0.083,0.316-0.106,0.64-0.422,0.723
	C103.869,31.408,103.818,31.414,103.768,31.414z"/>
<path fill="#4E4E4E" d="M106.383,30.772c-0.262,0-0.502-0.175-0.572-0.441l-1.184-4.489c-0.083-0.316,0.106-0.64,0.422-0.723
	c0.319-0.083,0.641,0.105,0.724,0.421l1.184,4.489c0.083,0.316-0.106,0.64-0.422,0.723
	C106.484,30.766,106.433,30.772,106.383,30.772z"/>
<path fill="#4E4E4E" d="M108.948,30.18c-0.262,0-0.502-0.175-0.572-0.441l-1.184-4.489c-0.083-0.316,0.106-0.64,0.422-0.723
	c0.318-0.082,0.641,0.105,0.724,0.421l1.184,4.489c0.083,0.316-0.106,0.64-0.422,0.723C109.049,30.174,108.998,30.18,108.948,30.18z
	"/>
<path fill="#4E4E4E" d="M86.026,36.908c-6.074,0-13.684-0.268-23.145-0.998c-19.18-1.479-51.302-4.697-50.934-9.627
	c0.199-2.664,1.016-8.163,1.051-8.396c0.049-0.324,0.354-0.55,0.673-0.498c0.324,0.048,0.547,0.349,0.499,0.673
	c-0.008,0.057-0.846,5.689-1.041,8.309c-0.093,1.249,8.679,5.184,49.844,8.359c31.383,2.42,42.398-0.339,44.205-0.885l1.321-4.95
	c0.085-0.315,0.409-0.502,0.725-0.419c0.316,0.084,0.503,0.409,0.419,0.725l-1.404,5.26c-0.049,0.182-0.181,0.331-0.358,0.399
	C107.591,34.972,102.353,36.908,86.026,36.908z"/>
<path fill="#4E4E4E" d="M104.336,35.533c-0.069,0-0.14-0.012-0.208-0.038c-0.306-0.115-0.461-0.456-0.346-0.762l1.603-4.267
	c0.116-0.306,0.456-0.461,0.762-0.346c0.306,0.115,0.461,0.456,0.346,0.762l-1.603,4.267
	C104.801,35.386,104.576,35.533,104.336,35.533z"/>
<path fill="#4E4E4E" d="M101.195,35.864c-0.068,0-0.136-0.012-0.204-0.036c-0.307-0.113-0.464-0.453-0.351-0.76l1.488-4.056
	c0.113-0.308,0.451-0.465,0.76-0.352c0.307,0.113,0.464,0.453,0.351,0.76l-1.488,4.056
	C101.663,35.716,101.436,35.864,101.195,35.864z"/>
<path fill="#4E4E4E" d="M97.976,36.384c-0.069,0-0.14-0.012-0.209-0.038c-0.306-0.115-0.46-0.457-0.345-0.763l1.65-4.378
	c0.115-0.306,0.459-0.462,0.763-0.345c0.306,0.115,0.46,0.457,0.345,0.763L98.53,36C98.44,36.237,98.215,36.384,97.976,36.384z"/>
<path fill="#4E4E4E" d="M94.696,36.644c-0.073,0-0.147-0.013-0.22-0.042c-0.304-0.121-0.452-0.466-0.33-0.769l1.772-4.441
	c0.122-0.304,0.463-0.451,0.769-0.331c0.304,0.121,0.452,0.466,0.33,0.769l-1.772,4.441C95.153,36.503,94.931,36.644,94.696,36.644z
	"/>
<path fill="#4E4E4E" d="M91.137,36.764c-0.071,0-0.143-0.013-0.214-0.04c-0.304-0.118-0.456-0.461-0.338-0.766l1.73-4.463
	c0.118-0.305,0.458-0.457,0.766-0.338c0.304,0.118,0.456,0.461,0.338,0.766l-1.73,4.463C91.598,36.621,91.374,36.764,91.137,36.764z
	"/>
<path fill="#4E4E4E" d="M87.99,36.796c-0.075,0-0.15-0.014-0.224-0.044c-0.302-0.123-0.448-0.469-0.325-0.772l1.769-4.346
	c0.123-0.303,0.469-0.447,0.772-0.325c0.302,0.123,0.448,0.469,0.325,0.772l-1.769,4.346C88.444,36.656,88.223,36.796,87.99,36.796z
	"/>
<path fill="#4E4E4E" d="M84.202,36.782c-0.081,0-0.163-0.017-0.242-0.052c-0.298-0.134-0.432-0.484-0.298-0.782l2.005-4.48
	c0.134-0.299,0.484-0.432,0.782-0.299c0.298,0.134,0.432,0.484,0.298,0.782l-2.005,4.48C84.644,36.651,84.428,36.782,84.202,36.782z
	"/>
<path fill="#4E4E4E" d="M80.413,36.768c-0.074,0-0.149-0.013-0.221-0.043c-0.303-0.122-0.45-0.467-0.328-0.77l1.798-4.466
	c0.122-0.303,0.469-0.451,0.77-0.328c0.303,0.122,0.45,0.467,0.328,0.77l-1.798,4.466C80.87,36.628,80.648,36.768,80.413,36.768z"/>
<path fill="#4E4E4E" d="M76.298,36.606c-0.074,0-0.15-0.014-0.223-0.044c-0.303-0.123-0.449-0.468-0.326-0.771l1.868-4.6
	c0.124-0.304,0.469-0.449,0.772-0.326c0.303,0.123,0.449,0.468,0.326,0.771l-1.868,4.6C76.753,36.466,76.532,36.606,76.298,36.606z"
	/>
<path fill="#4E4E4E" d="M72.434,36.431c-0.074,0-0.15-0.014-0.223-0.044c-0.303-0.123-0.449-0.468-0.326-0.771l1.835-4.524
	c0.123-0.303,0.467-0.45,0.772-0.326c0.303,0.123,0.449,0.468,0.326,0.771l-1.835,4.524C72.889,36.291,72.667,36.431,72.434,36.431z
	"/>
<path fill="#4E4E4E" d="M68.951,36.371c-0.072,0-0.145-0.013-0.217-0.041c-0.304-0.119-0.454-0.463-0.335-0.767l1.926-4.91
	c0.12-0.305,0.465-0.453,0.767-0.335c0.304,0.119,0.455,0.463,0.335,0.767l-1.926,4.91C69.411,36.229,69.187,36.371,68.951,36.371z"
	/>
<path fill="#4E4E4E" d="M65.598,36.114c-0.072,0-0.145-0.013-0.217-0.041c-0.304-0.119-0.454-0.463-0.335-0.767l1.926-4.909
	c0.12-0.305,0.462-0.453,0.768-0.335c0.304,0.119,0.454,0.463,0.335,0.767l-1.926,4.909C66.058,35.971,65.834,36.114,65.598,36.114z
	"/>
<path fill="#4E4E4E" d="M61.952,35.822c-0.073,0-0.148-0.013-0.22-0.042c-0.304-0.121-0.452-0.466-0.33-0.77l1.902-4.754
	c0.122-0.304,0.468-0.452,0.769-0.33c0.304,0.121,0.452,0.466,0.33,0.77l-1.902,4.754C62.409,35.681,62.187,35.822,61.952,35.822z"
	/>
<path fill="#4E4E4E" d="M58.297,35.578c-0.075,0-0.15-0.014-0.224-0.044c-0.303-0.124-0.448-0.469-0.325-0.772l1.862-4.559
	c0.124-0.303,0.469-0.448,0.772-0.324c0.303,0.124,0.448,0.469,0.325,0.772l-1.862,4.559C58.751,35.44,58.53,35.578,58.297,35.578z"
	/>
<path fill="#4E4E4E" d="M54.491,35.013c-0.076,0-0.153-0.014-0.227-0.045c-0.302-0.125-0.446-0.471-0.321-0.773l1.866-4.51
	c0.126-0.302,0.473-0.446,0.774-0.321c0.302,0.125,0.446,0.471,0.321,0.773l-1.866,4.51C54.943,34.875,54.723,35.013,54.491,35.013z
	"/>
<path fill="#4E4E4E" d="M50.773,34.86c-0.076,0-0.153-0.014-0.227-0.045c-0.302-0.125-0.446-0.471-0.321-0.773l1.866-4.511
	c0.126-0.302,0.473-0.446,0.774-0.321c0.302,0.125,0.446,0.471,0.321,0.773l-1.866,4.511C51.226,34.722,51.005,34.86,50.773,34.86z"
	/>
<path fill="#4E4E4E" d="M46.952,34.393c-0.078,0-0.157-0.015-0.234-0.048c-0.301-0.129-0.439-0.477-0.311-0.778l1.831-4.267
	c0.129-0.3,0.476-0.438,0.778-0.311c0.301,0.129,0.439,0.477,0.311,0.778l-1.831,4.267C47.4,34.258,47.181,34.393,46.952,34.393z"/>
<path fill="#4E4E4E" d="M43.068,34.015c-0.082,0-0.163-0.017-0.242-0.052c-0.298-0.134-0.432-0.484-0.298-0.782l1.897-4.229
	c0.134-0.298,0.484-0.432,0.782-0.298c0.298,0.134,0.432,0.484,0.298,0.782l-1.897,4.229C43.51,33.885,43.294,34.015,43.068,34.015z
	"/>
<path fill="#4E4E4E" d="M39.338,33.611c-0.076,0-0.153-0.014-0.227-0.045c-0.302-0.125-0.446-0.471-0.321-0.773l1.866-4.511
	c0.126-0.302,0.474-0.446,0.774-0.321c0.302,0.125,0.446,0.471,0.321,0.773l-1.866,4.511C39.791,33.473,39.57,33.611,39.338,33.611z
	"/>
<path fill="#4E4E4E" d="M35.622,33.109c-0.076,0-0.154-0.015-0.229-0.046c-0.301-0.126-0.443-0.473-0.317-0.775l1.852-4.413
	c0.126-0.302,0.473-0.444,0.775-0.317c0.301,0.126,0.443,0.473,0.317,0.775l-1.852,4.413C36.073,32.972,35.854,33.109,35.622,33.109
	z"/>
<path fill="#4E4E4E" d="M31.914,32.558c-0.078,0-0.157-0.015-0.234-0.048c-0.301-0.129-0.439-0.477-0.311-0.778l1.831-4.266
	c0.129-0.301,0.476-0.439,0.778-0.311c0.301,0.129,0.439,0.477,0.311,0.778L32.458,32.2C32.362,32.424,32.143,32.558,31.914,32.558z
	"/>
<path fill="#4E4E4E" d="M28.401,32.037c-0.078,0-0.157-0.015-0.234-0.048c-0.301-0.129-0.439-0.477-0.311-0.778l1.831-4.267
	c0.129-0.301,0.477-0.438,0.778-0.311c0.301,0.129,0.439,0.477,0.311,0.778l-1.831,4.267C28.848,31.902,28.629,32.037,28.401,32.037
	z"/>
<path fill="#4E4E4E" d="M25.07,31.292c-0.078,0-0.157-0.015-0.234-0.048c-0.301-0.129-0.439-0.477-0.311-0.777l1.83-4.266
	c0.129-0.301,0.475-0.439,0.778-0.311c0.301,0.129,0.439,0.477,0.311,0.777l-1.83,4.266C25.518,31.158,25.3,31.292,25.07,31.292z"/>
<path fill="#4E4E4E" d="M21.773,30.653c-0.08,0-0.16-0.016-0.238-0.05c-0.299-0.131-0.436-0.481-0.304-0.78l1.809-4.121
	c0.131-0.299,0.481-0.435,0.78-0.304c0.299,0.131,0.436,0.481,0.304,0.78L22.315,30.3C22.218,30.521,22,30.653,21.773,30.653z"/>
<path fill="#4E4E4E" d="M18.757,29.807c-0.078,0-0.157-0.015-0.234-0.048c-0.301-0.129-0.439-0.477-0.311-0.778l1.831-4.267
	c0.129-0.301,0.477-0.439,0.778-0.311c0.301,0.129,0.439,0.477,0.311,0.778l-1.831,4.267C19.205,29.672,18.986,29.807,18.757,29.807
	z"/>
<path fill="#4E4E4E" d="M16.265,28.788c-0.078,0-0.157-0.015-0.234-0.048c-0.301-0.129-0.439-0.477-0.311-0.778l1.831-4.266
	c0.129-0.301,0.477-0.438,0.778-0.311c0.301,0.129,0.439,0.477,0.311,0.778l-1.831,4.266C16.713,28.654,16.494,28.788,16.265,28.788
	z"/>
<path fill="#4E4E4E" d="M13.814,27.826c-0.077,0-0.156-0.015-0.231-0.047c-0.301-0.127-0.442-0.475-0.314-0.776l1.552-3.664
	c0.128-0.301,0.476-0.441,0.776-0.314c0.301,0.127,0.442,0.475,0.314,0.776l-1.552,3.664C14.264,27.69,14.045,27.826,13.814,27.826z
	"/>
<path fill="#4E4E4E" d="M80.462,45.613c-4.448,0-9.658-0.172-15.755-0.585c-24.938-1.69-42.812-5.182-49.041-9.578
	c-5.32-3.755-3.695-9.332-3.678-9.388c0.096-0.313,0.425-0.489,0.739-0.393c0.312,0.095,0.489,0.425,0.394,0.737l0,0
	c-0.059,0.195-1.377,4.826,3.228,8.077c2.865,2.023,13.321,6.984,48.439,9.365c28.19,1.911,37.027-1.308,39.519-2.78
	c1.987-1.174,2.319-2.612,2.586-3.767c0.265-1.15,0.019-2.676,0.015-2.691c-0.015-0.096-0.008-0.195,0.024-0.288l2.016-5.926
	c0.106-0.309,0.441-0.477,0.751-0.37c0.31,0.105,0.476,0.442,0.37,0.751l-1.969,5.79c0.062,0.456,0.214,1.84-0.053,2.999
	c-0.284,1.23-0.712,3.088-3.136,4.52C102.875,43.288,96.818,45.613,80.462,45.613z"/>
<path fill="#4E4E4E" d="M18.524,36.742c-0.22,0-0.432-0.123-0.533-0.334l-3.7-7.646c-0.143-0.294-0.019-0.648,0.274-0.791
	c0.296-0.141,0.65-0.018,0.791,0.275l3.7,7.646c0.143,0.294,0.019,0.648-0.274,0.791C18.698,36.723,18.61,36.742,18.524,36.742z"/>
<path fill="#4E4E4E" d="M23.013,38.518c-0.233,0-0.453-0.138-0.547-0.367l-3.355-8.14c-0.125-0.302,0.019-0.648,0.321-0.773
	c0.302-0.124,0.649,0.019,0.773,0.322l3.355,8.14c0.125,0.302-0.019,0.648-0.321,0.773C23.164,38.503,23.088,38.518,23.013,38.518z"
	/>
<path fill="#4E4E4E" d="M29.426,40.195c-0.22,0-0.431-0.123-0.533-0.333L24.7,31.228c-0.143-0.294-0.02-0.648,0.274-0.791
	c0.298-0.143,0.648-0.02,0.792,0.274l4.193,8.633c0.143,0.294,0.02,0.648-0.274,0.791C29.601,40.176,29.513,40.195,29.426,40.195z"
	/>
<path fill="#4E4E4E" d="M35.938,41.527c-0.21,0-0.412-0.111-0.52-0.307l-4.736-8.633c-0.157-0.287-0.052-0.647,0.234-0.804
	c0.288-0.156,0.647-0.052,0.803,0.234l4.736,8.633c0.157,0.287,0.052,0.647-0.234,0.804C36.132,41.503,36.035,41.527,35.938,41.527z
	"/>
<path fill="#4E4E4E" d="M42.105,42.415c-0.21,0-0.412-0.111-0.52-0.307l-4.736-8.633c-0.157-0.287-0.052-0.647,0.234-0.804
	c0.287-0.156,0.647-0.051,0.803,0.234l4.736,8.633c0.157,0.287,0.052,0.647-0.234,0.804C42.298,42.391,42.201,42.415,42.105,42.415z
	"/>
<path fill="#4E4E4E" d="M47.926,43.105c-0.21,0-0.412-0.111-0.52-0.307l-4.736-8.633c-0.157-0.287-0.052-0.647,0.234-0.804
	c0.287-0.156,0.647-0.052,0.803,0.234l4.736,8.633c0.157,0.287,0.052,0.647-0.234,0.804C48.119,43.082,48.022,43.105,47.926,43.105z
	"/>
<path fill="#4E4E4E" d="M54.043,43.747c-0.21,0-0.412-0.111-0.52-0.307l-4.736-8.633c-0.157-0.287-0.052-0.647,0.234-0.804
	c0.288-0.156,0.647-0.052,0.803,0.234l4.736,8.633c0.157,0.287,0.052,0.647-0.234,0.804C54.237,43.723,54.139,43.747,54.043,43.747z
	"/>
<path fill="#4E4E4E" d="M60.308,44.388c-0.21,0-0.412-0.111-0.52-0.307l-4.736-8.633c-0.157-0.287-0.052-0.647,0.234-0.804
	c0.287-0.156,0.647-0.051,0.803,0.234l4.736,8.633c0.157,0.287,0.052,0.647-0.234,0.804C60.502,44.365,60.405,44.388,60.308,44.388z
	"/>
<path fill="#4E4E4E" d="M67.363,44.832c-0.21,0-0.412-0.111-0.52-0.307l-4.736-8.633c-0.157-0.287-0.052-0.647,0.234-0.804
	c0.287-0.156,0.647-0.052,0.803,0.234l4.736,8.633c0.157,0.287,0.052,0.647-0.234,0.804C67.556,44.809,67.459,44.832,67.363,44.832z
	"/>
<path fill="#4E4E4E" d="M74.467,45.276c-0.21,0-0.412-0.111-0.52-0.307l-4.736-8.633c-0.157-0.287-0.052-0.647,0.234-0.804
	c0.288-0.156,0.647-0.052,0.803,0.234l4.736,8.633c0.157,0.287,0.052,0.647-0.234,0.804C74.66,45.253,74.563,45.276,74.467,45.276z"
	/>
<path fill="#4E4E4E" d="M81.126,45.473c-0.21,0-0.412-0.111-0.52-0.307l-4.736-8.633c-0.157-0.287-0.052-0.647,0.234-0.804
	c0.288-0.156,0.647-0.052,0.803,0.234l4.736,8.633c0.157,0.287,0.052,0.647-0.234,0.804C81.32,45.45,81.223,45.473,81.126,45.473z"
	/>
<path fill="#4E4E4E" d="M87.638,45.473c-0.21,0-0.412-0.111-0.52-0.307l-4.736-8.633c-0.157-0.287-0.052-0.647,0.234-0.804
	c0.287-0.156,0.647-0.052,0.803,0.234l4.736,8.633c0.157,0.287,0.052,0.647-0.234,0.804C87.832,45.45,87.735,45.473,87.638,45.473z"
	/>
<path fill="#4E4E4E" d="M93.311,44.98c-0.212,0-0.416-0.113-0.523-0.313l-4.44-8.311c-0.154-0.288-0.045-0.647,0.243-0.801
	c0.289-0.153,0.647-0.045,0.801,0.243l4.44,8.311c0.154,0.288,0.045,0.647-0.243,0.801C93.501,44.958,93.405,44.98,93.311,44.98z"/>
<path fill="#4E4E4E" d="M98.146,44.388c-0.217,0-0.426-0.119-0.53-0.326l-3.947-7.867c-0.147-0.292-0.029-0.648,0.264-0.795
	c0.293-0.147,0.649-0.028,0.794,0.264l3.947,7.867c0.147,0.292,0.029,0.648-0.264,0.795C98.325,44.368,98.235,44.388,98.146,44.388z
	"/>
<path fill="#4E4E4E" d="M102.29,43.155c-0.214,0-0.419-0.116-0.526-0.318l-3.651-6.979c-0.151-0.29-0.039-0.647,0.251-0.799
	c0.291-0.151,0.647-0.039,0.799,0.25l3.651,6.979c0.151,0.29,0.039,0.647-0.251,0.799C102.476,43.133,102.382,43.155,102.29,43.155z
	"/>
<path fill="#4E4E4E" d="M105.891,41.132c-0.207,0-0.409-0.109-0.517-0.303l-2.911-5.203c-0.16-0.285-0.058-0.646,0.227-0.806
	c0.286-0.16,0.647-0.058,0.806,0.227l2.911,5.203c0.16,0.285,0.058,0.646-0.227,0.805C106.088,41.108,105.989,41.132,105.891,41.132
	z"/>
<g>
	<path fill="#4E4E4E" d="M47.887,62.316c-3.699,0-5.985-0.229-7.051-0.506c-0.865-0.225-1.501-0.841-1.838-1.781
		c-0.56-1.564-0.188-3.836,0.866-5.287c1.43-1.97,3.899-3.165,4.003-3.214c0.296-0.14,0.649-0.015,0.789,0.279
		c0.141,0.295,0.017,0.648-0.277,0.789c-0.023,0.011-2.305,1.119-3.556,2.842c-0.816,1.125-1.135,3.005-0.709,4.192
		c0.202,0.563,0.545,0.911,1.021,1.034c2.384,0.621,14.747,1.286,42.969-3.025c13.447-2.054,26.329-4.773,36.274-7.658
		c11.576-3.357,14.017-5.477,13.959-5.955c-0.852-2.635-1.736-4.11-2.867-4.784c-0.898-0.535-3.067-0.928-3.827-1.034
		c-0.324-0.045-0.55-0.345-0.505-0.668c0.045-0.323,0.342-0.552,0.668-0.504c0.121,0.017,2.982,0.423,4.27,1.189
		c1.396,0.832,2.441,2.509,3.388,5.438c0.082,0.252,0.116,0.654-0.181,1.136c-2.3,3.724-25.656,10.14-51.001,14.011
		C66.476,61.53,54.751,62.316,47.887,62.316z"/>
	<path fill="#4E4E4E" d="M41.415,61.517c-0.303,0-0.561-0.231-0.589-0.539c-0.475-5.289,4.252-8.117,4.453-8.235
		c0.281-0.165,0.644-0.071,0.809,0.212c0.165,0.282,0.071,0.644-0.21,0.81c-0.043,0.025-4.28,2.577-3.873,7.108
		c0.029,0.325-0.211,0.613-0.536,0.642C41.45,61.517,41.433,61.517,41.415,61.517z"/>
	
		<path fill="#4E4E4E" stroke="#FFFFFF" stroke-width="1.5" stroke-linecap="round" stroke-linejoin="round" stroke-miterlimit="10" d="
		M47.565,53.463"/>
	<path fill="#4E4E4E" d="M44.552,62.249c-0.301,0-0.56-0.23-0.589-0.536c-0.575-6.08,3.59-8.478,3.768-8.577
		c0.286-0.161,0.646-0.057,0.806,0.229c0.159,0.285,0.057,0.645-0.227,0.804c-0.158,0.09-3.668,2.153-3.167,7.432
		c0.031,0.326-0.208,0.614-0.534,0.645C44.59,62.248,44.571,62.249,44.552,62.249z"/>
	<path fill="#4E4E4E" d="M133.206,46.189c-0.264,0-0.505-0.178-0.573-0.447c-1.307-5.158-6.533-5.732-6.755-5.754
		c-0.325-0.032-0.563-0.321-0.532-0.646s0.316-0.566,0.645-0.532c0.062,0.006,6.274,0.664,7.788,6.642
		c0.081,0.317-0.111,0.639-0.428,0.719C133.303,46.184,133.255,46.189,133.206,46.189z"/>
	<path fill="#4E4E4E" d="M130.101,47.587c-0.224,0-0.439-0.129-0.539-0.347c-2.369-5.212-7.411-5.991-7.462-5.998
		c-0.324-0.046-0.548-0.346-0.502-0.67c0.046-0.324,0.341-0.55,0.67-0.502c0.233,0.033,5.737,0.885,8.372,6.68
		c0.136,0.298,0.004,0.649-0.294,0.784C130.266,47.57,130.183,47.587,130.101,47.587z"/>
	<path fill="#4E4E4E" d="M126.207,49.49c-0.238,0-0.462-0.145-0.553-0.38c-2.27-5.933-6.954-6.895-7.001-6.905
		c-0.321-0.061-0.531-0.372-0.469-0.693c0.061-0.321,0.371-0.533,0.693-0.47c0.218,0.042,5.381,1.102,7.883,7.644
		c0.117,0.306-0.035,0.648-0.341,0.765C126.348,49.478,126.277,49.49,126.207,49.49z"/>
	<path fill="#4E4E4E" d="M48.644,61.924c-0.26,0-0.498-0.172-0.57-0.434c-1.235-4.444,1.999-8.134,2.137-8.289
		c0.218-0.244,0.59-0.266,0.835-0.047c0.244,0.217,0.266,0.591,0.049,0.835c-0.03,0.034-2.94,3.372-1.881,7.184
		c0.088,0.315-0.097,0.641-0.412,0.729C48.749,61.917,48.696,61.924,48.644,61.924z"/>
	<path fill="#4E4E4E" d="M52.448,62.079c-0.269,0-0.512-0.185-0.576-0.458c-1.186-5.099,1.159-8.562,1.26-8.707
		c0.187-0.267,0.554-0.335,0.822-0.15c0.269,0.185,0.337,0.553,0.152,0.823c-0.022,0.031-2.143,3.198-1.08,7.765
		c0.074,0.318-0.124,0.637-0.442,0.711C52.539,62.074,52.493,62.079,52.448,62.079z"/>
	<path fill="#4E4E4E" d="M56.276,61.923c-0.264,0-0.505-0.178-0.573-0.447c-1.355-5.347,0.628-8.626,0.714-8.763
		c0.171-0.277,0.536-0.362,0.815-0.19c0.277,0.172,0.363,0.536,0.191,0.814c-0.032,0.054-1.791,3.039-0.573,7.849
		c0.081,0.317-0.111,0.639-0.428,0.719C56.373,61.917,56.325,61.923,56.276,61.923z"/>
	<path fill="#4E4E4E" d="M59.936,61.505c-0.268,0-0.511-0.183-0.575-0.456c-1.457-6.16,0.318-8.517,0.394-8.614
		c0.201-0.257,0.572-0.303,0.832-0.101c0.255,0.2,0.301,0.568,0.105,0.825c-0.035,0.049-1.475,2.132-0.179,7.618
		c0.076,0.318-0.122,0.637-0.439,0.712C60.027,61.5,59.981,61.505,59.936,61.505z"/>
	<path fill="#4E4E4E" d="M63.932,61.204c-0.254,0-0.489-0.165-0.567-0.42c-1.266-4.17-0.293-8.319-0.251-8.494
		c0.077-0.318,0.4-0.513,0.714-0.437c0.318,0.076,0.513,0.396,0.438,0.713c-0.01,0.04-0.937,4.02,0.233,7.873
		c0.095,0.313-0.082,0.643-0.395,0.738C64.047,61.196,63.989,61.204,63.932,61.204z"/>
	<path fill="#4E4E4E" d="M68.477,60.663c-0.23,0-0.449-0.135-0.544-0.359c-2.081-4.869-0.428-8.579-0.356-8.734
		c0.136-0.297,0.493-0.425,0.785-0.291c0.297,0.136,0.427,0.487,0.292,0.784l0,0c-0.015,0.034-1.498,3.412,0.368,7.776
		c0.129,0.301-0.011,0.649-0.311,0.777C68.634,60.648,68.555,60.663,68.477,60.663z"/>
	<path fill="#4E4E4E" d="M72.687,60.003c-0.166,0-0.331-0.069-0.448-0.205c-1.693-1.961-1.427-7.882-1.391-8.551
		c0.018-0.326,0.295-0.568,0.623-0.56c0.327,0.018,0.577,0.296,0.56,0.623c-0.09,1.685-0.068,6.356,1.104,7.714
		c0.214,0.248,0.187,0.622-0.061,0.835C72.962,59.956,72.824,60.003,72.687,60.003z"/>
	<path fill="#4E4E4E" d="M76.466,59.656c-0.224,0-0.437-0.127-0.537-0.343c-1.393-3.008-1.237-8.296-1.23-8.52
		c0.011-0.326,0.261-0.584,0.611-0.572c0.327,0.01,0.583,0.284,0.573,0.611c-0.002,0.052-0.153,5.232,1.121,7.984
		c0.137,0.296,0.008,0.648-0.288,0.786C76.634,59.639,76.549,59.656,76.466,59.656z"/>
	<path fill="#4E4E4E" d="M121.519,50.272c-0.244,0-0.473-0.152-0.559-0.396c-1.72-4.906-5.686-6.649-5.726-6.666
		c-0.301-0.128-0.441-0.476-0.313-0.776c0.127-0.3,0.472-0.442,0.775-0.314c0.182,0.077,4.48,1.945,6.382,7.365
		c0.108,0.308-0.055,0.646-0.363,0.754C121.65,50.261,121.584,50.272,121.519,50.272z"/>
	<path fill="#4E4E4E" d="M116.666,52.011c-0.314,0-0.576-0.247-0.59-0.564c-0.237-5.011-4.23-7.176-4.4-7.266
		c-0.289-0.153-0.4-0.51-0.248-0.799s0.509-0.4,0.798-0.249c0.194,0.101,4.763,2.553,5.033,8.258
		c0.015,0.327-0.237,0.604-0.563,0.619C116.685,52.01,116.676,52.011,116.666,52.011z"/>
	<path fill="#4E4E4E" d="M111.358,53.153c-0.003,0-0.006,0-0.009,0c-0.328-0.005-0.588-0.275-0.583-0.602
		c0.073-4.542-3.124-7.199-3.156-7.225c-0.253-0.206-0.292-0.578-0.086-0.832c0.207-0.254,0.577-0.293,0.831-0.088
		c0.15,0.121,3.679,3.029,3.596,8.164C111.945,52.894,111.681,53.153,111.358,53.153z"/>
	<path fill="#4E4E4E" d="M81.395,59.018c-0.201,0-0.396-0.102-0.508-0.286c-1.816-3.013-1.973-8.339-1.979-8.564
		c-0.008-0.327,0.25-0.598,0.577-0.607c0.005,0,0.011,0,0.015,0c0.32,0,0.584,0.255,0.592,0.577c0.002,0.052,0.155,5.24,1.809,7.983
		c0.169,0.28,0.079,0.644-0.201,0.812C81.604,58.99,81.499,59.018,81.395,59.018z"/>
	<path fill="#4E4E4E" d="M85.675,58.238c-0.213,0-0.418-0.114-0.524-0.315c-2.005-3.782-1.757-8.346-1.745-8.539
		c0.02-0.326,0.304-0.569,0.627-0.555c0.326,0.019,0.575,0.3,0.556,0.626c-0.003,0.044-0.237,4.431,1.609,7.914
		c0.153,0.289,0.042,0.647-0.246,0.8C85.863,58.216,85.768,58.238,85.675,58.238z"/>
	<path fill="#4E4E4E" d="M90.385,57.552c-0.264,0-0.505-0.178-0.573-0.447l-2.109-8.321c-0.081-0.317,0.111-0.639,0.428-0.719
		c0.317-0.08,0.639,0.111,0.719,0.429l2.109,8.321c0.081,0.317-0.111,0.639-0.428,0.719C90.482,57.547,90.434,57.552,90.385,57.552z
		"/>
	<path fill="#4E4E4E" d="M95.742,56.195c-0.3,0-0.557-0.227-0.588-0.531c-0.399-3.868-2.779-7.514-2.803-7.55
		c-0.18-0.273-0.105-0.64,0.168-0.82c0.273-0.181,0.64-0.104,0.82,0.168c0.104,0.158,2.562,3.918,2.992,8.081
		c0.034,0.325-0.203,0.616-0.528,0.65C95.783,56.194,95.762,56.195,95.742,56.195z"/>
	<path fill="#4E4E4E" d="M100.86,55.508c-0.303,0-0.562-0.232-0.589-0.54c-0.509-5.744-3.233-7.486-3.261-7.503
		c-0.277-0.171-0.366-0.534-0.197-0.812c0.168-0.277,0.527-0.369,0.807-0.203c0.133,0.079,3.264,2.013,3.83,8.414
		c0.029,0.326-0.212,0.613-0.537,0.642C100.895,55.507,100.878,55.508,100.86,55.508z"/>
	<path fill="#4E4E4E" d="M106.588,54.412c-0.299,0-0.557-0.226-0.588-0.531c-0.533-5.103-3.518-7.298-3.548-7.32
		c-0.265-0.19-0.328-0.559-0.139-0.825c0.189-0.266,0.558-0.329,0.823-0.141c0.141,0.099,3.449,2.498,4.041,8.163
		c0.034,0.325-0.202,0.616-0.527,0.65C106.629,54.411,106.609,54.412,106.588,54.412z"/>
	<path fill="#4E4E4E" d="M51.772,67.115c-7.496,0-10.522-0.846-10.757-0.915c-0.217-0.064-0.378-0.246-0.415-0.469l-0.824-4.846
		c-0.055-0.322,0.162-0.628,0.484-0.683c0.323-0.057,0.627,0.161,0.683,0.484l0.758,4.461c2.151,0.464,14.484,2.509,45.616-3.031
		c16.162-2.876,29.215-5.772,37.747-8.373c10.933-3.333,10.764-5.015,10.752-5.085c-0.451-2.521-1.281-3.657-1.29-3.668
		c-0.194-0.261-0.143-0.632,0.117-0.828c0.261-0.195,0.629-0.146,0.826,0.112c0.041,0.053,1.005,1.34,1.512,4.175
		c0.211,1.18-0.758,3.129-11.572,6.426c-8.578,2.615-21.678,5.522-37.885,8.406C70.431,66.325,59.015,67.115,51.772,67.115z"/>
	<path fill="#4E4E4E" d="M43.491,66.895c-0.218,0-0.428-0.121-0.531-0.33L40.455,61.5c-0.145-0.293-0.025-0.648,0.268-0.793
		c0.293-0.145,0.647-0.024,0.792,0.268l2.505,5.065c0.145,0.293,0.025,0.648-0.268,0.793C43.669,66.875,43.579,66.895,43.491,66.895
		z"/>
	<path fill="#4E4E4E" d="M46.675,67.004c-0.215,0-0.422-0.117-0.527-0.321L43.739,62c-0.15-0.291-0.035-0.648,0.256-0.797
		c0.291-0.151,0.648-0.034,0.797,0.256l2.409,4.683c0.15,0.291,0.035,0.648-0.256,0.797C46.858,66.983,46.766,67.004,46.675,67.004z
		"/>
	<path fill="#4E4E4E" d="M49.834,67.018c-0.216,0-0.423-0.118-0.528-0.322l-2.42-4.73c-0.149-0.291-0.033-0.648,0.257-0.797
		c0.294-0.15,0.648-0.033,0.797,0.257l2.42,4.73c0.149,0.291,0.033,0.648-0.257,0.797C50.016,66.997,49.924,67.018,49.834,67.018z"
		/>
	<path fill="#4E4E4E" d="M53.089,67.21c-0.217,0-0.426-0.119-0.53-0.326l-2.469-4.922c-0.147-0.293-0.029-0.648,0.264-0.795
		c0.292-0.148,0.648-0.028,0.794,0.264l2.469,4.922c0.147,0.293,0.029,0.648-0.264,0.795C53.268,67.19,53.178,67.21,53.089,67.21z"
		/>
	<path fill="#4E4E4E" d="M56.379,67.14c-0.218,0-0.428-0.121-0.531-0.33l-2.505-5.065c-0.145-0.293-0.025-0.648,0.268-0.793
		c0.293-0.145,0.647-0.025,0.792,0.268l2.505,5.065c0.145,0.293,0.025,0.648-0.268,0.793C56.556,67.12,56.467,67.14,56.379,67.14z"
		/>
	<path fill="#4E4E4E" d="M59.931,66.901c-0.218,0-0.428-0.121-0.531-0.33l-2.505-5.065c-0.145-0.293-0.025-0.648,0.268-0.793
		c0.293-0.145,0.647-0.025,0.792,0.268l2.505,5.065c0.145,0.293,0.025,0.648-0.268,0.793C60.109,66.881,60.019,66.901,59.931,66.901
		z"/>
	<path fill="#4E4E4E" d="M63.065,66.615c-0.218,0-0.428-0.121-0.531-0.33l-2.505-5.065c-0.145-0.293-0.025-0.648,0.267-0.793
		c0.294-0.145,0.648-0.025,0.793,0.268l2.505,5.065c0.145,0.293,0.025,0.648-0.267,0.793C63.243,66.596,63.153,66.615,63.065,66.615
		z"/>
	<path fill="#4E4E4E" d="M66.833,66.22c-0.218,0-0.428-0.121-0.531-0.33l-2.506-5.065c-0.145-0.293-0.025-0.648,0.267-0.793
		c0.295-0.145,0.648-0.025,0.793,0.268l2.506,5.065c0.145,0.293,0.025,0.648-0.267,0.793C67.01,66.2,66.921,66.22,66.833,66.22z"/>
	<path fill="#4E4E4E" d="M70.6,65.825c-0.218,0-0.428-0.121-0.531-0.33l-2.505-5.065c-0.145-0.293-0.025-0.648,0.267-0.793
		c0.295-0.145,0.648-0.025,0.793,0.268l2.505,5.065c0.145,0.293,0.025,0.648-0.267,0.793C70.777,65.805,70.688,65.825,70.6,65.825z"
		/>
	<path fill="#4E4E4E" d="M74.679,65.249c-0.218,0-0.428-0.121-0.531-0.33l-2.505-5.065c-0.145-0.293-0.025-0.648,0.268-0.793
		c0.292-0.145,0.647-0.024,0.792,0.268l2.505,5.065c0.145,0.293,0.025,0.648-0.268,0.793C74.856,65.23,74.766,65.249,74.679,65.249z
		"/>
	<path fill="#4E4E4E" d="M78.506,64.686c-0.216,0-0.423-0.118-0.528-0.322l-2.42-4.73c-0.149-0.291-0.033-0.648,0.257-0.797
		c0.292-0.151,0.648-0.033,0.797,0.257l2.42,4.73c0.149,0.291,0.033,0.648-0.257,0.797C78.688,64.665,78.596,64.686,78.506,64.686z"
		/>
	<path fill="#4E4E4E" d="M81.964,64.277c-0.215,0-0.422-0.117-0.527-0.321l-2.41-4.691c-0.15-0.291-0.035-0.647,0.256-0.797
		c0.29-0.15,0.647-0.035,0.797,0.256l2.41,4.691c0.15,0.291,0.035,0.647-0.256,0.797C82.148,64.256,82.055,64.277,81.964,64.277z"/>
	<path fill="#4E4E4E" d="M85.274,63.683c-0.215,0-0.422-0.117-0.527-0.321l-2.41-4.691c-0.15-0.291-0.035-0.647,0.256-0.797
		c0.291-0.15,0.647-0.035,0.797,0.256l2.41,4.691c0.15,0.291,0.035,0.647-0.256,0.797C85.458,63.662,85.365,63.683,85.274,63.683z"
		/>
	<path fill="#4E4E4E" d="M88.874,63.025c-0.214,0-0.42-0.116-0.526-0.318l-2.372-4.539c-0.151-0.289-0.039-0.647,0.251-0.799
		c0.292-0.153,0.648-0.039,0.799,0.251l2.372,4.539c0.151,0.289,0.039,0.647-0.251,0.799C89.06,63.004,88.966,63.025,88.874,63.025z
		"/>
	<path fill="#4E4E4E" d="M92.485,62.415c-0.216,0-0.423-0.118-0.528-0.322l-2.42-4.73c-0.149-0.291-0.033-0.648,0.257-0.797
		c0.293-0.151,0.648-0.033,0.797,0.257l2.42,4.73c0.149,0.291,0.033,0.648-0.257,0.797C92.668,62.394,92.575,62.415,92.485,62.415z"
		/>
	<path fill="#4E4E4E" d="M96.215,61.47c-0.211,0-0.415-0.113-0.522-0.312l-2.312-4.3c-0.155-0.288-0.047-0.647,0.24-0.802
		c0.291-0.155,0.648-0.046,0.802,0.241l2.312,4.3c0.155,0.288,0.047,0.647-0.24,0.802C96.405,61.447,96.309,61.47,96.215,61.47z"/>
	<path fill="#4E4E4E" d="M99.899,60.943c-0.211,0-0.415-0.113-0.522-0.312l-2.312-4.3c-0.155-0.288-0.047-0.647,0.24-0.802
		c0.29-0.155,0.648-0.046,0.802,0.241l2.312,4.3c0.155,0.288,0.047,0.647-0.24,0.802C100.089,60.92,99.993,60.943,99.899,60.943z"/>
	<path fill="#4E4E4E" d="M103.653,60.093c-0.208,0-0.41-0.11-0.519-0.305l-2.251-4.061c-0.158-0.286-0.055-0.646,0.231-0.805
		c0.286-0.159,0.646-0.055,0.805,0.23l2.251,4.061c0.158,0.286,0.055,0.646-0.231,0.805
		C103.848,60.069,103.75,60.093,103.653,60.093z"/>
	<path fill="#4E4E4E" d="M107.479,59.327c-0.211,0-0.415-0.113-0.522-0.312l-2.312-4.3c-0.155-0.288-0.047-0.647,0.24-0.802
		c0.291-0.155,0.648-0.046,0.802,0.241l2.312,4.3c0.155,0.288,0.047,0.647-0.24,0.802C107.669,59.304,107.573,59.327,107.479,59.327
		z"/>
	<path fill="#4E4E4E" d="M111.149,58.549c-0.211,0-0.415-0.113-0.522-0.312l-2.312-4.3c-0.155-0.288-0.047-0.647,0.24-0.802
		c0.291-0.155,0.648-0.046,0.802,0.241l2.312,4.3c0.155,0.288,0.047,0.647-0.24,0.802C111.34,58.527,111.244,58.549,111.149,58.549z
		"/>
	<path fill="#4E4E4E" d="M114.796,57.676c-0.21,0-0.413-0.112-0.521-0.309l-2.288-4.204c-0.156-0.287-0.05-0.647,0.237-0.803
		c0.289-0.156,0.647-0.05,0.803,0.237l2.288,4.204c0.156,0.287,0.05,0.647-0.237,0.803
		C114.988,57.653,114.892,57.676,114.796,57.676z"/>
	<path fill="#4E4E4E" d="M118.43,56.755c-0.208,0-0.411-0.11-0.519-0.305l-2.25-4.061c-0.158-0.286-0.055-0.646,0.231-0.805
		c0.285-0.157,0.647-0.055,0.805,0.231l2.25,4.061c0.158,0.286,0.055,0.646-0.231,0.805
		C118.625,56.731,118.527,56.755,118.43,56.755z"/>
	<path fill="#4E4E4E" d="M121.873,55.882c-0.208,0-0.41-0.11-0.519-0.305l-2.251-4.061c-0.158-0.286-0.055-0.646,0.231-0.805
		c0.285-0.158,0.645-0.055,0.805,0.23l2.251,4.061c0.158,0.286,0.055,0.646-0.231,0.805
		C122.068,55.858,121.97,55.882,121.873,55.882z"/>
	<path fill="#4E4E4E" d="M125.112,54.807c-0.208,0-0.41-0.11-0.519-0.305l-2.251-4.061c-0.158-0.286-0.055-0.646,0.231-0.805
		c0.285-0.158,0.645-0.056,0.805,0.23l2.251,4.061c0.158,0.286,0.055,0.646-0.231,0.805
		C125.307,54.783,125.209,54.807,125.112,54.807z"/>
	<path fill="#4E4E4E" d="M128.328,53.839c-0.207,0-0.407-0.108-0.516-0.301l-2.215-3.917c-0.16-0.285-0.06-0.646,0.224-0.807
		c0.283-0.161,0.645-0.061,0.807,0.224l2.215,3.917c0.16,0.285,0.06,0.646-0.224,0.807
		C128.527,53.814,128.426,53.839,128.328,53.839z"/>
	<path fill="#4E4E4E" d="M131.243,52.693c-0.208,0-0.41-0.11-0.519-0.305l-2.251-4.061c-0.158-0.286-0.055-0.646,0.231-0.805
		c0.286-0.158,0.646-0.055,0.805,0.23l2.251,4.061c0.158,0.286,0.055,0.646-0.231,0.805
		C131.438,52.669,131.34,52.693,131.243,52.693z"/>
	<path fill="#4E4E4E" d="M133.62,51.429c-0.208,0-0.41-0.11-0.519-0.305l-2.251-4.061c-0.158-0.286-0.055-0.646,0.231-0.805
		c0.286-0.159,0.645-0.056,0.805,0.23l2.251,4.061c0.158,0.286,0.055,0.646-0.231,0.805
		C133.815,51.405,133.717,51.429,133.62,51.429z"/>
	<path fill="#4E4E4E" d="M135.961,50.225c-0.208,0-0.41-0.11-0.519-0.305l-2.251-4.061c-0.158-0.286-0.055-0.646,0.231-0.805
		c0.285-0.158,0.645-0.055,0.805,0.23l2.251,4.061c0.158,0.286,0.055,0.646-0.231,0.805
		C136.156,50.201,136.058,50.225,135.961,50.225z"/>
	<path fill="#4E4E4E" d="M49.412,72.343c-4.841,0-8.03-0.586-8.291-2.08c-0.462-2.631-1.021-8.163-1.044-8.397
		c-0.033-0.325,0.204-0.615,0.53-0.648c0.325-0.035,0.615,0.204,0.648,0.53c0.006,0.057,0.578,5.723,1.032,8.311
		c0.216,1.234,9.684,2.892,50.37-4.145c31.017-5.365,41.016-10.746,42.631-11.718l0.065-5.123c0.004-0.325,0.268-0.585,0.592-0.585
		c0.002,0,0.005,0,0.008,0c0.327,0.004,0.588,0.272,0.584,0.599l-0.069,5.443c-0.002,0.189-0.095,0.365-0.248,0.475
		c-0.347,0.247-8.881,6.111-43.361,12.075C79.72,69.352,60.348,72.343,49.412,72.343z"/>
	<path fill="#4E4E4E" d="M132.805,56.546c-0.022,0-0.044-0.001-0.066-0.003c-0.325-0.037-0.559-0.329-0.523-0.654l0.506-4.53
		c0.036-0.326,0.338-0.555,0.654-0.523c0.325,0.037,0.559,0.329,0.523,0.654l-0.506,4.53
		C133.359,56.322,133.103,56.546,132.805,56.546z"/>
	<path fill="#4E4E4E" d="M129.842,57.639c-0.021,0-0.041-0.001-0.062-0.003c-0.325-0.034-0.562-0.325-0.528-0.65l0.446-4.297
		c0.034-0.326,0.332-0.557,0.65-0.528c0.325,0.034,0.562,0.325,0.528,0.65l-0.446,4.297
		C130.398,57.413,130.141,57.639,129.842,57.639z"/>
	<path fill="#4E4E4E" d="M126.849,58.933c-0.022,0-0.045-0.001-0.067-0.004c-0.325-0.037-0.559-0.33-0.522-0.654l0.523-4.649
		c0.036-0.325,0.337-0.562,0.654-0.522c0.325,0.037,0.559,0.33,0.522,0.654l-0.523,4.649
		C127.402,58.71,127.146,58.933,126.849,58.933z"/>
	<path fill="#4E4E4E" d="M123.733,59.992c-0.026,0-0.052-0.002-0.079-0.005c-0.324-0.043-0.552-0.34-0.509-0.664l0.627-4.74
		c0.043-0.325,0.335-0.553,0.664-0.51c0.324,0.043,0.552,0.34,0.509,0.664l-0.627,4.74
		C124.279,59.776,124.025,59.992,123.733,59.992z"/>
	<path fill="#4E4E4E" d="M120.313,60.983c-0.024,0-0.049-0.002-0.072-0.004c-0.325-0.04-0.556-0.335-0.516-0.659l0.58-4.751
		c0.039-0.325,0.341-0.551,0.659-0.516c0.325,0.04,0.556,0.335,0.516,0.659l-0.58,4.751
		C120.863,60.763,120.608,60.983,120.313,60.983z"/>
	<path fill="#4E4E4E" d="M117.271,61.787c-0.027,0-0.055-0.002-0.082-0.006c-0.324-0.045-0.55-0.344-0.505-0.668l0.647-4.648
		c0.045-0.323,0.342-0.549,0.668-0.504c0.324,0.045,0.55,0.344,0.505,0.668l-0.647,4.648
		C117.815,61.573,117.561,61.787,117.271,61.787z"/>
	<path fill="#4E4E4E" d="M113.595,62.704c-0.034,0-0.068-0.003-0.103-0.009c-0.322-0.056-0.537-0.363-0.482-0.685l0.843-4.836
		c0.056-0.322,0.362-0.539,0.685-0.481c0.322,0.056,0.537,0.363,0.482,0.685l-0.843,4.836
		C114.127,62.501,113.877,62.704,113.595,62.704z"/>
	<path fill="#4E4E4E" d="M109.919,63.621c-0.026,0-0.053-0.002-0.08-0.005c-0.324-0.044-0.551-0.342-0.507-0.666l0.645-4.771
		c0.044-0.324,0.342-0.554,0.666-0.507c0.324,0.044,0.551,0.342,0.507,0.666l-0.645,4.771
		C110.465,63.406,110.211,63.621,109.919,63.621z"/>
	<path fill="#4E4E4E" d="M105.89,64.475c-0.027,0-0.054-0.002-0.082-0.005c-0.324-0.045-0.55-0.344-0.506-0.668l0.68-4.918
		c0.045-0.324,0.343-0.545,0.668-0.506c0.324,0.045,0.55,0.344,0.506,0.668l-0.68,4.918C106.435,64.26,106.181,64.475,105.89,64.475
		z"/>
	<path fill="#4E4E4E" d="M102.102,65.255c-0.027,0-0.054-0.002-0.082-0.005c-0.324-0.045-0.55-0.343-0.506-0.668l0.667-4.836
		c0.045-0.324,0.338-0.55,0.668-0.506c0.324,0.045,0.55,0.343,0.506,0.668l-0.667,4.836
		C102.647,65.04,102.393,65.255,102.102,65.255z"/>
	<path fill="#4E4E4E" d="M98.712,66.053c-0.025,0-0.05-0.002-0.075-0.005c-0.325-0.041-0.554-0.337-0.513-0.661l0.661-5.233
		c0.041-0.325,0.341-0.557,0.661-0.513c0.325,0.041,0.554,0.337,0.513,0.661l-0.661,5.233C99.26,65.835,99.005,66.053,98.712,66.053
		z"/>
	<path fill="#4E4E4E" d="M95.398,66.628c-0.025,0-0.05-0.002-0.075-0.005c-0.325-0.041-0.554-0.337-0.513-0.661l0.661-5.232
		c0.041-0.325,0.342-0.555,0.661-0.513c0.325,0.041,0.554,0.337,0.513,0.661l-0.661,5.232
		C95.947,66.409,95.692,66.628,95.398,66.628z"/>
	<path fill="#4E4E4E" d="M91.791,67.24c-0.026,0-0.052-0.002-0.079-0.005c-0.325-0.043-0.552-0.341-0.509-0.665l0.676-5.076
		c0.042-0.324,0.347-0.554,0.664-0.509c0.325,0.043,0.552,0.341,0.509,0.665l-0.676,5.076C92.337,67.024,92.083,67.24,91.791,67.24z
		"/>
	<path fill="#4E4E4E" d="M88.189,67.902c-0.028,0-0.056-0.002-0.083-0.006c-0.324-0.045-0.55-0.345-0.504-0.669l0.685-4.877
		c0.045-0.324,0.348-0.549,0.669-0.504c0.324,0.045,0.55,0.345,0.504,0.669l-0.685,4.877C88.733,67.689,88.479,67.902,88.189,67.902
		z"/>
	<path fill="#4E4E4E" d="M84.36,68.29c-0.029,0-0.057-0.002-0.086-0.006c-0.324-0.047-0.548-0.347-0.501-0.671l0.701-4.831
		c0.047-0.323,0.351-0.547,0.671-0.501c0.324,0.047,0.548,0.347,0.501,0.671l-0.701,4.831C84.903,68.077,84.649,68.29,84.36,68.29z"
		/>
	<path fill="#4E4E4E" d="M80.719,69.055c-0.029,0-0.057-0.002-0.086-0.006c-0.324-0.047-0.548-0.347-0.501-0.671l0.701-4.831
		c0.046-0.324,0.354-0.548,0.671-0.501c0.324,0.047,0.548,0.347,0.501,0.671l-0.701,4.831
		C81.261,68.842,81.008,69.055,80.719,69.055z"/>
	<path fill="#4E4E4E" d="M76.9,69.54c-0.031,0-0.062-0.002-0.093-0.007c-0.323-0.051-0.543-0.354-0.493-0.677l0.726-4.586
		c0.052-0.323,0.351-0.545,0.678-0.492c0.323,0.051,0.543,0.354,0.493,0.677l-0.726,4.586C77.438,69.332,77.186,69.54,76.9,69.54z"
		/>
	<path fill="#4E4E4E" d="M73.043,70.129c-0.034,0-0.069-0.003-0.103-0.009c-0.322-0.056-0.538-0.363-0.481-0.685l0.799-4.566
		c0.056-0.322,0.368-0.537,0.684-0.481c0.322,0.056,0.538,0.363,0.481,0.685l-0.799,4.566
		C73.575,69.927,73.325,70.129,73.043,70.129z"/>
	<path fill="#4E4E4E" d="M69.328,70.653c-0.029,0-0.057-0.002-0.086-0.006c-0.324-0.047-0.548-0.347-0.501-0.671l0.701-4.831
		c0.047-0.324,0.351-0.546,0.671-0.501c0.324,0.047,0.548,0.347,0.501,0.671l-0.701,4.831C69.87,70.441,69.617,70.653,69.328,70.653
		z"/>
	<path fill="#4E4E4E" d="M65.602,71.08c-0.029,0-0.059-0.002-0.089-0.007c-0.323-0.049-0.546-0.35-0.497-0.673l0.711-4.733
		c0.049-0.324,0.347-0.547,0.673-0.498c0.323,0.049,0.546,0.35,0.497,0.673l-0.711,4.733C66.143,70.869,65.891,71.08,65.602,71.08z"
		/>
	<path fill="#4E4E4E" d="M61.872,71.457c-0.031,0-0.062-0.002-0.093-0.007c-0.323-0.051-0.543-0.354-0.493-0.677l0.726-4.586
		c0.052-0.323,0.351-0.542,0.678-0.492c0.323,0.051,0.543,0.354,0.493,0.677l-0.726,4.586C62.41,71.25,62.157,71.457,61.872,71.457z
		"/>
	<path fill="#4E4E4E" d="M58.338,71.815c-0.031,0-0.062-0.002-0.093-0.007c-0.323-0.051-0.543-0.354-0.493-0.677l0.726-4.586
		c0.051-0.323,0.353-0.543,0.678-0.492c0.323,0.051,0.543,0.354,0.493,0.677l-0.726,4.586
		C58.876,71.607,58.624,71.815,58.338,71.815z"/>
	<path fill="#4E4E4E" d="M54.926,71.912c-0.031,0-0.062-0.002-0.093-0.007c-0.323-0.051-0.543-0.354-0.493-0.677l0.726-4.586
		c0.052-0.323,0.355-0.545,0.678-0.492c0.323,0.051,0.543,0.354,0.493,0.677l-0.726,4.586
		C55.465,71.704,55.212,71.912,54.926,71.912z"/>
	<path fill="#4E4E4E" d="M51.574,72.103c-0.032,0-0.066-0.003-0.098-0.008c-0.323-0.054-0.54-0.359-0.487-0.681l0.741-4.438
		c0.054-0.323,0.365-0.542,0.681-0.486c0.323,0.054,0.54,0.359,0.487,0.681l-0.741,4.438C52.109,71.898,51.858,72.103,51.574,72.103
		z"/>
	<path fill="#4E4E4E" d="M48.442,72.023c-0.031,0-0.062-0.002-0.093-0.007c-0.323-0.051-0.543-0.354-0.493-0.677l0.726-4.586
		c0.052-0.323,0.352-0.545,0.678-0.492c0.323,0.051,0.543,0.354,0.493,0.677l-0.726,4.586C48.98,71.815,48.728,72.023,48.442,72.023
		z"/>
	<path fill="#4E4E4E" d="M45.776,71.648c-0.031,0-0.062-0.002-0.093-0.007c-0.323-0.051-0.543-0.354-0.493-0.677l0.726-4.586
		c0.051-0.323,0.354-0.542,0.678-0.492c0.323,0.051,0.543,0.354,0.493,0.677l-0.726,4.586C46.314,71.44,46.062,71.648,45.776,71.648
		z"/>
	<path fill="#4E4E4E" d="M43.165,71.317c-0.03,0-0.06-0.002-0.091-0.007c-0.323-0.049-0.544-0.352-0.495-0.675l0.604-3.933
		c0.049-0.323,0.357-0.543,0.674-0.495c0.324,0.049,0.545,0.352,0.496,0.675l-0.604,3.933
		C43.704,71.108,43.452,71.317,43.165,71.317z"/>
	<path fill="#4E4E4E" d="M59.187,79.743c-5.427,0-9.576-0.499-12.21-1.51c-6.079-2.333-5.875-8.138-5.872-8.196
		c0.015-0.327,0.29-0.572,0.62-0.563c0.326,0.015,0.578,0.293,0.563,0.619c-0.009,0.226-0.136,5.02,5.114,7.035
		c3.275,1.257,14.632,3.497,49.255-2.824c27.792-5.073,35.571-10.365,37.625-12.405c1.638-1.627,1.606-3.102,1.58-4.287
		c-0.025-1.18-0.639-2.598-0.645-2.612c-0.039-0.089-0.056-0.187-0.048-0.284l0.497-6.24c0.026-0.326,0.318-0.567,0.637-0.543
		c0.326,0.026,0.569,0.311,0.543,0.637l-0.486,6.097c0.173,0.427,0.66,1.73,0.685,2.92c0.027,1.261,0.069,3.168-1.93,5.152
		c-2.133,2.117-10.128,7.597-38.246,12.73C81.378,78.297,68.429,79.743,59.187,79.743z"/>
	<path fill="#4E4E4E" d="M49.919,78.802c-0.169,0-0.336-0.072-0.453-0.211l-5.465-6.503c-0.21-0.25-0.178-0.624,0.072-0.834
		c0.251-0.21,0.623-0.178,0.834,0.072l5.465,6.503c0.21,0.25,0.178,0.624-0.072,0.834C50.189,78.757,50.054,78.802,49.919,78.802z"
		/>
	<path fill="#4E4E4E" d="M54.708,79.421c-0.181,0-0.36-0.082-0.476-0.239l-5.252-7.066c-0.195-0.262-0.141-0.633,0.122-0.828
		c0.264-0.195,0.634-0.14,0.828,0.122l5.252,7.066c0.195,0.262,0.141,0.633-0.122,0.828C54.953,79.383,54.83,79.421,54.708,79.421z"
		/>
	<path fill="#4E4E4E" d="M61.336,79.471c-0.168,0-0.335-0.072-0.452-0.21l-6.186-7.338c-0.211-0.25-0.179-0.624,0.071-0.834
		c0.25-0.21,0.624-0.179,0.834,0.071l6.186,7.338c0.211,0.25,0.179,0.624-0.071,0.834C61.606,79.425,61.471,79.471,61.336,79.471z"
		/>
	<path fill="#4E4E4E" d="M67.976,79.162c-0.159,0-0.317-0.063-0.433-0.188l-6.712-7.205c-0.223-0.239-0.21-0.614,0.03-0.837
		c0.238-0.223,0.614-0.21,0.836,0.03l6.712,7.205c0.223,0.239,0.21,0.614-0.03,0.837C68.265,79.11,68.12,79.162,67.976,79.162z"/>
	<path fill="#4E4E4E" d="M74.171,78.508c-0.159,0-0.317-0.063-0.433-0.188l-6.711-7.205c-0.223-0.239-0.21-0.614,0.03-0.837
		c0.237-0.223,0.614-0.21,0.836,0.03l6.711,7.205c0.223,0.239,0.21,0.614-0.03,0.837C74.46,78.456,74.315,78.508,74.171,78.508z"/>
	<path fill="#4E4E4E" d="M79.983,77.747c-0.159,0-0.317-0.063-0.433-0.188l-6.712-7.205c-0.223-0.239-0.21-0.614,0.03-0.837
		c0.237-0.223,0.614-0.21,0.836,0.03l6.712,7.205c0.223,0.239,0.21,0.614-0.03,0.837C80.273,77.695,80.128,77.747,79.983,77.747z"/>
	<path fill="#4E4E4E" d="M86.07,76.866c-0.159,0-0.317-0.063-0.433-0.188l-6.711-7.205c-0.223-0.239-0.21-0.614,0.03-0.837
		c0.237-0.223,0.614-0.21,0.836,0.03l6.711,7.205c0.223,0.239,0.21,0.614-0.03,0.837C86.36,76.813,86.215,76.866,86.07,76.866z"/>
	<path fill="#4E4E4E" d="M92.301,75.948c-0.159,0-0.317-0.063-0.433-0.188l-6.711-7.205c-0.223-0.239-0.21-0.614,0.03-0.837
		c0.239-0.223,0.614-0.21,0.836,0.03l6.711,7.205c0.223,0.239,0.21,0.614-0.03,0.837C92.59,75.896,92.446,75.948,92.301,75.948z"/>
	<path fill="#4E4E4E" d="M99.248,74.645c-0.159,0-0.317-0.063-0.433-0.188l-6.711-7.205c-0.223-0.239-0.21-0.614,0.03-0.837
		c0.237-0.223,0.614-0.21,0.836,0.03l6.711,7.205c0.223,0.239,0.21,0.614-0.03,0.837C99.538,74.593,99.393,74.645,99.248,74.645z"/>
	<path fill="#4E4E4E" d="M106.243,73.33c-0.159,0-0.317-0.063-0.433-0.188l-6.711-7.205c-0.223-0.239-0.21-0.614,0.03-0.837
		c0.237-0.223,0.614-0.21,0.836,0.03l6.711,7.205c0.223,0.239,0.21,0.614-0.03,0.837C106.533,73.278,106.388,73.33,106.243,73.33z"
		/>
	<path fill="#4E4E4E" d="M112.747,71.885c-0.159,0-0.317-0.063-0.433-0.188l-6.711-7.205c-0.223-0.239-0.21-0.614,0.03-0.837
		c0.237-0.223,0.614-0.21,0.836,0.03l6.711,7.205c0.223,0.239,0.21,0.614-0.03,0.837C113.037,71.832,112.892,71.885,112.747,71.885z
		"/>
	<path fill="#4E4E4E" d="M119.06,70.285c-0.159,0-0.317-0.063-0.433-0.188l-6.711-7.205c-0.223-0.239-0.21-0.614,0.03-0.837
		c0.237-0.223,0.613-0.21,0.836,0.03l6.711,7.205c0.223,0.239,0.21,0.614-0.03,0.837C119.349,70.233,119.204,70.285,119.06,70.285z"
		/>
	<path fill="#4E4E4E" d="M124.438,68.413c-0.16,0-0.321-0.065-0.438-0.193l-6.346-6.965c-0.22-0.242-0.203-0.616,0.039-0.836
		c0.241-0.219,0.615-0.203,0.836,0.039l6.346,6.965c0.22,0.242,0.203,0.616-0.039,0.836
		C124.723,68.362,124.581,68.413,124.438,68.413z"/>
	<path fill="#4E4E4E" d="M128.979,66.651c-0.166,0-0.331-0.069-0.448-0.205l-5.759-6.656c-0.214-0.247-0.187-0.621,0.06-0.835
		c0.248-0.214,0.621-0.187,0.836,0.061l5.759,6.656c0.214,0.247,0.187,0.621-0.06,0.835
		C129.254,66.604,129.116,66.651,128.979,66.651z"/>
	<path fill="#4E4E4E" d="M132.693,64.437c-0.163,0-0.324-0.067-0.441-0.197l-5.254-5.867c-0.218-0.244-0.197-0.618,0.046-0.836
		c0.243-0.218,0.617-0.197,0.836,0.046l5.254,5.867c0.218,0.244,0.197,0.618-0.046,0.836
		C132.975,64.388,132.834,64.437,132.693,64.437z"/>
	<path fill="#4E4E4E" d="M135.687,61.592c-0.156,0-0.313-0.062-0.43-0.185l-4.1-4.328c-0.224-0.237-0.214-0.612,0.023-0.837
		c0.236-0.225,0.61-0.215,0.837,0.023l4.1,4.328c0.224,0.237,0.214,0.612-0.023,0.837C135.98,61.538,135.833,61.592,135.687,61.592z
		"/>
</g>
<g>
	<path fill="#4E4E4E" d="M98.427,100.331c-9.377,0-27.669-2.803-46.46-7.377c-26.932-6.556-38.804-11.865-41.319-13.756
		c-0.714-0.538-1.067-1.349-1.021-2.346c0.076-1.659,1.286-3.619,2.812-4.561c2.071-1.278,4.809-1.443,4.925-1.45
		c0.303-0.012,0.605,0.231,0.623,0.558c0.018,0.326-0.231,0.605-0.557,0.624c-0.025,0.001-2.558,0.157-4.369,1.275
		c-1.182,0.73-2.192,2.348-2.251,3.608c-0.028,0.597,0.157,1.05,0.55,1.345c1.968,1.48,13.15,6.8,40.888,13.552
		c13.216,3.217,26.165,5.604,36.459,6.721c11.982,1.3,15.046,0.268,15.175-0.196c0.216-2.761-0.041-4.462-0.83-5.516
		c-0.627-0.836-2.484-2.025-3.146-2.412c-0.282-0.165-0.377-0.528-0.212-0.81c0.164-0.283,0.526-0.38,0.81-0.212
		c0.106,0.062,2.597,1.525,3.495,2.724c0.975,1.3,1.303,3.249,1.064,6.317c-0.021,0.264-0.142,0.649-0.6,0.982
		C103.592,100.033,101.482,100.331,98.427,100.331z"/>
	<path fill="#4E4E4E" d="M11.521,79.191c-0.058,0-0.117-0.008-0.176-0.027c-0.312-0.097-0.486-0.429-0.39-0.741
		c1.573-5.072,7.021-5.889,7.253-5.921c0.328-0.046,0.622,0.18,0.668,0.503c0.045,0.323-0.18,0.623-0.503,0.669
		c-0.049,0.007-4.938,0.755-6.285,5.099C12.007,79.028,11.773,79.191,11.521,79.191z"/>
	
		<path fill="#4E4E4E" stroke="#FFFFFF" stroke-width="1.5" stroke-linecap="round" stroke-linejoin="round" stroke-miterlimit="10" d="
		M20.047,74.038"/>
	<path fill="#4E4E4E" d="M14.144,81.061c-0.057,0-0.115-0.008-0.173-0.026c-0.313-0.095-0.489-0.426-0.394-0.739
		c1.782-5.841,6.547-6.474,6.748-6.498c0.327-0.044,0.619,0.193,0.658,0.518c0.039,0.324-0.193,0.618-0.516,0.658l0,0
		c-0.171,0.022-4.209,0.589-5.758,5.667C14.632,80.897,14.397,81.061,14.144,81.061z"/>
	<path fill="#4E4E4E" d="M102.241,99.943c-0.028,0-0.056-0.002-0.085-0.006c-0.324-0.047-0.548-0.346-0.502-0.67
		c0.753-5.268-3.86-7.787-4.057-7.892c-0.288-0.153-0.399-0.511-0.246-0.8c0.153-0.289,0.511-0.398,0.799-0.247
		c0.055,0.029,5.549,3.001,4.676,9.106C102.785,99.73,102.531,99.943,102.241,99.943z"/>
	<path fill="#4E4E4E" d="M98.836,100.054c-0.318,0-0.58-0.251-0.591-0.57c-0.208-5.721-4.576-8.361-4.619-8.387
		c-0.281-0.166-0.375-0.529-0.21-0.811c0.166-0.281,0.529-0.377,0.811-0.209c0.203,0.119,4.97,3.002,5.201,9.363
		c0.012,0.327-0.243,0.601-0.57,0.613C98.85,100.054,98.843,100.054,98.836,100.054z"/>
	<path fill="#4E4E4E" d="M94.51,100.332c-0.005,0-0.01,0-0.015,0c-0.327-0.008-0.585-0.28-0.577-0.607
		c0.158-6.316-3.684-8.941-3.848-9.05c-0.271-0.18-0.347-0.547-0.167-0.819c0.18-0.272,0.543-0.35,0.818-0.17
		c0.186,0.122,4.556,3.067,4.381,10.069C95.093,100.076,94.831,100.332,94.51,100.332z"/>
	<path fill="#4E4E4E" d="M18.051,82.318c-0.024,0-0.047-0.001-0.071-0.004c-0.325-0.039-0.557-0.334-0.518-0.658
		c0.55-4.58,4.944-6.761,5.131-6.852c0.295-0.143,0.647-0.019,0.79,0.274c0.143,0.294,0.021,0.648-0.273,0.791
		c-0.04,0.02-4.001,1.999-4.472,5.928C18.602,82.097,18.346,82.318,18.051,82.318z"/>
	<path fill="#4E4E4E" d="M21.511,83.909c-0.032,0-0.064-0.002-0.096-0.008c-0.322-0.053-0.541-0.357-0.489-0.679
		c0.842-5.167,4.33-7.477,4.478-7.573c0.272-0.177,0.638-0.099,0.817,0.174c0.178,0.274,0.1,0.64-0.173,0.819
		c-0.032,0.021-3.2,2.143-3.954,6.77C22.048,83.703,21.796,83.909,21.511,83.909z"/>
	<path fill="#4E4E4E" d="M25.111,85.221c-0.028,0-0.056-0.002-0.085-0.006c-0.324-0.047-0.548-0.346-0.502-0.67
		c0.781-5.46,3.863-7.738,3.994-7.833c0.267-0.191,0.636-0.131,0.826,0.134c0.191,0.265,0.131,0.634-0.133,0.825
		c-0.042,0.032-2.813,2.121-3.516,7.041C25.653,85.008,25.401,85.221,25.111,85.221z"/>
	<path fill="#4E4E4E" d="M28.655,86.227c-0.031,0-0.062-0.002-0.094-0.007c-0.323-0.052-0.543-0.355-0.491-0.678
		c0.997-6.251,3.535-7.755,3.642-7.816c0.286-0.163,0.646-0.062,0.807,0.223c0.16,0.283,0.063,0.641-0.217,0.804
		c-0.053,0.033-2.177,1.414-3.064,6.976C29.192,86.019,28.941,86.227,28.655,86.227z"/>
	<path fill="#4E4E4E" d="M32.463,87.469c-0.019,0-0.038-0.001-0.057-0.003c-0.326-0.031-0.564-0.32-0.533-0.646
		c0.415-4.338,2.894-7.805,2.999-7.951c0.191-0.264,0.562-0.323,0.826-0.132c0.264,0.191,0.325,0.561,0.133,0.826
		c-0.024,0.033-2.396,3.36-2.78,7.37C33.022,87.24,32.765,87.469,32.463,87.469z"/>
	<path fill="#4E4E4E" d="M36.872,88.698c-0.324,0-0.587-0.26-0.592-0.584c-0.071-5.295,2.869-8.096,2.994-8.213
		c0.239-0.222,0.614-0.21,0.837,0.03c0.223,0.239,0.21,0.613-0.029,0.836c-0.042,0.04-2.682,2.599-2.618,7.332
		c0.005,0.327-0.257,0.595-0.584,0.6C36.877,88.698,36.874,88.698,36.872,88.698z"/>
	<path fill="#4E4E4E" d="M41.016,89.689c-0.248,0-0.479-0.157-0.562-0.405c-0.819-2.457,1.68-7.831,1.968-8.436
		c0.141-0.296,0.494-0.42,0.789-0.28c0.295,0.14,0.421,0.494,0.281,0.789c-0.725,1.524-2.481,5.852-1.914,7.554
		c0.103,0.31-0.065,0.645-0.375,0.748C41.141,89.68,41.077,89.689,41.016,89.689z"/>
	<path fill="#4E4E4E" d="M44.642,90.806c-0.314,0-0.577-0.249-0.59-0.567c-0.143-3.311,2.013-8.143,2.104-8.347
		c0.135-0.299,0.487-0.43,0.782-0.297c0.298,0.134,0.431,0.485,0.297,0.783c-0.021,0.047-2.132,4.78-2.001,7.81
		c0.015,0.326-0.239,0.603-0.566,0.617C44.66,90.806,44.652,90.806,44.642,90.806z"/>
	<path fill="#4E4E4E" d="M89.879,99.271c-0.011,0-0.022,0-0.032-0.001c-0.326-0.017-0.577-0.296-0.56-0.622
		c0.275-5.191-2.729-8.313-2.76-8.344c-0.228-0.233-0.226-0.607,0.006-0.837c0.232-0.229,0.604-0.228,0.836,0.004
		c0.139,0.14,3.403,3.504,3.099,9.239C90.452,99.026,90.191,99.271,89.879,99.271z"/>
	<path fill="#4E4E4E" d="M84.729,99.032c-0.066,0-0.133-0.011-0.199-0.035c-0.308-0.11-0.469-0.449-0.358-0.757
		c1.695-4.745-1.273-8.356-1.303-8.392c-0.21-0.25-0.178-0.624,0.072-0.834c0.251-0.21,0.623-0.179,0.834,0.072
		c0.141,0.168,3.433,4.173,1.512,9.552C85.2,98.882,84.972,99.032,84.729,99.032z"/>
	<path fill="#4E4E4E" d="M79.385,98.069c-0.079,0-0.158-0.015-0.234-0.048c-0.3-0.129-0.439-0.478-0.309-0.778
		c1.805-4.192-0.15-7.845-0.169-7.881c-0.157-0.286-0.052-0.646,0.234-0.804c0.288-0.157,0.647-0.051,0.803,0.235
		c0.093,0.169,2.25,4.201,0.218,8.919C79.832,97.935,79.614,98.069,79.385,98.069z"/>
	<path fill="#4E4E4E" d="M49.442,92.091c-0.288,0-0.54-0.21-0.584-0.502c-0.533-3.478,1.348-8.462,1.429-8.672
		c0.116-0.306,0.459-0.459,0.764-0.342c0.305,0.116,0.459,0.459,0.342,0.764c-0.019,0.049-1.851,4.904-1.365,8.07
		c0.049,0.323-0.172,0.626-0.496,0.675C49.502,92.089,49.472,92.091,49.442,92.091z"/>
	<path fill="#4E4E4E" d="M53.698,92.999c-0.301,0-0.559-0.229-0.588-0.535c-0.415-4.261,1.55-8.388,1.633-8.561
		c0.143-0.295,0.496-0.418,0.791-0.276c0.294,0.142,0.418,0.496,0.276,0.79c-0.019,0.04-1.905,4.009-1.522,7.932
		c0.032,0.325-0.206,0.615-0.532,0.647C53.736,92.998,53.717,92.999,53.698,92.999z"/>
	<path fill="#4E4E4E" d="M58.317,94.158c-0.028,0-0.056-0.002-0.085-0.006c-0.324-0.047-0.548-0.346-0.502-0.67l1.216-8.497
		c0.046-0.323,0.342-0.546,0.67-0.502c0.324,0.047,0.548,0.346,0.502,0.67l-1.216,8.497C58.86,93.945,58.607,94.158,58.317,94.158z"
		/>
	<path fill="#4E4E4E" d="M63.786,94.94c-0.056,0-0.112-0.008-0.168-0.024c-0.314-0.093-0.493-0.422-0.399-0.736
		c1.102-3.729,0.289-8.005,0.281-8.048c-0.062-0.321,0.146-0.632,0.468-0.695c0.314-0.067,0.631,0.146,0.694,0.467
		c0.036,0.186,0.879,4.598-0.308,8.612C64.278,94.774,64.042,94.94,63.786,94.94z"/>
	<path fill="#4E4E4E" d="M68.781,96.253c-0.058,0-0.117-0.008-0.176-0.027c-0.312-0.097-0.486-0.429-0.389-0.741
		c1.715-5.505-0.141-8.153-0.16-8.179c-0.191-0.263-0.136-0.633,0.126-0.826c0.261-0.194,0.627-0.141,0.824,0.119
		c0.092,0.124,2.252,3.104,0.34,9.238C69.267,96.091,69.033,96.253,68.781,96.253z"/>
	<path fill="#4E4E4E" d="M74.495,97.419c-0.055,0-0.111-0.008-0.167-0.024c-0.314-0.092-0.493-0.422-0.401-0.735
		c1.448-4.922-0.476-8.088-0.496-8.12c-0.173-0.276-0.089-0.642,0.187-0.816c0.275-0.174,0.64-0.092,0.814,0.183
		c0.092,0.145,2.24,3.622,0.632,9.087C74.987,97.252,74.751,97.419,74.495,97.419z"/>
	<path fill="#4E4E4E" d="M98.145,105.336c-8.144,0-23.744-2.415-44.88-7.013C18.738,90.812,9.52,83.627,9.144,83.325
		c-0.177-0.142-0.257-0.371-0.207-0.592l1.082-4.796c0.071-0.319,0.388-0.522,0.708-0.447c0.319,0.072,0.52,0.389,0.447,0.708
		l-0.996,4.414c1.813,1.248,12.439,7.831,43.338,14.553c32.77,7.129,47.176,7.915,49.725,6.272c0.082-0.053,0.224-0.158,0.247-0.264
		c0.542-2.502,0.207-3.869,0.203-3.883c-0.08-0.316,0.109-0.639,0.423-0.721c0.321-0.081,0.637,0.104,0.721,0.418
		c0.017,0.065,0.419,1.621-0.19,4.436c-0.087,0.399-0.344,0.739-0.763,1.009C102.943,105.039,101.003,105.336,98.145,105.336z"/>
	<path fill="#4E4E4E" d="M11.393,84.954c-0.308,0-0.568-0.239-0.59-0.551l-0.39-5.637c-0.022-0.326,0.224-0.609,0.55-0.631
		c0.326-0.024,0.609,0.224,0.631,0.55l0.39,5.637c0.022,0.326-0.224,0.609-0.55,0.631C11.421,84.953,11.407,84.954,11.393,84.954z"
		/>
	<path fill="#4E4E4E" d="M14.295,86.266c-0.304,0-0.563-0.233-0.589-0.542l-0.446-5.247c-0.028-0.326,0.214-0.612,0.54-0.64
		c0.32-0.031,0.612,0.214,0.64,0.54l0.446,5.247c0.028,0.326-0.214,0.612-0.54,0.64C14.329,86.265,14.312,86.266,14.295,86.266z"/>
	<path fill="#4E4E4E" d="M17.211,87.48c-0.304,0-0.563-0.234-0.589-0.543l-0.439-5.295c-0.027-0.326,0.215-0.612,0.541-0.639
		c0.324-0.024,0.611,0.216,0.638,0.541l0.439,5.295c0.027,0.326-0.215,0.612-0.541,0.639C17.245,87.48,17.228,87.48,17.211,87.48z"
		/>
	<path fill="#4E4E4E" d="M20.148,88.897c-0.307,0-0.567-0.237-0.59-0.548l-0.411-5.49c-0.025-0.326,0.22-0.61,0.547-0.635
		c0.325-0.02,0.61,0.22,0.634,0.546l0.411,5.49c0.025,0.326-0.22,0.61-0.547,0.635C20.178,88.897,20.163,88.897,20.148,88.897z"/>
	<path fill="#4E4E4E" d="M23.218,90.084c-0.308,0-0.568-0.239-0.59-0.551l-0.39-5.637c-0.022-0.326,0.224-0.609,0.55-0.631
		c0.325-0.026,0.609,0.224,0.631,0.55l0.39,5.637c0.022,0.326-0.224,0.609-0.55,0.631C23.245,90.083,23.231,90.084,23.218,90.084z"
		/>
	<path fill="#4E4E4E" d="M26.594,91.214c-0.308,0-0.568-0.239-0.59-0.551l-0.389-5.637c-0.022-0.326,0.224-0.609,0.55-0.631
		c0.322-0.029,0.609,0.223,0.631,0.55l0.389,5.637c0.022,0.326-0.224,0.609-0.55,0.631C26.622,91.214,26.608,91.214,26.594,91.214z"
		/>
	<path fill="#4E4E4E" d="M29.601,92.143c-0.308,0-0.568-0.239-0.59-0.551l-0.389-5.637c-0.022-0.326,0.224-0.609,0.55-0.631
		c0.322-0.027,0.609,0.224,0.631,0.55l0.389,5.637c0.022,0.326-0.224,0.609-0.55,0.631C29.628,92.143,29.615,92.143,29.601,92.143z"
		/>
	<path fill="#4E4E4E" d="M33.235,93.211c-0.308,0-0.568-0.239-0.59-0.551l-0.389-5.637c-0.022-0.326,0.224-0.609,0.55-0.631
		c0.321-0.03,0.609,0.223,0.631,0.55l0.389,5.637c0.022,0.326-0.224,0.609-0.55,0.631C33.263,93.211,33.249,93.211,33.235,93.211z"
		/>
	<path fill="#4E4E4E" d="M36.87,94.279c-0.308,0-0.568-0.239-0.59-0.551l-0.39-5.637c-0.022-0.326,0.224-0.609,0.55-0.631
		c0.321-0.024,0.609,0.224,0.631,0.55l0.39,5.637c0.022,0.326-0.224,0.609-0.55,0.631C36.898,94.279,36.884,94.279,36.87,94.279z"/>
	<path fill="#4E4E4E" d="M40.861,95.299c-0.308,0-0.568-0.239-0.59-0.551l-0.39-5.637c-0.022-0.326,0.224-0.609,0.55-0.631
		c0.322-0.023,0.609,0.224,0.631,0.55l0.39,5.637c0.022,0.326-0.224,0.609-0.55,0.631C40.888,95.298,40.875,95.299,40.861,95.299z"
		/>
	<path fill="#4E4E4E" d="M44.614,96.234c-0.304,0-0.563-0.234-0.589-0.543l-0.439-5.295c-0.027-0.326,0.215-0.612,0.541-0.639
		c0.322-0.02,0.612,0.215,0.638,0.541l0.439,5.295c0.027,0.326-0.215,0.612-0.541,0.639C44.647,96.234,44.63,96.234,44.614,96.234z"
		/>
	<path fill="#4E4E4E" d="M47.968,97.171c-0.304,0-0.563-0.233-0.589-0.542l-0.444-5.255c-0.028-0.326,0.214-0.612,0.54-0.64
		c0.323-0.021,0.612,0.214,0.64,0.54l0.444,5.255c0.028,0.326-0.214,0.612-0.54,0.64C48.002,97.171,47.985,97.171,47.968,97.171z"/>
	<path fill="#4E4E4E" d="M51.255,97.882c-0.304,0-0.563-0.233-0.589-0.542l-0.445-5.255c-0.028-0.326,0.214-0.612,0.54-0.64
		c0.324-0.023,0.612,0.214,0.64,0.54l0.445,5.255c0.028,0.326-0.214,0.612-0.54,0.64C51.289,97.881,51.272,97.882,51.255,97.882z"/>
	<path fill="#4E4E4E" d="M54.834,98.643c-0.302,0-0.56-0.231-0.589-0.538l-0.466-5.1c-0.029-0.326,0.21-0.614,0.536-0.644
		c0.32-0.026,0.614,0.21,0.644,0.536l0.466,5.1c0.029,0.326-0.21,0.614-0.536,0.644C54.87,98.642,54.852,98.643,54.834,98.643z"/>
	<path fill="#4E4E4E" d="M58.406,99.453c-0.304,0-0.563-0.234-0.589-0.543l-0.439-5.295c-0.027-0.326,0.215-0.612,0.541-0.639
		c0.326-0.017,0.611,0.216,0.638,0.541l0.439,5.295c0.027,0.326-0.215,0.612-0.541,0.639C58.439,99.452,58.422,99.453,58.406,99.453
		z"/>
	<path fill="#4E4E4E" d="M62.215,99.998c-0.3,0-0.557-0.227-0.588-0.531l-0.501-4.856c-0.033-0.325,0.203-0.616,0.528-0.65
		c0.335-0.027,0.617,0.203,0.65,0.528l0.501,4.856c0.033,0.325-0.203,0.616-0.528,0.65C62.255,99.997,62.235,99.998,62.215,99.998z"
		/>
	<path fill="#4E4E4E" d="M65.821,100.912c-0.3,0-0.557-0.227-0.588-0.531l-0.501-4.856c-0.033-0.325,0.203-0.616,0.528-0.65
		c0.333-0.031,0.616,0.203,0.65,0.528l0.501,4.856c0.033,0.325-0.203,0.616-0.528,0.65
		C65.862,100.911,65.841,100.912,65.821,100.912z"/>
	<path fill="#4E4E4E" d="M69.617,101.555c-0.296,0-0.552-0.222-0.587-0.524l-0.536-4.612c-0.038-0.325,0.195-0.619,0.52-0.656
		c0.316-0.037,0.618,0.194,0.657,0.52l0.536,4.612c0.038,0.325-0.195,0.619-0.52,0.656C69.663,101.554,69.64,101.555,69.617,101.555
		z"/>
	<path fill="#4E4E4E" d="M73.447,102.302c-0.3,0-0.557-0.227-0.588-0.531l-0.502-4.856c-0.034-0.325,0.203-0.616,0.528-0.65
		c0.336-0.031,0.616,0.203,0.65,0.528l0.502,4.856c0.034,0.325-0.203,0.616-0.528,0.65
		C73.488,102.301,73.467,102.302,73.447,102.302z"/>
	<path fill="#4E4E4E" d="M77.137,102.98c-0.3,0-0.557-0.227-0.588-0.531l-0.502-4.856c-0.034-0.325,0.203-0.616,0.528-0.65
		c0.336-0.032,0.616,0.203,0.65,0.528l0.502,4.856c0.034,0.325-0.203,0.616-0.528,0.65C77.178,102.979,77.157,102.98,77.137,102.98z
		"/>
	<path fill="#4E4E4E" d="M80.842,103.56c-0.298,0-0.555-0.225-0.588-0.528l-0.516-4.758c-0.035-0.325,0.2-0.617,0.525-0.652
		c0.319-0.034,0.617,0.199,0.653,0.525l0.516,4.758c0.035,0.325-0.2,0.617-0.525,0.652C80.885,103.559,80.864,103.56,80.842,103.56z
		"/>
	<path fill="#4E4E4E" d="M84.553,104.09c-0.296,0-0.552-0.222-0.587-0.524l-0.536-4.612c-0.038-0.325,0.195-0.619,0.52-0.656
		c0.319-0.04,0.619,0.195,0.657,0.52l0.536,4.612c0.038,0.325-0.195,0.619-0.52,0.656C84.6,104.089,84.577,104.09,84.553,104.09z"/>
	<path fill="#4E4E4E" d="M88.069,104.593c-0.296,0-0.552-0.222-0.587-0.523l-0.536-4.612c-0.038-0.325,0.195-0.619,0.52-0.656
		c0.319-0.039,0.618,0.195,0.657,0.52l0.536,4.612c0.038,0.325-0.195,0.619-0.52,0.656
		C88.115,104.592,88.092,104.593,88.069,104.593z"/>
	<path fill="#4E4E4E" d="M91.474,104.831c-0.296,0-0.552-0.222-0.587-0.523l-0.536-4.612c-0.038-0.325,0.195-0.619,0.52-0.656
		c0.318-0.037,0.618,0.194,0.657,0.52l0.536,4.612c0.038,0.325-0.195,0.619-0.52,0.656C91.52,104.83,91.497,104.831,91.474,104.831z
		"/>
	<path fill="#4E4E4E" d="M94.815,105.16c-0.294,0-0.55-0.219-0.587-0.519l-0.557-4.465c-0.041-0.325,0.19-0.62,0.514-0.661
		c0.323-0.04,0.621,0.19,0.661,0.514l0.557,4.465c0.041,0.325-0.19,0.62-0.514,0.661C94.865,105.158,94.84,105.16,94.815,105.16z"/>
	<path fill="#4E4E4E" d="M97.948,105.209c-0.296,0-0.552-0.222-0.587-0.524l-0.536-4.612c-0.038-0.325,0.195-0.619,0.52-0.656
		c0.317-0.037,0.618,0.194,0.657,0.52l0.536,4.612c0.038,0.325-0.195,0.619-0.52,0.656
		C97.994,105.208,97.971,105.209,97.948,105.209z"/>
	<path fill="#4E4E4E" d="M100.627,104.945c-0.296,0-0.552-0.222-0.587-0.524l-0.536-4.612c-0.038-0.325,0.195-0.619,0.52-0.656
		c0.318-0.039,0.618,0.195,0.657,0.52l0.536,4.612c0.038,0.325-0.195,0.619-0.52,0.656
		C100.673,104.944,100.65,104.945,100.627,104.945z"/>
	<path fill="#4E4E4E" d="M103.25,104.722c-0.296,0-0.552-0.222-0.587-0.524l-0.536-4.612c-0.038-0.325,0.195-0.619,0.52-0.656
		c0.317-0.039,0.618,0.195,0.657,0.52l0.536,4.612c0.038,0.325-0.195,0.619-0.52,0.656
		C103.296,104.721,103.273,104.722,103.25,104.722z"/>
	<path fill="#4E4E4E" d="M96.203,109.557c-6.045,0-18.015-0.92-39.45-5.693c-18.777-4.18-50.12-11.915-49.058-16.743
		c0.574-2.608,2.162-7.937,2.229-8.162c0.092-0.313,0.417-0.495,0.737-0.398c0.313,0.094,0.491,0.423,0.398,0.737
		c-0.016,0.055-1.643,5.512-2.208,8.078c-0.269,1.222,7.858,6.36,48.159,15.333c30.72,6.839,42.017,5.669,43.885,5.384l2.008-4.713
		c0.129-0.302,0.479-0.441,0.777-0.313c0.301,0.128,0.441,0.476,0.313,0.777l-2.134,5.008c-0.075,0.174-0.227,0.302-0.411,0.345
		C101.293,109.233,99.791,109.557,96.203,109.557z"/>
	<path fill="#4E4E4E" d="M97.926,109.367c-0.096,0-0.193-0.024-0.284-0.073c-0.287-0.157-0.392-0.517-0.234-0.804l2.191-3.997
		c0.156-0.286,0.516-0.393,0.803-0.235c0.287,0.157,0.392,0.517,0.234,0.804l-2.191,3.997
		C98.339,109.256,98.136,109.367,97.926,109.367z"/>
	<path fill="#4E4E4E" d="M94.77,109.25c-0.095,0-0.19-0.023-0.28-0.071c-0.288-0.155-0.395-0.514-0.24-0.802l2.048-3.804
		c0.154-0.287,0.514-0.396,0.802-0.24c0.288,0.155,0.395,0.514,0.24,0.802l-2.048,3.804C95.185,109.137,94.981,109.25,94.77,109.25z
		"/>
	<path fill="#4E4E4E" d="M91.509,109.309c-0.096,0-0.194-0.024-0.284-0.073c-0.287-0.157-0.391-0.517-0.234-0.804l2.253-4.1
		c0.157-0.287,0.517-0.392,0.804-0.234c0.287,0.157,0.391,0.517,0.234,0.804l-2.253,4.1
		C91.921,109.198,91.718,109.309,91.509,109.309z"/>
	<path fill="#4E4E4E" d="M88.225,109.102c-0.1,0-0.201-0.025-0.294-0.079c-0.284-0.163-0.381-0.525-0.218-0.808l2.384-4.145
		c0.163-0.283,0.524-0.381,0.809-0.218c0.284,0.163,0.381,0.525,0.218,0.808l-2.384,4.145
		C88.629,108.996,88.43,109.102,88.225,109.102z"/>
	<path fill="#4E4E4E" d="M84.685,108.717c-0.098,0-0.197-0.024-0.289-0.076c-0.285-0.16-0.386-0.521-0.227-0.806l2.345-4.172
		c0.16-0.284,0.521-0.387,0.806-0.226c0.285,0.16,0.386,0.521,0.227,0.806l-2.345,4.172
		C85.094,108.608,84.893,108.717,84.685,108.717z"/>
	<path fill="#4E4E4E" d="M81.566,108.303c-0.101,0-0.204-0.026-0.298-0.081c-0.283-0.165-0.378-0.527-0.213-0.81l2.366-4.052
		c0.164-0.282,0.527-0.38,0.809-0.212c0.283,0.165,0.378,0.527,0.213,0.81l-2.366,4.052
		C81.967,108.198,81.769,108.303,81.566,108.303z"/>
	<path fill="#4E4E4E" d="M77.817,107.752c-0.108,0-0.217-0.029-0.315-0.091c-0.277-0.175-0.359-0.54-0.184-0.817l2.62-4.151
		c0.174-0.276,0.54-0.36,0.816-0.185c0.277,0.175,0.359,0.54,0.184,0.817l-2.62,4.151C78.206,107.655,78.014,107.752,77.817,107.752
		z"/>
	<path fill="#4E4E4E" d="M74.07,107.202c-0.1,0-0.203-0.025-0.296-0.08c-0.283-0.164-0.379-0.526-0.216-0.809l2.412-4.167
		c0.164-0.283,0.526-0.38,0.809-0.216c0.283,0.164,0.379,0.526,0.216,0.809l-2.412,4.167
		C74.473,107.096,74.274,107.202,74.07,107.202z"/>
	<path fill="#4E4E4E" d="M70.019,106.459c-0.101,0-0.203-0.026-0.298-0.081c-0.282-0.165-0.378-0.527-0.214-0.809l2.5-4.289
		c0.165-0.282,0.526-0.378,0.81-0.214c0.282,0.165,0.378,0.527,0.214,0.809l-2.5,4.289
		C70.421,106.354,70.223,106.459,70.019,106.459z"/>
	<path fill="#4E4E4E" d="M66.218,105.738c-0.101,0-0.203-0.026-0.297-0.081c-0.283-0.165-0.378-0.527-0.214-0.809l2.457-4.218
		c0.165-0.282,0.528-0.379,0.809-0.214c0.283,0.165,0.378,0.527,0.214,0.809l-2.457,4.218
		C66.62,105.633,66.422,105.738,66.218,105.738z"/>
	<path fill="#4E4E4E" d="M62.78,105.187c-0.099,0-0.199-0.025-0.291-0.077c-0.284-0.161-0.384-0.523-0.223-0.807l2.601-4.587
		c0.161-0.283,0.521-0.385,0.807-0.223c0.284,0.161,0.384,0.523,0.223,0.807l-2.601,4.587
		C63.187,105.079,62.986,105.187,62.78,105.187z"/>
	<path fill="#4E4E4E" d="M59.497,104.457c-0.099,0-0.199-0.025-0.291-0.077c-0.284-0.161-0.384-0.523-0.223-0.807l2.601-4.587
		c0.16-0.283,0.522-0.384,0.807-0.223c0.284,0.161,0.384,0.523,0.223,0.807l-2.601,4.587
		C59.904,104.349,59.703,104.457,59.497,104.457z"/>
	<path fill="#4E4E4E" d="M55.928,103.651c-0.1,0-0.202-0.025-0.294-0.079c-0.284-0.163-0.381-0.525-0.217-0.809l2.557-4.437
		c0.163-0.283,0.526-0.381,0.808-0.217c0.284,0.163,0.381,0.525,0.217,0.809l-2.557,4.437
		C56.332,103.545,56.133,103.651,55.928,103.651z"/>
	<path fill="#4E4E4E" d="M52.344,102.893c-0.102,0-0.204-0.026-0.298-0.081c-0.282-0.165-0.377-0.528-0.212-0.81l2.49-4.249
		c0.165-0.283,0.528-0.378,0.81-0.212c0.282,0.165,0.377,0.528,0.212,0.81l-2.49,4.249
		C52.746,102.788,52.548,102.893,52.344,102.893z"/>
	<path fill="#4E4E4E" d="M48.657,101.794c-0.103,0-0.206-0.027-0.301-0.082c-0.281-0.166-0.375-0.53-0.208-0.811l2.487-4.201
		c0.166-0.282,0.529-0.375,0.811-0.208c0.281,0.166,0.375,0.53,0.208,0.811l-2.487,4.201
		C49.057,101.691,48.859,101.794,48.657,101.794z"/>
	<path fill="#4E4E4E" d="M44.998,101.116c-0.103,0-0.206-0.027-0.301-0.082c-0.281-0.166-0.375-0.53-0.208-0.811l2.487-4.201
		c0.166-0.282,0.529-0.375,0.811-0.208c0.281,0.166,0.375,0.53,0.208,0.811l-2.487,4.201
		C45.397,101.012,45.2,101.116,44.998,101.116z"/>
	<path fill="#4E4E4E" d="M41.282,100.112c-0.105,0-0.211-0.028-0.308-0.086c-0.279-0.17-0.368-0.535-0.197-0.814l2.416-3.964
		c0.17-0.28,0.534-0.367,0.814-0.198c0.279,0.17,0.368,0.535,0.197,0.814l-2.416,3.964
		C41.677,100.011,41.482,100.112,41.282,100.112z"/>
	<path fill="#4E4E4E" d="M37.491,99.189c-0.108,0-0.217-0.03-0.315-0.092c-0.277-0.175-0.359-0.54-0.184-0.817l2.477-3.918
		c0.174-0.276,0.54-0.359,0.816-0.184c0.277,0.175,0.359,0.54,0.184,0.817l-2.477,3.918C37.879,99.091,37.687,99.189,37.491,99.189z
		"/>
	<path fill="#4E4E4E" d="M33.856,98.26c-0.103,0-0.206-0.027-0.301-0.082c-0.281-0.166-0.375-0.53-0.208-0.811l2.487-4.201
		c0.167-0.281,0.53-0.374,0.811-0.208c0.281,0.166,0.375,0.53,0.208,0.811l-2.487,4.201C34.255,98.156,34.058,98.26,33.856,98.26z"
		/>
	<path fill="#4E4E4E" d="M30.248,97.237c-0.103,0-0.208-0.027-0.303-0.084c-0.281-0.168-0.372-0.531-0.204-0.812l2.458-4.107
		c0.168-0.281,0.532-0.373,0.812-0.204c0.281,0.168,0.372,0.531,0.204,0.812l-2.458,4.106
		C30.646,97.135,30.449,97.237,30.248,97.237z"/>
	<path fill="#4E4E4E" d="M26.655,96.167c-0.105,0-0.211-0.028-0.308-0.086c-0.279-0.17-0.368-0.535-0.197-0.814l2.416-3.965
		c0.17-0.279,0.534-0.368,0.814-0.198c0.279,0.17,0.368,0.535,0.197,0.814l-2.416,3.965C27.049,96.066,26.854,96.167,26.655,96.167z
		"/>
	<path fill="#4E4E4E" d="M23.251,95.153c-0.105,0-0.211-0.028-0.308-0.086c-0.279-0.17-0.368-0.535-0.197-0.814l2.416-3.965
		c0.17-0.279,0.534-0.368,0.814-0.198c0.279,0.17,0.368,0.535,0.197,0.814l-2.416,3.965C23.645,95.052,23.45,95.153,23.251,95.153z"
		/>
	<path fill="#4E4E4E" d="M20.059,93.945c-0.105,0-0.211-0.028-0.308-0.086c-0.279-0.17-0.368-0.535-0.197-0.814l2.416-3.964
		c0.17-0.279,0.535-0.368,0.814-0.198s0.368,0.535,0.197,0.814l-2.416,3.964C20.453,93.844,20.258,93.945,20.059,93.945z"/>
	<path fill="#4E4E4E" d="M16.886,92.845c-0.106,0-0.214-0.029-0.311-0.089c-0.278-0.173-0.363-0.538-0.19-0.815l2.374-3.822
		c0.172-0.278,0.537-0.364,0.815-0.191c0.278,0.173,0.363,0.538,0.19,0.815l-2.374,3.822C17.278,92.746,17.084,92.845,16.886,92.845
		z"/>
	<path fill="#4E4E4E" d="M14.02,91.58c-0.105,0-0.211-0.028-0.308-0.086c-0.279-0.17-0.368-0.535-0.197-0.814l2.416-3.965
		c0.17-0.279,0.534-0.368,0.814-0.198c0.279,0.17,0.368,0.535,0.197,0.814l-2.416,3.965C14.415,91.479,14.22,91.58,14.02,91.58z"/>
	<path fill="#4E4E4E" d="M11.698,90.219c-0.105,0-0.211-0.028-0.308-0.086c-0.279-0.17-0.368-0.535-0.197-0.814l2.416-3.964
		c0.17-0.279,0.535-0.368,0.814-0.198c0.279,0.17,0.368,0.535,0.197,0.814l-2.416,3.964C12.092,90.118,11.897,90.219,11.698,90.219z
		"/>
	<path fill="#4E4E4E" d="M9.408,88.919c-0.104,0-0.21-0.027-0.305-0.085c-0.28-0.169-0.37-0.533-0.201-0.812l2.055-3.407
		c0.17-0.28,0.533-0.371,0.813-0.201c0.28,0.169,0.37,0.533,0.201,0.812l-2.055,3.407C9.804,88.817,9.609,88.919,9.408,88.919z"/>
	<path fill="#4E4E4E" d="M87.816,117.209c-6.193,0-15.797-0.92-30.547-4.06c-24.447-5.205-41.647-11.193-47.191-16.427
		c-4.734-4.471-2.336-9.761-2.312-9.814c0.14-0.296,0.489-0.424,0.788-0.285c0.295,0.138,0.423,0.49,0.285,0.786l0,0
		c-0.086,0.185-2.047,4.582,2.051,8.452c2.551,2.408,12.198,8.8,46.625,16.13c27.634,5.884,36.838,3.948,39.514,2.844
		c2.134-0.881,2.666-2.257,3.093-3.363c0.427-1.106,0.398-2.646,0.397-2.662c-0.002-0.098,0.02-0.194,0.064-0.282l2.834-5.581
		c0.149-0.291,0.503-0.408,0.796-0.26c0.291,0.148,0.408,0.504,0.26,0.796l-2.77,5.453c-0.003,0.461-0.049,1.851-0.478,2.961
		c-0.454,1.177-1.141,2.955-3.745,4.031C96.17,116.471,93.361,117.209,87.816,117.209z"/>
	<path fill="#4E4E4E" d="M12.808,98.412c-0.251,0-0.484-0.16-0.564-0.412l-2.58-8.094c-0.099-0.311,0.073-0.644,0.385-0.743
		c0.31-0.102,0.644,0.072,0.744,0.384l2.58,8.094c0.099,0.311-0.073,0.644-0.385,0.743C12.928,98.403,12.867,98.412,12.808,98.412z"
		/>
	<path fill="#4E4E4E" d="M16.999,100.806c-0.264,0-0.505-0.178-0.573-0.446l-2.168-8.533c-0.081-0.317,0.111-0.639,0.428-0.72
		c0.314-0.08,0.639,0.111,0.719,0.428l2.168,8.533c0.081,0.317-0.111,0.639-0.428,0.72C17.097,100.8,17.048,100.806,16.999,100.806z
		"/>
	<path fill="#4E4E4E" d="M23.111,103.374c-0.251,0-0.483-0.16-0.563-0.411l-2.928-9.14c-0.1-0.311,0.072-0.645,0.383-0.745
		c0.313-0.1,0.644,0.072,0.744,0.383l2.928,9.14c0.1,0.311-0.072,0.645-0.383,0.745C23.231,103.365,23.171,103.374,23.111,103.374z"
		/>
	<path fill="#4E4E4E" d="M29.369,105.615c-0.24,0-0.465-0.146-0.554-0.383l-3.466-9.217c-0.115-0.306,0.04-0.647,0.346-0.763
		c0.305-0.114,0.647,0.04,0.762,0.346l3.466,9.217c0.115,0.306-0.04,0.647-0.346,0.763
		C29.508,105.603,29.438,105.615,29.369,105.615z"/>
	<path fill="#4E4E4E" d="M35.347,107.367c-0.24,0-0.465-0.146-0.554-0.383l-3.466-9.217c-0.115-0.306,0.04-0.647,0.346-0.763
		c0.306-0.115,0.647,0.04,0.762,0.346l3.466,9.217c0.115,0.306-0.04,0.647-0.346,0.763
		C35.487,107.355,35.416,107.367,35.347,107.367z"/>
	<path fill="#4E4E4E" d="M41.012,108.875c-0.24,0-0.465-0.146-0.554-0.383l-3.466-9.217c-0.115-0.306,0.04-0.647,0.346-0.763
		c0.306-0.116,0.647,0.039,0.762,0.346l3.466,9.217c0.115,0.306-0.04,0.647-0.346,0.763
		C41.151,108.863,41.081,108.875,41.012,108.875z"/>
	<path fill="#4E4E4E" d="M46.976,110.376c-0.24,0-0.465-0.146-0.554-0.383l-3.466-9.217c-0.115-0.306,0.04-0.647,0.346-0.763
		c0.306-0.116,0.647,0.039,0.762,0.346l3.466,9.217c0.115,0.306-0.04,0.647-0.346,0.763
		C47.116,110.364,47.046,110.376,46.976,110.376z"/>
	<path fill="#4E4E4E" d="M53.088,111.898c-0.24,0-0.465-0.146-0.554-0.383l-3.466-9.217c-0.115-0.306,0.04-0.647,0.346-0.763
		c0.305-0.114,0.647,0.04,0.762,0.346l3.466,9.217c0.115,0.306-0.04,0.647-0.346,0.763
		C53.228,111.886,53.157,111.898,53.088,111.898z"/>
	<path fill="#4E4E4E" d="M60.008,113.337c-0.24,0-0.465-0.146-0.554-0.383l-3.466-9.217c-0.115-0.306,0.04-0.647,0.346-0.763
		c0.305-0.114,0.647,0.04,0.762,0.346l3.466,9.217c0.115,0.306-0.04,0.647-0.346,0.763
		C60.148,113.325,60.078,113.337,60.008,113.337z"/>
	<path fill="#4E4E4E" d="M66.978,114.782c-0.24,0-0.465-0.146-0.554-0.383l-3.466-9.217c-0.115-0.306,0.04-0.647,0.346-0.763
		c0.304-0.115,0.647,0.04,0.762,0.346l3.466,9.217c0.115,0.306-0.04,0.647-0.346,0.763C67.118,114.77,67.048,114.782,66.978,114.782
		z"/>
	<path fill="#4E4E4E" d="M73.542,115.921c-0.24,0-0.465-0.146-0.554-0.383l-3.466-9.217c-0.115-0.306,0.04-0.647,0.346-0.763
		c0.306-0.115,0.647,0.039,0.762,0.346l3.466,9.217c0.115,0.306-0.04,0.647-0.346,0.763
		C73.682,115.909,73.612,115.921,73.542,115.921z"/>
	<path fill="#4E4E4E" d="M79.989,116.843c-0.24,0-0.465-0.146-0.554-0.383l-3.466-9.217c-0.115-0.306,0.04-0.647,0.346-0.763
		c0.307-0.116,0.647,0.039,0.762,0.346l3.466,9.217c0.115,0.306-0.04,0.647-0.346,0.763
		C80.128,116.831,80.058,116.843,79.989,116.843z"/>
	<path fill="#4E4E4E" d="M85.675,117.158c-0.242,0-0.469-0.149-0.557-0.39l-3.219-8.855c-0.112-0.308,0.047-0.647,0.355-0.759
		c0.305-0.112,0.647,0.047,0.758,0.354l3.219,8.855c0.112,0.308-0.047,0.647-0.355,0.759
		C85.811,117.147,85.742,117.158,85.675,117.158z"/>
	<path fill="#4E4E4E" d="M90.544,117.256c-0.247,0-0.479-0.156-0.561-0.404l-2.793-8.346c-0.104-0.31,0.063-0.645,0.373-0.749
		c0.311-0.103,0.646,0.063,0.749,0.374l2.793,8.346c0.104,0.31-0.063,0.645-0.373,0.749
		C90.67,117.247,90.607,117.256,90.544,117.256z"/>
	<path fill="#4E4E4E" d="M94.821,116.622c-0.244,0-0.473-0.151-0.558-0.395l-2.625-7.425c-0.109-0.308,0.052-0.646,0.361-0.755
		c0.31-0.109,0.647,0.052,0.755,0.361l2.625,7.425c0.109,0.308-0.052,0.646-0.361,0.755
		C94.952,116.612,94.886,116.622,94.821,116.622z"/>
	<path fill="#4E4E4E" d="M98.672,115.13c-0.237,0-0.462-0.144-0.553-0.379l-2.144-5.562c-0.117-0.305,0.035-0.648,0.34-0.765
		c0.305-0.118,0.647,0.034,0.765,0.339l2.144,5.562c0.117,0.305-0.035,0.648-0.34,0.765C98.815,115.117,98.743,115.13,98.672,115.13
		z"/>
</g>
</svg>
