<?xml version="1.0" encoding="utf-8"?>
<!-- Generator: Adobe Illustrator 17.0.0, SVG Export Plug-In . SVG Version: 6.00 Build 0)  -->
<!DOCTYPE svg PUBLIC "-//W3C//DTD SVG 1.1//EN" "http://www.w3.org/Graphics/SVG/1.1/DTD/svg11.dtd">
<svg version="1.1" id="Слой_1" xmlns="http://www.w3.org/2000/svg" xmlns:xlink="http://www.w3.org/1999/xlink" x="0px" y="0px"
	 width="97.333px" height="159.333px" viewBox="0 0 97.333 159.333" enable-background="new 0 0 97.333 159.333"
	 xml:space="preserve">
<path fill="#4E4E4E" d="M48.645,153.96c-0.246,0-0.482-0.139-0.595-0.375l-43.644-91.3c-0.077-0.161-0.085-0.347-0.023-0.514
	l12.032-32.32c0.062-0.166,0.188-0.3,0.35-0.373L27.38,24.36c0.161-0.072,0.345-0.075,0.509-0.011L60.21,37.088
	c0.156,0.061,0.283,0.18,0.354,0.332l34.68,73.606c0.071,0.152,0.082,0.326,0.03,0.486l-8.021,24.535
	c-0.058,0.175-0.185,0.318-0.351,0.394L48.919,153.9C48.83,153.941,48.737,153.96,48.645,153.96z M5.715,61.969l43.244,90.462
	l37.131-17.066l7.85-24.013L59.483,38.219l-31.82-12.542l-10.11,4.494L5.715,61.969z"/>
<path fill="#4E4E4E" d="M31.422,58.532c-6.672,0-12.101-5.429-12.101-12.101S24.75,34.33,31.422,34.33s12.101,5.428,12.101,12.101
	S38.095,58.532,31.422,58.532z M31.422,35.648c-5.946,0-10.783,4.837-10.783,10.782c0,5.946,4.837,10.783,10.783,10.783
	s10.783-4.837,10.783-10.783C42.205,40.485,37.368,35.648,31.422,35.648z"/>
<path fill="#4E4E4E" d="M31.422,53.578c-3.811,0-6.911-3.1-6.911-6.911c0-3.811,3.1-6.911,6.911-6.911s6.911,3.1,6.911,6.911
	C38.333,50.478,35.233,53.578,31.422,53.578z M31.422,41.074c-3.084,0-5.593,2.509-5.593,5.593s2.509,5.593,5.593,5.593
	s5.593-2.509,5.593-5.593S34.506,41.074,31.422,41.074z"/>
<path fill="#4E4E4E" d="M43.862,126.134c-1.074,0-2.009-0.578-2.44-1.509L17.336,72.605c-0.617-1.334,0.029-2.95,1.44-3.604
	l37.83-17.515c0.395-0.183,0.812-0.276,1.24-0.276c1.074,0,2.009,0.578,2.44,1.509l24.085,52.021
	c0.303,0.654,0.315,1.393,0.033,2.08c-0.275,0.67-0.797,1.211-1.473,1.524l-37.83,17.515
	C44.707,126.041,44.29,126.134,43.862,126.134z M57.846,52.528c-0.235,0-0.466,0.052-0.686,0.154L19.33,70.197
	c-0.751,0.348-1.109,1.18-0.797,1.854l24.086,52.021c0.303,0.654,1.192,0.935,1.929,0.591l37.83-17.515
	c0.373-0.173,0.659-0.466,0.808-0.827c0.141-0.344,0.137-0.708-0.01-1.026L59.089,53.273C58.877,52.814,58.4,52.528,57.846,52.528z"
	/>
<path fill="#4E4E4E" d="M24.345,74.456c-0.247,0-0.485-0.14-0.597-0.378c-0.155-0.33-0.014-0.722,0.315-0.878L56.62,57.866
	c0.331-0.154,0.722-0.013,0.878,0.315c0.155,0.33,0.014,0.722-0.315,0.878L24.626,74.394C24.535,74.436,24.439,74.456,24.345,74.456
	z"/>
<path fill="#4E4E4E" d="M28.828,82.713c-0.247,0-0.485-0.14-0.597-0.378c-0.155-0.33-0.014-0.722,0.315-0.878l32.556-15.334
	c0.33-0.154,0.723-0.014,0.878,0.315c0.155,0.33,0.014,0.722-0.315,0.878L29.108,82.651C29.017,82.693,28.922,82.713,28.828,82.713z
	"/>
<path fill="#4E4E4E" d="M33.943,93.168c-0.25,0-0.488-0.142-0.6-0.384c-0.152-0.331-0.007-0.722,0.324-0.874l32.707-15.011
	c0.333-0.15,0.722-0.006,0.874,0.324c0.152,0.331,0.007,0.722-0.324,0.874L34.217,93.108C34.128,93.149,34.035,93.168,33.943,93.168
	z"/>
<path fill="#4E4E4E" d="M31.348,87.978c-0.25,0-0.488-0.142-0.6-0.384c-0.152-0.331-0.007-0.722,0.324-0.874l32.707-15.011
	c0.333-0.151,0.723-0.006,0.874,0.324c0.152,0.331,0.007,0.722-0.324,0.874L31.622,87.918
	C31.533,87.958,31.439,87.978,31.348,87.978z"/>
<path fill="#4E4E4E" d="M36.295,99.759c-0.25,0-0.489-0.142-0.6-0.385c-0.151-0.331-0.006-0.722,0.325-0.874l32.72-14.983
	c0.33-0.148,0.722-0.006,0.874,0.325c0.151,0.331,0.006,0.722-0.325,0.874L36.569,99.7C36.48,99.74,36.387,99.759,36.295,99.759z"/>
<path fill="#4E4E4E" d="M45.342,119.516c-0.247,0-0.485-0.14-0.597-0.378c-0.155-0.33-0.014-0.722,0.315-0.878l32.557-15.334
	c0.328-0.156,0.723-0.013,0.877,0.315c0.155,0.33,0.014,0.722-0.316,0.878l-32.556,15.334
	C45.532,119.496,45.436,119.516,45.342,119.516z"/>
<path fill="#4E4E4E" d="M25.967,26.212c-0.263,0-0.512-0.159-0.614-0.42c-0.416-1.066-1.79-4.045-3.133-5.013
	c-1.521-1.097-2.153-1.091-2.258-1.087c-0.136,0.064-0.291,0.077-0.439,0.041c-0.185-0.047-0.339-0.172-0.426-0.342L11.312,3.998
	c-0.164-0.325-0.034-0.721,0.291-0.886c0.324-0.164,0.721-0.034,0.886,0.291l7.571,14.97c0.582,0.021,1.509,0.312,2.931,1.336
	c1.935,1.394,3.524,5.432,3.591,5.603c0.132,0.339-0.036,0.721-0.375,0.854C26.128,26.197,26.047,26.212,25.967,26.212z"/>
<path fill="#4E4E4E" d="M17.651,30.104c-0.25,0-0.489-0.143-0.6-0.385c-2.379-5.203-1.721-7.842-1.296-8.776L8.306,6.389
	C8.139,6.065,8.268,5.668,8.592,5.502c0.323-0.167,0.721-0.038,0.887,0.286l7.608,14.863c0.114,0.222,0.092,0.488-0.055,0.689
	c-0.006,0.009-1.369,2.173,1.218,7.83c0.151,0.331,0.006,0.722-0.325,0.874C17.836,30.085,17.743,30.104,17.651,30.104z"/>
<path fill="#4E4E4E" d="M86.628,136.502c-0.249,0-0.487-0.141-0.598-0.381l-8.139-17.458c-0.154-0.33-0.011-0.722,0.318-0.876
	l15.924-7.432c0.329-0.154,0.722-0.011,0.876,0.318c0.154,0.33,0.011,0.722-0.318,0.876l-15.328,7.153l7.861,16.861
	c0.154,0.33,0.011,0.722-0.318,0.876C86.816,136.483,86.72,136.502,86.628,136.502z"/>
<path fill="#4E4E4E" d="M70.348,143.934c-0.068,0-0.136-0.01-0.205-0.033c-0.346-0.113-0.535-0.485-0.421-0.831l8.139-24.889
	c0.113-0.346,0.482-0.535,0.832-0.422c0.346,0.113,0.535,0.485,0.421,0.831l-8.139,24.889
	C70.884,143.757,70.625,143.934,70.348,143.934z"/>
</svg>
