<?xml version="1.0" encoding="utf-8"?>
<!-- Generator: Adobe Illustrator 17.0.0, SVG Export Plug-In . SVG Version: 6.00 Build 0)  -->
<!DOCTYPE svg PUBLIC "-//W3C//DTD SVG 1.1//EN" "http://www.w3.org/Graphics/SVG/1.1/DTD/svg11.dtd">
<svg version="1.1" id="Слой_1" xmlns="http://www.w3.org/2000/svg" xmlns:xlink="http://www.w3.org/1999/xlink" x="0px" y="0px"
	 width="178.5px" height="125px" viewBox="0 0 178.5 125" enable-background="new 0 0 178.5 125" xml:space="preserve">
<path fill="#4E4E4E" d="M13.849,92.498c-3.727,0-7.793-2.539-10.653-4.777C2.9,87.489,2.847,87.06,3.079,86.764
	c0.232-0.296,0.66-0.349,0.957-0.117c4.119,3.224,7.906,4.8,10.638,4.435c1.398-0.185,2.509-0.851,3.397-2.034
	c1.971-2.628,1.726-5.985,1.509-8.946c-0.142-1.948-0.265-3.63,0.212-4.965c0.453-1.268,1.207-2.212,1.938-3.125
	c1.241-1.551,2.524-3.154,2.797-6.698c0.445-5.78,7.566-16.014,13.288-24.236l0.923-1.328c1.041-1.499,1.357-2.752,0.938-3.723
	c-1.155-2.675-7.579-3.638-12.742-4.411c-1.755-0.263-3.413-0.511-4.822-0.81C14.135,29.114,9.907,25.018,6.01,19.39
	c-0.215-0.309-0.138-0.734,0.172-0.949c0.31-0.216,0.735-0.137,0.948,0.173c3.818,5.514,7.702,9.254,15.263,10.857
	c1.37,0.291,3.008,0.536,4.743,0.796c5.782,0.866,12.336,1.848,13.791,5.219c0.619,1.433,0.259,3.129-1.069,5.041l-0.924,1.329
	c-5.33,7.66-12.631,18.152-13.047,23.562c-0.305,3.963-1.785,5.813-3.092,7.446c-0.72,0.9-1.342,1.678-1.719,2.731
	c-0.38,1.064-0.261,2.687-0.136,4.407c0.222,3.042,0.499,6.828-1.779,9.864c-1.103,1.471-2.552,2.335-4.308,2.567
	C14.523,92.477,14.187,92.498,13.849,92.498z"/>
<path fill="#4E4E4E" d="M149.525,69.684c-0.12,0-0.242-0.032-0.352-0.099c-0.318-0.193-7.797-4.778-8.28-9.606
	c-0.411-4.105-5.732-11.272-10.006-17.031l-0.772-1.041c-1.149-1.55-1.436-2.964-0.854-4.203c1.497-3.19,8.319-3.659,9.091-3.702
	c0.363-0.01,0.698,0.266,0.719,0.643c0.02,0.376-0.267,0.698-0.643,0.719c-1.875,0.105-6.956,0.835-7.933,2.92
	c-0.352,0.75-0.111,1.696,0.716,2.812l0.771,1.04c4.603,6.2,9.821,13.228,10.268,17.707c0.415,4.153,7.558,8.532,7.63,8.576
	c0.322,0.195,0.424,0.614,0.23,0.936C149.981,69.567,149.756,69.684,149.525,69.684z"/>
<path fill="#4E4E4E" d="M153.205,85.652c-2.854,0-6.541-4.75-6.708-7.749c-0.02-0.376,0.267-0.698,0.643-0.719
	c0.379-0.017,0.698,0.267,0.719,0.643c0.138,2.483,3.43,6.46,5.345,6.46c0.003,0,0.005,0,0.008,0
	c1.217-0.007,1.488-2.052,1.542-3.271c0.281-6.401-5.608-11.444-5.668-11.494c-0.288-0.243-0.324-0.673-0.082-0.961
	c0.242-0.287,0.671-0.325,0.96-0.083c0.265,0.222,6.462,5.517,6.152,12.597c-0.165,3.768-1.666,4.568-2.896,4.575
	C153.215,85.652,153.21,85.652,153.205,85.652z"/>
<path fill="#4E4E4E" d="M154.3,85.063c-0.21,0-0.415-0.096-0.55-0.277c-0.224-0.303-0.159-0.73,0.144-0.953
	c0.266-0.197,6.561-4.817,9.902-5.056c0.379-0.022,0.702,0.256,0.729,0.632c0.027,0.376-0.256,0.702-0.631,0.728
	c-2.447,0.175-7.463,3.519-9.19,4.793C154.582,85.019,154.44,85.063,154.3,85.063z"/>
<path fill="#4E4E4E" d="M163.238,69.911c-0.004,0-0.007,0-0.012,0l-13.712-0.227c-0.376-0.006-0.676-0.316-0.67-0.693
	c0.006-0.373,0.311-0.671,0.682-0.671c0.004,0,0.007,0,0.012,0l13.712,0.227c0.376,0.006,0.676,0.316,0.67,0.693
	C163.914,69.613,163.609,69.911,163.238,69.911z"/>
<path fill="#4E4E4E" d="M170.805,87.209c-2.99,0-5.139-1.109-6.414-3.32c-1.753-3.038-1.322-5.19-0.906-7.272
	c0.449-2.249,0.874-4.374-1.143-7.962c-2.074-3.687-3.762-7.966-5.394-12.105c-1.561-3.959-3.035-7.698-4.587-10.136
	c-0.861-1.354-1.89-2.797-2.885-4.193c-2.931-4.112-5.463-7.663-4.68-9.815c0.992-2.726,4.234-4.684,9.377-5.664
	c0.861-0.164,1.786-0.297,2.766-0.439c4.479-0.648,10.053-1.453,15.326-5.998c0.285-0.245,0.715-0.215,0.961,0.071
	c0.246,0.285,0.214,0.716-0.072,0.961c-5.574,4.805-11.366,5.642-16.021,6.315c-0.964,0.139-1.875,0.271-2.705,0.429
	c-4.579,0.872-7.544,2.573-8.351,4.791c-0.538,1.479,2.143,5.239,4.508,8.557c1.006,1.41,2.045,2.868,2.926,4.253
	c1.622,2.549,3.12,6.347,4.705,10.369c1.616,4.096,3.286,8.331,5.313,11.936c2.267,4.028,1.749,6.615,1.293,8.898
	c-0.4,2.002-0.747,3.73,0.749,6.323c1.551,2.686,4.712,3.322,9.665,1.944c0.364-0.1,0.739,0.112,0.84,0.475
	c0.101,0.363-0.112,0.739-0.474,0.839C173.818,86.961,172.217,87.209,170.805,87.209z"/>
<path fill="#4E4E4E" d="M69.324,47.129c-1.868,0-3.922-0.273-6.327-0.875c-6.358-1.59-13.47-5.013-13.541-5.048
	c-0.338-0.164-0.48-0.572-0.316-0.911c0.163-0.338,0.574-0.481,0.91-0.317c0.07,0.034,7.059,3.398,13.278,4.953
	c6.531,1.63,10.174,0.761,14.996-1.545c1.239-0.593,2.575-1.35,3.99-2.152c4.7-2.665,9.559-5.421,12.999-3.51
	c0.329,0.183,0.447,0.598,0.265,0.927c-0.182,0.329-0.598,0.448-0.927,0.265c-2.767-1.539-7.495,1.14-11.664,3.504
	c-1.436,0.815-2.792,1.583-4.075,2.197C75.654,46.175,72.814,47.129,69.324,47.129z"/>
<path fill="#4E4E4E" d="M28.314,75.104c-3.058,0-5.483-0.39-5.719-0.43c-0.372-0.062-0.622-0.413-0.56-0.784
	c0.061-0.372,0.407-0.623,0.784-0.561c0.133,0.021,13.234,2.127,16.811-3.554c1.232-1.957,2.581-5.009,4.008-8.24
	c3.153-7.136,6.729-15.224,11.641-18.553c0.313-0.211,0.736-0.129,0.947,0.182c0.211,0.312,0.13,0.736-0.182,0.947
	c-4.589,3.108-8.232,11.351-11.159,17.975c-1.448,3.278-2.817,6.374-4.102,8.415C38.393,74.3,32.703,75.104,28.314,75.104z"/>
<path fill="#4E4E4E" d="M35.212,84.933c-0.978,0-2.405-0.584-4.875-1.922c-5.256-2.847-10.143-3.325-10.192-3.33
	c-0.375-0.035-0.651-0.367-0.617-0.741c0.036-0.375,0.362-0.645,0.741-0.617c0.21,0.019,5.202,0.502,10.717,3.489
	c0.951,0.516,3.849,2.084,4.497,1.695c0.406-0.241,0.406-1.893,0.406-2.686c0-1.259-0.179-2.307-0.337-3.231
	c-0.321-1.875-0.599-3.494,0.946-5.383c0.178-0.219,0.473-0.305,0.743-0.215c0.143,0.048,14.317,4.767,17.646,5.433
	c1.641,0.328,3.084,0.845,4.611,1.392c1.658,0.593,3.371,1.207,5.373,1.56c4.002,0.706,5.077,1.927,5.187,2.064
	c0.235,0.294,0.187,0.723-0.107,0.958c-0.294,0.236-0.723,0.189-0.959-0.106l0,0c-0.001,0-0.919-0.966-4.358-1.573
	c-2.116-0.374-3.885-1.007-5.596-1.619c-1.48-0.53-2.876-1.03-4.42-1.338c-3.103-0.621-14.809-4.481-17.343-5.321
	c-0.84,1.237-0.661,2.283-0.381,3.919c0.168,0.978,0.358,2.086,0.358,3.461c0,1.824-0.079,3.267-1.072,3.858
	C35.902,84.845,35.591,84.933,35.212,84.933z"/>
<path fill="#4E4E4E" d="M86.546,64.845c-2.192,0-4.238-0.593-5.591-1.534c-0.656-0.457-1.04-1.119-1.112-1.915
	c-0.248-2.776,3.369-6.476,3.406-6.513c0.099-0.099,0.226-0.221,0.371-0.361c0.749-0.722,2.308-2.224,2.646-3.236
	c0.539-1.616,3.041-4.278,4.483-5.721c0.887-0.886,8.81-8.698,13.957-9.953c3.031-0.74,6.324,0.989,9.81,2.817
	c2.341,1.228,4.762,2.497,7.351,3.211c6.167,1.701,8.794,0.409,8.819,0.396c0.331-0.172,0.743-0.044,0.918,0.286
	c0.174,0.331,0.053,0.738-0.275,0.916c-0.122,0.065-3.048,1.586-9.824-0.283c-2.73-0.753-5.217-2.057-7.622-3.318
	c-3.394-1.78-6.326-3.313-8.854-2.7c-3.888,0.948-10.199,6.476-13.316,9.593c-2.277,2.277-3.83,4.217-4.153,5.188
	c-0.409,1.227-1.76,2.598-2.994,3.787c-0.139,0.134-0.259,0.249-0.353,0.343c-0.637,0.637-3.174,3.604-3.011,5.428
	c0.036,0.398,0.204,0.689,0.533,0.917c2.276,1.585,8.142,2.409,11.715-1.598c0.366-0.411,0.736-0.835,1.111-1.264
	c3.589-4.115,7.66-8.78,12.249-6.026c3.511,2.107,5.969,2.734,10.041,3.774c1.064,0.272,2.229,0.569,3.538,0.926
	c2.006,0.547,3.869,1.209,5.512,1.793c3.552,1.262,6.357,2.259,8.793,1.615c0.367-0.096,0.738,0.121,0.834,0.485
	c0.097,0.364-0.12,0.737-0.484,0.834c-2.843,0.752-5.974-0.36-9.599-1.648c-1.7-0.604-3.458-1.229-5.415-1.762
	c-1.301-0.355-2.458-0.65-3.517-0.921c-4.048-1.033-6.723-1.716-10.405-3.925c-3.61-2.164-7.122,1.859-10.52,5.753
	c-0.377,0.433-0.751,0.861-1.12,1.275C92.331,63.896,89.321,64.845,86.546,64.845z"/>
<path fill="#4E4E4E" d="M123.861,92.873c-0.196,0-0.395-0.002-0.6-0.007c-5.248-0.117-14.511-6.105-14.902-6.361
	c-0.315-0.205-0.405-0.627-0.2-0.943c0.205-0.315,0.626-0.406,0.944-0.2c0.092,0.06,9.328,6.032,14.189,6.14
	c2.898,0.071,7.808-0.344,8.055-3.798c0.186-2.615-1.684-4.188-7.149-6.009c-4.446-1.482-9.941-4.762-11.065-7.477
	c-0.357-0.861-0.202-1.499-0.011-1.883c1.181-2.363,3.863-1.243,7.919,0.452c1.021,0.427,2.15,0.898,3.39,1.375
	c3.691,1.42,12.77,4.779,17.332,5.3c1.634,0.187,2.732-0.011,3.172-0.572c0.51-0.652,0.207-1.9-0.139-2.832
	c-1.135-3.066-7.148-6.457-10.377-8.279c-4.438-2.504-8.897-6.278-9.084-6.438c-0.288-0.244-0.322-0.674-0.078-0.961
	c0.245-0.287,0.676-0.32,0.961-0.078c0.045,0.038,4.55,3.851,8.871,6.289c4.682,2.641,9.779,5.732,10.986,8.994
	c0.687,1.855,0.666,3.212-0.067,4.146c-0.768,0.981-2.208,1.336-4.399,1.086c-4.719-0.539-13.928-3.944-17.668-5.382
	c-1.253-0.482-2.394-0.959-3.426-1.39c-3.755-1.569-5.588-2.272-6.174-1.1c-0.036,0.071-0.143,0.285,0.051,0.752
	c0.843,2.036,5.627,5.169,10.237,6.706c5.19,1.73,8.351,3.571,8.078,7.4C132.57,89.717,131.223,92.872,123.861,92.873z"/>
<path fill="#4E4E4E" d="M113.919,100.372c-0.568,0-1.107-0.14-1.589-0.461c-2.046-1.365-8.414-5.685-8.414-5.685l0.765-1.128
	c0.001,0,6.36,4.316,8.405,5.679c1.526,1.016,4.892-1.464,6.332-3.568c1.135-1.659-0.407-3.148-0.473-3.21
	c-0.274-0.259-0.287-0.69-0.028-0.964c0.258-0.274,0.69-0.286,0.963-0.028c0.854,0.807,2.092,2.884,0.663,4.972
	C119.26,97.855,116.328,100.372,113.919,100.372z"/>
<path fill="#4E4E4E" d="M94.421,103.327c-1.507,0-3.119-0.356-4.759-1.222c-2.329-1.229-3.081-2.786-3.301-3.877
	c-0.327-1.611,0.298-3.088,0.932-3.863c1.25-1.527,5.09-1.917,7.306-0.223c0.274,0.21,0.572,0.445,0.891,0.698
	c1.95,1.541,4.619,3.651,8.125,4.882c3.766,1.324,7.356-1.769,7.392-1.8c0.282-0.249,0.714-0.221,0.961,0.062
	c0.249,0.283,0.222,0.712-0.06,0.961c-0.17,0.15-4.216,3.654-8.746,2.064c-0.561-0.197-1.103-0.416-1.626-0.652
	c-0.028,0.043-0.062,0.085-0.101,0.123C99.834,102.013,97.319,103.327,94.421,103.327z M90.967,94.387
	c-1.149,0-2.203,0.336-2.618,0.843c-0.479,0.587-0.867,1.658-0.651,2.729c0.236,1.165,1.111,2.155,2.6,2.941
	c3.993,2.106,7.786,0.727,9.946-1.176c-2.338-1.236-4.221-2.726-5.598-3.814c-0.314-0.248-0.605-0.479-0.875-0.684
	C92.994,94.632,91.946,94.387,90.967,94.387z"/>
<path fill="#4E4E4E" d="M83.577,99.05c-1.888,0-3.66-1.35-5.304-2.838c-2.188-1.978-1.504-3.853-0.843-5.665
	c0.186-0.513,0.38-1.043,0.526-1.603l0.146-0.578c0.421-1.705,0.945-3.827,2.71-4.698c1.23-0.605,2.793-0.477,4.782,0.392
	c5.905,2.583,4.384,9.46,4.368,9.529c-0.085,0.366-0.451,0.593-0.817,0.51c-0.367-0.084-0.596-0.45-0.511-0.817
	c0.054-0.237,1.273-5.846-3.587-7.972c-1.574-0.689-2.798-0.83-3.631-0.419c-1.198,0.59-1.618,2.297-1.99,3.802l-0.15,0.596
	c-0.162,0.622-0.367,1.183-0.565,1.726c-0.643,1.761-1.03,2.824,0.476,4.187c1.486,1.345,3.21,2.684,4.762,2.458
	c0.941-0.14,1.817-0.877,2.605-2.19c0.193-0.323,0.611-0.43,0.936-0.234c0.323,0.194,0.428,0.613,0.234,0.935
	c-1.009,1.68-2.211,2.635-3.575,2.837C83.958,99.037,83.766,99.05,83.577,99.05z"/>
<path fill="#4E4E4E" d="M84.55,93.784L84.55,93.784c-0.858,0-1.792-0.292-2.859-0.891c-1.066-0.6-1.686-1.426-1.842-2.454
	c-0.352-2.318,1.926-4.756,2.022-4.859c0.139-0.146,0.34-0.227,0.536-0.211c0.202,0.012,0.387,0.113,0.508,0.275
	c0.014,0.02,1.482,1.975,3.374,2.473c1.11,0.292,1.79,0.802,2.021,1.515c0.247,0.761-0.038,1.626-0.872,2.644
	C86.609,93.29,85.664,93.784,84.55,93.784z M82.373,87.108c-0.597,0.801-1.335,2.08-1.175,3.128
	c0.091,0.599,0.472,1.079,1.163,1.468c1.813,1.021,2.956,1.013,4.024-0.292c0.692-0.846,0.671-1.232,0.629-1.359
	c-0.075-0.233-0.466-0.459-1.071-0.618C84.352,89.016,83.065,87.853,82.373,87.108z"/>
<path fill="#4E4E4E" d="M90.832,99.933C90.831,99.933,90.831,99.933,90.832,99.933c-0.45,0-0.932-0.155-1.434-0.462
	c-2.007-1.226-1.951-3.015-1.642-3.79c0.07-0.174,0.209-0.313,0.384-0.381c0.175-0.068,0.371-0.061,0.54,0.017l3.864,1.818
	c0.281,0.133,0.438,0.439,0.379,0.744C92.778,98.642,92.174,99.933,90.832,99.933z M89.002,96.976
	c0.098,0.398,0.383,0.889,1.106,1.331c0.281,0.172,0.531,0.262,0.724,0.262c0.271,0,0.457-0.229,0.576-0.461L89.002,96.976z"/>
<path fill="#4E4E4E" d="M75.511,89.709C75.51,89.709,75.51,89.709,75.511,89.709c-1.008,0-2.15-0.385-3.703-1.247
	c-2.061-1.145-1.681-3.386-1.193-4.412c0.096-0.202,0.284-0.343,0.503-0.38c0.219-0.036,0.444,0.036,0.6,0.196
	c2.767,2.835,4.696,3.113,5.519,3.232c0.363,0.052,0.814,0.117,0.97,0.586c0.161,0.484-0.191,0.835-0.473,1.118
	C77.133,89.404,76.385,89.709,75.511,89.709z M71.594,85.64c-0.033,0.555,0.124,1.212,0.876,1.63
	c1.321,0.734,2.287,1.076,3.04,1.076h0.001c0.209,0,0.4-0.027,0.575-0.082C75.062,87.999,73.501,87.363,71.594,85.64z"/>
<path fill="#4E4E4E" d="M74.685,94.581c-0.724,0-1.471-0.129-2.204-0.391c-2.275-0.812-3.964-2.679-4.636-5.121
	c-1.372-4.989,2.655-7.447,2.696-7.472c0.077-0.055,2.815-1.902,5.606-1.072c1.691,0.502,3.002,1.851,3.896,4.011
	c0.144,0.348-0.021,0.747-0.369,0.89c-0.346,0.146-0.746-0.021-0.891-0.369c-0.728-1.761-1.745-2.846-3.023-3.225
	c-2.176-0.649-4.461,0.897-4.483,0.913c-0.166,0.102-3.207,1.994-2.115,5.962c0.551,2.007,1.929,3.537,3.779,4.198
	c1.462,0.523,2.969,0.384,4.032-0.369c0.309-0.218,0.733-0.145,0.951,0.162c0.218,0.307,0.145,0.733-0.162,0.95
	C76.891,94.266,75.817,94.581,74.685,94.581z"/>
<path fill="#4E4E4E" d="M63.549,84.529c-0.616,0-1.302-0.109-2.054-0.327c-4.561-1.32-6.484-5.309-6.563-5.478
	c-0.16-0.34-0.014-0.745,0.326-0.906c0.34-0.161,0.747-0.015,0.907,0.324c0.017,0.036,1.755,3.606,5.71,4.751
	c1.331,0.386,2.368,0.36,2.993-0.075c0.613-0.427,0.683-1.132,0.683-1.139c0.028-0.376,0.338-0.656,0.731-0.63
	c0.376,0.028,0.657,0.355,0.629,0.73c-0.004,0.055-0.114,1.358-1.264,2.158C65.079,84.332,64.377,84.529,63.549,84.529z"/>
<path fill="#4E4E4E" d="M84.378,61.653c-1.847,0-3.46-0.742-3.55-0.784c-0.34-0.159-0.487-0.564-0.328-0.905
	c0.16-0.342,0.568-0.488,0.906-0.33c0.026,0.011,2.501,1.14,4.46,0.41c0.855-0.32,1.477-0.937,1.903-1.888
	c0.382-0.854,0.425-1.493,0.128-1.899c-0.651-0.889-2.814-0.86-3.52-0.781c-0.359,0.045-0.712-0.226-0.754-0.601
	c-0.043-0.374,0.226-0.712,0.601-0.754c0.358-0.043,3.545-0.349,4.774,1.331c0.607,0.831,0.613,1.928,0.016,3.261
	c-0.575,1.286-1.476,2.165-2.677,2.611C85.691,61.564,85.019,61.653,84.378,61.653z"/>
<path fill="#4E4E4E" d="M97.822,57.07c-0.053,0-0.107-0.006-0.16-0.019c-0.367-0.088-0.592-0.456-0.504-0.822
	c0.01-0.04,0.946-4.004,0.407-7.346c-0.06-0.372,0.193-0.722,0.565-0.782c0.363-0.06,0.721,0.193,0.781,0.564
	c0.583,3.616-0.385,7.71-0.426,7.882C98.409,56.86,98.129,57.07,97.822,57.07z"/>
<path fill="#4E4E4E" d="M102.026,53.888c-0.123,0-0.249-0.034-0.361-0.104c-0.319-0.199-0.416-0.62-0.217-0.939
	c0.644-1.032,2.087-4.093,1.052-5.845c-0.192-0.324-0.084-0.742,0.24-0.934c0.325-0.191,0.743-0.084,0.934,0.24
	c1.669,2.825-0.957,7.082-1.07,7.262C102.474,53.775,102.252,53.888,102.026,53.888z"/>
<path fill="#4E4E4E" d="M106.23,54.115c-0.139,0-0.28-0.043-0.401-0.131c-0.304-0.222-0.37-0.648-0.15-0.952
	c0.014-0.02,1.422-1.991,1.422-4.561c0-0.376,0.305-0.682,0.682-0.682s0.682,0.305,0.682,0.682c0,3.029-1.616,5.271-1.684,5.365
	C106.647,54.019,106.441,54.115,106.23,54.115z"/>
<path fill="#4E4E4E" d="M103.161,85.252c-0.331,0-0.621-0.241-0.673-0.578c-0.006-0.022-0.263-1.056-2.446-1.602
	c-2.869-0.717-5.425-3.134-5.533-3.236c-0.273-0.26-0.282-0.691-0.023-0.963c0.26-0.274,0.692-0.283,0.964-0.024
	c0.024,0.023,2.408,2.272,4.922,2.9c3.078,0.769,3.433,2.52,3.463,2.717c0.058,0.372-0.198,0.72-0.57,0.778
	C103.231,85.25,103.196,85.252,103.161,85.252z"/>
<path fill="#4E4E4E" d="M104.64,77.525c-0.269,0-0.524-0.16-0.632-0.425c-1.245-3.065-6.675-1.986-6.73-1.975
	c-0.368,0.078-0.729-0.162-0.805-0.53c-0.076-0.369,0.161-0.729,0.529-0.806c0.267-0.056,6.599-1.318,8.271,2.797
	c0.141,0.349-0.027,0.747-0.376,0.888C104.812,77.509,104.726,77.525,104.64,77.525z"/>
<path fill="#4E4E4E" d="M130.207,83.775c-0.362,0-0.664-0.285-0.68-0.651c-0.017-0.376,0.274-0.695,0.65-0.712
	c0.074-0.004,7.372-0.361,9.767-2.859c0.258-0.273,0.692-0.281,0.963-0.02c0.273,0.261,0.281,0.692,0.02,0.964
	c-2.77,2.891-10.367,3.263-10.689,3.277C130.228,83.775,130.218,83.775,130.207,83.775z"/>
<path fill="#4E4E4E" d="M145.889,78.661c-0.33,0-0.621-0.24-0.673-0.577c-0.058-0.371,0.194-0.718,0.565-0.778
	c0.16-0.028,3.691-0.699,4.82-6.244c0.076-0.369,0.442-0.608,0.804-0.532c0.369,0.075,0.607,0.435,0.533,0.804
	c-1.33,6.526-5.755,7.289-5.943,7.318C145.959,78.659,145.924,78.661,145.889,78.661z"/>
</svg>
