<?xml version="1.0" encoding="utf-8"?>
<!-- Generator: Adobe Illustrator 17.0.0, SVG Export Plug-In . SVG Version: 6.00 Build 0)  -->
<!DOCTYPE svg PUBLIC "-//W3C//DTD SVG 1.1//EN" "http://www.w3.org/Graphics/SVG/1.1/DTD/svg11.dtd">
<svg version="1.1" id="Слой_1" xmlns="http://www.w3.org/2000/svg" xmlns:xlink="http://www.w3.org/1999/xlink" x="0px" y="0px"
	 width="115px" height="113.333px" viewBox="0 0 115 113.333" enable-background="new 0 0 115 113.333" xml:space="preserve">
<path fill="#4E4E4E" d="M83.364,108.468H55.15c-0.169,0-0.331-0.068-0.451-0.188c-0.119-0.12-0.185-0.283-0.183-0.453
	c0.002-0.156,0.275-15.762,11.681-32.237c11.406-16.476,19.017-19.574,19.336-19.698c0.324-0.126,0.694,0.035,0.822,0.362
	c0.127,0.327-0.035,0.695-0.362,0.822c-0.073,0.029-7.615,3.15-18.752,19.237c-9.874,14.264-11.241,27.824-11.427,30.885h26.573
	c-1.099-2.699-3.805-11.134-1.339-24.17c2.989-15.795,15.605-21.84,15.732-21.9c0.25-0.116,0.547-0.058,0.734,0.145l6.019,6.52
	l7.328-24.208l-25.595,0.262l6.098,8.893c0.198,0.289,0.125,0.684-0.164,0.883c-0.289,0.199-0.685,0.124-0.882-0.164l-6.771-9.875
	c-0.133-0.193-0.148-0.444-0.04-0.652c0.108-0.208,0.322-0.339,0.556-0.342l27.65-0.282c0.174-0.019,0.393,0.092,0.514,0.254
	c0.122,0.162,0.159,0.372,0.1,0.565l-7.9,26.098c-0.066,0.218-0.244,0.384-0.465,0.435c-0.223,0.049-0.454-0.021-0.608-0.188
	l-6.443-6.98c-2.138,1.163-12.051,7.226-14.614,20.774c-2.881,15.229,1.588,24.19,1.633,24.278c0.101,0.197,0.093,0.432-0.023,0.621
	C83.791,108.352,83.586,108.468,83.364,108.468z"/>
<path fill="#4E4E4E" d="M57.831,76.586c-0.011,0-0.021,0-0.031-0.001c-0.281-0.014-0.52-0.212-0.586-0.485
	c-1.895-7.855-9.003-13.271-9.074-13.325c-0.164-0.124-0.26-0.319-0.254-0.525l0.687-24.74H35.119c-0.24,0-0.459-0.135-0.566-0.348
	c-0.108-0.214-0.087-0.47,0.055-0.663L57.461,5.464c0.12-0.164,0.333-0.276,0.515-0.258c0.203,0.001,0.393,0.1,0.512,0.265
	l22.36,31.218c0.126,0.116,0.206,0.283,0.206,0.469c0,0.35-0.284,0.635-0.635,0.635c-0.004,0-0.011,0.001-0.017,0H66.81
	l0.825,24.595c0.007,0.225-0.105,0.437-0.295,0.558c-0.026,0.017-2.611,1.674-4.764,4.633c-2.176,2.991-4.127,8.527-4.146,8.582
	C58.341,76.417,58.099,76.586,57.831,76.586z M49.163,61.965c1.251,1,6.479,5.468,8.743,11.995c0.776-1.946,2.137-5.056,3.644-7.128
	c1.878-2.582,4.018-4.204,4.804-4.753l-0.835-24.9c-0.006-0.172,0.059-0.339,0.179-0.462c0.12-0.124,0.284-0.193,0.456-0.193h13.013
	L57.965,6.921l-21.59,29.32h12.851c0.171,0,0.336,0.069,0.455,0.192c0.119,0.123,0.183,0.289,0.179,0.46L49.163,61.965z"/>
<path fill="#4E4E4E" d="M49.367,108.75H31.592c-0.2,0-0.388-0.095-0.508-0.255c-0.12-0.16-0.157-0.368-0.1-0.56
	c0.045-0.151,4.43-15.226,1.542-27.607C29.993,69.476,20.67,63.503,18.497,62.24l-6.295,8.037c-0.147,0.188-0.387,0.278-0.619,0.232
	c-0.234-0.045-0.422-0.216-0.49-0.444l-7.9-26.803c-0.056-0.192-0.019-0.399,0.101-0.56c0.12-0.16,0.308-0.255,0.508-0.255H31.31
	c0.233,0,0.447,0.128,0.558,0.333c0.112,0.205,0.101,0.454-0.026,0.649l-6.283,9.623c2.286,1.495,11.322,7.54,17.203,13.421
	c6.758,6.758,12.885,17.949,12.946,18.061c0.107,0.196,0.102,0.435-0.012,0.627c-0.026,0.044-2.65,4.507-4.02,10.124
	c-1.38,5.657-1.672,12.782-1.675,12.853C49.987,108.481,49.707,108.75,49.367,108.75z M32.423,107.48h16.34
	c0.104-1.871,0.508-7.691,1.68-12.494c1.22-5.001,3.341-9.013,3.978-10.152c-1.03-1.839-6.553-11.459-12.556-17.462
	c-6.643-6.643-17.418-13.528-17.526-13.597c-0.143-0.091-0.244-0.236-0.28-0.402c-0.036-0.166-0.003-0.339,0.089-0.481l5.989-9.175
	H4.651l7.311,24.807l5.869-7.494c0.188-0.24,0.521-0.312,0.789-0.174c0.494,0.253,12.146,6.347,15.141,19.183
	C36.336,91.075,33.299,104.128,32.423,107.48z"/>
<path fill="#4E4E4E" d="M44.852,30.739c-0.13,0-0.261-0.04-0.374-0.123c-0.283-0.207-0.344-0.605-0.136-0.887l12.837-17.493
	c0.12-0.163,0.309-0.259,0.512-0.259l0,0c0.203,0,0.393,0.096,0.512,0.26l12.414,16.928c0.207,0.283,0.146,0.68-0.136,0.887
	c-0.284,0.207-0.681,0.145-0.887-0.137l-11.903-16.23L45.364,30.48C45.24,30.65,45.048,30.739,44.852,30.739z"/>
<path fill="#4E4E4E" d="M57.831,67.558L57.831,67.558c-0.292,0-0.546-0.199-0.616-0.481c-0.002-0.01-0.358-1.335-1.832-3.3
	c-1.446-1.93-3.926-3.263-3.951-3.277c-0.31-0.164-0.427-0.549-0.263-0.858c0.164-0.308,0.547-0.428,0.858-0.263
	c0.112,0.06,2.752,1.475,4.372,3.636c0.633,0.845,1.08,1.587,1.392,2.183c0.746-1.659,2.321-4.225,5.302-5.655
	c0.317-0.152,0.695-0.018,0.846,0.298c0.152,0.316,0.019,0.695-0.298,0.847c-4.024,1.93-5.185,6.346-5.197,6.391
	C58.375,67.361,58.121,67.558,57.831,67.558z"/>
<path fill="#4E4E4E" d="M59.101,105.505c-0.014,0-0.027,0-0.041-0.001c-0.35-0.023-0.616-0.324-0.593-0.674
	c0.016-0.244,1.88-24.652,28.727-46.58c0.271-0.221,0.671-0.181,0.894,0.09c0.222,0.272,0.181,0.672-0.09,0.894
	c-26.425,21.582-28.249,45.44-28.265,45.678C59.712,105.247,59.433,105.505,59.101,105.505z"/>
<path fill="#4E4E4E" d="M45.407,105.495c-0.021,0-0.042-0.001-0.064-0.003c-0.349-0.034-0.603-0.346-0.569-0.694
	c1.313-13.213,5.856-20.151,6.049-20.44c0.194-0.292,0.59-0.369,0.879-0.176c0.292,0.194,0.371,0.588,0.177,0.88
	c-0.045,0.069-4.562,6.992-5.842,19.862C46.006,105.25,45.73,105.495,45.407,105.495z"/>
<path fill="#4E4E4E" d="M12.971,62.338c-0.04,0-0.079-0.004-0.119-0.011c-0.235-0.045-0.425-0.218-0.491-0.448L8.129,47.209
	c-0.097-0.337,0.098-0.689,0.434-0.786c0.337-0.1,0.689,0.097,0.786,0.434l3.886,13.47l2.62-3.384
	c0.214-0.276,0.612-0.328,0.89-0.114c0.278,0.215,0.328,0.614,0.113,0.891l-3.386,4.373C13.351,62.249,13.165,62.338,12.971,62.338z
	"/>
<path fill="#4E4E4E" d="M93.945,52.323c-0.214,0-0.423-0.108-0.542-0.304l-3.104-5.078c-0.118-0.193-0.125-0.434-0.017-0.633
	c0.108-0.199,0.313-0.326,0.54-0.332l13.824-0.423c0.345-0.034,0.644,0.264,0.655,0.615c0.011,0.35-0.265,0.643-0.616,0.654
	l-12.732,0.39l2.533,4.146c0.183,0.299,0.088,0.69-0.21,0.873C94.172,52.293,94.058,52.323,93.945,52.323z"/>
</svg>
