<?xml version="1.0" encoding="UTF-8" standalone="no"?>
<!-- Generator: Adobe Illustrator 17.0.0, SVG Export Plug-In . SVG Version: 6.00 Build 0)  -->

<svg
   xmlns:dc="http://purl.org/dc/elements/1.1/"
   xmlns:cc="http://creativecommons.org/ns#"
   xmlns:rdf="http://www.w3.org/1999/02/22-rdf-syntax-ns#"
   xmlns:svg="http://www.w3.org/2000/svg"
   xmlns="http://www.w3.org/2000/svg"
   xmlns:sodipodi="http://sodipodi.sourceforge.net/DTD/sodipodi-0.dtd"
   xmlns:inkscape="http://www.inkscape.org/namespaces/inkscape"
   version="1.1"
   id="Слой_1"
   x="0px"
   y="0px"
   width="180px"
   height="147px"
   viewBox="0 0 180 147"
   enable-background="new 0 0 180 147"
   xml:space="preserve"
   inkscape:version="0.91 r13725"
   sodipodi:docname="spec_serv.svg"><metadata
     id="metadata56"><rdf:RDF><cc:Work
         rdf:about=""><dc:format>image/svg+xml</dc:format><dc:type
           rdf:resource="http://purl.org/dc/dcmitype/StillImage" /><dc:title></dc:title></cc:Work></rdf:RDF></metadata><defs
     id="defs54" /><sodipodi:namedview
     pagecolor="#ffffff"
     bordercolor="#666666"
     borderopacity="1"
     objecttolerance="10"
     gridtolerance="10"
     guidetolerance="10"
     inkscape:pageopacity="0"
     inkscape:pageshadow="2"
     inkscape:window-width="1440"
     inkscape:window-height="837"
     id="namedview52"
     showgrid="false"
     inkscape:zoom="1.6054422"
     inkscape:cx="23.974576"
     inkscape:cy="73.5"
     inkscape:window-x="-8"
     inkscape:window-y="-8"
     inkscape:window-maximized="1"
     inkscape:current-layer="Слой_1" /><g
     id="Expanded_3_"><g
       id="g4"><g
         id="g6"><path
           style="fill:#4e4e4e"
           inkscape:connector-curvature="0"
           d="m 71.572,103.938 -6.536,0 c -2.949,0 -5.349,-2.399 -5.349,-5.349 l 0,-5.751 c -1.898,-0.572 -3.741,-1.337 -5.488,-2.277 l -4.067,4.069 c -0.966,0.966 -2.344,1.519 -3.781,1.52 -1.438,0 -2.817,-0.554 -3.784,-1.519 L 37.945,90.01 c -1.011,-1.008 -1.568,-2.351 -1.568,-3.782 0,-1.43 0.557,-2.773 1.568,-3.782 l 4.069,-4.07 C 41.074,76.63 40.31,74.788 39.74,72.891 l -5.75,0 c -2.949,0 -5.349,-2.399 -5.349,-5.349 l 0,-6.536 c 0,-1.429 0.556,-2.772 1.565,-3.782 1.012,-1.011 2.356,-1.567 3.783,-1.567 l 5.751,0 c 0.574,-1.901 1.338,-3.744 2.276,-5.485 l -4.068,-4.069 c -2.085,-2.085 -2.085,-5.478 0,-7.563 l 4.621,-4.623 c 0.967,-0.966 2.346,-1.519 3.784,-1.519 1.437,0 2.816,0.554 3.781,1.519 l 4.07,4.069 c 1.747,-0.939 3.589,-1.703 5.483,-2.274 l 0,-5.751 c 0,-2.95 2.4,-5.349 5.349,-5.349 l 6.536,0 c 2.949,0 5.349,2.399 5.349,5.349 l 0,5.751 c 1.896,0.572 3.738,1.335 5.483,2.274 l 4.07,-4.069 c 0.967,-0.966 2.346,-1.519 3.784,-1.519 1.437,0 2.815,0.554 3.781,1.519 l 4.623,4.621 c 1.01,1.009 1.567,2.352 1.567,3.782 0,1.43 -0.557,2.773 -1.567,3.782 l -4.068,4.069 c 0.941,1.748 1.706,3.591 2.275,5.487 l 5.75,0 c 2.949,0 5.349,2.399 5.349,5.349 l 0,6.536 c 0,1.429 -0.556,2.772 -1.565,3.782 -1.011,1.011 -2.355,1.567 -3.783,1.567 l -5.751,0 c -0.573,1.899 -1.337,3.742 -2.275,5.487 l 4.068,4.069 c 2.085,2.085 2.085,5.478 0,7.563 l -4.621,4.623 c -0.967,0.966 -2.345,1.519 -3.782,1.519 -1.437,0 -2.816,-0.554 -3.782,-1.519 l -4.066,-4.069 c -1.741,0.937 -3.583,1.701 -5.485,2.275 l 0,5.751 c -0.005,2.948 -2.406,5.347 -5.354,5.347 z M 54.119,89.562 c 0.074,0 0.148,0.018 0.216,0.056 1.875,1.036 3.868,1.863 5.923,2.457 0.191,0.055 0.323,0.23 0.323,0.429 l 0,6.085 c 0,2.457 1.998,4.455 4.455,4.455 l 6.536,0 c 2.456,0 4.455,-1.999 4.457,-4.455 l 0,-6.085 c 0,-0.199 0.132,-0.374 0.322,-0.429 2.061,-0.597 4.053,-1.423 5.92,-2.455 0.175,-0.097 0.391,-0.066 0.532,0.075 L 87.105,94 c 0.8,0.799 1.948,1.257 3.15,1.257 1.202,0 2.35,-0.458 3.15,-1.258 l 4.621,-4.622 c 1.736,-1.737 1.736,-4.563 0,-6.299 l -4.304,-4.305 c -0.141,-0.141 -0.172,-0.358 -0.075,-0.532 1.035,-1.872 1.86,-3.864 2.455,-5.921 0.055,-0.191 0.23,-0.323 0.429,-0.323 l 6.085,0 c 1.19,0 2.31,-0.464 3.151,-1.305 0.84,-0.841 1.303,-1.959 1.303,-3.15 l 0,-6.536 c 0,-2.456 -1.998,-4.455 -4.455,-4.455 l -6.084,0 c -0.199,0 -0.374,-0.132 -0.429,-0.323 -0.592,-2.053 -1.417,-4.045 -2.455,-5.921 -0.097,-0.174 -0.066,-0.391 0.075,-0.532 l 4.304,-4.306 c 0.842,-0.841 1.305,-1.959 1.305,-3.15 0,-1.191 -0.463,-2.309 -1.305,-3.149 l -4.623,-4.621 c -0.799,-0.799 -1.947,-1.257 -3.149,-1.257 -1.203,0 -2.351,0.459 -3.152,1.258 l -4.306,4.305 c -0.141,0.141 -0.359,0.17 -0.532,0.075 -1.873,-1.035 -3.864,-1.86 -5.918,-2.454 -0.191,-0.055 -0.323,-0.23 -0.323,-0.429 l 0,-6.085 c 0,-2.457 -1.998,-4.455 -4.455,-4.455 l -6.536,0 c -2.457,0 -4.455,1.998 -4.455,4.455 l 0,6.085 c 0,0.199 -0.132,0.374 -0.323,0.429 -2.051,0.592 -4.042,1.418 -5.918,2.454 -0.173,0.095 -0.391,0.066 -0.532,-0.075 l -4.306,-4.306 c -0.799,-0.799 -1.947,-1.257 -3.149,-1.257 -1.203,0 -2.352,0.459 -3.152,1.258 l -4.621,4.622 c -1.736,1.737 -1.736,4.563 0,6.299 l 4.304,4.306 c 0.141,0.141 0.172,0.358 0.075,0.532 -1.033,1.868 -1.859,3.86 -2.456,5.92 -0.055,0.191 -0.23,0.323 -0.429,0.323 l -6.08,0 c -1.189,0 -2.308,0.464 -3.151,1.305 -0.84,0.841 -1.303,1.959 -1.303,3.149 l 0,6.536 c 0,2.457 1.998,4.455 4.455,4.455 l 6.084,0 c 0.199,0 0.374,0.132 0.429,0.323 0.592,2.054 1.417,4.045 2.453,5.919 0.097,0.174 0.066,0.391 -0.075,0.532 l -4.305,4.307 c -0.842,0.84 -1.306,1.959 -1.306,3.15 0,1.191 0.464,2.31 1.305,3.149 l 4.623,4.621 c 0.801,0.799 1.949,1.258 3.152,1.258 1.202,0 2.35,-0.459 3.149,-1.258 l 4.304,-4.306 c 0.085,-0.085 0.199,-0.13 0.315,-0.13 z m 17.453,11.108 -6.536,0 c -1.147,0 -2.081,-0.933 -2.081,-2.081 l 0,-7.341 c 0,-0.55 -0.374,-1.024 -0.908,-1.154 -0.939,-0.227 -1.883,-0.303 -2.796,-0.376 -1.588,-0.127 -3.23,-0.258 -4.778,-1.205 -0.456,-0.277 -1.079,-0.204 -1.454,0.175 -0.019,0.019 -0.04,0.036 -0.062,0.052 l -5.163,3.611 c -0.762,0.727 -2.17,0.715 -2.914,-0.029 l -4.622,-4.621 c -0.388,-0.388 -0.61,-0.924 -0.61,-1.471 0,-0.545 0.222,-1.081 0.609,-1.47 l 5.196,-5.197 c 0.389,-0.39 0.46,-0.99 0.173,-1.459 -1.436,-2.347 -2.492,-4.894 -3.14,-7.571 -0.129,-0.536 -0.603,-0.91 -1.154,-0.91 l -7.342,0 c -1.147,0 -2.081,-0.933 -2.081,-2.081 l 0,-6.536 c 0,-0.558 0.216,-1.08 0.609,-1.47 0.393,-0.392 0.916,-0.609 1.472,-0.609 l 7.343,0 c 0.55,0 1.025,-0.374 1.153,-0.909 0.646,-2.674 1.703,-5.222 3.14,-7.571 0.287,-0.471 0.216,-1.071 -0.173,-1.459 l -5.195,-5.195 c -0.393,-0.392 -0.609,-0.915 -0.609,-1.471 0,-0.556 0.216,-1.079 0.609,-1.471 l 4.619,-4.621 c 0.756,-0.754 2.188,-0.754 2.944,-10e-4 l 5.195,5.195 c 0.379,0.38 0.999,0.453 1.458,0.173 2.353,-1.438 4.901,-2.494 7.573,-3.14 0.534,-0.13 0.908,-0.604 0.908,-1.154 l 0,-7.341 c 0,-1.147 0.933,-2.081 2.081,-2.081 l 6.536,0 c 1.147,0 2.081,0.934 2.081,2.081 l 0,7.341 c 0,0.55 0.373,1.023 0.907,1.15 2.673,0.646 5.22,1.703 7.571,3.14 0.46,0.283 1.08,0.207 1.458,-0.172 l 5.196,-5.195 c 0.756,-0.754 2.188,-0.754 2.944,-10e-4 l 4.623,4.622 c 0.388,0.388 0.61,0.924 0.61,1.471 0,0.545 -0.222,1.081 -0.609,1.47 l -5.196,5.195 c -0.389,0.39 -0.46,0.99 -0.173,1.459 1.438,2.351 2.495,4.899 3.14,7.573 0.129,0.536 0.603,0.909 1.154,0.909 l 7.342,0 c 1.147,0 2.081,0.933 2.081,2.081 l 0,6.536 c 0,0.559 -0.216,1.081 -0.61,1.47 -0.392,0.391 -0.915,0.608 -1.471,0.608 l -7.342,0 c -0.55,0 -1.025,0.374 -1.154,0.909 -0.647,2.677 -1.704,5.225 -3.14,7.573 -0.287,0.47 -0.216,1.07 0.173,1.458 l 5.195,5.195 c 0.811,0.811 0.811,2.131 0,2.943 L 91.73,92.32 c -0.375,0.375 -0.911,0.591 -1.471,0.591 -0.56,0 -1.097,-0.215 -1.473,-0.59 l -5.193,-5.195 c -0.379,-0.378 -1,-0.453 -1.46,-0.173 -2.346,1.435 -4.894,2.492 -7.571,3.141 -0.535,0.13 -0.908,0.604 -0.908,1.154 l 0,7.341 c -10e-4,1.147 -0.935,2.081 -2.082,2.081 z M 53.854,87.446 c 0.382,0 0.757,0.105 1.083,0.304 1.367,0.836 2.833,0.953 4.385,1.077 0.947,0.076 1.927,0.154 2.935,0.398 0.937,0.228 1.591,1.059 1.591,2.023 l 0,7.341 c 0,0.655 0.532,1.187 1.187,1.187 l 6.536,0 c 0.655,0 1.187,-0.532 1.187,-1.187 l 0,-7.341 c 0,-0.964 0.655,-1.795 1.591,-2.023 2.588,-0.627 5.05,-1.648 7.317,-3.035 0.806,-0.49 1.893,-0.359 2.557,0.303 l 5.193,5.195 c 0.418,0.416 1.262,0.418 1.68,0 l 4.621,-4.622 c 0.463,-0.463 0.463,-1.216 0,-1.679 l -5.194,-5.194 c -0.683,-0.681 -0.808,-1.733 -0.304,-2.557 1.388,-2.268 2.408,-4.73 3.033,-7.316 0.226,-0.938 1.058,-1.593 2.023,-1.593 l 7.342,0 c 0.318,0 0.616,-0.124 0.841,-0.348 0.224,-0.221 0.346,-0.518 0.346,-0.836 l 0,-6.536 c 0,-0.655 -0.532,-1.187 -1.187,-1.187 l -7.342,0 c -0.965,0 -1.797,-0.655 -2.023,-1.594 -0.623,-2.583 -1.644,-5.044 -3.033,-7.316 -0.503,-0.822 -0.378,-1.873 0.303,-2.557 l 5.195,-5.195 c 0.221,-0.222 0.348,-0.528 0.348,-0.839 0,-0.312 -0.127,-0.618 -0.348,-0.839 l -4.622,-4.621 c -0.422,-0.42 -1.259,-0.421 -1.681,10e-4 L 84.22,42.054 C 83.558,42.72 82.468,42.852 81.662,42.357 79.391,40.969 76.931,39.948 74.35,39.324 73.413,39.1 72.758,38.27 72.758,37.305 l 0,-7.341 c 0,-0.655 -0.532,-1.187 -1.187,-1.187 l -6.536,0 c -0.655,0 -1.187,0.533 -1.187,1.187 l 0,7.341 c 0,0.964 -0.655,1.795 -1.591,2.023 -2.582,0.623 -5.043,1.644 -7.317,3.034 -0.804,0.491 -1.894,0.36 -2.556,-0.305 L 47.19,36.86 c -0.422,-0.42 -1.259,-0.421 -1.681,10e-4 l -4.618,4.62 c -0.223,0.224 -0.347,0.522 -0.347,0.839 0,0.317 0.123,0.615 0.347,0.839 l 5.194,5.194 c 0.683,0.681 0.808,1.733 0.304,2.557 -1.388,2.271 -2.41,4.732 -3.033,7.315 -0.226,0.938 -1.057,1.593 -2.023,1.593 l -7.343,0 c -0.318,0 -0.616,0.124 -0.841,0.348 -0.223,0.222 -0.346,0.519 -0.346,0.837 l 0,6.536 c 0,0.655 0.532,1.187 1.187,1.187 l 7.342,0 c 0.966,0 1.797,0.656 2.023,1.595 0.626,2.586 1.647,5.046 3.033,7.313 0.503,0.822 0.378,1.874 -0.303,2.557 l -5.195,5.197 c -0.221,0.222 -0.348,0.529 -0.348,0.839 0,0.312 0.127,0.618 0.348,0.839 l 4.622,4.621 c 0.421,0.421 1.257,0.421 1.681,-10e-4 0.018,-0.018 0.038,-0.035 0.059,-0.05 l 5.161,-3.61 c 0.388,-0.373 0.898,-0.58 1.441,-0.58 z"
           id="path8" /></g><g
         id="g10"><path
           style="fill:#4e4e4e"
           inkscape:connector-curvature="0"
           d="m 68.303,81.062 c -9.256,0 -16.787,-7.531 -16.787,-16.787 0,-9.256 7.531,-16.787 16.787,-16.787 9.257,0 16.787,7.53 16.787,16.787 0,9.257 -7.53,16.787 -16.787,16.787 z m 0,-32.68 c -8.763,0 -15.893,7.13 -15.893,15.893 0,8.763 7.13,15.893 15.893,15.893 8.764,0 15.894,-7.13 15.894,-15.893 0,-8.763 -7.13,-15.893 -15.894,-15.893 z m 0,29.412 c -7.454,0 -13.518,-6.065 -13.518,-13.519 0,-7.454 6.064,-13.519 13.518,-13.519 7.455,0 13.519,6.064 13.519,13.519 0,7.454 -6.064,13.519 -13.519,13.519 z m 0,-26.144 c -6.961,0 -12.625,5.663 -12.625,12.625 0,6.962 5.663,12.625 12.625,12.625 6.962,0 12.625,-5.663 12.625,-12.625 C 80.929,57.314 75.265,51.65 68.303,51.65 Z"
           id="path12" /></g></g></g><path
     style="fill:#4e4e4e"
     inkscape:connector-curvature="0"
     d="m 103.74,51.938 c -1.025,0 -1.84,-0.569 -2.294,-1.601 -0.332,-0.755 -0.376,-1.449 -0.131,-2.063 0.357,-0.891 1.204,-1.253 1.239,-1.268 l 11.968,-5.264 c 0.023,-1.099 0.329,-4.776 3.311,-6.087 1.074,-0.472 2.148,-0.711 3.196,-0.711 2.284,0 3.658,1.13 3.715,1.178 0.119,0.099 0.177,0.253 0.155,0.406 -0.022,0.153 -0.121,0.284 -0.262,0.346 l -4.742,2.085 0.097,3.223 2.325,2.281 4.741,-2.085 c 0.144,-0.062 0.308,-0.046 0.437,0.043 0.128,0.09 0.2,0.241 0.189,0.397 -0.01,0.145 -0.289,3.582 -3.973,5.203 -0.832,0.366 -1.672,0.551 -2.499,0.551 l -0.001,0 c -2.334,0 -3.936,-1.446 -4.511,-2.059 l -11.843,5.209 c -0.05,0.021 -0.512,0.216 -1.117,0.216 z m 17.289,-16.101 c -0.922,0 -1.877,0.214 -2.836,0.636 -2.891,1.272 -2.778,5.502 -2.776,5.545 0.006,0.183 -0.1,0.351 -0.267,0.425 l -12.243,5.385 c -0.01,0.005 -0.553,0.245 -0.765,0.787 -0.149,0.38 -0.108,0.839 0.123,1.363 0.316,0.718 0.798,1.067 1.476,1.067 0.422,0 0.755,-0.141 0.758,-0.142 l 12.143,-5.341 c 0.186,-0.081 0.406,-0.027 0.532,0.134 0.016,0.02 1.584,1.982 4.038,1.982 l 10e-4,0 c 0.702,0 1.421,-0.16 2.139,-0.476 2.198,-0.967 2.997,-2.666 3.284,-3.662 l -4.235,1.863 c -0.166,0.074 -0.362,0.038 -0.493,-0.09 l -2.669,-2.619 c -0.082,-0.081 -0.13,-0.19 -0.134,-0.305 l -0.112,-3.704 c -0.005,-0.182 0.1,-0.349 0.267,-0.422 l 4.236,-1.863 c -0.542,-0.266 -1.388,-0.563 -2.467,-0.563 z m -17.434,14.879 c -0.525,0 -1.001,-0.311 -1.212,-0.791 -0.143,-0.323 -0.151,-0.683 -0.023,-1.013 0.129,-0.33 0.377,-0.59 0.701,-0.732 0.653,-0.287 1.46,0.03 1.745,0.679 0.143,0.324 0.15,0.683 0.022,1.013 -0.129,0.33 -0.378,0.589 -0.701,0.732 -0.169,0.075 -0.348,0.112 -0.532,0.112 z m -0.001,-1.754 c -0.059,0 -0.118,0.013 -0.173,0.037 -0.105,0.046 -0.186,0.131 -0.228,0.238 -0.041,0.107 -0.039,0.224 0.008,0.329 0.093,0.212 0.353,0.315 0.567,0.221 0.105,-0.046 0.186,-0.131 0.228,-0.238 0.042,-0.107 0.039,-0.224 -0.007,-0.329 -0.07,-0.157 -0.224,-0.258 -0.395,-0.258 z"
     id="path16" /><path
     style="fill:#4e4e4e"
     inkscape:connector-curvature="0"
     d="m 82.998,31.693 c -0.385,0 -0.79,-0.095 -1.202,-0.281 -0.752,-0.34 -1.248,-0.828 -1.475,-1.448 -0.33,-0.901 0.059,-1.736 0.076,-1.771 l 5.391,-11.911 c -0.717,-0.834 -2.945,-3.773 -1.601,-6.741 1.856,-4.101 5.309,-4.264 5.455,-4.269 0.154,-0.013 0.3,0.069 0.386,0.198 0.086,0.128 0.1,0.292 0.036,0.433 l -2.137,4.719 2.225,2.333 3.254,0.145 2.136,-4.718 c 0.065,-0.143 0.199,-0.241 0.354,-0.26 0.159,-0.02 0.309,0.045 0.406,0.169 0.09,0.115 2.177,2.859 0.518,6.525 -1.411,3.117 -4.153,3.582 -5.663,3.582 l 0,0 c -0.222,0 -0.412,-0.01 -0.561,-0.023 L 85.26,30.163 c -0.029,0.062 -0.711,1.53 -2.262,1.53 z M 88.9,6.303 c -1.008,0.279 -2.772,1.113 -3.9,3.605 -1.306,2.886 1.607,5.95 1.636,5.981 0.127,0.132 0.161,0.328 0.086,0.495 l -5.515,12.185 c -0.005,0.01 -0.248,0.552 -0.044,1.096 0.143,0.383 0.481,0.697 1.002,0.933 0.295,0.134 0.575,0.201 0.833,0.201 0.981,0 1.442,-0.995 1.447,-1.005 l 5.47,-12.085 c 0.084,-0.186 0.285,-0.293 0.485,-0.256 0.003,0 0.299,0.051 0.755,0.051 1.294,0 3.645,-0.397 4.849,-3.057 C 96.985,12.279 96.447,10.472 96,9.534 l -1.905,4.209 c -0.076,0.166 -0.244,0.278 -0.427,0.262 L 89.932,13.839 C 89.817,13.834 89.708,13.785 89.628,13.701 L 87.071,11.019 C 86.945,10.887 86.912,10.692 86.987,10.526 L 88.9,6.303 Z m -6.136,24.295 c -0.189,0 -0.372,-0.04 -0.546,-0.118 -0.665,-0.301 -0.961,-1.087 -0.66,-1.752 0.293,-0.645 1.102,-0.954 1.753,-0.66 0.665,0.301 0.961,1.087 0.66,1.752 -0.215,0.473 -0.689,0.778 -1.207,0.778 z m 0.001,-1.754 c -0.169,0 -0.324,0.1 -0.393,0.253 -0.097,0.216 -0.001,0.471 0.215,0.569 0.212,0.096 0.474,-0.006 0.57,-0.215 0.097,-0.216 0.001,-0.471 -0.215,-0.569 -0.057,-0.025 -0.116,-0.038 -0.177,-0.038 z"
     id="path18" /><g
     id="Expanded_4_"><g
       id="g21"><g
         id="g23"><path
           style="fill:#4e4e4e"
           inkscape:connector-curvature="0"
           d="m 138.113,114.31 c -1.612,0 -3.048,-1.081 -3.492,-2.63 l -0.998,-3.479 c -1.22,-0.024 -2.44,-0.163 -3.636,-0.415 l -1.754,3.168 c -0.623,1.123 -1.891,1.849 -3.231,1.849 -0.604,0 -1.194,-0.15 -1.706,-0.432 l -3.714,-2.057 c -0.848,-0.47 -1.463,-1.242 -1.731,-2.174 -0.268,-0.933 -0.156,-1.914 0.314,-2.762 l 1.756,-3.169 c -0.848,-0.879 -1.612,-1.839 -2.278,-2.861 l -3.477,0.998 c -0.326,0.094 -0.663,0.141 -1,0.141 -1.612,0 -3.048,-1.081 -3.492,-2.63 l -1.171,-4.081 c -0.268,-0.933 -0.156,-1.913 0.313,-2.761 0.472,-0.85 1.245,-1.464 2.176,-1.731 l 3.479,-0.999 c 0.024,-1.224 0.164,-2.443 0.415,-3.633 l -3.167,-1.756 c -1.751,-0.97 -2.387,-3.184 -1.417,-4.935 l 2.057,-3.714 c 0.623,-1.124 1.892,-1.85 3.232,-1.85 0.604,0 1.194,0.15 1.705,0.433 l 3.168,1.756 c 0.88,-0.848 1.839,-1.612 2.859,-2.277 l -0.999,-3.479 c -0.267,-0.931 -0.155,-1.911 0.315,-2.76 0.471,-0.849 1.242,-1.464 2.173,-1.731 l 4.081,-1.171 c 0.326,-0.094 0.663,-0.141 1,-0.141 1.611,0 3.047,1.081 3.491,2.63 l 0.999,3.479 c 1.22,0.024 2.438,0.163 3.632,0.415 l 1.755,-3.168 c 0.624,-1.124 1.892,-1.849 3.231,-1.849 0.604,0 1.194,0.15 1.705,0.433 l 3.714,2.057 c 0.848,0.469 1.463,1.241 1.731,2.174 0.268,0.934 0.156,1.914 -0.315,2.762 l -1.754,3.167 c 0.848,0.88 1.613,1.84 2.279,2.861 l 3.478,-0.998 c 0.326,-0.094 0.663,-0.141 1,-0.141 1.612,0 3.048,1.081 3.492,2.63 l 1.171,4.081 c 0.268,0.932 0.157,1.913 -0.313,2.761 -0.471,0.848 -1.243,1.463 -2.175,1.731 l -3.48,0.999 c -0.023,1.22 -0.162,2.44 -0.415,3.634 l 3.167,1.756 c 1.751,0.97 2.387,3.184 1.417,4.935 l -2.057,3.714 c -0.623,1.123 -1.892,1.849 -3.231,1.849 -0.604,0 -1.194,-0.15 -1.706,-0.433 l -3.166,-1.756 c -0.877,0.845 -1.836,1.609 -2.861,2.278 l 0.999,3.479 c 0.551,1.925 -0.566,3.94 -2.489,4.492 l -4.081,1.171 c -0.324,0.092 -0.66,0.14 -0.998,0.14 z m -8.355,-7.48 c 0.033,0 0.066,0.004 0.1,0.011 1.345,0.308 2.726,0.466 4.103,0.469 0.199,0 0.374,0.132 0.429,0.324 l 1.09,3.799 c 0.335,1.167 1.417,1.983 2.633,1.983 0.254,0 0.507,-0.036 0.754,-0.106 l 4.081,-1.171 c 1.45,-0.416 2.292,-1.936 1.877,-3.387 l -1.09,-3.799 c -0.055,-0.191 0.023,-0.396 0.191,-0.502 1.17,-0.736 2.257,-1.601 3.229,-2.572 0.141,-0.141 0.36,-0.171 0.532,-0.074 l 3.458,1.917 c 0.379,0.21 0.819,0.321 1.273,0.321 1.02,0 1.981,-0.545 2.449,-1.389 l 2.057,-3.714 c 0.731,-1.32 0.252,-2.989 -1.068,-3.72 l -3.459,-1.918 c -0.175,-0.096 -0.264,-0.296 -0.219,-0.491 0.308,-1.344 0.466,-2.724 0.468,-4.102 0.001,-0.199 0.132,-0.374 0.324,-0.429 l 3.8,-1.09 c 0.703,-0.202 1.285,-0.665 1.64,-1.305 0.354,-0.639 0.438,-1.378 0.236,-2.081 l -1.171,-4.081 c -0.335,-1.167 -1.417,-1.983 -2.633,-1.983 -0.254,0 -0.507,0.036 -0.753,0.106 l -3.799,1.09 c -0.192,0.055 -0.397,-0.024 -0.502,-0.192 -0.731,-1.166 -1.596,-2.252 -2.572,-3.229 -0.14,-0.141 -0.171,-0.358 -0.074,-0.532 l 1.916,-3.459 c 0.355,-0.639 0.439,-1.378 0.237,-2.081 -0.202,-0.703 -0.665,-1.285 -1.305,-1.639 l -3.714,-2.057 c -0.379,-0.21 -0.819,-0.321 -1.272,-0.321 -1.019,0 -1.981,0.545 -2.45,1.389 l -1.916,3.459 c -0.097,0.174 -0.298,0.262 -0.491,0.219 -1.344,-0.308 -2.723,-0.465 -4.101,-0.468 -0.199,0 -0.374,-0.132 -0.428,-0.324 l -1.09,-3.799 c -0.335,-1.168 -1.417,-1.983 -2.632,-1.983 -0.254,0 -0.507,0.036 -0.754,0.106 l -4.081,1.171 c -0.702,0.201 -1.283,0.665 -1.638,1.305 -0.355,0.641 -0.44,1.38 -0.239,2.081 l 1.09,3.799 c 0.055,0.191 -0.023,0.396 -0.192,0.502 -1.164,0.731 -2.25,1.596 -3.228,2.57 -0.14,0.141 -0.357,0.17 -0.532,0.074 l -3.459,-1.917 c -0.379,-0.21 -0.819,-0.321 -1.272,-0.321 -1.02,0 -1.982,0.545 -2.45,1.389 l -2.057,3.714 c -0.731,1.32 -0.252,2.989 1.068,3.72 l 3.458,1.918 c 0.175,0.097 0.264,0.297 0.219,0.491 -0.307,1.337 -0.465,2.717 -0.468,4.101 -0.001,0.199 -0.133,0.374 -0.324,0.428 l -3.799,1.09 c -0.702,0.201 -1.285,0.665 -1.641,1.306 -0.353,0.638 -0.437,1.378 -0.236,2.081 l 1.171,4.08 c 0.335,1.168 1.417,1.983 2.632,1.983 0.254,0 0.507,-0.036 0.754,-0.106 l 3.798,-1.09 c 0.191,-0.056 0.396,0.024 0.502,0.192 0.731,1.166 1.596,2.253 2.571,3.229 0.14,0.141 0.171,0.358 0.074,0.532 l -1.917,3.46 c -0.355,0.639 -0.439,1.379 -0.237,2.082 0.202,0.703 0.665,1.285 1.305,1.639 l 3.714,2.057 c 0.379,0.21 0.819,0.321 1.273,0.321 1.02,0 1.981,-0.545 2.449,-1.388 l 1.916,-3.459 c 0.081,-0.143 0.232,-0.229 0.392,-0.229 z m 8.354,5.357 c -0.669,0 -1.266,-0.449 -1.45,-1.092 l -1.316,-4.584 c -0.075,-0.262 -0.318,-0.445 -0.591,-0.445 l 0,-0.447 -0.026,0.447 c -0.614,0.026 -1.211,0.147 -1.788,0.263 -1.064,0.216 -2.237,0.387 -3.272,0.101 -0.106,-0.029 -0.224,-0.029 -0.332,0.003 -0.158,0.045 -0.287,0.148 -0.365,0.292 -0.013,0.024 -0.028,0.046 -0.045,0.067 l -2.57,3.171 c -0.267,0.446 -0.779,0.732 -1.318,0.732 l 0,0 c -0.252,0 -0.498,-0.063 -0.712,-0.181 l -3.714,-2.057 c -0.348,-0.193 -0.61,-0.523 -0.719,-0.904 -0.109,-0.38 -0.062,-0.797 0.13,-1.145 l 2.313,-4.176 c 0.138,-0.25 0.088,-0.559 -0.122,-0.751 -1.329,-1.219 -2.455,-2.633 -3.347,-4.202 -0.137,-0.243 -0.436,-0.363 -0.704,-0.288 l -4.584,1.315 c -0.783,0.225 -1.643,-0.256 -1.866,-1.033 l -1.171,-4.081 c -0.112,-0.388 -0.066,-0.795 0.13,-1.146 0.196,-0.352 0.517,-0.607 0.904,-0.718 l 4.585,-1.316 c 0.274,-0.079 0.457,-0.333 0.445,-0.617 -0.077,-1.801 0.128,-3.598 0.609,-5.339 0.076,-0.275 -0.045,-0.563 -0.294,-0.701 l -4.174,-2.313 c -0.352,-0.195 -0.607,-0.516 -0.719,-0.903 -0.111,-0.388 -0.065,-0.795 0.13,-1.147 l 2.056,-3.713 c 0.378,-0.68 1.364,-0.967 2.051,-0.589 l 4.174,2.313 c 0.244,0.136 0.563,0.081 0.749,-0.122 1.223,-1.331 2.637,-2.457 4.204,-3.347 0.247,-0.141 0.365,-0.43 0.287,-0.703 l -1.315,-4.584 c -0.111,-0.387 -0.065,-0.795 0.131,-1.147 0.196,-0.352 0.516,-0.607 0.903,-0.719 l 4.081,-1.171 c 0.781,-0.225 1.643,0.256 1.866,1.034 l 1.316,4.584 c 0.075,0.261 0.316,0.443 0.587,0.443 0.273,-0.011 0.517,-0.016 0.761,-0.016 1.554,0 3.103,0.21 4.606,0.625 0.276,0.078 0.567,-0.05 0.701,-0.294 l 2.313,-4.175 c 0.26,-0.468 0.786,-0.77 1.339,-0.77 0.252,0 0.498,0.063 0.712,0.181 l 3.714,2.057 c 0.347,0.192 0.609,0.522 0.719,0.903 0.109,0.379 0.062,0.797 -0.13,1.146 l -2.313,4.175 c -0.138,0.25 -0.088,0.559 0.122,0.751 1.331,1.221 2.457,2.635 3.348,4.203 0.137,0.243 0.434,0.364 0.703,0.288 l 4.584,-1.315 c 0.782,-0.225 1.643,0.255 1.866,1.034 l 1.171,4.081 c 0.112,0.389 0.065,0.796 -0.132,1.147 -0.194,0.35 -0.515,0.606 -0.903,0.717 l -4.584,1.315 c -0.274,0.079 -0.457,0.333 -0.445,0.617 0.077,1.803 -0.129,3.599 -0.609,5.339 -0.076,0.275 0.045,0.564 0.294,0.701 l 4.174,2.313 c 0.352,0.196 0.607,0.516 0.719,0.904 0.111,0.388 0.065,0.795 -0.13,1.147 l -2.057,3.714 c -0.259,0.467 -0.786,0.768 -1.341,0.768 -0.251,0 -0.497,-0.062 -0.709,-0.18 l -4.173,-2.313 c -0.24,-0.133 -0.563,-0.08 -0.751,0.123 -1.22,1.329 -2.634,2.455 -4.203,3.347 -0.247,0.141 -0.365,0.431 -0.287,0.704 l 1.316,4.584 c 0.229,0.8 -0.235,1.637 -1.033,1.866 l -4.081,1.171 c -0.138,0.038 -0.278,0.058 -0.418,0.058 z m -3.356,-7.015 c 0.669,0 1.266,0.449 1.449,1.092 l 1.316,4.584 c 0.091,0.316 0.437,0.514 0.76,0.421 l 4.081,-1.171 c 0.325,-0.094 0.514,-0.435 0.421,-0.761 l -1.316,-4.584 c -0.193,-0.671 0.097,-1.381 0.704,-1.727 1.489,-0.847 2.83,-1.915 3.987,-3.176 0.46,-0.498 1.249,-0.626 1.842,-0.3 l 4.173,2.313 c 0.265,0.146 0.691,0.024 0.836,-0.24 l 2.057,-3.714 c 0.08,-0.143 0.098,-0.309 0.053,-0.467 -0.045,-0.158 -0.149,-0.289 -0.292,-0.368 l -4.174,-2.312 c -0.612,-0.337 -0.91,-1.045 -0.723,-1.721 0.456,-1.651 0.65,-3.354 0.578,-5.064 -0.03,-0.699 0.418,-1.321 1.09,-1.514 l 4.584,-1.315 c 0.158,-0.046 0.29,-0.15 0.369,-0.293 0.08,-0.143 0.099,-0.307 0.054,-0.465 l -1.171,-4.081 c -0.091,-0.317 -0.438,-0.516 -0.76,-0.421 l -4.584,1.315 c -0.657,0.189 -1.392,-0.112 -1.728,-0.707 -0.844,-1.486 -1.912,-2.827 -3.174,-3.985 -0.514,-0.472 -0.638,-1.23 -0.3,-1.842 l 2.313,-4.174 c 0.079,-0.142 0.098,-0.313 0.054,-0.467 -0.045,-0.156 -0.151,-0.29 -0.293,-0.368 l -3.714,-2.057 c -0.272,-0.151 -0.687,-0.029 -0.837,0.24 l -2.312,4.174 c -0.33,0.599 -1.057,0.907 -1.722,0.723 -1.648,-0.455 -3.353,-0.651 -5.061,-0.578 -0.006,0 -0.061,10e-4 -0.067,10e-4 -0.667,0 -1.262,-0.449 -1.445,-1.091 l -1.316,-4.584 c -0.091,-0.317 -0.441,-0.514 -0.76,-0.421 l -4.081,1.171 c -0.158,0.045 -0.288,0.149 -0.368,0.293 -0.08,0.144 -0.099,0.31 -0.054,0.467 l 1.315,4.584 c 0.193,0.671 -0.097,1.381 -0.704,1.727 -1.486,0.844 -2.827,1.912 -3.987,3.175 -0.459,0.498 -1.251,0.628 -1.842,0.299 l -4.173,-2.312 c -0.272,-0.151 -0.687,-0.029 -0.837,0.24 l -2.056,3.712 c -0.08,0.143 -0.098,0.309 -0.053,0.467 0.045,0.158 0.149,0.289 0.292,0.368 l 4.174,2.313 c 0.612,0.337 0.91,1.045 0.723,1.721 -0.456,1.651 -0.65,3.355 -0.578,5.063 0.03,0.699 -0.418,1.321 -1.09,1.514 l -4.585,1.316 c -0.158,0.045 -0.289,0.15 -0.369,0.294 -0.079,0.142 -0.097,0.307 -0.052,0.465 l 1.171,4.081 c 0.091,0.317 0.44,0.512 0.761,0.421 l 4.584,-1.315 c 0.658,-0.189 1.392,0.111 1.728,0.706 0.845,1.488 1.914,2.829 3.174,3.985 0.514,0.472 0.638,1.23 0.3,1.842 l -2.313,4.175 c -0.078,0.142 -0.098,0.312 -0.054,0.468 0.044,0.153 0.154,0.291 0.293,0.368 l 3.714,2.057 c 0.273,0.151 0.687,0.029 0.837,-0.24 0.012,-0.023 0.027,-0.044 0.043,-0.064 l 2.568,-3.17 c 0.196,-0.334 0.507,-0.576 0.882,-0.683 0.265,-0.076 0.549,-0.077 0.815,-0.005 0.872,0.241 1.845,0.09 2.858,-0.115 0.611,-0.124 1.243,-0.251 1.928,-0.28 0.006,-0.002 0.057,-0.003 0.064,-0.003 z"
           id="path25" /></g><g
         id="g27"><path
           style="fill:#4e4e4e"
           inkscape:connector-curvature="0"
           d="m 134.008,99.73 c -4.909,0 -9.282,-3.294 -10.636,-8.011 -0.813,-2.836 -0.472,-5.822 0.961,-8.409 1.434,-2.587 3.785,-4.46 6.62,-5.273 0.995,-0.286 2.02,-0.43 3.047,-0.43 4.909,0 9.282,3.294 10.636,8.011 1.682,5.862 -1.719,12.001 -7.581,13.683 -0.995,0.284 -2.02,0.429 -3.047,0.429 z M 134,78.5 c -0.943,0 -1.885,0.133 -2.8,0.395 -2.606,0.748 -4.767,2.47 -6.085,4.848 -1.317,2.378 -1.632,5.123 -0.884,7.729 1.244,4.336 5.264,7.364 9.777,7.364 0.944,0 1.885,-0.133 2.8,-0.395 5.389,-1.546 8.515,-7.189 6.969,-12.577 C 142.533,81.528 138.513,78.5 134,78.5 Z m 0.008,19.107 c 0,0 0,0 0,0 -3.967,0 -7.502,-2.662 -8.595,-6.473 -0.658,-2.291 -0.382,-4.705 0.776,-6.795 1.159,-2.091 3.058,-3.604 5.349,-4.261 0.804,-0.231 1.633,-0.348 2.463,-0.348 3.966,0 7.501,2.662 8.594,6.474 1.359,4.737 -1.389,9.697 -6.126,11.057 -0.803,0.229 -1.632,0.346 -2.461,0.346 z m -0.007,-16.984 c -0.747,0 -1.492,0.105 -2.216,0.313 -2.062,0.592 -3.772,1.954 -4.814,3.836 -1.043,1.882 -1.291,4.054 -0.699,6.115 0.985,3.43 4.165,5.826 7.736,5.826 10e-4,0 10e-4,0 10e-4,0 0.746,0 1.491,-0.105 2.215,-0.313 4.263,-1.224 6.737,-5.688 5.514,-9.951 -0.986,-3.43 -4.167,-5.826 -7.737,-5.826 z"
           id="path29" /></g></g></g><path
     style="fill:#4e4e4e"
     inkscape:connector-curvature="0"
     d="m 62.636,122.123 c -0.699,0 -1.155,-0.168 -1.205,-0.188 -0.144,-0.056 -0.249,-0.182 -0.278,-0.334 -0.029,-0.152 0.023,-0.308 0.137,-0.412 l 2.401,-2.205 -0.677,-1.803 -1.755,-0.842 -2.399,2.204 c -0.115,0.106 -0.278,0.144 -0.428,0.1 -0.15,-0.044 -0.267,-0.163 -0.307,-0.314 -0.026,-0.095 -0.597,-2.355 1.397,-4.187 0.794,-0.729 1.706,-1.099 2.71,-1.099 0.875,0 1.603,0.288 1.995,0.482 l 6.109,-5.612 c 0.056,-0.051 0.564,-0.499 1.269,-0.499 0.342,0 0.852,0.111 1.341,0.643 0.392,0.427 0.578,0.883 0.554,1.355 -0.035,0.676 -0.496,1.102 -0.549,1.149 l -6.18,5.677 c 0.24,0.807 0.725,3.073 -0.832,4.503 -1.241,1.143 -2.481,1.382 -3.303,1.382 z m -0.067,-0.894 c 0.664,0.012 1.7,-0.165 2.766,-1.145 1.431,-1.315 0.514,-3.795 0.504,-3.82 -0.065,-0.171 -0.019,-0.364 0.115,-0.488 l 6.138,-5.639 c -0.378,0.155 -0.851,0.054 -1.134,-0.253 -0.314,-0.341 -0.349,-0.841 -0.118,-1.218 l -6.245,5.737 c -0.151,0.139 -0.378,0.157 -0.548,0.045 -0.007,-0.004 -0.799,-0.509 -1.816,-0.509 -0.774,0 -1.482,0.29 -2.105,0.863 -0.918,0.844 -1.159,1.799 -1.196,2.464 l 1.946,-1.788 c 0.135,-0.124 0.332,-0.153 0.496,-0.074 l 2.19,1.05 c 0.104,0.05 0.184,0.138 0.225,0.246 l 0.845,2.254 c 0.064,0.171 0.018,0.363 -0.116,0.486 l -1.947,1.789 z m 9.138,-12.156 c -0.022,0 -0.054,0.006 -0.083,0.032 -0.05,0.046 -0.053,0.124 -0.007,0.174 0.065,0.071 0.116,0.059 0.173,0.007 0.05,-0.046 0.054,-0.124 0.008,-0.174 -0.031,-0.034 -0.07,-0.039 -0.091,-0.039 z"
     id="path33" /><path
     style="fill:#4e4e4e"
     inkscape:connector-curvature="0"
     d="m 136.863,65.913 c -0.108,0 -0.223,-0.008 -0.346,-0.026 -0.573,-0.084 -1.005,-0.321 -1.284,-0.702 -0.399,-0.547 -0.31,-1.168 -0.299,-1.238 l 1.217,-8.303 c -0.695,-0.475 -2.5,-1.928 -2.194,-4.02 0.439,-2.988 2.654,-3.738 2.748,-3.769 0.149,-0.047 0.308,-0.016 0.427,0.084 0.118,0.1 0.176,0.253 0.154,0.406 l -0.473,3.225 1.662,0.973 1.893,-0.453 0.472,-3.224 c 0.023,-0.155 0.125,-0.286 0.269,-0.347 0.144,-0.061 0.309,-0.042 0.436,0.051 0.08,0.058 1.948,1.452 1.555,4.131 -0.333,2.273 -2.119,3.208 -3.266,3.451 l -1.202,8.201 c -0.077,0.54 -0.549,1.56 -1.769,1.56 z m -0.102,-1.812 c -0.06,0 -0.112,0.045 -0.12,0.105 -0.009,0.058 0.046,0.131 0.103,0.139 0.002,0 0.003,0 0.004,0 0.076,0 0.127,-0.045 0.136,-0.103 0.006,-0.042 -0.009,-0.073 -0.023,-0.091 -0.014,-0.019 -0.039,-0.042 -0.081,-0.048 l -0.019,-0.002 z m 0,-0.894 c 0.049,0 0.098,0.003 0.148,0.011 0.269,0.04 0.507,0.181 0.669,0.399 0.104,0.14 0.169,0.301 0.192,0.47 L 139,55.699 c 0.03,-0.202 0.193,-0.359 0.397,-0.38 0.099,-0.011 2.461,-0.295 2.821,-2.747 0.182,-1.241 -0.233,-2.133 -0.624,-2.671 l -0.384,2.619 c -0.027,0.181 -0.161,0.327 -0.338,0.37 l -2.362,0.565 c -0.112,0.026 -0.23,0.009 -0.33,-0.049 l -2.077,-1.216 c -0.157,-0.092 -0.243,-0.27 -0.216,-0.45 l 0.385,-2.623 c -0.538,0.418 -1.218,1.214 -1.427,2.638 -0.282,1.923 1.994,3.27 2.017,3.283 0.158,0.092 0.244,0.271 0.218,0.452 l -1.21,8.25 c 0.173,-0.319 0.512,-0.533 0.891,-0.533 z"
     id="path35" /><path
     style="fill:#4e4e4e"
     inkscape:connector-curvature="0"
     d="m 123.507,129.337 0,0 c -0.692,0 -2.435,-0.194 -3.665,-1.988 -1.299,-1.895 -0.624,-3.794 0.052,-4.751 l -4.688,-6.836 c -0.415,-0.605 -0.62,-1.786 0.512,-2.563 0.373,-0.256 0.751,-0.386 1.121,-0.386 0.691,0 1.179,0.462 1.359,0.735 l 4.746,6.921 c 0.844,-0.123 3.159,-0.263 4.339,1.46 1.709,2.491 0.592,4.546 0.543,4.632 -0.076,0.135 -0.215,0.221 -0.37,0.228 -0.15,0.013 -0.301,-0.066 -0.388,-0.193 l -1.843,-2.688 -1.881,0.414 -1.082,1.619 1.842,2.687 c 0.088,0.129 0.101,0.294 0.038,0.436 -0.064,0.142 -0.199,0.241 -0.354,0.26 0.001,0 -0.102,0.013 -0.281,0.013 z m -7.486,-13.968 4.796,6.994 c 0.116,0.169 0.102,0.395 -0.033,0.548 -0.065,0.075 -1.606,1.888 -0.204,3.932 0.704,1.026 1.608,1.402 2.271,1.533 l -1.495,-2.18 c -0.104,-0.151 -0.105,-0.349 -0.003,-0.501 l 1.349,-2.019 c 0.065,-0.096 0.163,-0.164 0.276,-0.188 l 2.351,-0.518 c 0.178,-0.038 0.361,0.034 0.464,0.184 l 1.499,2.187 c 0.111,-0.673 0.07,-1.718 -0.744,-2.905 -1.1,-1.605 -3.698,-1.042 -3.71,-1.04 -0.178,0.04 -0.363,-0.033 -0.467,-0.183 l -4.714,-6.874 c 0.035,0.14 0.04,0.288 0.013,0.434 -0.05,0.267 -0.201,0.499 -0.425,0.652 -0.369,0.252 -0.889,0.222 -1.224,-0.056 z m 0.648,-0.906 c -0.025,0 -0.048,0.007 -0.069,0.022 -0.048,0.033 -0.065,0.123 -0.032,0.171 0.075,0.109 0.133,0.057 0.171,0.032 0.048,-0.033 0.065,-0.123 0.032,-0.17 -0.033,-0.05 -0.083,-0.055 -0.102,-0.055 z"
     id="path37" /><g
     id="Expanded_5_"><g
       id="g40"><g
         id="g42"><path
           style="fill:#4e4e4e"
           inkscape:connector-curvature="0"
           d="m 94.429,133.935 c -0.105,0 -0.212,-0.006 -0.318,-0.02 l -2.817,-0.348 c -1.385,-0.172 -2.411,-1.487 -2.24,-2.872 l 0.285,-2.294 c -0.683,-0.312 -1.34,-0.685 -1.962,-1.111 l -1.822,1.421 c -0.457,0.356 -1.004,0.543 -1.582,0.543 -0.801,0 -1.543,-0.361 -2.034,-0.991 l -1.746,-2.239 c -0.422,-0.541 -0.609,-1.216 -0.524,-1.9 0.085,-0.683 0.429,-1.292 0.972,-1.715 l 1.822,-1.421 c -0.261,-0.704 -0.463,-1.433 -0.6,-2.175 l -2.294,-0.283 c -1.384,-0.171 -2.411,-1.486 -2.24,-2.872 l 0.348,-2.817 c 0.084,-0.683 0.429,-1.291 0.972,-1.715 0.542,-0.423 1.214,-0.61 1.9,-0.525 l 2.295,0.283 c 0.312,-0.684 0.685,-1.341 1.111,-1.962 l -1.421,-1.821 c -0.422,-0.542 -0.609,-1.216 -0.524,-1.9 0.084,-0.683 0.429,-1.293 0.971,-1.715 l 2.239,-1.746 c 0.542,-0.423 1.211,-0.611 1.899,-0.525 0.684,0.085 1.293,0.43 1.715,0.972 l 1.421,1.822 c 0.707,-0.262 1.436,-0.463 2.173,-0.6 l 0.285,-2.294 c 0.172,-1.392 1.452,-2.418 2.871,-2.24 l 2.817,0.348 c 1.386,0.172 2.412,1.487 2.24,2.872 l -0.284,2.295 c 0.684,0.314 1.341,0.686 1.961,1.111 l 1.822,-1.421 c 0.456,-0.356 1.003,-0.544 1.581,-0.544 0.801,0 1.543,0.361 2.034,0.991 l 1.746,2.238 c 0.873,1.12 0.673,2.742 -0.447,3.615 l -1.822,1.422 c 0.262,0.705 0.463,1.433 0.6,2.172 l 2.295,0.284 c 1.386,0.173 2.411,1.488 2.24,2.872 l -0.348,2.817 c -0.084,0.682 -0.429,1.291 -0.971,1.715 -0.543,0.422 -1.211,0.61 -1.901,0.525 l -2.294,-0.283 c -0.314,0.685 -0.686,1.343 -1.111,1.962 l 1.421,1.822 c 0.873,1.12 0.673,2.742 -0.447,3.615 l -2.238,1.746 c -0.541,0.422 -1.211,0.61 -1.899,0.525 -0.683,-0.084 -1.292,-0.43 -1.715,-0.972 l -1.422,-1.822 c -0.705,0.262 -1.434,0.463 -2.174,0.6 l -0.284,2.295 c -0.161,1.288 -1.259,2.26 -2.555,2.26 z m -7.065,-7.648 c 0.092,0 0.184,0.028 0.262,0.085 0.74,0.535 1.537,0.987 2.372,1.343 0.183,0.078 0.293,0.268 0.268,0.466 l -0.325,2.623 c -0.109,0.889 0.574,1.765 1.463,1.876 l 2.816,0.348 c 0.935,0.112 1.763,-0.553 1.875,-1.463 l 0.325,-2.624 c 0.024,-0.198 0.177,-0.355 0.374,-0.386 0.9,-0.143 1.784,-0.387 2.628,-0.726 0.183,-0.074 0.396,-0.017 0.519,0.14 l 1.625,2.084 c 0.276,0.354 0.674,0.58 1.12,0.635 0.447,0.055 0.886,-0.067 1.241,-0.344 l 2.238,-1.745 c 0.731,-0.57 0.862,-1.629 0.292,-2.361 l -1.625,-2.083 c -0.122,-0.157 -0.126,-0.376 -0.009,-0.537 0.534,-0.735 0.986,-1.533 1.344,-2.373 0.077,-0.183 0.267,-0.294 0.466,-0.268 l 2.624,0.324 c 0.457,0.056 0.886,-0.067 1.241,-0.343 0.354,-0.276 0.58,-0.674 0.634,-1.119 l 0.348,-2.817 c 0.11,-0.889 -0.574,-1.765 -1.463,-1.876 l -2.624,-0.324 c -0.198,-0.024 -0.356,-0.177 -0.386,-0.373 -0.143,-0.898 -0.387,-1.782 -0.726,-2.628 -0.074,-0.185 -0.017,-0.396 0.14,-0.518 l 2.084,-1.625 c 0.731,-0.57 0.862,-1.629 0.292,-2.361 l -1.746,-2.238 c -0.55,-0.706 -1.648,-0.847 -2.36,-0.292 l -2.084,1.625 c -0.157,0.122 -0.375,0.126 -0.537,0.01 -0.736,-0.533 -1.534,-0.985 -2.372,-1.344 C 99.515,105 99.406,104.81 99.43,104.612 l 0.325,-2.624 c 0.11,-0.889 -0.574,-1.765 -1.463,-1.876 l -2.817,-0.348 c -0.931,-0.113 -1.762,0.553 -1.875,1.463 l -0.325,2.624 c -0.024,0.198 -0.177,0.355 -0.374,0.386 -0.896,0.142 -1.781,0.386 -2.628,0.725 -0.183,0.073 -0.396,0.017 -0.518,-0.14 l -1.625,-2.084 c -0.276,-0.354 -0.673,-0.58 -1.12,-0.635 -0.445,-0.055 -0.884,0.067 -1.24,0.343 l -2.239,1.746 c -0.353,0.276 -0.578,0.674 -0.633,1.12 -0.055,0.447 0.066,0.887 0.342,1.241 l 1.625,2.083 c 0.122,0.157 0.126,0.376 0.009,0.537 -0.535,0.737 -0.987,1.535 -1.343,2.371 -0.078,0.183 -0.261,0.294 -0.466,0.268 l -2.625,-0.324 c -0.453,-0.055 -0.887,0.066 -1.241,0.343 -0.355,0.276 -0.58,0.674 -0.635,1.119 l -0.348,2.817 c -0.109,0.889 0.574,1.766 1.463,1.876 l 2.624,0.324 c 0.12,0.015 0.225,0.077 0.296,0.167 -0.009,-0.038 -0.026,-0.073 -0.049,-0.104 -0.042,-0.055 -0.104,-0.09 -0.173,-0.098 -0.027,-0.003 -0.053,-0.009 -0.079,-0.017 L 79.7,117.117 c -0.6,-0.099 -1.037,-0.677 -0.962,-1.284 l 0.347,-2.817 c 0.038,-0.303 0.197,-0.583 0.436,-0.77 0.239,-0.186 0.552,-0.273 0.852,-0.236 l 3.168,0.391 c 0.134,-0.009 0.24,-0.067 0.278,-0.168 0.43,-1.144 1.033,-2.209 1.793,-3.165 0.076,-0.096 0.077,-0.229 0.002,-0.325 l -1.961,-2.514 c -0.392,-0.503 -0.302,-1.231 0.2,-1.623 l 2.239,-1.746 c 0.243,-0.19 0.543,-0.275 0.853,-0.236 0.305,0.038 0.579,0.193 0.769,0.437 l 1.961,2.514 c 0.073,0.094 0.205,0.128 0.315,0.077 1.113,-0.504 2.292,-0.829 3.508,-0.968 0.121,-0.014 0.216,-0.108 0.231,-0.228 l 0.392,-3.167 c 0.077,-0.625 0.653,-1.089 1.289,-1.005 l 2.816,0.348 c 0.621,0.077 1.082,0.668 1.006,1.289 l -0.392,3.167 c -0.015,0.12 0.054,0.235 0.169,0.278 1.145,0.431 2.209,1.034 3.165,1.793 0.119,0.094 0.207,0.093 0.324,10e-4 l 2.514,-1.961 c 0.485,-0.379 1.246,-0.283 1.623,0.2 l 1.746,2.238 c 0.392,0.503 0.301,1.231 -0.201,1.623 l -2.514,1.961 c -0.095,0.074 -0.127,0.203 -0.077,0.314 0.504,1.114 0.829,2.293 0.968,3.507 0.014,0.122 0.107,0.216 0.228,0.231 l 3.167,0.392 c 0.622,0.077 1.083,0.668 1.007,1.289 l -0.348,2.817 c -0.037,0.302 -0.196,0.582 -0.436,0.77 -0.239,0.186 -0.548,0.272 -0.852,0.236 l -3.167,-0.392 c -0.002,0 -0.004,0 -0.006,0 -0.138,0 -0.234,0.068 -0.272,0.168 -0.431,1.145 -1.033,2.21 -1.793,3.166 -0.076,0.095 -0.077,0.229 -0.002,0.325 l 1.961,2.514 c 0.392,0.503 0.301,1.231 -0.201,1.623 l -2.238,1.746 c -0.244,0.191 -0.545,0.275 -0.854,0.235 -0.304,-0.038 -0.578,-0.193 -0.768,-0.437 l -1.96,-2.513 c -0.073,-0.094 -0.207,-0.127 -0.315,-0.078 -1.115,0.504 -2.295,0.83 -3.508,0.968 -0.122,0.014 -0.216,0.108 -0.232,0.229 l -0.391,3.166 c -0.077,0.625 -0.644,1.089 -1.289,1.006 l -2.817,-0.348 c -0.622,-0.077 -1.083,-0.667 -1.006,-1.29 l 0.392,-3.166 c 0.015,-0.12 -0.055,-0.235 -0.169,-0.279 -1.142,-0.429 -2.208,-1.032 -3.165,-1.792 -0.118,-0.093 -0.205,-0.094 -0.325,-0.001 l -2.514,1.96 c -0.202,0.158 -0.454,0.244 -0.71,0.244 l 0,0 c -0.36,0 -0.692,-0.162 -0.913,-0.445 l -1.746,-2.238 c -0.392,-0.503 -0.302,-1.231 0.2,-1.623 l 2.515,-1.961 c 0.095,-0.075 0.127,-0.205 0.077,-0.316 -0.165,-0.363 -0.385,-0.699 -0.599,-1.022 -0.257,-0.389 -0.519,-0.787 -0.698,-1.248 0.145,0.68 0.349,1.346 0.606,1.989 0.074,0.185 0.017,0.396 -0.14,0.518 l -2.083,1.625 c -0.353,0.276 -0.578,0.674 -0.634,1.12 -0.055,0.446 0.066,0.887 0.342,1.24 l 1.746,2.239 c 0.551,0.706 1.649,0.847 2.361,0.292 l 2.084,-1.625 c 0.077,-0.057 0.174,-0.089 0.272,-0.089 z m -0.007,-1.605 c 0.26,0 0.515,0.089 0.719,0.251 0.885,0.703 1.869,1.26 2.925,1.656 0.502,0.19 0.805,0.693 0.741,1.224 l -0.392,3.167 c -0.016,0.129 0.1,0.277 0.229,0.293 l 2.817,0.348 c 0.135,0.006 0.276,-0.097 0.293,-0.229 l 0.391,-3.165 c 0.066,-0.533 0.484,-0.947 1.017,-1.007 1.12,-0.127 2.21,-0.429 3.239,-0.894 0.475,-0.217 1.067,-0.072 1.39,0.342 l 1.961,2.514 c 0.044,0.057 0.104,0.091 0.175,0.1 0.09,-0.002 0.146,-0.017 0.193,-0.053 l 2.238,-1.745 c 0.114,-0.089 0.134,-0.255 0.045,-0.369 l -1.961,-2.514 c -0.33,-0.424 -0.326,-1.012 0.008,-1.432 0.701,-0.882 1.259,-1.866 1.656,-2.923 0.185,-0.492 0.694,-0.807 1.224,-0.741 l 3.167,0.392 c 0.097,10e-4 0.148,-0.018 0.194,-0.054 0.054,-0.042 0.091,-0.107 0.099,-0.174 l 0.348,-2.817 c 0.016,-0.132 -0.098,-0.277 -0.23,-0.294 l -3.165,-0.392 c -0.533,-0.064 -0.947,-0.483 -1.007,-1.018 -0.128,-1.12 -0.429,-2.21 -0.894,-3.238 -0.222,-0.487 -0.081,-1.058 0.342,-1.388 l 2.514,-1.96 c 0.114,-0.089 0.134,-0.255 0.045,-0.369 l -1.746,-2.238 c -0.074,-0.097 -0.193,-0.182 -0.369,-0.046 l -2.514,1.961 c -0.407,0.317 -1.025,0.315 -1.43,-0.006 -0.883,-0.701 -1.867,-1.259 -2.925,-1.657 -0.503,-0.19 -0.808,-0.693 -0.741,-1.225 l 0.392,-3.165 c 0.016,-0.131 -0.098,-0.277 -0.229,-0.293 L 95.3,101.176 c -0.17,-0.015 -0.276,0.097 -0.293,0.228 l -0.392,3.167 c -0.065,0.532 -0.483,0.946 -1.017,1.007 -1.122,0.128 -2.212,0.429 -3.239,0.894 -0.479,0.217 -1.067,0.072 -1.39,-0.342 l -1.962,-2.515 c -0.044,-0.056 -0.104,-0.091 -0.175,-0.1 -0.091,0.002 -0.146,0.017 -0.193,0.054 l -2.239,1.746 c -0.113,0.089 -0.134,0.255 -0.045,0.369 l 1.96,2.514 c 0.33,0.422 0.327,1.011 -0.007,1.431 -0.702,0.884 -1.259,1.868 -1.656,2.924 -0.186,0.492 -0.699,0.806 -1.224,0.741 l -3.167,-0.391 c -0.081,0.005 -0.148,0.018 -0.193,0.053 -0.054,0.042 -0.091,0.108 -0.1,0.176 l -0.347,2.816 c -0.016,0.132 0.097,0.277 0.23,0.294 0.026,0.003 0.051,0.009 0.076,0.016 l 2.596,0.798 c 0.289,0.045 0.546,0.197 0.728,0.429 0.13,0.167 0.212,0.367 0.237,0.578 0.072,0.633 0.392,1.118 0.762,1.68 0.232,0.353 0.473,0.718 0.667,1.146 0.221,0.488 0.08,1.059 -0.342,1.389 l -2.515,1.961 c -0.113,0.089 -0.134,0.255 -0.045,0.369 l 1.746,2.238 c 0.074,0.096 0.191,0.183 0.368,0.046 l 2.514,-1.961 c 0.205,-0.162 0.458,-0.249 0.714,-0.249 z"
           id="path44" /></g><g
         id="g46"><path
           style="fill:#4e4e4e"
           inkscape:connector-curvature="0"
           d="m 94.855,123.937 c -2.347,0 -4.517,-1.058 -5.955,-2.902 -1.237,-1.586 -1.782,-3.562 -1.534,-5.564 0.247,-2.001 1.257,-3.785 2.844,-5.022 1.335,-1.042 2.937,-1.592 4.631,-1.592 2.347,0 4.518,1.057 5.956,2.901 2.557,3.28 1.97,8.029 -1.309,10.587 -1.337,1.041 -2.939,1.592 -4.633,1.592 z M 94.84,109.751 c -1.493,0 -2.904,0.485 -4.081,1.403 -1.398,1.09 -2.288,2.663 -2.506,4.427 -0.218,1.765 0.262,3.506 1.353,4.904 1.267,1.625 3.181,2.557 5.25,2.557 1.493,0 2.905,-0.485 4.082,-1.403 2.89,-2.255 3.408,-6.441 1.153,-9.332 -1.268,-1.624 -3.182,-2.556 -5.251,-2.556 z m 0.014,12.767 0,0 c -1.905,0 -3.667,-0.859 -4.835,-2.355 -1.004,-1.288 -1.447,-2.892 -1.246,-4.517 0.201,-1.625 1.021,-3.073 2.309,-4.077 1.084,-0.846 2.384,-1.293 3.76,-1.293 1.905,0 3.667,0.859 4.835,2.355 2.076,2.662 1.6,6.518 -1.063,8.594 -1.085,0.846 -2.385,1.293 -3.76,1.293 z M 94.841,111.17 c -1.175,0 -2.284,0.382 -3.21,1.104 -1.099,0.858 -1.8,2.094 -1.971,3.482 -0.171,1.388 0.207,2.758 1.064,3.858 0.997,1.278 2.502,2.011 4.13,2.011 1.174,0 2.284,-0.382 3.21,-1.104 2.273,-1.774 2.681,-5.066 0.907,-7.34 -0.997,-1.278 -2.502,-2.011 -4.13,-2.011 z"
           id="path48" /></g></g></g></svg>