<?xml version="1.0" encoding="UTF-8" standalone="no"?>
<!-- Generator: Adobe Illustrator 17.0.0, SVG Export Plug-In . SVG Version: 6.00 Build 0)  -->

<svg
   xmlns:dc="http://purl.org/dc/elements/1.1/"
   xmlns:cc="http://creativecommons.org/ns#"
   xmlns:rdf="http://www.w3.org/1999/02/22-rdf-syntax-ns#"
   xmlns:svg="http://www.w3.org/2000/svg"
   xmlns="http://www.w3.org/2000/svg"
   xmlns:sodipodi="http://sodipodi.sourceforge.net/DTD/sodipodi-0.dtd"
   xmlns:inkscape="http://www.inkscape.org/namespaces/inkscape"
   version="1.1"
   id="Слой_1"
   x="0px"
   y="0px"
   width="160.29166"
   height="72.435684"
   viewBox="0 0 160.29166 72.435684"
   enable-background="new 0 0 169.512 100.61"
   xml:space="preserve"
   inkscape:version="0.91 r13725"
   sodipodi:docname="aqua.svg"><metadata
     id="metadata113"><rdf:RDF><cc:Work
         rdf:about=""><dc:format>image/svg+xml</dc:format><dc:type
           rdf:resource="http://purl.org/dc/dcmitype/StillImage" /><dc:title></dc:title></cc:Work></rdf:RDF></metadata><defs
     id="defs111" /><sodipodi:namedview
     pagecolor="#ffffff"
     bordercolor="#666666"
     borderopacity="1"
     objecttolerance="10"
     gridtolerance="10"
     guidetolerance="10"
     inkscape:pageopacity="0"
     inkscape:pageshadow="2"
     inkscape:window-width="1440"
     inkscape:window-height="838"
     id="namedview109"
     showgrid="false"
     fit-margin-top="0"
     fit-margin-left="0"
     fit-margin-right="0"
     fit-margin-bottom="0"
     inkscape:zoom="2.2417293"
     inkscape:cx="81.493983"
     inkscape:cy="39.634"
     inkscape:window-x="-8"
     inkscape:window-y="-8"
     inkscape:window-maximized="1"
     inkscape:current-layer="Слой_1" /><path
     d="m 137.70889,1.416537 c 0,0.238306 -0.19024,0.433655 -0.42956,0.439792 L 85.520993,3.028424 C 85.12109,3.035624 45.7434,3.715726 41.802665,4.100287 37.925342,4.478712 28.96178,8.990154 28.871776,9.035155 28.652904,9.131295 9.2468553,17.573244 4.9409907,19.68322 0.48477931,21.865812 0.88263701,25.938485 0.88775091,25.978373 l 0.00307,9.777687 c 0,0.242396 -0.1963719,0.439791 -0.4397913,0.439791 -0.2434194,0 -0.4397914,-0.196372 -0.4397914,-0.439791 l 0,-9.728594 c 0,0 -0.4622923,-4.681221 4.54314689,-7.132802 C 8.8786573,16.776506 28.303116,8.326375 28.498465,8.241485 28.849276,8.062501 37.677831,3.620608 41.717775,3.226841 45.693284,2.838188 83.880469,2.178501 85.503606,2.150887 L 137.25989,0.978792 c 0.2424,-0.0051 0.44389,0.187167 0.449,0.429563 0,0.002 0,0.0051 0,0.0082 z"
     id="path3"
     inkscape:connector-curvature="0"
     style="fill:#ffffff" /><path
     d="m 148.06035,1.758143 c 0,0.969586 -0.78856,1.758142 -1.75814,1.758142 l -7.71476,0 c -0.96959,0 -1.75814,-0.788556 -1.75814,-1.758142 C 136.82931,0.788556 137.61786,0 138.58745,0 l 7.71476,0 c 0.96958,0.001 1.75814,0.789579 1.75814,1.758143 z m -10.35146,0 c 0,0.484793 0.39377,0.87856 0.87856,0.87856 l 7.71476,0 c 0.48479,0 0.87856,-0.393767 0.87856,-0.87856 0,-0.484794 -0.39377,-0.87856 -0.87856,-0.87856 l -7.71476,0 c -0.48479,0 -0.87856,0.393766 -0.87856,0.87856 z"
     id="path5"
     inkscape:connector-curvature="0"
     style="fill:#ffffff" /><path
     d="m 160.26712,10.792275 c 0,3.389462 -1.19051,5.533189 -4.1095,7.401791 -2.41476,1.545406 -5.09851,1.540292 -7.69328,1.535179 l -7.38747,-10e-4 c -0.24239,0 -0.43979,-0.196372 -0.43979,-0.439791 0,-0.242397 0.19637,-0.439792 0.43979,-0.439792 l 7.38952,10e-4 c 2.58147,0.0051 5.02078,0.01023 7.21769,-1.396082 2.22351,-1.422674 3.70345,-3.100018 3.70345,-6.661305 0,-3.874255 -1.18027,-6.375952 -3.7147,-7.87431 -2.01179,-1.187437 -4.68326,-1.063682 -4.70986,-1.061636 l -3.34241,0.001 c -0.2424,0 -0.43979,-0.196371 -0.43979,-0.439791 0,-0.242396 0.19637,-0.439791 0.43979,-0.439791 l 3.31991,0 c 0.0972,-0.0061 2.94251,-0.137051 5.18034,1.184368 2.79011,1.648706 4.14631,4.471553 4.14631,8.630138 z"
     id="path7"
     inkscape:connector-curvature="0"
     style="fill:#ffffff" /><path
     d="m 131.26339,3.350597 0,0 c 0,0.0082 -10e-4,0.0358 -10e-4,0.045 l 10e-4,4.821341 c 0,0.691393 -0.23319,1.246757 -0.69446,1.648706 -0.98595,0.863219 -2.66227,0.651505 -2.73387,0.641277 l -9.9986,0.03068 c -0.15035,10e-4 -0.29047,-0.07466 -0.37127,-0.201485 -1.62723,-2.522153 -5.1159,-2.961944 -5.15067,-2.966035 l -51.804358,0.0031 c -0.112505,0.0031 -1.222211,0.01432 -1.862466,-0.608548 -0.570706,-0.555365 -0.565592,-1.570976 0.01023,-2.088498 0.651505,-0.586047 1.772462,-0.486839 1.89724,-0.473543 l 52.005844,-0.002 c 3.16445,0 5.29488,-2.729775 5.31533,-2.75739 0.0828,-0.108413 0.21172,-0.171825 0.34877,-0.171825 l 9.76644,0 c 1.27948,0 2.2102,0.299672 2.76557,0.890833 0.46945,0.497067 0.50627,1.035044 0.50627,1.18846 z m -13.19579,6.307426 9.82576,-0.02557 c 0.43263,0.05216 1.53109,0.06955 2.0977,-0.429563 0.26388,-0.232169 0.39275,-0.554342 0.39275,-0.986974 l 0,-4.84691 10e-4,-0.01841 c 0,-0.03068 -0.007,-0.311945 -0.26694,-0.588094 -0.26388,-0.280239 -0.84686,-0.613662 -2.12634,-0.613662 l -9.5578,0 c -0.5615,0.657642 -2.73182,2.930238 -5.87172,2.930238 l -52.051868,0 c -0.263875,-0.02455 -0.959359,-0.02557 -1.264145,0.251601 -0.06443,0.05932 -0.15137,0.162621 -0.15137,0.383539 0,0.175917 0.05318,0.310923 0.167735,0.421382 0.320127,0.311945 1.017656,0.365129 1.237552,0.358992 l 51.867766,0 c 0.20558,0.02148 3.8088,0.477634 5.6999,3.16343 z"
     id="path9"
     inkscape:connector-curvature="0"
     style="fill:#ffffff" /><path
     d="m 154.35959,10.098837 c 0,2.760458 -2.13145,3.671746 -3.25854,3.767887 l -79.9193,0.002 -2.437262,1.493245 c 0.268988,0.337515 0.55025,0.871401 0.55025,1.632342 0,0.0041 0,0.0082 0,0.01227 -0.0092,2.202025 -2.926146,2.697046 -3.049902,2.717502 -0.239328,0.03887 -0.464338,-0.123755 -0.503203,-0.363084 -0.03682,-0.235237 0.123755,-0.464338 0.363084,-0.504226 0.02352,-0.0041 2.305325,-0.395812 2.311461,-1.85326 0,-0.0031 0,-0.0061 0,-0.0082 0,-0.924585 -0.595252,-1.322442 -0.620822,-1.338807 -0.1258,-0.08182 -0.190235,-0.222964 -0.201485,-0.376379 0.002,-0.150348 0.07875,-0.29149 0.207622,-0.370243 l 3.027401,-1.855306 c 0.06955,-0.04193 0.148302,-0.06443 0.230123,-0.06443 l 80.006233,0 c 0.0614,-0.0072 2.41681,-0.257738 2.41681,-2.890349 0,-2.486356 -2.01793,-2.576359 -2.24805,-2.578405 l -19.23627,0 c -0.2424,0 -0.43979,-0.196372 -0.43979,-0.439791 0,-0.242397 0.19637,-0.439792 0.43979,-0.439792 l 19.23831,0 c 1.07903,-10e-4 3.12354,0.722076 3.12354,3.456965 z"
     id="path11"
     inkscape:connector-curvature="0"
     style="fill:#ffffff" /><path
     d="m 115.73569,10.098837 c 0,0.242396 -0.19638,0.439791 -0.4398,0.439791 l -24.414556,0 c -0.242397,0 -0.439791,-0.196372 -0.439791,-0.439791 0,-0.242397 0.196372,-0.439792 0.439791,-0.439792 l 24.414556,0 c 0.2424,0 0.4398,0.196372 0.4398,0.439792 z"
     id="path13"
     inkscape:connector-curvature="0"
     style="fill:#ffffff" /><path
     d="m 146.98542,10.098837 c 0,0.242396 -0.19637,0.439791 -0.43979,0.439791 l -14.4538,0 c -0.24239,0 -0.43979,-0.196372 -0.43979,-0.439791 0,-0.242397 0.19637,-0.439792 0.43979,-0.439792 l 14.4538,0 c 0.24342,0 0.43979,0.196372 0.43979,0.439792 z"
     id="path15"
     inkscape:connector-curvature="0"
     style="fill:#ffffff" /><path
     d="m 87.80484,6.934385 0,3.164452 c 0,0.242396 -0.196372,0.439791 -0.439791,0.439791 l -33.593923,0 c -0.07057,-0.0041 -4.20461,-0.272057 -7.230988,0.390699 -3.062175,0.669914 -6.422999,1.829736 -6.45675,1.840987 -0.229101,0.07978 -0.47968,-0.04193 -0.559456,-0.272057 -0.07978,-0.230124 0.04193,-0.47968 0.271034,-0.559456 0.03375,-0.01125 3.442646,-1.187437 6.556982,-1.868602 3.150134,-0.689347 7.273945,-0.421381 7.447816,-0.410131 l 33.125493,-0.001 0,-2.72466 c 0,-0.242397 0.196372,-0.439792 0.439792,-0.439792 0.243419,0 0.439791,0.197395 0.439791,0.439792 z"
     id="path17"
     inkscape:connector-curvature="0"
     style="fill:#ffffff" /><path
     d="m 36.657106,13.72149 c 0,0.16978 -0.09921,0.331378 -0.264897,0.402972 -0.06341,0.02762 -6.465956,2.793186 -16.535132,6.815743 -1.007429,0.401949 -1.924855,0.75685 -2.764549,1.081069 -4.006193,1.546429 -6.212309,2.398397 -8.0021567,4.576898 -1.264145,1.53927 -1.481995,7.424292 -1.462562,9.555745 0,0.002 0,0.0031 0,0.0041 0,0.241374 -0.193304,0.436724 -0.434678,0.439792 -0.242396,0.002 -0.441837,-0.192281 -0.443882,-0.434678 -0.0031,-0.324218 -0.061366,-8.023635 1.662002,-10.12236 1.9361047,-2.356464 4.2189287,-3.239115 8.3642177,-4.838728 0.837649,-0.323195 1.750983,-0.676051 2.755344,-1.076977 10.057926,-4.018466 16.449219,-6.778924 16.511608,-6.806538 0.222964,-0.09614 0.481725,0.0061 0.577865,0.2291 0.02557,0.05625 0.03682,0.115573 0.03682,0.173871 z"
     id="path19"
     inkscape:connector-curvature="0"
     style="fill:#ffffff" /><path
     d="m 57.921529,21.631598 c 0,0.242397 -0.196372,0.439791 -0.439791,0.439791 l -10.351461,0 c -2.701137,0 -5.417616,0.806966 -9.373692,2.786027 -1.27335,0.637186 -3.446737,1.76428 -5.747971,2.957853 -4.095174,2.124294 -8.736506,4.532919 -10.193955,5.157832 -1.745869,0.748668 -1.783711,2.3626 -1.784734,2.431126 l 0,1.303009 c 0,0.242397 -0.196372,0.439792 -0.439792,0.439792 -0.243419,0 -0.439791,-0.196372 -0.439791,-0.439792 l 0,-1.305055 c 0,-0.09205 0.02659,-2.254186 2.317598,-3.236046 1.427788,-0.61264 6.053779,-3.013082 10.135657,-5.130217 2.304302,-1.195619 4.479735,-2.324758 5.759221,-2.963989 2.989558,-1.494268 6.242991,-2.878077 9.767459,-2.878077 l 10.351461,0 c 0.243419,-0.001 0.439791,0.195349 0.439791,0.437746 z"
     id="path21"
     inkscape:connector-curvature="0"
     style="fill:#ffffff" /><path
     d="m 44.868931,8.40922 c 0,0.178985 -0.0061,0.363083 -0.01739,0.554341 C 44.836201,9.205958 44.628577,9.390057 44.38618,9.375738 44.143784,9.360398 43.954571,9.151751 43.974004,8.910377 44.237879,4.602468 41.086723,4.227111 40.95274,4.213815 40.711366,4.189265 40.533404,3.970396 40.559996,3.73209 c 0.02455,-0.241374 0.240351,-0.41729 0.481725,-0.392744 0.03989,0.0031 3.827207,0.44286 3.827207,5.069874 z"
     id="path23"
     inkscape:connector-curvature="0"
     style="fill:#ffffff" /><path
     d="m 31.945202,30.86108 c 0,0.861172 -0.700598,1.56177 -1.562793,1.56177 -0.861173,0 -1.562794,-0.700598 -1.562794,-1.56177 0,-0.862196 0.700598,-1.562794 1.562794,-1.562794 0.861172,0 1.562793,0.700598 1.562793,1.562794 z m -2.246004,0 c 0,0.376379 0.306831,0.68321 0.683211,0.68321 0.377402,0 0.684233,-0.306831 0.684233,-0.68321 0,-0.377403 -0.306831,-0.684234 -0.684233,-0.684234 -0.377403,0 -0.683211,0.306831 -0.683211,0.684234 z"
     id="path25"
     inkscape:connector-curvature="0"
     style="fill:#ffffff" /><path
     d="m 66.613034,15.576796 0,22.265716 c 0,0.242396 -0.196372,0.439791 -0.439792,0.439791 -0.242396,0 -0.439791,-0.196372 -0.439791,-0.439791 l 0,-21.825925 -7.812944,0 0,21.436249 c 0,0.242397 -0.196372,0.439791 -0.439792,0.439791 -0.243419,0 -0.439791,-0.196372 -0.439791,-0.439791 l 0,-21.87604 c 0,-0.242397 0.196372,-0.439791 0.439791,-0.439791 l 8.691505,0 c 0.244442,0 0.440814,0.197394 0.440814,0.439791 z"
     id="path27"
     inkscape:connector-curvature="0"
     style="fill:#ffffff" /><path
     d="m 128.24826,19.349797 c 0,0.242396 -0.19637,0.439791 -0.43979,0.439791 l -61.195436,0 0,1.843033 c 0,0.242396 -0.196372,0.439791 -0.439792,0.439791 -0.242396,0 -0.439791,-0.196372 -0.439791,-0.439791 l 0,-2.281801 c 0,-0.242397 0.196372,-0.439792 0.439791,-0.439792 l 61.635228,0 c 0.24342,0 0.43979,0.196372 0.43979,0.438769 z"
     id="path29"
     inkscape:connector-curvature="0"
     style="fill:#ffffff" /><path
     d="m 112.36668,16.237506 0,0.388653 c 0,1.157776 -0.94197,2.099748 -2.10077,2.099748 l -12.888964,0 c -1.157772,0 -2.100767,-0.941972 -2.100767,-2.099748 l 0,-0.388653 c 0,-1.157776 0.941972,-2.100771 2.100767,-2.100771 l 12.888964,0 c 1.15778,0 2.10077,0.941972 2.10077,2.100771 z m -16.211941,0.388653 c 0,0.674006 0.548205,1.221188 1.221187,1.221188 l 12.888964,0 c 0.674,0 1.22118,-0.547182 1.22118,-1.221188 l 0,-0.388653 c 0,-0.674006 -0.5482,-1.221188 -1.22118,-1.221188 l -12.887944,0 c -0.674002,0 -1.221184,0.548205 -1.221184,1.221188 l 0,0.388653 z"
     id="path31"
     inkscape:connector-curvature="0"
     style="fill:#ffffff" /><path
     d="m 109.53361,15.284284 0,2.246004 c 0,0.242397 -0.19638,0.439791 -0.4398,0.439791 l -9.717344,0 c -0.2424,0 -0.43979,-0.196372 -0.43979,-0.439791 l 0,-2.246004 c 0,-0.242397 0.19637,-0.439792 0.43979,-0.439792 l 9.717344,0 c 0.24342,0 0.4398,0.196372 0.4398,0.439792 z m -0.87856,1.806213 0,-1.367445 -8.837774,0 0,1.367445 8.837774,0 z"
     id="path33"
     inkscape:connector-curvature="0"
     style="fill:#ffffff" /><path
     d="m 159.70562,35.353088 0,1.75712 c 0,0.242397 -0.19638,0.439791 -0.4398,0.439791 -0.24341,0 -0.43979,-0.196372 -0.43979,-0.439791 l 0,-1.758143 c 0,-1.838941 -0.24955,-3.671746 -3.26263,-5.870703 -2.69705,-1.96781 -7.71885,-2.289983 -11.19934,-1.96781 -1.28256,0.118641 -2.48431,0.356946 -3.56845,0.70878 -1.99133,0.644345 -3.65743,1.671207 -5.0934,3.138882 -2.17952,2.226572 -2.21839,4.709859 -2.21839,4.734405 -0.001,0.242397 -0.19841,0.438769 -0.44081,0.437746 -0.2424,-0.001 -0.43877,-0.196372 -0.43877,-0.438768 0,-0.115573 0.0276,-2.854553 2.46897,-5.348068 1.53825,-1.571998 3.32094,-2.671476 5.45034,-3.360824 1.14755,-0.371266 2.4117,-0.622867 3.75869,-0.747645 3.6339,-0.335469 8.90321,0.02045 11.79868,2.133499 3.34548,2.440331 3.6247,4.589172 3.6247,6.581529 z"
     id="path35"
     inkscape:connector-curvature="0"
     style="fill:#ffffff" /><path
     d="m 157.14255,34.76704 0,1.978039 c 0,0.242396 -0.19637,0.439791 -0.43979,0.439791 -0.2424,0 -0.43979,-0.196372 -0.43979,-0.439791 l 0,-1.978039 c -0.002,-0.185121 -0.11864,-4.583034 -7.02541,-5.64467 -4.02767,-0.618777 -8.5115,0.374334 -11.4223,2.531357 -1.44313,1.068795 -2.33192,2.31453 -2.50477,3.506057 -0.0348,0.239329 -0.25774,0.407063 -0.49809,0.372289 -0.23933,-0.03477 -0.40297,-0.257738 -0.37229,-0.498089 0.20558,-1.425743 1.21812,-2.877054 2.85149,-4.086992 3.13786,-2.324757 7.7659,-3.35571 12.07994,-2.692955 7.68203,1.179255 7.77101,6.459819 7.77101,6.513003 z"
     id="path37"
     inkscape:connector-curvature="0"
     style="fill:#ffffff" /><path
     d="m 136.41508,35.316268 0,1.83076 c 0,0.545136 -0.44388,0.989019 -0.98901,0.989019 -0.54514,0 -0.98902,-0.443883 -0.98902,-0.989019 l 0,-1.83076 c 0,-0.545136 0.44388,-0.989019 0.98902,-0.989019 0.54513,0 0.98901,0.443883 0.98901,0.989019 z m -1.09947,1.83076 c 0,0.06034 0.0491,0.109436 0.10943,0.109436 0.0603,0 0.10944,-0.04909 0.10944,-0.109436 l 0,-1.83076 c 0,-0.06034 -0.0491,-0.109436 -0.10944,-0.109436 -0.0603,0 -0.10943,0.04909 -0.10943,0.109436 l 0,1.83076 z"
     id="path39"
     inkscape:connector-curvature="0"
     style="fill:#ffffff" /><path
     d="m 133.48485,36.182555 c 0,1.076977 -0.87652,1.952469 -1.9535,1.952469 l -0.65968,0 c -1.07698,0 -1.95247,-0.876514 -1.95247,-1.952469 0,-1.076977 0.87651,-1.952469 1.95247,-1.952469 l 0.65968,0 c 1.07698,0 1.9535,0.875492 1.9535,1.952469 z m -3.68709,0 c 0,0.592184 0.48172,1.073909 1.07391,1.073909 l 0.65968,0 c 0.59321,0 1.07494,-0.481725 1.07494,-1.073909 0,-0.592184 -0.48173,-1.073909 -1.07494,-1.073909 l -0.65968,0 c -0.59219,0 -1.07391,0.481725 -1.07391,1.073909 z"
     id="path41"
     inkscape:connector-curvature="0"
     style="fill:#ffffff" /><path
     d="m 146.98542,15.039842 c 0,0.143187 -0.0706,0.28433 -0.19944,0.368197 -0.045,0.02966 -4.4961,2.947625 -8.03284,6.532436 -3.55413,3.602198 -5.80832,6.385156 -5.82979,6.412771 -0.11762,0.145234 -0.31297,0.200463 -0.48889,0.138074 -0.17592,-0.06137 -0.29251,-0.228078 -0.29251,-0.414222 l 0,-13.553756 c -0.6331,0.61264 -1.55666,1.83076 -1.96065,3.96835 -0.28331,1.499382 -0.85095,2.506811 -1.68553,2.992627 -0.41831,0.243419 -0.8264,0.306831 -1.13936,0.304786 l 0,14.954951 c 0,0.242397 -0.19638,0.439791 -0.4398,0.439791 -0.24239,0 -0.43979,-0.196372 -0.43979,-0.439791 l 0,-15.454063 c 0,-0.142166 0.0685,-0.275126 0.1841,-0.35797 0.11557,-0.08284 0.26285,-0.104323 0.39786,-0.0583 0.0153,0.0041 0.49502,0.150347 1.00947,-0.157507 0.5881,-0.351833 1.01971,-1.178231 1.24881,-2.388169 0.71389,-3.774024 2.95785,-5.038168 3.05297,-5.089306 0.13603,-0.07466 0.30171,-0.07159 0.43467,0.0082 0.13296,0.07875 0.21479,0.222964 0.21479,0.377402 l 0,13.244879 c 0.95833,-1.123002 2.75023,-3.15627 5.10669,-5.544439 3.60527,-3.653337 8.13307,-6.62244 8.17807,-6.651077 0.20353,-0.132961 0.47559,-0.07569 0.60855,0.127846 0.0501,0.07262 0.0726,0.155461 0.0726,0.238306 z"
     id="path43"
     inkscape:connector-curvature="0"
     style="fill:#ffffff" /><path
     d="m 139.75954,23.701686 c 0,0.193303 -0.0644,1.747914 -1.97394,3.255478 -0.85299,0.674006 -1.68246,0.993111 -2.41374,1.27335 -0.90106,0.346719 -1.55154,0.597298 -1.93304,1.360285 -0.10841,0.21785 -0.37229,0.305808 -0.58911,0.196372 -0.21785,-0.109437 -0.30581,-0.373312 -0.19638,-0.589116 0.53389,-1.068796 1.44211,-1.41756 2.40351,-1.787803 0.70572,-0.272057 1.43597,-0.552296 2.18464,-1.143458 1.63132,-1.287668 1.65075,-2.544653 1.6395,-2.575336 l 0,-2.921033 c 0,-0.242397 0.19638,-0.439791 0.4398,-0.439791 0.24341,0 0.43979,0.196372 0.43979,0.439791 l 0,2.911828 c -0.001,0.0031 -0.001,0.01023 -0.001,0.01943 z"
     id="path45"
     inkscape:connector-curvature="0"
     style="fill:#ffffff" /><path
     d="m 141.29063,27.74572 c 0,0.04398 -0.006,0.08898 -0.0204,0.132961 -0.0736,0.230123 -0.32013,0.358992 -0.55025,0.286375 -0.0266,-0.0082 -0.97777,-0.287398 -2.3309,0.01023 -1.06368,0.233192 -1.76428,0.516499 -2.05577,0.647414 -0.21376,0.603435 -0.92151,2.286915 -2.15907,2.232708 -0.24342,-0.01125 -0.44388,-0.237283 -0.42035,-0.458201 0.0102,-0.242397 0.21478,-0.430587 0.4582,-0.420359 0.58911,0.02557 1.1588,-1.201755 1.34392,-1.800076 0.0337,-0.111482 0.11148,-0.204554 0.21376,-0.258761 0.0358,-0.01841 0.87753,-0.460247 2.43214,-0.801852 1.60985,-0.352856 2.73694,-0.0041 2.78399,0.01023 0.18614,0.06034 0.30478,0.232168 0.30478,0.419335 z"
     id="path47"
     inkscape:connector-curvature="0"
     style="fill:#ffffff" /><path
     d="m 145.81435,13.427955 c 0,0.149325 -0.0757,0.294558 -0.21274,0.377402 -6.58664,3.961191 -10.70534,9.098568 -10.74625,9.148683 -0.1166,0.146256 -0.31195,0.203532 -0.48889,0.142165 -0.17591,-0.06137 -0.29455,-0.228077 -0.29455,-0.415244 l 0,-9.057657 c 0,-0.242396 0.19637,-0.439791 0.43979,-0.439791 0.24342,0 0.43979,0.196372 0.43979,0.439791 l 0,7.873288 c 1.51472,-1.687571 5.1476,-5.407388 10.19805,-8.445016 0.20864,-0.125801 0.47865,-0.0583 0.60343,0.150347 0.0409,0.07159 0.0614,0.149324 0.0614,0.226032 z"
     id="path49"
     inkscape:connector-curvature="0"
     style="fill:#ffffff" /><path
     d="m 140.05308,17.530288 c 0,0.242397 -0.19637,0.439791 -0.43979,0.439791 l -5.1026,0 c -0.2424,0 -0.4398,-0.196372 -0.4398,-0.439791 0,-0.24342 0.19638,-0.439791 0.4398,-0.439791 l 5.1026,0 c 0.24239,0 0.43979,0.197394 0.43979,0.439791 z"
     id="path51"
     inkscape:connector-curvature="0"
     style="fill:#ffffff" /><path
     d="m 142.88411,15.284284 c 0,0.242396 -0.19637,0.439791 -0.43979,0.439791 l -4.9226,0 c -0.24239,0 -0.43979,-0.196372 -0.43979,-0.439791 0,-0.24342 0.19637,-0.439792 0.43979,-0.439792 l 4.9226,0 c 0.24342,0 0.43979,0.196372 0.43979,0.439792 z"
     id="path53"
     inkscape:connector-curvature="0"
     style="fill:#ffffff" /><path
     d="m 137.73241,71.019144 c 0,0.0031 0,0.0061 0,0.01023 -0.006,0.242397 -0.2066,0.434678 -0.44899,0.429564 L 85.525085,70.28684 C 83.903993,70.259225 45.717831,69.599538 41.742321,69.210885 37.702378,68.817119 28.874845,64.374203 28.500511,64.184991 28.323571,64.105215 9.0392323,55.386095 4.605522,53.554313 -0.11251869,51.604913 0.03987411,46.446058 0.03680581,46.391851 l 0,-12.384729 c 0,-0.242397 0.1963719,-0.439791 0.4397913,-0.439791 0.2423966,0 0.4397914,0.196372 0.4397914,0.439791 l 0,12.402116 c -0.00818,0.202509 -0.1217097,4.619855 4.02562499,6.331973 4.4480288,1.836896 23.7446415,10.563174 23.9389675,10.651133 0.107391,0.05421 9.071975,4.564625 12.948276,4.944073 3.940735,0.384561 43.318425,1.064704 43.71526,1.071863 l 51.760373,1.172095 c 0.23729,0.0051 0.42752,0.200463 0.42752,0.438769 z"
     id="path55"
     inkscape:connector-curvature="0"
     style="fill:#ffffff" /><path
     d="m 148.0849,70.677538 c 0,0.969587 -0.78856,1.758143 -1.75815,1.758143 l -7.71475,0 c -0.96959,0 -1.75815,-0.788556 -1.75815,-1.758143 0,-0.969586 0.78856,-1.758142 1.75815,-1.758142 l 7.71475,0 c 0.96959,0 1.75815,0.788556 1.75815,1.758142 z m -10.35249,0 c 0,0.484794 0.39377,0.87856 0.87856,0.87856 l 7.71476,0 c 0.48479,0 0.87856,-0.393766 0.87856,-0.87856 0,-0.484793 -0.39377,-0.87856 -0.87856,-0.87856 l -7.71476,0 c -0.48377,0 -0.87856,0.393767 -0.87856,0.87856 z"
     id="path57"
     inkscape:connector-curvature="0"
     style="fill:#ffffff" /><path
     d="m 160.29166,61.644429 c 0,4.158585 -1.35721,6.981432 -4.14733,8.631161 -2.23782,1.321419 -5.08215,1.189482 -5.20284,1.183345 l -3.29741,0.001 c -0.24239,0 -0.43979,-0.196372 -0.43979,-0.439791 0,-0.242397 0.19637,-0.439792 0.43979,-0.439792 l 3.32094,0 c 0.0491,0.002 2.72773,0.122733 4.73236,-1.061636 2.53442,-1.498359 3.71572,-4.000055 3.71572,-7.87431 0,-3.561288 -1.48097,-5.237609 -3.70345,-6.661305 -2.19793,-1.40631 -4.63622,-1.401196 -7.21769,-1.396082 l -7.3885,0.001 c -0.24239,0 -0.43979,-0.196372 -0.43979,-0.439792 0,-0.242396 0.19638,-0.439791 0.43979,-0.439791 l 7.38748,-10e-4 c 2.59477,-0.0051 5.27852,-0.01023 7.69328,1.535179 2.91796,1.868602 4.10744,4.012329 4.10744,7.401791 z"
     id="path59"
     inkscape:connector-curvature="0"
     style="fill:#ffffff" /><path
     d="m 131.28794,64.218742 -0.001,4.679176 c 0,10e-4 0,0.002 0,0.0031 0,0.174894 -0.0378,0.709803 -0.50525,1.205846 -0.55638,0.591162 -1.4871,0.890834 -2.76557,0.890834 l -9.76541,0 c -0.13194,0 -0.25672,-0.05932 -0.34058,-0.161598 -0.0215,-0.02557 -2.16419,-2.599883 -5.32352,-2.599883 l -52.052895,0 c -0.07978,0.01125 -1.19971,0.109436 -1.851214,-0.475588 -0.576843,-0.517522 -0.580934,-1.533133 -0.01023,-2.088498 0.639232,-0.622867 1.748938,-0.611617 1.873716,-0.608548 l 51.844243,0 0,0 c 0,-0.0031 3.48254,-0.455133 5.09954,-2.962967 0.0808,-0.126823 0.22092,-0.201486 0.37126,-0.201486 l 10.05691,0.02659 c 0.0123,-0.0061 1.68961,-0.217851 2.67556,0.645368 0.46025,0.401949 0.69447,0.95629 0.69447,1.647683 z m -12.83782,5.900364 9.56597,0 c 1.27949,0 1.86247,-0.334446 2.12532,-0.613663 0.25978,-0.276148 0.26694,-0.55741 0.26694,-0.588093 l 0,-4.697585 c 0,-0.431609 -0.12784,-0.754805 -0.39274,-0.986974 -0.56662,-0.498089 -1.66507,-0.481725 -2.04043,-0.433654 l -3.96323,0.0041 -5.9198,-0.02557 c -1.8911,2.685796 -5.49432,3.141952 -5.64979,3.160361 l -51.907652,0.0031 c -0.24751,-0.0051 -0.931744,0.05012 -1.249826,0.360015 -0.223986,0.218873 -0.228077,0.61264 -0.0133,0.804921 0.286376,0.257738 0.944018,0.281261 1.217097,0.252624 l 52.097901,-0.002 c 3.13274,0 5.30204,2.142705 5.86354,2.762504 z"
     id="path61"
     inkscape:connector-curvature="0"
     style="fill:#ffffff" /><path
     d="m 154.38312,62.337867 c 0,2.734889 -2.0435,3.456965 -3.12457,3.456965 l -19.23831,0 c -0.2424,0 -0.43979,-0.196372 -0.43979,-0.439792 0,-0.242396 0.19637,-0.439791 0.43979,-0.439791 l 19.23831,0 c 0.22808,-0.002 2.24601,-0.09307 2.24601,-2.578405 0,-2.633634 -2.35544,-2.88319 -2.45567,-2.892395 l -79.967372,0.002 c -0.0808,0 -0.160575,-0.0225 -0.230123,-0.06444 l -3.027401,-1.855306 c -0.126823,-0.07875 -0.2066,-0.215804 -0.209668,-0.365129 0,-0.0031 0,-0.0072 0,-0.01023 0,-0.146256 0.07262,-0.282284 0.193304,-0.364106 0.02148,-0.01534 0.636163,-0.464338 0.636163,-1.540292 0,-1.438016 -2.262368,-1.662003 -2.285892,-1.663025 -0.242397,-0.0225 -0.417291,-0.237283 -0.397858,-0.477634 0.0225,-0.241374 0.23626,-0.419336 0.477634,-0.397858 0.125801,0.01125 3.084676,0.307854 3.084676,2.538517 0,0.86015 -0.297626,1.452334 -0.571729,1.815417 l 2.45465,1.504496 79.882476,0 c 1.16391,0.09921 3.29537,1.010497 3.29537,3.770955 z"
     id="path63"
     inkscape:connector-curvature="0"
     style="fill:#ffffff" /><path
     d="m 115.76023,62.337867 c 0,0.242397 -0.19637,0.439791 -0.43979,0.439791 l -24.414559,0 c -0.242397,0 -0.439792,-0.196372 -0.439792,-0.439791 0,-0.242397 0.196372,-0.439791 0.439792,-0.439791 l 24.414559,0 c 0.2424,0 0.43979,0.197394 0.43979,0.439791 z"
     id="path65"
     inkscape:connector-curvature="0"
     style="fill:#ffffff" /><path
     d="m 147.00996,62.337867 c 0,0.242397 -0.19637,0.439791 -0.43979,0.439791 l -14.45379,0 c -0.2424,0 -0.43979,-0.196372 -0.43979,-0.439791 0,-0.242397 0.19637,-0.439791 0.43979,-0.439791 l 14.45379,0 c 0.24342,0 0.43979,0.197394 0.43979,0.439791 z"
     id="path67"
     inkscape:connector-curvature="0"
     style="fill:#ffffff" /><path
     d="m 87.829387,62.337867 0,3.164452 c 0,0.242397 -0.196372,0.439792 -0.439792,0.439792 -0.242396,0 -0.439791,-0.196372 -0.439791,-0.439792 l 0,-2.724661 -33.154131,0 c -0.03887,10e-4 -4.218929,0.02557 -7.383381,-0.405017 -3.770955,-0.511385 -7.871242,-2.20407 -8.044091,-2.275664 -0.222964,-0.09307 -0.330355,-0.348765 -0.237282,-0.574797 0.09307,-0.223987 0.349787,-0.330355 0.573774,-0.237283 0.04193,0.01739 4.169835,1.7203 7.825218,2.216344 3.103085,0.421381 7.22076,0.396835 7.261671,0.396835 l 33.598013,0 c 0.24342,0 0.439792,0.197394 0.439792,0.439791 z"
     id="path69"
     inkscape:connector-curvature="0"
     style="fill:#ffffff" /><path
     d="m 35.997419,58.351107 c 0,0.05727 -0.01125,0.114551 -0.03477,0.170803 -0.0941,0.223987 -0.351833,0.328309 -0.57582,0.234214 -0.05625,-0.02352 -5.77354,-2.426011 -15.832489,-6.444477 -1.00436,-0.400926 -1.918717,-0.753782 -2.755343,-1.076977 -4.14529,-1.600636 -6.428114,-2.481242 -8.3642177,-4.838728 -1.695754,-2.062928 -1.671207,-9.940307 -1.662002,-10.827049 0.002,-0.242397 0.200463,-0.437746 0.443882,-0.435701 0.241374,0.002 0.4357,0.198418 0.4357,0.439792 0,0.001 0,0.0031 0,0.0041 -0.02046,2.324757 0.198418,8.722187 1.462562,10.261457 1.7888257,2.177479 3.9959647,3.029446 8.0011337,4.575876 0.839695,0.324218 1.75712,0.679119 2.764549,1.081068 10.067131,4.021534 15.790555,6.426068 15.84783,6.450614 0.167735,0.07057 0.268989,0.233192 0.268989,0.405017 z"
     id="path71"
     inkscape:connector-curvature="0"
     style="fill:#ffffff" /><path
     d="m 57.946076,50.804083 c 0,0.242397 -0.196372,0.439792 -0.439792,0.439792 l -10.351461,0 c -3.524467,0 -6.776877,-1.383809 -9.766436,-2.878077 -1.278463,-0.639231 -3.451851,-1.767347 -5.754107,-2.961943 -4.083923,-2.119181 -8.71196,-4.520646 -10.140771,-5.132263 -2.291006,-0.98186 -2.317598,-3.14502 -2.317598,-3.236046 l 0,-1.46154 c 0,-0.242396 0.196372,-0.439791 0.439792,-0.439791 0.243419,0 0.439791,0.196372 0.439791,0.439791 l 0,1.46154 c 0.001,0.06546 0.03887,1.680412 1.784735,2.428057 1.458471,0.624913 6.102872,3.03456 10.200091,5.1609 2.298165,1.192551 4.469507,2.319644 5.741834,2.955807 3.957099,1.979061 6.672555,2.786027 9.373692,2.786027 l 10.351461,0 c 0.242397,-0.002 0.438769,0.19535 0.438769,0.437746 z"
     id="path73"
     inkscape:connector-curvature="0"
     style="fill:#ffffff" /><path
     d="m 44.893478,64.027484 c 0,4.628037 -3.78732,5.066806 -3.827208,5.070897 -0.241374,0.02455 -0.457178,-0.15137 -0.481725,-0.392744 -0.02864,-0.24342 0.15137,-0.456156 0.391721,-0.481725 0.143188,-0.01637 3.283094,-0.417291 3.022287,-4.696563 -0.0133,-0.231146 0.168758,-0.451042 0.412177,-0.46536 0.242397,-0.01432 0.451042,0.16978 0.465361,0.412176 0.01125,0.190235 0.01739,0.374334 0.01739,0.553319 z"
     id="path75"
     inkscape:connector-curvature="0"
     style="fill:#ffffff" /><path
     d="m 31.969749,41.575624 c 0,0.862196 -0.700598,1.562794 -1.562794,1.562794 -0.862195,0 -1.562793,-0.700598 -1.562793,-1.562794 0,-0.861173 0.700598,-1.56177 1.562793,-1.56177 0.861173,-0.001 1.562794,0.700597 1.562794,1.56177 z m -2.247027,0 c 0,0.377403 0.306831,0.684234 0.684233,0.684234 0.37638,0 0.683211,-0.306831 0.683211,-0.684234 0,-0.376379 -0.306831,-0.68321 -0.683211,-0.68321 -0.377402,0 -0.684233,0.306831 -0.684233,0.68321 z"
     id="path77"
     inkscape:connector-curvature="0"
     style="fill:#ffffff" /><path
     d="m 66.63758,34.593169 0,22.265716 c 0,0.242397 -0.196372,0.439791 -0.439791,0.439791 l -8.691505,0 c -0.242396,0 -0.439791,-0.196372 -0.439791,-0.439791 l 0,-21.875017 c 0,-0.242397 0.196372,-0.439791 0.439791,-0.439791 0.24342,0 0.439792,0.196371 0.439792,0.439791 l 0,21.436248 7.812944,0 0,-21.826947 c 0,-0.242396 0.196372,-0.439791 0.439792,-0.439791 0.242396,0 0.438768,0.197395 0.438768,0.439791 z"
     id="path79"
     inkscape:connector-curvature="0"
     style="fill:#ffffff" /><path
     d="m 128.27281,53.085884 c 0,0.242397 -0.19637,0.439792 -0.43979,0.439792 l -61.635231,0 c -0.242397,0 -0.439792,-0.196372 -0.439792,-0.439792 l 0,-2.281801 c 0,-0.242396 0.196372,-0.439791 0.439792,-0.439791 0.242396,0 0.439791,0.196372 0.439791,0.439791 l 0,1.843033 61.19646,0 c 0.2424,0 0.43877,0.196372 0.43877,0.438768 z"
     id="path81"
     inkscape:connector-curvature="0"
     style="fill:#ffffff" /><path
     d="m 112.3902,55.809522 0,0.388653 c 0,1.157777 -0.94197,2.100771 -2.10077,2.100771 l -12.888954,0 c -1.157779,0 -2.100773,-0.941972 -2.100773,-2.100771 l 0,-0.388653 c 0,-1.157776 0.941972,-2.099748 2.100773,-2.099748 l 12.888954,0 c 1.1588,0 2.10077,0.941972 2.10077,2.099748 z m -16.210914,0.389676 c 0,0.674006 0.548205,1.221188 1.22119,1.221188 l 12.888954,0 c 0.67401,0 1.22119,-0.548205 1.22119,-1.221188 l 0,-0.388653 c 0,-0.674006 -0.5482,-1.221188 -1.22119,-1.221188 l -12.888954,0 c -0.674008,0 -1.22119,0.547182 -1.22119,1.221188 l 0,0.388653 z"
     id="path83"
     inkscape:connector-curvature="0"
     style="fill:#ffffff" /><path
     d="m 109.55815,54.905393 0,2.246004 c 0,0.242397 -0.19637,0.439792 -0.43979,0.439792 l -9.716324,0 c -0.2424,0 -0.43979,-0.196372 -0.43979,-0.439792 l 0,-2.246004 c 0,-0.242396 0.19637,-0.439791 0.43979,-0.439791 l 9.716324,0 c 0.24342,0.001 0.43979,0.197395 0.43979,0.439791 z m -0.87856,1.807236 0,-1.367444 -8.837764,0 0,1.367444 8.837764,0 z"
     id="path85"
     inkscape:connector-curvature="0"
     style="fill:#ffffff" /><path
     d="m 159.73016,35.325473 0,1.758143 c 0,1.992357 -0.28024,4.141198 -3.62265,6.580506 -2.89546,2.113044 -8.1658,2.469991 -11.79868,2.133499 -1.34597,-0.125801 -2.61114,-0.376379 -3.75868,-0.747645 -2.12941,-0.69037 -3.91312,-1.788826 -5.45137,-3.360824 -2.44135,-2.493515 -2.46897,-5.232495 -2.46897,-5.348068 0,-0.242396 0.19637,-0.439791 0.43979,-0.439791 0.2424,0 0.43877,0.196372 0.43979,0.438769 l 0,0 c 0,0.02455 0.0389,2.507833 2.21839,4.734405 1.43597,1.466653 3.10207,2.493514 5.0934,3.138883 1.08516,0.351833 2.28589,0.590138 3.56845,0.70878 3.48048,0.322172 8.50229,0 11.19933,-1.967811 3.01309,-2.198957 3.26264,-4.031762 3.26264,-5.870703 l 0,-1.758143 c 0,-0.242396 0.19637,-0.439791 0.43979,-0.439791 0.24342,0 0.43877,0.197395 0.43877,0.439791 z"
     id="path87"
     inkscape:connector-curvature="0"
     style="fill:#ffffff" /><path
     d="m 157.1671,35.691625 0,1.978038 c 0,0.05318 -0.089,5.332726 -7.76999,6.514026 -5.17624,0.795716 -10.28703,-1.204824 -12.846,-3.400712 -1.38278,-1.186414 -2.11406,-2.443399 -2.11406,-3.634927 0,-0.242396 0.19637,-0.439791 0.43979,-0.439791 0.24239,0 0.43979,0.196372 0.43979,0.439791 0,0.914357 0.6423,1.968834 1.80723,2.969103 2.41067,2.069065 7.23815,3.951986 12.13927,3.198204 6.90575,-1.061636 7.02336,-5.460572 7.02541,-5.646716 l 0,-1.975993 c 0,-0.242397 0.19637,-0.439791 0.43979,-0.439791 0.24137,0 0.43877,0.196371 0.43877,0.438768 z"
     id="path89"
     inkscape:connector-curvature="0"
     style="fill:#ffffff" /><path
     d="m 147.00996,57.396862 c 0,0.08284 -0.0225,0.165689 -0.0716,0.239329 -0.13194,0.203531 -0.40502,0.260806 -0.60855,0.127846 -0.045,-0.02966 -4.57383,-2.997741 -8.17807,-6.651077 -2.35646,-2.388169 -4.14836,-4.42246 -5.10669,-5.544439 l 0,13.244879 c 0,0.155461 -0.0818,0.298649 -0.21479,0.377402 -0.13296,0.07978 -0.29865,0.08284 -0.43467,0.0082 -0.0951,-0.05114 -2.33908,-1.315283 -3.054,-5.089306 -0.2291,-1.210961 -0.66071,-2.036337 -1.24778,-2.38817 -0.51547,-0.308876 -0.99413,-0.16262 -1.01459,-0.156483 -0.13398,0.04193 -0.28228,0.01841 -0.39478,-0.06444 -0.11251,-0.08284 -0.18206,-0.213759 -0.18206,-0.353879 l 0,-15.454063 c 0,-0.242397 0.19637,-0.439791 0.43979,-0.439791 0.2424,0 0.43979,0.196371 0.43979,0.439791 l 0,14.954951 c 0.314,-0.002 0.72106,0.06137 1.13937,0.304786 0.83458,0.485816 1.4012,1.493245 1.6845,2.992627 0.404,2.136567 1.32654,3.35571 1.96066,3.967327 l 0,-13.553756 c 0,-0.186144 0.11761,-0.352856 0.29251,-0.414222 0.17591,-0.06239 0.37126,-0.0072 0.48888,0.138074 0.0225,0.02761 2.27567,2.810574 5.82979,6.412771 3.53879,3.586857 7.98784,6.502776 8.03284,6.532436 0.1299,0.08489 0.19944,0.22501 0.19944,0.36922 z"
     id="path91"
     inkscape:connector-curvature="0"
     style="fill:#ffffff" /><path
     d="m 139.78307,48.746269 c 0,0.01125 0,0.01841 0,0.0225 l 0,2.896486 c 0,0.242397 -0.19637,0.439791 -0.43979,0.439791 -0.2424,0 -0.43979,-0.196372 -0.43979,-0.439791 l 0,-2.911828 c -0.005,-0.0675 -0.005,-1.294827 -1.63951,-2.584541 -0.74866,-0.591161 -1.47892,-0.872423 -2.18463,-1.143458 -0.96141,-0.370243 -1.86963,-0.72003 -2.40351,-1.787803 -0.10842,-0.21785 -0.0205,-0.479679 0.19637,-0.589115 0.21682,-0.108414 0.4807,-0.02046 0.58911,0.196372 0.3815,0.762986 1.033,1.013565 1.93304,1.360284 0.73128,0.281262 1.56075,0.600367 2.41374,1.274373 1.90746,1.503472 1.97497,3.055015 1.97497,3.266729 z"
     id="path93"
     inkscape:connector-curvature="0"
     style="fill:#ffffff" /><path
     d="m 141.31518,44.692006 c 0,0.186144 -0.11864,0.35797 -0.30581,0.417291 -0.047,0.01534 -1.17516,0.363083 -2.78398,0.01023 -1.55564,-0.340582 -2.39738,-0.782419 -2.43215,-0.801852 -0.10228,-0.05421 -0.18001,-0.148302 -0.21376,-0.258761 -0.22808,-0.739463 -0.81106,-1.822577 -1.3429,-1.800076 -0.24239,0.01125 -0.44797,-0.176939 -0.4582,-0.420359 -0.0205,-0.222964 0.17694,-0.44695 0.42036,-0.458201 1.23858,-0.05421 1.94531,1.629274 2.15907,2.232708 0.29047,0.130915 0.99209,0.414222 2.05577,0.647414 1.3654,0.299672 2.32271,0.01227 2.33191,0.01023 0.23115,-0.07159 0.47764,0.05727 0.55026,0.288421 0.0123,0.045 0.0194,0.08898 0.0194,0.13296 z"
     id="path95"
     inkscape:connector-curvature="0"
     style="fill:#ffffff" /><path
     d="m 145.81435,59.007726 c 0,0.07671 -0.0205,0.155461 -0.0634,0.226032 -0.12477,0.207623 -0.39479,0.275126 -0.60343,0.150348 -5.04533,-3.034561 -8.66287,-6.750286 -10.1735,-8.440926 l 0,7.869197 c 0,0.242396 -0.19637,0.439791 -0.43979,0.439791 -0.24342,0 -0.43979,-0.196372 -0.43979,-0.439791 l 0,-9.057656 c 0,-0.187167 0.11864,-0.353879 0.29558,-0.415245 0.17694,-0.06137 0.37331,-0.0041 0.48888,0.142165 0.0409,0.05114 4.13609,5.187492 10.72171,9.148683 0.13705,0.08284 0.21376,0.228078 0.21376,0.377402 z"
     id="path97"
     inkscape:connector-curvature="0"
     style="fill:#ffffff" /><path
     d="m 140.07763,54.905393 c 0,0.242397 -0.19638,0.439792 -0.4398,0.439792 l -5.10362,0 c -0.2424,0 -0.43979,-0.196372 -0.43979,-0.439792 0,-0.242396 0.19637,-0.439791 0.43979,-0.439791 l 5.10362,0 c 0.2424,0.001 0.4398,0.197395 0.4398,0.439791 z"
     id="path99"
     inkscape:connector-curvature="0"
     style="fill:#ffffff" /><path
     d="m 142.90865,57.15242 c 0,0.242397 -0.19637,0.439792 -0.43979,0.439792 l -4.92259,0 c -0.2424,0 -0.43979,-0.196372 -0.43979,-0.439792 0,-0.242396 0.19637,-0.439791 0.43979,-0.439791 l 4.92259,0 c 0.24342,0 0.43979,0.197395 0.43979,0.439791 z"
     id="path101"
     inkscape:connector-curvature="0"
     style="fill:#ffffff" /><path
     d="m 142.71331,36.158008 c 0,2.423967 -1.04528,4.323252 -2.37999,4.323252 -1.33472,0 -2.37999,-1.899285 -2.37999,-4.323252 0,-2.423966 1.04527,-4.322228 2.37999,-4.322228 1.33471,0 2.37999,1.898262 2.37999,4.322228 z m -3.88142,0 c 0,2.029177 0.79163,3.443669 1.50143,3.443669 0.7098,0 1.50143,-1.414492 1.50143,-3.443669 0,-2.029176 -0.79163,-3.443668 -1.50143,-3.443668 -0.7098,0 -1.50143,1.414492 -1.50143,3.443668 z"
     id="path103"
     inkscape:connector-curvature="0"
     style="fill:#ffffff" /><path
     d="m 57.921529,36.158008 c 0,0.242397 -0.196372,0.439792 -0.439791,0.439792 l -35.083077,0 c -0.242396,0 -0.439791,-0.196372 -0.439791,-0.439792 0,-0.243419 0.196372,-0.439791 0.439791,-0.439791 l 35.0841,0 c 0.242396,10e-4 0.438768,0.197395 0.438768,0.439791 z"
     id="path105"
     inkscape:connector-curvature="0"
     style="fill:#ffffff" /><path
     d="m 124.42719,36.094597 c 0,0.242396 -0.19637,0.439791 -0.43979,0.439791 l -57.789611,0 c -0.242397,0 -0.439792,-0.196372 -0.439792,-0.439791 0,-0.242397 0.196372,-0.439792 0.439792,-0.439792 l 57.788591,0 c 0.24342,0 0.44081,0.197395 0.44081,0.439792 z"
     id="path107"
     inkscape:connector-curvature="0"
     style="fill:#ffffff" /></svg>