<?xml version="1.0" encoding="UTF-8" standalone="no"?>
<!-- Generator: Adobe Illustrator 17.0.0, SVG Export Plug-In . SVG Version: 6.00 Build 0)  -->

<svg
   xmlns:dc="http://purl.org/dc/elements/1.1/"
   xmlns:cc="http://creativecommons.org/ns#"
   xmlns:rdf="http://www.w3.org/1999/02/22-rdf-syntax-ns#"
   xmlns:svg="http://www.w3.org/2000/svg"
   xmlns="http://www.w3.org/2000/svg"
   xmlns:sodipodi="http://sodipodi.sourceforge.net/DTD/sodipodi-0.dtd"
   xmlns:inkscape="http://www.inkscape.org/namespaces/inkscape"
   version="1.1"
   id="Слой_1"
   x="0px"
   y="0px"
   width="115.13831"
   height="86.353745"
   viewBox="0 0 115.1383 86.353747"
   enable-background="new 0 0 114.024 91.463"
   xml:space="preserve"
   inkscape:version="0.91 r13725"
   sodipodi:docname="auto.svg"><metadata
   id="metadata179"><rdf:RDF><cc:Work
       rdf:about=""><dc:format>image/svg+xml</dc:format><dc:type
         rdf:resource="http://purl.org/dc/dcmitype/StillImage" /><dc:title></dc:title></cc:Work></rdf:RDF></metadata><defs
   id="defs177" /><sodipodi:namedview
   pagecolor="#ffffff"
   bordercolor="#666666"
   borderopacity="1"
   objecttolerance="10"
   gridtolerance="10"
   guidetolerance="10"
   inkscape:pageopacity="0"
   inkscape:pageshadow="2"
   inkscape:window-width="1366"
   inkscape:window-height="706"
   id="namedview175"
   showgrid="false"
   fit-margin-top="0"
   fit-margin-left="0"
   fit-margin-right="0"
   fit-margin-bottom="0"
   inkscape:zoom="2.5802784"
   inkscape:cx="54.808029"
   inkscape:cy="10.136536"
   inkscape:window-x="-8"
   inkscape:window-y="-8"
   inkscape:window-maximized="1"
   inkscape:current-layer="Слой_1" />
<path
   d="m 20.554574,75.793418 c -1.163646,0 -2.378159,-0.07783 -3.694415,-0.26654 C 14.333631,75.163316 11.998924,75.138794 9.9386999,75.116406 6.5304292,75.080155 4.0674874,75.052435 3.4983825,73.333784 2.7067227,70.94345 1.6172628,59.290304 1.7327797,55.730391 c 0.028615,-0.897707 0.041332,-1.927618 0.055108,-3.032163 0.040272,-3.359475 0.091142,-7.539894 0.6644857,-10.731981 0.8075567,-4.489606 1.9182121,-7.186995 3.8353643,-9.311855 0.6994585,-0.776163 1.1382098,-1.148255 1.4900586,-1.446781 0.5903007,-0.502161 0.8870407,-0.753775 1.9245714,-2.715511 0.5881812,-1.113073 0.8033172,-1.902032 1.1021762,-2.995916 0.517175,-1.894568 1.225112,-4.488538 4.395991,-10.615768 5.072134,-9.801222 9.059048,-11.923951 10.368944,-12.622287 1.536688,-0.81881 2.498975,-0.289994 2.602832,-0.226025 0.198182,0.119398 0.281904,0.364626 0.19924,0.582124 -0.08372,0.216431 -0.311576,0.33904 -0.536251,0.296393 l 0,0 c -0.0065,0 -1.606636,-0.171653 -4.327104,3.178228 -2.983298,3.672926 -6.33434,10.508087 -7.37399,12.831253 -0.221494,0.495764 -0.450408,0.953148 -0.662366,1.376414 -0.852067,1.70266 -1.197557,2.487355 -0.464186,3.225137 0.877502,0.882783 5.009608,0.68341 7.743854,0.551207 0.73867,-0.03625 1.43389,-0.0693 2.036907,-0.08424 3.012971,-0.07569 24.87529,-0.288929 32.698629,-0.288929 0.261765,0 0.474783,0.214298 0.474783,0.477641 0,0.263341 -0.213018,0.47764 -0.474783,0.47764 -7.8191,0 -29.66552,0.213233 -32.675314,0.288931 -0.596658,0.01492 -1.284459,0.04797 -2.015711,0.08316 -4.127866,0.199372 -7.372929,0.264408 -8.46133,-0.83054 -1.249486,-1.257004 -0.53731,-2.681396 0.287203,-4.329681 0.206659,-0.412605 0.429212,-0.857195 0.64435,-1.339099 1.036469,-2.317836 4.346181,-9.066637 7.355972,-12.857908 -1.750765,1.759166 -4.010229,4.68578 -6.580209,9.65196 -3.124249,6.036608 -3.81735,8.57407 -4.322865,10.42706 -0.3031,1.108807 -0.541551,1.985193 -1.179542,3.191021 -1.0778021,2.039567 -1.4381296,2.392465 -2.1503051,2.996979 -0.3306532,0.280402 -0.7418501,0.630101 -1.399977,1.358289 -1.7867986,1.980929 -2.8306875,4.541849 -3.6043311,8.840612 -0.5595667,3.112126 -0.6093767,7.248831 -0.6496486,10.573122 -0.013773,1.112006 -0.026495,2.148316 -0.055108,3.051355 -0.1197554,3.704912 1.0195138,15.164014 1.7168527,17.269683 0.3550283,1.073624 2.6473448,1.098147 5.5500975,1.129065 1.9860376,0.02131 4.4574586,0.04797 7.0454556,0.420068 3.946642,0.567197 6.997764,0.09276 10.53109,-0.457383 2.280657,-0.355032 4.866536,-0.756976 7.978066,-0.899841 7.718419,-0.35503 21.674737,-0.292129 21.814629,-0.292129 0.262826,0.0011 0.473724,0.216432 0.472664,0.479774 -0.0011,0.263342 -0.214076,0.475507 -0.474784,0.475507 -0.02861,0.0065 -0.986659,-0.0042 -2.56998,-0.0042 -4.412948,0 -13.510148,0.03411 -19.199076,0.295324 -3.060661,0.140742 -5.508767,0.521355 -7.876328,0.890246 -2.443866,0.381685 -4.664118,0.727123 -7.114341,0.727123 z"
   id="path3"
   inkscape:connector-curvature="0"
   style="fill:#ffffff" />
<path
   d="m 26.942961,4.88302 c -0.903996,0 -1.229352,-0.131143 -1.401036,-0.458449 -0.144131,-0.27507 -0.07736,-0.587455 0.197121,-0.93076 1.170002,-1.457443 2.528647,-1.83273 4.466996,-2.237872 1.968022,-0.411539 4.54542,-0.369958 4.655637,-0.367826 0.176984,0.0032 0.338072,0.105553 0.416497,0.265474 0.04768,0.09595 0.0604,0.203638 0.04132,0.305987 0.154729,0.04053 0.495981,0.08637 1.196497,0.02772 2.72683,-0.226027 13.470937,-0.646095 18.83557,-0.646095 l 3.394494,0 c 0.262829,0 0.474786,0.2143 0.474786,0.477642 0,0.263341 -0.211957,0.47764 -0.474786,0.47764 l -3.394494,0 c -5.345557,0 -16.044093,0.417934 -18.757146,0.642896 -1.253726,0.104488 -1.928809,-0.05437 -2.185278,-0.513891 -0.01482,-0.02772 -0.02861,-0.05544 -0.03922,-0.08209 -0.830873,0.0075 -2.591175,0.05971 -3.969957,0.348635 -1.857804,0.388084 -2.875198,0.69727 -3.779195,1.731447 0.675083,0.03625 2.168321,-0.0853 4.09183,-0.239886 1.306717,-0.104488 2.913353,-0.232424 4.860178,-0.365695 8.075568,-0.551205 22.287293,-0.557601 22.430364,-0.557601 0.261767,0 0.474784,0.214298 0.474784,0.47764 0,0.263341 -0.213017,0.47764 -0.474784,0.47764 -0.142023,0 -14.323002,0.0065 -22.364656,0.556537 -1.942587,0.133272 -3.546043,0.261208 -4.849581,0.365693 -1.880059,0.149261 -3.074436,0.245218 -3.845961,0.245218 z"
   id="path5"
   inkscape:connector-curvature="0"
   style="fill:#ffffff" />
<path
   d="m 19.448157,24.270099 c -0.970763,0 -1.695657,-0.179115 -2.130169,-0.874252 -0.822394,-1.31351 0.04345,-3.220874 1.355467,-6.105907 1.212394,-2.66647 4.982052,-9.704201 6.099065,-10.914294 1.131851,-1.226087 1.607695,-1.50009 4.083355,-1.62483 0.916714,-0.04584 2.980116,-0.198305 5.164334,-0.358231 3.559821,-0.26121 7.594426,-0.557602 8.748531,-0.557602 l 0.25329,0 c 1.787858,0.0011 2.847643,-0.0022 3.759059,0.892377 0.165326,0.163122 0.305219,0.315584 0.432393,0.457384 0.472665,0.522417 0.68886,0.760173 1.689297,0.760173 0.758808,0 2.274302,-0.05224 3.738926,-0.102357 1.448726,-0.05011 2.816909,-0.09702 3.50259,-0.09702 l 2.602834,0 c 0.261769,0 0.474783,0.214298 0.474783,0.477638 0,0.263343 -0.213014,0.477642 -0.474783,0.477642 l -2.603893,0 c -0.669785,0 -2.03055,0.0469 -3.470798,0.09595 -1.472042,0.05118 -2.994955,0.103423 -3.770718,0.103423 -1.419053,0 -1.869461,-0.496832 -2.390876,-1.072559 C 46.394266,5.698635 46.267093,5.558963 46.116604,5.410765 45.506167,4.811584 44.792932,4.796656 43.02203,4.790259 l -0.25329,0 c -1.120194,0 -5.13678,0.295328 -8.679644,0.55547 -2.284899,0.168455 -4.259278,0.312385 -5.185532,0.359298 -2.252044,0.113023 -2.500033,0.30812 -3.434765,1.320974 -0.962286,1.042705 -4.677894,7.904521 -5.930561,10.661613 -1.097938,2.414857 -1.963782,4.322218 -1.414813,5.19967 0.322175,0.514955 1.13927,0.475508 2.808433,0.34437 0.642228,-0.05011 1.369242,-0.107683 2.199054,-0.128998 0.714295,-0.01919 1.963784,-0.03625 3.523787,-0.0565 4.938602,-0.0661 13.20493,-0.175916 17.140974,-0.539476 5.139961,-0.473376 13.363899,-0.675947 13.446561,-0.679145 l 0.684621,0 c 0.261767,0 0.474784,0.214298 0.474784,0.47764 0,0.263343 -0.213017,0.47764 -0.474784,0.47764 l -0.672963,0 c -0.071,0.0022 -8.26315,0.203639 -13.371317,0.674881 -3.973136,0.365693 -12.261719,0.476574 -17.215157,0.542676 -1.554706,0.02133 -2.799956,0.03732 -3.512131,0.0565 -0.804378,0.02132 -1.518672,0.07783 -2.149246,0.126868 -0.573342,0.04584 -1.093697,0.08637 -1.557884,0.08637 z"
   id="path7"
   inkscape:connector-curvature="0"
   style="fill:#ffffff" />
<path
   d="m 14.968444,39.663338 c -0.234213,0 -0.438754,-0.17485 -0.470548,-0.414737 -0.03602,-0.276134 -0.894458,-6.813837 -0.77576,-10.945212 0.06039,-2.09181 0.456766,-3.462893 1.17848,-4.077002 0.432394,-0.367825 0.828754,-0.333708 0.905057,-0.323046 0.156849,0.02133 0.292502,0.120463 0.361387,0.264406 0.0371,0.07678 3.771777,7.742467 8.424238,13.096727 0.172743,0.198307 0.152609,0.500032 -0.04557,0.673814 -0.198179,0.174852 -0.498099,0.153529 -0.669783,-0.04477 -4.140579,-4.765745 -7.557329,-11.309845 -8.376544,-12.932543 -0.269185,0.239888 -0.759865,0.995794 -0.827692,3.370138 -0.116577,4.054611 0.758806,10.724517 0.768346,10.790619 0.03496,0.26121 -0.148371,0.502163 -0.408018,0.53628 -0.0212,0.0042 -0.04238,0.0053 -0.0636,0.0053 z"
   id="path9"
   inkscape:connector-curvature="0"
   style="fill:#ffffff" />
<path
   d="m 58.200278,42.40977 -23.900285,0 c -0.12717,-0.0011 -3.027807,-0.05011 -7.914479,-0.882781 -1.864163,-0.317717 -3.865038,-0.624771 -5.800207,-0.921163 -3.125309,-0.479774 -6.076811,-0.932892 -7.839235,-1.340165 l -0.369865,-0.0853 C 8.7920117,38.354093 6.1881185,37.706932 5.3286325,36.91051 5.1887408,36.780433 5.1389307,36.578932 5.2035778,36.398752 c 0.019077,-0.05224 0.4726645,-1.288989 2.1450064,-2.28052 1.4296503,-0.848663 1.7507661,-1.096013 2.2753595,-3.056684 0.4323933,-1.617367 0.7280733,-3.109994 1.0407093,-4.688978 l 0.262828,-1.315644 c 0.05193,-0.259076 0.302038,-0.425397 0.560626,-0.37209 0.256467,0.05331 0.422854,0.304923 0.369864,0.564 l -0.261767,1.311379 c -0.315815,1.594977 -0.613615,3.101463 -1.055546,4.749748 -0.5839412,2.183499 -1.0354101,2.637684 -2.7098713,3.631347 -0.8828016,0.524551 -1.350167,1.117335 -1.5695427,1.470237 1.1053565,0.634365 4.089713,1.32204 6.32692,1.839127 l 0.369865,0.0853 c 1.72851,0.39981 4.663056,0.849729 7.770349,1.327369 1.938348,0.29746 3.943463,0.605579 5.815044,0.924364 4.806129,0.81881 7.733255,0.86892 7.76293,0.86892 l 23.894987,0 c 0.261767,0 0.474786,0.214298 0.474786,0.47764 0,0.26121 -0.213019,0.475508 -0.475847,0.475508 z"
   id="path11"
   inkscape:connector-curvature="0"
   style="fill:#ffffff" />
<path
   d="m 39.055253,55.738922 c -0.03922,0 -0.07949,-0.0053 -0.118694,-0.01493 -2.74908,-0.714324 -6.41064,-1.057629 -10.288395,-1.42119 C 25.79734,54.035201 22.851136,53.759065 19.827568,53.312342 18.712673,53.148154 17.615796,53.001023 16.55389,52.859224 10.410304,52.037208 5.5575462,51.387916 4.45007,48.388804 3.2249579,45.073042 3.8534108,41.965181 3.8799054,41.834044 c 0.046631,-0.224961 0.2448105,-0.379553 0.474784,-0.379553 0.2289136,0.0053 0.4207349,0.172716 0.4588871,0.398744 0.1897017,1.14399 1.379841,1.672806 3.6424834,2.584375 0.3126371,0.125803 0.639051,0.256945 0.977122,0.397679 1.6945971,0.7026 4.1363441,1.372149 6.2898291,1.963868 1.244188,0.342237 2.418431,0.664219 3.367998,0.968073 3.159222,1.011788 5.572354,1.485164 6.619422,1.298586 0.825572,-0.146064 1.806933,-0.191909 2.475658,-0.204703 -0.253288,-0.508558 -0.617854,-1.249541 -1.002555,-2.06622 -0.712177,-1.510752 -1.749709,-4.201742 -1.79422,-4.315821 -0.09538,-0.246284 0.0265,-0.522421 0.271307,-0.618375 0.24269,-0.09595 0.519295,0.02665 0.614674,0.272937 0.01065,0.02772 1.070385,2.772019 1.766664,4.251853 0.700517,1.48836 1.332151,2.719779 1.338509,2.732572 0.07631,0.149261 0.06995,0.329444 -0.01907,0.472309 -0.08902,0.142872 -0.24375,0.22496 -0.413318,0.22496 -0.01802,-0.0011 -1.791038,-0.03625 -3.073378,0.191908 C 24.323175,50.282306 21.171373,49.43684 18.802751,48.6788 17.87226,48.381339 16.706496,48.060427 15.472905,47.721386 13.292924,47.122204 10.820445,46.444125 9.0707385,45.719137 8.7358465,45.580536 8.412612,45.450463 8.1031545,45.325722 6.6236938,44.729737 5.4102392,44.24037 4.6588512,43.502586 c -0.04345,1.149322 0.046631,2.835989 0.6803823,4.553575 0.9082364,2.460702 5.7419185,3.107861 11.3386475,3.856307 1.067204,0.142872 2.167262,0.289996 3.286396,0.455251 2.998133,0.442455 5.932679,0.717526 8.770785,0.984067 3.915909,0.367825 7.615621,0.714328 10.437829,1.447846 0.254349,0.0661 0.406958,0.326246 0.341251,0.582125 -0.05511,0.215365 -0.247989,0.357165 -0.458887,0.357165 z"
   id="path13"
   inkscape:connector-curvature="0"
   style="fill:#ffffff" />
<path
   d="m 13.762407,45.46539 c -0.261767,0 -0.474785,-0.214299 -0.474785,-0.477642 0,-0.263342 0.213018,-0.47764 0.474785,-0.47764 1.156226,0 2.097317,-0.94675 2.097317,-2.109934 0,-1.163181 -0.941091,-2.109932 -2.097317,-2.109932 -1.156227,0 -2.097315,0.946751 -2.097315,2.109932 0,0.291062 0.05724,0.571464 0.170625,0.834806 0.103854,0.242018 -0.0065,0.523485 -0.247991,0.627968 -0.24269,0.104488 -0.520354,-0.0075 -0.624214,-0.24948 -0.164266,-0.383819 -0.24799,-0.792159 -0.24799,-1.21436 0,-1.689865 1.367123,-3.065214 3.046885,-3.065214 1.67976,0 3.046884,1.375349 3.046884,3.065214 0,1.689866 -1.367124,3.066282 -3.046884,3.066282 z"
   id="path15"
   inkscape:connector-curvature="0"
   style="fill:#ffffff" />
<path
   d="m 13.762407,44.655107 c -1.235711,0 -2.240388,-1.010721 -2.240388,-2.253867 0,-1.243143 1.004677,-2.253864 2.240388,-2.253864 0.261768,0 0.474783,0.214298 0.474783,0.477639 0,0.263342 -0.213015,0.477642 -0.474783,0.477642 -0.712177,0 -1.290819,0.582123 -1.290819,1.298583 0,0.716461 0.578642,1.298585 1.290819,1.298585 0.712177,0 1.290819,-0.582124 1.290819,-1.298585 0,-0.263342 0.213017,-0.47764 0.474784,-0.47764 0.261766,0 0.474783,0.214298 0.474783,0.47764 0,1.242079 -1.004677,2.253867 -2.240386,2.253867 z"
   id="path17"
   inkscape:connector-curvature="0"
   style="fill:#ffffff" />
<path
   d="m 21.26357,47.196835 c -0.261767,0 -0.474785,-0.214298 -0.474785,-0.47764 0,-0.263343 0.213018,-0.477641 0.474785,-0.477641 1.156226,0 2.097315,-0.946751 2.097315,-2.109933 0,-1.163182 -0.941089,-2.109935 -2.097315,-2.109935 -1.156226,0 -2.097317,0.946753 -2.097317,2.109935 0,0.289996 0.05722,0.571462 0.170627,0.835872 0.103854,0.242017 -0.0075,0.523484 -0.247991,0.627966 -0.24057,0.105553 -0.520355,-0.0075 -0.624212,-0.24948 -0.164268,-0.383818 -0.247991,-0.792159 -0.247991,-1.213292 0,-1.689865 1.367124,-3.065214 3.046884,-3.065214 1.67976,0 3.046884,1.375349 3.046884,3.065214 0,1.6888 -1.366063,3.064148 -3.046884,3.064148 z"
   id="path19"
   inkscape:connector-curvature="0"
   style="fill:#ffffff" />
<path
   d="m 21.26357,46.385487 c -1.235711,0 -2.240386,-1.010722 -2.240386,-2.253866 0,-1.243144 1.004675,-2.253865 2.240386,-2.253865 0.261767,0 0.474784,0.214299 0.474784,0.477639 0,0.263343 -0.213017,0.477641 -0.474784,0.477641 -0.712177,0 -1.290819,0.582124 -1.290819,1.298585 0,0.716461 0.578642,1.298585 1.290819,1.298585 0.712176,0 1.290819,-0.582124 1.290819,-1.298585 0,-0.263342 0.213017,-0.47764 0.474784,-0.47764 0.261768,0 0.474784,0.214298 0.474784,0.47764 0,1.242079 -1.004678,2.253866 -2.240387,2.253866 z"
   id="path21"
   inkscape:connector-curvature="0"
   style="fill:#ffffff" />
<path
   d="m 22.269308,48.301378 c -0.221496,0 -0.419675,-0.155659 -0.464186,-0.382752 -0.05193,-0.258011 0.113396,-0.510691 0.370923,-0.562933 0.09328,-0.02027 2.335767,-0.52455 2.235089,-2.976722 -0.10492,-2.561986 -1.93411,-3.471422 -2.012533,-3.508738 -0.235273,-0.113023 -0.337012,-0.397677 -0.225735,-0.635433 0.111281,-0.237753 0.392121,-0.341171 0.628453,-0.229225 0.09856,0.04584 2.429028,1.173846 2.558323,4.335013 0.107035,2.620625 -1.912913,3.730499 -2.996015,3.951195 -0.03074,0.0065 -0.06252,0.0095 -0.09433,0.0095 z"
   id="path23"
   inkscape:connector-curvature="0"
   style="fill:#ffffff" />
<path
   d="m 24.567982,49.272651 c -0.45147,0 -0.964405,-0.05865 -1.592858,-0.231356 L 22.076425,48.796077 C 19.470411,48.090278 13.369227,46.435598 10.386989,45.284141 L 9.7606556,45.04319 C 6.8441259,43.920522 6.0609442,43.618799 5.058387,42.489732 3.9381935,41.227398 4.6111575,38.081155 4.6917012,37.726124 c 0.058289,-0.256945 0.3136965,-0.417936 0.5680451,-0.359297 0.2554084,0.05865 0.415436,0.314517 0.3582076,0.571461 -0.2607074,1.154655 -0.4514687,3.239 0.1494297,3.914947 0.8488883,0.956346 1.5176131,1.214357 4.3334634,2.297578 l 0.626334,0.242018 c 2.936666,1.133329 9.004997,2.778416 11.597233,3.481016 l 0.902939,0.246284 c 1.074622,0.297459 1.743347,0.195107 2.452345,0.08742 0.270245,-0.04158 0.540491,-0.08209 0.82981,-0.103423 1.066145,-0.0789 1.451907,0.02666 1.567424,0.07677 0.24163,0.103423 0.352909,0.384884 0.24905,0.626902 -0.103855,0.242018 -0.383644,0.353967 -0.623156,0.250548 0.01482,0.0053 -0.114462,-0.02878 -0.48326,-0.02878 -0.163207,0 -0.373046,0.0065 -0.640111,0.02665 -0.263887,0.01919 -0.510817,0.05757 -0.757747,0.09489 -0.392121,0.06078 -0.7906,0.121543 -1.253726,0.121543 z"
   id="path25"
   inkscape:connector-curvature="0"
   style="fill:#ffffff" />
<path
   d="m 57.658729,53.317668 -7.134477,0 c -3.26202,0 -7.248934,-0.259077 -12.085794,-2.183498 -5.15586,-2.051296 -9.24769,-4.930998 -10.105058,-6.137892 -0.832993,-1.172777 -1.466744,-3.579104 -1.494298,-3.681456 -0.06677,-0.254811 0.08479,-0.516023 0.338072,-0.58319 0.25329,-0.06823 0.513996,0.0853 0.579703,0.340106 0.0065,0.02346 0.617855,2.339159 1.348048,3.369071 0.694159,0.977668 4.522105,3.752888 9.68114,5.805249 5.321185,2.11633 9.653589,2.11633 11.736068,2.11633 l 7.134476,0 c 0.261767,0 0.474785,0.214298 0.474785,0.477641 0,0.26334 -0.210896,0.477639 -0.472665,0.477639 z"
   id="path27"
   inkscape:connector-curvature="0"
   style="fill:#ffffff" />
<path
   d="m 53.991872,52.005224 c -0.725953,0 -3.308651,-0.03091 -8.055431,-0.400878 -5.747218,-0.447786 -8.472987,-2.43831 -10.878701,-4.195344 -2.47248,-1.805011 -4.590991,-5.3468 -4.680013,-5.49713 -0.134597,-0.227092 -0.0604,-0.519221 0.164267,-0.654622 0.224673,-0.135403 0.516116,-0.06183 0.651766,0.165255 0.02121,0.03517 2.110035,3.525796 4.415068,5.208199 2.424791,1.769827 4.922707,3.595096 10.402858,4.02156 5.533139,0.430728 8.16035,0.397678 8.186843,0.396613 l 3.686994,0 c 0.261767,0 0.474785,0.214298 0.474785,0.47764 0,0.263341 -0.213018,0.47764 -0.474785,0.47764 l -3.681695,0 c -0.01482,0 -0.08478,0.0011 -0.211956,0.0011 z"
   id="path29"
   inkscape:connector-curvature="0"
   style="fill:#ffffff" />
<path
   d="m 57.884464,57.736907 c -0.0042,0 -0.0085,0 -0.01166,0 -0.04875,-0.0011 -4.957676,-0.126868 -11.389516,-0.732451 -6.397927,-0.601316 -7.554153,-0.776168 -10.854325,-3.391461 -3.143326,-2.489487 -8.401981,-7.304272 -8.454969,-7.352249 -0.183345,-0.168453 -0.207718,-0.44992 -0.05511,-0.646095 0.15261,-0.197239 0.429213,-0.242017 0.636931,-0.105538 0.05299,0.03517 5.368876,3.563112 9.067527,5.59948 4.185093,2.303974 8.446492,2.64728 10.614813,2.64728 l 10.446308,0 c 0.261767,0 0.474783,0.214298 0.474783,0.477638 0,0.263343 -0.213016,0.477641 -0.474783,0.477641 l -10.446308,0 c -2.258402,0 -6.699966,-0.359295 -11.07052,-2.764556 -1.281282,-0.704733 -2.752264,-1.585381 -4.133165,-2.440443 1.370303,1.198364 2.823269,2.438312 3.982675,3.356276 3.07126,2.43298 3.885174,2.581177 10.355166,3.191022 6.396866,0.601314 11.276119,0.727121 11.32381,0.728188 0.262827,0.0065 0.469485,0.224958 0.463125,0.489366 -0.0065,0.259079 -0.218314,0.465913 -0.474783,0.465913 z"
   id="path31"
   inkscape:connector-curvature="0"
   style="fill:#ffffff" />
<path
   d="m 52.818688,49.271586 -2.017832,0 c -0.114462,0 -0.224674,-0.04158 -0.310517,-0.116204 l -0.934731,-0.813484 -2.297615,0 c -0.104919,0 -0.207718,-0.03519 -0.290381,-0.100213 l -0.959107,-0.747379 -2.370741,0 c -0.112346,0 -0.222554,-0.04053 -0.308397,-0.114087 l -1.159405,-0.994729 -1.93411,0 c -0.121874,0 -0.238451,-0.0469 -0.326413,-0.131143 l -1.661744,-1.586446 c -0.190762,-0.181248 -0.19818,-0.484038 -0.01802,-0.674882 0.180164,-0.192974 0.481143,-0.199371 0.670845,-0.01812 l 1.52503,1.455309 1.921393,0 c 0.112346,0 0.222555,0.04052 0.308398,0.114088 l 1.159404,0.994728 2.358024,0 c 0.10492,0 0.207718,0.03519 0.290382,0.100213 l 0.959105,0.747379 2.311393,0 c 0.114462,0 0.224676,0.04158 0.310517,0.116218 l 0.93473,0.813481 1.840849,0 c 0.261767,0 0.474783,0.214298 0.474783,0.477641 -0.0011,0.263342 -0.213016,0.477638 -0.475844,0.477638 z"
   id="path33"
   inkscape:connector-curvature="0"
   style="fill:#ffffff" />
<path
   d="m 57.765768,70.753672 -18.783641,0 c -6.651215,0 -11.109734,-0.474442 -14.365395,-0.819878 -0.919895,-0.09808 -1.731689,-0.184445 -2.451284,-0.243085 l -0.846769,-0.07036 c -2.52441,-0.212164 -3.01933,-0.243084 -3.597973,0.04905 -0.741849,0.373156 -1.13185,0.348636 -2.577397,0.260145 C 14.77662,69.907164 14.33469,69.879414 13.79102,69.851714 11.309002,69.726974 8.049102,69.489215 6.6109729,69.063818 5.1325719,68.626691 5.3530074,66.981605 5.5458884,65.530558 5.5903994,65.201114 5.6349104,64.863141 5.6645839,64.528367 5.906215,61.814985 6.6798586,60.0974 8.0289656,59.278588 9.5179644,58.374483 10.63074,58.523746 12.039193,58.71139 c 0.188643,0.02559 0.384703,0.05118 0.591362,0.07678 0.302038,0.03732 7.489507,0.917967 14.667435,2.206955 4.527404,0.812414 7.726896,2.036368 8.777143,2.83279 l 4.000691,0 c 0.261767,0 0.474785,0.214298 0.474785,0.477641 0,0.263342 -0.213018,0.47764 -0.474785,0.47764 l -4.10031,0 c -0.14306,0 -0.271305,-0.06397 -0.358209,-0.165255 -0.420734,-0.328378 -3.028866,-1.703725 -8.483583,-2.682463 -7.152492,-1.283658 -14.313465,-2.162174 -14.615504,-2.198424 -0.210896,-0.02559 -0.410137,-0.05224 -0.603019,-0.07783 -1.365003,-0.182313 -2.1905768,-0.293196 -3.3944928,0.437127 -1.072503,0.650357 -1.6967167,2.128058 -1.9097338,4.516259 -0.030733,0.348634 -0.078425,0.700467 -0.1239939,1.043772 -0.2066582,1.552331 -0.2363323,2.303974 0.391061,2.489486 1.0534267,0.31132 3.5248465,0.577861 6.9606705,0.750579 0.547911,0.02772 0.99302,0.05544 1.362886,0.07783 1.425411,0.08848 1.597097,0.08848 2.094136,-0.160989 0.835111,-0.420068 1.528212,-0.362495 4.101371,-0.146065 l 0.845708,0.07036 c 0.727014,0.05971 1.545168,0.14713 2.473541,0.245218 3.234465,0.343305 7.665428,0.814547 14.265775,0.814547 l 18.78258,0 c 0.261769,0 0.474786,0.214298 0.474786,0.477641 0.0011,0.265473 -0.211958,0.478705 -0.473725,0.478705 z"
   id="path35"
   inkscape:connector-curvature="0"
   style="fill:#ffffff" />
<path
   d="m 6.0270312,68.4465 c -0.1536689,0 -0.3041586,-0.07462 -0.3974197,-0.2111 -0.3497293,-0.519221 -0.1271746,-1.32524 0.1822832,-2.44151 l 0.079483,-0.288931 c 0.061467,-0.226025 0.1176369,-0.486169 0.178044,-0.768702 0.2246746,-1.044838 0.5330724,-2.474559 1.4529662,-3.740093 1.3607652,-1.868982 3.1401441,-1.592846 5.6041461,-1.211161 0.363507,0.0565 0.74609,0.115153 1.149868,0.171651 2.955742,0.410473 9.65041,1.519281 15.239719,2.524672 5.559634,1.000058 7.549913,3.192088 7.631515,3.284843 0.174865,0.197241 0.156849,0.498963 -0.03922,0.673815 -0.195001,0.175916 -0.49386,0.157792 -0.668726,-0.03838 l 0,0 C 36.42168,66.381354 34.54374,64.355644 29.349731,63.421686 23.769962,62.41843 17.092253,61.311755 14.147107,60.903415 13.73909,60.846915 13.351209,60.787212 12.983463,60.729631 10.435739,60.33515 9.2689153,60.217874 8.2907326,61.561238 7.4895346,62.661517 7.2182295,63.92385 6.9999136,64.93777 6.9352666,65.239493 6.874859,65.516697 6.8091521,65.757648 l -0.080544,0.291063 c -0.1600277,0.578924 -0.4016589,1.453178 -0.3073378,1.654683 0.1473101,0.218561 0.089022,0.512823 -0.1282339,0.661019 -0.082664,0.05544 -0.1748648,0.08209 -0.2660063,0.08209 z"
   id="path37"
   inkscape:connector-curvature="0"
   style="fill:#ffffff" />
<path
   d="m 7.8265473,68.046689 c -0.094321,0 -0.1897018,-0.02772 -0.2723651,-0.08637 C 7.3401055,67.808924 7.2881761,67.512532 7.4376061,67.2961 l 0,0 c 0.00635,-0.0085 0.5903007,-0.874251 0.5224743,-2.007581 -0.066766,-1.118403 0.04769,-2.73577 1.8026958,-3.855239 1.3310908,-0.84973 3.1888938,-0.970207 5.3699328,-0.348635 2.365442,0.674879 5.160098,1.178108 8.30766,1.49689 1.449786,0.147131 2.697155,0.20257 3.902132,0.256945 2.061283,0.09276 3.840663,0.172717 5.98037,0.671683 0.255408,0.05971 0.414375,0.316649 0.355029,0.573593 -0.05935,0.256944 -0.313698,0.416869 -0.570165,0.357165 -2.053864,-0.479773 -3.794034,-0.557602 -5.808686,-0.648227 -1.218753,-0.05437 -2.478837,-0.110879 -3.955119,-0.26121 -3.202672,-0.324113 -6.052437,-0.838002 -8.470867,-1.527808 -1.33533,-0.381687 -3.217511,-0.649294 -4.60159,0.235622 -1.0407096,0.664218 -1.4487275,1.558727 -1.3628842,2.991648 0.087958,1.476634 -0.6602466,2.566252 -0.6920402,2.612095 -0.093261,0.133273 -0.2405713,0.203638 -0.390001,0.203638 z"
   id="path39"
   inkscape:connector-curvature="0"
   style="fill:#ffffff" />
<path
   d="m 14.527573,67.75456 c -4.6100685,0 -6.4000468,-2.234675 -6.4742317,-2.329562 -0.1621473,-0.207902 -0.1250546,-0.50856 0.081604,-0.670616 0.2066582,-0.163122 0.503398,-0.125803 0.6644859,0.07996 0.027556,0.03412 1.6299498,1.964936 5.7270818,1.964936 3.266259,0 3.883054,-1.064031 4.11091,-1.624831 -0.3084,-0.243084 -0.837231,-0.677011 -1.529273,-1.312444 -0.853128,-0.782562 -3.95936,-2.021442 -6.585508,-0.446722 -0.225734,0.135402 -0.517175,0.06076 -0.6507082,-0.165256 -0.1345924,-0.227091 -0.060405,-0.520287 0.1642672,-0.654621 2.997074,-1.797549 6.556895,-0.497899 7.71206,0.561866 1.073563,0.984067 1.744408,1.473435 1.751827,1.4777 0.103855,0.07462 0.172744,0.18871 0.191819,0.315582 0.01907,0.126868 -0.01281,0.255881 -0.08902,0.359298 -0.0022,0.0095 -0.01695,0.05224 -0.03602,0.102358 -0.417556,1.089616 -1.368184,2.342356 -5.039281,2.342356 z"
   id="path41"
   inkscape:connector-curvature="0"
   style="fill:#ffffff" />
<path
   d="m 10.173972,64.453726 c -0.09008,0 -0.1812227,-0.02559 -0.2617666,-0.0789 -0.2183163,-0.146061 -0.2787237,-0.442455 -0.1335331,-0.662085 0.9961987,-1.513949 3.4496007,-1.99159 3.5534607,-2.011847 0.256468,-0.04905 0.505518,0.121543 0.554269,0.381687 0.04875,0.259077 -0.120809,0.508558 -0.378344,0.557601 -0.0212,0.0042 -2.163022,0.424333 -2.936666,1.60031 -0.0922,0.138612 -0.242691,0.213231 -0.397419,0.213231 z"
   id="path43"
   inkscape:connector-curvature="0"
   style="fill:#ffffff" />
<path
   d="m 15.504695,67.719377 c -4.641862,0 -5.484391,-2.420186 -5.5172449,-2.522538 -0.081606,-0.250547 0.05405,-0.520287 0.3030989,-0.602382 0.24693,-0.08209 0.513995,0.05224 0.596659,0.299592 0.03179,0.08848 0.732312,1.871113 4.617487,1.871113 0.261768,0 0.474784,0.214299 0.474784,0.47764 0,0.263343 -0.213016,0.476575 -0.474784,0.476575 z"
   id="path45"
   inkscape:connector-curvature="0"
   style="fill:#ffffff" />
<path
   d="m 57.765768,68.577637 -14.19265,0 c -6.960673,0 -10.250247,-0.591721 -13.828083,-1.363621 -1.820713,-0.393413 -2.970581,-0.634365 -3.938164,-0.838002 -1.057667,-0.221761 -1.895956,-0.397678 -3.150742,-0.675946 -2.706693,-0.598118 -2.896395,-2.234675 -2.902754,-2.303974 -0.01484,-0.157793 0.04768,-0.312386 0.168505,-0.413672 0.119758,-0.101278 0.282963,-0.136468 0.434514,-0.09276 0.01281,0.0042 1.315193,0.371026 3.560878,0.611979 0.55533,0.05971 1.110656,0.101278 1.651147,0.142858 1.757125,0.133272 3.416749,0.259077 4.524224,0.943552 1.186961,0.734586 3.306533,1.324173 5.967654,1.657882 2.474599,0.311318 18.664947,0.341172 18.828152,0.341172 l 3.375417,0 c 0.261767,0 0.474786,0.214297 0.474786,0.47764 0,0.263341 -0.213019,0.477639 -0.474786,0.477639 l -3.376476,0 c -0.669785,-0.0011 -16.4129,-0.02985 -18.945789,-0.348634 -2.792535,-0.350766 -5.046698,-0.987267 -6.347056,-1.792217 -0.911417,-0.562933 -2.458703,-0.681278 -4.098192,-0.804951 -0.551087,-0.04159 -1.115954,-0.08424 -1.68082,-0.145 -1.0831,-0.116203 -1.950006,-0.259077 -2.573159,-0.380618 0.318995,0.255876 0.823454,0.521352 1.618293,0.696204 1.250546,0.276133 2.086716,0.45205 3.140144,0.673812 0.968645,0.203637 2.119572,0.44459 3.942403,0.839071 3.522729,0.761238 6.762493,1.343362 13.629904,1.343362 l 14.19265,0 c 0.261767,0 0.474784,0.214298 0.474784,0.47764 0,0.262276 -0.213017,0.476575 -0.474784,0.476575 z"
   id="path47"
   inkscape:connector-curvature="0"
   style="fill:#ffffff" />
<path
   d="m 57.528376,65.658486 -16.913119,0 c -0.558508,0 -1.013155,-0.457383 -1.013155,-1.019251 l 0,-6.838357 c 0,-0.561868 0.454647,-1.019251 1.013155,-1.019251 l 16.912059,0 c 0.261767,0 0.474785,0.214299 0.474785,0.47764 0,0.263342 -0.213018,0.47764 -0.474785,0.47764 l -16.912059,0 c -0.03497,0 -0.0636,0.02878 -0.0636,0.06397 l 0,6.838359 c 0,0.03517 0.02861,0.06397 0.0636,0.06397 l 16.912059,0 c 0.261767,0 0.474785,0.214299 0.474785,0.477642 0.0011,0.26334 -0.211958,0.477638 -0.473725,0.477638 z"
   id="path49"
   inkscape:connector-curvature="0"
   style="fill:#ffffff" />
<path
   d="m 57.090684,64.992136 -15.802465,0 c -0.558505,0 -1.013154,-0.457383 -1.013154,-1.019249 l 0,-5.878817 c 0,-0.263341 0.213016,-0.47764 0.474783,-0.47764 0.261769,0 0.474786,0.214299 0.474786,0.47764 l 0,5.878817 c 0,0.03519 0.02861,0.06397 0.0636,0.06397 l 15.802465,0 c 0.261767,0 0.474784,0.214299 0.474784,0.47764 0,0.264408 -0.211956,0.477641 -0.474784,0.477641 z"
   id="path51"
   inkscape:connector-curvature="0"
   style="fill:#ffffff" />
<path
   d="m 57.765768,50.371865 -1.661744,0 c -1.143509,0 -2.052806,-0.887047 -2.263703,-2.208021 -0.01281,-0.05224 -0.462066,-2.025708 -0.530952,-2.734703 -0.05404,-0.565066 0.133532,-1.11947 0.529894,-1.557662 0.435571,-0.482972 1.085219,-0.770836 1.736988,-0.770836 l 2.307154,0 c 0.261767,0 0.474783,0.214299 0.474783,0.47764 0,0.263342 -0.213016,0.47764 -0.474783,0.47764 l -2.307154,0 c -0.388941,0 -0.775763,0.171653 -1.034352,0.458449 -0.214075,0.236689 -0.315814,0.529884 -0.288262,0.823077 0.06252,0.648227 0.511878,2.62489 0.517177,2.644081 0.109166,0.679145 0.518235,1.435054 1.332152,1.435054 l 1.661741,0 c 0.261769,0 0.474786,0.214298 0.474786,0.477638 0.0011,0.263345 -0.211958,0.477643 -0.473725,0.477643 z"
   id="path53"
   inkscape:connector-curvature="0"
   style="fill:#ffffff" />
<path
   d="m 30.785744,39.277389 c -0.154727,0 -0.305217,-0.07569 -0.397421,-0.215365 -3.25778,-4.981106 -6.466812,-14.034949 -6.601403,-14.418768 -0.08795,-0.248417 0.04132,-0.521353 0.289321,-0.609844 0.24693,-0.08742 0.518235,0.04158 0.606196,0.291063 0.03286,0.09276 3.305473,9.328912 6.499667,14.212998 0.14413,0.220695 0.08372,0.517087 -0.135662,0.661019 -0.08054,0.05331 -0.171687,0.0789 -0.260708,0.0789 z"
   id="path55"
   inkscape:connector-curvature="0"
   style="fill:#ffffff" />
<path
   d="m 16.881356,25.05053 c -0.05406,0 -0.1081,-0.0085 -0.162148,-0.02878 -0.899757,-0.327311 -1.509135,-0.83054 -1.810112,-1.495824 -0.277665,-0.614109 -0.271307,-1.338033 0.01907,-2.095007 0.399539,-1.040574 1.461444,-3.804064 4.167077,-8.839547 2.62509,-4.886216 6.059854,-9.453652 6.094827,-9.499497 0.157908,-0.210032 0.455707,-0.250548 0.665547,-0.09169 0.208776,0.159926 0.249049,0.459514 0.09115,0.669548 -0.03391,0.04477 -3.426285,4.556775 -6.015343,9.375824 -2.677018,4.982173 -3.723026,7.70515 -4.116206,8.729731 -0.136713,0.357165 -0.25541,0.881715 -0.04132,1.35509 0.190762,0.422201 0.617856,0.756976 1.268563,0.993663 0.245871,0.08955 0.374106,0.363561 0.285084,0.611977 -0.06995,0.194042 -0.252229,0.314518 -0.44617,0.314518 z"
   id="path57"
   inkscape:connector-curvature="0"
   style="fill:#ffffff" />
<path
   d="m 32.680641,71.695093 c -3.105172,0 -7.007303,-0.06825 -10.129432,-0.305987 C 20.114761,71.203592 17.756738,71.156682 15.477141,71.110837 12.90822,71.059662 10.251336,71.006353 7.5446442,70.751541 5.3074366,70.54044 3.7834649,69.913538 3.0151202,68.886824 2.3898466,68.050954 2.5117222,67.273721 2.5276189,67.18843 c 0.04875,-0.259079 0.2967399,-0.429665 0.5542678,-0.381687 0.2554084,0.04905 0.4249742,0.294261 0.3804631,0.551205 -0.00425,0.03091 -0.059348,0.477641 0.3317128,0.980869 0.4207351,0.540544 1.4275314,1.233549 3.8385438,1.460642 2.6727786,0.251613 5.1929496,0.302789 7.8625506,0.355032 2.292315,0.04584 4.663058,0.09276 7.125997,0.280399 0.20984,0.01599 0.423915,0.03092 0.640111,0.04584 -1.883238,-0.212168 -3.848082,-0.464847 -5.826701,-0.768703 -0.258588,-0.03945 -0.436632,-0.283599 -0.39742,-0.543741 0.03922,-0.260145 0.280844,-0.437127 0.540491,-0.399811 7.863611,1.207961 15.503605,1.613103 18.765625,1.786887 1.898075,0.101278 1.898075,0.101278 1.894896,0.577859 -0.0032,0.468046 -0.467364,0.48617 -0.716415,0.495765 -0.838289,0.03199 -2.639925,0.0661 -4.8411,0.0661 z"
   id="path59"
   inkscape:connector-curvature="0"
   style="fill:#ffffff" />
<path
   d="m 14.826431,86.346285 c -0.203477,0 -0.393179,-0.01065 -0.562746,-0.02985 l -3.666859,0.0032 c -3.3287858,0 -5.2607752,-1.491559 -5.9061847,-4.558908 -0.6528278,-3.098264 -1.0735628,-8.062312 -1.0915791,-8.272345 -0.022255,-0.262276 0.1716852,-0.493634 0.4334523,-0.516022 0.2564681,-0.01599 0.4906807,0.172717 0.5129364,0.436059 0.00425,0.05118 0.4334523,5.114377 1.0735627,8.155069 0.5457897,2.592905 2.1280497,3.800865 4.9778124,3.800865 l 3.719848,0 c 0.198182,0.02025 3.66686,0.359298 4.446861,-2.705917 0.773644,-3.044956 0.98666,-7.326662 0.988781,-7.369309 0.01281,-0.263341 0.235274,-0.459514 0.497038,-0.454183 0.261768,0.01281 0.464186,0.236687 0.451469,0.50003 -0.0085,0.179113 -0.219375,4.422437 -1.016334,7.560149 -0.701578,2.754963 -3.230227,3.451167 -4.858058,3.451167 z"
   id="path61"
   inkscape:connector-curvature="0"
   style="fill:#ffffff" />
<path
   d="m 31.822214,67.628755 c -0.01695,0 -0.03391,-0.0011 -0.05086,-0.0032 -0.03496,-0.0042 -3.570418,-0.378487 -7.738553,-0.53521 -2.43009,-0.08955 -3.873518,0.262275 -4.490314,0.413669 -0.367745,0.08955 -0.714294,0.17485 -0.911415,-0.16632 -0.197119,-0.342239 0.05934,-0.615176 0.24693,-0.814549 0.733372,-0.778298 2.383458,-2.004383 2.453405,-2.055559 0.210896,-0.156725 0.508697,-0.110878 0.664485,0.101278 0.155789,0.212164 0.110216,0.511757 -0.100675,0.668483 -0.01065,0.0075 -0.714296,0.530949 -1.38938,1.091749 0.830873,-0.136468 2.008294,-0.251614 3.563001,-0.192975 4.202049,0.15779 7.767168,0.536277 7.803202,0.539478 0.260706,0.02772 0.449347,0.263342 0.421795,0.525618 -0.02543,0.246283 -0.232093,0.42753 -0.471605,0.42753 z"
   id="path63"
   inkscape:connector-curvature="0"
   style="fill:#ffffff" />
<path
   d="m 8.8948111,31.23853 c -0.168506,0 -0.3317128,-0.09061 -0.4175555,-0.250547 C 8.4486414,30.934676 7.7640198,29.652084 7.5563019,28.353499 7.3718991,27.206307 7.0507841,26.498377 5.952846,26.277681 4.59844,26.004743 1.8546549,25.628389 1.8271004,25.624125 1.7190028,25.6092 1.6204422,25.558021 1.5451976,25.47806 c 0,0 -0.3539684,-0.379553 -0.470545,-0.534145 -0.12187537,-0.163124 -0.45994698,-0.717528 -0.45994698,-0.717528 -0.0943213,-0.153527 -0.0932606,-0.347569 0.002116,-0.501096 0.0943213,-0.153527 0.27024549,-0.239885 0.44722968,-0.222827 l 6.4498556,0.594916 c 0.6030181,0.09276 1.8906578,0.114088 2.2096535,-0.379553 0.4429896,-0.683409 0.5086966,-1.526743 0.5659246,-2.270922 0.01059,-0.131143 0.02013,-0.258011 0.03179,-0.379555 0.06995,-0.742048 -0.183343,-1.779423 -0.185462,-1.789018 -0.06041,-0.245217 0.07949,-0.496832 0.320055,-0.571463 0.238451,-0.07356 0.497039,0.05118 0.585001,0.287864 0.02756,0.07356 0.669786,1.826334 0.648589,4.579164 -0.0022,0.262276 -0.214077,0.47444 -0.474783,0.47444 -0.0011,0 -0.0021,0 -0.0042,0 -0.192883,-0.0011 -0.358209,-0.118333 -0.431334,-0.285731 -0.07312,0.162058 -0.158968,0.323048 -0.259648,0.478707 -0.7397299,1.140792 -2.8804968,0.843332 -3.122128,0.806019 L 1.9818292,24.548367 c 0.047689,0.05331 0.097499,0.108748 0.1398917,0.154595 0.6252736,0.08742 2.813731,0.397678 4.0165877,0.639696 1.7263908,0.347569 2.1587834,1.640823 2.353784,2.860511 0.1822832,1.136529 0.8128553,2.319968 0.8192144,2.332761 0.1250546,0.232423 0.038155,0.521354 -0.1918216,0.647161 -0.071004,0.03732 -0.1483694,0.05544 -0.2246743,0.05544 z"
   id="path65"
   inkscape:connector-curvature="0"
   style="fill:#ffffff" />
<path
   d="m 10.62862,28.106149 -2.7406053,0 c -0.2617671,0 -0.4747839,-0.2143 -0.4747839,-0.477642 0,-0.263341 0.2130168,-0.477639 0.4747839,-0.477639 l 2.7406053,0 c 0.261767,0 0.474785,0.214298 0.474785,0.477639 0,0.263342 -0.213018,0.477642 -0.474785,0.477642 z"
   id="path67"
   inkscape:connector-curvature="0"
   style="fill:#ffffff" />
<path
   d="m 6.6374677,27.099691 c -0.4800829,0 -1.1742426,-0.07249 -2.1651422,-0.308118 C 2.2467758,26.262755 1.6204422,25.578278 1.5176431,25.446075 1.3554959,25.23924 1.3915278,24.938582 1.597126,24.77546 c 0.2013593,-0.160989 0.4938601,-0.129012 0.658127,0.0693 0.027555,0.02878 0.5606265,0.571463 2.4353873,1.017118 1.8705218,0.444589 2.4587028,0.227093 2.4650616,0.226026 0.2320929,-0.124738 0.5055177,-0.03199 0.6295127,0.200439 0.1239939,0.232423 0.024375,0.528815 -0.2066583,0.653557 -0.096441,0.05331 -0.3635064,0.157791 -0.9410896,0.157791 z"
   id="path69"
   inkscape:connector-curvature="0"
   style="fill:#ffffff" />
<path
   d="m 1.0206036,24.455613 c -0.19182128,0 -0.37198485,-0.117283 -0.44405021,-0.308123 C 0.56912739,24.128305 0.40168878,23.680512 0.20138925,22.812657 0.05937763,22.197483 -0.08475296,21.390396 0.0604369,20.613166 0.22152435,19.750641 0.66981371,19.114143 1.6098436,18.419006 2.8148199,17.526629 5.4971374,17.470122 8.1413027,17.48718 l 0.5553278,0.0032 c 1.6638635,0 2.2764185,1.042705 2.3675615,1.592845 0.04345,0.260143 -0.131415,0.506427 -0.390002,0.550139 -0.256467,0.04371 -0.499158,-0.128999 -0.545789,-0.385945 -0.01907,-0.08848 -0.2066579,-0.801753 -1.4317701,-0.801753 l -0.5616865,-0.0032 c -1.7179126,-0.01382 -4.9099869,-0.03411 -5.9623541,0.746313 -0.8499482,0.629035 -1.0809816,1.078957 -1.17848186,1.600307 -0.11233759,0.603449 0.0116578,1.28366 0.13247386,1.808212 0.1844027,0.797488 0.335952,1.209026 0.3380717,1.213292 0.0922,0.246282 -0.031794,0.522417 -0.2766041,0.615174 -0.055108,0.02025 -0.1123376,0.02985 -0.1674461,0.02985 z"
   id="path71"
   inkscape:connector-curvature="0"
   style="fill:#ffffff" />
<path
   d="m 4.8231146,23.67305 c -0.1070383,0 -0.1971201,-0.0095 -0.2532888,-0.01599 L 4.1957215,23.619741 C 2.7162606,23.479007 1.0799516,23.287097 0.38261266,22.77001 0.17171522,22.613285 0.12614462,22.31476 0.28193297,22.101528 c 0.15684834,-0.213233 0.45358831,-0.258012 0.6644856,-0.101279 0.54367013,0.403009 2.57421943,0.594919 3.33832493,0.667416 0.157908,0.01493 0.2903813,0.02772 0.390001,0.03838 0.056169,0.0065 0.1017391,0.0085 0.1377716,0.0095 -0.00954,-0.03194 -0.022255,-0.07139 -0.040272,-0.119356 C 4.7181948,22.455493 4.708657,22.429905 3.9562093,22.263584 3.7516707,22.217741 3.5110994,22.1655 3.2270767,22.094064 1.3417181,21.624953 0.36141641,21.149443 0.32008477,21.129188 0.08481226,21.014035 -0.01268802,20.728312 0.10176883,20.491622 0.2162264,20.25387 0.50130804,20.154716 0.73658041,20.270928 c 0.008477,0.0042 0.94320919,0.455251 2.71941019,0.896641 0.2744844,0.06823 0.5065774,0.119398 0.7047574,0.163124 0.781062,0.172717 1.2516069,0.277201 1.498537,0.923295 0.065707,0.171651 0.2649464,0.693005 -0.037093,1.087485 -0.2140767,0.278268 -0.5521483,0.331577 -0.7990784,0.331577 z"
   id="path73"
   inkscape:connector-curvature="0"
   style="fill:#ffffff" />
<path
   d="m 6.8398866,21.890428 c -1.783619,0 -4.3811537,-0.869989 -5.3466185,-1.217558 -0.2469301,-0.0885 -0.3751642,-0.362494 -0.2872021,-0.61091 0.087961,-0.248415 0.3603271,-0.378487 0.6072574,-0.288929 2.4597625,0.884914 5.4102057,1.501155 5.8818105,1.007522 0.9538075,-0.997927 1.5578846,-1.945744 1.5642438,-1.955341 0.1409524,-0.222826 0.4345114,-0.287863 0.6549477,-0.147128 0.2214956,0.141793 0.2861416,0.437126 0.1462506,0.658888 -0.0265,0.04158 -0.6570678,1.034174 -1.6808207,2.105668 -0.3083976,0.324113 -0.8658449,0.447788 -1.5398687,0.447788 z"
   id="path75"
   inkscape:connector-curvature="0"
   style="fill:#ffffff" />
<path
   d="m 8.8301646,24.455613 c -0.03285,0 -0.066769,-0.0032 -0.099619,-0.01065 -0.2564679,-0.05544 -0.4196749,-0.309188 -0.3656258,-0.5672 l 0,0 c 0,0 0.063588,-0.437126 -0.2638867,-1.1941 -0.3136966,-0.728207 -0.5383712,-0.93504 -0.5754636,-0.965959 -0.2098377,-0.11195 -0.3073379,-0.36676 -0.2193758,-0.594918 0.094321,-0.246284 0.3698652,-0.368893 0.6146756,-0.272937 0.1907616,0.07462 0.5818225,0.362494 1.051308,1.453177 0.4546478,1.053369 0.335952,1.703726 0.3211147,1.774094 -0.047684,0.224959 -0.243751,0.378487 -0.4631261,0.378487 z"
   id="path77"
   inkscape:connector-curvature="0"
   style="fill:#ffffff" />
<path
   d="m 34.853201,1.844459 c -0.24481,0 -0.452528,-0.188711 -0.472664,-0.439259 C 34.359337,1.141859 34.554343,0.911568 34.81505,0.890244 34.924216,0.881744 45.777473,0 53.333745,0 l 6.094828,0 c 0.261765,0 0.474782,0.214299 0.474782,0.47764 0,0.263342 -0.213017,0.47764 -0.474782,0.47764 l -6.094828,0 c -7.51706,0 -18.333233,0.878518 -18.441332,0.888114 -0.01281,0 -0.0265,0.0011 -0.03922,0.0011 z"
   id="path79"
   inkscape:connector-curvature="0"
   style="fill:#ffffff" />
<path
   d="m 35.119207,2.493751 c -1.136089,0 -1.740168,-0.195108 -1.972261,-0.619438 -0.162147,-0.296394 -0.07842,-0.599183 0.04239,-0.769768 0.15261,-0.214301 0.44935,-0.264411 0.662366,-0.110892 0.140958,0.101278 0.209837,0.265474 0.19712,0.42753 0.180164,0.06397 0.652828,0.159924 1.794216,0.09382 0.268129,-0.02452 0.486442,0.185514 0.501281,0.448854 0.01482,0.263343 -0.184403,0.489371 -0.446171,0.504296 -0.284022,0.01706 -0.543669,0.02559 -0.778943,0.02559 z"
   id="path81"
   inkscape:connector-curvature="0"
   style="fill:#ffffff" />
<path
   d="m 34.234287,23.889479 c -0.176985,0 -0.346551,-0.100213 -0.428153,-0.270804 -0.05829,-0.121542 -1.421173,-3.009773 -1.339569,-6.035539 0.07842,-2.91382 0.634811,-4.506666 3.460199,-5.125039 1.77938,-0.389149 7.684505,-1.397738 8.909619,1.974532 1.062965,2.926612 0.49386,6.921519 -0.704756,8.816087 -0.140959,0.222829 -0.434514,0.289997 -0.654949,0.147131 -0.221496,-0.141793 -0.286143,-0.437127 -0.14625,-0.658888 1.054484,-1.667476 1.566363,-5.353197 0.613614,-7.975953 -0.764104,-2.104603 -4.68743,-2.052361 -7.815918,-1.368951 -2.07718,0.454184 -2.634628,1.320973 -2.713052,4.216667 -0.07524,2.790145 1.233591,5.568562 1.246308,5.596282 0.113396,0.237755 0.01382,0.523486 -0.222556,0.637565 -0.06572,0.03199 -0.135661,0.0469 -0.204537,0.0469 z"
   id="path83"
   inkscape:connector-curvature="0"
   style="fill:#ffffff" />
<path
   d="m 9.4469592,70.899738 c -1.4391887,0 -2.5212297,-0.382753 -3.2153895,-1.137595 C 5.3826814,68.838848 5.4600459,67.708715 5.464285,67.660738 5.484421,67.397397 5.7101553,67.194825 5.9751017,67.22148 c 0.2607072,0.02025 0.454648,0.248415 0.4366317,0.509627 -0.00212,0.03304 -0.041332,0.78256 0.5277732,1.392406 0.5086971,0.544808 1.3522865,0.820942 2.5085126,0.820942 0.2617673,0 0.4747844,0.214299 0.4747844,0.47764 0,0.263345 -0.2130171,0.477643 -0.4758444,0.477643 z"
   id="path85"
   inkscape:connector-curvature="0"
   style="fill:#ffffff" />
<path
   d="m 17.996251,69.538247 c -0.179104,0 -0.350789,-0.102343 -0.431333,-0.276133 -0.06995,-0.151395 -0.04876,-0.360364 0.04345,-0.498965 0.199241,-0.300658 0.668727,-1.004324 13.822787,-0.43606 7.584884,0.328378 9.919593,0.06076 10.633888,-0.118348 -0.02331,-0.101279 -0.01382,-0.208968 0.03284,-0.308122 0.113397,-0.238818 0.387881,-0.345436 0.624214,-0.231356 0.362446,0.174851 0.545791,0.494699 0.466305,0.815614 -0.127171,0.514955 -0.321114,1.292187 -11.797533,0.796422 -10.650848,-0.461647 -12.679277,-0.03625 -13.030066,0.0853 -0.04345,0.05331 -0.09856,0.09702 -0.164266,0.127933 -0.06572,0.02878 -0.133532,0.04371 -0.200299,0.04371 z"
   id="path87"
   inkscape:connector-curvature="0"
   style="fill:#ffffff" />
<path
   d="m 94.582722,75.797682 c -2.450224,0 -4.669415,-0.345436 -7.116461,-0.726055 -2.367562,-0.367825 -4.816724,-0.749512 -7.876327,-0.890247 -7.694045,-0.353964 -22.501368,-0.292126 -22.650798,-0.291061 -0.0011,0 -0.0011,0 -0.0022,0 -0.260708,0 -0.473724,-0.212165 -0.474783,-0.475508 -0.0011,-0.263341 0.210897,-0.478706 0.472663,-0.479773 0.148371,-0.0011 14.980071,-0.06291 22.698489,0.292129 3.111532,0.142858 5.697407,0.544809 7.978067,0.899839 3.534386,0.550141 6.584449,1.024582 10.53109,0.457386 2.587998,-0.372091 5.059428,-0.398746 7.045468,-0.420069 2.90275,-0.03092 5.19506,-0.0565 5.55009,-1.129065 0.69734,-2.105669 1.8366,-13.564771 1.71686,-17.269683 -0.0297,-0.903039 -0.0414,-1.939347 -0.0552,-3.051355 -0.0403,-3.324291 -0.0901,-7.460996 -0.64965,-10.573122 -0.77364,-4.298763 -1.81753,-6.859683 -3.60432,-8.840612 -0.65813,-0.729254 -1.06933,-1.077887 -1.39998,-1.358289 -0.71218,-0.604514 -1.07251,-0.958478 -2.15031,-2.996979 -0.63799,-1.205828 -0.87644,-2.082214 -1.17954,-3.191022 -0.50552,-1.85299 -1.19862,-4.390453 -4.322871,-10.427059 -2.569981,-4.96618 -4.829443,-7.892794 -6.580209,-9.65196 3.009791,3.792336 6.319501,10.541139 7.355973,12.857908 0.216197,0.481905 0.437697,0.926493 0.644357,1.339097 0.82451,1.648287 1.53669,3.07268 0.2872,4.329684 -1.088405,1.094948 -4.33241,1.028844 -8.461334,0.83054 -0.730193,-0.03519 -1.417994,-0.06823 -2.014652,-0.08316 -3.336206,-0.08424 -25.57263,-0.28893 -32.957215,-0.28893 -0.261769,0 -0.474786,-0.2143 -0.474786,-0.477641 0,-0.263342 0.213017,-0.47764 0.474786,-0.47764 7.387764,0 29.640086,0.204702 32.980528,0.288928 0.603018,0.01493 1.298239,0.04906 2.035848,0.08424 2.735309,0.133273 6.867413,0.331576 7.744915,-0.551206 0.73338,-0.737783 0.38789,-1.521412 -0.464187,-3.225138 -0.211957,-0.424332 -0.43981,-0.88065 -0.662366,-1.376414 C 97.962218,16.602278 94.611176,9.767117 91.62788,6.09419 88.904229,2.742179 87.302894,2.920229 87.285937,2.919163 87.061263,2.953273 86.841886,2.818949 86.766642,2.60571 c -0.07418,-0.214298 0.0032,-0.44992 0.19606,-0.566132 0.10492,-0.06397 1.066147,-0.592784 2.602833,0.226027 1.309896,0.69727 5.29575,2.821064 10.368943,12.622285 3.170882,6.127231 3.879882,8.721201 4.396002,10.615769 0.29886,1.092817 0.51399,1.882842 1.10217,2.995914 1.03753,1.962803 1.33321,2.214417 1.92457,2.715514 0.35185,0.298525 0.79061,0.670615 1.49006,1.446781 1.91716,2.124859 3.02781,4.823315 3.83536,9.311855 0.57441,3.192088 0.62422,7.372507 0.66449,10.73198 0.0138,1.104544 0.0255,2.134456 0.0552,3.032164 0.11551,3.559913 -0.97289,15.213057 -1.76561,17.60339 -0.56911,1.718654 -3.03204,1.745307 -6.44032,1.782623 -2.06022,0.02239 -4.39493,0.0469 -6.921462,0.410471 -1.314135,0.185514 -2.529709,0.263343 -3.692294,0.263343 z"
   id="path89"
   inkscape:connector-curvature="0"
   style="fill:#ffffff" />
<path
   d="m 88.194334,4.888351 c -0.771523,0 -1.965902,-0.09597 -3.845963,-0.246283 C 83.044836,4.537566 81.44138,4.409643 79.498792,4.276373 71.45714,3.726234 57.860088,3.719838 57.724436,3.719838 c -0.261767,0 -0.474784,-0.214299 -0.474784,-0.477642 0,-0.263341 0.213017,-0.47764 0.474784,-0.47764 0.136712,0 13.765556,0.0065 21.840063,0.558669 1.946828,0.133273 3.553462,0.26121 4.860177,0.365694 1.923513,0.153527 3.418869,0.272938 4.091832,0.239886 C 87.612513,2.894628 86.595117,2.585443 84.737314,2.197359 83.358531,1.909495 81.599288,1.856188 80.767356,1.848723 c -0.01166,0.02772 -0.02438,0.05544 -0.04027,0.08209 -0.25647,0.459515 -0.929434,0.616242 -2.18528,0.51389 C 75.826633,2.219745 65.127037,1.80181 59.784657,1.80181 l -2.937726,0 c -0.262826,0 -0.474783,-0.214298 -0.474783,-0.477639 0,-0.263343 0.211957,-0.477642 0.474783,-0.477642 l 2.937726,0 c 5.361455,0 16.105564,0.420068 18.83557,0.646093 0.705818,0.05865 1.04601,0.01281 1.199678,-0.02878 -0.02013,-0.105553 -0.0053,-0.216432 0.04557,-0.313453 0.08054,-0.153527 0.236333,-0.253746 0.409076,-0.256944 0.108101,-0.0022 2.687618,-0.04264 4.65564,0.367825 1.939409,0.405142 3.298054,0.780429 4.466996,2.237873 0.274484,0.342239 0.341253,0.655689 0.197123,0.930758 -0.170628,0.327313 -0.495982,0.458451 -1.399979,0.458451 z"
   id="path91"
   inkscape:connector-curvature="0"
   style="fill:#ffffff" />
<path
   d="m 95.689138,24.27543 c -0.464186,0 -0.98454,-0.04158 -1.555765,-0.08637 -0.630573,-0.04905 -1.344867,-0.105553 -2.149245,-0.126868 -0.712177,-0.01919 -1.957425,-0.03518 -3.512131,-0.0565 -4.952379,-0.0661 -13.242022,-0.176982 -17.215157,-0.542676 -5.108167,-0.471241 -13.30031,-0.672747 -13.382975,-0.67488 l -0.282962,0 c -0.261767,0 -0.474785,-0.214298 -0.474785,-0.47764 0,-0.263341 0.213018,-0.47764 0.474785,-0.47764 l 0.29462,0 c 0.09433,0.0022 8.317197,0.204702 13.458219,0.679145 3.936044,0.362495 12.201312,0.473376 17.140974,0.539477 1.560003,0.02131 2.809491,0.03732 3.523787,0.0565 0.828752,0.02133 1.556824,0.0789 2.199054,0.128998 1.668104,0.131142 2.485197,0.171654 2.808432,-0.34437 0.54897,-0.877451 -0.317935,-2.784814 -1.414812,-5.199669 C 94.347449,14.93478 90.632902,8.074031 89.670616,7.031325 88.735884,6.018471 88.487895,5.823363 86.235851,5.71035 85.308539,5.66345 83.335217,5.518442 81.050319,5.351053 77.507455,5.090911 73.490869,4.795584 72.370675,4.795584 l -0.254349,0 c -1.755006,-0.0065 -2.484139,0.02132 -3.094575,0.620506 -0.151549,0.148196 -0.277663,0.28893 -0.394241,0.416868 -0.521414,0.575728 -0.971823,1.07256 -2.390874,1.07256 -0.775765,0 -2.298677,-0.05224 -3.770719,-0.103423 -1.440248,-0.04903 -2.801014,-0.09595 -3.470797,-0.09595 l -2.602834,0 c -0.261769,0 -0.474785,-0.2143 -0.474785,-0.477642 0,-0.263341 0.213016,-0.47764 0.474785,-0.47764 l 2.602834,0 c 0.686741,0 2.054923,0.0469 3.502591,0.09702 1.464623,0.05011 2.979058,0.102343 3.738925,0.102343 1.000437,0 1.215573,-0.237754 1.689296,-0.760173 0.128236,-0.140742 0.267068,-0.29426 0.432392,-0.457384 0.911418,-0.895575 1.98392,-0.893443 3.759061,-0.892375 l 0.25329,0 c 1.155165,0 5.189771,0.296392 8.748531,0.557602 2.184217,0.160989 4.24762,0.312383 5.164334,0.358229 2.47566,0.124738 2.952564,0.399811 4.083355,1.62483 1.117014,1.210093 4.886671,8.247826 6.099066,10.914296 1.310955,2.885033 2.17786,4.792395 1.355466,6.105906 -0.436632,0.695137 -1.161524,0.874253 -2.132289,0.874253 z"
   id="path93"
   inkscape:connector-curvature="0"
   style="fill:#ffffff" />
<path
   d="m 100.16886,39.667603 c -0.0212,0 -0.0424,-0.0011 -0.0636,-0.0042 -0.259655,-0.03518 -0.441938,-0.27507 -0.408024,-0.536278 0.0085,-0.06718 0.883864,-6.737075 0.767284,-10.790619 -0.0678,-2.349821 -0.548969,-3.114259 -0.832992,-3.361609 -0.826631,1.636557 -4.238082,8.165731 -8.371247,12.925075 -0.172745,0.198307 -0.472665,0.218564 -0.669785,0.04584 -0.197119,-0.173785 -0.217256,-0.475508 -0.04557,-0.673814 4.65246,-5.354263 8.387145,-13.019963 8.424237,-13.096726 0.06888,-0.142872 0.204538,-0.24202 0.361386,-0.26441 0.07418,-0.01281 0.472665,-0.04477 0.905071,0.323046 0.72171,0.614109 1.11807,1.985193 1.17848,4.077002 0.11869,4.131376 -0.73867,10.668012 -0.77471,10.945215 -0.0318,0.236687 -0.23633,0.411538 -0.47054,0.411538 z"
   id="path95"
   inkscape:connector-curvature="0"
   style="fill:#ffffff" />
<path
   d="m 59.271722,42.414035 -2.334707,0 c -0.261767,0 -0.474783,-0.214299 -0.474783,-0.47764 0,-0.263342 0.213016,-0.47764 0.474783,-0.47764 l 23.901347,0 c 0.02225,0 2.949383,-0.05011 7.755512,-0.868923 1.872641,-0.318781 3.877754,-0.626902 5.817163,-0.924362 3.106232,-0.476574 6.039723,-0.92756 7.767173,-1.326305 l 0.3794,-0.08742 c 2.23509,-0.516021 5.21521,-1.203695 6.31844,-1.836996 -0.21832,-0.351834 -0.68568,-0.946751 -1.56954,-1.470236 -1.67446,-0.993666 -2.12593,-1.44785 -2.70987,-3.631348 -0.44193,-1.650417 -0.73973,-3.159037 -1.05555,-4.756147 l -0.2607,-1.304981 c -0.0519,-0.25801 0.11339,-0.510691 0.36986,-0.564 0.25753,-0.05331 0.50764,0.114087 0.56063,0.372091 l 0.26071,1.309246 c 0.31263,1.581117 0.60831,3.07481 1.04176,4.694309 0.5246,1.960671 0.84571,2.208021 2.27537,3.056686 1.67234,0.992596 2.12699,2.229341 2.145,2.280517 0.0635,0.180183 0.0149,0.382753 -0.12505,0.511758 -0.85843,0.796422 -3.45914,1.443583 -7.0391,2.268792 l -0.37834,0.08743 c -1.76137,0.407273 -4.712874,0.860392 -7.837123,1.340165 -1.935168,0.297458 -3.937103,0.604512 -5.802325,0.922229 -4.886672,0.832672 -7.787306,0.880649 -7.908121,0.882782 l -21.571939,0 z"
   id="path97"
   inkscape:connector-curvature="0"
   style="fill:#ffffff" />
<path
   d="m 76.082044,55.744252 c -0.211958,0 -0.403779,-0.142872 -0.458887,-0.358232 -0.06571,-0.25481 0.0869,-0.516021 0.34125,-0.582124 2.82221,-0.733519 6.521921,-1.08002 10.437829,-1.447846 2.838107,-0.266541 5.772653,-0.54161 8.770788,-0.984065 1.119133,-0.165257 2.21919,-0.312386 3.286394,-0.455253 5.596732,-0.748445 10.429352,-1.395605 11.338652,-3.856305 0.63693,-1.722917 0.72595,-3.407454 0.6825,-4.554642 -0.75033,0.73885 -1.96485,1.228218 -3.44536,1.824201 -0.30946,0.124738 -0.63269,0.254813 -0.96759,0.393415 -1.7497,0.72499 -4.22112,1.403069 -6.402165,2.002251 -1.233591,0.339039 -2.399356,0.658888 -3.329847,0.957413 -2.36968,0.75804 -5.519364,1.605638 -7.071951,1.328437 -1.28446,-0.228159 -3.055361,-0.19191 -3.073378,-0.19191 -0.164267,-0.0085 -0.324294,-0.08209 -0.413316,-0.22496 -0.08902,-0.142872 -0.09538,-0.321981 -0.01907,-0.472309 0.0065,-0.01281 0.63799,-1.245277 1.338509,-2.732572 0.69734,-1.479832 1.756064,-4.224132 1.766663,-4.251853 0.09431,-0.24628 0.369864,-0.368891 0.614674,-0.272935 0.243752,0.09595 0.365626,0.37209 0.271306,0.618372 -0.04345,0.113023 -1.0831,2.804006 -1.794217,4.314756 -0.384702,0.81668 -0.749269,1.557662 -1.002556,2.066222 0.668723,0.01281 1.650085,0.05865 2.475658,0.204703 1.04707,0.187644 3.460201,-0.286798 6.619422,-1.298585 0.949568,-0.303856 2.12381,-0.626902 3.367998,-0.968076 2.15349,-0.59172 4.59524,-1.261268 6.28983,-1.963868 0.33807,-0.139677 0.66449,-0.270806 0.97712,-0.397678 2.26371,-0.910504 3.45278,-1.43932 3.64249,-2.584376 0.0371,-0.226027 0.22998,-0.39448 0.45888,-0.398746 0.22997,-0.01281 0.4271,0.154595 0.47479,0.379555 0.0276,0.131143 0.65495,3.238998 -0.56911,6.55476 -1.10747,2.999113 -5.96023,3.648404 -12.103811,4.470416 -1.062965,0.141807 -2.159844,0.288929 -3.273679,0.453118 -3.022509,0.445656 -5.969771,0.722857 -8.820596,0.990463 -3.877755,0.363562 -7.540373,0.706865 -10.2884,1.421194 -0.04132,0.01166 -0.0816,0.01705 -0.120809,0.01705 z"
   id="path99"
   inkscape:connector-curvature="0"
   style="fill:#ffffff" />
<path
   d="m 101.37489,45.470718 c -1.679763,0 -3.046886,-1.375346 -3.046886,-3.065212 0,-1.689867 1.367123,-3.065214 3.046886,-3.065214 1.67976,0 3.04689,1.375347 3.04689,3.065214 0,0.422199 -0.0837,0.83054 -0.24799,1.214358 -0.10386,0.242018 -0.38259,0.353966 -0.62422,0.24948 -0.24057,-0.104488 -0.35185,-0.385949 -0.24799,-0.627968 0.1134,-0.26334 0.17063,-0.543741 0.17063,-0.834805 0,-1.163182 -0.94109,-2.109932 -2.09732,-2.109932 -1.15622,0 -2.097317,0.94675 -2.097317,2.109932 0,1.163183 0.941097,2.109934 2.097317,2.109934 0.26177,0 0.47479,0.214299 0.47479,0.477642 0,0.262275 -0.21196,0.476571 -0.47479,0.476571 z"
   id="path101"
   inkscape:connector-curvature="0"
   style="fill:#ffffff" />
<path
   d="m 101.37489,44.65937 c -1.23571,0 -2.240388,-1.01072 -2.240388,-2.253864 0,-0.263343 0.213016,-0.47764 0.474784,-0.47764 0.261767,0 0.474784,0.214297 0.474784,0.47764 0,0.71646 0.57865,1.298583 1.29082,1.298583 0.71218,0 1.29082,-0.582123 1.29082,-1.298583 0,-0.71646 -0.57864,-1.298585 -1.29082,-1.298585 -0.26176,0 -0.47478,-0.214298 -0.47478,-0.477641 0,-0.26334 0.21302,-0.477639 0.47478,-0.477639 1.23571,0 2.24039,1.010721 2.24039,2.253865 0,1.243144 -1.00468,2.253864 -2.24039,2.253864 z"
   id="path103"
   inkscape:connector-curvature="0"
   style="fill:#ffffff" />
<path
   d="m 93.873725,47.201101 c -1.67976,0 -3.046883,-1.375349 -3.046883,-3.065216 0,-1.689865 1.367123,-3.065214 3.046883,-3.065214 1.67976,0 3.046885,1.375349 3.046885,3.065214 0,0.421135 -0.08373,0.829474 -0.24905,1.21436 -0.103869,0.242018 -0.382583,0.352897 -0.624213,0.24948 -0.240573,-0.104488 -0.351849,-0.385949 -0.247991,-0.627969 0.113397,-0.264408 0.170625,-0.544808 0.170625,-0.834804 0,-1.163181 -0.941089,-2.109935 -2.097315,-2.109935 -1.156227,0 -2.097316,0.946754 -2.097316,2.109935 0,1.163182 0.941089,2.109933 2.097316,2.109933 0.261767,0 0.474783,0.214299 0.474783,0.477641 0.0011,0.262275 -0.211957,0.476575 -0.473724,0.476575 z"
   id="path105"
   inkscape:connector-curvature="0"
   style="fill:#ffffff" />
<path
   d="m 93.873725,46.389751 c -1.235709,0 -2.240388,-1.01072 -2.240388,-2.253866 0,-0.26334 0.213019,-0.47764 0.474785,-0.47764 0.261768,0 0.474784,0.2143 0.474784,0.47764 0,0.716461 0.578644,1.298586 1.290819,1.298586 0.712175,0 1.29082,-0.582125 1.29082,-1.298586 0,-0.716461 -0.578645,-1.298585 -1.29082,-1.298585 -0.261766,0 -0.474783,-0.214298 -0.474783,-0.477638 0,-0.263343 0.213017,-0.477641 0.474783,-0.477641 1.23571,0 2.240387,1.01072 2.240387,2.253864 0,1.243146 -1.004677,2.253866 -2.240387,2.253866 z"
   id="path107"
   inkscape:connector-curvature="0"
   style="fill:#ffffff" />
<path
   d="m 92.867989,48.306709 c -0.03074,0 -0.06253,-0.0032 -0.09431,-0.0095 -1.0831,-0.220694 -3.103053,-1.33057 -2.996014,-3.951194 0.1293,-3.160103 2.458701,-4.2881 2.558321,-4.335012 0.238452,-0.110878 0.520357,-0.0075 0.630573,0.231358 0.110216,0.23882 0.0085,0.522418 -0.227853,0.634364 -0.0869,0.04158 -1.907614,0.954217 -2.011473,3.508739 -0.100674,2.45217 2.141827,2.956466 2.237207,2.976723 0.256469,0.05437 0.420734,0.307054 0.367746,0.563999 -0.04768,0.22496 -0.24375,0.380619 -0.464186,0.380619 z"
   id="path109"
   inkscape:connector-curvature="0"
   style="fill:#ffffff" />
<path
   d="m 90.569314,49.276917 c -0.463127,0 -0.861606,-0.06076 -1.253727,-0.120478 -0.24693,-0.03732 -0.49386,-0.07569 -0.757747,-0.0949 -0.872203,-0.0661 -1.142449,0.01065 -1.153046,0.01382 -0.240571,0.103423 -0.504458,-0.01382 -0.608319,-0.256944 -0.102804,-0.242018 0.02332,-0.528816 0.263889,-0.633299 0.115527,-0.05013 0.499159,-0.156727 1.567421,-0.07677 0.289323,0.02132 0.559568,0.06289 0.829814,0.103423 0.707938,0.107683 1.376661,0.210032 2.452344,-0.08743 l 0.902936,-0.246283 c 2.591177,-0.702603 8.659511,-2.347689 11.597241,-3.481017 l 0.62633,-0.242019 c 2.81585,-1.084285 3.48458,-1.341231 4.33347,-2.297579 0.6009,-0.675946 0.41013,-2.76029 0.14942,-3.914945 -0.0582,-0.256944 0.10171,-0.512824 0.35821,-0.571461 0.25647,-0.0565 0.51082,0.102343 0.56805,0.359296 0.0805,0.355032 0.75351,3.501273 -0.36669,4.763608 -1.00256,1.129067 -1.7868,1.43079 -4.70227,2.553457 l -0.62633,0.240953 c -2.98224,1.151454 -9.084487,2.806137 -11.68944,3.511937 l -0.898698,0.245217 c -0.627394,0.173782 -1.14033,0.231356 -1.592858,0.231356 z"
   id="path111"
   inkscape:connector-curvature="0"
   style="fill:#ffffff" />
<path
   d="m 64.613044,53.321933 -7.134477,0 c -0.261769,0 -0.474786,-0.214299 -0.474786,-0.477639 0,-0.263342 0.213017,-0.477642 0.474786,-0.477642 l 7.134477,0 c 2.082478,0 6.415941,0 11.736066,-2.116331 5.157977,-2.051295 8.986983,-4.827578 9.681141,-5.805249 0.732313,-1.030977 1.342749,-3.345613 1.348049,-3.369068 0.06678,-0.254815 0.328533,-0.406208 0.579702,-0.340108 0.253289,0.06718 0.404837,0.328379 0.339132,0.584257 -0.0265,0.101279 -0.661307,2.508678 -1.494299,3.680389 -0.857366,1.206896 -4.94814,4.086598 -10.105056,6.137892 -4.835801,1.924422 -8.822716,2.183499 -12.084735,2.183499 z"
   id="path113"
   inkscape:connector-curvature="0"
   style="fill:#ffffff" />
<path
   d="m 61.142245,52.009487 c -0.128235,0 -0.2003,-0.0011 -0.216196,-0.0011 l -3.673217,0 c -0.261768,0 -0.474784,-0.214297 -0.474784,-0.47764 0,-0.263341 0.213016,-0.47764 0.474784,-0.47764 l 3.680636,0 c 0.03179,-0.0011 2.668539,0.03411 8.194261,-0.396611 5.480153,-0.427532 7.978069,-2.251733 10.39438,-4.016231 2.312451,-1.6888 4.40129,-5.179412 4.422485,-5.214596 0.134597,-0.227093 0.426033,-0.301724 0.651768,-0.165255 0.224674,0.135403 0.29886,0.428598 0.164266,0.654623 -0.08902,0.150329 -2.207534,3.692117 -4.672594,5.491798 -2.413134,1.762365 -5.13996,3.752888 -10.887179,4.200676 -4.7436,0.371025 -7.326298,0.401942 -8.05861,0.401942 z"
   id="path115"
   inkscape:connector-curvature="0"
   style="fill:#ffffff" />
<path
   d="m 57.252832,57.741171 c -0.256467,0 -0.468427,-0.205766 -0.474784,-0.465911 -0.0065,-0.263343 0.201358,-0.482972 0.463127,-0.489368 0.04875,-0.0011 4.926943,-0.125803 11.323808,-0.727123 6.469993,-0.608778 7.283908,-0.756974 10.355166,-3.191022 1.159407,-0.919031 2.612372,-2.158976 3.982673,-3.356275 -1.381957,0.855062 -2.852942,1.735709 -4.133162,2.440443 -4.370556,2.405262 -8.812118,2.764557 -11.070521,2.764557 l -10.446307,0 c -0.261768,0 -0.474784,-0.214299 -0.474784,-0.47764 0,-0.263343 0.213016,-0.47764 0.474784,-0.47764 l 10.446307,0 c 2.167261,0 6.42972,-0.34437 10.614814,-2.647279 3.698652,-2.03637 9.014536,-5.563231 9.067524,-5.598414 0.206659,-0.136468 0.484324,-0.09169 0.636933,0.105553 0.152608,0.197239 0.128235,0.478706 -0.05511,0.646094 -0.05299,0.04797 -5.311647,4.862762 -8.454969,7.352249 -3.301233,2.615294 -4.4564,2.789079 -10.854325,3.39146 -6.43184,0.604513 -11.340767,0.730319 -11.389518,0.731386 -0.0032,-0.0011 -0.0075,-0.0011 -0.01166,-0.0011 z"
   id="path117"
   inkscape:connector-curvature="0"
   style="fill:#ffffff" />
<path
   d="m 64.336439,49.27585 -2.017833,0 c -0.261765,0 -0.474783,-0.214297 -0.474783,-0.47764 0,-0.263343 0.213018,-0.477641 0.474783,-0.477641 l 1.840848,0 0.934732,-0.813481 c 0.08585,-0.07569 0.197119,-0.116218 0.310518,-0.116218 l 2.311392,0 0.959106,-0.74738 c 0.08267,-0.06504 0.185464,-0.100213 0.29038,-0.100213 l 2.358023,0 1.159407,-0.994728 c 0.08585,-0.07356 0.195,-0.114088 0.308397,-0.114088 l 1.920332,0 1.525031,-1.455311 c 0.189702,-0.182313 0.489622,-0.17485 0.670845,0.01812 0.180164,0.190842 0.172745,0.493633 -0.01802,0.674879 l -1.661744,1.587515 c -0.08795,0.08422 -0.204539,0.131142 -0.326414,0.131142 l -1.935169,0 -1.159406,0.994729 c -0.08585,0.07356 -0.195001,0.114088 -0.308396,0.114088 l -2.370742,0 -0.959106,0.747378 c -0.08267,0.06504 -0.185462,0.100214 -0.29038,0.100214 l -2.297616,0 -0.934732,0.813483 c -0.08479,0.07462 -0.195,0.115152 -0.309457,0.115152 z"
   id="path119"
   inkscape:connector-curvature="0"
   style="fill:#ffffff" />
<path
   d="m 76.155169,70.759003 -18.54625,0 c -0.261767,0 -0.474784,-0.214298 -0.474784,-0.47764 0,-0.263341 0.213017,-0.47764 0.474784,-0.47764 l 18.54625,0 c 6.598225,0 11.02813,-0.470177 14.262597,-0.814547 0.93049,-0.09808 1.749705,-0.185513 2.476717,-0.245218 l 0.849949,-0.07143 c 2.571039,-0.215365 3.26202,-0.272937 4.097131,0.146064 0.497041,0.250548 0.671906,0.24948 2.096256,0.160989 0.368811,-0.02239 0.813921,-0.05011 1.360771,-0.07783 3.43582,-0.172716 5.9083,-0.439257 6.95961,-0.750577 0.6274,-0.185512 0.59878,-0.937155 0.39106,-2.489486 -0.0455,-0.343304 -0.0933,-0.695138 -0.12399,-1.042706 -0.21301,-2.388202 -0.83723,-3.865902 -1.90973,-4.517326 -1.20498,-0.731387 -2.02949,-0.61944 -3.39661,-0.437127 -0.19183,0.02559 -0.39107,0.05224 -0.6009,0.07783 -0.30204,0.03625 -7.467257,0.915832 -14.615511,2.198424 -5.454717,0.978737 -8.06179,2.353018 -8.483586,2.682462 -0.08689,0.101279 -0.215136,0.165256 -0.358207,0.165256 l -4.10031,0 c -0.261767,0 -0.474783,-0.214299 -0.474783,-0.47764 0,-0.263342 0.213016,-0.477643 0.474783,-0.477643 l 4.000691,0 c 1.050247,-0.796422 4.249741,-2.019309 8.776085,-2.831722 7.173689,-1.287925 14.365398,-2.16964 14.667438,-2.206956 0.20666,-0.02559 0.40272,-0.05118 0.5903,-0.07677 1.40952,-0.189776 2.52229,-0.337972 4.01235,0.566133 1.35016,0.819877 2.12275,2.536397 2.36438,5.249779 0.0297,0.334774 0.0752,0.671681 0.1187,1.001124 0.19394,1.451047 0.41331,3.096133 -1.06508,3.533259 -1.43707,0.4254 -4.69804,0.663152 -7.18005,0.787894 -0.54261,0.02772 -0.98348,0.05438 -1.350174,0.07677 -1.447668,0.08955 -1.836608,0.113023 -2.579518,-0.260144 -0.578643,-0.291061 -1.070385,-0.261208 -3.593733,-0.04905 l -0.851009,0.07143 c -0.720654,0.05971 -1.53245,0.146063 -2.454463,0.243086 -3.254602,0.346502 -7.71206,0.820944 -14.361155,0.820944 z"
   id="path121"
   inkscape:connector-curvature="0"
   style="fill:#ffffff" />
<path
   d="m 109.1145,68.44863 c -0.0922,0 -0.1844,-0.02665 -0.266,-0.08209 -0.21725,-0.148197 -0.27342,-0.444589 -0.12612,-0.663152 0.0911,-0.196174 -0.15155,-1.072558 -0.31263,-1.65255 l -0.0795,-0.286799 c -0.0657,-0.240953 -0.12611,-0.518156 -0.19077,-0.81988 -0.21831,-1.013919 -0.48961,-2.276255 -1.29081,-3.376534 -0.97819,-1.343363 -2.14501,-1.226085 -4.69379,-0.831605 -0.36775,0.0565 -0.75457,0.116217 -1.16259,0.173784 -2.941967,0.408341 -9.619676,1.513949 -15.203688,2.518274 -5.195069,0.933957 -7.071949,2.96073 -7.089965,2.980987 -0.174865,0.195108 -0.474786,0.2111 -0.669786,0.03519 -0.19394,-0.175917 -0.211956,-0.475508 -0.03815,-0.671682 0.0816,-0.09276 2.072941,-2.284785 7.631517,-3.284844 5.687869,-1.022449 12.239465,-2.107801 15.240782,-2.524671 0.40271,-0.05544 0.7853,-0.115152 1.14774,-0.170586 2.464,-0.381683 4.24444,-0.657821 5.60415,1.21116 0.92096,1.264468 1.22829,2.695258 1.45297,3.740096 0.0605,0.282531 0.11656,0.542676 0.17804,0.768703 l 0.0784,0.283598 c 0.30945,1.118404 0.53308,1.926552 0.18334,2.445774 -0.0922,0.134338 -0.24163,0.206835 -0.39318,0.206835 z"
   id="path123"
   inkscape:connector-curvature="0"
   style="fill:#ffffff" />
<path
   d="m 107.30969,68.050954 c -0.14943,0 -0.29568,-0.07036 -0.38788,-0.202572 -0.0318,-0.04584 -0.78,-1.135461 -0.69204,-2.612095 0.0858,-1.431855 -0.32217,-2.32743 -1.36288,-2.991648 -1.3862,-0.884916 -3.26732,-0.616242 -4.60159,-0.235622 -2.419499,0.689805 -5.269261,1.203696 -8.470874,1.527808 -1.476281,0.149264 -2.736366,0.205771 -3.95512,0.26121 -2.013592,0.09063 -3.753761,0.168454 -5.808685,0.648227 -0.256469,0.05758 -0.510817,-0.100214 -0.570165,-0.357165 -0.05935,-0.256944 0.09962,-0.513891 0.355027,-0.573595 2.139708,-0.498963 3.919088,-0.578925 5.980372,-0.671681 1.206036,-0.05437 2.452344,-0.110878 3.90213,-0.256945 3.146504,-0.318782 5.941159,-0.822012 8.307665,-1.496891 2.17998,-0.623704 4.03672,-0.502162 5.36993,0.347569 1.75501,1.120536 1.86947,2.736838 1.8027,3.85524 -0.0678,1.133329 0.51611,1.999051 0.52247,2.007582 0.14837,0.21643 0.0954,0.513889 -0.11869,0.664218 -0.0837,0.05865 -0.17805,0.08637 -0.27237,0.08637 z"
   id="path125"
   inkscape:connector-curvature="0"
   style="fill:#ffffff" />
<path
   d="m 100.60973,67.759891 c -3.671103,0 -4.621733,-1.252739 -5.040347,-2.344488 -0.01907,-0.05011 -0.03391,-0.09276 -0.04981,-0.123673 -0.07631,-0.102344 -0.101739,-0.220697 -0.08267,-0.34757 0.01907,-0.126868 0.09539,-0.230291 0.19924,-0.304922 0.0065,-0.0042 0.678262,-0.493634 1.751826,-1.4777 1.156227,-1.058698 4.716051,-2.359416 7.712061,-0.561867 0.22468,0.135402 0.29886,0.428598 0.16427,0.654623 -0.1346,0.227092 -0.42603,0.300659 -0.65071,0.165255 -2.62509,-1.57472 -5.732383,-0.33584 -6.585511,0.446721 -0.693099,0.635433 -1.220873,1.069362 -1.529271,1.312446 0.228914,0.561866 0.84465,1.624829 4.111972,1.624829 4.11303,0 5.71119,-1.945744 5.72708,-1.964935 0.16427,-0.205769 0.46207,-0.239886 0.66555,-0.07677 0.20454,0.163122 0.24163,0.46058 0.0805,0.667416 -0.0742,0.09595 -1.86311,2.330629 -6.47423,2.330629 z"
   id="path127"
   inkscape:connector-curvature="0"
   style="fill:#ffffff" />
<path
   d="m 104.96333,64.459057 c -0.15367,0 -0.30522,-0.0757 -0.39636,-0.214299 -0.64541,-0.979804 -2.33789,-1.487296 -2.93667,-1.600309 -0.25753,-0.04905 -0.42709,-0.298526 -0.3794,-0.557603 0.0487,-0.259077 0.29674,-0.43073 0.55427,-0.381685 0.10385,0.01919 2.55726,0.49683 3.55346,2.011845 0.14519,0.220697 0.0848,0.517089 -0.13353,0.662087 -0.0805,0.05437 -0.17169,0.07996 -0.26177,0.07996 z"
   id="path129"
   inkscape:connector-curvature="0"
   style="fill:#ffffff" />
<path
   d="m 99.632602,67.723641 c -0.261769,0 -0.474786,-0.214298 -0.474786,-0.477639 0,-0.263342 0.213017,-0.47764 0.474786,-0.47764 3.898958,0 4.589938,-1.794351 4.617488,-1.871113 0.088,-0.245219 0.35609,-0.377422 0.60302,-0.292129 0.24481,0.0853 0.37834,0.348634 0.2978,0.59705 -0.0339,0.102358 -0.87644,2.521471 -5.518308,2.521471 z"
   id="path131"
   inkscape:connector-curvature="0"
   style="fill:#ffffff" />
<path
   d="m 71.565238,68.582968 -13.956319,0 c -0.261767,0 -0.474784,-0.214299 -0.474784,-0.47764 0,-0.263342 0.213017,-0.47764 0.474784,-0.47764 l 13.955258,0 c 6.864233,0 10.105058,-0.582124 13.629903,-1.343363 1.826013,-0.39448 2.977999,-0.636498 3.946642,-0.840137 1.051309,-0.220695 1.88748,-0.39661 3.135906,-0.672747 0.79378,-0.175917 1.298238,-0.439259 1.617233,-0.696204 -0.623153,0.121543 -1.490058,0.265473 -2.572099,0.380619 -0.563806,0.06076 -1.128673,0.103423 -1.6787,0.144998 -1.639489,0.124738 -3.188896,0.242021 -4.100311,0.804952 -1.301417,0.804952 -3.555582,1.44145 -6.347057,1.792217 -2.532888,0.318783 -20.453864,0.34757 -21.215851,0.348636 0,0 0,0 -0.0011,0 -0.261767,0 -0.474784,-0.213233 -0.474784,-0.476574 0,-0.263342 0.211957,-0.47764 0.473725,-0.478705 0.185462,0 18.623613,-0.02985 21.099273,-0.341174 2.66112,-0.334775 4.780692,-0.923296 5.968712,-1.65788 1.107477,-0.685542 2.76816,-0.810283 4.526344,-0.943552 0.540491,-0.04158 1.095819,-0.08316 1.650087,-0.141808 2.245686,-0.240952 3.548162,-0.608779 3.560881,-0.611977 0.151549,-0.04371 0.314756,-0.0085 0.434512,0.09276 0.120808,0.101279 0.183342,0.255881 0.168504,0.413672 -0.0065,0.0693 -0.197121,1.705858 -2.902752,2.303976 -1.253727,0.277201 -2.090958,0.453118 -3.146503,0.674879 -0.967585,0.202571 -2.117453,0.444589 -3.941343,0.838004 -3.581018,0.772967 -6.872711,1.364685 -13.830203,1.364685 z"
   id="path133"
   inkscape:connector-curvature="0"
   style="fill:#ffffff" />
<path
   d="m 74.52204,65.662752 -16.913121,0 c -0.261767,0 -0.474784,-0.2143 -0.474784,-0.47764 0,-0.263342 0.213017,-0.477641 0.474784,-0.477641 l 16.913121,0 c 0.03497,0 0.0636,-0.02878 0.0636,-0.06397 l 0,-6.838359 c 0,-0.03519 -0.02861,-0.06397 -0.0636,-0.06397 l -16.913121,0 c -0.261767,0 -0.474784,-0.214298 -0.474784,-0.47764 0,-0.263341 0.213017,-0.47764 0.474784,-0.47764 l 16.913121,0 c 0.558507,0 1.013156,0.457383 1.013156,1.019251 l 0,6.838358 c 0,0.562934 -0.454649,1.01925 -1.013156,1.01925 z"
   id="path135"
   inkscape:connector-curvature="0"
   style="fill:#ffffff" />
<path
   d="m 73.849075,64.997468 -16.91206,0 c -0.261767,0 -0.474783,-0.2143 -0.474783,-0.477641 0,-0.263342 0.213016,-0.47764 0.474783,-0.47764 l 16.91312,0 c 0.03497,0 0.0636,-0.02878 0.0636,-0.06397 l 0,-5.878815 c 0,-0.263343 0.213018,-0.477641 0.474785,-0.477641 0.261767,0 0.474784,0.214298 0.474784,0.477641 l 0,5.878815 c -0.0011,0.561867 -0.455707,1.019251 -1.014216,1.019251 z"
   id="path137"
   inkscape:connector-curvature="0"
   style="fill:#ffffff" />
<path
   d="m 59.034332,50.376128 -1.661744,0 c -0.261767,0 -0.474785,-0.214298 -0.474785,-0.47764 0,-0.263341 0.213018,-0.47764 0.474785,-0.47764 l 1.661744,0 c 0.387881,0 0.948506,-0.151394 1.340627,-1.464906 l 0,0 c -0.0011,0 0.447231,-1.968134 0.508699,-2.614227 0.02861,-0.294261 -0.07418,-0.58639 -0.288264,-0.824142 -0.258586,-0.286799 -0.645407,-0.457385 -1.034349,-0.457385 l -2.307153,0 c -0.261767,0 -0.474785,-0.214297 -0.474785,-0.47764 0,-0.263342 0.213018,-0.47764 0.474785,-0.47764 l 2.307153,0 c 0.652827,0 1.301417,0.287863 1.736988,0.770834 0.396361,0.43926 0.585002,0.992597 0.529893,1.557663 -0.06783,0.708997 -0.517176,2.682461 -0.53625,2.766688 -0.432393,1.454244 -1.189081,2.176035 -2.257344,2.176035 z"
   id="path139"
   inkscape:connector-curvature="0"
   style="fill:#ffffff" />
<path
   d="m 84.351552,39.28272 c -0.0901,0 -0.180163,-0.02559 -0.260709,-0.0789 -0.219376,-0.144998 -0.279782,-0.44139 -0.135648,-0.661019 3.195255,-4.885152 6.467872,-14.120242 6.499666,-14.212998 0.08795,-0.248416 0.359269,-0.378488 0.606199,-0.291062 0.246928,0.08848 0.376223,0.361426 0.289319,0.609843 -0.134597,0.382753 -3.343623,9.437663 -6.602465,14.418767 -0.09007,0.139677 -0.241631,0.215366 -0.396358,0.215366 z"
   id="path141"
   inkscape:connector-curvature="0"
   style="fill:#ffffff" />
<path
   d="m 98.25594,25.055861 c -0.193942,0 -0.376225,-0.120478 -0.44617,-0.315583 -0.08902,-0.248418 0.03815,-0.521355 0.285081,-0.611977 0.650709,-0.237755 1.077803,-0.571462 1.269625,-0.994729 0.214075,-0.473376 0.09538,-0.997929 -0.04132,-1.354025 -0.39318,-1.024582 -1.439188,-3.746491 -4.116208,-8.729731 -2.590116,-4.819049 -5.982489,-9.331045 -6.016403,-9.375824 -0.158967,-0.210033 -0.117628,-0.509625 0.09113,-0.669549 0.208778,-0.159923 0.506577,-0.118348 0.665546,0.09169 0.03497,0.04584 3.469738,4.614347 6.094827,9.500565 2.706692,5.036547 3.767539,7.798971 4.167082,8.839545 0.29038,0.756974 0.2978,1.480897 0.0191,2.095006 -0.300984,0.665285 -0.910361,1.168513 -1.81012,1.496891 -0.05404,0.01812 -0.1081,0.02772 -0.162146,0.02772 z"
   id="path143"
   inkscape:connector-curvature="0"
   style="fill:#ffffff" />
<path
   d="m 82.456654,71.700424 c -2.202235,0 -4.00281,-0.03411 -4.842159,-0.0661 -0.24905,-0.0095 -0.713238,-0.02665 -0.716416,-0.495765 -0.0032,-0.476574 -0.0032,-0.476574 1.894897,-0.577859 3.26202,-0.173785 10.902015,-0.578927 18.765624,-1.786887 0.260707,-0.03838 0.501278,0.139677 0.540491,0.39981 0.03922,0.26121 -0.138842,0.504296 -0.39742,0.543742 -1.97862,0.303856 -3.942402,0.557604 -5.825641,0.768703 0.216195,-0.01382 0.429213,-0.02985 0.640109,-0.04584 2.462943,-0.187645 4.833684,-0.234557 7.125999,-0.2804 2.669602,-0.05331 5.190832,-0.103423 7.862552,-0.355032 2.44175,-0.230293 3.44643,-0.936091 3.85975,-1.488363 0.37516,-0.50003 0.31369,-0.942487 0.31263,-0.94675 -0.0487,-0.259078 0.12189,-0.50856 0.3794,-0.557603 0.25542,-0.05011 0.50553,0.122608 0.55427,0.381686 0.0159,0.08637 0.13884,0.862523 -0.4875,1.698394 -0.76835,1.025647 -2.29231,1.653617 -4.52953,1.864717 -2.70669,0.254812 -5.36357,0.308121 -7.932495,0.359297 -2.279599,0.04584 -4.636563,0.09276 -7.074069,0.278267 -3.123189,0.237754 -7.025319,0.305989 -10.130492,0.305989 z"
   id="path145"
   inkscape:connector-curvature="0"
   style="fill:#ffffff" />
<path
   d="m 100.28013,86.353747 c -1.590737,0 -4.124684,-0.694071 -4.826264,-3.453296 -0.798018,-3.137714 -1.007858,-7.381038 -1.016335,-7.560151 -0.01281,-0.263342 0.189702,-0.487237 0.451469,-0.50003 0.260708,-0.01065 0.484321,0.190841 0.497039,0.454184 0.0022,0.04264 0.214077,4.326484 0.98772,7.369308 0.783183,3.079075 4.248691,2.726175 4.393871,2.709116 l 3.77284,-0.0032 c 2.84977,0 4.43097,-1.207963 4.97781,-3.800868 0.64011,-3.040692 1.06933,-8.103892 1.07357,-8.154001 0.0223,-0.263343 0.25859,-0.449922 0.51293,-0.436061 0.26071,0.02238 0.45572,0.253746 0.43346,0.516021 -0.018,0.210034 -0.43875,5.173017 -1.09052,8.272348 -0.64648,3.067346 -2.57846,4.558907 -5.90619,4.558907 l -3.71984,0 c -0.16321,0.01706 -0.34444,0.02772 -0.54156,0.02772 z"
   id="path147"
   inkscape:connector-curvature="0"
   style="fill:#ffffff" />
<path
   d="m 83.315081,67.634084 c -0.239512,0 -0.44617,-0.182313 -0.471604,-0.42753 -0.02756,-0.262277 0.161086,-0.497899 0.421794,-0.525618 0.03497,-0.0042 3.601151,-0.382752 7.803201,-0.540544 1.555766,-0.05651 2.731068,0.05757 3.563,0.192976 -0.675084,-0.561868 -1.37878,-1.084287 -1.389379,-1.091751 -0.210897,-0.156724 -0.256467,-0.455251 -0.100674,-0.668483 0.15579,-0.213231 0.453589,-0.258012 0.664488,-0.101278 0.06995,0.05224 1.72003,1.277261 2.453403,2.055559 0.187582,0.199372 0.44405,0.47231 0.24693,0.814549 -0.197121,0.34117 -0.543671,0.255876 -0.911417,0.16632 -0.616795,-0.151396 -2.059162,-0.504295 -4.490312,-0.413671 -4.168135,0.156725 -7.70358,0.532016 -7.738553,0.535212 -0.01695,0.0032 -0.03392,0.0042 -0.05086,0.0042 z"
   id="path149"
   inkscape:connector-curvature="0"
   style="fill:#ffffff" />
<path
   d="m 106.24249,31.243861 c -0.0763,0 -0.15367,-0.01919 -0.22574,-0.05758 -0.23103,-0.125803 -0.31687,-0.414735 -0.19182,-0.647159 0.006,-0.01166 0.63693,-1.196234 0.81922,-2.332761 0.195,-1.219689 0.62739,-2.512944 2.35378,-2.860511 1.20286,-0.242019 3.39025,-0.552272 4.01659,-0.639698 0.0423,-0.0469 0.0922,-0.101279 0.13989,-0.154593 l -5.44412,0.502162 c -0.21195,0.03412 -2.35272,0.330511 -3.09245,-0.810283 -0.10068,-0.155659 -0.18652,-0.31665 -0.25965,-0.478704 -0.0731,0.16632 -0.23845,0.283597 -0.43133,0.28573 -0.26389,-0.0075 -0.47691,-0.210034 -0.47903,-0.474442 -0.0212,-2.751763 0.62104,-4.505599 0.64859,-4.579164 0.089,-0.237753 0.34761,-0.363561 0.585,-0.287863 0.24058,0.0757 0.38047,0.326246 0.32006,0.57146 -0.002,0.01065 -0.25647,1.046972 -0.18546,1.789021 0.0117,0.121543 0.0212,0.248415 0.0318,0.379554 0.0583,0.74418 0.12293,1.587514 0.56593,2.270923 0.32217,0.496831 1.60769,0.472311 2.18104,0.383818 l 6.47952,-0.599182 c 0.17911,-0.01705 0.35185,0.0693 0.44723,0.222828 0.0954,0.153527 0.0954,0.347568 0.002,0.501095 0,0 -0.33807,0.555471 -0.45995,0.717526 -0.11551,0.153529 -0.47053,0.534147 -0.47053,0.534147 -0.0742,0.07996 -0.17381,0.131143 -0.28085,0.146065 -0.0276,0.0042 -2.77133,0.38062 -4.12575,0.653556 -1.09793,0.220696 -1.41905,0.928629 -1.60345,2.075817 -0.20772,1.298584 -0.89234,2.581178 -0.92096,2.634485 -0.0879,0.163123 -0.25116,0.253747 -0.41967,0.253747 z"
   id="path151"
   inkscape:connector-curvature="0"
   style="fill:#ffffff" />
<path
   d="m 107.25034,28.110412 -2.7406,0 c -0.26177,0 -0.47479,-0.214299 -0.47479,-0.477639 0,-0.263343 0.21302,-0.477641 0.47479,-0.477641 l 2.7406,0 c 0.26177,0 0.47479,0.214298 0.47479,0.477641 0,0.26334 -0.21302,0.477639 -0.47479,0.477639 z"
   id="path153"
   inkscape:connector-curvature="0"
   style="fill:#ffffff" />
<path
   d="m 108.49983,27.103956 c -0.57758,0 -0.84465,-0.105553 -0.94215,-0.157791 -0.23103,-0.124738 -0.31687,-0.414737 -0.19288,-0.64716 0.12399,-0.232424 0.41226,-0.317716 0.64329,-0.194043 0,0 0,0 0,0 0.01,0 0.61574,0.195108 2.43751,-0.238818 1.91715,-0.456318 2.4322,-1.012855 2.43645,-1.018185 0.17168,-0.191909 0.46842,-0.217498 0.66342,-0.05224 0.19606,0.165255 0.23104,0.452051 0.0731,0.654621 -0.10282,0.132208 -0.72913,0.816681 -2.95468,1.345498 -0.98878,0.236687 -1.68399,0.308119 -2.16408,0.308119 z"
   id="path155"
   inkscape:connector-curvature="0"
   style="fill:#ffffff" />
<path
   d="m 114.11775,24.460943 c -0.0561,0 -0.11234,-0.0095 -0.16744,-0.03093 -0.24481,-0.09276 -0.3688,-0.368891 -0.27661,-0.615174 0.001,-0.0042 0.15367,-0.415804 0.33808,-1.213294 0.12081,-0.52455 0.24586,-1.203695 0.13247,-1.807142 -0.0975,-0.521353 -0.32854,-0.971275 -1.17848,-1.601375 -1.05238,-0.779364 -4.24657,-0.755908 -5.96236,-0.746313 l -0.56275,0.0032 c -1.28446,0 -1.42965,0.786827 -1.43071,0.795357 -0.0435,0.260142 -0.28614,0.434994 -0.54685,0.392349 -0.25859,-0.04371 -0.43345,-0.289998 -0.39,-0.550141 0.0911,-0.551205 0.7037,-1.592844 2.36756,-1.592844 l 0.55533,-0.0032 c 2.6484,-0.01706 5.32648,0.03945 6.53252,0.931824 0.94002,0.696204 1.38832,1.331637 1.5494,2.194161 0.1452,0.778298 10e-4,1.584315 -0.14201,2.199492 -0.20029,0.867855 -0.36774,1.316709 -0.37516,1.334833 -0.072,0.190843 -0.25223,0.30812 -0.44299,0.309187 z"
   id="path157"
   inkscape:connector-curvature="0"
   style="fill:#ffffff" />
<path
   d="m 110.31418,23.677314 c -0.24692,0 -0.585,-0.05331 -0.79801,-0.331577 -0.30205,-0.393415 -0.10281,-0.915832 -0.0371,-1.087484 0.22255,-0.581057 0.61361,-0.639697 1.10959,-0.713261 0.28827,-0.04264 0.68145,-0.101278 1.27175,-0.254814 1.63949,-0.42753 2.37604,-0.82734 2.38239,-0.831606 0.22998,-0.126868 0.51824,-0.04264 0.64435,0.187646 0.12612,0.23029 0.0446,0.520286 -0.1844,0.648225 -0.0329,0.01812 -0.82981,0.457383 -2.60389,0.920098 -0.64012,0.167386 -1.08098,0.232422 -1.37242,0.275069 -0.13353,0.01919 -0.2819,0.04158 -0.34232,0.06076 -10e-4,0.0075 -0.009,0.02346 -0.0191,0.04905 -0.018,0.04797 -0.0308,0.08743 -0.0403,0.119399 0.0361,0 0.0816,-0.0032 0.13778,-0.0095 0.0996,-0.01065 0.2321,-0.02346 0.39,-0.03838 0.76411,-0.07249 2.79572,-0.264408 3.33832,-0.667418 0.20985,-0.155659 0.50764,-0.110879 0.66449,0.101278 0.15578,0.212164 0.11018,0.511757 -0.10071,0.668483 -0.69733,0.517087 -2.33365,0.708996 -3.81311,0.849731 l -0.37411,0.03732 c -0.0561,0.0075 -0.14624,0.01705 -0.25328,0.01705 z"
   id="path159"
   inkscape:connector-curvature="0"
   style="fill:#ffffff" />
<path
   d="m 108.29742,21.895758 c -0.67403,0 -1.23042,-0.123672 -1.53988,-0.447788 -1.02375,-1.070426 -1.65432,-2.063022 -1.68082,-2.105667 -0.13989,-0.222829 -0.0752,-0.517091 0.14625,-0.658888 0.2215,-0.141807 0.514,-0.07569 0.65495,0.147129 0.006,0.0095 0.60938,0.957412 1.56425,1.95534 0.4716,0.493633 3.42205,-0.121543 5.8818,-1.007522 0.24482,-0.08848 0.51824,0.04051 0.60727,0.288929 0.0879,0.248416 -0.0403,0.521352 -0.28721,0.61091 -0.96546,0.346504 -3.56406,1.217557 -5.34661,1.217557 z"
   id="path161"
   inkscape:connector-curvature="0"
   style="fill:#ffffff" />
<path
   d="m 106.30501,24.455613 c -0.21831,0 -0.41331,-0.149265 -0.461,-0.372091 -0.0148,-0.07036 -0.1346,-0.720726 0.32005,-1.77516 0.47055,-1.090683 0.86055,-1.378546 1.05131,-1.453176 0.24375,-0.09597 0.5193,0.02666 0.61468,0.272937 0.088,0.228158 -0.01,0.48297 -0.21938,0.594916 -0.0382,0.03092 -0.26177,0.238822 -0.57546,0.965943 -0.3296,0.763372 -0.26177,1.200497 -0.26071,1.204763 0.0424,0.255878 -0.12505,0.50536 -0.37834,0.553336 -0.0307,0.0053 -0.0615,0.0085 -0.0911,0.0085 z"
   id="path163"
   inkscape:connector-curvature="0"
   style="fill:#ffffff" />
<path
   d="m 80.284093,1.848723 c -0.01281,0 -0.02543,-0.0011 -0.03922,-0.0011 -0.1081,-0.0095 -10.92321,-0.887047 -18.441329,-0.887047 l -6.094827,0 c -0.261769,0 -0.474784,-0.214298 -0.474784,-0.47764 0,-0.263341 0.213015,-0.47764 0.474784,-0.47764 l 6.094827,0 c 7.556273,0 18.409535,0.881715 18.518695,0.890245 0.260708,0.02132 0.455709,0.251614 0.434511,0.514955 -0.02013,0.249483 -0.227853,0.438192 -0.472665,0.438192 z"
   id="path165"
   inkscape:connector-curvature="0"
   style="fill:#ffffff" />
<path
   d="m 80.018086,2.499082 c -0.23527,0 -0.49386,-0.0085 -0.777881,-0.02452 -0.261769,-0.01492 -0.462066,-0.240953 -0.44617,-0.504295 0.01484,-0.262275 0.223616,-0.461648 0.501279,-0.448854 1.142449,0.06504 1.614052,-0.03091 1.794217,-0.09384 -0.01281,-0.160991 0.05617,-0.32518 0.197121,-0.426464 0.214075,-0.153527 0.509754,-0.104488 0.662365,0.110878 0.120808,0.170586 0.204538,0.473376 0.04238,0.769768 -0.232092,0.422199 -0.83723,0.617306 -1.973321,0.617306 z"
   id="path167"
   inkscape:connector-curvature="0"
   style="fill:#ffffff" />
<path
   d="m 80.903008,23.893745 c -0.06888,0 -0.138843,-0.01492 -0.205598,-0.0469 -0.236332,-0.114087 -0.335952,-0.39981 -0.222556,-0.637564 0.01382,-0.02772 1.320495,-2.806138 1.246308,-5.596283 -0.07842,-2.895693 -0.635871,-3.762482 -2.71305,-4.216668 -3.127427,-0.683411 -7.051814,-0.73565 -7.815918,1.368952 -0.951689,2.622758 -0.440872,6.30741 0.613614,7.975955 0.140958,0.222827 0.07524,0.518152 -0.146249,0.658887 -0.220435,0.141808 -0.513998,0.07569 -0.654949,-0.147131 -1.197558,-1.894568 -1.766662,-5.889475 -0.704757,-8.816089 1.225112,-3.372267 7.130237,-2.36368 8.909618,-1.974531 2.825388,0.618373 3.381777,2.210153 3.460199,5.125039 0.0816,3.026833 -1.281279,5.913997 -1.339568,6.03554 -0.08054,0.171651 -0.250111,0.270805 -0.427094,0.270805 z"
   id="path169"
   inkscape:connector-curvature="0"
   style="fill:#ffffff" />
<path
   d="m 105.69034,70.905067 c -0.26177,0 -0.47478,-0.214298 -0.47478,-0.477639 0,-0.263343 0.21301,-0.477642 0.47478,-0.477642 1.15623,0 1.99982,-0.276134 2.50852,-0.820943 0.57015,-0.610911 0.52989,-1.361489 0.52776,-1.392407 -0.0159,-0.262276 0.18016,-0.490434 0.43982,-0.508559 0.25646,-0.02238 0.48644,0.175916 0.50657,0.437126 0.003,0.04797 0.0805,1.179175 -0.76728,2.101404 -0.69416,0.755909 -1.7762,1.13866 -3.21539,1.13866 z"
   id="path171"
   inkscape:connector-curvature="0"
   style="fill:#ffffff" />
<path
   d="m 97.141046,69.542513 c -0.06678,0 -0.134597,-0.01382 -0.200301,-0.04477 -0.06571,-0.03092 -0.121874,-0.07462 -0.164266,-0.127933 -0.350789,-0.121543 -2.378159,-0.545875 -13.030065,-0.0853 -11.47748,0.494697 -11.670361,-0.281466 -11.797534,-0.796424 -0.07949,-0.320913 0.103855,-0.640762 0.466306,-0.815612 0.235272,-0.114088 0.520353,-0.01281 0.632691,0.22496 0.04875,0.102358 0.05829,0.214298 0.03391,0.31665 0.725951,0.176982 3.074438,0.44139 10.624352,0.115153 13.155118,-0.568264 13.622483,0.135403 13.822782,0.436061 0.09221,0.138612 0.113397,0.348634 0.04345,0.498963 -0.08054,0.175917 -0.25223,0.278269 -0.431333,0.278269 z"
   id="path173"
   inkscape:connector-curvature="0"
   style="fill:#ffffff" />
</svg>