<?xml version="1.0" encoding="UTF-8" standalone="no"?>
<!-- Generator: Adobe Illustrator 17.0.0, SVG Export Plug-In . SVG Version: 6.00 Build 0)  -->

<svg
   xmlns:dc="http://purl.org/dc/elements/1.1/"
   xmlns:cc="http://creativecommons.org/ns#"
   xmlns:rdf="http://www.w3.org/1999/02/22-rdf-syntax-ns#"
   xmlns:svg="http://www.w3.org/2000/svg"
   xmlns="http://www.w3.org/2000/svg"
   xmlns:xlink="http://www.w3.org/1999/xlink"
   xmlns:sodipodi="http://sodipodi.sourceforge.net/DTD/sodipodi-0.dtd"
   xmlns:inkscape="http://www.inkscape.org/namespaces/inkscape"
   version="1.1"
   id="Слой_1"
   x="0px"
   y="0px"
   width="165.03972"
   height="99.62188"
   viewBox="0 0 165.03972 99.62188"
   enable-background="new 0 0 180 147"
   xml:space="preserve"
   inkscape:version="0.91 r13725"
   sodipodi:docname="autoserv.svg"><metadata
     id="metadata264"><rdf:RDF><cc:Work
         rdf:about=""><dc:format>image/svg+xml</dc:format><dc:type
           rdf:resource="http://purl.org/dc/dcmitype/StillImage" /><dc:title></dc:title></cc:Work></rdf:RDF></metadata><defs
     id="defs262" /><sodipodi:namedview
     pagecolor="#ffffff"
     bordercolor="#666666"
     borderopacity="1"
     objecttolerance="10"
     gridtolerance="10"
     guidetolerance="10"
     inkscape:pageopacity="0"
     inkscape:pageshadow="2"
     inkscape:window-width="712"
     inkscape:window-height="480"
     id="namedview260"
     showgrid="false"
     fit-margin-top="0"
     fit-margin-left="0"
     fit-margin-right="0"
     fit-margin-bottom="0"
     inkscape:zoom="1.6054422"
     inkscape:cx="81.648359"
     inkscape:cy="44.669"
     inkscape:window-x="0"
     inkscape:window-y="0"
     inkscape:window-maximized="0"
     inkscape:current-layer="Слой_1" /><path
     d="m 160.09336,88.670877 c -0.449,0 -0.877,-0.036 -1.19,-0.137 -0.39,-0.126 -0.662,-0.344 -0.808,-0.649 -0.219,-0.455 -0.058,-0.912 -0.039,-0.962 0.003,-0.01 0.527,-1.465 1.075,-2.899 0.579,-1.512 1.209,-2.45 2.563,-2.45 0.705,0 1.373,0.39 1.839,0.748 l -0.223,-3.301 c -0.768,-0.3 -3.643,-1.455 -7.502,-3.406 -4.51,-2.279 -9.755,-5.751 -9.807,-5.786 -0.127,-0.085 -0.182,-0.244 -0.133,-0.388 0.049,-0.145 0.188,-0.238 0.341,-0.229 0.03,0.002 2.845,0.179 5.897,0.486 -2.571,-1.013 -6.622,-2.503 -10.943,-3.684 -7.33,-2.004 -14.025,-3.861 -14.025,-3.861 -0.174,-0.048 -0.279,-0.225 -0.238,-0.401 0.041,-0.176 0.212,-0.288 0.39,-0.255 0.021,0.004 2.125,0.387 5.86,0.483 3.682,0.094 6.94,1.26 14.811,4.077 l 1.224,0.438 c 8.758,3.131 10.059,5.13 10.11,5.214 0.077,0.127 0.063,0.289 -0.036,0.4 -0.099,0.111 -0.258,0.144 -0.393,0.082 -0.023,-0.011 -1.679,-0.77 -3.806,-1.309 -0.046,-0.002 -0.097,-0.008 -0.145,-0.029 -0.003,-0.001 -0.016,-0.007 -0.04,-0.017 -0.738,-0.18 -1.527,-0.331 -2.321,-0.414 -1.955,-0.204 -3.873,-0.357 -5.089,-0.446 1.772,1.134 5.404,3.399 8.648,5.038 4.476,2.262 7.607,3.443 7.638,3.455 0.124,0.046 0.209,0.161 0.218,0.293 l 0.293,4.349 c 0.009,0.128 -0.057,0.249 -0.165,0.313 0.099,0.059 0.166,0.167 0.166,0.29 l 0,0.967 c 0,0.136 -0.082,0.259 -0.208,0.311 -0.126,0.053 -0.271,0.024 -0.367,-0.073 -0.515,-0.514 -1.445,-1.161 -1.807,-0.924 -0.095,0.063 -0.146,0.111 -0.173,0.143 0.193,0.072 0.66,0.252 1.257,0.531 0.801,0.373 0.886,1.069 0.819,1.385 -0.007,0.031 -0.017,0.06 -0.032,0.088 l -1.14,2.15 c -0.049,0.093 -0.139,0.157 -0.242,0.174 -0.173,0.028 -1.277,0.205 -2.277,0.205 z m 1.601,-6.423 c -0.869,0 -1.356,0.509 -1.933,2.016 -0.546,1.428 -1.067,2.877 -1.073,2.891 -10e-4,0.004 -0.083,0.241 0.016,0.441 0.064,0.13 0.201,0.23 0.406,0.296 0.668,0.216 2.25,0.044 2.983,-0.067 l 1.033,-1.948 c 0.006,-0.11 -0.021,-0.401 -0.448,-0.599 -0.743,-0.346 -1.288,-0.539 -1.293,-0.541 -0.022,-0.008 -0.043,-0.018 -0.062,-0.029 -0.143,-0.087 -0.313,-0.279 -0.318,-0.534 -0.005,-0.269 0.163,-0.519 0.502,-0.742 0.638,-0.423 1.502,0.063 2.08,0.507 l 0,-0.225 c 0,-0.124 0.066,-0.232 0.166,-0.29 -0.029,-0.017 -0.056,-0.039 -0.08,-0.065 -0.009,-0.012 -1.006,-1.111 -1.979,-1.111 z m -6.616,-12.059 c 0.734,0.18 1.414,0.386 2,0.585 -1.372,-0.857 -3.824,-2.107 -8.121,-3.644 l -1.224,-0.438 c -7.798,-2.791 -11.027,-3.946 -14.601,-4.038 -0.708,-0.018 -1.356,-0.046 -1.942,-0.08 2.622,0.724 6.299,1.736 10.151,2.789 6.755,1.846 12.854,4.444 13.737,4.826 z"
     id="path3"
     inkscape:connector-curvature="0"
     style="fill:#4e4e4e" /><path
     d="m 163.63236,79.120877 c -0.109,0 -0.215,-0.052 -0.28,-0.149 l -4.625,-6.899 c -0.104,-0.155 -0.062,-0.364 0.092,-0.468 0.154,-0.104 0.364,-0.062 0.468,0.092 l 4.625,6.899 c 0.104,0.155 0.062,0.364 -0.092,0.468 -0.058,0.039 -0.123,0.057 -0.188,0.057 z"
     id="path5"
     inkscape:connector-curvature="0"
     style="fill:#4e4e4e" /><path
     d="m 162.82236,78.800877 c -0.082,0 -0.163,-0.03 -0.228,-0.088 -0.03,-0.028 -3.058,-2.773 -6.586,-3.857 -1.375,-0.422 -3.707,-1.145 -3.873,-1.241 -0.162,-0.093 -0.217,-0.299 -0.124,-0.46 0.093,-0.161 0.299,-0.217 0.46,-0.124 0.006,0 0.402,0.157 3.736,1.181 1.971,0.606 3.759,1.679 5.013,2.563 l -3.622,-5.142 c -0.107,-0.152 -0.071,-0.362 0.082,-0.47 0.152,-0.107 0.362,-0.071 0.47,0.082 l 4.949,7.027 c 0.099,0.141 0.076,0.333 -0.053,0.447 -0.066,0.054 -0.145,0.082 -0.224,0.082 z"
     id="path7"
     inkscape:connector-curvature="0"
     style="fill:#4e4e4e" /><path
     d="m 157.16036,75.243877 c -0.128,0 -0.25,-0.073 -0.307,-0.197 l -1.647,-3.597 -1.836,0 1.404,2.411 c 0.094,0.161 0.039,0.367 -0.122,0.461 -0.16,0.094 -0.367,0.04 -0.461,-0.122 l -1.699,-2.918 c -0.061,-0.104 -0.061,-0.233 -0.001,-0.338 0.06,-0.104 0.172,-0.169 0.292,-0.169 l 2.639,0 c 0.132,0 0.252,0.077 0.307,0.197 l 1.737,3.794 c 0.077,0.169 0.003,0.369 -0.166,0.447 -0.045,0.021 -0.093,0.031 -0.14,0.031 z"
     id="path9"
     inkscape:connector-curvature="0"
     style="fill:#4e4e4e" /><path
     d="m 151.30236,73.073877 c -0.132,0 -0.253,-0.078 -0.308,-0.2 l -0.957,-2.152 -0.603,0.902 c -0.104,0.155 -0.314,0.196 -0.468,0.093 -0.155,-0.104 -0.196,-0.313 -0.093,-0.468 l 0.943,-1.41 c 0.068,-0.102 0.187,-0.158 0.309,-0.148 0.122,0.01 0.229,0.087 0.279,0.199 l 0.814,1.83 0.463,-1.778 c 0.033,-0.128 0.138,-0.225 0.268,-0.247 0.131,-0.025 0.261,0.033 0.336,0.142 l 0.965,1.41 c 0.105,0.154 0.066,0.363 -0.088,0.469 -0.153,0.105 -0.363,0.066 -0.469,-0.088 l -0.547,-0.799 -0.52,1.994 c -0.036,0.139 -0.156,0.239 -0.299,0.251 -0.007,0 -0.016,0 -0.025,0 z"
     id="path11"
     inkscape:connector-curvature="0"
     style="fill:#4e4e4e" /><path
     d="m 145.35636,76.771877 c -0.113,0 -0.223,-0.056 -0.286,-0.159 -0.098,-0.158 -0.05,-0.366 0.108,-0.464 l 5.947,-3.698 c 0.158,-0.098 0.366,-0.05 0.464,0.108 0.098,0.158 0.05,0.366 -0.108,0.464 l -5.947,3.698 c -0.056,0.034 -0.118,0.051 -0.178,0.051 z"
     id="path13"
     inkscape:connector-curvature="0"
     style="fill:#4e4e4e" /><path
     d="m 135.61836,99.621877 c -6.795,0 -12.324,-5.528 -12.324,-12.323 0,-6.795 5.528,-12.323 12.324,-12.323 6.795,0 12.323,5.528 12.323,12.323 0.001,6.794 -5.528,12.323 -12.323,12.323 z m 0,-23.973 c -6.423,0 -11.649,5.226 -11.649,11.649 0,6.423 5.226,11.649 11.649,11.649 6.423,0 11.649,-5.226 11.649,-11.649 0,-6.423 -5.225,-11.649 -11.649,-11.649 z"
     id="path15"
     inkscape:connector-curvature="0"
     style="fill:#4e4e4e" /><path
     d="m 135.73136,96.628877 c -5.017,0 -9.098,-4.081 -9.098,-9.098 0,-5.017 4.081,-9.098 9.098,-9.098 5.017,0 9.098,4.081 9.098,9.098 0,5.017 -4.082,9.098 -9.098,9.098 z m 0,-17.522 c -4.645,0 -8.424,3.779 -8.424,8.424 0,4.645 3.779,8.424 8.424,8.424 4.645,0 8.424,-3.779 8.424,-8.424 0,-4.645 -3.779,-8.424 -8.424,-8.424 z"
     id="path17"
     inkscape:connector-curvature="0"
     style="fill:#4e4e4e" /><path
     d="m 135.79636,97.323877 c -3.523,0 -6.806,-1.899 -8.567,-4.955 -0.093,-0.161 -0.038,-0.367 0.124,-0.46 0.161,-0.093 0.367,-0.038 0.46,0.124 1.641,2.848 4.7,4.617 7.983,4.617 0.74,0 1.476,-0.088 2.187,-0.261 0.181,-0.046 0.363,0.067 0.407,0.248 0.044,0.181 -0.067,0.363 -0.248,0.407 -0.763,0.186 -1.552,0.28 -2.346,0.28 z"
     id="path19"
     inkscape:connector-curvature="0"
     style="fill:#4e4e4e" /><path
     d="m 126.90536,84.306877 c -0.041,0 -0.083,-0.007 -0.123,-0.023 -0.173,-0.068 -0.259,-0.263 -0.191,-0.437 1.493,-3.817 5.106,-6.284 9.205,-6.284 0.67,0 1.34,0.068 1.991,0.201 0.182,0.037 0.3,0.216 0.263,0.398 -0.038,0.182 -0.215,0.3 -0.398,0.263 -0.606,-0.124 -1.231,-0.187 -1.856,-0.187 -3.82,0 -7.186,2.298 -8.577,5.855 -0.052,0.133 -0.179,0.214 -0.314,0.214 z"
     id="path21"
     inkscape:connector-curvature="0"
     style="fill:#4e4e4e" /><path
     d="m 135.51936,88.958877 c -0.913,0 -1.656,-0.743 -1.656,-1.656 0,-0.913 0.743,-1.656 1.656,-1.656 0.913,0 1.656,0.743 1.656,1.656 0,0.913 -0.743,1.656 -1.656,1.656 z m 0,-2.639 c -0.541,0 -0.982,0.441 -0.982,0.982 0,0.541 0.441,0.982 0.982,0.982 0.542,0 0.982,-0.441 0.982,-0.982 0,-0.541 -0.441,-0.982 -0.982,-0.982 z"
     id="path23"
     inkscape:connector-curvature="0"
     style="fill:#4e4e4e" /><path
     d="m 135.51936,89.692877 c -1.318,0 -2.39,-1.072 -2.39,-2.39 0,-1.318 1.072,-2.39 2.39,-2.39 1.318,0 2.39,1.072 2.39,2.39 0,1.318 -1.072,2.39 -2.39,2.39 z m 0,-4.106 c -0.946,0 -1.716,0.77 -1.716,1.716 0,0.946 0.77,1.716 1.716,1.716 0.946,0 1.716,-0.77 1.716,-1.716 0,-0.947 -0.77,-1.716 -1.716,-1.716 z"
     id="path25"
     inkscape:connector-curvature="0"
     style="fill:#4e4e4e" /><path
     d="m 137.19636,85.586877 c -0.02,0 -0.039,-0.002 -0.059,-0.005 -0.109,-0.019 -0.201,-0.09 -0.247,-0.191 l -0.977,-2.117 c -0.016,-0.032 -0.457,-0.955 0.007,-1.845 0.396,-0.759 1.61,-2.516 1.662,-2.591 0.106,-0.153 0.316,-0.192 0.469,-0.085 0.153,0.106 0.191,0.316 0.085,0.469 -0.012,0.018 -1.242,1.797 -1.619,2.519 -0.304,0.582 0.001,1.237 0.004,1.243 l 0.778,1.684 3.959,-3.971 c 0.131,-0.132 0.345,-0.132 0.477,-0.001 0.132,0.131 0.132,0.345 0.001,0.477 l -4.301,4.314 c -0.064,0.065 -0.15,0.1 -0.239,0.1 z"
     id="path27"
     inkscape:connector-curvature="0"
     style="fill:#4e4e4e" /><path
     d="m 137.31836,85.464877 c -0.149,0 -0.286,-0.1 -0.326,-0.25 -0.689,-2.589 0.141,-3.653 0.321,-3.846 l 1.54,-2.115 c 0.11,-0.151 0.321,-0.183 0.471,-0.074 0.151,0.11 0.184,0.32 0.074,0.471 l -1.553,2.134 c -0.013,0.018 -0.029,0.035 -0.045,0.05 -0.003,0.003 -0.79,0.82 -0.156,3.206 0.048,0.18 -0.059,0.365 -0.239,0.412 -0.029,0.008 -0.058,0.012 -0.087,0.012 z"
     id="path29"
     inkscape:connector-curvature="0"
     style="fill:#4e4e4e" /><path
     d="m 136.44736,85.809877 c -0.12,0 -0.237,-0.065 -0.297,-0.178 -0.037,-0.069 -0.912,-1.718 -1.145,-3.648 -0.228,-1.892 -0.203,-3.149 -0.202,-3.202 0.004,-0.186 0.159,-0.348 0.345,-0.329 0.186,0.004 0.333,0.158 0.329,0.345 0,0.012 -0.025,1.266 0.197,3.106 0.217,1.8 1.061,3.394 1.07,3.41 0.088,0.164 0.026,0.368 -0.138,0.456 -0.05,0.027 -0.105,0.04 -0.159,0.04 z"
     id="path31"
     inkscape:connector-curvature="0"
     style="fill:#4e4e4e" /><path
     d="m 134.82236,85.709877 c -0.126,0 -0.246,-0.07 -0.304,-0.191 l -2.778,-5.792 c -0.081,-0.168 -0.01,-0.369 0.158,-0.45 0.167,-0.08 0.369,-0.01 0.45,0.158 l 2.778,5.792 c 0.081,0.168 0.01,0.369 -0.158,0.45 -0.047,0.023 -0.097,0.033 -0.146,0.033 z"
     id="path33"
     inkscape:connector-curvature="0"
     style="fill:#4e4e4e" /><path
     d="m 132.95036,85.781877 0,0 c -0.494,0 -1.011,-0.07 -1.539,-0.207 -1.806,-0.47 -2.864,-2.196 -2.908,-2.269 -0.057,-0.095 -0.064,-0.211 -0.019,-0.312 0.013,-0.029 0.326,-0.718 1.066,-1.488 0.603,-0.627 1.912,-1.415 1.967,-1.448 0.08,-0.048 0.177,-0.061 0.266,-0.035 0.09,0.026 0.165,0.088 0.207,0.171 l 2.508,4.902 c 0.042,0.083 0.049,0.18 0.017,0.267 -0.031,0.088 -0.097,0.158 -0.183,0.196 -0.019,0.009 -0.521,0.223 -1.382,0.223 z m -3.768,-2.672 c 0.285,0.403 1.149,1.488 2.398,1.813 0.472,0.123 0.932,0.185 1.369,0.185 0.319,0 0.576,-0.034 0.763,-0.071 l -2.154,-4.209 c -0.415,0.265 -1.146,0.755 -1.522,1.146 -0.457,0.476 -0.729,0.911 -0.854,1.136 z"
     id="path35"
     inkscape:connector-curvature="0"
     style="fill:#4e4e4e" /><path
     d="m 137.52436,88.077877 c -0.047,0 -0.095,-0.01 -0.141,-0.031 -0.168,-0.078 -0.242,-0.275 -0.166,-0.443 0.022,-0.048 0.558,-1.191 2.78,-2.426 2.187,-1.216 3.722,-1.364 3.786,-1.369 0.184,-0.016 0.349,0.12 0.365,0.305 0.017,0.185 -0.12,0.349 -0.305,0.366 -0.014,0.001 -1.468,0.147 -3.519,1.287 -1.999,1.111 -2.489,2.107 -2.494,2.117 -0.057,0.122 -0.179,0.194 -0.306,0.194 z"
     id="path37"
     inkscape:connector-curvature="0"
     style="fill:#4e4e4e" /><path
     d="m 137.09236,86.319877 c -0.091,0 -0.182,-0.037 -0.248,-0.109 -0.126,-0.137 -0.117,-0.35 0.02,-0.476 l 4.94,-4.54 c 0.137,-0.125 0.35,-0.117 0.476,0.02 0.126,0.137 0.117,0.35 -0.02,0.476 l -4.94,4.54 c -0.065,0.06 -0.147,0.089 -0.228,0.089 z"
     id="path39"
     inkscape:connector-curvature="0"
     style="fill:#4e4e4e" /><path
     d="m 143.74636,91.409877 c -0.055,0 -0.11,-0.013 -0.161,-0.041 l -5.683,-3.102 c -0.091,-0.05 -0.155,-0.139 -0.171,-0.242 -0.017,-0.103 0.015,-0.207 0.086,-0.284 0.181,-0.195 1.802,-1.912 2.819,-2.09 0.995,-0.174 3.642,0.748 3.94,0.853 0.176,0.062 0.268,0.255 0.205,0.43 -0.062,0.175 -0.254,0.268 -0.43,0.205 -1.064,-0.376 -2.984,-0.933 -3.6,-0.825 -0.513,0.09 -1.478,0.914 -2.137,1.571 l 5.295,2.89 c 0.163,0.089 0.224,0.294 0.134,0.457 -0.062,0.114 -0.178,0.178 -0.297,0.178 z"
     id="path41"
     inkscape:connector-curvature="0"
     style="fill:#4e4e4e" /><path
     d="m 141.10336,94.005877 c -0.017,0 -0.034,-0.001 -0.051,-0.004 -0.111,-0.017 -0.206,-0.088 -0.254,-0.189 -0.005,-0.011 -0.538,-1.114 -1.722,-2.025 -1.24,-0.954 -2.788,-1.892 -2.803,-1.901 -0.109,-0.066 -0.171,-0.187 -0.162,-0.314 0.009,-0.127 0.089,-0.237 0.207,-0.286 0.003,-0.001 0.352,-0.151 0.727,-0.468 0.295,-0.25 0.35,-0.39 0.351,-0.391 0.019,-0.11 0.086,-0.187 0.187,-0.233 0.101,-0.046 0.214,-0.024 0.31,0.033 l 5.241,3.131 c 0.087,0.052 0.146,0.141 0.161,0.241 0.015,0.1 -0.017,0.202 -0.085,0.277 l -1.857,2.02 c -0.066,0.07 -0.156,0.109 -0.25,0.109 z m -3.994,-4.392 c 0.567,0.358 1.53,0.988 2.378,1.64 0.854,0.657 1.398,1.394 1.681,1.846 l 1.263,-1.374 -4.596,-2.746 c -0.083,0.103 -0.198,0.221 -0.355,0.355 -0.129,0.109 -0.255,0.202 -0.371,0.279 z"
     id="path43"
     inkscape:connector-curvature="0"
     style="fill:#4e4e4e" /><path
     d="m 135.28836,95.893877 c -0.264,0 -0.604,-0.007 -0.725,-0.042 -0.178,-0.051 -0.282,-0.237 -0.232,-0.415 0.007,-0.024 0.678,-2.436 0.853,-4.05 l 0.179,-1.661 c 0.012,-0.108 0.074,-0.203 0.169,-0.257 0.094,-0.054 0.208,-0.059 0.307,-0.013 0.05,0.023 1.23,0.565 1.904,0.96 0.892,0.523 1.377,1.426 1.366,2.542 -0.011,1.136 0,2.24 0,2.241 0.002,0.146 -0.09,0.275 -0.228,0.322 -0.033,0.011 -0.825,0.277 -2.419,0.344 -0.528,0.022 -0.906,0.029 -1.174,0.029 z m -0.199,-0.676 c 0.256,0.004 0.681,0 1.345,-0.027 1.01,-0.042 1.675,-0.169 1.999,-0.246 -0.003,-0.395 -0.006,-1.187 0.002,-1.994 0.011,-1.108 -0.556,-1.674 -1.033,-1.954 -0.401,-0.235 -1.011,-0.535 -1.419,-0.729 l -0.129,1.191 c -0.138,1.284 -0.563,2.992 -0.765,3.759 z"
     id="path45"
     inkscape:connector-curvature="0"
     style="fill:#4e4e4e" /><path
     d="m 133.84336,95.701877 c -0.018,0 -0.036,-0.002 -0.055,-0.004 -2.295,-0.377 -2.597,-1.261 -2.634,-1.435 -0.012,-0.057 -0.009,-0.116 0.008,-0.172 0.037,-0.119 0.379,-1.173 0.917,-1.687 0.406,-0.388 0.771,-1.04 1.22,-2.18 0.251,-0.637 0.757,-0.988 1.425,-0.988 0.284,0 0.496,0.066 0.519,0.074 0.082,0.027 0.151,0.085 0.192,0.161 0.055,0.101 0.129,0.24 -0.285,2.153 -0.386,1.783 -0.979,3.815 -0.985,3.835 -0.041,0.147 -0.174,0.243 -0.322,0.243 z m -1.997,-1.528 c 0.101,0.144 0.487,0.55 1.757,0.805 0.176,-0.622 0.595,-2.134 0.889,-3.496 0.189,-0.873 0.265,-1.333 0.295,-1.569 -0.02,-0.001 -0.041,-0.002 -0.063,-0.002 -0.388,0 -0.649,0.183 -0.797,0.561 -0.494,1.254 -0.894,1.955 -1.382,2.421 -0.308,0.293 -0.579,0.941 -0.699,1.28 z"
     id="path47"
     inkscape:connector-curvature="0"
     style="fill:#4e4e4e" /><path
     d="m 129.49036,92.887877 c -0.603,0 -0.894,-0.581 -1.375,-1.544 l -0.081,-0.163 c -0.596,-1.19 -0.831,-2.113 -0.84,-2.151 -0.025,-0.101 -0.002,-0.209 0.062,-0.291 0.064,-0.082 0.154,-0.144 0.268,-0.128 l 0.046,0 c 0.341,0 3.389,-0.022 5.435,-0.793 0.086,-0.032 0.18,-0.028 0.262,0.01 0.082,0.039 0.146,0.109 0.175,0.195 0.026,0.075 0.624,1.856 -0.393,3.064 -0.802,0.951 -2.052,1.353 -2.798,1.593 -0.156,0.05 -0.29,0.093 -0.393,0.133 -0.129,0.05 -0.25,0.075 -0.368,0.075 z m -1.516,-3.608 c 0.121,0.366 0.335,0.942 0.664,1.599 l 0.082,0.164 c 0.327,0.654 0.585,1.171 0.771,1.171 0.032,0 0.075,-0.01 0.124,-0.029 0.113,-0.044 0.26,-0.091 0.431,-0.146 0.722,-0.232 1.812,-0.582 2.489,-1.385 0.55,-0.653 0.458,-1.589 0.356,-2.08 -1.754,0.569 -3.947,0.684 -4.917,0.706 z"
     id="path49"
     inkscape:connector-curvature="0"
     style="fill:#4e4e4e" /><path
     d="m 128.60336,88.550877 c -0.742,0 -1.152,-0.105 -1.329,-0.339 -0.057,-0.075 -0.088,-0.163 -0.091,-0.25 -0.028,-0.167 -0.118,-0.817 0.004,-1.576 0.138,-0.855 0.377,-1.267 0.404,-1.311 0.047,-0.077 0.122,-0.132 0.21,-0.153 0.088,-0.02 0.18,-0.006 0.256,0.042 0.016,0.01 1.645,1.008 3.516,1.008 l 0,0 c 0.631,0 1.224,-0.114 1.762,-0.339 0.154,-0.065 0.333,-0.006 0.419,0.138 0.086,0.144 0.053,0.329 -0.077,0.435 -0.001,0.001 -0.177,0.165 -0.218,0.562 -0.034,0.323 -0.008,0.456 -0.007,0.457 0.024,0.119 -0.015,0.252 -0.106,0.332 -0.075,0.066 -0.806,0.648 -3.38,0.912 -0.531,0.054 -0.99,0.082 -1.363,0.082 z m -0.762,-0.749 c 0.088,0.029 0.3,0.075 0.762,0.075 0.35,0 0.786,-0.027 1.295,-0.079 1.766,-0.181 2.577,-0.514 2.872,-0.67 -0.003,-0.107 10e-4,-0.248 0.02,-0.43 0.007,-0.068 0.017,-0.132 0.029,-0.192 -0.398,0.093 -0.814,0.14 -1.245,0.14 0,0 0,0 0,0 -1.556,0 -2.921,-0.603 -3.533,-0.92 -0.061,0.176 -0.133,0.43 -0.188,0.768 -0.097,0.599 -0.039,1.122 -0.012,1.308 z"
     id="path51"
     inkscape:connector-curvature="0"
     style="fill:#4e4e4e" /><circle
     cx="135.51936"
     cy="87.334885"
     r="0.63"
     id="circle53"
     style="fill:#4e4e4e" /><path
     d="m 147.52836,86.279877 c -0.15,0 -0.287,-0.101 -0.326,-0.253 -0.01,-0.035 -0.494,-1.777 -2.377,-2.838 -0.162,-0.091 -0.22,-0.297 -0.128,-0.459 0.092,-0.162 0.298,-0.22 0.459,-0.128 2.153,1.213 2.678,3.174 2.699,3.257 0.046,0.18 -0.062,0.364 -0.243,0.41 -0.028,0.008 -0.056,0.011 -0.084,0.011 z"
     id="path55"
     inkscape:connector-curvature="0"
     style="fill:#4e4e4e" /><path
     d="m 146.59636,82.813877 c -0.1,0 -0.198,-0.044 -0.265,-0.128 -0.013,-0.016 -1.286,-1.613 -3.019,-2.398 -0.17,-0.077 -0.245,-0.277 -0.168,-0.446 0.077,-0.17 0.276,-0.245 0.446,-0.168 1.885,0.855 3.214,2.524 3.27,2.595 0.115,0.146 0.09,0.358 -0.056,0.473 -0.062,0.049 -0.135,0.072 -0.208,0.072 z"
     id="path57"
     inkscape:connector-curvature="0"
     style="fill:#4e4e4e" /><path
     d="m 144.49136,79.577877 c -0.069,0 -0.139,-0.022 -0.2,-0.066 -0.014,-0.011 -1.462,-1.066 -3.382,-1.652 -0.178,-0.054 -0.279,-0.243 -0.224,-0.421 0.054,-0.178 0.243,-0.279 0.421,-0.224 2.035,0.62 3.523,1.708 3.586,1.754 0.15,0.11 0.182,0.321 0.071,0.471 -0.066,0.09 -0.168,0.138 -0.272,0.138 z"
     id="path59"
     inkscape:connector-curvature="0"
     style="fill:#4e4e4e" /><path
     d="m 126.90536,93.877877 c -0.05,0 -0.101,-0.011 -0.148,-0.034 -1.656,-0.813 -2.704,-2.371 -2.748,-2.437 -0.103,-0.155 -0.061,-0.364 0.094,-0.467 0.154,-0.103 0.364,-0.061 0.468,0.094 0.01,0.015 0.995,1.474 2.484,2.205 0.167,0.082 0.236,0.284 0.154,0.451 -0.06,0.119 -0.18,0.188 -0.304,0.188 z"
     id="path61"
     inkscape:connector-curvature="0"
     style="fill:#4e4e4e" /><path
     d="m 129.08536,96.385877 c -0.024,0 -0.048,-0.002 -0.072,-0.008 -2.343,-0.51 -3.323,-1.781 -3.363,-1.834 -0.112,-0.149 -0.082,-0.36 0.066,-0.472 0.149,-0.111 0.359,-0.082 0.471,0.065 l 0,0 c 0.009,0.011 0.887,1.13 2.969,1.582 0.182,0.04 0.297,0.219 0.258,0.401 -0.034,0.159 -0.174,0.266 -0.329,0.266 z"
     id="path63"
     inkscape:connector-curvature="0"
     style="fill:#4e4e4e" /><path
     d="m 132.70936,98.311877 c -2.679,0 -3.776,-0.784 -3.824,-0.818 -0.15,-0.11 -0.182,-0.321 -0.072,-0.471 0.11,-0.149 0.319,-0.182 0.469,-0.073 0.02,0.014 1.095,0.745 3.736,0.685 0.185,0.007 0.34,0.143 0.345,0.329 0.004,0.186 -0.143,0.34 -0.329,0.345 -0.111,0.002 -0.219,0.003 -0.325,0.003 z"
     id="path65"
     inkscape:connector-curvature="0"
     style="fill:#4e4e4e" /><path
     d="m 30.878359,99.621877 c -6.795,0 -12.323,-5.528 -12.323,-12.323 0,-6.795 5.528,-12.323 12.323,-12.323 6.795,0 12.324,5.528 12.324,12.323 0,6.794 -5.529,12.323 -12.324,12.323 z m 0,-23.973 c -6.423,0 -11.649,5.226 -11.649,11.649 0,6.423 5.226,11.649 11.649,11.649 6.423,0 11.649,-5.226 11.649,-11.649 0,-6.423 -5.225,-11.649 -11.649,-11.649 z"
     id="path67"
     inkscape:connector-curvature="0"
     style="fill:#4e4e4e" /><path
     d="m 30.991359,96.628877 c -5.017,0 -9.098,-4.081 -9.098,-9.098 0,-5.017 4.081,-9.098 9.098,-9.098 5.017,0 9.098,4.081 9.098,9.098 0,5.017 -4.082,9.098 -9.098,9.098 z m 0,-17.522 c -4.645,0 -8.424,3.779 -8.424,8.424 0,4.645 3.779,8.424 8.424,8.424 4.645,0 8.424,-3.779 8.424,-8.424 0,-4.645 -3.779,-8.424 -8.424,-8.424 z"
     id="path69"
     inkscape:connector-curvature="0"
     style="fill:#4e4e4e" /><path
     d="m 31.056359,97.323877 c -3.523,0 -6.806,-1.899 -8.567,-4.955 -0.093,-0.161 -0.038,-0.367 0.124,-0.46 0.161,-0.093 0.367,-0.038 0.46,0.124 1.641,2.848 4.7,4.617 7.983,4.617 0.74,0 1.476,-0.088 2.187,-0.261 0.18,-0.046 0.363,0.067 0.407,0.248 0.044,0.181 -0.067,0.363 -0.248,0.407 -0.763,0.186 -1.552,0.28 -2.346,0.28 z"
     id="path71"
     inkscape:connector-curvature="0"
     style="fill:#4e4e4e" /><path
     d="m 22.165359,84.306877 c -0.041,0 -0.083,-0.007 -0.123,-0.023 -0.173,-0.068 -0.259,-0.263 -0.191,-0.437 1.493,-3.817 5.106,-6.284 9.205,-6.284 0.67,0 1.34,0.068 1.991,0.201 0.182,0.037 0.3,0.216 0.263,0.398 -0.037,0.182 -0.216,0.3 -0.398,0.263 -0.606,-0.124 -1.231,-0.187 -1.856,-0.187 -3.82,0 -7.186,2.298 -8.577,5.855 -0.052,0.133 -0.179,0.214 -0.314,0.214 z"
     id="path73"
     inkscape:connector-curvature="0"
     style="fill:#4e4e4e" /><path
     d="m 30.779359,88.958877 c -0.913,0 -1.656,-0.743 -1.656,-1.656 0,-0.913 0.743,-1.656 1.656,-1.656 0.913,0 1.656,0.743 1.656,1.656 0,0.913 -0.743,1.656 -1.656,1.656 z m 0,-2.639 c -0.542,0 -0.982,0.441 -0.982,0.982 0,0.541 0.441,0.982 0.982,0.982 0.541,0 0.982,-0.441 0.982,-0.982 0,-0.541 -0.441,-0.982 -0.982,-0.982 z"
     id="path75"
     inkscape:connector-curvature="0"
     style="fill:#4e4e4e" /><path
     d="m 30.779359,89.692877 c -1.318,0 -2.39,-1.072 -2.39,-2.39 0,-1.318 1.072,-2.39 2.39,-2.39 1.318,0 2.39,1.072 2.39,2.39 0,1.318 -1.072,2.39 -2.39,2.39 z m 0,-4.106 c -0.946,0 -1.716,0.77 -1.716,1.716 0,0.946 0.77,1.716 1.716,1.716 0.946,0 1.716,-0.77 1.716,-1.716 0,-0.947 -0.77,-1.716 -1.716,-1.716 z"
     id="path77"
     inkscape:connector-curvature="0"
     style="fill:#4e4e4e" /><path
     d="m 32.457359,85.586877 c -0.02,0 -0.039,-0.002 -0.059,-0.005 -0.109,-0.019 -0.201,-0.09 -0.247,-0.191 l -0.977,-2.117 c -0.016,-0.032 -0.457,-0.955 0.007,-1.845 0.396,-0.759 1.61,-2.516 1.662,-2.591 0.106,-0.153 0.316,-0.192 0.469,-0.085 0.153,0.106 0.191,0.316 0.085,0.469 -0.012,0.018 -1.242,1.797 -1.619,2.519 -0.304,0.582 0.001,1.237 0.004,1.243 l 0.778,1.684 3.959,-3.971 c 0.131,-0.132 0.345,-0.132 0.477,-0.001 0.132,0.131 0.132,0.345 0.001,0.477 l -4.301,4.314 c -0.065,0.065 -0.151,0.1 -0.239,0.1 z"
     id="path79"
     inkscape:connector-curvature="0"
     style="fill:#4e4e4e" /><path
     d="m 32.578359,85.464877 c -0.149,0 -0.286,-0.1 -0.326,-0.25 -0.689,-2.589 0.141,-3.653 0.32,-3.846 l 1.54,-2.115 c 0.11,-0.151 0.32,-0.183 0.471,-0.074 0.151,0.11 0.184,0.32 0.074,0.471 l -1.553,2.134 c -0.013,0.018 -0.028,0.035 -0.045,0.05 -0.003,0.003 -0.79,0.82 -0.156,3.206 0.048,0.18 -0.059,0.365 -0.239,0.412 -0.028,0.008 -0.057,0.012 -0.086,0.012 z"
     id="path81"
     inkscape:connector-curvature="0"
     style="fill:#4e4e4e" /><path
     d="m 31.707359,85.809877 c -0.12,0 -0.237,-0.065 -0.297,-0.178 -0.037,-0.069 -0.912,-1.718 -1.145,-3.648 -0.228,-1.892 -0.203,-3.149 -0.202,-3.202 0.004,-0.186 0.156,-0.348 0.345,-0.329 0.186,0.004 0.333,0.158 0.329,0.345 0,0.012 -0.025,1.266 0.197,3.106 0.217,1.8 1.061,3.394 1.07,3.41 0.088,0.164 0.026,0.368 -0.138,0.456 -0.05,0.027 -0.105,0.04 -0.159,0.04 z"
     id="path83"
     inkscape:connector-curvature="0"
     style="fill:#4e4e4e" /><path
     d="m 30.082359,85.709877 c -0.126,0 -0.246,-0.07 -0.304,-0.191 l -2.778,-5.792 c -0.081,-0.168 -0.01,-0.369 0.158,-0.45 0.167,-0.08 0.369,-0.01 0.45,0.158 l 2.778,5.792 c 0.081,0.168 0.01,0.369 -0.158,0.45 -0.048,0.023 -0.097,0.033 -0.146,0.033 z"
     id="path85"
     inkscape:connector-curvature="0"
     style="fill:#4e4e4e" /><path
     d="m 28.210359,85.781877 c -0.001,0 0,0 0,0 -0.494,0 -1.012,-0.07 -1.539,-0.207 -1.806,-0.47 -2.864,-2.196 -2.908,-2.269 -0.057,-0.095 -0.064,-0.211 -0.019,-0.312 0.013,-0.029 0.326,-0.718 1.067,-1.488 0.603,-0.627 1.912,-1.415 1.967,-1.448 0.08,-0.048 0.177,-0.061 0.266,-0.035 0.09,0.026 0.165,0.088 0.207,0.171 l 2.508,4.902 c 0.042,0.083 0.049,0.18 0.017,0.267 -0.031,0.088 -0.097,0.158 -0.183,0.196 -0.02,0.009 -0.522,0.223 -1.383,0.223 z m -3.768,-2.672 c 0.285,0.403 1.149,1.488 2.398,1.813 0.472,0.123 0.932,0.185 1.369,0.185 0.319,0 0.576,-0.034 0.763,-0.071 l -2.154,-4.209 c -0.415,0.265 -1.146,0.755 -1.522,1.146 -0.457,0.476 -0.729,0.911 -0.854,1.136 z"
     id="path87"
     inkscape:connector-curvature="0"
     style="fill:#4e4e4e" /><path
     d="m 32.784359,88.077877 c -0.047,0 -0.095,-0.01 -0.141,-0.031 -0.168,-0.078 -0.242,-0.275 -0.166,-0.443 0.022,-0.048 0.558,-1.191 2.78,-2.426 2.187,-1.216 3.722,-1.364 3.786,-1.369 0.184,-0.016 0.349,0.12 0.365,0.305 0.017,0.185 -0.12,0.349 -0.305,0.366 -0.014,0.001 -1.468,0.147 -3.519,1.287 -1.999,1.111 -2.489,2.107 -2.494,2.117 -0.057,0.122 -0.179,0.194 -0.306,0.194 z"
     id="path89"
     inkscape:connector-curvature="0"
     style="fill:#4e4e4e" /><path
     d="m 32.352359,86.319877 c -0.091,0 -0.182,-0.037 -0.248,-0.109 -0.126,-0.137 -0.117,-0.35 0.02,-0.476 l 4.94,-4.54 c 0.137,-0.125 0.35,-0.117 0.476,0.02 0.126,0.137 0.117,0.35 -0.02,0.476 l -4.94,4.54 c -0.065,0.06 -0.147,0.089 -0.228,0.089 z"
     id="path91"
     inkscape:connector-curvature="0"
     style="fill:#4e4e4e" /><path
     d="m 39.006359,91.409877 c -0.055,0 -0.11,-0.013 -0.161,-0.041 l -5.683,-3.102 c -0.091,-0.05 -0.155,-0.139 -0.171,-0.242 -0.017,-0.103 0.015,-0.207 0.086,-0.284 0.181,-0.195 1.802,-1.912 2.818,-2.09 0.991,-0.176 3.642,0.748 3.941,0.853 0.176,0.062 0.268,0.255 0.205,0.43 -0.062,0.175 -0.254,0.268 -0.43,0.205 -1.065,-0.376 -2.983,-0.933 -3.6,-0.825 -0.513,0.09 -1.478,0.914 -2.137,1.571 l 5.295,2.89 c 0.163,0.089 0.224,0.294 0.134,0.457 -0.062,0.114 -0.178,0.178 -0.297,0.178 z"
     id="path93"
     inkscape:connector-curvature="0"
     style="fill:#4e4e4e" /><path
     d="m 36.363359,94.005877 c -0.017,0 -0.034,-0.001 -0.051,-0.004 -0.111,-0.017 -0.206,-0.088 -0.254,-0.189 -0.005,-0.011 -0.538,-1.114 -1.722,-2.025 -1.241,-0.955 -2.788,-1.892 -2.803,-1.901 -0.109,-0.066 -0.171,-0.187 -0.162,-0.314 0.009,-0.127 0.089,-0.237 0.207,-0.286 0.003,-0.001 0.352,-0.151 0.726,-0.467 0.296,-0.25 0.351,-0.39 0.351,-0.391 0.019,-0.11 0.086,-0.187 0.187,-0.233 0.101,-0.046 0.214,-0.024 0.31,0.033 l 5.24,3.131 c 0.087,0.052 0.146,0.141 0.161,0.241 0.015,0.1 -0.017,0.202 -0.085,0.277 l -1.857,2.02 c -0.064,0.069 -0.154,0.108 -0.248,0.108 z m -3.994,-4.392 c 0.566,0.358 1.53,0.988 2.378,1.64 0.855,0.657 1.398,1.394 1.681,1.846 l 1.263,-1.374 -4.597,-2.746 c -0.083,0.103 -0.198,0.221 -0.355,0.355 -0.128,0.109 -0.255,0.202 -0.37,0.279 z"
     id="path95"
     inkscape:connector-curvature="0"
     style="fill:#4e4e4e" /><path
     d="m 30.548359,95.893877 c -0.264,0 -0.604,-0.007 -0.725,-0.042 -0.178,-0.051 -0.282,-0.237 -0.232,-0.415 0.007,-0.024 0.678,-2.436 0.853,-4.05 l 0.179,-1.661 c 0.012,-0.108 0.074,-0.203 0.169,-0.257 0.094,-0.054 0.209,-0.059 0.307,-0.013 0.05,0.023 1.23,0.565 1.904,0.96 0.892,0.523 1.377,1.425 1.366,2.542 -0.011,1.136 0,2.24 0,2.241 0.002,0.146 -0.09,0.275 -0.228,0.322 -0.033,0.011 -0.825,0.277 -2.419,0.344 -0.528,0.022 -0.906,0.029 -1.174,0.029 z m -0.199,-0.676 c 0.256,0.004 0.681,0 1.345,-0.027 1.01,-0.042 1.675,-0.169 1.999,-0.246 -0.003,-0.395 -0.006,-1.187 0.002,-1.994 0.011,-1.108 -0.556,-1.674 -1.033,-1.954 -0.401,-0.235 -1.011,-0.535 -1.419,-0.729 l -0.128,1.191 c -0.139,1.284 -0.564,2.992 -0.766,3.759 z"
     id="path97"
     inkscape:connector-curvature="0"
     style="fill:#4e4e4e" /><path
     d="m 29.103359,95.701877 c -0.018,0 -0.036,-0.002 -0.055,-0.004 -2.295,-0.377 -2.597,-1.261 -2.634,-1.435 -0.012,-0.057 -0.009,-0.116 0.008,-0.172 0.037,-0.119 0.379,-1.173 0.917,-1.687 0.406,-0.388 0.771,-1.04 1.22,-2.18 0.251,-0.637 0.757,-0.988 1.424,-0.988 0.284,0 0.496,0.066 0.519,0.074 0.082,0.027 0.151,0.085 0.192,0.161 0.055,0.101 0.129,0.24 -0.285,2.153 -0.385,1.783 -0.979,3.815 -0.985,3.835 -0.04,0.147 -0.173,0.243 -0.321,0.243 z m -1.997,-1.528 c 0.101,0.144 0.487,0.55 1.757,0.805 0.176,-0.622 0.595,-2.134 0.889,-3.496 0.189,-0.873 0.265,-1.333 0.295,-1.569 -0.02,-0.001 -0.041,-0.002 -0.063,-0.002 -0.388,0 -0.649,0.183 -0.797,0.561 -0.494,1.254 -0.894,1.955 -1.382,2.421 -0.308,0.293 -0.579,0.941 -0.699,1.28 z"
     id="path99"
     inkscape:connector-curvature="0"
     style="fill:#4e4e4e" /><path
     d="m 24.750359,92.887877 c -0.603,0 -0.893,-0.581 -1.374,-1.543 l -0.082,-0.163 c -0.596,-1.19 -0.83,-2.113 -0.84,-2.151 -0.025,-0.101 -0.002,-0.209 0.062,-0.291 0.065,-0.082 0.156,-0.144 0.268,-0.128 l 0.046,0 c 0.341,0 3.389,-0.022 5.435,-0.793 0.086,-0.032 0.18,-0.028 0.262,0.01 0.083,0.039 0.146,0.109 0.175,0.195 0.026,0.075 0.624,1.856 -0.393,3.064 -0.802,0.952 -2.052,1.353 -2.799,1.593 -0.156,0.05 -0.29,0.093 -0.393,0.133 -0.128,0.049 -0.248,0.074 -0.367,0.074 z m -1.516,-3.608 c 0.121,0.366 0.335,0.942 0.664,1.599 l 0.082,0.164 c 0.327,0.654 0.585,1.171 0.771,1.171 0.032,0 0.075,-0.01 0.124,-0.029 0.113,-0.044 0.26,-0.091 0.431,-0.146 0.722,-0.232 1.812,-0.582 2.489,-1.386 0.547,-0.649 0.455,-1.587 0.355,-2.08 -1.753,0.57 -3.946,0.685 -4.916,0.707 z"
     id="path101"
     inkscape:connector-curvature="0"
     style="fill:#4e4e4e" /><path
     d="m 23.863359,88.550877 c -0.742,0 -1.152,-0.105 -1.329,-0.339 -0.057,-0.075 -0.088,-0.163 -0.091,-0.25 -0.028,-0.167 -0.118,-0.817 0.004,-1.576 0.138,-0.855 0.377,-1.267 0.404,-1.311 0.047,-0.077 0.122,-0.132 0.21,-0.153 0.088,-0.022 0.18,-0.006 0.256,0.041 0.016,0.01 1.645,1.008 3.516,1.008 l 0,0 c 0.631,0 1.224,-0.114 1.762,-0.339 0.154,-0.065 0.333,-0.006 0.419,0.138 0.086,0.144 0.053,0.329 -0.077,0.435 -0.001,0.001 -0.177,0.165 -0.218,0.562 -0.034,0.323 -0.008,0.456 -0.007,0.457 0.024,0.119 -0.015,0.252 -0.106,0.332 -0.075,0.066 -0.807,0.648 -3.38,0.912 -0.532,0.055 -0.99,0.083 -1.363,0.083 z m -0.762,-0.749 c 0.088,0.029 0.3,0.075 0.762,0.075 0.35,0 0.786,-0.027 1.295,-0.079 1.766,-0.181 2.576,-0.514 2.871,-0.67 -0.003,-0.107 0.001,-0.248 0.02,-0.431 0.007,-0.068 0.017,-0.132 0.029,-0.192 -0.397,0.093 -0.814,0.14 -1.245,0.14 0,0 0,0 0,0 -1.556,0 -2.921,-0.603 -3.533,-0.92 -0.061,0.176 -0.133,0.43 -0.188,0.768 -0.096,0.6 -0.038,1.123 -0.011,1.309 z"
     id="path103"
     inkscape:connector-curvature="0"
     style="fill:#4e4e4e" /><circle
     cx="30.77936"
     cy="87.334885"
     r="0.63"
     id="circle105"
     style="fill:#4e4e4e" /><path
     d="m 42.788359,86.279877 c -0.15,0 -0.287,-0.101 -0.326,-0.252 l 0,0 c -0.005,-0.018 -0.484,-1.772 -2.377,-2.838 -0.162,-0.091 -0.22,-0.297 -0.128,-0.459 0.092,-0.162 0.298,-0.22 0.459,-0.128 2.153,1.213 2.678,3.174 2.699,3.257 0.046,0.18 -0.062,0.364 -0.243,0.41 -0.028,0.007 -0.056,0.01 -0.084,0.01 z"
     id="path107"
     inkscape:connector-curvature="0"
     style="fill:#4e4e4e" /><path
     d="m 41.856359,82.813877 c -0.1,0 -0.198,-0.044 -0.265,-0.128 -0.013,-0.016 -1.286,-1.613 -3.019,-2.398 -0.17,-0.077 -0.245,-0.277 -0.168,-0.446 0.077,-0.17 0.277,-0.245 0.446,-0.168 1.885,0.855 3.214,2.524 3.27,2.595 0.115,0.146 0.09,0.358 -0.056,0.473 -0.062,0.049 -0.135,0.072 -0.208,0.072 z"
     id="path109"
     inkscape:connector-curvature="0"
     style="fill:#4e4e4e" /><path
     d="m 39.751359,79.577877 c -0.069,0 -0.139,-0.022 -0.2,-0.066 -0.014,-0.011 -1.462,-1.066 -3.382,-1.652 -0.178,-0.054 -0.279,-0.243 -0.224,-0.421 0.054,-0.178 0.243,-0.279 0.421,-0.224 2.035,0.62 3.523,1.708 3.586,1.754 0.15,0.11 0.182,0.321 0.071,0.471 -0.066,0.09 -0.168,0.138 -0.272,0.138 z"
     id="path111"
     inkscape:connector-curvature="0"
     style="fill:#4e4e4e" /><path
     d="m 22.165359,93.877877 c -0.05,0 -0.101,-0.011 -0.148,-0.034 -1.656,-0.813 -2.704,-2.371 -2.748,-2.437 -0.103,-0.155 -0.061,-0.364 0.094,-0.467 0.155,-0.103 0.364,-0.061 0.468,0.094 0.01,0.015 0.995,1.474 2.484,2.205 0.167,0.082 0.236,0.284 0.154,0.451 -0.06,0.119 -0.18,0.188 -0.304,0.188 z"
     id="path113"
     inkscape:connector-curvature="0"
     style="fill:#4e4e4e" /><path
     d="m 24.345359,96.385877 c -0.024,0 -0.048,-0.002 -0.072,-0.008 -2.343,-0.51 -3.323,-1.781 -3.363,-1.834 -0.112,-0.149 -0.082,-0.36 0.067,-0.472 0.149,-0.111 0.359,-0.082 0.471,0.065 l 0,0 c 0.009,0.011 0.887,1.13 2.969,1.582 0.182,0.04 0.297,0.219 0.258,0.401 -0.035,0.159 -0.175,0.266 -0.33,0.266 z"
     id="path115"
     inkscape:connector-curvature="0"
     style="fill:#4e4e4e" /><path
     d="m 27.969359,98.311877 c -2.678,0 -3.776,-0.784 -3.823,-0.818 -0.15,-0.11 -0.182,-0.321 -0.072,-0.471 0.11,-0.149 0.32,-0.182 0.469,-0.073 0.02,0.014 1.089,0.746 3.736,0.685 0.198,0.007 0.34,0.143 0.345,0.329 0.004,0.186 -0.143,0.34 -0.329,0.345 -0.112,0.002 -0.22,0.003 -0.326,0.003 z"
     id="path117"
     inkscape:connector-curvature="0"
     style="fill:#4e4e4e" /><path
     d="m 163.45336,86.319877 c -0.038,0 -0.077,-0.006 -0.115,-0.02 -0.175,-0.063 -0.266,-0.257 -0.202,-0.432 l 0.472,-1.303 c 0.063,-0.175 0.258,-0.266 0.432,-0.202 0.175,0.063 0.266,0.257 0.202,0.432 l -0.472,1.303 c -0.05,0.137 -0.179,0.222 -0.317,0.222 z"
     id="path119"
     inkscape:connector-curvature="0"
     style="fill:#4e4e4e" /><path
     d="m 162.05236,88.550877 c -0.172,0 -0.319,-0.131 -0.335,-0.306 -0.017,-0.185 0.12,-0.349 0.305,-0.367 0.005,0 0.184,-0.017 0.45,-0.051 -0.101,-0.055 -0.171,-0.16 -0.176,-0.283 -0.008,-0.186 0.137,-0.343 0.323,-0.351 2.32,-0.094 2.358,0.099 2.412,0.367 0.044,0.219 -0.086,0.387 -0.385,0.498 -0.911,0.337 -2.495,0.485 -2.562,0.491 -0.012,10e-4 -0.022,0.002 -0.032,0.002 z"
     id="path121"
     inkscape:connector-curvature="0"
     style="fill:#4e4e4e" /><path
     d="m 120.19236,94.268877 c -0.089,0 -0.176,-0.035 -0.241,-0.101 l -2.345,-2.394 c -0.097,-0.099 -0.123,-0.246 -0.067,-0.373 0.006,-0.013 0.584,-1.319 1.012,-2.699 0.457,-1.474 0.858,-1.984 1.785,-2.274 0.054,-0.017 0.109,-0.019 0.16,-0.01 0.25,-1.533 0.596,-3.045 1.076,-4.252 1.705,-4.285 6.333,-9.288 13.767,-9.288 8.5,0 11.625,4.069 13.397,7.614 1.7,3.4 1.473,8.833 1.379,10.25 7.066,0.551 12.747,-1.364 13.379,-1.808 0.671,-0.47 0.875,-1.263 0.877,-1.27 0.045,-0.18 0.23,-0.29 0.408,-0.246 0.18,0.045 0.291,0.226 0.247,0.406 -0.01,0.042 -0.261,1.043 -1.145,1.663 -0.962,0.674 -7.048,2.527 -14.158,1.9 -0.089,-0.008 -0.171,-0.051 -0.229,-0.119 -0.057,-0.068 -0.085,-0.157 -0.077,-0.246 0.006,-0.065 0.555,-6.547 -1.285,-10.227 -1.686,-3.371 -4.663,-7.241 -12.794,-7.241 -9.344,0 -12.78,7.956 -13.141,8.863 -1.558,3.915 -1.669,11.446 -1.67,11.522 -0.002,0.136 -0.085,0.258 -0.212,0.309 -0.038,0.013 -0.081,0.021 -0.123,0.021 z m -1.946,-2.805 1.629,1.663 c 0.041,-1.202 0.163,-3.577 0.513,-6.006 -0.502,0.185 -0.793,0.488 -1.194,1.78 -0.341,1.102 -0.765,2.131 -0.948,2.563 z"
     id="path123"
     inkscape:connector-curvature="0"
     style="fill:#4e4e4e" /><path
     d="m 157.92136,88.958877 c -0.016,0 -0.437,-0.001 -3.438,-0.103 -4.171,-0.142 -4.171,-0.243 -4.168,-0.617 0.003,-0.39 0.227,-0.409 1.981,-0.442 3.426,-0.064 6.127,-0.268 6.154,-0.27 0.187,-0.013 0.348,0.125 0.362,0.311 0.014,0.186 -0.125,0.348 -0.311,0.362 -0.011,0.001 -0.426,0.032 -1.131,0.074 0.439,0.012 0.543,0.012 0.552,0.012 0.186,0 0.337,0.151 0.336,0.338 0,0.184 -0.151,0.335 -0.337,0.335 z"
     id="path125"
     inkscape:connector-curvature="0"
     style="fill:#4e4e4e" /><path
     d="m 150.65236,93.877877 c -0.061,0 -0.123,-0.017 -0.177,-0.05 -0.009,-0.005 -0.861,-0.528 -1.972,-0.855 l -0.153,-0.045 c -1.052,-0.308 -1.687,-0.494 -1.739,-1.692 -0.008,-0.186 0.136,-0.343 0.322,-0.351 0.179,-0.01 0.343,0.136 0.351,0.322 0.03,0.689 0.169,0.756 1.255,1.074 l 0.154,0.045 c 0.82,0.242 1.497,0.575 1.857,0.77 0.068,-0.132 0.144,-0.327 0.178,-0.588 0.08,-0.613 0.001,-1.236 0,-1.243 -0.024,-0.185 0.106,-0.354 0.291,-0.378 0.187,-0.027 0.354,0.106 0.378,0.291 0.004,0.029 0.092,0.718 0,1.417 -0.099,0.756 -0.465,1.143 -0.506,1.184 -0.065,0.065 -0.152,0.099 -0.239,0.099 z"
     id="path127"
     inkscape:connector-curvature="0"
     style="fill:#4e4e4e" /><path
     d="m 125.59736,94.268877 c -0.069,0 -0.139,-0.021 -0.199,-0.065 -0.013,-0.01 -1.333,-0.967 -2.934,-1.324 -1.476,-0.329 -1.994,-0.046 -1.999,-0.043 -0.157,0.091 -0.363,0.044 -0.459,-0.111 -0.096,-0.154 -0.059,-0.353 0.091,-0.454 0.113,-0.077 0.766,-0.44 2.513,-0.05 1.743,0.389 3.128,1.396 3.186,1.439 0.15,0.11 0.182,0.321 0.072,0.471 -0.065,0.089 -0.168,0.137 -0.271,0.137 z"
     id="path129"
     inkscape:connector-curvature="0"
     style="fill:#4e4e4e" /><path
     d="m 16.736359,90.783877 c -0.087,0 -0.173,-0.033 -0.238,-0.098 -0.031,-0.031 -0.307,-0.323 -0.38,-0.88 -0.052,-0.394 -0.223,-0.742 -0.225,-0.745 -0.083,-0.166 -0.015,-0.369 0.151,-0.452 0.165,-0.084 0.368,-0.016 0.452,0.15 0.009,0.018 0.224,0.449 0.291,0.96 0.013,0.099 0.035,0.183 0.06,0.252 0.21,-0.119 0.525,-0.267 0.959,-0.395 0.261,-0.077 0.476,-0.109 0.634,-0.132 0.094,-0.014 0.21,-0.031 0.245,-0.049 -0.004,-0.003 0.016,-0.055 0.022,-0.202 0.008,-0.186 0.167,-0.328 0.351,-0.322 0.186,0.008 0.33,0.165 0.322,0.351 -0.031,0.712 -0.384,0.82 -0.842,0.889 -0.153,0.023 -0.327,0.049 -0.543,0.112 -0.715,0.211 -1.036,0.478 -1.039,0.481 -0.062,0.053 -0.141,0.08 -0.22,0.08 z"
     id="path131"
     inkscape:connector-curvature="0"
     style="fill:#4e4e4e" /><path
     d="m 45.984359,91.556877 c -0.128,0 -0.249,-0.073 -0.306,-0.196 -0.009,-0.019 -0.4,-0.82 -1.432,-1.293 -0.772,-0.354 -1.096,-0.401 -1.207,-0.403 -0.066,0.072 -0.164,0.114 -0.267,0.111 -0.186,-0.009 -0.329,-0.168 -0.32,-0.354 0.007,-0.137 0.088,-0.265 0.217,-0.344 0.208,-0.126 0.608,-0.198 1.858,0.376 1.278,0.586 1.745,1.583 1.764,1.625 0.077,0.169 0.003,0.369 -0.167,0.447 -0.046,0.022 -0.093,0.031 -0.14,0.031 z"
     id="path133"
     inkscape:connector-curvature="0"
     style="fill:#4e4e4e" /><path
     d="m 147.52936,66.597877 c -0.031,0 -0.062,-0.004 -0.092,-0.013 -0.073,-0.021 -7.407,-2.092 -14.68,-2.884 -0.185,-0.02 -0.319,-0.187 -0.299,-0.372 0.02,-0.185 0.189,-0.32 0.372,-0.299 7.332,0.798 14.718,2.885 14.792,2.906 0.179,0.051 0.283,0.237 0.232,0.416 -0.044,0.149 -0.179,0.246 -0.325,0.246 z"
     id="path135"
     inkscape:connector-curvature="0"
     style="fill:#4e4e4e" /><path
     d="m 146.18836,69.885877 c -0.026,0 -0.053,-0.003 -0.079,-0.009 -0.074,-0.018 -7.449,-1.775 -15.717,-2.288 -5.611,-0.348 -5.608,-0.402 -5.591,-0.823 0.017,-0.422 0.02,-0.498 6.69,-0.371 4.639,0.088 8.739,0.685 13.079,1.318 2.094,0.305 4.26,0.621 6.533,0.883 0.185,0.021 0.318,0.189 0.296,0.374 -0.021,0.185 -0.19,0.319 -0.374,0.296 -2.283,-0.263 -4.453,-0.58 -6.553,-0.886 -3.83,-0.558 -7.471,-1.089 -11.453,-1.263 7.222,0.669 13.181,2.089 13.247,2.105 0.181,0.043 0.293,0.226 0.249,0.406 -0.037,0.154 -0.175,0.258 -0.327,0.258 z"
     id="path137"
     inkscape:connector-curvature="0"
     style="fill:#4e4e4e" /><path
     d="m 147.60536,75.242877 c -0.106,0 -0.21,-0.05 -0.276,-0.143 -0.031,-0.045 -3.231,-4.449 -11.71,-4.449 -8.5,0 -11.022,3.719 -11.047,3.756 -0.102,0.156 -0.311,0.2 -0.467,0.098 -0.156,-0.102 -0.2,-0.311 -0.098,-0.467 0.108,-0.166 2.75,-4.062 11.611,-4.062 8.855,0 12.128,4.543 12.263,4.737 0.106,0.153 0.069,0.362 -0.083,0.469 -0.059,0.042 -0.126,0.061 -0.193,0.061 z"
     id="path139"
     inkscape:connector-curvature="0"
     style="fill:#4e4e4e" /><path
     d="m 75.237359,67.020877 c -0.009,0 -0.018,0 -0.028,-0.001 -0.034,-0.003 -3.542,-0.287 -11.08,-0.996 -7.531,-0.708 -16.064,-1.296 -16.149,-1.302 -0.186,-0.013 -0.326,-0.174 -0.313,-0.359 0.013,-0.186 0.175,-0.33 0.359,-0.313 0.085,0.006 8.627,0.595 16.166,1.304 7.534,0.708 11.037,0.992 11.072,0.995 0.185,0.015 0.324,0.178 0.309,0.363 -0.014,0.175 -0.162,0.309 -0.336,0.309 z"
     id="path141"
     inkscape:connector-curvature="0"
     style="fill:#4e4e4e" /><path
     d="m 115.01936,87.634877 c -0.007,0 -0.014,0 -0.022,-0.001 -0.068,-0.004 -6.914,-0.438 -16.115001,-0.566 -9.113,-0.126 -29.821,-0.967 -38.663,-1.825 -8.72,-0.846 -11.266,-2.606 -11.37,-2.68 -0.158,-0.08 -0.362,-0.3 -0.293,-0.579 0.086,-0.344 0.395,-0.652 3.199,-0.652 2.513,0 6.544,0.257 11.981,0.764 9.723,0.907 19.076,1.436 26.592,1.862 5.966,0.338 11.119001,0.63 14.589001,1.005 0.972,0.105 1.841,0.197 2.621,0.279 5.557,0.587 6.619,0.699 7.681,1.777 0.088,0.061 0.146,0.163 0.146,0.278 0,0.188 -0.156,0.337 -0.342,0.337 -10e-4,0.001 -0.003,0.001 -0.004,0.001 z m -65.555001,-5.49 c 0.775,0.418 3.705,1.737 10.82,2.427 8.826,0.856 29.505,1.696 38.607,1.822 6.994001,0.097 12.631001,0.371 14.975001,0.499 -0.934,-0.403 -2.542,-0.572 -6.399,-0.98 -0.78,-0.082 -1.65,-0.174 -2.622,-0.28 -3.453,-0.374 -8.598001,-0.665 -14.555001,-1.002 -7.521,-0.426 -16.881,-0.956 -26.617,-1.864 -5.416,-0.505 -9.426,-0.761 -11.918,-0.761 -1.306,0.001 -1.964,0.074 -2.291,0.139 z"
     id="path143"
     inkscape:connector-curvature="0"
     style="fill:#4e4e4e" /><path
     d="m 37.292359,64.005877 c -0.013,0 -0.025,-0.001 -0.038,-0.002 -0.014,-0.002 -1.471,-0.163 -4.644,-0.305 -0.186,-0.008 -0.33,-0.166 -0.322,-0.352 0.008,-0.186 0.16,-0.335 0.352,-0.322 3.2,0.144 4.675,0.307 4.69,0.309 0.185,0.021 0.318,0.188 0.297,0.373 -0.02,0.171 -0.166,0.299 -0.335,0.299 z"
     id="path145"
     inkscape:connector-curvature="0"
     style="fill:#4e4e4e" /><path
     d="m 30.235359,63.600877 c -0.004,0 -0.008,0 -0.013,0 l -0.714,-0.027 c -0.928,-0.035 -1.678,-0.064 -2.678,-0.081 -0.186,-0.003 -0.335,-0.157 -0.331,-0.343 0.003,-0.186 0.163,-0.332 0.343,-0.331 1.005,0.017 1.759,0.045 2.692,0.081 l 0.713,0.027 c 0.186,0.007 0.331,0.163 0.325,0.349 -0.007,0.182 -0.157,0.325 -0.337,0.325 z"
     id="path147"
     inkscape:connector-curvature="0"
     style="fill:#4e4e4e" /><path
     d="m 13.799359,63.484877 c -0.101,0 -0.197,-0.045 -0.261,-0.124 -0.065,-0.079 -0.09,-0.184 -0.068,-0.284 -0.071,-0.207 -1.035,-0.392 -1.739,-0.528 -0.986,-0.19 -2.2129998,-0.426 -3.5209998,-0.909 -2.908,-1.075 -3.12,-1.679 -3.088,-2.206 0.045,-0.86 0.766,-1.233 2.413,-1.266 2.255,-0.044 6.3009998,-0.659 10.5569998,-1.604 l 0.198,-0.044 c 3.566,-0.792 3.566,-0.792 10.467,-3.61 1.667,-0.681 3.736,-1.525 6.352,-2.584 12.899,-5.221 33.109,-5.488 47.722,-3.997 12.129,1.238 17.570001,3.572 27.449001,7.81 l 1.714,0.734 c 10.694,4.574 15.328,6.627 15.374,6.647 0.17,0.076 0.247,0.275 0.171,0.445 -0.076,0.17 -0.275,0.247 -0.445,0.171 -0.045,-0.02 -4.677,-2.072 -15.365,-6.644 l -1.714,-0.735 c -9.817,-4.211 -15.225001,-6.531 -27.251001,-7.759 -14.532,-1.483 -34.615,-1.223 -47.4,3.951 -2.615,1.059 -4.683,1.903 -6.35,2.583 -6.954,2.839 -6.954,2.839 -10.575,3.644 l -0.198,0.044 c -4.361,0.969 -8.3579998,1.575 -10.6899998,1.62 -1.722,0.034 -1.743,0.437 -1.752,0.609 -0.023,0.372 0.918,0.917 2.647,1.556 1.256,0.464 2.4529998,0.695 3.4149998,0.88 1.18,0.227 1.892,0.364 2.174,0.791 0.027,0.041 0.05,0.085 0.067,0.129 1.26,-0.011 6.213,-0.048 10.665,-0.008 0.186,0.002 0.336,0.154 0.334,0.34 -0.002,0.185 -0.152,0.334 -0.337,0.334 -10e-4,0 -0.002,0 -0.003,0 -5.116,-0.046 -10.898,0.01 -10.956,0.011 -0.004,0.003 -0.005,0.003 -0.006,0.003 z"
     id="path149"
     inkscape:connector-curvature="0"
     style="fill:#4e4e4e" /><path
     d="m 117.84636,91.874877 c 0,0 -0.001,0 -0.002,0 l -71.863001,-0.317 c -0.092,0 -0.179,-0.038 -0.243,-0.104 -0.063,-0.066 -0.097,-0.156 -0.093,-0.247 0.004,-0.085 0.311,-8.607 -4.579,-13.712 -2.444,-2.552 -5.788,-3.845 -9.939,-3.845 -4.502,0 -8.052,1.326 -10.551,3.942 -4.295,4.496 -4.035,11.338 -4.032,11.407 0.005,0.1 -0.036,0.197 -0.11,0.264 -0.074,0.067 -0.174,0.099 -0.273,0.085 -0.385,-0.053 -9.4419998,-1.317 -11.9209998,-2.165 -2.454,-0.84 -2.901,-1.931 -3.51899998,-3.442 l -0.136,-0.331 c -0.609,-1.464 -0.584,-2.478 -0.558,-3.551 0.005,-0.221 0.011,-0.448 0.011,-0.683 0,-0.896 0.258,-1.243 0.508,-1.578 0.159,-0.214 0.31,-0.416 0.405,-0.82 0.10399998,-0.441 0.28699998,-0.751 0.46399998,-1.05 0.313,-0.53 0.636,-1.077 0.701,-2.552 0.08,-1.819 0.591,-2.161 1.711,-2.91 0.16,-0.107 0.335,-0.224 0.526,-0.357 0.475,-0.33 0.866,-0.722 1.32,-1.175 0.9,-0.9 2.021,-2.021 4.3339998,-3.089 3.115,-1.438 3.459,-2.564 3.462,-2.575 0.049,-0.175 0.23,-0.284 0.406,-0.243 0.177,0.043 0.289,0.214 0.251,0.392 -0.03,0.144 -0.395,1.45 -3.837,3.038 -2.2039998,1.017 -3.2329998,2.046 -4.1399998,2.953 -0.456,0.456 -0.887,0.887 -1.412,1.252 -0.195,0.135 -0.373,0.255 -0.536,0.364 -1.062,0.71 -1.348,0.901 -1.413,2.379 -0.072,1.643 -0.472,2.32 -0.794,2.865 -0.165,0.279 -0.308,0.521 -0.388,0.862 -0.127,0.541 -0.345,0.834 -0.521,1.069 -0.21699998,0.291 -0.37399998,0.502 -0.37399998,1.175 0,0.241 -0.006,0.473 -0.011,0.7 -0.025,1.043 -0.047,1.943 0.50699998,3.275 l 0.138,0.334 c 0.612,1.495 0.949,2.319 3.113,3.06 2.132,0.729 9.6079998,1.823 11.4049998,2.08 0.003,-1.585 0.296,-7.386 4.225,-11.499 2.631,-2.754 6.345,-4.151 11.038,-4.151 4.343,0 7.852,1.365 10.428,4.056 4.573,4.777 4.786,12.146 4.771,13.855 l 71.519001,0.316 c 0.186,0.001 0.336,0.152 0.336,0.339 0.003,0.184 -0.148,0.334 -0.334,0.334 z"
     id="path151"
     inkscape:connector-curvature="0"
     style="fill:#4e4e4e" /><path
     d="m 123.63436,65.532877 c -0.399,0 -0.854,-0.03 -1.356,-0.063 l -0.478,-0.031 c -2.066,-0.129 -12.287,-1.099 -12.39,-1.108 -0.185,-0.018 -0.321,-0.182 -0.304,-0.367 0.018,-0.185 0.185,-0.323 0.367,-0.304 0.103,0.01 10.313,0.978 12.368,1.107 l 0.481,0.031 c 1.908,0.126 2.401,0.097 2.481,-0.46 0.141,-0.977 -2.359,-2.081 -4.777,-3.147 -1.182,-0.522 -2.405,-1.061 -3.512,-1.654 l -0.436,-0.235 c -13.89,-7.513 -29.385001,-11.322 -46.054001,-11.322 -21.634,0 -31.147,3.74 -34.892,5.969 -0.079,0.047 -0.142,0.084 -0.191,0.112 -0.965,0.543 -1.481,1.18 -1.078,2.681 0.358,1.33 1.289,2.337 1.575,2.622 1.836,0.07 22.633,0.869 34.013,1.363 11.856,0.516 31.930001,2.07 32.131001,2.086 0.186,0.014 0.324,0.176 0.31,0.362 -0.014,0.185 -0.175,0.325 -0.362,0.31 -0.201,-0.016 -20.263001,-1.569 -32.108001,-2.084 -11.85,-0.515 -33.917,-1.36 -34.138,-1.368 -0.079,-0.003 -0.154,-0.034 -0.212,-0.086 -0.056,-0.051 -1.383,-1.26 -1.859,-3.03 -0.55,-2.045 0.458,-2.915 1.398,-3.444 0.045,-0.025 0.103,-0.06 0.176,-0.103 3.805,-2.265 13.441,-6.064 35.237,-6.064 16.782,0 32.385001,3.837 46.375001,11.403 l 0.433,0.234 c 1.085,0.581 2.295,1.115 3.466,1.632 3.009,1.328 5.386,2.377 5.172,3.861 -0.128,0.891 -0.792,1.097 -1.836,1.097 z"
     id="path153"
     inkscape:connector-curvature="0"
     style="fill:#4e4e4e" /><path
     d="m 122.94236,65.510877 c -0.106,0 -0.211,-0.05 -0.277,-0.144 -0.106,-0.152 -0.069,-0.361 0.081,-0.468 0.005,-0.003 0.245,-0.182 0.232,-0.414 -0.014,-0.246 -0.299,-0.539 -0.804,-0.826 -1,-0.568 -10.115,-5.678 -21.968,-9.901 -10.108001,-3.602 -24.685001,-4.553 -27.596001,-4.711 l 4.752,12.292 c 0.067,0.174 -0.019,0.369 -0.193,0.436 -0.172,0.067 -0.369,-0.019 -0.436,-0.193 l -4.94,-12.776 c -0.041,-0.106 -0.026,-0.226 0.04,-0.318 0.066,-0.092 0.177,-0.143 0.288,-0.141 0.169,0.007 16.995,0.744 28.310001,4.775 11.907,4.243 21.069,9.379 22.075,9.95 0.736,0.419 1.121,0.884 1.144,1.384 0.022,0.484 -0.315,0.852 -0.518,0.993 -0.056,0.042 -0.123,0.062 -0.19,0.062 z"
     id="path155"
     inkscape:connector-curvature="0"
     style="fill:#4e4e4e" /><path
     d="m 73.216359,88.786877 c -0.025,0 -0.051,-0.003 -0.076,-0.009 -0.182,-0.042 -0.295,-0.223 -0.252,-0.404 1.227,-5.298 1.067,-12.166 0.84,-16.871 -0.255,-5.298 -1.92,-10.156 -1.936,-10.204 -0.005,-0.016 -0.01,-0.032 -0.013,-0.048 l -2.542,-13.548 c -0.034,-0.183 0.086,-0.359 0.269,-0.394 0.184,-0.034 0.359,0.086 0.394,0.269 l 2.536,13.524 c 0.13,0.385 1.714,5.17 1.964,10.368 0.229,4.745 0.388,11.676 -0.857,17.055 -0.035,0.157 -0.174,0.262 -0.327,0.262 z"
     id="path157"
     inkscape:connector-curvature="0"
     style="fill:#4e4e4e" /><path
     d="m 68.782359,61.370877 c -0.171,0 -0.317,-0.129 -0.335,-0.303 l -1.366,-13.374 c -0.019,-0.185 0.116,-0.351 0.301,-0.37 0.186,-0.018 0.351,0.116 0.37,0.301 l 1.366,13.374 c 0.019,0.185 -0.116,0.351 -0.301,0.37 -0.012,0.002 -0.024,0.002 -0.035,0.002 z"
     id="path159"
     inkscape:connector-curvature="0"
     style="fill:#4e4e4e" /><path
     d="m 68.099359,61.370877 c -0.171,0 -0.317,-0.129 -0.335,-0.303 l -1.367,-13.374 c -0.019,-0.185 0.116,-0.351 0.301,-0.37 0.186,-0.018 0.351,0.116 0.37,0.301 l 1.367,13.374 c 0.019,0.185 -0.116,0.351 -0.301,0.37 -0.012,0.002 -0.024,0.002 -0.035,0.002 z"
     id="path161"
     inkscape:connector-curvature="0"
     style="fill:#4e4e4e" /><path
     d="m 45.201359,60.096877 c -0.168,0 -0.313,-0.125 -0.334,-0.296 l -1.043,-8.405 c -0.015,-0.123 0.038,-0.244 0.138,-0.316 0.122,-0.087 0.956,-0.446 6.588,-1.426 5.949,-1.035 16.071,-1.306 16.172,-1.308 0.187,-0.009 0.341,0.142 0.346,0.328 0.005,0.186 -0.142,0.341 -0.328,0.345 -0.101,0.003 -10.174,0.272 -16.074,1.298 -4.236,0.737 -5.679,1.113 -6.141,1.257 l 1.01,8.142 c 0.023,0.185 -0.108,0.353 -0.293,0.376 -0.013,0.004 -0.027,0.005 -0.041,0.005 z"
     id="path163"
     inkscape:connector-curvature="0"
     style="fill:#4e4e4e" /><path
     d="m 44.159359,60.096877 c -0.171,0 -0.317,-0.129 -0.335,-0.303 l -0.808,-7.888 c -0.974,0.251 -3.659,1.001 -5.598,2.088 -1.802,1.01 -1.498,1.964 -1.071,2.778 0.502,0.958 1.877,2.765 1.891,2.783 0.113,0.148 0.084,0.36 -0.064,0.473 -0.148,0.113 -0.36,0.085 -0.473,-0.064 -0.058,-0.076 -1.423,-1.871 -1.952,-2.879 -0.509,-0.972 -0.924,-2.41 1.338,-3.679 2.483,-1.392 5.999,-2.215 6.148,-2.249 0.094,-0.022 0.193,-0.002 0.272,0.054 0.079,0.056 0.129,0.144 0.139,0.24 l 0.847,8.274 c 0.019,0.185 -0.116,0.351 -0.301,0.37 -0.01,0.001 -0.022,0.002 -0.033,0.002 z"
     id="path165"
     inkscape:connector-curvature="0"
     style="fill:#4e4e4e" /><path
     d="m 21.755359,76.424877 c -0.033,0 -0.067,-0.005 -0.1,-0.015 -0.086,-0.027 -8.617,-2.681 -11.45,-3.257 -2.5859998,-0.526 -2.9739998,-1.006 -3.3919998,-1.746 -0.04,-0.07 -0.08,-0.141 -0.126,-0.215 -0.445,-0.717 -1.057,-2.021 -1.083,-2.076 -0.079,-0.169 -0.006,-0.369 0.162,-0.448 0.169,-0.08 0.369,-0.006 0.448,0.162 0.006,0.013 0.621,1.323 1.045,2.007 0.051,0.082 0.096,0.161 0.14,0.238 0.304,0.538 0.523,0.926 2.9389998,1.417 2.867,0.583 11.165,3.164 11.516,3.274 0.178,0.055 0.277,0.244 0.221,0.422 -0.043,0.144 -0.176,0.237 -0.32,0.237 z"
     id="path167"
     inkscape:connector-curvature="0"
     style="fill:#4e4e4e" /><path
     d="m 16.955359,78.924877 c 0,0 -7.0369998,-0.244 -10.4329998,-0.366 -3.166,-0.114 -4.683,-0.277 -5.298,-0.944 -0.199,-0.216 -0.29299998,-0.477 -0.27999998,-0.776 0.008,-0.186 0.16399998,-0.327 0.35199998,-0.321 0.186,0.008 0.33,0.166 0.321,0.352 -0.005,0.117 0.026,0.206 0.102,0.288 0.488,0.53 2.475,0.643 4.826,0.728 3.396,0.122 10.4319998,0.366 10.4319998,0.366 l -0.022,0.673 z"
     id="path169"
     inkscape:connector-curvature="0"
     style="fill:#4e4e4e" /><path
     d="m 8.3913592,76.726877 c -0.023,0 -0.046,-0.002 -0.069,-0.007 -5.258,-1.099 -6.235,-1.218 -6.274,-1.222 -0.185,-0.021 -0.318,-0.188 -0.297,-0.373 0.021,-0.185 0.186,-0.316 0.372,-0.297 0.039,0.004 1.007,0.118 6.336,1.233 0.182,0.038 0.299,0.217 0.261,0.399 -0.032,0.158 -0.173,0.267 -0.329,0.267 z"
     id="path171"
     inkscape:connector-curvature="0"
     style="fill:#4e4e4e" /><path
     d="m 2.1283592,85.940877 c -0.022,0 -0.044,-0.002 -0.067,-0.007 -0.052,-0.011 -1.28499998,-0.27 -1.86399998,-1.325 -0.533,-0.97 0.179,-2.088 0.21,-2.135 0.101,-0.156 0.31,-0.201 0.466,-0.099 0.15599998,0.101 0.19999998,0.31 0.099,0.466 -0.005,0.007 -0.522,0.828 -0.185,1.443 0.42599998,0.776 1.39799998,0.987 1.40799998,0.989 0.182,0.038 0.299,0.216 0.262,0.398 -0.032,0.16 -0.172,0.27 -0.329,0.27 z"
     id="path173"
     inkscape:connector-curvature="0"
     style="fill:#4e4e4e" /><path
     d="m 16.209359,89.349877 c -0.056,0 -0.11,-0.014 -0.156,-0.038 -0.108,-0.025 -0.428,-0.076 -0.765,-0.13 -2.756,-0.439 -10.0759998,-1.604 -12.0889998,-4.666 -1.568,-2.385 -1.742,-4.157 -1.869,-5.451 -0.068,-0.695 -0.122,-1.245 -0.35299998,-1.722 -0.081,-0.168 -0.011,-0.369 0.15699998,-0.45 0.167,-0.082 0.369,-0.011 0.45,0.157 0.283,0.586 0.345,1.218 0.417,1.95 0.127,1.292 0.284,2.9 1.761,5.146 1.85,2.813 9.2119998,3.986 11.6319998,4.371 1.066,0.17 1.153,0.183 1.153,0.497 -0.001,0.185 -0.152,0.336 -0.338,0.336 z"
     id="path175"
     inkscape:connector-curvature="0"
     style="fill:#4e4e4e" /><path
     d="m 4.4023592,70.620877 c -0.151,0 -0.289,-0.102 -0.327,-0.255 -0.04,-0.158 -0.377,-1.563 -0.108,-2.343 0.06,-0.174 0.304,-0.403 0.671,-0.663 -0.072,-0.692 0.099,-1.336 2.194,-2.109 0.781,-0.288 1.334,-0.525 1.779,-0.715 0.821,-0.351 1.279,-0.543 1.9619998,-0.527 0.158,0.004 0.579,0.015 0.638,0.369 0.037,0.222 -0.017,0.472 -1.091,0.87 -1.8469998,0.842 -3.8989998,1.883 -4.9079998,2.523 -0.022,0.019 -0.047,0.035 -0.074,0.048 -0.294,0.191 -0.486,0.342 -0.54,0.437 -0.167,0.487 0.043,1.597 0.13,1.946 0.045,0.181 -0.065,0.364 -0.245,0.409 -0.027,0.006 -0.054,0.01 -0.081,0.01 z m 3.355,-5.002 c -0.209,0.083 -0.438,0.171 -0.691,0.264 -1.131,0.417 -1.55,0.736 -1.695,1.005 0.684,-0.408 1.538,-0.852 2.386,-1.269 z"
     id="path177"
     inkscape:connector-curvature="0"
     style="fill:#4e4e4e" /><path
     d="m 4.1853592,68.842877 c -0.185,0 -0.335,-0.149 -0.337,-0.334 -10e-4,-0.096 -0.02,-2.348 0.017,-3.034 0.007,-0.131 0.005,-0.266 0.003,-0.409 -0.009,-0.631 -0.02,-1.417 0.578,-2.696 0.717,-1.533 1.304,-2.283 1.329,-2.314 0.116,-0.146 0.327,-0.17 0.473,-0.055 0.146,0.115 0.171,0.327 0.056,0.473 -0.005,0.007 -0.568,0.729 -1.248,2.182 -0.532,1.138 -0.523,1.809 -0.514,2.401 0.002,0.16 0.004,0.31 -0.004,0.455 -0.036,0.666 -0.016,2.969 -0.016,2.992 0.002,0.186 -0.148,0.338 -0.334,0.34 -10e-4,-0.001 -0.002,-0.001 -0.003,-0.001 z"
     id="path179"
     inkscape:connector-curvature="0"
     style="fill:#4e4e4e" /><path
     d="m 5.1123592,66.984877 c -0.014,0 -0.027,-10e-4 -0.041,-0.002 -0.185,-0.023 -0.316,-0.191 -0.294,-0.376 0.011,-0.085 0.259,-2.092 0.593,-2.861 0.366,-0.846 0.659,-1.078 1.65,-1.308 0.715,-0.166 3.9749998,-0.093 5.6729998,-0.041 -0.903,-0.571 -2.284,-1.056 -3.5399998,-1.496 -0.631,-0.221 -1.227,-0.431 -1.74,-0.642 -0.798,-0.328 -1.188,-0.7 -1.195,-1.137 -0.008,-0.563 0.644,-0.87 0.718,-0.903 0.17,-0.076 0.369,10e-4 0.445,0.171 0.076,0.17 0,0.368 -0.169,0.444 l 0,0 c -0.156,0.072 -0.321,0.214 -0.32,0.278 0,0.002 0.025,0.214 0.777,0.523 0.497,0.205 1.085,0.411 1.707,0.63 1.7449998,0.613 3.7229998,1.307 4.5419998,2.286 0.085,0.102 0.103,0.245 0.044,0.365 -0.058,0.12 -0.182,0.199 -0.315,0.189 -2.257,-0.084 -5.8439998,-0.155 -6.4749998,-0.009 -0.814,0.189 -0.916,0.302 -1.184,0.92 -0.245,0.565 -0.474,2.122 -0.542,2.674 -0.021,0.17 -0.166,0.295 -0.334,0.295 z"
     id="path181"
     inkscape:connector-curvature="0"
     style="fill:#4e4e4e" /><path
     d="m 49.046359,62.923877 c -0.016,0 -0.033,-10e-4 -0.05,-0.004 -0.111,-0.016 -11.184,-1.635 -21.109,-1.635 -9.969,0 -16.294,-0.68 -16.357,-0.686 -0.185,-0.02 -0.319,-0.187 -0.299,-0.372 0.02,-0.185 0.187,-0.317 0.372,-0.299 0.062,0.007 6.355,0.682 16.284,0.682 9.975,0 21.096,1.626 21.207,1.642 0.184,0.027 0.311,0.199 0.284,0.383 -0.023,0.169 -0.167,0.289 -0.332,0.289 z"
     id="path183"
     inkscape:connector-curvature="0"
     style="fill:#4e4e4e" /><path
     d="m 110.56236,89.771877 c -1.759,0 -3.406,-0.109 -5.119,-0.222 -2.131,-0.141 -4.336,-0.29 -7.091001,-0.264 -3.052,0.026 -8.59,-0.112 -14.452,-0.256 -5.845,-0.144 -12.47,-0.306 -17.56,-0.331 -2.734,-0.014 -5.077,0.048 -7.144,0.101 -5.661,0.146 -8.78,0.227 -9.99,-1.569 -0.541,-0.803 -0.856,-1.873 -1.22,-3.113 -0.708,-2.408 -1.59,-5.405 -4.602,-8.418 -1.849,-1.849 -3.008,-2.559 -3.854,-3.076 -1.315,-0.804 -1.974,-1.208 -3.209,-4.369 -2.016,-5.164 -1.38,-8.488 -1.352,-8.627 0.037,-0.182 0.213,-0.299 0.397,-0.264 0.182,0.037 0.301,0.214 0.264,0.397 -0.006,0.032 -0.619,3.286 1.319,8.248 1.152,2.95 1.71,3.291 2.932,4.039 0.875,0.535 2.073,1.269 3.979,3.175 3.134,3.134 4.081,6.354 4.772,8.705 0.349,1.186 0.65,2.21 1.133,2.926 1.004,1.489 3.991,1.412 9.413,1.272 2.073,-0.054 4.422,-0.115 7.165,-0.101 5.097,0.025 11.725,0.187 17.574,0.331 5.857,0.144 11.39,0.279 14.43,0.255 2.783001,-0.022 4.998001,0.124 7.141001,0.266 2.479,0.164 4.82,0.319 7.548,0.143 4.06,-0.262 4.225,-3.522 4.385,-6.674 0.025,-0.493 0.05,-0.977 0.089,-1.438 0.065,-0.765 0.124,-1.355 0.174,-1.865 0.174,-1.759 0.253,-2.562 0.216,-6.428 -0.047,-4.854 -1.748,-7.769 -1.766,-7.798 -0.015,-0.025 -0.027,-0.053 -0.035,-0.082 l -1.414,-5.061 c -0.05,-0.179 0.055,-0.365 0.234,-0.415 0.179,-0.051 0.365,0.054 0.415,0.234 l 1.403,5.02 c 0.221,0.389 1.79,3.316 1.837,8.096 0.038,3.903 -0.042,4.717 -0.219,6.501 -0.05,0.507 -0.108,1.094 -0.173,1.856 -0.039,0.454 -0.063,0.93 -0.088,1.415 -0.158,3.124 -0.356,7.013 -5.015,7.313 -0.873,0.055 -1.707,0.078 -2.517,0.078 z"
     id="path185"
     inkscape:connector-curvature="0"
     style="fill:#4e4e4e" /><path
     d="m 114.30336,64.785877 c -0.167,0 -0.312,-0.124 -0.334,-0.295 l -0.704,-5.536 c -0.023,-0.185 0.107,-0.354 0.292,-0.377 0.185,-0.02 0.354,0.107 0.377,0.292 l 0.704,5.536 c 0.023,0.185 -0.107,0.354 -0.292,0.377 -0.015,0.002 -0.029,0.003 -0.043,0.003 z"
     id="path187"
     inkscape:connector-curvature="0"
     style="fill:#4e4e4e" /><path
     d="m 108.63636,67.417877 -2.101,0 c -0.401,0 -1.187,-0.268 -1.288,-1.281 -0.099,-0.982 -0.106,-3.282 -0.106,-3.38 0,-0.186 0.15,-0.338 0.336,-0.338 0,0 10e-4,0 10e-4,0 0.186,0 0.337,0.15 0.337,0.336 0,0.023 0.007,2.365 0.102,3.315 0.066,0.655 0.561,0.674 0.617,0.674 l 2.101,0 c 0.575,0 0.797,-0.153 1.027,-0.454 0.113,-0.148 0.325,-0.176 0.473,-0.063 0.148,0.113 0.176,0.325 0.063,0.473 -0.39,0.51 -0.843,0.718 -1.562,0.718 z"
     id="path189"
     inkscape:connector-curvature="0"
     style="fill:#4e4e4e" /><path
     d="m 105.91036,62.922877 c -2.527,0 -4.145,-1.035 -4.329,-2.769 -0.081,-0.759 0.179,-1.494 0.73,-2.069 0.708,-0.739 1.827,-1.135 2.998,-1.064 0.186,0.012 0.327,0.172 0.315,0.358 -0.012,0.186 -0.169,0.325 -0.358,0.315 -0.975,-0.06 -1.897,0.259 -2.469,0.857 -0.417,0.436 -0.606,0.965 -0.546,1.531 0.144,1.356 1.511,2.166 3.658,2.166 1.832,0 2.926,-0.787 2.926,-2.106 0,-0.186 0.151,-0.337 0.337,-0.337 0.186,0 0.337,0.151 0.337,0.337 0.001,1.715 -1.378,2.781 -3.599,2.781 z"
     id="path191"
     inkscape:connector-curvature="0"
     style="fill:#4e4e4e" /><path
     d="m 106.40736,62.122877 c -0.14,0 -0.282,-0.01 -0.423,-0.029 -0.184,-0.025 -0.313,-0.196 -0.288,-0.38 0.025,-0.184 0.194,-0.315 0.38,-0.288 0.628,0.086 1.24,-0.074 1.637,-0.43 0.197,-0.176 0.428,-0.481 0.415,-0.93 -0.026,-0.869 -0.878,-1.451 -2.277,-1.557 -1.485,-0.114 -2.309,0.21 -2.754,1.079 -0.085,0.166 -0.288,0.232 -0.454,0.146 -0.166,-0.085 -0.231,-0.288 -0.146,-0.454 0.751,-1.468 2.303,-1.526 3.405,-1.444 1.778,0.135 2.863,0.96 2.9,2.209 0.017,0.552 -0.21,1.068 -0.638,1.452 -0.45,0.404 -1.086,0.626 -1.757,0.626 z"
     id="path193"
     inkscape:connector-curvature="0"
     style="fill:#4e4e4e" /><path
     d="m 109.44136,67.075877 c -0.151,0 -0.288,-0.102 -0.327,-0.254 l -1.188,-4.698 c -0.046,-0.181 0.064,-0.364 0.244,-0.41 0.182,-0.046 0.364,0.064 0.41,0.244 l 1.188,4.698 c 0.046,0.181 -0.064,0.364 -0.244,0.41 -0.027,0.007 -0.055,0.01 -0.083,0.01 z"
     id="path195"
     inkscape:connector-curvature="0"
     style="fill:#4e4e4e" /><path
     d="m 109.78436,65.435877 c -0.124,0 -0.243,-0.068 -0.302,-0.186 l -1.53,-3.058 c -0.083,-0.166 -0.016,-0.369 0.151,-0.452 0.166,-0.083 0.369,-0.016 0.452,0.151 l 1.53,3.058 c 0.083,0.166 0.016,0.369 -0.151,0.452 -0.048,0.023 -0.099,0.035 -0.15,0.035 z"
     id="path197"
     inkscape:connector-curvature="0"
     style="fill:#4e4e4e" /><path
     d="m 108.36736,60.303877 -6.461,0 c -0.186,0 -0.337,-0.151 -0.337,-0.337 0,-0.186 0.151,-0.337 0.337,-0.337 l 6.461,0 c 0.186,0 0.337,0.151 0.337,0.337 0,0.186 -0.151,0.337 -0.337,0.337 z"
     id="path199"
     inkscape:connector-curvature="0"
     style="fill:#4e4e4e" /><path
     d="m 28.376359,67.979877 c -2.187,0 -2.924,-1.244 -3.169,-1.986 -0.461,-1.396 0.078,-3.093 0.867,-3.678 0.619,-0.459 1.821,-0.779 2.924,-0.779 0.773,0 1.841,0.153 2.54,0.885 0.463,0.484 0.68,1.136 0.644,1.937 -0.159,3.527 -3.765,3.62 -3.801,3.621 -0.002,0 -0.003,0 -0.005,0 z m 0.623,-5.768 c -1.073,0 -2.1,0.333 -2.523,0.646 -0.58,0.43 -0.99,1.831 -0.629,2.925 0.329,0.996 1.202,1.522 2.526,1.523 0.154,-0.004 3.006,-0.107 3.136,-2.977 0.027,-0.61 -0.126,-1.094 -0.458,-1.441 -0.416,-0.436 -1.145,-0.676 -2.052,-0.676 z"
     id="path201"
     inkscape:connector-curvature="0"
     style="fill:#4e4e4e" /><path
     d="m 16.737359,78.057877 c -0.045,0 -0.092,-0.009 -0.136,-0.029 -0.17,-0.075 -0.247,-0.274 -0.172,-0.444 0.032,-0.073 3.338,-7.296 14.136,-7.639 2.103,-0.067 3.859,0.228 5.301,0.526 0.182,0.038 0.3,0.216 0.262,0.398 -0.038,0.182 -0.216,0.301 -0.398,0.262 -1.403,-0.29 -3.113,-0.577 -5.143,-0.513 -10.355,0.329 -13.51,7.168 -13.541,7.237 -0.057,0.127 -0.18,0.202 -0.309,0.202 z"
     id="path203"
     inkscape:connector-curvature="0"
     style="fill:#4e4e4e" /><path
     d="m 46.202359,66.325877 c -0.335,0 -0.654,-0.082 -1.024,-0.177 -0.467,-0.12 -0.996,-0.256 -1.737,-0.277 -0.643,-0.018 -1.171,0.075 -1.682,0.164 -0.645,0.113 -1.278,0.2 -1.868,0.081 -0.817,-0.164 -1.802,-0.427 -2.162,-1.018 -0.147,-0.241 -0.181,-0.52 -0.099,-0.806 0.206,-0.719 1.171,-1.054 3.037,-1.054 0.698,0 1.387,0.045 2.028,0.094 0.155,0.012 0.331,0.023 0.524,0.035 1.9,0.12 4.772,0.301 4.772,1.93 0,0.546 -0.583,0.918 -1.599,1.02 -0.063,0.005 -0.126,0.008 -0.19,0.008 z m -2.922,-1.131 c 0.059,0 0.119,10e-4 0.18,0.003 0.816,0.023 1.409,0.176 1.886,0.298 0.395,0.101 0.689,0.179 0.978,0.15 0.706,-0.071 0.991,-0.275 0.991,-0.349 0,-0.996 -2.796,-1.172 -4.14,-1.257 -0.195,-0.012 -0.375,-0.024 -0.532,-0.036 -0.628,-0.048 -1.302,-0.092 -1.977,-0.092 -2.066,0 -2.351,0.433 -2.389,0.566 -0.039,0.136 -0.006,0.215 0.027,0.269 0.168,0.275 0.746,0.514 1.718,0.708 0.487,0.097 1.035,0.018 1.62,-0.084 0.474,-0.082 1.01,-0.176 1.638,-0.176 z"
     id="path205"
     inkscape:connector-curvature="0"
     style="fill:#4e4e4e" /><path
     d="m 47.624359,65.778877 c -0.026,0 -0.053,-0.003 -0.08,-0.009 -0.041,-0.01 -4.207,-1.004 -9.574,-0.865 -0.17,0.013 -0.341,-0.142 -0.346,-0.328 -0.005,-0.186 0.142,-0.341 0.328,-0.346 5.459,-0.146 9.709,0.873 9.751,0.883 0.181,0.044 0.292,0.226 0.248,0.407 -0.038,0.154 -0.176,0.258 -0.327,0.258 z"
     id="path207"
     inkscape:connector-curvature="0"
     style="fill:#4e4e4e" /><path
     d="m 43.426359,67.515877 c -2.908,0 -5.951,-0.764 -6.197,-2.47 -0.027,-0.184 0.101,-0.355 0.286,-0.382 0.183,-0.028 0.355,0.101 0.382,0.286 0.153,1.061 2.582,1.892 5.53,1.892 2.757,0 4.365,-0.87 4.479,-1.69 0.026,-0.184 0.198,-0.313 0.38,-0.287 0.184,0.026 0.313,0.196 0.287,0.38 -0.189,1.358 -2.257,2.271 -5.147,2.271 z"
     id="path209"
     inkscape:connector-curvature="0"
     style="fill:#4e4e4e" /><path
     d="m 47.873359,64.722877 c -0.082,0 -0.164,-0.03 -0.228,-0.089 -0.018,-0.016 -1.454,-1.295 -4.389,-1.295 -0.186,0 -0.337,-0.151 -0.337,-0.337 0,-0.186 0.151,-0.337 0.337,-0.337 3.223,0 4.782,1.414 4.847,1.475 0.137,0.127 0.144,0.34 0.018,0.476 -0.067,0.07 -0.157,0.107 -0.248,0.107 z"
     id="path211"
     inkscape:connector-curvature="0"
     style="fill:#4e4e4e" /><path
     d="m 81.492359,70.349877 c -2.555,0 -3.606,-0.992 -3.921,-1.383 -0.696,-0.072 -2.674,-0.377 -2.671,-1.545 0.001,-0.426 0.16,-0.779 0.46,-1.02 0.73,-0.586 2.049,-0.319 2.197,-0.286 0.182,0.04 0.297,0.219 0.257,0.401 -0.04,0.182 -0.219,0.298 -0.401,0.258 -0.316,-0.068 -1.224,-0.174 -1.632,0.154 -0.14,0.113 -0.206,0.27 -0.207,0.495 -0.001,0.464 1.28,0.812 2.205,0.885 0.111,0.009 0.211,0.072 0.267,0.169 0.005,0.008 0.757,1.198 3.445,1.198 2.766,0 3.158,-0.863 3.504,-1.625 0.077,-0.17 0.277,-0.245 0.446,-0.168 0.17,0.077 0.245,0.277 0.168,0.446 -0.483,1.065 -1.162,2.021 -4.117,2.021 z"
     id="path213"
     inkscape:connector-curvature="0"
     style="fill:#4e4e4e" /><path
     d="m 83.824359,68.842877 c -0.411,0 -0.961,-0.04 -1.714,-0.132 -2.145,-0.262 -4.298,-0.184 -4.32,-0.184 -0.279,-0.01 -2.5,-0.13 -2.5,-1.348 0,-0.186 0.151,-0.337 0.337,-0.337 0.186,0 0.337,0.151 0.337,0.337 0,0.393 1.06,0.644 1.826,0.674 0.064,-0.004 2.201,-0.081 4.401,0.188 1.997,0.244 2.309,0.073 2.358,0.015 0.011,-0.186 0.176,-0.333 0.357,-0.326 0.186,0.011 0.328,0.162 0.317,0.347 -0.012,0.202 -0.097,0.375 -0.246,0.499 -0.192,0.162 -0.49,0.267 -1.153,0.267 z"
     id="path215"
     inkscape:connector-curvature="0"
     style="fill:#4e4e4e" /><path
     d="m 126.55036,72.670877 c -0.018,0 -0.036,-0.001 -0.054,-0.004 -0.07,-0.011 -7.154,-1.147 -16.834,-2.305 -7.375,-0.883 -13.338001,-1.458 -16.204001,-1.735 l -1.048,-0.101 c -3.505,-0.344 -7.129,-0.609 -7.165,-0.612 -0.121,-0.009 -0.228,-0.083 -0.281,-0.192 -0.011,-0.024 -0.023,-0.047 -0.036,-0.07 -0.066,0.157 -0.242,0.242 -0.408,0.192 -0.081,-0.024 -0.147,-0.077 -0.189,-0.143 -0.099,-0.051 -0.467,-0.196 -1.666,-0.359 -1.95,-0.265 -4.457,-0.509 -4.482,-0.511 -0.131,-0.013 -0.242,-0.1 -0.286,-0.224 -0.043,-0.124 -0.011,-0.262 0.084,-0.353 0.037,-0.036 0.924,-0.877 2.629,-0.877 1.841,0 4.093,0.59 4.868,1.879 0.784,0.059 3.936,0.299 6.997,0.599 l 1.047,0.102 c 2.868,0.277 8.836001,0.853 16.219001,1.736 9.694,1.16 16.79,2.298 16.861,2.309 0.184,0.029 0.309,0.203 0.279,0.386 -0.025,0.165 -0.168,0.283 -0.331,0.283 z m -47.252001,-6.405 c 0.92,0.097 2.289,0.248 3.46,0.407 0.705,0.096 1.169,0.19 1.479,0.278 -0.899,-0.59 -2.365,-0.901 -3.626,-0.901 -0.538,0 -0.976,0.096 -1.313,0.216 z"
     id="path217"
     inkscape:connector-curvature="0"
     style="fill:#4e4e4e" /><path
     d="m 84.888359,68.321877 c -0.01,0 -0.021,0 -0.031,-0.001 l -6.67,-0.611 c -0.185,-0.017 -0.322,-0.181 -0.305,-0.367 0.017,-0.185 0.179,-0.324 0.367,-0.305 l 6.67,0.611 c 0.185,0.017 0.322,0.181 0.305,0.367 -0.017,0.175 -0.164,0.306 -0.336,0.306 z"
     id="path219"
     inkscape:connector-curvature="0"
     style="fill:#4e4e4e" /><path
     d="m 77.717359,67.979877 c -0.314,0 -0.569,-0.255 -0.569,-0.569 0,-0.314 0.255,-0.569 0.569,-0.569 0.314,0 0.569,0.255 0.569,0.569 0,0.314 -0.255,0.569 -0.569,0.569 z m 0,-0.674 c -0.058,0 -0.105,0.047 -0.105,0.105 0,0.116 0.21,0.116 0.21,0 0,-0.058 -0.047,-0.105 -0.105,-0.105 z"
     id="path221"
     inkscape:connector-curvature="0"
     style="fill:#4e4e4e" /><path
     d="m 76.446359,67.588877 c -0.26,0 -0.472,-0.212 -0.472,-0.471 0,-0.26 0.212,-0.471 0.472,-0.471 0.26,0 0.471,0.212 0.471,0.471 10e-4,0.26 -0.211,0.471 -0.471,0.471 z m 0,-0.674 c -0.112,0 -0.203,0.091 -0.203,0.203 0,0.112 0.091,0.203 0.203,0.203 0.112,0 0.203,-0.091 0.203,-0.203 0,-0.112 -0.091,-0.203 -0.203,-0.203 z"
     id="path223"
     inkscape:connector-curvature="0"
     style="fill:#4e4e4e" /><path
     d="m 123.30636,92.888877 c -0.1,0 -0.233,-0.04 -0.361,-0.204 -0.635,-0.813 -2.504,-6.989 0.797,-12.869 0.091,-0.163 0.296,-0.22 0.459,-0.129 0.162,0.091 0.22,0.297 0.129,0.459 -3.11,5.538 -1.368,11.42 -0.875,12.097 0.089,0.04 0.16,0.117 0.187,0.219 0.049,0.18 -0.057,0.365 -0.236,0.414 -0.027,0.007 -0.061,0.013 -0.1,0.013 z"
     id="path225"
     inkscape:connector-curvature="0"
     style="fill:#4e4e4e" /><path
     d="m 121.16936,61.664877 c -0.077,0 -0.154,-0.026 -0.217,-0.079 -0.142,-0.12 -0.16,-0.333 -0.04,-0.475 l 1.324,-1.568 c 0.12,-0.142 0.333,-0.16 0.475,-0.04 0.142,0.12 0.16,0.333 0.04,0.475 l -1.324,1.568 c -0.067,0.079 -0.162,0.119 -0.258,0.119 z"
     id="path227"
     inkscape:connector-curvature="0"
     style="fill:#4e4e4e" /><path
     d="m 108.84836,62.922877 c -0.115,0 -0.228,-0.059 -0.291,-0.166 -0.095,-0.16 -0.041,-0.367 0.119,-0.462 0.027,-0.016 2.694,-1.588 3.266,-1.969 0.033,-0.022 0.06,-0.041 0.082,-0.058 -0.18,-0.112 -0.535,-0.274 -0.768,-0.38 -0.208,-0.095 -0.532,-0.252 -0.949,-0.454 -1.785,-0.864 -5.107,-2.473 -8.515,-3.691 -1.124,-0.401 -2.288001,-0.867 -3.520001,-1.36 -3.473,-1.389 -7.409,-2.964 -12.596,-4.002 -0.183,-0.036 -0.301,-0.214 -0.264,-0.397 0.037,-0.182 0.216,-0.3 0.397,-0.264 5.248,1.05 9.215,2.637 12.714,4.037 1.226,0.49 2.384001,0.954 3.496001,1.351 3.442,1.23 6.786,2.849 8.582,3.719 0.411,0.199 0.73,0.353 0.935,0.447 0.779,0.355 1.207,0.55 1.239,0.945 0.027,0.343 -0.301,0.562 -0.459,0.667 -0.587,0.392 -3.187,1.924 -3.297,1.989 -0.054,0.033 -0.113,0.048 -0.171,0.048 z"
     id="path229"
     inkscape:connector-curvature="0"
     style="fill:#4e4e4e" /><path
     d="m 102.38336,58.853877 c -0.053,0 -0.106,-0.012 -0.156,-0.039 -0.033,-0.017 -3.380001,-1.759 -8.321001,-3.311 l -0.368,-0.115 c -5.244,-1.647 -8.409,-2.642 -12.017,-2.982 -4.125,-0.388 -5.594,0.705 -6.033,1.193 -0.536,0.595 -0.318,1.543 -0.126,2.379 0.036,0.157 0.07,0.308 0.099,0.449 0.036,0.183 -0.083,0.36 -0.265,0.396 -0.182,0.037 -0.36,-0.082 -0.396,-0.265 -0.027,-0.136 -0.06,-0.28 -0.094,-0.43 -0.206,-0.897 -0.488,-2.126 0.282,-2.982 0.63,-0.7 2.325,-1.816 6.598,-1.413 3.679,0.346 7.052,1.406 12.156,3.009 l 0.368,0.116 c 5.003,1.571 8.398001,3.339 8.432001,3.357 0.165,0.086 0.228,0.29 0.142,0.455 -0.062,0.117 -0.179,0.183 -0.301,0.183 z"
     id="path231"
     inkscape:connector-curvature="0"
     style="fill:#4e4e4e" /><path
     d="m 51.781359,60.674877 c -0.156,0 -0.295,-0.108 -0.329,-0.267 l -1.172,-5.497 c -0.034,-0.16 0.052,-0.322 0.204,-0.383 0.074,-0.03 1.858,-0.736 5.936,-1.388 4.808,-0.77 10.768,-0.779 10.828,-0.779 0.186,0 0.337,0.151 0.337,0.337 0,0.186 -0.151,0.337 -0.337,0.337 -0.059,0 -5.966,0.009 -10.721,0.77 -3.124,0.5 -4.896,1.039 -5.526,1.253 l 1.11,5.209 c 0.039,0.182 -0.077,0.361 -0.259,0.4 -0.024,0.005 -0.048,0.008 -0.071,0.008 z"
     id="path233"
     inkscape:connector-curvature="0"
     style="fill:#4e4e4e" /><path
     d="m 50.609359,60.600877 c -0.157,0 -0.298,-0.11 -0.33,-0.27 l -0.948,-4.696 -4.363,1.61 c -0.175,0.065 -0.369,-0.025 -0.433,-0.2 -0.065,-0.175 0.025,-0.369 0.2,-0.433 l 4.733,-1.746 c 0.092,-0.034 0.195,-0.026 0.281,0.022 0.086,0.048 0.147,0.131 0.166,0.228 l 1.026,5.082 c 0.037,0.182 -0.081,0.36 -0.264,0.397 -0.023,0.004 -0.046,0.006 -0.068,0.006 z"
     id="path235"
     inkscape:connector-curvature="0"
     style="fill:#4e4e4e" /><g
     id="g237"
     transform="translate(-8.3516408,-18.547123)"><defs
       id="defs239"><path
         id="SVGID_1_"
         d="m 154.947,82.24 c 0,0 -5.426,-3.005 -11.37,-3.429 -5.943,-0.424 -12.97,-4.303 -24.214,-8.276 C 108.12,66.562 106.36,64.803 91.603,62.751 76.846,60.699 86.57,37.831 86.57,37.831 c 0,0 16.072,-13.096 19.495,-13.389 3.423,-0.293 34.794,-3.127 39.485,-1.955 4.691,1.173 20.781,2.15 24.121,9.089 3.34,6.939 -2.621,41.196 -2.817,41.658 -0.195,0.463 -11.907,9.006 -11.907,9.006 z"
         inkscape:connector-curvature="0" /></defs><clipPath
       id="SVGID_2_"><use
         xlink:href="#SVGID_1_"
         overflow="visible"
         id="use243"
         style="overflow:visible"
         x="0"
         y="0"
         width="100%"
         height="100%" /></clipPath><g
       id="Expanded_6_"
       clip-path="url(#SVGID_2_)"><g
         id="g246"><g
           id="g248"><path
             d="m 130.31,101.752 -5.517,0 c -2.467,0 -4.475,-2.007 -4.477,-4.475 l 0,-4.885 c -1.623,-0.487 -3.194,-1.139 -4.677,-1.94 l -3.453,3.456 c -0.809,0.808 -1.962,1.271 -3.165,1.271 -1.203,0 -2.356,-0.463 -3.164,-1.271 l -3.901,-3.902 c -0.844,-0.844 -1.309,-1.968 -1.309,-3.164 0,-1.196 0.465,-2.32 1.309,-3.164 l 3.455,-3.456 c -0.802,-1.487 -1.454,-3.059 -1.94,-4.679 l -4.884,0 c -1.196,0 -2.32,-0.466 -3.165,-1.311 -0.845,-0.844 -1.31,-1.968 -1.31,-3.164 l 0,-5.517 c 0,-2.468 2.007,-4.475 4.475,-4.475 l 4.883,0 c 0.484,-1.617 1.136,-3.189 1.94,-4.679 l -3.455,-3.456 c -0.845,-0.844 -1.311,-1.968 -1.311,-3.164 0,-1.196 0.466,-2.32 1.311,-3.164 l 3.902,-3.9 c 0.808,-0.808 1.96,-1.271 3.163,-1.271 1.203,0 2.357,0.463 3.166,1.271 l 3.456,3.456 c 1.488,-0.802 3.059,-1.453 4.676,-1.939 l 0,-4.884 c 0,-2.468 2.007,-4.475 4.475,-4.475 l 5.517,0 c 2.468,0 4.475,2.007 4.475,4.475 l 0,4.884 c 1.615,0.484 3.186,1.136 4.676,1.939 l 3.456,-3.456 c 0.808,-0.808 1.961,-1.271 3.164,-1.271 1.203,0 2.357,0.463 3.165,1.271 l 3.901,3.902 c 0.844,0.844 1.309,1.968 1.309,3.164 0,1.196 -0.465,2.32 -1.309,3.164 l -3.455,3.456 c 0.8,1.483 1.452,3.054 1.94,4.677 l 4.885,0 c 1.194,0 2.318,0.466 3.165,1.311 0.845,0.845 1.31,1.968 1.31,3.164 l 0,5.517 c 0,2.468 -2.007,4.475 -4.475,4.475 l -4.883,0 c -0.484,1.618 -1.136,3.189 -1.939,4.677 l 3.456,3.457 c 0.845,0.844 1.311,1.968 1.311,3.164 0,1.196 -0.466,2.32 -1.311,3.164 l -3.902,3.9 c -0.809,0.808 -1.963,1.271 -3.166,1.271 -1.203,0 -2.356,-0.463 -3.163,-1.271 l -3.455,-3.456 c -1.49,0.804 -3.062,1.456 -4.68,1.942 l 0,4.884 c 0,2.47 -2.008,4.477 -4.475,4.477 z M 115.579,89.699 c 0.056,0 0.112,0.014 0.163,0.042 1.579,0.873 3.263,1.572 5.005,2.076 0.144,0.042 0.243,0.174 0.243,0.324 l 0,5.137 c 0.001,2.096 1.707,3.801 3.802,3.801 l 5.517,0 c 2.096,0 3.801,-1.705 3.801,-3.801 l 0,-5.137 c 0,-0.15 0.099,-0.282 0.244,-0.324 1.736,-0.502 3.421,-1.201 5.008,-2.077 0.131,-0.073 0.295,-0.05 0.401,0.057 l 3.633,3.634 c 0.682,0.682 1.661,1.074 2.686,1.073 1.026,0 2.006,-0.391 2.69,-1.074 l 3.902,-3.9 c 0.718,-0.717 1.114,-1.671 1.114,-2.687 0,-1.016 -0.396,-1.97 -1.113,-2.687 L 149.04,80.52 c -0.106,-0.106 -0.129,-0.27 -0.057,-0.401 0.876,-1.584 1.574,-3.268 2.074,-5.005 0.042,-0.144 0.174,-0.244 0.324,-0.244 l 5.135,0 c 2.096,0 3.801,-1.705 3.801,-3.801 l 0,-5.517 c 0,-1.015 -0.395,-1.97 -1.112,-2.687 -0.719,-0.718 -1.674,-1.114 -2.688,-1.114 l -5.137,0 c -0.15,0 -0.282,-0.099 -0.324,-0.243 -0.505,-1.743 -1.203,-3.427 -2.076,-5.005 -0.073,-0.131 -0.05,-0.295 0.057,-0.401 l 3.633,-3.635 c 0.717,-0.717 1.112,-1.671 1.112,-2.687 0,-1.016 -0.395,-1.97 -1.112,-2.687 l -3.901,-3.902 c -0.683,-0.682 -1.663,-1.073 -2.689,-1.073 -1.025,0 -2.005,0.391 -2.687,1.073 l -3.635,3.634 c -0.106,0.107 -0.27,0.129 -0.401,0.057 -1.586,-0.876 -3.27,-1.574 -5.004,-2.075 -0.144,-0.042 -0.244,-0.174 -0.244,-0.324 l 0,-5.137 c 0,-2.096 -1.705,-3.801 -3.801,-3.801 l -5.517,0 c -2.096,0 -3.801,1.705 -3.801,3.801 l 0,5.137 c 0,0.15 -0.099,0.282 -0.243,0.324 -1.737,0.502 -3.42,1.2 -5.004,2.075 -0.133,0.072 -0.296,0.049 -0.401,-0.057 l -3.634,-3.634 c -0.683,-0.682 -1.664,-1.073 -2.689,-1.073 -1.025,0 -2.004,0.391 -2.686,1.073 l -3.902,3.901 c -0.718,0.717 -1.114,1.671 -1.114,2.687 0,1.016 0.396,1.97 1.113,2.687 l 3.633,3.635 c 0.106,0.106 0.129,0.27 0.057,0.401 -0.877,1.586 -1.576,3.271 -2.076,5.006 -0.042,0.144 -0.174,0.244 -0.324,0.244 l -5.135,0 c -2.096,0 -3.801,1.705 -3.801,3.801 l 0,5.517 c 0,1.016 0.395,1.97 1.112,2.687 0.718,0.718 1.673,1.114 2.689,1.114 l 5.137,0 c 0.15,0 0.282,0.099 0.324,0.244 0.503,1.739 1.201,3.423 2.076,5.006 0.073,0.131 0.05,0.295 -0.057,0.401 l -3.633,3.635 c -0.717,0.717 -1.112,1.671 -1.112,2.687 0,1.016 0.395,1.97 1.112,2.687 l 3.901,3.902 c 0.683,0.682 1.662,1.073 2.688,1.073 1.025,0 2.005,-0.391 2.688,-1.074 l 3.631,-3.634 c 0.065,-0.065 0.152,-0.099 0.239,-0.099 z m 14.731,9.295 -5.517,0 c -0.946,0 -1.716,-0.77 -1.716,-1.716 l 0,-6.198 c 0,-0.482 -0.328,-0.899 -0.798,-1.013 -2.256,-0.547 -4.403,-1.437 -6.381,-2.647 -0.403,-0.245 -0.948,-0.18 -1.281,0.153 l -4.383,4.384 c -0.31,0.309 -0.753,0.487 -1.215,0.487 -0.462,0 -0.904,-0.177 -1.213,-0.487 l -3.901,-3.902 c -0.669,-0.669 -0.669,-1.758 0,-2.427 l 4.385,-4.385 c 0.342,-0.341 0.405,-0.868 0.152,-1.281 -1.21,-1.978 -2.1,-4.125 -2.646,-6.381 -0.113,-0.47 -0.53,-0.799 -1.013,-0.799 l -6.197,0 c -0.459,0 -0.891,-0.179 -1.215,-0.503 -0.323,-0.319 -0.502,-0.75 -0.502,-1.211 l 0,-5.517 c 0,-0.946 0.77,-1.716 1.716,-1.716 l 6.197,0 c 0.484,0 0.9,-0.328 1.013,-0.798 0.544,-2.253 1.434,-4.4 2.646,-6.381 0.252,-0.412 0.189,-0.939 -0.153,-1.281 l -4.384,-4.385 c -0.32,-0.322 -0.503,-0.764 -0.503,-1.214 0,-0.452 0.183,-0.894 0.503,-1.214 l 3.902,-3.901 c 0.312,-0.311 0.754,-0.489 1.214,-0.489 0.46,0 0.903,0.178 1.214,0.489 l 4.385,4.385 c 0.333,0.335 0.877,0.4 1.281,0.153 1.981,-1.211 4.127,-2.101 6.378,-2.646 0.47,-0.112 0.797,-0.527 0.797,-1.01 l 0,-6.197 c 0,-0.946 0.77,-1.716 1.716,-1.716 l 5.517,0 c 0.946,0 1.716,0.77 1.716,1.716 l 0,6.197 c 0,0.482 0.328,0.899 0.797,1.013 2.251,0.544 4.398,1.434 6.381,2.645 0.403,0.246 0.948,0.181 1.279,-0.151 l 4.385,-4.385 c 0.311,-0.311 0.754,-0.489 1.214,-0.489 0.46,0 0.903,0.178 1.214,0.488 l 3.9,3.901 c 0.669,0.669 0.669,1.758 0,2.427 l -4.385,4.385 c -0.342,0.341 -0.405,0.868 -0.152,1.281 1.211,1.98 2.101,4.126 2.646,6.379 0.113,0.471 0.53,0.799 1.013,0.799 l 6.199,0 c 0.459,0 0.891,0.179 1.215,0.503 0.323,0.322 0.502,0.752 0.502,1.212 l 0,5.517 c 0,0.946 -0.77,1.716 -1.716,1.716 l -6.197,0 c -0.484,0 -0.9,0.328 -1.013,0.798 -0.546,2.256 -1.436,4.403 -2.646,6.38 -0.252,0.412 -0.189,0.939 0.153,1.281 l 4.384,4.386 c 0.32,0.321 0.503,0.764 0.503,1.214 0,0.452 -0.183,0.894 -0.503,1.214 l -3.902,3.901 c -0.311,0.311 -0.753,0.489 -1.214,0.489 -0.45,0 -0.882,-0.17 -1.192,-0.467 l -4.361,-3.05 c -0.017,-0.012 -0.032,-0.025 -0.047,-0.039 -0.329,-0.333 -0.875,-0.397 -1.277,-0.153 -1.298,0.794 -2.679,0.904 -4.015,1.011 -0.772,0.062 -1.571,0.125 -2.366,0.318 -0.469,0.114 -0.797,0.531 -0.797,1.013 l 0,6.197 c 0,0.947 -0.77,1.717 -1.716,1.717 z M 115.355,86.593 c 0.315,0 0.624,0.087 0.895,0.251 1.918,1.174 4,2.037 6.188,2.567 0.773,0.188 1.313,0.874 1.313,1.668 l 0,6.197 c 0,0.575 0.468,1.042 1.042,1.042 l 5.517,0 c 0.575,0 1.042,-0.468 1.042,-1.042 l 0,-6.196 c 0,-0.795 0.54,-1.481 1.313,-1.668 0.847,-0.205 1.673,-0.271 2.471,-0.335 1.315,-0.105 2.557,-0.204 3.718,-0.914 0.655,-0.398 1.54,-0.299 2.085,0.232 l 4.36,3.049 c 0.016,0.011 0.031,0.024 0.045,0.038 0.372,0.37 1.105,0.371 1.475,0 l 3.902,-3.901 c 0.194,-0.194 0.305,-0.463 0.305,-0.737 0,-0.273 -0.111,-0.542 -0.306,-0.737 l -4.384,-4.385 c -0.562,-0.564 -0.665,-1.432 -0.251,-2.11 1.173,-1.917 2.036,-3.999 2.565,-6.186 0.186,-0.774 0.872,-1.314 1.668,-1.314 l 6.197,0 c 0.575,0 1.042,-0.468 1.042,-1.042 l 0,-5.517 c 0,-0.279 -0.108,-0.54 -0.303,-0.735 -0.198,-0.198 -0.46,-0.306 -0.739,-0.306 l -6.199,0 c -0.796,0 -1.482,-0.541 -1.668,-1.315 -0.528,-2.184 -1.391,-4.265 -2.565,-6.186 -0.416,-0.68 -0.313,-1.548 0.251,-2.11 l 4.384,-4.384 c 0.406,-0.406 0.406,-1.067 0,-1.474 l -3.899,-3.901 c -0.371,-0.37 -1.104,-0.37 -1.475,0 l -4.385,4.385 c -0.545,0.547 -1.445,0.655 -2.108,0.251 -1.923,-1.175 -4.004,-2.038 -6.188,-2.565 -0.773,-0.188 -1.313,-0.874 -1.313,-1.668 l 0,-6.197 c 0,-0.575 -0.468,-1.042 -1.042,-1.042 l -5.517,0 c -0.575,0 -1.042,0.468 -1.042,1.042 l 0,6.197 c 0,0.796 -0.54,1.481 -1.314,1.666 -2.182,0.528 -4.263,1.391 -6.184,2.565 -0.662,0.406 -1.563,0.299 -2.11,-0.251 l -4.384,-4.384 c -0.371,-0.37 -1.104,-0.371 -1.475,0 l -3.901,3.9 c -0.194,0.194 -0.306,0.462 -0.306,0.737 0,0.273 0.112,0.542 0.306,0.737 l 4.384,4.384 c 0.563,0.564 0.665,1.432 0.25,2.11 -1.175,1.921 -2.038,4.003 -2.565,6.187 -0.186,0.774 -0.872,1.315 -1.669,1.315 l -6.197,0 c -0.575,0 -1.042,0.468 -1.042,1.042 l 0,5.517 c 0,0.279 0.108,0.54 0.303,0.733 0.198,0.198 0.46,0.307 0.739,0.307 l 6.197,0 c 0.796,0 1.482,0.541 1.669,1.315 0.529,2.187 1.392,4.269 2.565,6.187 0.416,0.68 0.313,1.548 -0.251,2.11 l -4.384,4.384 c -0.406,0.406 -0.406,1.067 0,1.474 l 3.901,3.902 c 0.367,0.367 1.106,0.367 1.475,0 l 4.383,-4.384 c 0.327,-0.326 0.758,-0.505 1.216,-0.505 z"
             id="path250"
             inkscape:connector-curvature="0"
             style="fill:#4e4e4e" /></g><g
           id="g252"><path
             d="m 127.551,82.442 c -7.791,0 -14.13,-6.339 -14.13,-14.13 0,-7.791 6.339,-14.13 14.13,-14.13 7.791,0 14.13,6.339 14.13,14.13 0,7.791 -6.338,14.13 -14.13,14.13 z m 0,-27.586 c -7.42,0 -13.456,6.036 -13.456,13.456 0,7.42 6.036,13.456 13.456,13.456 7.42,0 13.456,-6.036 13.456,-13.456 0,-7.42 -6.036,-13.456 -13.456,-13.456 z m 0,24.828 c -6.27,0 -11.372,-5.101 -11.372,-11.372 0,-6.271 5.101,-11.372 11.372,-11.372 6.27,0 11.371,5.101 11.371,11.372 0,6.271 -5.1,11.372 -11.371,11.372 z m 0,-22.069 c -5.899,0 -10.697,4.799 -10.697,10.697 0,5.898 4.799,10.697 10.697,10.697 5.898,0 10.697,-4.799 10.697,-10.697 0,-5.898 -4.798,-10.697 -10.697,-10.697 z"
             id="path254"
             inkscape:connector-curvature="0"
             style="fill:#4e4e4e" /></g></g></g></g><path
     d="m 89.287359,39.310877 c -0.511,0 -0.911,-0.173 -0.928,-0.181 l -10.023,-4.408 c -0.463,0.5 -1.815,1.746 -3.798,1.746 0,0 0,0 0,0 -0.692,0 -1.396,-0.155 -2.093,-0.462 -3.088,-1.358 -3.321,-4.236 -3.33,-4.358 -0.008,-0.118 0.046,-0.231 0.142,-0.299 0.097,-0.067 0.222,-0.08 0.329,-0.033 l 4.027,1.771 1.993,-1.956 0.084,-2.763 -4.027,-1.772 c -0.107,-0.047 -0.182,-0.146 -0.198,-0.261 -0.016,-0.115 0.028,-0.231 0.117,-0.306 0.048,-0.04 1.196,-0.985 3.11,-0.985 0.878,0 1.781,0.201 2.681,0.597 2.521,1.109 2.756,4.24 2.772,5.128 l 10.132,4.457 c 0.024,0.01 0.724,0.309 1.019,1.045 0.203,0.507 0.166,1.083 -0.11,1.71 -0.376,0.859 -1.05,1.33 -1.899,1.33 z m -11.042,-5.334 c 0.046,0 0.092,0.009 0.135,0.029 l 10.25,4.508 c 0.002,10e-4 0.292,0.124 0.656,0.124 0.581,0 1.013,-0.311 1.282,-0.924 0.199,-0.453 0.234,-0.851 0.104,-1.182 -0.186,-0.473 -0.658,-0.682 -0.663,-0.683 l -10.339,-4.547 c -0.126,-0.056 -0.206,-0.183 -0.201,-0.321 0.001,-0.036 0.098,-3.634 -2.368,-4.718 -0.815,-0.358 -1.626,-0.54 -2.41,-0.54 -0.971,0 -1.72,0.282 -2.176,0.516 l 3.654,1.607 c 0.126,0.055 0.205,0.182 0.201,0.319 l -0.095,3.126 c -0.003,0.087 -0.039,0.17 -0.101,0.23 l -2.253,2.21 c -0.098,0.097 -0.246,0.124 -0.372,0.068 l -3.653,-1.606 c 0.224,0.834 0.886,2.349 2.818,3.199 0.611,0.269 1.224,0.405 1.822,0.405 2.103,0 3.427,-1.671 3.44,-1.688 0.068,-0.087 0.168,-0.132 0.269,-0.132 z m 11.164,4.303 c -0.15,0 -0.296,-0.031 -0.433,-0.091 -0.544,-0.239 -0.792,-0.876 -0.553,-1.42 0.233,-0.528 0.89,-0.786 1.42,-0.553 0.264,0.116 0.466,0.327 0.57,0.596 0.104,0.268 0.098,0.561 -0.018,0.824 -0.171,0.391 -0.559,0.644 -0.986,0.644 z m 0.001,-1.481 c -0.16,0 -0.305,0.095 -0.37,0.241 -0.09,0.204 0.003,0.442 0.207,0.532 0.2,0.089 0.445,-0.009 0.532,-0.207 0.043,-0.098 0.046,-0.208 0.007,-0.308 -0.039,-0.101 -0.115,-0.18 -0.213,-0.223 -0.053,-0.024 -0.107,-0.035 -0.163,-0.035 z"
     id="path256"
     inkscape:connector-curvature="0"
     style="fill:#4e4e4e" /><path
     d="m 106.79636,22.221877 c -1.283,0 -1.849,-1.217 -1.872,-1.268 l -4.515,-9.976 c -0.128,0.012 -0.298,0.022 -0.498001,0.022 l 0,0 c -1.264,0 -3.562,-0.39 -4.744,-2.9999999 -1.391,-3.073 0.357,-5.371 0.432,-5.467 0.072,-0.093 0.187,-0.142 0.306,-0.127 0.117,0.014 0.219,0.088 0.267,0.196 l 1.814,4.007 2.790001,-0.124 1.908,-2.001 -1.814,-4.00799999 c -0.048,-0.106 -0.038,-0.23 0.027,-0.326 0.065,-0.097 0.165,-0.158 0.292,-0.14900000167 0.122,0.004000002 3.012,0.14000000167 4.569,3.57999999167 1.136,2.508 -0.781,4.996 -1.363,5.667 l 4.565,10.0839999 c 0.011,0.023 0.333,0.713 0.06,1.458 -0.188,0.513 -0.6,0.917 -1.224,1.2 -0.345,0.153 -0.681,0.232 -1,0.232 z m -6.184,-11.946 c 0.131,0 0.252,0.076 0.308,0.198 l 4.617,10.201 c 0.016,0.034 0.414,0.872 1.258,0.872 0.223,0 0.466,-0.058 0.72,-0.173 0.453,-0.205 0.746,-0.48 0.869,-0.817 0.174,-0.475 -0.036,-0.938 -0.038,-0.943 l -4.658,-10.2909999 c -0.057,-0.126 -0.031,-0.273 0.064,-0.373 0.025,-0.026 2.5,-2.639 1.389,-5.093 -0.99,-2.187 -2.557,-2.87299999 -3.4,-3.08699999 l 1.649,3.64299999 c 0.057,0.125 0.032,0.272 -0.063,0.372 l -2.158,2.264 c -0.06,0.063 -0.142,0.1 -0.229,0.104 l -3.153001,0.141 c -0.14,0.007 -0.265,-0.072 -0.322,-0.198 l -1.646,-3.635 c -0.391,0.77 -0.91,2.34 -0.04,4.263 1.025,2.265 3.027,2.6039999 4.129,2.6039999 0.389001,0 0.642001,-0.044 0.644001,-0.044 0.021,-0.006 0.041,-0.008 0.06,-0.008 z m 6.381,11.022 c -0.423,0 -0.808,-0.249 -0.982,-0.633 -0.245,-0.541 -0.004,-1.181 0.537,-1.426 0.527,-0.239 1.188,0.012 1.426,0.538 0.119,0.262 0.128,0.555 0.027,0.824 -0.102,0.269 -0.302,0.483 -0.564,0.601 -0.141,0.063 -0.29,0.096 -0.444,0.096 z m -10e-4,-1.481 c -0.057,0 -0.113,0.012 -0.166,0.036 -0.202,0.092 -0.293,0.331 -0.201,0.534 0.089,0.196 0.335,0.292 0.534,0.201 0.098,-0.045 0.173,-0.124 0.211,-0.225 0.038,-0.101 0.034,-0.21 -0.01,-0.308 -0.065,-0.145 -0.209,-0.238 -0.368,-0.238 z"
     id="path258"
     inkscape:connector-curvature="0"
     style="fill:#4e4e4e" /></svg>