<?xml version="1.0" encoding="UTF-8" standalone="no"?>
<!-- Generator: Adobe Illustrator 17.0.0, SVG Export Plug-In . SVG Version: 6.00 Build 0)  -->

<svg
   xmlns:dc="http://purl.org/dc/elements/1.1/"
   xmlns:cc="http://creativecommons.org/ns#"
   xmlns:rdf="http://www.w3.org/1999/02/22-rdf-syntax-ns#"
   xmlns:svg="http://www.w3.org/2000/svg"
   xmlns="http://www.w3.org/2000/svg"
   xmlns:sodipodi="http://sodipodi.sourceforge.net/DTD/sodipodi-0.dtd"
   xmlns:inkscape="http://www.inkscape.org/namespaces/inkscape"
   version="1.1"
   id="Слой_1"
   x="0px"
   y="0px"
   width="135.41478"
   height="118.9349"
   viewBox="0 0 135.41478 118.9349"
   enable-background="new 0 0 180 147"
   xml:space="preserve"
   inkscape:version="0.91 r13725"
   sodipodi:docname="autodet.svg"><metadata
     id="metadata56"><rdf:RDF><cc:Work
         rdf:about=""><dc:format>image/svg+xml</dc:format><dc:type
           rdf:resource="http://purl.org/dc/dcmitype/StillImage" /><dc:title></dc:title></cc:Work></rdf:RDF></metadata><defs
     id="defs54" /><sodipodi:namedview
     pagecolor="#ffffff"
     bordercolor="#666666"
     borderopacity="1"
     objecttolerance="10"
     gridtolerance="10"
     guidetolerance="10"
     inkscape:pageopacity="0"
     inkscape:pageshadow="2"
     inkscape:window-width="712"
     inkscape:window-height="480"
     id="namedview52"
     showgrid="false"
     fit-margin-top="0"
     fit-margin-left="0"
     fit-margin-right="0"
     fit-margin-bottom="0"
     inkscape:zoom="1.6054422"
     inkscape:cx="68.941038"
     inkscape:cy="65.786"
     inkscape:window-x="0"
     inkscape:window-y="0"
     inkscape:window-maximized="0"
     inkscape:current-layer="Слой_1" /><g
     id="Expanded_11_"
     transform="translate(-21.058962,-20.351099)"><g
       id="g4"><g
         id="g6"><path
           d="m 71.315,111.557 -6.041,0 c -2.727,0 -4.945,-2.218 -4.945,-4.944 l 0,-5.316 c -1.754,-0.529 -3.457,-1.236 -5.073,-2.104 l -3.76,3.761 c -0.892,0.892 -2.166,1.404 -3.495,1.404 -1.329,0 -2.604,-0.512 -3.498,-1.404 L 40.23,98.682 c -0.934,-0.932 -1.449,-2.174 -1.449,-3.496 0,-1.322 0.515,-2.563 1.449,-3.496 l 3.761,-3.763 c -0.869,-1.614 -1.575,-3.317 -2.102,-5.07 l -5.314,0 c -2.727,0 -4.945,-2.218 -4.945,-4.944 l 0,-6.042 c 0,-1.321 0.514,-2.563 1.447,-3.496 0.936,-0.934 2.178,-1.449 3.497,-1.449 l 5.316,0 c 0.531,-1.759 1.237,-3.461 2.103,-5.07 l -3.76,-3.761 c -0.933,-0.933 -1.446,-2.174 -1.446,-3.496 0,-1.322 0.514,-2.563 1.446,-3.496 l 4.271,-4.273 c 0.893,-0.893 2.168,-1.405 3.497,-1.405 1.329,0 2.603,0.512 3.496,1.405 l 3.761,3.762 c 1.616,-0.869 3.318,-1.575 5.068,-2.102 l 0,-5.316 c 0,-2.727 2.218,-4.944 4.945,-4.944 l 6.041,0 c 2.727,0 4.945,2.218 4.945,4.944 l 0,5.316 c 1.753,0.528 3.455,1.234 5.068,2.102 l 3.761,-3.762 c 0.894,-0.893 2.169,-1.405 3.498,-1.405 1.329,0 2.602,0.512 3.495,1.405 l 4.273,4.272 c 0.934,0.932 1.449,2.174 1.449,3.496 0,1.321 -0.515,2.563 -1.449,3.496 l -3.76,3.761 c 0.87,1.616 1.576,3.319 2.103,5.072 l 5.314,0 c 2.727,0 4.945,2.218 4.945,4.944 l 0,6.042 c 0,1.321 -0.514,2.563 -1.447,3.496 -0.934,0.934 -2.176,1.449 -3.497,1.449 l -5.316,0 c -0.529,1.755 -1.236,3.459 -2.103,5.072 l 3.76,3.761 c 0.933,0.933 1.446,2.174 1.446,3.496 0,1.322 -0.514,2.563 -1.446,3.496 l -4.271,4.273 c -0.893,0.893 -2.168,1.404 -3.496,1.404 -1.329,0 -2.603,-0.512 -3.497,-1.404 l -3.759,-3.762 c -1.608,0.866 -3.311,1.572 -5.07,2.103 l 0,5.316 c 0.002,2.726 -2.217,4.944 -4.943,4.944 z M 55.183,98.268 c 0.068,0 0.137,0.017 0.2,0.052 1.733,0.958 3.575,1.722 5.475,2.271 0.177,0.051 0.299,0.213 0.299,0.397 l 0,5.625 c 0,2.271 1.848,4.118 4.119,4.118 l 6.041,0 c 2.27,0 4.119,-1.847 4.12,-4.118 l 0,-5.625 c 0,-0.184 0.122,-0.346 0.298,-0.397 1.907,-0.552 3.747,-1.316 5.472,-2.27 0.161,-0.089 0.362,-0.061 0.492,0.069 l 3.977,3.98 c 0.74,0.739 1.801,1.162 2.913,1.162 1.112,0 2.172,-0.424 2.912,-1.163 l 4.271,-4.273 c 0.777,-0.777 1.204,-1.811 1.204,-2.912 0,-1.101 -0.428,-2.135 -1.204,-2.912 l -3.978,-3.98 c -0.13,-0.13 -0.159,-0.331 -0.069,-0.492 0.956,-1.731 1.72,-3.572 2.269,-5.473 0.051,-0.177 0.213,-0.298 0.397,-0.298 l 5.625,0 c 1.101,0 2.135,-0.428 2.913,-1.206 0.777,-0.777 1.205,-1.811 1.205,-2.912 l 0,-6.042 c 0,-2.271 -1.848,-4.118 -4.119,-4.118 l -5.625,0 c -0.184,0 -0.346,-0.122 -0.397,-0.299 -0.547,-1.898 -1.31,-3.739 -2.269,-5.473 -0.089,-0.161 -0.061,-0.362 0.069,-0.492 l 3.978,-3.98 c 0.778,-0.777 1.207,-1.811 1.207,-2.912 0,-1.101 -0.429,-2.135 -1.207,-2.911 l -4.273,-4.272 c -0.739,-0.739 -1.8,-1.163 -2.91,-1.163 -1.112,0 -2.174,0.424 -2.914,1.163 l -3.98,3.98 c -0.13,0.13 -0.332,0.158 -0.492,0.07 -1.731,-0.956 -3.572,-1.719 -5.47,-2.268 -0.177,-0.051 -0.299,-0.213 -0.299,-0.397 l 0,-5.625 c 0,-2.271 -1.848,-4.118 -4.119,-4.118 l -6.041,0 c -2.271,0 -4.119,1.847 -4.119,4.118 l 0,5.628 c 0,0.184 -0.122,0.346 -0.299,0.397 -1.895,0.547 -3.736,1.31 -5.47,2.268 -0.16,0.088 -0.361,0.061 -0.492,-0.07 l -3.98,-3.98 c -0.739,-0.739 -1.8,-1.163 -2.912,-1.163 -1.112,0 -2.174,0.424 -2.913,1.163 l -4.271,4.273 c -0.777,0.777 -1.204,1.811 -1.204,2.912 0,1.101 0.428,2.135 1.204,2.912 l 3.978,3.98 c 0.13,0.13 0.159,0.331 0.069,0.492 -0.954,1.726 -1.718,3.566 -2.269,5.472 -0.051,0.177 -0.213,0.298 -0.397,0.298 l -5.625,0 c -1.099,0 -2.134,0.429 -2.913,1.207 -0.777,0.777 -1.205,1.811 -1.205,2.911 l 0,6.042 c 0,2.271 1.848,4.118 4.119,4.118 l 5.623,0 c 0.184,0 0.346,0.122 0.397,0.299 0.547,1.899 1.31,3.74 2.268,5.471 0.089,0.161 0.061,0.362 -0.069,0.492 l -3.98,3.982 c -0.778,0.777 -1.206,1.811 -1.206,2.912 0,1.101 0.428,2.135 1.206,2.911 l 4.273,4.272 c 0.74,0.739 1.802,1.162 2.914,1.162 1.111,0 2.172,-0.424 2.91,-1.162 l 3.979,-3.98 c 0.081,-0.081 0.187,-0.123 0.294,-0.123 z m 16.132,10.268 -6.041,0 c -1.061,0 -1.923,-0.863 -1.923,-1.923 l 0,-6.786 c 0,-0.508 -0.345,-0.947 -0.84,-1.067 -0.868,-0.21 -1.741,-0.28 -2.585,-0.347 -1.468,-0.117 -2.986,-0.239 -4.417,-1.114 -0.419,-0.256 -0.997,-0.189 -1.344,0.162 -0.018,0.017 -0.037,0.034 -0.057,0.048 l -4.773,3.338 c -0.702,0.672 -2.006,0.661 -2.693,-0.027 l -4.273,-4.272 c -0.358,-0.357 -0.564,-0.853 -0.564,-1.36 0,-0.505 0.205,-1 0.563,-1.359 l 4.802,-4.804 c 0.359,-0.36 0.425,-0.915 0.16,-1.349 -1.327,-2.169 -2.304,-4.524 -2.902,-6.998 -0.119,-0.495 -0.558,-0.841 -1.067,-0.841 l -6.786,0 c -1.061,0 -1.923,-0.863 -1.923,-1.923 l 0,-6.042 c 0,-0.515 0.2,-0.998 0.562,-1.359 0.363,-0.363 0.847,-0.563 1.361,-0.563 l 6.788,0 c 0.509,0 0.948,-0.346 1.067,-0.84 0.597,-2.471 1.573,-4.826 2.902,-6.999 0.266,-0.435 0.201,-0.989 -0.16,-1.348 L 42.37,55.96 c -0.75,-0.75 -0.75,-1.97 0,-2.72 l 4.27,-4.271 c 0.698,-0.697 2.023,-0.697 2.721,0 l 4.802,4.802 c 0.35,0.35 0.923,0.418 1.348,0.16 2.174,-1.329 4.529,-2.305 6.999,-2.902 0.494,-0.12 0.84,-0.559 0.84,-1.067 l 0,-6.786 c 0,-1.061 0.863,-1.923 1.923,-1.923 l 6.041,0 c 1.061,0 1.923,0.863 1.923,1.923 l 0,6.786 c 0,0.508 0.345,0.945 0.839,1.063 2.471,0.598 4.825,1.574 6.998,2.903 0.425,0.261 0.998,0.192 1.347,-0.159 l 4.803,-4.802 c 0.349,-0.349 0.845,-0.548 1.361,-0.548 0.515,0 1.011,0.2 1.36,0.548 l 4.273,4.272 c 0.358,0.358 0.563,0.854 0.563,1.36 0,0.504 -0.205,0.999 -0.562,1.359 l -4.803,4.802 c -0.359,0.36 -0.425,0.915 -0.16,1.348 1.33,2.175 2.306,4.53 2.902,7 0.118,0.495 0.557,0.841 1.067,0.841 l 6.786,0 c 1.061,0 1.924,0.863 1.924,1.923 l 0,6.042 c 0,0.517 -0.2,0.999 -0.564,1.358 -0.362,0.362 -0.846,0.562 -1.36,0.562 l -6.786,0 c -0.509,0 -0.948,0.346 -1.067,0.84 -0.599,2.475 -1.575,4.83 -2.902,7.001 -0.266,0.435 -0.201,0.989 0.16,1.348 l 4.802,4.802 c 0.363,0.363 0.563,0.846 0.563,1.36 0,0.514 -0.2,0.997 -0.563,1.36 l -4.272,4.273 c -0.347,0.347 -0.842,0.546 -1.36,0.546 -0.518,0 -1.013,-0.199 -1.361,-0.546 l -4.801,-4.802 c -0.351,-0.349 -0.924,-0.419 -1.35,-0.16 -2.167,1.326 -4.522,2.303 -6.998,2.903 -0.495,0.12 -0.84,0.559 -0.84,1.067 l 0,6.786 c 0.003,1.062 -0.86,1.924 -1.921,1.924 z M 54.938,96.313 c 0.354,0 0.7,0.097 1.002,0.281 1.262,0.772 2.617,0.881 4.051,0.995 0.876,0.07 1.782,0.142 2.714,0.368 0.867,0.21 1.472,0.979 1.472,1.87 l 0,6.786 c 0,0.605 0.492,1.097 1.097,1.097 l 6.041,0 c 0.605,0 1.097,-0.492 1.097,-1.097 l 0,-6.786 c 0,-0.89 0.605,-1.659 1.472,-1.87 2.392,-0.58 4.668,-1.524 6.763,-2.806 0.746,-0.453 1.749,-0.332 2.364,0.28 l 4.801,4.802 c 0.386,0.386 1.166,0.386 1.553,0 l 4.272,-4.273 c 0.207,-0.207 0.321,-0.482 0.321,-0.776 0,-0.293 -0.114,-0.569 -0.321,-0.776 l -4.802,-4.802 c -0.631,-0.629 -0.747,-1.602 -0.281,-2.364 1.282,-2.096 2.226,-4.372 2.804,-6.763 0.208,-0.867 0.977,-1.473 1.87,-1.473 l 6.786,0 c 0.294,0 0.57,-0.114 0.778,-0.322 0.207,-0.205 0.32,-0.478 0.32,-0.773 l 0,-6.042 c 0,-0.605 -0.493,-1.097 -1.098,-1.097 l -6.786,0 c -0.893,0 -1.662,-0.606 -1.87,-1.474 -0.576,-2.385 -1.519,-4.661 -2.803,-6.762 -0.465,-0.76 -0.35,-1.732 0.28,-2.363 l 4.802,-4.802 c 0.204,-0.205 0.321,-0.488 0.321,-0.776 0,-0.289 -0.117,-0.571 -0.321,-0.776 l -4.273,-4.271 c -0.39,-0.389 -1.164,-0.389 -1.553,0 l -4.802,4.801 c -0.612,0.615 -1.62,0.737 -2.365,0.281 -2.099,-1.283 -4.373,-2.227 -6.759,-2.804 -0.867,-0.207 -1.472,-0.974 -1.472,-1.866 l 0,-6.786 c 0,-0.605 -0.492,-1.097 -1.097,-1.097 l -6.041,0 c -0.605,0 -1.097,0.492 -1.097,1.097 l 0,6.786 c 0,0.89 -0.605,1.659 -1.472,1.87 -2.387,0.577 -4.662,1.52 -6.763,2.804 -0.745,0.453 -1.751,0.332 -2.363,-0.281 l -4.801,-4.801 c -0.39,-0.389 -1.164,-0.389 -1.553,0 l -4.27,4.271 c -0.428,0.428 -0.428,1.124 0,1.552 l 4.802,4.802 c 0.631,0.629 0.747,1.602 0.281,2.364 -1.284,2.099 -2.227,4.374 -2.803,6.761 -0.209,0.867 -0.978,1.473 -1.87,1.473 l -6.788,0 c -0.294,0 -0.57,0.114 -0.778,0.322 -0.206,0.205 -0.319,0.48 -0.319,0.774 l 0,6.042 c 0,0.605 0.492,1.097 1.097,1.097 l 6.786,0 c 0.893,0 1.662,0.606 1.87,1.474 0.578,2.39 1.522,4.665 2.804,6.761 0.465,0.76 0.349,1.732 -0.28,2.363 l -4.802,4.804 c -0.204,0.205 -0.322,0.488 -0.322,0.776 0,0.289 0.117,0.571 0.322,0.775 l 4.273,4.272 c 0.389,0.389 1.163,0.389 1.553,0 0.017,-0.017 0.035,-0.033 0.055,-0.046 l 4.772,-3.337 c 0.355,-0.348 0.827,-0.539 1.329,-0.539 z"
           id="path8"
           inkscape:connector-curvature="0"
           style="fill:#4e4e4e" /></g><g
         id="g10"><path
           d="m 68.295,90.411 c -8.556,0 -15.517,-6.961 -15.517,-15.517 0,-8.556 6.961,-15.517 15.517,-15.517 8.556,0 15.517,6.961 15.517,15.517 0,8.556 -6.961,15.517 -15.517,15.517 z m 0,-30.208 c -8.1,0 -14.691,6.59 -14.691,14.691 0,8.101 6.591,14.691 14.691,14.691 8.1,0 14.691,-6.59 14.691,-14.691 0,-8.101 -6.591,-14.691 -14.691,-14.691 z m 0,27.187 c -6.891,0 -12.497,-5.606 -12.497,-12.497 0,-6.891 5.606,-12.497 12.497,-12.497 6.891,0 12.497,5.606 12.497,12.497 -0.001,6.891 -5.607,12.497 -12.497,12.497 z m 0,-24.167 c -6.435,0 -11.67,5.235 -11.67,11.67 0,6.435 5.235,11.67 11.67,11.67 6.435,0 11.67,-5.235 11.67,-11.67 0,-6.435 -5.235,-11.67 -11.67,-11.67 z"
           id="path12"
           inkscape:connector-curvature="0"
           style="fill:#4e4e4e" /></g></g></g><path
     d="m 17.235038,69.794901 c 0,0 5.942,-3.291 12.451,-3.755 6.509,-0.464 14.203,-4.712 26.516,-9.063 12.313,-4.351 14.239,-6.277 30.399,-8.524 16.160002,-2.247 5.513,-27.29 5.513,-27.29 0,0 -17.6,-14.3409997 -21.349,-14.6619997 -3.749,-0.321 -38.102,-3.425 -43.239,-2.14 -5.137,1.285 -22.7570004,2.354 -26.4150004,9.9529997 -3.658,7.599 2.87,45.113 3.084,45.619 0.214,0.506 13.0400004,9.862 13.0400004,9.862 z"
     id="path14"
     inkscape:connector-curvature="0"
     style="fill:none" /><path
     d="m 79.991038,43.138901 c -0.947,0 -1.7,-0.525 -2.12,-1.479 -0.307,-0.699 -0.348,-1.34 -0.121,-1.907 0.33,-0.824 1.113,-1.158 1.146,-1.172 l 11.063,-4.866 c 0.022,-1.016 0.303,-4.414 3.061,-5.627 0.992,-0.436 1.986,-0.658 2.954,-0.658 2.111,0 3.381,1.044 3.434,1.089 0.11,0.092 0.164,0.233 0.144,0.375 -0.02,0.141 -0.112,0.262 -0.243,0.32 l -4.383,1.928 0.09,2.979 2.149,2.108 4.383002,-1.927 c 0.133,-0.058 0.285,-0.043 0.404,0.04 0.118,0.083 0.184,0.222 0.174,0.367 -0.009,0.134 -0.267,3.311 -3.673002,4.809 -0.769,0.338 -1.546,0.51 -2.31,0.51 0,0 0,0 -0.001,0 -2.157,0 -3.639,-1.337 -4.17,-1.904 l -10.947,4.815 c -0.047,0.019 -0.474,0.2 -1.034,0.2 z m 15.982,-14.883 c -0.853,0 -1.735,0.198 -2.622,0.588 -2.672,1.175 -2.568,5.086 -2.566,5.125 0.005,0.169 -0.092,0.325 -0.247,0.393 l -11.317,4.977 c -0.01,0.004 -0.511,0.226 -0.707,0.727 -0.138,0.352 -0.1,0.776 0.113,1.26 0.292,0.663 0.739,0.986 1.364,0.986 0.391,0 0.698,-0.13 0.701,-0.132 l 11.224,-4.937 c 0.172,-0.076 0.375,-0.025 0.492,0.124 0.015,0.018 1.465,1.832 3.733,1.832 l 0,0 c 0.649,0 1.313,-0.148 1.977,-0.44 2.013002,-0.885 2.759002,-2.461 3.030002,-3.382 l -3.910002,1.719 c -0.153,0.068 -0.335,0.035 -0.456,-0.083 l -2.467,-2.421 c -0.076,-0.074 -0.12,-0.176 -0.124,-0.282 l -0.103,-3.423 c -0.005,-0.168 0.093,-0.323 0.247,-0.39 l 3.915,-1.722 c -0.497,-0.246 -1.279,-0.519 -2.277,-0.519 z m -16.116,13.753 c -0.485,0 -0.925,-0.287 -1.12,-0.731 -0.272,-0.617 0.01,-1.341 0.628,-1.613 0.605,-0.265 1.349,0.028 1.613,0.627 0.132,0.3 0.139,0.632 0.02,0.937 -0.119,0.305 -0.349,0.545 -0.648,0.676 -0.156,0.069 -0.322,0.104 -0.493,0.104 z m 0,-1.622 c -0.055,0 -0.109,0.012 -0.16,0.034 -0.201,0.088 -0.292,0.324 -0.204,0.524 0.086,0.196 0.329,0.291 0.524,0.204 0.097,-0.043 0.172,-0.121 0.21,-0.22 0.039,-0.099 0.036,-0.207 -0.006,-0.304 -0.063,-0.144 -0.207,-0.238 -0.364,-0.238 z"
     id="path16"
     inkscape:connector-curvature="0"
     style="fill:#4e4e4e" /><path
     d="m 60.819038,24.424901 c -0.357,0 -0.73,-0.087 -1.111,-0.26 -0.695,-0.314 -1.154,-0.765 -1.364,-1.338 -0.305,-0.833 0.054,-1.605 0.07,-1.638 l 4.983,-11.01 c -0.663,-0.7709997 -2.723,-3.4879997 -1.481,-6.2319997 1.716,-3.79100004 4.908,-3.94200004 5.043,-3.94600004249 0.144,-0.009999998 0.278,0.0640000025 0.357,0.18300000249 0.08,0.119 0.092,0.27 0.033,0.4 l -1.975,4.36300004 2.057,2.157 3.008,0.134 1.973,-4.361 c 0.06,-0.132 0.184,-0.223 0.328,-0.24 0.141,-0.019 0.286,0.042 0.375,0.156 0.083,0.107 2.013,2.643 0.479,6.032 -1.304,2.8809997 -3.839,3.3109997 -5.235,3.3109997 l 0,0 c -0.205,0 -0.381,-0.01 -0.519,-0.022 l -4.931,10.896 c -0.026,0.058 -0.657,1.415 -2.09,1.415 z m 5.456,-23.46999974 c -0.932,0.25700004 -2.563,1.02900004 -3.605,3.33300004 -1.208,2.668 1.485,5.5 1.513,5.529 0.118,0.122 0.15,0.3029997 0.08,0.4569997 l -5.098,11.263 c -0.005,0.01 -0.229,0.51 -0.041,1.014 0.132,0.354 0.444,0.644 0.926,0.862 0.273,0.123 0.531,0.186 0.77,0.186 0.896,0 1.321,-0.893 1.339,-0.931 l 5.055,-11.169 c 0.077,-0.172 0.266,-0.27 0.449,-0.236 0.003,0 0.276,0.048 0.698,0.048 1.196,0 3.369,-0.367 4.482,-2.8249997 0.915,-2.022 0.416,-3.685 -0.002,-4.547 l -1.763,3.896 c -0.07,0.154 -0.222,0.257 -0.395,0.242 l -3.453,-0.154 c -0.106,-0.005 -0.207,-0.05 -0.281,-0.127 l -2.363,-2.479 c -0.116,-0.122 -0.147,-0.302 -0.077,-0.455 l 1.766,-3.90700004 z m -5.673,22.45799974 c -0.175,0 -0.345,-0.037 -0.505,-0.109 -0.297,-0.134 -0.526,-0.377 -0.641,-0.683 -0.115,-0.306 -0.104,-0.638 0.03,-0.936 0.269,-0.596 1.019,-0.882 1.62,-0.61 0.297,0.135 0.525,0.377 0.64,0.683 0.116,0.306 0.105,0.639 -0.031,0.936 -0.196,0.436 -0.633,0.719 -1.113,0.719 z m 10e-4,-1.622 c -0.156,0 -0.299,0.092 -0.363,0.234 -0.044,0.097 -0.047,0.205 -0.01,0.304 0.038,0.099 0.111,0.178 0.208,0.222 0.197,0.09 0.439,-0.005 0.526,-0.198 0.044,-0.097 0.048,-0.205 0.01,-0.304 -0.038,-0.099 -0.111,-0.178 -0.208,-0.222 -0.052,-0.024 -0.107,-0.036 -0.163,-0.036 z"
     id="path18"
     inkscape:connector-curvature="0"
     style="fill:#4e4e4e" /><g
     id="Expanded_10_"
     transform="translate(-21.058962,-20.351099)"><g
       id="g21"><g
         id="g23"><path
           d="m 132.825,121.145 c -1.489,0 -2.817,-1 -3.227,-2.431 l -0.923,-3.216 c -1.128,-0.022 -2.255,-0.151 -3.361,-0.384 l -1.621,2.928 c -0.576,1.038 -1.748,1.709 -2.986,1.709 -0.559,0 -1.104,-0.138 -1.577,-0.4 l -3.433,-1.901 c -0.784,-0.434 -1.352,-1.147 -1.6,-2.01 -0.247,-0.862 -0.144,-1.769 0.29,-2.553 l 1.623,-2.929 c -0.783,-0.812 -1.489,-1.699 -2.106,-2.644 l -3.215,0.922 c -0.302,0.087 -0.613,0.13 -0.925,0.13 -1.489,0 -2.817,-0.999 -3.227,-2.431 l -1.082,-3.772 c -0.248,-0.862 -0.145,-1.768 0.289,-2.552 0.436,-0.785 1.149,-1.353 2.011,-1.6 l 3.217,-0.923 c 0.022,-1.13 0.151,-2.257 0.384,-3.359 l -2.928,-1.623 c -0.784,-0.434 -1.351,-1.148 -1.599,-2.01 -0.248,-0.862 -0.145,-1.769 0.289,-2.552 l 1.901,-3.433 c 0.576,-1.039 1.749,-1.71 2.987,-1.71 0.559,0 1.104,0.138 1.576,0.4 l 2.929,1.623 c 0.814,-0.783 1.7,-1.49 2.643,-2.105 l -0.922,-3.216 c -0.247,-0.86 -0.144,-1.767 0.291,-2.552 0.435,-0.785 1.148,-1.353 2.009,-1.6 l 3.772,-1.082 c 0.302,-0.087 0.613,-0.131 0.925,-0.131 1.49,0 2.817,1 3.228,2.431 l 0.922,3.216 c 1.127,0.022 2.254,0.15 3.357,0.383 l 1.623,-2.929 c 0.577,-1.038 1.749,-1.709 2.987,-1.709 0.558,0 1.104,0.138 1.576,0.4 l 3.433,1.901 c 0.784,0.434 1.352,1.148 1.6,2.01 0.247,0.862 0.144,1.769 -0.29,2.553 l -1.622,2.928 c 0.784,0.814 1.491,1.701 2.106,2.645 l 3.215,-0.923 c 0.302,-0.087 0.613,-0.13 0.925,-0.13 1.489,0 2.817,1 3.227,2.431 l 1.083,3.772 c 0.247,0.862 0.144,1.769 -0.289,2.552 -0.435,0.785 -1.149,1.353 -2.011,1.6 l -3.216,0.923 c -0.022,1.129 -0.151,2.257 -0.384,3.359 l 2.928,1.623 c 1.619,0.897 2.206,2.943 1.309,4.562 l -1.901,3.433 c -0.576,1.039 -1.748,1.709 -2.987,1.71 -0.558,0 -1.103,-0.138 -1.576,-0.4 l -2.927,-1.623 c -0.811,0.781 -1.698,1.488 -2.644,2.106 l 0.923,3.216 c 0.509,1.78 -0.523,3.642 -2.302,4.152 l -3.772,1.082 c -0.303,0.089 -0.614,0.133 -0.925,0.133 z m -7.723,-6.914 c 0.031,0 0.061,0.003 0.093,0.01 1.243,0.285 2.519,0.431 3.793,0.434 0.184,0 0.345,0.122 0.396,0.299 l 1.008,3.512 c 0.31,1.079 1.31,1.833 2.433,1.833 0.235,0 0.469,-0.033 0.697,-0.098 l 3.772,-1.082 c 1.341,-0.385 2.119,-1.789 1.736,-3.13 l -1.008,-3.512 c -0.051,-0.177 0.022,-0.366 0.177,-0.464 1.082,-0.68 2.086,-1.479 2.985,-2.377 0.13,-0.13 0.332,-0.158 0.492,-0.069 l 3.196,1.773 c 0.351,0.194 0.757,0.296 1.176,0.296 0.943,0 1.831,-0.504 2.264,-1.284 l 1.901,-3.433 c 0.676,-1.22 0.233,-2.763 -0.986,-3.439 l -3.197,-1.772 c -0.161,-0.089 -0.244,-0.274 -0.203,-0.453 0.285,-1.24 0.43,-2.516 0.433,-3.792 0.001,-0.184 0.122,-0.346 0.299,-0.396 l 3.512,-1.008 c 0.65,-0.186 1.188,-0.615 1.516,-1.207 0.327,-0.59 0.404,-1.274 0.218,-1.924 l -1.083,-3.772 c -0.31,-1.079 -1.31,-1.833 -2.433,-1.833 -0.235,0 -0.469,0.033 -0.697,0.098 l -3.511,1.008 c -0.178,0.051 -0.367,-0.022 -0.464,-0.177 -0.676,-1.078 -1.475,-2.082 -2.377,-2.985 -0.13,-0.13 -0.158,-0.331 -0.069,-0.492 l 1.771,-3.198 c 0.328,-0.591 0.406,-1.274 0.219,-1.924 -0.187,-0.65 -0.615,-1.188 -1.206,-1.515 l -3.433,-1.901 c -0.35,-0.194 -0.757,-0.297 -1.176,-0.297 -0.942,0 -1.831,0.504 -2.264,1.284 l -1.772,3.198 c -0.09,0.161 -0.273,0.243 -0.454,0.202 -1.241,-0.284 -2.517,-0.43 -3.789,-0.432 -0.184,0 -0.346,-0.122 -0.396,-0.299 l -1.007,-3.512 c -0.31,-1.079 -1.31,-1.833 -2.434,-1.833 -0.235,0 -0.469,0.033 -0.697,0.098 l -3.772,1.082 c -0.649,0.186 -1.186,0.615 -1.514,1.207 -0.328,0.592 -0.406,1.275 -0.22,1.923 l 1.007,3.512 c 0.051,0.177 -0.022,0.366 -0.177,0.464 -1.076,0.676 -2.08,1.475 -2.984,2.376 -0.13,0.13 -0.331,0.158 -0.492,0.069 l -3.198,-1.772 c -0.35,-0.194 -0.757,-0.297 -1.176,-0.297 -0.943,0 -1.831,0.504 -2.264,1.284 l -1.901,3.433 c -0.327,0.59 -0.404,1.273 -0.218,1.924 0.186,0.65 0.614,1.188 1.204,1.515 l 3.197,1.772 c 0.161,0.089 0.244,0.274 0.203,0.454 -0.285,1.239 -0.43,2.514 -0.433,3.791 -0.001,0.184 -0.122,0.346 -0.299,0.396 l -3.512,1.008 c -0.649,0.186 -1.188,0.615 -1.516,1.206 -0.328,0.591 -0.405,1.274 -0.218,1.923 l 1.082,3.772 c 0.31,1.079 1.31,1.833 2.433,1.833 0.235,0 0.469,-0.033 0.697,-0.098 l 3.511,-1.007 c 0.176,-0.052 0.366,0.022 0.464,0.177 0.677,1.08 1.476,2.083 2.376,2.984 0.13,0.13 0.159,0.331 0.069,0.492 l -1.772,3.199 c -0.328,0.591 -0.406,1.274 -0.219,1.924 0.187,0.65 0.615,1.188 1.206,1.515 l 3.433,1.901 c 0.351,0.194 0.757,0.296 1.177,0.296 0.943,0 1.831,-0.504 2.263,-1.283 l 1.771,-3.198 c 0.073,-0.133 0.213,-0.212 0.361,-0.212 z m 7.721,4.951 c -0.619,0 -1.17,-0.415 -1.34,-1.01 l -1.216,-4.237 c -0.069,-0.242 -0.294,-0.411 -0.546,-0.411 l 0,-0.413 -0.024,0.414 c -0.568,0.024 -1.12,0.136 -1.653,0.243 -0.983,0.2 -2.067,0.358 -3.024,0.094 -0.098,-0.027 -0.207,-0.027 -0.307,0.002 -0.146,0.042 -0.266,0.138 -0.338,0.27 -0.012,0.022 -0.026,0.042 -0.041,0.062 l -2.375,2.931 c -0.246,0.413 -0.72,0.677 -1.218,0.677 l 0,0 c -0.232,0 -0.46,-0.058 -0.658,-0.168 l -3.433,-1.901 c -0.321,-0.178 -0.563,-0.482 -0.664,-0.835 -0.101,-0.35 -0.058,-0.736 0.12,-1.059 l 2.138,-3.86 c 0.127,-0.23 0.081,-0.516 -0.113,-0.694 -1.229,-1.127 -2.27,-2.434 -3.094,-3.885 -0.127,-0.225 -0.401,-0.337 -0.65,-0.267 l -4.237,1.216 c -0.724,0.207 -1.518,-0.236 -1.724,-0.956 l -1.083,-3.772 c -0.103,-0.358 -0.06,-0.735 0.12,-1.06 0.18,-0.325 0.477,-0.561 0.836,-0.664 l 4.237,-1.216 c 0.253,-0.073 0.422,-0.307 0.411,-0.57 -0.071,-1.665 0.118,-3.325 0.563,-4.935 0.07,-0.254 -0.041,-0.521 -0.272,-0.648 l -3.859,-2.138 c -0.672,-0.373 -0.917,-1.223 -0.544,-1.895 l 1.901,-3.432 c 0.24,-0.432 0.726,-0.712 1.238,-0.712 0.233,0 0.46,0.058 0.658,0.167 l 3.858,2.138 c 0.225,0.125 0.521,0.075 0.694,-0.113 1.13,-1.23 2.437,-2.271 3.886,-3.094 0.228,-0.13 0.337,-0.398 0.265,-0.651 l -1.216,-4.237 c -0.211,-0.739 0.217,-1.513 0.955,-1.725 l 3.773,-1.082 c 0.723,-0.208 1.518,0.236 1.724,0.956 l 1.216,4.237 c 0.069,0.241 0.292,0.41 0.542,0.41 0.253,-0.01 0.478,-0.015 0.703,-0.015 1.436,0 2.869,0.194 4.257,0.578 0.254,0.072 0.524,-0.045 0.648,-0.271 l 2.139,-3.86 c 0.24,-0.432 0.726,-0.711 1.238,-0.711 0.232,0 0.46,0.058 0.658,0.167 l 3.433,1.902 c 0.322,0.178 0.564,0.482 0.665,0.835 0.101,0.352 0.057,0.738 -0.12,1.059 l -2.138,3.859 c -0.127,0.231 -0.081,0.516 0.112,0.694 1.23,1.128 2.271,2.436 3.094,3.886 0.127,0.225 0.404,0.337 0.651,0.266 l 4.237,-1.216 c 0.723,-0.209 1.518,0.236 1.725,0.955 l 1.082,3.772 c 0.103,0.36 0.06,0.737 -0.121,1.06 -0.18,0.324 -0.477,0.56 -0.835,0.663 l -4.236,1.216 c -0.253,0.073 -0.422,0.307 -0.411,0.571 0.07,1.668 -0.119,3.329 -0.563,4.936 -0.07,0.254 0.042,0.521 0.272,0.648 l 3.859,2.138 c 0.672,0.372 0.917,1.223 0.544,1.895 l -1.901,3.433 c -0.239,0.432 -0.726,0.71 -1.24,0.71 -0.232,0 -0.459,-0.057 -0.655,-0.166 l -3.858,-2.139 c -0.223,-0.123 -0.521,-0.074 -0.694,0.114 -1.126,1.228 -2.433,2.269 -3.885,3.094 -0.229,0.13 -0.338,0.398 -0.266,0.65 l 1.216,4.237 c 0.103,0.358 0.06,0.734 -0.121,1.061 -0.181,0.326 -0.477,0.562 -0.834,0.664 l -3.772,1.082 c -0.129,0.038 -0.258,0.056 -0.389,0.056 z m -3.101,-6.484 c 0.619,0 1.17,0.415 1.34,1.01 l 1.216,4.237 c 0.084,0.293 0.407,0.473 0.703,0.389 l 3.772,-1.082 c 0.146,-0.042 0.266,-0.138 0.34,-0.271 0.074,-0.133 0.091,-0.286 0.049,-0.432 l -1.216,-4.237 c -0.179,-0.62 0.089,-1.277 0.651,-1.597 1.377,-0.783 2.617,-1.771 3.685,-2.935 0.424,-0.461 1.155,-0.58 1.702,-0.278 l 3.858,2.139 c 0.246,0.136 0.638,0.021 0.773,-0.222 l 1.901,-3.433 c 0.152,-0.274 0.052,-0.62 -0.222,-0.772 l -3.858,-2.138 c -0.565,-0.312 -0.84,-0.967 -0.668,-1.591 0.421,-1.524 0.6,-3.099 0.534,-4.68 -0.029,-0.646 0.386,-1.222 1.008,-1.4 l 4.237,-1.216 c 0.146,-0.042 0.267,-0.138 0.341,-0.271 0.074,-0.132 0.091,-0.283 0.049,-0.43 l -1.082,-3.772 c -0.084,-0.293 -0.408,-0.474 -0.703,-0.389 l -4.237,1.216 c -0.608,0.175 -1.287,-0.103 -1.598,-0.653 -0.781,-1.375 -1.768,-2.615 -2.934,-3.685 -0.476,-0.436 -0.59,-1.137 -0.277,-1.703 l 2.138,-3.859 c 0.072,-0.131 0.09,-0.289 0.049,-0.432 -0.041,-0.143 -0.14,-0.267 -0.271,-0.339 l -3.433,-1.901 c -0.252,-0.139 -0.635,-0.026 -0.773,0.222 l -2.138,3.858 c -0.305,0.553 -0.978,0.837 -1.592,0.668 -1.523,-0.421 -3.098,-0.601 -4.678,-0.534 -0.005,0 -0.056,0.001 -0.062,0.001 -0.617,0 -1.166,-0.414 -1.336,-1.008 l -1.216,-4.237 c -0.084,-0.293 -0.404,-0.476 -0.702,-0.389 l -3.773,1.082 c -0.301,0.087 -0.475,0.402 -0.389,0.703 l 1.216,4.237 c 0.178,0.621 -0.09,1.277 -0.651,1.597 -1.374,0.78 -2.614,1.768 -3.686,2.935 -0.424,0.461 -1.157,0.58 -1.703,0.276 l -3.858,-2.138 c -0.252,-0.14 -0.635,-0.026 -0.773,0.222 l -1.9,3.431 c -0.152,0.274 -0.052,0.62 0.222,0.772 l 3.858,2.137 c 0.566,0.313 0.841,0.967 0.668,1.591 -0.421,1.526 -0.601,3.1 -0.534,4.679 0.029,0.646 -0.386,1.222 -1.009,1.4 l -4.237,1.216 c -0.147,0.042 -0.268,0.138 -0.341,0.271 -0.074,0.132 -0.091,0.285 -0.049,0.431 l 1.083,3.772 c 0.084,0.292 0.403,0.475 0.702,0.389 l 4.237,-1.216 c 0.608,-0.174 1.287,0.104 1.598,0.653 0.781,1.375 1.769,2.614 2.934,3.683 0.476,0.437 0.59,1.137 0.278,1.703 l -2.138,3.86 c -0.073,0.132 -0.09,0.289 -0.049,0.431 0.041,0.144 0.14,0.268 0.271,0.34 l 3.433,1.901 c 0.253,0.14 0.635,0.026 0.773,-0.222 0.011,-0.021 0.025,-0.041 0.04,-0.059 l 2.374,-2.929 c 0.181,-0.309 0.468,-0.533 0.815,-0.632 0.245,-0.071 0.509,-0.072 0.754,-0.005 0.806,0.223 1.705,0.083 2.642,-0.107 0.565,-0.114 1.149,-0.232 1.783,-0.259 0.005,10e-4 0.053,10e-4 0.059,10e-4 z"
           id="path25"
           inkscape:connector-curvature="0"
           style="fill:#4e4e4e" /></g><g
         id="g27"><path
           d="m 129.03,107.667 c -4.538,0 -8.58,-3.045 -9.831,-7.405 -0.752,-2.621 -0.437,-5.382 0.888,-7.773 1.325,-2.392 3.498,-4.123 6.119,-4.875 0.92,-0.264 1.867,-0.398 2.816,-0.398 4.538,0 8.58,3.045 9.831,7.405 0.753,2.621 0.437,5.382 -0.888,7.773 -1.325,2.391 -3.498,4.123 -6.119,4.875 -0.919,0.265 -1.867,0.398 -2.816,0.398 z m -0.007,-19.624 c -0.872,0 -1.743,0.123 -2.588,0.365 -4.981,1.429 -7.871,6.645 -6.442,11.626 1.15,4.008 4.866,6.807 9.037,6.807 0.872,0 1.743,-0.123 2.588,-0.365 2.41,-0.691 4.407,-2.283 5.625,-4.481 1.218,-2.198 1.508,-4.735 0.817,-7.144 -1.15,-4.009 -4.866,-6.808 -9.037,-6.808 z m 0.007,17.662 0,0 c -3.667,0 -6.934,-2.461 -7.945,-5.984 -1.256,-4.379 1.284,-8.964 5.663,-10.221 0.743,-0.213 1.509,-0.321 2.276,-0.321 3.667,0 6.934,2.461 7.944,5.984 0.608,2.118 0.353,4.349 -0.718,6.281 -1.071,1.933 -2.827,3.332 -4.945,3.939 -0.743,0.214 -1.508,0.322 -2.275,0.322 z m -0.007,-15.7 c -0.69,0 -1.379,0.097 -2.048,0.289 -3.941,1.131 -6.228,5.258 -5.097,9.199 0.91,3.171 3.851,5.386 7.151,5.386 0.69,0 1.379,-0.097 2.048,-0.289 1.906,-0.547 3.487,-1.806 4.45,-3.546 0.964,-1.74 1.194,-3.747 0.647,-5.653 -0.91,-3.171 -3.85,-5.386 -7.151,-5.386 z"
           id="path29"
           inkscape:connector-curvature="0"
           style="fill:#4e4e4e" /></g></g></g><path
     d="m 91.969038,91.988901 c 0,0 3.121,-3.119 7.101,-4.575 3.981002,-1.456 8.024002,-5.487 14.932002,-10.409 6.908,-4.922 7.766,-6.47 17.453,-10.769 9.687,-4.299 -1.447,-18.027 -1.447,-18.027 0,0 -13.558,-5.8 -15.957,-5.329 -2.398,0.471 -24.403002,4.688 -27.381002,6.411 -2.977,1.722 -13.787,5.547 -14.709,10.947 -0.923,5.4 9.875,27.653 10.099,27.931 0.225,0.277 9.909,3.82 9.909,3.82 z"
     id="path31"
     inkscape:connector-curvature="0"
     style="fill:none" /><path
     d="m 41.997038,108.0159 c -0.646,0 -1.068,-0.156 -1.113,-0.173 -0.133,-0.052 -0.23,-0.168 -0.257,-0.308 -0.026,-0.14 0.022,-0.285 0.126,-0.381 l 2.219,-2.038 -0.626,-1.667 -1.622,-0.778 -2.218,2.037 c -0.107,0.098 -0.256,0.133 -0.395,0.093 -0.139,-0.041 -0.246,-0.151 -0.283,-0.29 -0.024,-0.088 -0.552,-2.177 1.291,-3.871 0.734,-0.673999 1.577,-1.015999 2.505,-1.015999 0.809,0 1.482,0.266 1.844,0.445999 l 5.647,-5.187999 c 0.052,-0.047 0.521,-0.462 1.173,-0.462 0.316,0 0.787,0.103 1.239,0.595 0.363,0.395 0.535,0.816 0.512,1.252 -0.033,0.625 -0.459,1.019 -0.507,1.062 l -5.712,5.247999 c 0.222,0.746 0.671,2.841 -0.768,4.163 -1.15,1.055 -2.296,1.276 -3.055,1.276 z m -0.063,-0.826 c 0.624,0.013 1.573,-0.153 2.558,-1.058 1.33,-1.221 0.475,-3.508 0.466,-3.531 -0.061,-0.158 -0.018,-0.337 0.106,-0.452 l 5.674,-5.211999 c -0.351,0.143 -0.787,0.049 -1.048,-0.235 -0.169,-0.185 -0.257,-0.425 -0.246,-0.676 0.007,-0.162 0.054,-0.315 0.136,-0.45 l -5.771,5.301999 c -0.14,0.128 -0.349,0.145 -0.506,0.041 -0.006,-0.004 -0.739,-0.47 -1.679,-0.47 -0.715,0 -1.37,0.268 -1.946,0.798 -0.849,0.78 -1.072,1.664 -1.106,2.278 l 1.799,-1.653 c 0.125,-0.114 0.306,-0.141 0.458,-0.068 l 2.024,0.971 c 0.096,0.046 0.171,0.127 0.208,0.227 l 0.782,2.083 c 0.059,0.158 0.017,0.336 -0.107,0.449 l -1.802,1.656 z m 8.448,-11.236999 c -0.02,0 -0.049,0.005 -0.076,0.03 -0.04,0.036 -0.044,0.121 -0.008,0.16 0.063,0.068 0.11,0.054 0.161,0.007 0.039,-0.035 0.042,-0.12 0.006,-0.16 -0.029,-0.032 -0.064,-0.037 -0.083,-0.037 z"
     id="path33"
     inkscape:connector-curvature="0"
     style="fill:#4e4e4e" /><path
     d="m 110.61004,56.056901 0,0 c -0.1,0 -0.206,-0.008 -0.319,-0.024 -0.53,-0.078 -0.93,-0.296 -1.188,-0.649 -0.368,-0.505 -0.286,-1.08 -0.275,-1.144 l 1.125,-7.674 c -0.643,-0.439 -2.311,-1.782 -2.028,-3.716 0.405,-2.763 2.453,-3.456 2.54,-3.484 0.136,-0.044 0.285,-0.015 0.394,0.077 0.109,0.092 0.162,0.234 0.142,0.375 l -0.437,2.981 1.536,0.899 1.75,-0.419 0.437,-2.98 c 0.021,-0.143 0.115,-0.265 0.248,-0.321 0.133,-0.056 0.286,-0.039 0.403,0.047 0.074,0.054 1.801,1.342 1.438,3.818 -0.308,2.101 -1.959,2.965 -3.018,3.19 l -1.112,7.581 c -0.072,0.5 -0.508,1.443 -1.636,1.443 z m -0.094,-1.675 c -0.056,0 -0.104,0.042 -0.112,0.097 -0.009,0.062 0.034,0.119 0.096,0.129 0.073,0.001 0.12,-0.041 0.129,-0.096 0.009,-0.061 -0.034,-0.119 -0.096,-0.128 l -0.017,-0.002 z m 0,-0.826 c 0.045,0 0.091,0.003 0.137,0.01 0.424,0.062 0.741,0.4 0.796,0.804 l 1.137,-7.755 c 0.027,-0.187 0.179,-0.332 0.367,-0.351 0.091,-0.01 2.275,-0.273 2.607,-2.54 0.167,-1.14 -0.217,-1.966 -0.578,-2.465 l -0.354,2.418 c -0.025,0.167 -0.148,0.303 -0.313,0.342 l -2.184,0.523 c -0.103,0.024 -0.212,0.008 -0.305,-0.045 l -1.92,-1.124 c -0.145,-0.085 -0.224,-0.25 -0.2,-0.416 l 0.356,-2.425 c -0.498,0.387 -1.126,1.122 -1.319,2.439 -0.262,1.786 1.843,3.022 1.864,3.034 0.146,0.085 0.227,0.25 0.202,0.418 l -1.118,7.626 c 0.162,-0.296 0.475,-0.493 0.825,-0.493 z"
     id="path35"
     inkscape:connector-curvature="0"
     style="fill:#4e4e4e" /><path
     d="m 98.265038,114.6849 0,0 c -0.64,0 -2.252,-0.179 -3.389,-1.838 -1.201,-1.751 -0.576,-3.507 0.048,-4.392 l -4.333,-6.319 c -0.024,-0.035 -0.239,-0.358 -0.294,-0.801 -0.077,-0.619 0.195,-1.176 0.767,-1.567999 0.345,-0.237 0.693,-0.357 1.035,-0.357 0.638,0 1.09,0.427 1.256,0.678999 l 4.387,6.398 c 0.78,-0.114 2.920002,-0.243 4.012002,1.349 1.579,2.303 0.547,4.202 0.502,4.282 -0.07,0.125 -0.199,0.204 -0.342,0.211 -0.157,0.01 -0.279,-0.062 -0.359,-0.179 l -1.704002,-2.485 -1.738,0.383 -1,1.496 1.703,2.484 c 0.082,0.119 0.094,0.272 0.035,0.403 -0.059,0.132 -0.184,0.223 -0.327,0.241 10e-4,0 -0.094,0.013 -0.259,0.013 z m -6.921,-12.912 4.433,6.465 c 0.107,0.156 0.095,0.365 -0.031,0.507 -0.06,0.069 -1.485,1.745 -0.189,3.635 0.651,0.949 1.487,1.296 2.099,1.418 l -1.382,-2.015 c -0.096,-0.139 -0.097,-0.323 -0.003,-0.463 l 1.248,-1.866 c 0.059,-0.088 0.15,-0.151 0.254,-0.174 l 2.173,-0.479 c 0.165002,-0.035 0.335002,0.031 0.429002,0.17 l 1.386,2.021 c 0.103,-0.622 0.065,-1.588 -0.688,-2.686 -1.018,-1.484 -3.419002,-0.962 -3.430002,-0.961 -0.165,0.036 -0.336,-0.03 -0.431,-0.169 l -4.357,-6.354 c 0.093,0.37 -0.047,0.776 -0.38,1.004 -0.339,0.231 -0.821,0.203 -1.131,-0.053 z m 0.6,-0.838 c -0.023,0 -0.045,0.007 -0.064,0.02 -0.052,0.035 -0.065,0.106 -0.03,0.158 0.071,0.103 0.124,0.053 0.158,0.03 0.052,-0.035 0.065,-0.106 0.03,-0.158 -0.031,-0.045 -0.076,-0.05 -0.094,-0.05 z"
     id="path37"
     inkscape:connector-curvature="0"
     style="fill:#4e4e4e" /><g
     id="Expanded_9_"
     transform="translate(-21.058962,-20.351099)"><g
       id="g40"><g
         id="g42"><path
           d="m 92.444,139.286 c -0.097,0 -0.195,-0.006 -0.294,-0.018 l -2.604,-0.322 c -1.28,-0.159 -2.228,-1.375 -2.071,-2.655 l 0.264,-2.12 c -0.631,-0.289 -1.239,-0.633 -1.814,-1.027 l -1.685,1.314 c -0.422,0.329 -0.927,0.502 -1.462,0.502 -0.741,0 -1.426,-0.334 -1.88,-0.916 l -1.614,-2.069 c -0.807,-1.035 -0.622,-2.534 0.414,-3.342 l 1.685,-1.314 c -0.242,-0.652 -0.428,-1.326 -0.555,-2.01 l -2.121,-0.262 c -1.28,-0.158 -2.228,-1.374 -2.071,-2.655 l 0.321,-2.604 c 0.078,-0.631 0.397,-1.194 0.898,-1.585 0.501,-0.391 1.118,-0.566 1.757,-0.485 l 2.121,0.262 c 0.29,-0.633 0.634,-1.241 1.027,-1.813 l -1.313,-1.684 c -0.807,-1.035 -0.622,-2.534 0.414,-3.342 l 2.069,-1.613 c 0.501,-0.391 1.118,-0.567 1.756,-0.486 0.632,0.079 1.195,0.398 1.586,0.899 l 1.314,1.684 c 0.653,-0.242 1.326,-0.428 2.009,-0.554 l 0.262,-2.121 c 0.159,-1.287 1.346,-2.234 2.654,-2.07 l 2.604,0.321 c 1.259,0.156 2.227,1.397 2.071,2.655 l -0.262,2.121 c 0.633,0.29 1.24,0.634 1.812,1.027 l 1.685,-1.314 c 0.422,-0.329 0.927,-0.503 1.462,-0.503 0.741,0 1.425,0.334 1.879,0.916 l 1.614,2.069 c 0.391,0.5 0.563,1.124 0.485,1.756 -0.078,0.632 -0.397,1.195 -0.898,1.585 l -1.685,1.314 c 0.242,0.651 0.427,1.323 0.555,2.008 l 2.121,0.262 c 1.281,0.159 2.229,1.375 2.071,2.655 l -0.321,2.604 c -0.077,0.631 -0.396,1.194 -0.899,1.586 -0.5,0.391 -1.121,0.564 -1.756,0.485 l -2.12,-0.262 c -0.29,0.633 -0.634,1.241 -1.028,1.814 l 1.313,1.684 c 0.391,0.501 0.563,1.124 0.485,1.756 -0.078,0.632 -0.397,1.195 -0.898,1.585 l -2.069,1.613 c -0.501,0.391 -1.123,0.565 -1.756,0.486 -0.632,-0.078 -1.195,-0.397 -1.586,-0.899 l -1.314,-1.684 c -0.652,0.242 -1.326,0.428 -2.01,0.555 l -0.262,2.121 c -0.146,1.192 -1.161,2.089 -2.36,2.09 z m -6.531,-7.07 c 0.085,0 0.17,0.026 0.242,0.079 0.684,0.495 1.422,0.913 2.193,1.242 0.169,0.072 0.271,0.248 0.248,0.431 l -0.301,2.424 c -0.101,0.822 0.531,1.632 1.353,1.734 l 2.604,0.322 c 0.858,0.102 1.629,-0.512 1.734,-1.352 l 0.3,-2.425 c 0.023,-0.183 0.164,-0.328 0.345,-0.357 0.83,-0.132 1.648,-0.357 2.43,-0.671 0.17,-0.068 0.366,-0.016 0.48,0.129 l 1.502,1.926 c 0.255,0.328 0.623,0.536 1.035,0.587 0.415,0.052 0.819,-0.062 1.147,-0.317 l 2.069,-1.613 c 0.326,-0.255 0.535,-0.623 0.585,-1.035 0.051,-0.413 -0.061,-0.82 -0.316,-1.147 l -1.502,-1.926 c -0.113,-0.145 -0.117,-0.348 -0.009,-0.497 0.494,-0.681 0.912,-1.419 1.243,-2.193 0.072,-0.169 0.243,-0.272 0.43,-0.248 l 2.425,0.299 c 0.414,0.051 0.819,-0.061 1.146,-0.317 0.328,-0.255 0.537,-0.623 0.587,-1.035 l 0.321,-2.604 c 0.102,-0.821 -0.531,-1.632 -1.353,-1.734 l -2.425,-0.3 c -0.183,-0.023 -0.328,-0.163 -0.357,-0.345 -0.133,-0.832 -0.359,-1.65 -0.671,-2.429 -0.068,-0.171 -0.016,-0.366 0.13,-0.479 l 1.926,-1.502 c 0.326,-0.255 0.535,-0.623 0.585,-1.035 0.051,-0.413 -0.061,-0.82 -0.316,-1.147 l -1.614,-2.069 c -0.51,-0.654 -1.524,-0.781 -2.182,-0.27 l -1.926,1.502 c -0.145,0.113 -0.347,0.117 -0.496,0.009 -0.679,-0.493 -1.417,-0.911 -2.192,-1.242 -0.169,-0.072 -0.27,-0.248 -0.247,-0.43 l 0.3,-2.426 c 0.102,-0.822 -0.53,-1.632 -1.353,-1.734 L 93.41,107.7 c -0.86,-0.106 -1.63,0.511 -1.734,1.352 l -0.3,2.425 c -0.023,0.183 -0.164,0.328 -0.345,0.357 -0.829,0.132 -1.646,0.357 -2.43,0.67 -0.169,0.067 -0.366,0.016 -0.479,-0.129 l -1.502,-1.926 c -0.255,-0.327 -0.623,-0.536 -1.036,-0.587 -0.41,-0.048 -0.818,0.062 -1.146,0.318 l -2.069,1.613 c -0.676,0.527 -0.797,1.506 -0.269,2.182 l 1.502,1.926 c 0.113,0.145 0.117,0.348 0.008,0.497 -0.493,0.679 -0.911,1.417 -1.242,2.192 -0.073,0.169 -0.244,0.271 -0.43,0.248 l -2.426,-0.3 c -0.417,-0.051 -0.819,0.062 -1.147,0.317 -0.327,0.255 -0.536,0.623 -0.587,1.035 l -0.321,2.604 c -0.101,0.822 0.531,1.632 1.352,1.734 l 2.425,0.299 c 0.111,0.013 0.208,0.07 0.274,0.154 -0.008,-0.034 -0.024,-0.067 -0.046,-0.096 -0.039,-0.051 -0.096,-0.083 -0.159,-0.09 -0.025,-0.003 -0.049,-0.008 -0.073,-0.015 l -2.401,-0.738 c -0.554,-0.091 -0.958,-0.625 -0.89,-1.186 l 0.322,-2.604 c 0.034,-0.279 0.181,-0.539 0.403,-0.712 0.219,-0.171 0.507,-0.252 0.787,-0.218 l 2.928,0.362 c 0.111,-0.012 0.222,-0.062 0.257,-0.156 0.397,-1.057 0.955,-2.041 1.657,-2.926 0.07,-0.089 0.071,-0.212 0.002,-0.301 l -1.813,-2.323 c -0.362,-0.465 -0.279,-1.138 0.186,-1.5 l 2.069,-1.614 c 0.225,-0.176 0.505,-0.254 0.789,-0.218 0.283,0.035 0.536,0.179 0.712,0.404 l 1.813,2.324 c 0.068,0.087 0.192,0.117 0.292,0.072 1.028,-0.466 2.119,-0.767 3.242,-0.894 0.112,-0.013 0.2,-0.1 0.214,-0.211 l 0.362,-2.927 c 0.072,-0.578 0.602,-1.004 1.192,-0.929 l 2.603,0.321 c 0.575,0.072 1,0.618 0.93,1.192 l -0.361,2.927 c -0.014,0.112 0.05,0.217 0.155,0.257 1.058,0.398 2.043,0.956 2.926,1.657 0.109,0.087 0.191,0.087 0.301,0.001 l 2.324,-1.812 c 0.448,-0.35 1.151,-0.262 1.5,0.185 l 1.614,2.069 c 0.175,0.224 0.253,0.504 0.218,0.788 -0.035,0.283 -0.178,0.537 -0.403,0.712 l -2.325,1.812 c -0.088,0.069 -0.118,0.188 -0.071,0.29 0.465,1.027 0.766,2.118 0.894,3.242 0.012,0.112 0.099,0.2 0.21,0.213 l 2.928,0.362 c 0.574,0.072 1,0.617 0.93,1.192 l -0.321,2.604 c -0.035,0.28 -0.182,0.539 -0.404,0.712 -0.219,0.171 -0.506,0.252 -0.787,0.218 l -2.927,-0.362 c -0.002,0 -0.004,0 -0.005,0 -0.127,0 -0.217,0.063 -0.252,0.155 -0.397,1.058 -0.956,2.043 -1.658,2.927 -0.07,0.088 -0.07,0.212 -0.002,0.3 l 1.813,2.324 c 0.362,0.465 0.279,1.138 -0.186,1.5 l -2.069,1.614 c -0.222,0.174 -0.509,0.252 -0.789,0.218 -0.281,-0.035 -0.534,-0.178 -0.71,-0.404 l -1.813,-2.324 c -0.068,-0.087 -0.191,-0.118 -0.291,-0.072 -1.03,0.466 -2.121,0.767 -3.243,0.895 -0.11,0.013 -0.2,0.101 -0.214,0.211 l -0.362,2.927 c -0.071,0.578 -0.602,1.007 -1.192,0.929 l -2.604,-0.321 c -0.574,-0.071 -1,-0.617 -0.93,-1.192 l 0.363,-2.927 c 0.013,-0.111 -0.051,-0.217 -0.157,-0.257 -1.055,-0.397 -2.04,-0.954 -2.926,-1.657 -0.111,-0.087 -0.191,-0.086 -0.301,-10e-4 l -2.324,1.812 c -0.187,0.146 -0.42,0.226 -0.657,0.226 l 0,0 c -0.332,0 -0.64,-0.15 -0.844,-0.411 l -1.614,-2.068 c -0.362,-0.465 -0.279,-1.138 0.186,-1.5 l 2.324,-1.812 c 0.089,-0.069 0.118,-0.189 0.072,-0.292 -0.152,-0.336 -0.356,-0.645 -0.553,-0.945 -0.238,-0.36 -0.48,-0.728 -0.646,-1.154 0.134,0.627 0.322,1.244 0.56,1.839 0.068,0.171 0.016,0.366 -0.13,0.479 l -1.926,1.502 c -0.676,0.527 -0.797,1.506 -0.269,2.182 l 1.614,2.069 c 0.51,0.655 1.525,0.783 2.182,0.27 l 1.926,-1.502 c 0.073,-0.059 0.163,-0.089 0.253,-0.089 z m -0.006,-1.484 c 0.24,0 0.476,0.082 0.664,0.232 0.819,0.649 1.728,1.164 2.704,1.531 0.464,0.175 0.745,0.64 0.685,1.131 l -0.363,2.927 c -0.015,0.119 0.093,0.256 0.212,0.271 l 2.603,0.321 c 0.158,-0.012 0.256,-0.09 0.271,-0.211 l 0.362,-2.927 c 0.06,-0.491 0.446,-0.874 0.94,-0.931 1.036,-0.118 2.044,-0.396 2.995,-0.826 0.441,-0.201 0.986,-0.066 1.284,0.316 l 1.813,2.324 c 0.04,0.052 0.096,0.084 0.161,0.092 0.08,-0.001 0.134,-0.015 0.177,-0.049 l 2.07,-1.614 c 0.105,-0.082 0.124,-0.235 0.041,-0.341 l -1.812,-2.323 c -0.305,-0.391 -0.302,-0.935 0.006,-1.323 0.649,-0.816 1.164,-1.726 1.531,-2.703 0.172,-0.455 0.644,-0.747 1.131,-0.685 l 2.927,0.362 c 0.103,0.004 0.137,-0.017 0.178,-0.049 0.051,-0.04 0.085,-0.1 0.093,-0.163 l 0.321,-2.603 c 0.015,-0.122 -0.09,-0.256 -0.212,-0.271 l -2.926,-0.362 c -0.493,-0.059 -0.876,-0.446 -0.931,-0.94 -0.118,-1.038 -0.396,-2.045 -0.826,-2.993 -0.205,-0.45 -0.075,-0.978 0.315,-1.283 l 2.325,-1.812 c 0.051,-0.04 0.083,-0.097 0.091,-0.162 0.008,-0.065 -0.009,-0.128 -0.049,-0.179 l -1.614,-2.069 c -0.069,-0.088 -0.178,-0.168 -0.341,-0.042 l -2.324,1.812 c -0.377,0.293 -0.947,0.292 -1.322,-0.006 -0.816,-0.649 -1.726,-1.164 -2.703,-1.531 -0.465,-0.175 -0.745,-0.641 -0.684,-1.132 l 0.361,-2.926 c 0.015,-0.122 -0.09,-0.256 -0.212,-0.271 l -2.602,-0.321 c -0.132,-0.001 -0.256,0.09 -0.271,0.212 l -0.362,2.926 c -0.06,0.491 -0.446,0.874 -0.94,0.931 -1.038,0.118 -2.045,0.396 -2.994,0.826 -0.441,0.201 -0.986,0.066 -1.284,-0.315 l -1.813,-2.325 c -0.04,-0.052 -0.096,-0.084 -0.162,-0.092 -0.08,0.002 -0.136,0.016 -0.179,0.05 l -2.069,1.613 c -0.105,0.082 -0.124,0.235 -0.042,0.341 l 1.813,2.323 c 0.305,0.392 0.302,0.936 -0.007,1.324 -0.649,0.816 -1.163,1.726 -1.53,2.702 -0.171,0.455 -0.646,0.743 -1.131,0.685 l -2.928,-0.362 c -0.085,0.001 -0.137,0.017 -0.179,0.049 -0.05,0.039 -0.084,0.099 -0.092,0.161 l -0.322,2.604 c -0.015,0.122 0.09,0.256 0.212,0.271 0.024,0.003 0.047,0.008 0.07,0.015 l 2.399,0.737 c 0.267,0.042 0.505,0.182 0.673,0.397 0.12,0.155 0.196,0.339 0.219,0.534 0.067,0.585 0.362,1.034 0.704,1.553 0.215,0.326 0.437,0.663 0.616,1.059 0.204,0.452 0.074,0.98 -0.317,1.284 l -2.324,1.812 c -0.105,0.082 -0.124,0.235 -0.042,0.341 l 1.614,2.068 c 0.069,0.089 0.177,0.17 0.341,0.042 l 2.324,-1.812 c 0.192,-0.144 0.426,-0.225 0.663,-0.225 z"
           id="path44"
           inkscape:connector-curvature="0"
           style="fill:#4e4e4e" /></g><g
         id="g46"><path
           d="m 92.837,130.044 c -2.169,0 -4.175,-0.978 -5.505,-2.682 -1.144,-1.467 -1.647,-3.293 -1.418,-5.143 0.229,-1.85 1.162,-3.499 2.629,-4.642 1.234,-0.963 2.715,-1.472 4.28,-1.472 2.169,0 4.176,0.977 5.506,2.682 2.364,3.031 1.821,7.421 -1.211,9.786 -1.234,0.962 -2.714,1.471 -4.281,1.471 z m -0.014,-13.113 c -1.38,0 -2.685,0.448 -3.773,1.297 -1.292,1.008 -2.115,2.461 -2.317,4.092 -0.202,1.631 0.243,3.241 1.251,4.534 1.172,1.502 2.94,2.364 4.853,2.364 1.38,0 2.685,-0.449 3.773,-1.297 2.672,-2.084 3.151,-5.954 1.067,-8.626 -1.171,-1.503 -2.94,-2.364 -4.854,-2.364 z m 0.014,11.801 c 0,0 0,0 0,0 -1.762,0 -3.39,-0.794 -4.47,-2.177 -1.919,-2.461 -1.479,-6.025 0.983,-7.945 1.002,-0.782 2.204,-1.195 3.475,-1.195 1.761,0 3.39,0.794 4.469,2.177 0.928,1.191 1.338,2.674 1.152,4.176 -0.186,1.502 -0.943,2.841 -2.134,3.769 -1.002,0.782 -2.204,1.195 -3.475,1.195 z m -0.012,-10.49 c -1.085,0 -2.112,0.353 -2.967,1.02 -2.102,1.639 -2.478,4.683 -0.839,6.785 0.921,1.181 2.313,1.859 3.817,1.859 1.085,0 2.112,-0.353 2.967,-1.02 1.017,-0.793 1.664,-1.936 1.822,-3.219 0.159,-1.283 -0.19,-2.55 -0.984,-3.566 -0.92,-1.181 -2.311,-1.859 -3.816,-1.859 z"
           id="path48"
           inkscape:connector-curvature="0"
           style="fill:#4e4e4e" /></g></g></g><path
     d="m 58.537038,96.522901 c 0,0 2.714,1.156 4.611,3.261 1.897,2.104999 5.407,3.604999 10.185,6.658999 4.778,3.054 5.952,3.199 11.037,8.133 5.085,4.933 10.817,-5.4 10.817,-5.4 0,0 0.21,-9.856999 -0.681,-11.225999 -0.891,-1.369 -9.003,-13.962 -10.815,-15.378 -1.812,-1.416 -6.884,-7.164 -10.462,-6.387 -3.578,0.777 -14.681,13.031 -14.797,13.239 -0.116,0.209 0.105,7.099 0.105,7.099 z"
     id="path50"
     inkscape:connector-curvature="0"
     style="fill:none" /></svg>