<?xml version="1.0" encoding="UTF-8" standalone="no"?>
<svg
   xmlns:dc="http://purl.org/dc/elements/1.1/"
   xmlns:cc="http://creativecommons.org/ns#"
   xmlns:rdf="http://www.w3.org/1999/02/22-rdf-syntax-ns#"
   xmlns:svg="http://www.w3.org/2000/svg"
   xmlns="http://www.w3.org/2000/svg"
   xmlns:sodipodi="http://sodipodi.sourceforge.net/DTD/sodipodi-0.dtd"
   xmlns:inkscape="http://www.inkscape.org/namespaces/inkscape"
   enable-background="new 0 0 24 24"
   height="21.966101"
   id="Layer_1"
   version="1.1"
   viewBox="0 0 12.001729 21.966101"
   width="12.001729"
   xml:space="preserve"
   inkscape:version="0.91 r13725"
   sodipodi:docname="dollar.svg"><metadata
     id="metadata11"><rdf:RDF><cc:Work
         rdf:about=""><dc:format>image/svg+xml</dc:format><dc:type
           rdf:resource="http://purl.org/dc/dcmitype/StillImage" /><dc:title></dc:title></cc:Work></rdf:RDF></metadata><defs
     id="defs9" /><sodipodi:namedview
     pagecolor="#ffffff"
     bordercolor="#666666"
     borderopacity="1"
     objecttolerance="10"
     gridtolerance="10"
     guidetolerance="10"
     inkscape:pageopacity="0"
     inkscape:pageshadow="2"
     inkscape:window-width="1366"
     inkscape:window-height="706"
     id="namedview7"
     showgrid="false"
     fit-margin-top="0"
     fit-margin-left="0"
     fit-margin-right="0"
     fit-margin-bottom="0"
     inkscape:zoom="9.8333333"
     inkscape:cx="-8.9524746"
     inkscape:cy="-0.40677979"
     inkscape:window-x="-8"
     inkscape:window-y="-8"
     inkscape:window-maximized="1"
     inkscape:current-layer="Layer_1" /><g
     id="g3"
     transform="matrix(0.91525423,0,0,0.91525423,-4.982644,0)"
     style="fill:#4e4e4e;fill-opacity:1"><path
       d="m 18.557,15.559 c 0,2.617 -1.823,4.852 -5.203,5.41 l 0,3.031 -2.912,-0.598 0,-2.199 C 8.469,21.116 6.56,20.557 5.444,19.937 l 0.879,-3.439 c 1.235,0.675 2.971,1.297 4.884,1.297 1.706,0 2.851,-0.676 2.851,-1.822 0,-1.121 -0.941,-1.828 -3.148,-2.561 C 7.765,12.35 5.62,10.885 5.62,8.027 5.62,5.412 7.439,3.384 10.586,2.795 l 0,-2.795 2.885,0.699 0,1.89 c 1.94,0.058 3.263,0.495 4.292,0.97 l -0.882,3.32 C 16.143,6.527 14.76,5.848 12.645,5.848 c -1.909,0 -2.528,0.856 -2.528,1.681 0,0.94 1.03,1.589 3.56,2.497 3.497,1.236 4.88,2.853 4.88,5.533 z"
       id="path5"
       inkscape:connector-curvature="0"
       style="fill:#4e4e4e;fill-opacity:1" /></g></svg>