<?xml version="1.0" encoding="UTF-8" standalone="no"?>
<!-- Generator: Adobe Illustrator 17.0.0, SVG Export Plug-In . SVG Version: 6.00 Build 0)  -->

<svg
   xmlns:dc="http://purl.org/dc/elements/1.1/"
   xmlns:cc="http://creativecommons.org/ns#"
   xmlns:rdf="http://www.w3.org/1999/02/22-rdf-syntax-ns#"
   xmlns:svg="http://www.w3.org/2000/svg"
   xmlns="http://www.w3.org/2000/svg"
   xmlns:sodipodi="http://sodipodi.sourceforge.net/DTD/sodipodi-0.dtd"
   xmlns:inkscape="http://www.inkscape.org/namespaces/inkscape"
   version="1.1"
   id="Слой_1"
   x="0px"
   y="0px"
   width="93.41423"
   height="76.904922"
   viewBox="0 0 93.414228 76.904922"
   enable-background="new 0 0 158.537 100.61"
   xml:space="preserve"
   inkscape:version="0.91 r13725"
   sodipodi:docname="equip.svg"><metadata
     id="metadata79"><rdf:RDF><cc:Work
         rdf:about=""><dc:format>image/svg+xml</dc:format><dc:type
           rdf:resource="http://purl.org/dc/dcmitype/StillImage" /><dc:title></dc:title></cc:Work></rdf:RDF></metadata><defs
     id="defs77" /><sodipodi:namedview
     pagecolor="#ffffff"
     bordercolor="#666666"
     borderopacity="1"
     objecttolerance="10"
     gridtolerance="10"
     guidetolerance="10"
     inkscape:pageopacity="0"
     inkscape:pageshadow="2"
     inkscape:window-width="1440"
     inkscape:window-height="838"
     id="namedview75"
     showgrid="false"
     fit-margin-top="0"
     fit-margin-left="0"
     fit-margin-right="0"
     fit-margin-bottom="0"
     inkscape:zoom="2.3456913"
     inkscape:cx="51.010006"
     inkscape:cy="46.779001"
     inkscape:window-x="-8"
     inkscape:window-y="-8"
     inkscape:window-maximized="1"
     inkscape:current-layer="Слой_1" /><path
     d="m 72.650591,76.904922 c -0.07392,0 -0.146084,-0.02138 -0.208418,-0.06235 C 72.283641,76.737462 56.35559,66.265737 37.247821,60.386357 18.107986,54.497176 3.5355599,51.774367 3.3903787,51.747647 3.2746011,51.72627 3.1757254,51.65233 3.1222844,51.547243 3.0804285,51.463513 2.1006735,49.475519 3.1105508,47.05643 3.9299773,45.096934 3.605769,44.001398 2.8950047,41.601013 L 2.673381,40.84572 C 2.4337883,40.024513 2.1256128,39.029624 1.8031865,37.99198 0.91695925,35.139129 4.482649e-4,32.189195 4.482649e-4,31.196086 c 0,-0.750844 0.1950709951,-1.075052 0.4640452951,-1.523954 0.25829855,-0.430199 0.61189774,-1.018937 1.04565934,-2.36921 L 1.8521743,26.234105 C 2.5059353,24.181977 2.9005048,22.943931 4.1055962,20.017156 4.9080988,18.068348 5.8219386,16.423259 6.7054928,14.831612 7.3672675,13.640771 8.0513121,12.408071 8.6863654,11.053347 10.016152,8.214747 12.627628,3.640212 14.007293,2.835036 14.880159,2.326458 16.207272,2.175043 18.617456,1.901603 19.713881,1.776897 21.078405,1.621929 22.6941,1.395696 23.859111,1.232691 24.947522,1.069708 25.976258,0.915618 29.388456,0.404369 32.084545,0 34.775292,0 38.0717,0 46.016571,1.032299 53.300555,3.802315 c 7.055973,2.683621 9.577489,5.252343 9.681698,5.360116 0.144286,0.15052 0.13985,0.388336 -0.01063,0.532626 -0.14964,0.145167 -0.388334,0.14073 -0.533515,-0.0088 C 62.413158,9.660427 59.904121,7.121098 53.03252,4.50873 45.842946,1.774343 38.018318,0.755403 34.775351,0.755403 c -2.634635,0 -5.305784,0.399918 -8.687699,0.906714 C 25.057135,1.816212 23.966052,1.98009 22.79837,2.143084 21.172877,2.371097 19.803011,2.526076 18.702131,2.651662 16.469192,2.905505 15.122484,3.058704 14.38678,3.487121 13.314401,4.112379 10.881954,8.145382 9.3686851,11.374098 8.7229433,12.751981 8.0326652,13.99537 7.3646552,15.197788 6.4908985,16.76984 5.5886384,18.396223 4.8030578,20.304059 3.609546,23.201444 3.2185369,24.428802 2.570122,26.462226 l -0.3420214,1.070597 c -0.4604812,1.433107 -0.8550544,2.091319 -1.1169134,2.526863 -0.25206323,0.4204 -0.35627221,0.594082 -0.35627221,1.134724 0,0.878212 0.98064051,4.034785 1.76889231,6.571441 0.3233174,1.042099 0.6341641,2.041442 0.8737567,2.866211 l 0.2217796,0.751735 c 0.7401569,2.49925 1.1106781,3.753329 0.188832,5.961323 -0.7223402,1.730595 -0.2689871,3.215359 -0.081952,3.696326 1.8116448,0.347364 15.7712814,3.091553 33.7443234,8.621789 17.685354,5.442057 32.659476,14.795983 35.055408,16.332407 L 73.47806,74.387883 C 71.195246,72.884414 55.429309,62.964012 23.174204,53.263613 c -0.199511,-0.05966 -0.31352,-0.270768 -0.252952,-0.470281 0.05968,-0.199513 0.269874,-0.311738 0.470279,-0.252952 34.971681,10.517155 50.655674,21.315766 50.809762,21.423539 0.162107,0.113119 0.209311,0.331333 0.108664,0.501451 l -1.334239,2.253424 c -0.05254,0.08905 -0.13985,0.152299 -0.240484,0.175472 -0.02761,0.0081 -0.057,0.01063 -0.08461,0.01063 z"
     id="path3"
     inkscape:connector-curvature="0"
     style="fill:#ffffff" /><path
     d="m 3.6843052,31.316328 c -0.1834841,0 -0.3446945,-0.134496 -0.3731961,-0.321535 -0.030287,-0.204858 0.1104608,-0.396352 0.3144108,-0.428418 0.073023,-0.01247 1.6566642,-0.311738 1.9960144,-2.854631 0.3322238,-2.48767 1.6005538,-7.008765 6.3719297,-9.341458 5.150805,-2.517954 12.311877,-5.28886 22.061266,-4.369678 7.19937,0.679589 13.451058,1.655777 16.482043,2.167026 C 46.237458,13.656806 33.709145,7.141477 14.127535,3.534221 13.922676,3.496821 13.787294,3.299081 13.824704,3.094224 13.862104,2.889368 14.058061,2.754875 14.263806,2.791392 38.916957,7.333864 52.491817,16.4767 52.62631,16.56844 c 0.146963,0.100634 0.203966,0.291252 0.135376,0.456028 -0.06771,0.164766 -0.240483,0.259188 -0.41862,0.226233 -0.08195,-0.01522 -8.287781,-1.548893 -18.359597,-2.49925 -9.563238,-0.899587 -16.597834,1.823225 -21.659571,4.296642 -4.4542934,2.177715 -5.6424609,6.425369 -5.9550915,8.763407 -0.4177287,3.134307 -2.5393292,3.487906 -2.6292892,3.501266 -0.017784,0.0027 -0.036521,0.0035 -0.055221,0.0035 z"
     id="path5"
     inkscape:connector-curvature="0"
     style="fill:#ffffff" /><path
     d="m 21.559372,52.385377 c -0.154095,0 -0.316191,-0.01173 -0.480074,-0.02673 -0.883558,-0.08551 -2.476986,-0.43465 -4.495267,-0.877319 -3.826364,-0.839022 -9.0671272,-1.98889 -13.5508137,-2.244516 -0.2075288,-0.01247 -0.3669608,-0.190609 -0.3553812,-0.399025 0.011734,-0.208419 0.1879245,-0.371416 0.3990246,-0.355381 4.5442502,0.259188 9.8188613,1.416183 13.6692733,2.261438 1.993344,0.437323 3.567176,0.782909 4.406198,0.863961 0.371414,0.03652 0.561128,0.02226 0.652868,0.0053 C 21.627949,51.163329 20.396144,49.9333 18.984415,48.523353 18.368955,47.908782 17.669769,47.209597 16.896659,46.420456 12.528761,41.957254 0.25340255,31.333217 0.13048766,31.226337 -0.02716417,31.090062 -0.04408621,30.851359 0.09130846,30.693709 0.22758314,30.536057 0.4662866,30.519135 0.62393475,30.655409 0.7477425,30.762295 13.046257,41.406815 17.436423,45.893174 c 0.770437,0.787361 1.46784,1.483873 2.08152,2.096661 2.481435,2.478764 3.316895,3.314222 3.004266,3.976889 -0.155874,0.32866 -0.527284,0.41862 -0.962826,0.41862 z"
     id="path7"
     inkscape:connector-curvature="0"
     style="fill:#ffffff" /><path
     d="m 73.98483,74.652389 c -0.0766,0 -0.154095,-0.02315 -0.221779,-0.07214 -0.168341,-0.122909 -0.205747,-0.358943 -0.08285,-0.527282 l 1.468732,-2.019174 0,-0.744608 c 0,-0.20842 0.169239,-0.377649 0.377649,-0.377649 l 0.757077,0 c -0.03652,-1.051895 0.01595,-3.66604 1.35918,-4.472107 1.122257,-0.673354 0.751734,-2.593661 0.699184,-2.836818 l -0.621695,-1.519501 -1.342255,1.554238 -0.282345,6.32116 c -0.0088,0.208419 -0.200405,0.376758 -0.393683,0.359834 -0.208418,-0.0088 -0.369632,-0.185259 -0.360725,-0.39368 l 0.28858,-6.452091 c 0.0035,-0.08461 0.03562,-0.165663 0.09174,-0.229795 l 1.830349,-2.118929 c 0.08551,-0.09887 0.217327,-0.146963 0.346473,-0.125586 0.129143,0.02138 0.238704,0.107766 0.288582,0.229795 l 0.866633,2.118929 c 0.0071,0.01778 0.01338,0.03562 0.01778,0.05434 0.02583,0.109544 0.623476,2.688072 -1.039424,3.686526 -1.02072,0.611898 -1.049221,3.219812 -0.973512,4.17284 0.0081,0.105107 -0.02761,0.208418 -0.09887,0.285907 -0.07125,0.0775 -0.171897,0.121131 -0.276999,0.121131 l -0.778456,0 0,0.488985 c 0,0.08015 -0.02495,0.157651 -0.07214,0.221777 l -1.540878,2.11893 c -0.07482,0.100652 -0.189721,0.154975 -0.306397,0.154975 z"
     id="path9"
     inkscape:connector-curvature="0"
     style="fill:#ffffff" /><path
     d="m 21.867549,52.359548 c -0.05612,0 -0.113119,-0.01247 -0.166543,-0.0392 -0.06147,-0.03027 -6.235658,-3.061269 -15.6314465,-6.193792 -0.1977312,-0.06591 -0.3046132,-0.279676 -0.2387016,-0.477405 0.06679,-0.197731 0.2778918,-0.306395 0.4774051,-0.238703 9.448338,3.149446 15.66529,6.2027 15.726749,6.232983 0.187035,0.09174 0.263639,0.318864 0.171897,0.505907 -0.06591,0.133598 -0.200404,0.210202 -0.339349,0.210202 z"
     id="path11"
     inkscape:connector-curvature="0"
     style="fill:#ffffff" /><path
     d="m 17.85325,50.551466 c -0.134497,0 -0.263641,-0.07126 -0.332222,-0.197731 l -3.823694,-7.052409 c -0.09887,-0.183482 -0.03117,-0.412386 0.152317,-0.511251 0.183484,-0.09975 0.413273,-0.03117 0.511249,0.152299 l 3.82369,7.052408 c 0.09887,0.183484 0.03117,0.412384 -0.152298,0.511251 -0.057,0.03027 -0.119353,0.04541 -0.179029,0.04541 z"
     id="path13"
     inkscape:connector-curvature="0"
     style="fill:#ffffff" /><path
     d="m 43.812137,38.130035 c -1.060801,0 -2.533097,-0.82566 -4.276157,-1.875775 l -0.47117,-0.285016 c -1.131166,-0.684932 -2.299737,-1.393025 -3.263455,-1.79205 -2.995358,-1.238937 -4.149681,-2.193745 -3.984015,-3.293737 0.29927,-1.996905 8.299363,-7.068439 9.899916,-8.06422 0.02761,-0.01705 0.0579,-0.03027 0.08817,-0.0401 L 58.731028,17.578453 57.433306,9.234558 c -0.01778,-0.114 0.01778,-0.230685 0.09709,-0.315299 0.07838,-0.08461 0.188832,-0.125586 0.307285,-0.119352 l 2.311316,0.192387 c 1.458044,0.122011 4.316237,0.475625 6.21962,0.718779 C 65.388871,9.09116 64.294224,8.277967 64.006535,7.5868 63.823051,7.145912 63.938825,6.831503 64.068885,6.645349 64.265732,6.363004 64.62289,6.203572 64.992522,6.113614 63.687675,5.351191 61.400409,4.058813 59.983336,3.514609 58.046996,2.772672 56.649516,3.488779 56.635265,3.495849 L 53.92849,4.733894 c -0.187037,0.08729 -0.413277,0.0035 -0.499673,-0.186148 -0.08729,-0.189722 -0.0035,-0.413276 0.186149,-0.500563 l 2.688075,-1.228247 c 0.04989,-0.02673 1.698527,-0.872867 3.95106,-0.0088 0.01876,0.0072 0.0374,0.0143 0.05612,0.02226 C 58.879788,2.195557 57.627491,1.720825 56.771545,1.55338 52.917571,0.800754 42.325598,1.55158 42.217825,1.55958 42.01386,1.58006 41.829489,1.417952 41.814349,1.210431 41.799129,1.002904 41.955958,0.822096 42.163495,0.806954 42.6026,0.774874 52.964779,0.041858 56.915835,0.813154 60.882037,1.587155 72.435054,8.37058 72.924928,8.65916 l 19.822096,10.391569 c 0.04811,0.02495 0.09084,0.06147 0.124706,0.105108 0.03384,0.04453 0.831894,1.120473 0.429309,3.570737 -0.488094,2.973093 -4.969107,3.006937 -5.159714,3.006937 l -16.622771,0 -1.918527,1.553346 c -0.05344,0.04275 -0.116676,0.07036 -0.184373,0.08015 l -12.218351,1.718195 c -0.543313,0.456921 -3.484341,2.89115 -6.239215,4.402635 -1.828569,1.002905 -3.273253,2.130507 -4.432918,3.036329 -0.728578,0.569146 -1.358289,1.060802 -1.933669,1.409056 -0.227122,0.134497 -0.487201,0.196848 -0.779344,0.196848 z m -1.737719,-14.64457 c -3.594786,2.240951 -9.320081,6.237435 -9.510686,7.510219 -0.0962,0.640399 1.090194,1.475858 3.527094,2.484108 1.017158,0.420401 2.21067,1.144524 3.365882,1.844599 l 0.46939,0.284127 c 1.319987,0.795379 3.530658,2.128725 4.273484,1.677153 0.537082,-0.3251 1.149869,-0.804285 1.859742,-1.35829 1.181932,-0.922745 2.652446,-2.070831 4.535345,-3.103131 2.917868,-1.600552 6.163508,-4.358098 6.196465,-4.385711 0.05434,-0.04631 0.121131,-0.0766 0.192385,-0.08639 l 12.222809,-1.719013 1.940793,-1.571161 c 0.06679,-0.05434 0.15052,-0.08373 0.237813,-0.08373 l 16.756372,0 c 0.0401,0 4.030332,-0.03296 4.414215,-2.374555 0.293033,-1.785816 -0.118473,-2.697872 -0.249391,-2.93212 L 72.557961,9.316519 c -0.08996,-0.05254 -5.401086,-3.171713 -10.059347,-5.45631 1.864195,0.970843 3.76936,2.130509 3.883367,2.199983 0.146963,0.08907 0.214653,0.267203 0.164765,0.431978 -0.05077,0.164765 -0.230686,0.275222 -0.376758,0.268096 -0.513922,-0.01778 -1.315534,0.07838 -1.481201,0.317082 -0.01338,0.01875 -0.04811,0.06771 0.01595,0.219997 0.31174,0.748173 2.419982,2.052129 3.675841,2.698763 0.163886,0.08373 0.243155,0.273439 0.187925,0.448904 -0.05522,0.175472 -0.230686,0.285018 -0.409713,0.26097 -0.0579,-0.0081 -5.79566,-0.771332 -8.071348,-0.961048 l -1.833021,-0.153196 1.274564,8.19337 c 0.02939,0.185259 -0.08283,0.363396 -0.261859,0.41862 l -17.192807,5.281734 z"
     id="path15"
     inkscape:connector-curvature="0"
     style="fill:#ffffff" /><path
     d="M 87.370867,24.479466 71.556835,23.611942 c -0.0944,-0.0053 -0.182586,-0.04541 -0.249391,-0.113119 L 57.536633,9.439432 c -0.145166,-0.148742 -0.143388,-0.388338 0.0062,-0.533519 0.148742,-0.146084 0.387445,-0.143388 0.533515,0.0053 l 13.668384,13.955184 15.647477,0.858615 c 0.01778,-8.9e-4 3.854866,-0.02316 4.940605,-1.738607 0.399916,-0.630604 0.365179,-1.451811 -0.102412,-2.442247 -0.08905,-0.188814 -0.0081,-0.413275 0.180826,-0.502344 0.189721,-0.08907 0.414164,-0.0081 0.503233,0.180825 0.585177,1.239827 0.603882,2.305974 0.05612,3.169931 -1.309302,2.062817 -5.425137,2.086866 -5.599711,2.086866 z"
     id="path17"
     inkscape:connector-curvature="0"
     style="fill:#ffffff" /><path
     d="m 69.651669,25.346096 c -0.07392,0 -0.147861,-0.02138 -0.211982,-0.06501 L 58.943018,18.154743 c -0.172795,-0.117574 -0.217326,-0.351819 -0.100652,-0.52461 0.115778,-0.171897 0.35093,-0.217327 0.523722,-0.100653 l 10.251734,6.959779 1.705652,-1.535533 c 0.154975,-0.139849 0.392789,-0.127364 0.533517,0.02761 0.13985,0.154975 0.126484,0.393682 -0.02761,0.533517 l -1.92654,1.733265 c -0.07036,0.06501 -0.160329,0.09797 -0.251172,0.09797 z"
     id="path19"
     inkscape:connector-curvature="0"
     style="fill:#ffffff" /><path
     d="m 69.651669,25.346096 c -0.0081,0 -0.01705,0 -0.02583,-8.89e-4 l -27.7349,-1.829458 c -0.207528,-0.01338 -0.365178,-0.193274 -0.351819,-0.401698 0.01338,-0.20842 0.186148,-0.36607 0.401696,-0.351819 L 69.67572,24.59169 c 0.207529,0.01338 0.365179,0.193274 0.351819,0.401698 -0.01247,0.199513 -0.178131,0.352708 -0.375868,0.352708 z"
     id="path21"
     inkscape:connector-curvature="0"
     style="fill:#ffffff" /><path
     d="m 44.395533,34.976135 c -0.05165,0 -0.102449,-0.01063 -0.151418,-0.03205 l -8.352802,-3.659806 c -0.122011,-0.05343 -0.207529,-0.168341 -0.22356,-0.30105 -0.01595,-0.132718 0.04008,-0.264532 0.146083,-0.344694 l 6.452091,-4.911211 c 0.105987,-0.07928 0.244938,-0.09887 0.36696,-0.05077 l 9.051987,3.562722 c 0.129143,0.05077 0.219998,0.169239 0.23692,0.306395 0.01595,0.138053 -0.04453,0.27433 -0.158532,0.3536 l -7.151275,5.008295 c -0.06501,0.04541 -0.13985,0.06859 -0.216435,0.06859 z m -7.61354,-4.125631 7.570786,3.316893 6.401322,-4.482796 -8.200496,-3.227825 -5.771612,4.393728 z"
     id="path23"
     inkscape:connector-curvature="0"
     style="fill:#ffffff" /><path
     d="m 5.5173253,18.219762 c -0.073023,0 -0.1469632,-0.02138 -0.211982,-0.06501 -0.1692388,-0.115778 -0.2164371,-0.345584 -0.104209,-0.517485 0.211982,-0.32777 5.2318567,-8.056206 7.3107047,-10.44323 0.137155,-0.156753 0.375868,-0.173675 0.532629,-0.03652 0.157651,0.137154 0.173675,0.374976 0.03652,0.532626 -0.313519,0.359834 -0.700073,0.85149 -1.130273,1.425089 C 12.823583,8.399125 13.857662,7.944879 15.867929,7.552977 18.91762,6.958003 19.558019,6.56165 19.682716,6.394204 19.647976,6.353224 19.552675,6.265061 19.309518,6.14303 17.308158,5.141905 15.552628,4.443614 14.32705,6.035264 14.200566,6.20003 13.963653,6.232112 13.797986,6.103854 13.633221,5.976489 13.602028,5.739564 13.729396,5.57479 c 1.704762,-2.214232 4.23964,-0.946795 5.917682,-0.107766 0.216436,0.108664 0.877321,0.439104 0.798943,1.014483 -0.09798,0.717891 -1.258533,1.192623 -4.433809,1.812536 -2.845726,0.555785 -3.486126,1.145417 -4.918339,2.768235 -1.4152933,1.604116 -5.230968,6.945526 -5.2692672,6.999858 -0.073922,0.102413 -0.1897212,0.157652 -0.3072845,0.157652 z"
     id="path25"
     inkscape:connector-curvature="0"
     style="fill:#ffffff" /><path
     d="m 52.413439,17.256046 c -0.04811,0 -0.0962,-0.0088 -0.143389,-0.02851 C 32.292077,9.012797 26.178446,9.339677 22.528439,9.534737 l -0.304615,0.01595 c -3.576972,0.185261 -7.497749,2.89115 -7.537829,2.917872 -0.171897,0.120251 -0.406151,0.0775 -0.525503,-0.09352 -0.119353,-0.171017 -0.0775,-0.406149 0.09352,-0.525501 0.167442,-0.116676 4.139884,-2.856412 7.92973,-3.053252 l 0.302831,-0.01595 c 3.715028,-0.198622 9.933761,-0.531737 30.069376,7.748031 0.192385,0.07928 0.285018,0.300158 0.205748,0.492545 -0.05878,0.147861 -0.199513,0.235141 -0.348257,0.235141 z"
     id="path27"
     inkscape:connector-curvature="0"
     style="fill:#ffffff" /><path
     d="m 77.837024,61.748212 c -0.08016,0 -0.161227,-0.02583 -0.229795,-0.07838 -0.164765,-0.127365 -0.195958,-0.364286 -0.06859,-0.529063 l 2.448481,-3.174386 -2.435121,-4.419557 c -0.232468,-0.140729 -1.068816,-0.560238 -1.972857,0.04899 -0.304613,0.204856 -0.632384,0.544206 -0.979749,0.903149 -1.039424,1.075052 -2.461842,2.548238 -4.993156,2.240063 -3.364095,-0.40793 -11.235041,-4.458746 -15.35622,-6.786984 -4.432918,-2.505485 -13.849191,-12.993248 -14.247326,-13.438589 -0.138934,-0.154975 -0.125587,-0.39368 0.02939,-0.532626 0.154975,-0.138951 0.393682,-0.126484 0.532626,0.02939 0.09709,0.107766 9.732467,10.839583 14.056722,13.284501 5.280845,2.984671 12.250421,6.352335 15.074769,6.695245 2.163461,0.261859 3.328472,-0.948575 4.35988,-2.014718 0.375867,-0.388336 0.730358,-0.755299 1.100881,-1.004689 1.488327,-1.002905 2.846615,-0.03296 2.90362,0.0088 0.04453,0.03205 0.08103,0.07392 0.107766,0.122011 l 2.599898,4.718826 c 0.07214,0.131801 0.05966,0.293923 -0.03207,0.412385 l -2.59989,3.370333 c -0.07482,0.0944 -0.186148,0.145167 -0.299269,0.145167 z"
     id="path29"
     inkscape:connector-curvature="0"
     style="fill:#ffffff" /><path
     d="m 70.806884,58.376986 c -4.049036,0 -8.820412,-4.349194 -9.021705,-4.534456 -0.153197,-0.14073 -0.162987,-0.380321 -0.02226,-0.533516 0.140729,-0.153215 0.38032,-0.162987 0.533517,-0.02226 0.04721,0.04363 4.757125,4.334941 8.510454,4.334941 2.207104,0 3.039001,-0.987763 4.090893,-2.238278 0.69117,-0.822098 1.475859,-1.752859 2.762002,-2.436904 0.184373,-0.09798 0.412385,-0.02761 0.51036,0.155873 0.09798,0.184374 0.02761,0.413276 -0.155873,0.51036 -1.156995,0.614571 -1.859742,1.449138 -2.53844,2.256095 -1.084848,1.290597 -2.110023,2.508157 -4.668946,2.508157 z"
     id="path31"
     inkscape:connector-curvature="0"
     style="fill:#ffffff" /><path
     d="m 76.402138,53.281402 c -0.01522,0 -0.02939,-8.91e-4 -0.04453,-0.0027 -0.206638,-0.02404 -0.35449,-0.211982 -0.330442,-0.41862 0.0081,-0.06413 0.748173,-6.507313 -8.91e-4,-13.792188 -0.747281,-7.278641 -3.045236,-13.519641 -3.068395,-13.581988 -0.07302,-0.195051 0.02673,-0.412385 0.22178,-0.485421 0.197733,-0.07126 0.413277,0.02673 0.485422,0.22178 0.02315,0.06323 2.354069,6.389741 3.112039,13.768139 0.757077,7.371273 0.0071,13.892837 -8.93e-4,13.957856 -0.02226,0.191496 -0.185261,0.333115 -0.374086,0.333115 z"
     id="path33"
     inkscape:connector-curvature="0"
     style="fill:#ffffff" /><path
     d="m 54.197471,31.316328 c -0.179029,0 -0.338457,-0.128263 -0.371412,-0.310847 -0.03652,-0.204857 0.09975,-0.401698 0.304611,-0.438215 l 19.787358,-3.552033 c 0.206639,-0.03474 0.401699,0.09975 0.438216,0.304613 0.03652,0.204856 -0.09975,0.401696 -0.304613,0.438213 l -19.787359,3.552034 c -0.02226,0.0046 -0.04453,0.0062 -0.06679,0.0062 z"
     id="path35"
     inkscape:connector-curvature="0"
     style="fill:#ffffff" /><path
     d="m 70.491582,55.291667 c -1.133835,0 -2.235609,-0.496109 -3.478108,-1.056346 L 66.513802,54.011759 C 63.889857,52.844969 56.718098,49.281356 54.020226,47.836672 51.202112,46.326967 51.170048,42.83639 51.170048,42.688538 l 0,-9.980076 c 0,-0.208418 0.169239,-0.377648 0.377649,-0.377648 0.208418,0 0.377648,0.169239 0.377648,0.377648 l 0,9.979184 c 0,0.03117 0.0374,3.188637 2.452042,4.482796 2.626618,1.406385 9.884773,5.013642 12.4437,6.151039 l 0.503233,0.225344 c 2.28905,1.032299 3.672278,1.653995 5.738655,-0.163885 2.393261,-2.106459 3.269689,-2.451154 3.36232,-2.483219 0.196846,-0.06949 0.411495,0.03474 0.480967,0.230688 0.06859,0.196845 -0.03474,0.412384 -0.231577,0.480967 -0.0027,8.91e-4 -0.83902,0.335786 -3.113819,2.337145 -1.117804,0.984203 -2.105569,1.343146 -3.069284,1.343146 z"
     id="path37"
     inkscape:connector-curvature="0"
     style="fill:#ffffff" /><path
     d="m 71.577321,55.114422 c -0.05522,0 -0.112239,-0.01247 -0.165664,-0.0383 L 51.962761,45.552975 c -0.187038,-0.09174 -0.264534,-0.317975 -0.172796,-0.505017 0.09264,-0.187037 0.317084,-0.265422 0.505018,-0.173676 l 19.4489,9.523157 c 0.187037,0.09174 0.264532,0.317973 0.172795,0.505016 -0.06591,0.134496 -0.199511,0.211982 -0.339348,0.211982 z"
     id="path39"
     inkscape:connector-curvature="0"
     style="fill:#ffffff" /><path
     d="m 43.276836,33.086109 c -1.621929,0 -2.941027,-1.319097 -2.941027,-2.941916 0,-1.621929 1.319098,-2.941918 2.941027,-2.941918 1.621931,0 2.941918,1.319098 2.941918,2.941918 0,1.622818 -1.319987,2.941916 -2.941918,2.941916 z m 0,-5.127646 c -1.205982,0 -2.186619,0.980639 -2.186619,2.186621 0,1.205981 0.980637,2.186621 2.186619,2.186621 1.205982,0 2.186621,-0.98064 2.186621,-2.186621 0,-1.205982 -0.980639,-2.186621 -2.186621,-2.186621 z"
     id="path41"
     inkscape:connector-curvature="0"
     style="fill:#ffffff" /><path
     d="m 43.276836,30.99123 c -0.466715,0 -0.847035,-0.38032 -0.847035,-0.847037 0,-0.467607 0.38032,-0.847037 0.847035,-0.847037 0.467608,0 0.847037,0.380321 0.847037,0.847037 0,0.467608 -0.379429,0.847037 -0.847037,0.847037 z m 0,-0.938777 c -0.05077,0 -0.09174,0.04098 -0.09174,0.09174 -8.89e-4,0.101532 0.183484,0.100652 0.184371,0 0,-0.05077 -0.04185,-0.09174 -0.09262,-0.09174 z"
     id="path43"
     inkscape:connector-curvature="0"
     style="fill:#ffffff" /><path
     d="m 42.807448,30.209212 c -0.106885,0 -0.213764,-0.04541 -0.28858,-0.134496 l -1.300394,-1.54266 c -0.134496,-0.15943 -0.113999,-0.397242 0.04541,-0.531735 0.15943,-0.133598 0.397244,-0.113999 0.531737,0.04541 l 1.300394,1.542659 c 0.134496,0.159431 0.113999,0.397245 -0.04541,0.531738 -0.07036,0.05966 -0.156753,0.08905 -0.243155,0.08905 z"
     id="path45"
     inkscape:connector-curvature="0"
     style="fill:#ffffff" /><path
     d="m 43.746226,30.521841 c -0.172796,0 -0.328662,-0.119353 -0.367852,-0.294816 -0.04541,-0.203074 0.08195,-0.405258 0.285909,-0.450684 l 1.921198,-0.430197 c 0.204856,-0.04453 0.40526,0.08195 0.450684,0.285907 0.04541,0.203076 -0.08193,0.40526 -0.285908,0.450684 l -1.9212,0.430201 c -0.02761,0.0062 -0.05522,0.0088 -0.08283,0.0088 z"
     id="path47"
     inkscape:connector-curvature="0"
     style="fill:#ffffff" /><path
     d="m 43.891407,34.614518 c -0.115778,0 -0.229795,-0.05254 -0.303722,-0.152298 -0.124706,-0.167461 -0.08907,-0.404369 0.07838,-0.528173 l 6.748685,-5.003842 c 0.16746,-0.124707 0.403479,-0.08908 0.528176,0.07838 0.124707,0.167443 0.08905,0.404369 -0.07838,0.528174 l -6.748686,5.003844 c -0.06771,0.04989 -0.146065,0.07392 -0.224451,0.07392 z"
     id="path49"
     inkscape:connector-curvature="0"
     style="fill:#ffffff" /><path
     d="m 76.006675,63.866249 c -0.0775,0 -0.154975,-0.02316 -0.221779,-0.07214 l -4.261014,-3.105807 c -0.0962,-0.06949 -0.153197,-0.180789 -0.154976,-0.298378 -0.0018,-0.118472 0.05165,-0.230684 0.145167,-0.30372 l 6.993623,-5.463436 c 0.164765,-0.130041 0.401698,-0.09887 0.529955,0.06501 0.128263,0.164766 0.09887,0.401696 -0.06501,0.529954 l -6.599943,5.156151 3.856647,2.810988 c 0.16834,0.122909 0.205745,0.358943 0.08283,0.527282 -0.07392,0.100652 -0.188832,0.154095 -0.305503,0.154095 z"
     id="path51"
     inkscape:connector-curvature="0"
     style="fill:#ffffff" /><path
     d="m 72.654153,73.795556 c -0.196846,0 -0.362506,-0.152298 -0.375867,-0.350927 L 71.369792,60.409518 c -0.01522,-0.207527 0.141628,-0.388338 0.350037,-0.402587 0.211984,-0.01778 0.388338,0.141609 0.402589,0.350037 l 0.908493,13.035111 c 0.01522,0.207528 -0.14161,0.388336 -0.350037,0.402586 -0.0088,8.91e-4 -0.01778,8.91e-4 -0.02673,8.91e-4 z"
     id="path53"
     inkscape:connector-curvature="0"
     style="fill:#ffffff" /><path
     d="m 69.93847,69.644985 c -0.120251,0 -0.236031,-0.057 -0.309067,-0.160329 L 61.543804,58.001122 c -0.105107,-0.14964 -0.08817,-0.35271 0.0401,-0.482749 0.129143,-0.130041 0.331333,-0.148742 0.481858,-0.04541 l 6.786986,4.658261 c 0.08195,0.05612 0.138951,0.142508 0.156753,0.240482 l 1.282579,6.74245 c 0.02138,0.04633 0.03207,0.09887 0.03207,0.153197 0,0.20842 -0.168341,0.377648 -0.37765,0.377648 -8.89e-4,-8.9e-4 -0.0046,-8.9e-4 -0.0081,0 z m -6.567879,-10.362178 5.870474,8.338551 -0.942339,-4.955745 -4.928135,-3.382806 z"
     id="path55"
     inkscape:connector-curvature="0"
     style="fill:#ffffff" /><path
     d="m 66.21008,64.348107 c -0.125586,0 -0.248499,-0.06235 -0.319755,-0.176352 -0.111341,-0.176352 -0.0579,-0.409715 0.118473,-0.520158 l 2.430659,-1.528405 c 0.177251,-0.11134 0.409715,-0.0579 0.520158,0.118473 0.111341,0.176352 0.0579,0.409711 -0.118473,0.520158 l -2.430661,1.528403 c -0.06235,0.0392 -0.131838,0.0579 -0.200403,0.0579 z"
     id="path57"
     inkscape:connector-curvature="0"
     style="fill:#ffffff" /><path
     d="m 60.741301,67.438769 c -0.100652,0 -0.201293,-0.0401 -0.276109,-0.120251 -0.06235,-0.06591 -6.317598,-6.707716 -17.883976,-14.007733 -1.778689,-1.123148 -3.356976,-2.117149 -4.755345,-2.998032 9.828661,7.48617 14.798659,12.68151 14.861006,12.748313 0.143407,0.1514 0.137155,0.390118 -0.01338,0.533517 -0.152317,0.142508 -0.390119,0.138053 -0.53352,-0.0143 -0.08016,-0.08461 -8.207624,-8.578146 -24.303112,-19.521938 -0.169239,-0.114898 -0.215545,-0.344693 -0.105108,-0.516594 0.111341,-0.171897 0.339349,-0.223561 0.513923,-0.117574 0.03027,0.01875 3.121836,1.915854 14.738091,9.247936 11.655446,7.356131 17.970371,14.063846 18.032718,14.130647 0.142508,0.152299 0.134496,0.391009 -0.01778,0.533519 -0.07214,0.06859 -0.164765,0.102413 -0.257405,0.102413 z"
     id="path59"
     inkscape:connector-curvature="0"
     style="fill:#ffffff" /><path
     d="m 64.769849,6.957997 c -0.057,0 -0.114897,-0.01338 -0.169239,-0.04098 L 57.258731,3.205551 c -0.186148,-0.0944 -0.260968,-0.321535 -0.166544,-0.507688 0.09352,-0.186148 0.320646,-0.260079 0.506796,-0.166544 l 7.341882,3.71146 c 0.186149,0.0944 0.260971,0.321537 0.166543,0.507689 -0.06679,0.131801 -0.199513,0.207529 -0.337568,0.207529 z"
     id="path61"
     inkscape:connector-curvature="0"
     style="fill:#ffffff" /><path
     d="m 67.340353,15.836301 c -0.09709,0 -0.190608,-0.0374 -0.261861,-0.105987 l -2.570504,-2.475202 c -0.108664,-0.105107 -0.144286,-0.264534 -0.09084,-0.406151 0.05434,-0.14161 0.187035,-0.23692 0.338457,-0.243155 l 6.807472,-0.269878 c 0.16746,-0.0027 0.323317,0.100652 0.374976,0.262752 l 0.622584,1.949701 c 0.03384,0.104209 0.01954,0.218216 -0.0374,0.311736 -0.0579,0.09352 -0.153216,0.157652 -0.26097,0.175473 l -4.860445,0.794487 c -0.02048,0.0046 -0.04186,0.0062 -0.06146,0.0062 z m -1.670915,-2.510828 1.796503,1.729701 4.241419,-0.693841 -0.402589,-1.259421 -5.635333,0.223561 z"
     id="path63"
     inkscape:connector-curvature="0"
     style="fill:#ffffff" /><path
     d="m 70.938703,15.247561 c -0.135376,0 -0.266314,-0.07302 -0.334006,-0.200405 l -0.999342,-1.886459 c -0.0971,-0.184373 -0.02673,-0.412384 0.157652,-0.51036 0.183484,-0.09887 0.413275,-0.02673 0.510359,0.156753 l 0.999343,1.886462 c 0.0971,0.184373 0.02673,0.412384 -0.157652,0.51036 -0.05612,0.03029 -0.116675,0.04363 -0.176352,0.04363 z"
     id="path65"
     inkscape:connector-curvature="0"
     style="fill:#ffffff" /><path
     d="m 89.947607,19.672462 c -0.04811,0 -0.0971,-0.0088 -0.144287,-0.02851 L 68.063594,10.679259 c -0.192387,-0.07927 -0.28502,-0.300158 -0.20486,-0.493436 0.07927,-0.192387 0.301051,-0.284129 0.49344,-0.204857 l 5.374365,2.216013 -9.529392,-4.413321 C 64.008315,7.695488 63.925491,7.471918 64.013665,7.282202 64.101835,7.092483 64.327183,7.011437 64.515117,7.09872 l 25.591924,11.853177 c 0.186148,0.08639 0.268987,0.305503 0.187037,0.494325 -0.06235,0.141629 -0.201296,0.226235 -0.346477,0.226235 z"
     id="path67"
     inkscape:connector-curvature="0"
     style="fill:#ffffff" /><path
     d="m 84.096727,18.219762 c -0.03205,0 -0.06501,-0.0046 -0.09709,-0.01247 l -11.895931,-3.17795 c -0.201294,-0.05342 -0.320645,-0.260968 -0.267205,-0.462261 0.05434,-0.201294 0.260971,-0.319755 0.462265,-0.267205 l 6.193791,1.654884 -7.056859,-2.890258 c -0.193275,-0.07926 -0.28502,-0.299269 -0.20664,-0.492547 0.07928,-0.193274 0.30016,-0.285018 0.492547,-0.206637 l 12.519412,5.127613 c 0.184373,0.07572 0.277894,0.280565 0.214655,0.469388 -0.05434,0.156753 -0.200404,0.257407 -0.358943,0.257407 z"
     id="path69"
     inkscape:connector-curvature="0"
     style="fill:#ffffff" /><path
     d="m 63.399092,40.11358 c -0.0953,0 -0.189721,-0.03562 -0.262751,-0.106885 -0.14964,-0.145185 -0.153216,-0.384776 -0.0081,-0.53352 l 8.8596,-9.12235 c 0.146065,-0.14964 0.384773,-0.152316 0.533517,-0.0081 0.14964,0.145166 0.153197,0.384775 0.0081,0.533519 l -8.8596,9.12235 c -0.07482,0.0766 -0.172796,0.114897 -0.270767,0.114897 z"
     id="path71"
     inkscape:connector-curvature="0"
     style="fill:#ffffff" /><path
     d="m 62.591244,44.040592 c -0.0953,0 -0.18972,-0.03562 -0.262749,-0.106886 -0.149639,-0.145166 -0.153215,-0.384772 -0.0081,-0.533515 l 8.860489,-9.122352 c 0.146083,-0.14964 0.385666,-0.152298 0.533519,-0.0081 0.14964,0.145167 0.153178,0.384774 0.0081,0.533517 l -8.86049,9.122351 c -0.07392,0.0766 -0.171897,0.114897 -0.270768,0.114897 z"
     id="path73"
     inkscape:connector-curvature="0"
     style="fill:#ffffff" /></svg>