<?xml version="1.0" encoding="UTF-8" standalone="no"?>
<svg
   xmlns:dc="http://purl.org/dc/elements/1.1/"
   xmlns:cc="http://creativecommons.org/ns#"
   xmlns:rdf="http://www.w3.org/1999/02/22-rdf-syntax-ns#"
   xmlns:svg="http://www.w3.org/2000/svg"
   xmlns="http://www.w3.org/2000/svg"
   xmlns:sodipodi="http://sodipodi.sourceforge.net/DTD/sodipodi-0.dtd"
   xmlns:inkscape="http://www.inkscape.org/namespaces/inkscape"
   height="40"
   id="Layer_1"
   version="1.1"
   viewBox="0 0 40 40"
   width="40"
   xml:space="preserve"
   inkscape:version="0.91 r13725"
   sodipodi:docname="facebook.svg"><metadata
     id="metadata9"><rdf:RDF><cc:Work
         rdf:about=""><dc:format>image/svg+xml</dc:format><dc:type
           rdf:resource="http://purl.org/dc/dcmitype/StillImage" /><dc:title></dc:title></cc:Work></rdf:RDF></metadata><defs
     id="defs7" /><sodipodi:namedview
     pagecolor="#ffffff"
     bordercolor="#666666"
     borderopacity="1"
     objecttolerance="10"
     gridtolerance="10"
     guidetolerance="10"
     inkscape:pageopacity="0"
     inkscape:pageshadow="2"
     inkscape:window-width="1440"
     inkscape:window-height="838"
     id="namedview5"
     showgrid="false"
     fit-margin-top="0"
     fit-margin-left="0"
     fit-margin-right="0"
     fit-margin-bottom="0"
     inkscape:zoom="3.5223881"
     inkscape:cx="29.5"
     inkscape:cy="30.5"
     inkscape:window-x="-8"
     inkscape:window-y="-8"
     inkscape:window-maximized="1"
     inkscape:current-layer="Layer_1" /><path
     d="m 17.176666,30.88 4.496,0 0,-10.881333 2.999334,0 0.397334,-3.749334 -3.396668,0 0.0047,-1.877333 c 0,-0.977333 0.09333,-1.502 1.496,-1.502 l 1.874666,0 0,-3.75 -3,0 c -3.603334,0 -4.871334,1.819333 -4.871334,4.878 l 0,2.251333 -2.246,0 0,3.75 2.246,0 0,10.880667 z M 20,40 C 8.954666,40 0,31.045333 0,20 0,8.954 8.954666,0 20,0 31.045334,0 40,8.954 40,20 40,31.045333 31.045334,40 20,40 Z"
     style="clip-rule:evenodd;fill:#ffffff;fill-rule:evenodd"
     id="path3"
     inkscape:connector-curvature="0" /></svg>