<?xml version="1.0" encoding="UTF-8" standalone="no"?>
<!-- Generator: Adobe Illustrator 17.0.0, SVG Export Plug-In . SVG Version: 6.00 Build 0)  -->

<svg
   xmlns:dc="http://purl.org/dc/elements/1.1/"
   xmlns:cc="http://creativecommons.org/ns#"
   xmlns:rdf="http://www.w3.org/1999/02/22-rdf-syntax-ns#"
   xmlns:svg="http://www.w3.org/2000/svg"
   xmlns="http://www.w3.org/2000/svg"
   xmlns:sodipodi="http://sodipodi.sourceforge.net/DTD/sodipodi-0.dtd"
   xmlns:inkscape="http://www.inkscape.org/namespaces/inkscape"
   version="1.1"
   id="Слой_1"
   x="0px"
   y="0px"
   width="253.343"
   height="67.215431"
   viewBox="-42.5 0 253.343 67.215431"
   enable-background="new -42.5 0 272 147"
   xml:space="preserve"
   inkscape:version="0.91 r13725"
   sodipodi:docname="gbo.svg"><metadata
     id="metadata297"><rdf:RDF><cc:Work
         rdf:about=""><dc:format>image/svg+xml</dc:format><dc:type
           rdf:resource="http://purl.org/dc/dcmitype/StillImage" /><dc:title></dc:title></cc:Work></rdf:RDF></metadata><defs
     id="defs295" /><sodipodi:namedview
     pagecolor="#ffffff"
     bordercolor="#666666"
     borderopacity="1"
     objecttolerance="10"
     gridtolerance="10"
     guidetolerance="10"
     inkscape:pageopacity="0"
     inkscape:pageshadow="2"
     inkscape:window-width="712"
     inkscape:window-height="480"
     id="namedview293"
     showgrid="false"
     fit-margin-top="0"
     fit-margin-left="0"
     fit-margin-right="0"
     fit-margin-bottom="0"
     inkscape:zoom="1.5073529"
     inkscape:cx="126.81"
     inkscape:cy="29.858"
     inkscape:window-x="0"
     inkscape:window-y="0"
     inkscape:window-maximized="0"
     inkscape:current-layer="Слой_1" /><path
     d="m -20.334,53.606434 c -1.242,0 -2.613,-0.22 -2.826,-0.256 -0.129,-0.022 -0.24,-0.102 -0.301,-0.217 l -1.417,-2.672 c -0.019,-0.035 -0.032,-0.071 -0.04,-0.11 -0.083,-0.393 0.022,-1.258 1.018,-1.722 0.742,-0.346 1.322,-0.57 1.563,-0.66 -0.034,-0.039 -0.097,-0.099 -0.215,-0.177 -0.445,-0.294 -1.606,0.51 -2.246,1.149 -0.12,0.119 -0.301,0.155 -0.457,0.09 -0.157,-0.065 -0.259,-0.217 -0.259,-0.387 l 0,-1.202 c 0,-0.154 0.082,-0.288 0.206,-0.361 -0.135,-0.08 -0.216,-0.229 -0.205,-0.389 l 0.364,-5.405 c 0.011,-0.164 0.117,-0.307 0.271,-0.364 0.039,-0.014 3.934,-1.484 9.493,-4.294 4.031,-2.038 8.5459996,-4.852 10.7479996,-6.262 -1.511,0.111 -3.895,0.301 -6.3249996,0.555 -0.986,0.103 -1.967,0.291 -2.884,0.514 -0.03,0.013 -0.047,0.02 -0.05,0.022 -0.058,0.026 -0.106,0.036 -0.181,0.036 -2.643,0.67 -4.701,1.614 -4.729,1.627 -0.168,0.077 -0.366,0.037 -0.489,-0.101 -0.123,-0.138 -0.141,-0.34 -0.045,-0.497 0.063,-0.104 1.681,-2.589 12.5659996,-6.481 l 1.515,-0.542 c 9.786,-3.502 13.836,-4.952 18.4140004,-5.069 4.642,-0.119 7.257,-0.596 7.283,-0.6 0.216,-0.042 0.434,0.099 0.484,0.318 0.051,0.219 -0.08,0.438 -0.296,0.498 0,0 -8.321,2.308 -17.4320004,4.798 -5.37,1.468 -10.404,3.32 -13.5989996,4.579 3.7929996,-0.381 7.2919996,-0.602 7.3289996,-0.604 0.195,-0.01 0.363,0.105 0.423,0.285 0.061,0.18 -0.008,0.378 -0.165,0.483 -0.065,0.043 -6.584,4.358 -12.1899996,7.191 -4.796,2.424 -8.369,3.86 -9.324,4.233 l -0.277,4.103 c 0.579,-0.446 1.41,-0.931 2.286,-0.931 1.682,0 2.466,1.165 3.185,3.044 0.683,1.783 1.333,3.592 1.339,3.61 0.021,0.057 0.221,0.625 -0.051,1.19 -0.182,0.378 -0.52,0.65 -1.005,0.806 -0.389,0.127 -0.921,0.172 -1.479,0.172 z m -2.485,-1.051 c 0.912,0.136 2.876,0.351 3.707,0.083 0.255,-0.083 0.425,-0.206 0.505,-0.368 0.123,-0.249 0.021,-0.543 0.021,-0.546 -0.008,-0.02 -0.655,-1.821 -1.334,-3.596 -0.717,-1.874 -1.323,-2.506 -2.402,-2.506 -1.009,0 -2.119,0.995 -2.461,1.378 -0.029,0.033 -0.063,0.06 -0.099,0.082 0.123,0.073 0.206,0.207 0.206,0.361 l 0,0.28 c 0.717,-0.551 1.792,-1.156 2.586,-0.63 0.421,0.278 0.631,0.588 0.624,0.922 -0.006,0.318 -0.217,0.556 -0.395,0.664 -0.025,0.015 -0.05,0.027 -0.077,0.036 -0.007,0.002 -0.684,0.243 -1.608,0.673 -0.525,0.245 -0.564,0.602 -0.555,0.746 l 1.282,2.421 z m 38.408,-31.385 c -0.729,0.042 -1.534,0.077 -2.413,0.099 -4.4430004,0.114 -8.4570004,1.551 -18.1540004,5.021 l -1.515,0.542 c -5.3379996,1.908 -8.3849996,3.462 -10.0909996,4.528 0.729,-0.246 1.574,-0.503 2.485,-0.726 1.102,-0.477 8.6799996,-3.703 17.0719996,-5.997 4.788,-1.309 9.3580004,-2.568 12.6160004,-3.467 z"
     id="path3"
     inkscape:connector-curvature="0"
     style="fill:#4e4e4e" /><path
     d="m -24.732,41.736434 c -0.08,0 -0.161,-0.023 -0.233,-0.071 -0.192,-0.129 -0.243,-0.389 -0.115,-0.581 l 5.748,-8.575 c 0.128,-0.192 0.388,-0.244 0.582,-0.115 0.192,0.129 0.243,0.389 0.115,0.581 l -5.748,8.575 c -0.081,0.121 -0.214,0.186 -0.349,0.186 z"
     id="path5"
     inkscape:connector-curvature="0"
     style="fill:#4e4e4e" /><path
     d="m -23.725,41.338434 c -0.099,0 -0.198,-0.035 -0.277,-0.104 -0.161,-0.141 -0.189,-0.381 -0.066,-0.556 l 6.151,-8.733 c 0.133,-0.189 0.394,-0.236 0.584,-0.101 0.189,0.133 0.235,0.395 0.101,0.584 l -4.501,6.391 c 1.559,-1.099 3.78,-2.433 6.23,-3.185 4.144,-1.273 4.636,-1.468 4.678,-1.486 0.201,-0.116 0.439,-0.037 0.555,0.163 0.115,0.201 0.028,0.466 -0.172,0.581 -0.207,0.119 -3.106,1.018 -4.814,1.542 -4.385,1.347 -8.148,4.76 -8.186,4.794 -0.08,0.073 -0.181,0.11 -0.283,0.11 z"
     id="path7"
     inkscape:connector-curvature="0"
     style="fill:#4e4e4e" /><path
     d="m -16.687,36.917434 c -0.058,0 -0.118,-0.012 -0.175,-0.038 -0.21,-0.096 -0.303,-0.345 -0.206,-0.555 l 2.159,-4.716 c 0.068,-0.149 0.217,-0.245 0.381,-0.245 l 3.28,0 c 0.15,0 0.289,0.08 0.363,0.21 0.075,0.13 0.074,0.29 -10e-4,0.42 l -2.112,3.627 c -0.116,0.2 -0.373,0.269 -0.573,0.151 -0.2,-0.116 -0.268,-0.373 -0.152,-0.573 l 1.745,-2.997 -2.282,0 -2.047,4.471 c -0.07,0.154 -0.222,0.245 -0.38,0.245 z"
     id="path9"
     inkscape:connector-curvature="0"
     style="fill:#4e4e4e" /><path
     d="m -9.4070004,34.220434 c -0.011,0 -0.023,-10e-4 -0.034,-10e-4 -0.177,-0.014 -0.326,-0.14 -0.371,-0.312 l -0.6459996,-2.478 -0.68,0.994 c -0.131,0.19 -0.391,0.24 -0.583,0.109 -0.191,-0.131 -0.24,-0.391 -0.109,-0.582 l 1.199,-1.752 c 0.093,-0.135 0.258,-0.205 0.418,-0.176 0.161,0.028 0.2919996,0.148 0.3329996,0.307 l 0.576,2.21 1.012,-2.275 c 0.062,-0.139 0.195,-0.234 0.347,-0.247 0.148,-0.016 0.3,0.058 0.384,0.184 l 1.172,1.752 c 0.129,0.192 0.077,0.453 -0.115,0.581 -0.192,0.128 -0.452,0.077 -0.581,-0.115 l -0.75,-1.121 -1.189,2.674 c -0.068,0.152 -0.218,0.248 -0.383,0.248 z"
     id="path11"
     inkscape:connector-curvature="0"
     style="fill:#4e4e4e" /><path
     d="m -2.0170004,38.816434 c -0.075,0 -0.152,-0.02 -0.221,-0.063 l -7.391,-4.596 c -0.196,-0.122 -0.256,-0.381 -0.134,-0.577 0.122,-0.196 0.379,-0.257 0.577,-0.134 l 7.391,4.596 c 0.196,0.122 0.256,0.381 0.134,0.577 -0.079,0.127 -0.216,0.197 -0.356,0.197 z"
     id="path13"
     inkscape:connector-curvature="0"
     style="fill:#4e4e4e" /><path
     d="m 10.085,67.215434 c -8.4450004,0 -15.3160004,-6.871 -15.3160004,-15.316 0,-8.445 6.871,-15.316 15.3160004,-15.316 8.445,0 15.316,6.871 15.316,15.316 0.001,8.445 -6.87,15.316 -15.316,15.316 z m 0,-29.794 c -7.9830004,0 -14.4780004,6.495 -14.4780004,14.478 0,7.983 6.495,14.478 14.4780004,14.478 7.984,0 14.478,-6.495 14.478,-14.478 0,-7.983 -6.494,-14.478 -14.478,-14.478 z"
     id="path15"
     inkscape:connector-curvature="0"
     style="fill:#4e4e4e" /><path
     d="m 9.9459996,63.496434 c -6.235,0 -11.308,-5.073 -11.308,-11.308 0,-6.235 5.073,-11.308 11.308,-11.308 6.2350004,0 11.3080004,5.073 11.3080004,11.308 0,6.235 -5.073,11.308 -11.3080004,11.308 z m 0,-21.778 c -5.773,0 -10.47000001,4.697 -10.47000001,10.47 0,5.773 4.69700001,10.47 10.47000001,10.47 5.7730004,0 10.4700004,-4.697 10.4700004,-10.47 0,-5.773 -4.697,-10.47 -10.4700004,-10.47 z"
     id="path17"
     inkscape:connector-curvature="0"
     style="fill:#4e4e4e" /><path
     d="m 9.8639996,64.360434 c -0.985,0 -1.966,-0.117 -2.916,-0.349 -0.225,-0.055 -0.363,-0.281 -0.308,-0.506 0.055,-0.226 0.284,-0.363 0.506,-0.308 0.885,0.215 1.799,0.325 2.718,0.325 4.0810004,0 7.8820004,-2.199 9.9220004,-5.739 0.115,-0.2 0.372,-0.269 0.572,-0.154 0.201,0.116 0.27,0.372 0.154,0.572 -2.189,3.799 -6.269,6.159 -10.6480004,6.159 z"
     id="path19"
     inkscape:connector-curvature="0"
     style="fill:#4e4e4e" /><path
     d="m 20.915,48.181434 c -0.167,0 -0.326,-0.101 -0.39,-0.267 -1.728,-4.42 -5.913,-7.277 -10.6600004,-7.277 -0.776,0 -1.552,0.078 -2.306,0.233 -0.225,0.046 -0.448,-0.1 -0.494,-0.327 -0.046,-0.227 0.1,-0.448 0.326,-0.495 0.81,-0.166 1.642,-0.25 2.474,-0.25 5.0950004,0 9.5860004,3.065 11.4410004,7.81 0.085,0.216 -0.022,0.459 -0.237,0.543 -0.051,0.021 -0.103,0.03 -0.154,0.03 z"
     id="path21"
     inkscape:connector-curvature="0"
     style="fill:#4e4e4e" /><path
     d="m 10.209,53.963434 c -1.1350004,0 -2.0590004,-0.924 -2.0590004,-2.059 0,-1.135 0.924,-2.059 2.0590004,-2.059 1.135,0 2.059,0.924 2.059,2.059 0,1.135 -0.924,2.059 -2.059,2.059 z m 0,-3.28 c -0.6730004,0 -1.2200004,0.548 -1.2200004,1.221 0,0.673 0.548,1.221 1.2200004,1.221 0.672,0 1.22,-0.548 1.22,-1.221 0,-0.673 -0.547,-1.221 -1.22,-1.221 z"
     id="path23"
     inkscape:connector-curvature="0"
     style="fill:#4e4e4e" /><path
     d="m 10.209,54.875434 c -1.6380004,0 -2.9710004,-1.333 -2.9710004,-2.971 0,-1.638 1.333,-2.971 2.9710004,-2.971 1.638,0 2.971,1.333 2.971,2.971 0,1.638 -1.333,2.971 -2.971,2.971 z m 0,-5.103 c -1.1760004,0 -2.1330004,0.957 -2.1330004,2.133 0,1.176 0.957,2.133 2.1330004,2.133 1.176,0 2.133,-0.957 2.133,-2.133 0,-1.177 -0.957,-2.133 -2.133,-2.133 z"
     id="path25"
     inkscape:connector-curvature="0"
     style="fill:#4e4e4e" /><path
     d="m 8.1239996,49.772434 c -0.11,0 -0.218,-0.044 -0.297,-0.123 l -5.345,-5.362 c -0.163,-0.164 -0.163,-0.429 10e-4,-0.593 0.164,-0.164 0.429,-0.163 0.593,10e-4 l 4.92,4.935 0.963,-2.084 c 0.007,-0.015 0.387,-0.828 0.009,-1.554 -0.469,-0.897 -1.996,-3.109 -2.012,-3.131 -0.131,-0.19 -0.084,-0.451 0.106,-0.583 0.191,-0.133 0.452,-0.084 0.583,0.106 0.064,0.092 1.573,2.277 2.066,3.22 0.5770004,1.107 0.028,2.253 0.005,2.301 l -1.211,2.622 c -0.057,0.124 -0.172,0.213 -0.307,0.237 -0.025,0.005 -0.049,0.008 -0.074,0.008 z"
     id="path27"
     inkscape:connector-curvature="0"
     style="fill:#4e4e4e" /><path
     d="m 7.9729996,49.620434 c -0.035,0 -0.071,-0.004 -0.107,-0.014 -0.224,-0.059 -0.357,-0.289 -0.297,-0.513 0.793,-2.98 -0.183,-3.976 -0.193,-3.985 -0.021,-0.019 -0.04,-0.04 -0.056,-0.063 l -1.931,-2.652 c -0.136,-0.187 -0.095,-0.449 0.092,-0.585 0.187,-0.137 0.45,-0.095 0.585,0.092 l 1.914,2.629 c 0.223,0.24 1.254,1.562 0.398,4.78 -0.05,0.187 -0.22,0.311 -0.405,0.311 z"
     id="path29"
     inkscape:connector-curvature="0"
     style="fill:#4e4e4e" /><path
     d="m 9.0549996,50.049434 c -0.067,0 -0.135,-0.016 -0.198,-0.05 -0.204,-0.109 -0.28,-0.363 -0.171,-0.567 0.01,-0.02 1.06,-2 1.3300004,-4.238 0.276,-2.287 0.245,-3.845 0.244,-3.86 -0.005,-0.231 0.178,-0.423 0.41,-0.428 0.254,-0.008 0.423,0.178 0.428,0.409 0.002,0.065 0.033,1.629 -0.251,3.98 -0.289,2.399 -1.3770004,4.447 -1.4230004,4.533 -0.075,0.141 -0.22,0.221 -0.369,0.221 z"
     id="path31"
     inkscape:connector-curvature="0"
     style="fill:#4e4e4e" /><path
     d="m 11.075,49.926434 c -0.061,0 -0.122,-0.013 -0.181,-0.041 -0.209,-0.1 -0.297,-0.35 -0.196,-0.559 l 3.453,-7.199 c 0.1,-0.209 0.349,-0.298 0.559,-0.197 0.209,0.1 0.297,0.35 0.196,0.559 l -3.453,7.199 c -0.072,0.15 -0.221,0.238 -0.378,0.238 z"
     id="path33"
     inkscape:connector-curvature="0"
     style="fill:#4e4e4e" /><path
     d="m 13.403,50.015434 c -1.071,0 -1.695,-0.267 -1.721,-0.278 -0.106,-0.046 -0.188,-0.134 -0.227,-0.243 -0.039,-0.109 -0.031,-0.229 0.021,-0.332 l 3.118,-6.092 c 0.053,-0.103 0.146,-0.18 0.258,-0.212 0.111,-0.031 0.231,-0.016 0.331,0.044 0.069,0.041 1.697,1.021 2.445,1.8 0.92,0.957 1.309,1.814 1.325,1.85 0.056,0.125 0.047,0.27 -0.023,0.387 -0.055,0.091 -1.369,2.236 -3.614,2.82 -0.656,0.17 -1.3,0.256 -1.913,0.256 z m -0.949,-0.926 c 0.232,0.046 0.552,0.088 0.948,0.088 0.542,0 1.115,-0.077 1.702,-0.23 1.552,-0.403 2.626,-1.751 2.98,-2.252 -0.157,-0.281 -0.498,-0.827 -1.062,-1.413 -0.467,-0.486 -1.375,-1.096 -1.891,-1.425 l -2.677,5.232 z"
     id="path35"
     inkscape:connector-curvature="0"
     style="fill:#4e4e4e" /><path
     d="m 7.7159996,52.870434 c -0.159,0 -0.312,-0.091 -0.382,-0.246 -0.004,-0.009 -0.613,-1.247 -3.098,-2.628 -2.548,-1.416 -4.35500001,-1.598 -4.37300001,-1.6 -0.23,-0.022 -0.399,-0.225 -0.379,-0.455 0.021,-0.23 0.225,-0.401 0.454,-0.379 0.08,0.007 1.98700001,0.192 4.70500001,1.702 2.762,1.535 3.428,2.955 3.455,3.015 0.095,0.211 0.002,0.459 -0.209,0.554 -0.056,0.025 -0.115,0.037 -0.173,0.037 z"
     id="path37"
     inkscape:connector-curvature="0"
     style="fill:#4e4e4e" /><path
     d="m 8.2539996,50.683434 c -0.101,0 -0.203,-0.037 -0.284,-0.11 l -6.14,-5.642 c -0.17,-0.157 -0.181,-0.422 -0.025,-0.592 0.157,-0.171 0.422,-0.181 0.592,-0.025 l 6.14,5.642 c 0.17,0.157 0.181,0.422 0.025,0.592 -0.082,0.09 -0.195,0.135 -0.308,0.135 z"
     id="path39"
     inkscape:connector-curvature="0"
     style="fill:#4e4e4e" /><path
     d="m -0.01600041,57.009434 c -0.148,0 -0.292,-0.079 -0.368,-0.218 -0.111,-0.203 -0.036,-0.458 0.167,-0.569 l 6.58100001,-3.592 c -0.821,-0.818 -2.02,-1.842 -2.657,-1.953 -0.77,-0.135 -3.15100001,0.558 -4.47400001,1.025 -0.218,0.077 -0.45799999,-0.037 -0.53499999,-0.255 -0.077,-0.218 0.037,-0.458 0.255,-0.535 0.37199999,-0.131 3.667,-1.277 4.897,-1.061 1.264,0.22 3.278,2.355 3.504,2.597 0.088,0.095 0.127,0.225 0.106,0.353 -0.021,0.128 -0.099,0.238 -0.213,0.3 l -7.06400001,3.855 c -0.062,0.036 -0.131,0.053 -0.199,0.053 z"
     id="path41"
     inkscape:connector-curvature="0"
     style="fill:#4e4e4e" /><path
     d="m 3.2689996,60.236434 c -0.116,0 -0.229,-0.048 -0.308,-0.135 l -2.30800001,-2.51 c -0.086,-0.093 -0.124,-0.219 -0.106,-0.344 0.018,-0.125 0.092,-0.235 0.2,-0.3 l 6.51300001,-3.891 c 0.118,-0.071 0.265,-0.078 0.39,-0.021 0.124,0.057 0.213,0.171 0.237,0.306 0,-10e-4 0,-10e-4 0,-10e-4 0.007,0 0.094,0.169 0.427,0.451 0.465,0.394 0.899,0.58 0.904,0.582 0.145,0.061 0.244,0.199 0.255,0.356 0.011,0.157 -0.066,0.307 -0.201,0.389 -0.019,0.011 -1.942,1.177 -3.484,2.362 -1.472,1.132 -2.134,2.503 -2.141,2.517 -0.059,0.126 -0.178,0.214 -0.316,0.235 -0.02,0.002 -0.041,0.004 -0.062,0.004 z m -1.651,-2.833 1.57,1.707 c 0.352,-0.561 1.027,-1.478 2.09,-2.295 1.054,-0.811 2.251,-1.593 2.955,-2.039 -0.143,-0.095 -0.3,-0.21 -0.46,-0.346 -0.196,-0.166 -0.338,-0.313 -0.442,-0.441 l -5.713,3.414 z"
     id="path43"
     inkscape:connector-curvature="0"
     style="fill:#4e4e4e" /><path
     d="m 10.497,62.582434 c -10e-4,0 -10e-4,0 0,0 -0.334,0 -0.8030004,-0.009 -1.4590004,-0.036 -1.982,-0.082 -2.966,-0.413 -3.007,-0.427 -0.171,-0.059 -0.285,-0.22 -0.283,-0.401 0,-0.001 0.014,-1.373 0.001,-2.785 -0.014,-1.387 0.589,-2.509 1.698,-3.159 0.837,-0.491 2.304,-1.165 2.366,-1.193 0.123,-0.056 0.2650004,-0.05 0.3810004,0.016 0.117,0.067 0.195,0.186 0.21,0.319 l 0.223,2.065 c 0.216,2.007 1.051,5.003 1.06,5.033 0.062,0.222 -0.067,0.452 -0.289,0.516 -0.152,0.043 -0.574,0.052 -0.901,0.052 z m -3.9090004,-1.179 c 0.402,0.096 1.229,0.253 2.485,0.305 0.64,0.027 1.0980004,0.036 1.4230004,0.036 l 0,0 c 0.094,0 0.176,-10e-4 0.248,-0.002 -0.251,-0.954 -0.7790004,-3.076 -0.9520004,-4.671 l -0.159,-1.481 c -0.507,0.242 -1.266,0.615 -1.764,0.907 -0.593,0.348 -1.297,1.051 -1.283,2.428 0.01,1.004 0.005,1.987 0.002,2.478 z"
     id="path45"
     inkscape:connector-curvature="0"
     style="fill:#4e4e4e" /><path
     d="m 12.292,62.344434 c -0.183,0 -0.349,-0.12 -0.402,-0.301 -0.008,-0.025 -0.745,-2.55 -1.224,-4.766 -0.514,-2.378 -0.421,-2.55 -0.354,-2.676 0.051,-0.095 0.137,-0.166 0.24,-0.2 0.029,-0.009 0.292,-0.092 0.645,-0.092 0.83,0 1.458,0.436 1.77,1.227 0.559,1.418 1.012,2.228 1.516,2.709 0.669,0.639 1.093,1.949 1.14,2.096 0.021,0.069 0.025,0.142 0.01,0.213 -0.046,0.216 -0.421,1.316 -3.274,1.784 -0.022,0.004 -0.044,0.006 -0.067,0.006 z m -1.174,-7.195 c 0.038,0.294 0.133,0.866 0.367,1.951 0.366,1.693 0.886,3.572 1.105,4.345 1.559,-0.312 2.045,-0.809 2.182,-1.005 -0.15,-0.423 -0.486,-1.223 -0.867,-1.588 -0.605,-0.578 -1.103,-1.449 -1.718,-3.008 -0.184,-0.469 -0.508,-0.696 -0.99,-0.696 -0.027,-0.001 -0.053,0 -0.079,10e-4 z"
     id="path47"
     inkscape:connector-curvature="0"
     style="fill:#4e4e4e" /><path
     d="m 17.702,58.846434 c -0.147,0 -0.297,-0.031 -0.458,-0.093 -0.128,-0.05 -0.295,-0.103 -0.488,-0.165 -0.929,-0.298 -2.482,-0.797 -3.478,-1.98 -1.265,-1.501 -0.521,-3.714 -0.489,-3.808 0.037,-0.107 0.116,-0.195 0.218,-0.243 0.102,-0.048 0.219,-0.053 0.326,-0.013 2.542,0.958 6.33,0.985 6.754,0.985 l 0.058,0 c 0.001,0 0.002,0 0.004,0 0.128,0 0.249,0.059 0.329,0.16 0.08,0.102 0.109,0.235 0.077,0.361 -0.012,0.048 -0.303,1.196 -1.044,2.674 l -0.101,0.204 c -0.598,1.196 -0.958,1.918 -1.708,1.918 z m -4.225,-5.363 c -0.124,0.612 -0.238,1.778 0.441,2.585 0.841,0.999 2.197,1.434 3.094,1.722 0.213,0.068 0.396,0.127 0.536,0.182 0.061,0.024 0.115,0.036 0.154,0.036 0.231,0 0.552,-0.642 0.958,-1.454 l 0.102,-0.204 c 0.409,-0.816 0.675,-1.533 0.825,-1.987 -1.205,-0.028 -3.931,-0.171 -6.11,-0.88 z"
     id="path49"
     inkscape:connector-curvature="0"
     style="fill:#4e4e4e" /><path
     d="m 18.805,53.456434 c -0.464,0 -1.033,-0.034 -1.694,-0.102 -3.199,-0.328 -4.108,-1.052 -4.202,-1.134 -0.121,-0.106 -0.17,-0.271 -0.128,-0.426 0,0 0,0 0,0 -0.001,0 0.028,-0.167 -0.013,-0.555 -0.051,-0.494 -0.271,-0.698 -0.28,-0.706 -0.151,-0.137 -0.186,-0.367 -0.076,-0.539 0.11,-0.171 0.323,-0.244 0.511,-0.166 0.669,0.279 1.405,0.421 2.191,0.421 2.334,0 4.349,-1.24 4.369,-1.252 0.095,-0.06 0.21,-0.078 0.319,-0.052 0.109,0.026 0.203,0.094 0.261,0.19 0.033,0.055 0.33,0.567 0.502,1.629 0.152,0.943 0.04,1.751 0.005,1.958 -0.003,0.108 -0.042,0.217 -0.112,0.311 -0.221,0.293 -0.731,0.423 -1.653,0.423 z m -5.178,-1.768 c 0.361,0.19 1.367,0.606 3.569,0.832 0.632,0.065 1.174,0.098 1.609,0.098 0.574,0 0.837,-0.057 0.947,-0.093 0.033,-0.233 0.104,-0.887 -0.015,-1.627 -0.068,-0.419 -0.157,-0.735 -0.234,-0.954 -0.761,0.395 -2.457,1.144 -4.39,1.144 -0.536,0 -1.053,-0.058 -1.547,-0.174 0.015,0.075 0.027,0.155 0.036,0.239 0.023,0.226 0.028,0.402 0.025,0.535 z"
     id="path51"
     inkscape:connector-curvature="0"
     style="fill:#4e4e4e" /><circle
     cx="10.209"
     cy="51.945431"
     r="0.78299999"
     id="circle53"
     style="fill:#4e4e4e" /><path
     d="m -4.7170004,50.634434 c -0.035,0 -0.07,-0.004 -0.105,-0.013 -0.224,-0.058 -0.359,-0.286 -0.302,-0.51 0.027,-0.103 0.679,-2.54 3.355,-4.047 0.203,-0.113 0.458,-0.042 0.571,0.159 0.113,0.202 0.043,0.457 -0.159,0.571 -2.368,1.334 -2.949,3.504 -2.954,3.526 -0.049,0.188 -0.219,0.314 -0.406,0.314 z"
     id="path55"
     inkscape:connector-curvature="0"
     style="fill:#4e4e4e" /><path
     d="m -3.5580004,46.326434 c -0.091,0 -0.182,-0.029 -0.259,-0.09 -0.182,-0.143 -0.213,-0.407 -0.07,-0.588 0.069,-0.088 1.72,-2.162 4.06399999,-3.225 0.211,-0.095 0.459,-0.002 0.554,0.209 0.096,0.211 0.002,0.459 -0.208,0.555 -2.15899999,0.979 -3.73599999,2.96 -3.75199999,2.98 -0.082,0.104 -0.204,0.159 -0.329,0.159 z"
     id="path57"
     inkscape:connector-curvature="0"
     style="fill:#4e4e4e" /><path
     d="m -0.94200041,42.303434 c -0.12899999,0 -0.25499999,-0.059 -0.33799999,-0.17 -0.137,-0.186 -0.098,-0.448 0.088,-0.586 0.077,-0.057 1.92599999,-1.409 4.456,-2.18 0.222,-0.069 0.456,0.057 0.523,0.279 0.067,0.221 -0.057,0.456 -0.279,0.523 -2.394,0.73 -4.18500001,2.04 -4.20300001,2.053 -0.074,0.055 -0.161,0.081 -0.247,0.081 z"
     id="path59"
     inkscape:connector-curvature="0"
     style="fill:#4e4e4e" /><path
     d="m 20.915,60.077434 c -0.155,0 -0.304,-0.086 -0.376,-0.234 -0.102,-0.208 -0.016,-0.459 0.192,-0.561 1.857,-0.911 3.074,-2.722 3.086,-2.74 0.128,-0.193 0.387,-0.245 0.581,-0.117 0.193,0.128 0.245,0.388 0.117,0.581 -0.055,0.082 -1.357,2.019 -3.416,3.029 -0.059,0.028 -0.122,0.042 -0.184,0.042 z"
     id="path61"
     inkscape:connector-curvature="0"
     style="fill:#4e4e4e" /><path
     d="m 18.205,63.194434 c -0.193,0 -0.366,-0.134 -0.409,-0.33 -0.05,-0.226 0.094,-0.449 0.32,-0.498 2.587,-0.563 3.679,-1.952 3.69,-1.966 0.14,-0.183 0.403,-0.218 0.587,-0.079 0.183,0.14 0.22,0.401 0.081,0.585 -0.05,0.067 -1.269,1.646 -4.18,2.279 -0.03,0.006 -0.06,0.009 -0.089,0.009 z"
     id="path63"
     inkscape:connector-curvature="0"
     style="fill:#4e4e4e" /><path
     d="m 13.702,65.588434 c -0.132,0 -0.266,-0.002 -0.405,-0.005 -0.231,-0.005 -0.415,-0.197 -0.409,-0.429 0.006,-0.231 0.22,-0.411 0.429,-0.409 3.336,0.078 4.628,-0.841 4.641,-0.85 0.186,-0.137 0.448,-0.097 0.586,0.089 0.137,0.186 0.097,0.449 -0.089,0.586 -0.06,0.043 -1.425,1.018 -4.753,1.018 z"
     id="path65"
     inkscape:connector-curvature="0"
     style="fill:#4e4e4e" /><path
     d="m 140.264,67.215434 c -8.446,0 -15.316,-6.871 -15.316,-15.316 0,-8.445 6.871,-15.316 15.316,-15.316 8.445,0 15.316,6.871 15.316,15.316 0,8.445 -6.871,15.316 -15.316,15.316 z m 0,-29.794 c -7.984,0 -14.478,6.495 -14.478,14.478 0,7.983 6.495,14.478 14.478,14.478 7.983,0 14.478,-6.495 14.478,-14.478 0,-7.983 -6.495,-14.478 -14.478,-14.478 z"
     id="path67"
     inkscape:connector-curvature="0"
     style="fill:#4e4e4e" /><path
     d="m 140.124,63.496434 c -6.235,0 -11.308,-5.073 -11.308,-11.308 0,-6.235 5.073,-11.308 11.308,-11.308 6.235,0 11.308,5.073 11.308,11.308 0,6.235 -5.073,11.308 -11.308,11.308 z m 0,-21.778 c -5.773,0 -10.47,4.697 -10.47,10.47 0,5.773 4.697,10.47 10.47,10.47 5.773,0 10.47,-4.697 10.47,-10.47 0,-5.773 -4.697,-10.47 -10.47,-10.47 z"
     id="path69"
     inkscape:connector-curvature="0"
     style="fill:#4e4e4e" /><path
     d="m 140.042,64.360434 c -0.985,0 -1.966,-0.117 -2.916,-0.349 -0.225,-0.055 -0.363,-0.281 -0.308,-0.506 0.055,-0.226 0.286,-0.363 0.506,-0.308 0.885,0.215 1.799,0.325 2.718,0.325 4.081,0 7.882,-2.199 9.922,-5.739 0.116,-0.2 0.372,-0.269 0.572,-0.154 0.201,0.116 0.27,0.372 0.154,0.572 -2.189,3.799 -6.269,6.159 -10.648,6.159 z"
     id="path71"
     inkscape:connector-curvature="0"
     style="fill:#4e4e4e" /><path
     d="m 151.093,48.181434 c -0.167,0 -0.326,-0.101 -0.39,-0.267 -1.728,-4.42 -5.913,-7.277 -10.66,-7.277 -0.776,0 -1.552,0.078 -2.306,0.233 -0.229,0.046 -0.448,-0.1 -0.494,-0.327 -0.046,-0.227 0.1,-0.448 0.326,-0.495 0.81,-0.166 1.642,-0.25 2.474,-0.25 5.095,0 9.586,3.065 11.441,7.81 0.085,0.216 -0.022,0.459 -0.237,0.543 -0.052,0.021 -0.104,0.03 -0.154,0.03 z"
     id="path73"
     inkscape:connector-curvature="0"
     style="fill:#4e4e4e" /><path
     d="m 140.387,53.963434 c -1.135,0 -2.059,-0.924 -2.059,-2.059 0,-1.135 0.924,-2.059 2.059,-2.059 1.135,0 2.059,0.924 2.059,2.059 0,1.135 -0.924,2.059 -2.059,2.059 z m 0,-3.28 c -0.673,0 -1.221,0.548 -1.221,1.221 0,0.673 0.548,1.221 1.221,1.221 0.673,0 1.221,-0.548 1.221,-1.221 0,-0.673 -0.548,-1.221 -1.221,-1.221 z"
     id="path75"
     inkscape:connector-curvature="0"
     style="fill:#4e4e4e" /><path
     d="m 140.387,54.875434 c -1.638,0 -2.971,-1.333 -2.971,-2.971 0,-1.638 1.333,-2.971 2.971,-2.971 1.638,0 2.971,1.333 2.971,2.971 0,1.638 -1.333,2.971 -2.971,2.971 z m 0,-5.103 c -1.176,0 -2.133,0.957 -2.133,2.133 0,1.176 0.957,2.133 2.133,2.133 1.176,0 2.133,-0.957 2.133,-2.133 0,-1.177 -0.957,-2.133 -2.133,-2.133 z"
     id="path77"
     inkscape:connector-curvature="0"
     style="fill:#4e4e4e" /><path
     d="m 138.302,49.772434 c -0.11,0 -0.218,-0.044 -0.297,-0.123 l -5.345,-5.362 c -0.163,-0.164 -0.163,-0.429 0.001,-0.593 0.164,-0.163 0.429,-0.163 0.593,10e-4 l 4.92,4.935 0.963,-2.084 c 0.007,-0.015 0.387,-0.828 0.009,-1.554 -0.469,-0.897 -1.996,-3.109 -2.012,-3.131 -0.131,-0.19 -0.084,-0.451 0.106,-0.583 0.19,-0.133 0.452,-0.084 0.583,0.106 0.064,0.092 1.573,2.277 2.066,3.22 0.577,1.107 0.028,2.253 0.005,2.301 l -1.211,2.622 c -0.057,0.124 -0.172,0.213 -0.307,0.237 -0.026,0.005 -0.05,0.008 -0.074,0.008 z"
     id="path79"
     inkscape:connector-curvature="0"
     style="fill:#4e4e4e" /><path
     d="m 138.151,49.620434 c -0.035,0 -0.071,-0.004 -0.107,-0.014 -0.224,-0.059 -0.357,-0.289 -0.297,-0.513 0.793,-2.98 -0.183,-3.976 -0.193,-3.985 -0.021,-0.019 -0.04,-0.04 -0.056,-0.063 l -1.93,-2.652 c -0.136,-0.187 -0.095,-0.449 0.092,-0.585 0.187,-0.137 0.45,-0.095 0.585,0.092 l 1.913,2.629 c 0.223,0.24 1.254,1.562 0.398,4.78 -0.05,0.187 -0.22,0.311 -0.405,0.311 z"
     id="path81"
     inkscape:connector-curvature="0"
     style="fill:#4e4e4e" /><path
     d="m 139.233,50.049434 c -0.067,0 -0.135,-0.016 -0.198,-0.05 -0.204,-0.109 -0.28,-0.363 -0.171,-0.567 0.01,-0.02 1.06,-2 1.33,-4.238 0.276,-2.287 0.245,-3.845 0.244,-3.86 -0.005,-0.231 0.178,-0.423 0.41,-0.428 0.24,-0.008 0.423,0.178 0.428,0.409 0.002,0.065 0.033,1.629 -0.251,3.98 -0.289,2.399 -1.377,4.447 -1.423,4.533 -0.075,0.141 -0.22,0.221 -0.369,0.221 z"
     id="path83"
     inkscape:connector-curvature="0"
     style="fill:#4e4e4e" /><path
     d="m 141.253,49.926434 c -0.061,0 -0.122,-0.013 -0.181,-0.041 -0.209,-0.1 -0.297,-0.35 -0.196,-0.559 l 3.453,-7.199 c 0.1,-0.209 0.35,-0.298 0.559,-0.197 0.209,0.1 0.297,0.35 0.196,0.559 l -3.453,7.199 c -0.072,0.15 -0.221,0.238 -0.378,0.238 z"
     id="path85"
     inkscape:connector-curvature="0"
     style="fill:#4e4e4e" /><path
     d="m 143.58,50.015434 c -1.071,0 -1.695,-0.267 -1.721,-0.278 -0.106,-0.046 -0.188,-0.134 -0.227,-0.243 -0.039,-0.109 -0.031,-0.229 0.021,-0.332 l 3.118,-6.092 c 0.053,-0.103 0.146,-0.18 0.258,-0.212 0.111,-0.031 0.232,-0.016 0.331,0.044 0.069,0.041 1.696,1.021 2.445,1.8 0.92,0.957 1.309,1.814 1.325,1.85 0.056,0.125 0.047,0.27 -0.023,0.387 -0.055,0.091 -1.369,2.236 -3.614,2.82 -0.655,0.17 -1.299,0.256 -1.913,0.256 z m -0.947,-0.926 c 0.232,0.046 0.552,0.088 0.948,0.088 0.542,0 1.115,-0.077 1.702,-0.23 1.552,-0.403 2.626,-1.751 2.98,-2.252 -0.157,-0.281 -0.498,-0.827 -1.062,-1.413 -0.467,-0.486 -1.375,-1.096 -1.89,-1.425 l -2.678,5.232 z"
     id="path87"
     inkscape:connector-curvature="0"
     style="fill:#4e4e4e" /><path
     d="m 137.894,52.870434 c -0.159,0 -0.312,-0.091 -0.382,-0.246 -0.004,-0.009 -0.613,-1.247 -3.098,-2.628 -2.548,-1.416 -4.355,-1.598 -4.373,-1.6 -0.23,-0.022 -0.399,-0.225 -0.379,-0.455 0.021,-0.23 0.228,-0.401 0.454,-0.379 0.08,0.007 1.987,0.192 4.705,1.702 2.762,1.535 3.428,2.955 3.455,3.015 0.095,0.211 0.002,0.459 -0.209,0.554 -0.056,0.025 -0.115,0.037 -0.173,0.037 z"
     id="path89"
     inkscape:connector-curvature="0"
     style="fill:#4e4e4e" /><path
     d="m 138.432,50.683434 c -0.101,0 -0.203,-0.037 -0.284,-0.11 l -6.14,-5.642 c -0.17,-0.157 -0.181,-0.422 -0.025,-0.592 0.157,-0.171 0.422,-0.181 0.592,-0.025 l 6.14,5.642 c 0.17,0.157 0.181,0.422 0.025,0.592 -0.082,0.09 -0.195,0.135 -0.308,0.135 z"
     id="path91"
     inkscape:connector-curvature="0"
     style="fill:#4e4e4e" /><path
     d="m 130.162,57.009434 c -0.148,0 -0.292,-0.079 -0.368,-0.218 -0.111,-0.203 -0.036,-0.458 0.167,-0.569 l 6.581,-3.592 c -0.821,-0.818 -2.02,-1.842 -2.657,-1.953 -0.768,-0.135 -3.152,0.558 -4.474,1.025 -0.219,0.077 -0.458,-0.037 -0.535,-0.255 -0.077,-0.218 0.037,-0.458 0.255,-0.535 0.372,-0.131 3.665,-1.277 4.897,-1.061 1.264,0.22 3.278,2.355 3.504,2.597 0.088,0.095 0.127,0.225 0.106,0.353 -0.021,0.128 -0.099,0.238 -0.213,0.3 l -7.064,3.855 c -0.062,0.036 -0.131,0.053 -0.199,0.053 z"
     id="path93"
     inkscape:connector-curvature="0"
     style="fill:#4e4e4e" /><path
     d="m 133.447,60.236434 c -0.116,0 -0.229,-0.049 -0.308,-0.135 l -2.307,-2.51 c -0.086,-0.093 -0.124,-0.219 -0.106,-0.344 0.018,-0.125 0.092,-0.235 0.2,-0.3 l 6.513,-3.891 c 0.119,-0.071 0.265,-0.078 0.39,-0.021 0.124,0.057 0.213,0.171 0.237,0.306 0,-10e-4 0,-10e-4 0,-10e-4 0.007,0 0.094,0.169 0.427,0.451 0.465,0.394 0.899,0.58 0.904,0.582 0.145,0.061 0.244,0.199 0.255,0.356 0.011,0.157 -0.066,0.307 -0.201,0.389 -0.019,0.011 -1.942,1.177 -3.484,2.362 -1.481,1.139 -2.134,2.502 -2.14,2.516 -0.059,0.126 -0.178,0.215 -0.316,0.236 -0.022,0.003 -0.044,0.004 -0.064,0.004 z m -1.651,-2.833 1.57,1.707 c 0.352,-0.562 1.027,-1.478 2.09,-2.295 1.054,-0.811 2.251,-1.593 2.955,-2.039 -0.143,-0.095 -0.3,-0.21 -0.46,-0.346 -0.196,-0.166 -0.338,-0.313 -0.442,-0.441 l -5.713,3.414 z"
     id="path95"
     inkscape:connector-curvature="0"
     style="fill:#4e4e4e" /><path
     d="m 140.675,62.582434 c -0.001,0 -0.001,0 0,0 -0.334,0 -0.803,-0.009 -1.459,-0.036 -1.982,-0.082 -2.966,-0.413 -3.007,-0.427 -0.171,-0.059 -0.285,-0.22 -0.283,-0.4 0,-10e-4 0.014,-1.373 0,-2.785 -0.014,-1.387 0.589,-2.509 1.698,-3.159 0.837,-0.491 2.304,-1.165 2.366,-1.193 0.123,-0.056 0.265,-0.05 0.381,0.016 0.117,0.067 0.195,0.186 0.21,0.319 l 0.223,2.065 c 0.216,2.007 1.051,5.003 1.06,5.033 0.062,0.222 -0.067,0.452 -0.289,0.516 -0.151,0.042 -0.573,0.051 -0.9,0.051 z m -3.908,-1.179 c 0.402,0.096 1.228,0.253 2.484,0.305 0.64,0.027 1.098,0.036 1.423,0.036 l 0,0 c 0.094,0 0.176,-10e-4 0.248,-0.002 -0.251,-0.954 -0.779,-3.076 -0.952,-4.671 l -0.159,-1.481 c -0.507,0.242 -1.266,0.615 -1.764,0.907 -0.593,0.348 -1.297,1.051 -1.283,2.428 0.01,1.004 0.005,1.987 0.003,2.478 z"
     id="path97"
     inkscape:connector-curvature="0"
     style="fill:#4e4e4e" /><path
     d="m 142.47,62.344434 c -0.183,0 -0.349,-0.12 -0.402,-0.301 -0.008,-0.025 -0.745,-2.55 -1.224,-4.766 -0.514,-2.378 -0.421,-2.55 -0.354,-2.676 0.051,-0.095 0.137,-0.166 0.24,-0.2 0.029,-0.009 0.292,-0.092 0.645,-0.092 0.83,0 1.459,0.436 1.77,1.227 0.558,1.417 1.012,2.228 1.516,2.709 0.669,0.639 1.093,1.949 1.14,2.096 0.021,0.069 0.025,0.142 0.01,0.213 -0.046,0.216 -0.421,1.316 -3.274,1.784 -0.022,0.004 -0.044,0.006 -0.067,0.006 z m -1.174,-7.195 c 0.038,0.294 0.133,0.866 0.367,1.95 0.366,1.693 0.886,3.572 1.105,4.345 1.559,-0.312 2.045,-0.809 2.182,-1.005 -0.15,-0.423 -0.486,-1.223 -0.867,-1.588 -0.606,-0.579 -1.103,-1.45 -1.718,-3.008 -0.184,-0.469 -0.508,-0.696 -0.99,-0.696 -0.027,0 -0.053,0.001 -0.079,0.002 z"
     id="path99"
     inkscape:connector-curvature="0"
     style="fill:#4e4e4e" /><path
     d="m 147.88,58.846434 c -0.147,0 -0.297,-0.031 -0.458,-0.093 -0.128,-0.05 -0.295,-0.103 -0.488,-0.165 -0.929,-0.298 -2.482,-0.797 -3.478,-1.98 -1.264,-1.501 -0.521,-3.714 -0.489,-3.808 0.037,-0.107 0.116,-0.195 0.218,-0.243 0.103,-0.048 0.219,-0.053 0.326,-0.013 2.542,0.958 6.33,0.985 6.754,0.985 l 0.058,0 c 0.11,0.005 0.253,0.058 0.333,0.16 0.08,0.102 0.109,0.235 0.077,0.361 -0.012,0.048 -0.303,1.196 -1.044,2.674 l -0.102,0.204 c -0.597,1.196 -0.958,1.918 -1.707,1.918 z m -4.225,-5.363 c -0.124,0.612 -0.238,1.778 0.441,2.585 0.841,0.998 2.197,1.434 3.094,1.722 0.213,0.068 0.396,0.127 0.536,0.182 0.061,0.024 0.115,0.036 0.154,0.036 0.231,0 0.552,-0.642 0.958,-1.454 l 0.102,-0.204 c 0.409,-0.816 0.675,-1.533 0.825,-1.987 -1.205,-0.028 -3.931,-0.171 -6.11,-0.88 z"
     id="path101"
     inkscape:connector-curvature="0"
     style="fill:#4e4e4e" /><path
     d="m 148.982,53.456434 c -0.464,0 -1.033,-0.034 -1.694,-0.102 -3.198,-0.328 -4.108,-1.052 -4.202,-1.134 -0.121,-0.106 -0.171,-0.272 -0.128,-0.427 0,0 0,0 0,0 -0.001,0 0.028,-0.167 -0.013,-0.553 -0.051,-0.494 -0.27,-0.698 -0.279,-0.707 -0.151,-0.137 -0.186,-0.367 -0.077,-0.539 0.11,-0.172 0.323,-0.244 0.511,-0.166 0.669,0.279 1.405,0.421 2.191,0.421 2.333,0 4.349,-1.24 4.369,-1.252 0.095,-0.06 0.21,-0.078 0.319,-0.052 0.109,0.026 0.203,0.094 0.261,0.19 0.033,0.055 0.33,0.567 0.502,1.629 0.152,0.943 0.04,1.751 0.005,1.958 -0.003,0.108 -0.042,0.217 -0.112,0.311 -0.22,0.293 -0.73,0.423 -1.653,0.423 z m -5.177,-1.768 c 0.361,0.19 1.368,0.606 3.569,0.832 0.632,0.065 1.174,0.098 1.609,0.098 0.574,0 0.837,-0.057 0.947,-0.093 0.033,-0.233 0.104,-0.887 -0.015,-1.627 -0.068,-0.419 -0.157,-0.735 -0.234,-0.954 -0.761,0.395 -2.457,1.144 -4.39,1.144 -0.536,0 -1.053,-0.058 -1.547,-0.174 0.015,0.075 0.027,0.155 0.036,0.24 0.024,0.225 0.029,0.401 0.025,0.534 z"
     id="path103"
     inkscape:connector-curvature="0"
     style="fill:#4e4e4e" /><circle
     cx="140.38699"
     cy="51.945431"
     r="0.78299999"
     id="circle105"
     style="fill:#4e4e4e" /><path
     d="m 125.461,50.634434 c -0.035,0 -0.07,-0.004 -0.105,-0.013 -0.224,-0.058 -0.359,-0.286 -0.302,-0.51 0.027,-0.103 0.679,-2.54 3.355,-4.047 0.202,-0.113 0.458,-0.042 0.571,0.159 0.113,0.202 0.043,0.457 -0.159,0.571 -2.368,1.334 -2.949,3.504 -2.954,3.526 -0.049,0.188 -0.219,0.314 -0.406,0.314 z"
     id="path107"
     inkscape:connector-curvature="0"
     style="fill:#4e4e4e" /><path
     d="m 126.62,46.326434 c -0.091,0 -0.182,-0.029 -0.259,-0.09 -0.182,-0.143 -0.213,-0.407 -0.07,-0.588 0.069,-0.088 1.72,-2.162 4.064,-3.225 0.211,-0.095 0.459,-0.002 0.554,0.209 0.096,0.211 0.002,0.459 -0.208,0.555 -2.159,0.979 -3.736,2.96 -3.752,2.98 -0.082,0.104 -0.204,0.159 -0.329,0.159 z"
     id="path109"
     inkscape:connector-curvature="0"
     style="fill:#4e4e4e" /><path
     d="m 129.236,42.303434 c -0.129,0 -0.255,-0.059 -0.338,-0.17 -0.137,-0.186 -0.098,-0.448 0.088,-0.586 0.077,-0.057 1.926,-1.409 4.456,-2.18 0.225,-0.069 0.456,0.057 0.523,0.279 0.067,0.221 -0.057,0.456 -0.279,0.523 -2.394,0.73 -4.185,2.04 -4.203,2.053 -0.074,0.055 -0.161,0.081 -0.247,0.081 z"
     id="path111"
     inkscape:connector-curvature="0"
     style="fill:#4e4e4e" /><path
     d="m 151.093,60.077434 c -0.155,0 -0.304,-0.086 -0.376,-0.234 -0.102,-0.208 -0.016,-0.459 0.191,-0.561 1.857,-0.911 3.074,-2.722 3.086,-2.74 0.128,-0.193 0.388,-0.245 0.581,-0.117 0.193,0.128 0.245,0.388 0.117,0.581 -0.055,0.082 -1.357,2.019 -3.416,3.029 -0.058,0.028 -0.121,0.042 -0.183,0.042 z"
     id="path113"
     inkscape:connector-curvature="0"
     style="fill:#4e4e4e" /><path
     d="m 148.383,63.194434 c -0.193,0 -0.366,-0.134 -0.409,-0.33 -0.05,-0.226 0.094,-0.449 0.32,-0.498 2.612,-0.568 3.678,-1.951 3.689,-1.965 0.138,-0.184 0.402,-0.222 0.587,-0.083 0.185,0.139 0.222,0.402 0.082,0.587 -0.05,0.067 -1.268,1.646 -4.18,2.279 -0.03,0.007 -0.06,0.01 -0.089,0.01 z"
     id="path115"
     inkscape:connector-curvature="0"
     style="fill:#4e4e4e" /><path
     d="m 143.879,65.588434 c -0.132,0 -0.266,-0.002 -0.405,-0.005 -0.231,-0.005 -0.415,-0.197 -0.409,-0.429 0.005,-0.231 0.205,-0.411 0.429,-0.409 3.333,0.078 4.628,-0.841 4.641,-0.85 0.186,-0.137 0.448,-0.097 0.586,0.089 0.137,0.186 0.097,0.449 -0.089,0.586 -0.059,0.043 -1.424,1.018 -4.753,1.018 z"
     id="path117"
     inkscape:connector-curvature="0"
     style="fill:#4e4e4e" /><path
     d="m -24.509,50.683434 c -0.171,0 -0.332,-0.106 -0.394,-0.276 l -0.587,-1.619 c -0.079,-0.218 0.033,-0.458 0.251,-0.537 0.219,-0.079 0.458,0.034 0.537,0.251 l 0.587,1.619 c 0.079,0.218 -0.033,0.458 -0.251,0.537 -0.048,0.018 -0.096,0.025 -0.143,0.025 z"
     id="path119"
     inkscape:connector-curvature="0"
     style="fill:#4e4e4e" /><path
     d="m -22.768,53.456434 c -0.013,0 -0.026,-0.001 -0.039,-0.002 -0.083,-0.008 -2.052,-0.191 -3.184,-0.61 -0.372,-0.138 -0.534,-0.346 -0.478,-0.618 0.067,-0.334 0.116,-0.575 2.997,-0.456 0.231,0.01 0.411,0.205 0.401,0.436 -0.006,0.153 -0.094,0.284 -0.219,0.352 0.331,0.042 0.553,0.062 0.56,0.063 0.23,0.021 0.4,0.225 0.379,0.455 -0.02,0.216 -0.202,0.38 -0.417,0.38 z"
     id="path121"
     inkscape:connector-curvature="0"
     style="fill:#4e4e4e" /><path
     d="m 29.259,60.563434 c -0.052,0 -0.105,-0.01 -0.156,-0.03 -0.157,-0.063 -0.261,-0.214 -0.263,-0.384 -0.001,-0.094 -0.14,-9.455 -2.076,-14.32 -0.448,-1.127 -4.718,-11.016 -16.332,-11.016 -10.10500041,0 -13.8060004,4.809 -15.9010004,9 -2.288,4.574 -1.605,12.63 -1.597,12.71 0.01,0.111 -0.025,0.221 -0.096,0.306 -0.071,0.085 -0.174,0.139 -0.285,0.148 -8.8359996,0.78 -16.3999996,-1.524 -17.5959996,-2.362 -1.098,-0.77 -1.41,-2.014 -1.423,-2.066 -0.055,-0.225 0.083,-0.451 0.308,-0.506 0.225,-0.055 0.451,0.083 0.506,0.308 0.008,0.032 0.266,1.001 1.09,1.578 0.787,0.551 7.843,2.93 16.6289996,2.247 -0.116,-1.761 -0.399,-8.514 1.714,-12.74 2.203,-4.406 6.08699999,-9.463 16.6510004,-9.463 9.24,0 14.992,6.219 17.111,11.544 0.597,1.501 1.027,3.379 1.338,5.285 0.063,-0.012 0.132,-0.008 0.199,0.013 1.153,0.36 1.65,0.994 2.219,2.826 0.533,1.716 1.251,3.339 1.258,3.355 0.07,0.157 0.037,0.341 -0.083,0.463 l -2.915,2.976 c -0.081,0.084 -0.19,0.128 -0.3,0.128 z m -0.245,-8.885 c 0.435,3.019 0.587,5.971 0.638,7.465 l 2.025,-2.068 c -0.228,-0.536 -0.754,-1.815 -1.179,-3.185 -0.498,-1.605 -0.86,-1.982 -1.484,-2.212 z"
     id="path123"
     inkscape:connector-curvature="0"
     style="fill:#4e4e4e" /><path
     d="m -17.634,53.963434 c -0.231,0 -0.418,-0.187 -0.419,-0.418 0,-0.231 0.187,-0.419 0.418,-0.42 0.01,0 0.141,-10e-4 0.685,-0.015 -0.877,-0.052 -1.392,-0.091 -1.405,-0.092 -0.231,-0.018 -0.404,-0.219 -0.386,-0.45 0.017,-0.231 0.228,-0.407 0.45,-0.386 0.034,0.003 3.391,0.256 7.649,0.336 2.1799996,0.041 2.4579996,0.065 2.4619996,0.55 0.004,0.466 0.004,0.591 -5.1799996,0.767 -3.73,0.127 -4.254,0.128 -4.274,0.128 z"
     id="path125"
     inkscape:connector-curvature="0"
     style="fill:#4e4e4e" /><path
     d="m -8.6000004,60.077434 c -0.109,0 -0.216,-0.042 -0.297,-0.124 -0.051,-0.052 -0.506,-0.533 -0.629,-1.472 -0.113,-0.87 -0.004,-1.726 0,-1.762 0.03,-0.229 0.24,-0.387 0.47,-0.361 0.229,0.03 0.391,0.24 0.362,0.469 -10e-4,0.008 -0.099,0.786 0,1.545 0.042,0.324 0.136,0.567 0.221,0.731 0.448,-0.242 1.29,-0.656 2.308,-0.956 l 0.192,-0.056 c 1.349,-0.395 1.523,-0.478 1.56,-1.335 0.01,-0.232 0.227,-0.406 0.436,-0.4 0.231,0.01 0.411,0.206 0.4,0.437 -0.064,1.489 -0.854,1.72 -2.161,2.103 l -0.191,0.056 c -1.387,0.409 -2.44,1.057 -2.45,1.063 -0.068,0.041 -0.144,0.062 -0.221,0.062 z"
     id="path127"
     inkscape:connector-curvature="0"
     style="fill:#4e4e4e" /><path
     d="m 22.541,60.563434 c -0.129,0 -0.256,-0.059 -0.338,-0.171 -0.137,-0.186 -0.097,-0.448 0.089,-0.585 0.073,-0.053 1.793,-1.305 3.96,-1.788 2.171,-0.484 2.983,-0.033 3.124,0.062 0.192,0.13 0.242,0.391 0.111,0.582 -0.129,0.191 -0.39,0.241 -0.582,0.111 l 0,0 c -0.003,0 -0.647,-0.344 -2.471,0.062 -1.989,0.444 -3.63,1.634 -3.646,1.646 -0.074,0.054 -0.161,0.081 -0.247,0.081 z"
     id="path129"
     inkscape:connector-curvature="0"
     style="fill:#4e4e4e" /><path
     d="m 157.84,56.232434 c -0.099,0 -0.198,-0.035 -0.277,-0.104 -10e-4,-10e-4 -0.4,-0.333 -1.289,-0.596 -0.268,-0.079 -0.484,-0.111 -0.674,-0.139 -0.57,-0.085 -1.008,-0.22 -1.046,-1.105 -0.01,-0.231 0.169,-0.427 0.4,-0.437 0.208,-0.013 0.427,0.169 0.436,0.401 0.009,0.21 0.039,0.264 0.041,0.266 0.021,0.005 0.171,0.028 0.292,0.046 0.195,0.029 0.464,0.069 0.787,0.164 0.54,0.159 0.931,0.342 1.192,0.491 0.031,-0.085 0.058,-0.19 0.074,-0.313 0.083,-0.635 0.35,-1.171 0.362,-1.194 0.104,-0.206 0.353,-0.291 0.562,-0.186 0.206,0.103 0.29,0.355 0.187,0.562 -0.002,0.004 -0.216,0.436 -0.279,0.926 -0.091,0.693 -0.434,1.054 -0.472,1.093 -0.081,0.084 -0.188,0.125 -0.296,0.125 z"
     id="path131"
     inkscape:connector-curvature="0"
     style="fill:#4e4e4e" /><path
     d="m 121.489,57.191434 c -0.059,0 -0.118,-0.013 -0.175,-0.039 -0.21,-0.097 -0.301,-0.344 -0.205,-0.554 0.023,-0.052 0.605,-1.291 2.192,-2.019 1.555,-0.713 2.051,-0.624 2.31,-0.468 0.16,0.097 0.26,0.257 0.269,0.427 0.011,0.231 -0.166,0.428 -0.397,0.439 -0.145,0.002 -0.251,-0.047 -0.332,-0.137 -0.138,0.003 -0.542,0.061 -1.5,0.501 -1.292,0.593 -1.776,1.597 -1.78,1.608 -0.073,0.153 -0.225,0.242 -0.382,0.242 z"
     id="path133"
     inkscape:connector-curvature="0"
     style="fill:#4e4e4e" /><path
     d="m -4.7170004,26.171434 c -0.183,0 -0.351,-0.12 -0.403,-0.304 -0.063,-0.223 0.066,-0.454 0.289,-0.517 0.092,-0.026 9.272,-2.619 18.3840004,-3.612 0.226,-0.025 0.437,0.141 0.462,0.371 0.025,0.23 -0.141,0.437 -0.371,0.462 -9.0400004,0.985 -18.1550004,3.559 -18.2460004,3.584 -0.039,0.011 -0.077,0.016 -0.115,0.016 z"
     id="path135"
     inkscape:connector-curvature="0"
     style="fill:#4e4e4e" /><path
     d="m -3.0510004,30.258434 c -0.189,0 -0.361,-0.129 -0.407,-0.321 -0.054,-0.225 0.085,-0.451 0.309,-0.505 0.082,-0.02 7.49,-1.785 16.4680004,-2.616 -4.9490004,0.216 -9.4750004,0.876 -14.23600041,1.57 -2.60999999,0.381 -5.30899999,0.774 -8.14599999,1.101 -0.236,0.029 -0.438,-0.139 -0.464,-0.368 -0.027,-0.23 0.139,-0.438 0.368,-0.464 2.826,-0.326 5.518,-0.718 8.122,-1.098 5.393,-0.786 10.487,-1.529 16.2520004,-1.638 8.291,-0.156 8.294,-0.062 8.315,0.462 0.021,0.523 0.024,0.591 -6.949,1.024 -10.2810004,0.638 -19.4430004,2.822 -19.5340004,2.843 -0.032,0.006 -0.065,0.01 -0.098,0.01 z"
     id="path137"
     inkscape:connector-curvature="0"
     style="fill:#4e4e4e" /><path
     d="m -4.8120004,36.917434 c -0.082,0 -0.166,-0.025 -0.24,-0.075 -0.189,-0.133 -0.236,-0.394 -0.104,-0.584 0.168,-0.24 4.23499999,-5.887 15.2410004,-5.887 11.014,0 14.297,4.843 14.432,5.049 0.127,0.194 0.072,0.453 -0.122,0.58 -0.193,0.127 -0.453,0.071 -0.579,-0.122 -0.031,-0.045 -3.216,-4.668 -13.73,-4.668 -10.57300041,0 -14.5140004,5.473 -14.5530004,5.529 -0.083,0.116 -0.212,0.178 -0.345,0.178 z"
     id="path139"
     inkscape:connector-curvature="0"
     style="fill:#4e4e4e" /><path
     d="m 85.131,26.697434 c -0.216,0 -0.399,-0.166 -0.417,-0.385 -0.019,-0.231 0.153,-0.433 0.384,-0.451 0.043,-0.004 4.399,-0.357 13.76,-1.237 9.371,-0.881 19.987,-1.613 20.093,-1.62 0.235,-0.018 0.431,0.158 0.447,0.389 0.016,0.231 -0.158,0.431 -0.389,0.447 -0.106,0.007 -10.712,0.739 -20.072,1.619 -9.369,0.881 -13.728,1.234 -13.771,1.238 -0.012,-0.001 -0.024,0 -0.035,0 z"
     id="path141"
     inkscape:connector-curvature="0"
     style="fill:#4e4e4e" /><path
     d="m 35.689,52.318434 c -0.163,0 -0.311,-0.094 -0.38,-0.243 -0.073,-0.157 -0.041,-0.342 0.079,-0.467 1.338,-1.391 2.599,-1.524 9.599,-2.263 0.969,-0.102 2.049,-0.216 3.257,-0.347 4.313,-0.467 10.718,-0.83 18.133,-1.25 9.341,-0.529 20.965,-1.187 33.05,-2.314 6.758,-0.63 11.767,-0.95 14.89,-0.95 3.485,0 3.869,0.384 3.976,0.811 0.086,0.346 -0.167,0.62 -0.411,0.749 -0.082,0.063 -3.246,2.25 -14.084,3.302 -10.988,1.066 -36.726,2.111 -48.053,2.268 -11.435,0.158 -19.944,0.698 -20.028,0.703 -0.01,0.001 -0.02,0.001 -0.028,0.001 z m 78.627,-6.996 c -3.097,0 -8.081,0.318 -14.813,0.946 -12.1,1.129 -23.733,1.787 -33.08,2.316 -7.404,0.419 -13.798,0.781 -18.09,1.246 -1.208,0.131 -2.29,0.245 -3.259,0.347 -4.794,0.506 -6.794,0.717 -7.954,1.218 2.912,-0.16 9.919,-0.5 18.611,-0.62 11.314,-0.157 37.016,-1.2 47.984,-2.264 8.839,-0.857 12.482,-2.496 13.448,-3.017 -0.405,-0.08 -1.223,-0.172 -2.847,-0.172 z"
     id="path143"
     inkscape:connector-curvature="0"
     style="fill:#4e4e4e" /><path
     d="m 132.292,22.950434 c -0.211,0 -0.392,-0.158 -0.416,-0.372 -0.026,-0.23 0.14,-0.437 0.369,-0.463 0.018,-0.002 1.851,-0.206 5.829,-0.384 0.211,-0.023 0.427,0.168 0.437,0.4 0.01,0.232 -0.169,0.427 -0.4,0.437 -3.944,0.177 -5.754,0.378 -5.772,0.38 -0.015,0.001 -0.031,0.002 -0.047,0.002 z"
     id="path145"
     inkscape:connector-curvature="0"
     style="fill:#4e4e4e" /><path
     d="m 141.063,22.446434 c -0.224,0 -0.41,-0.178 -0.418,-0.404 -0.009,-0.231 0.172,-0.426 0.403,-0.434 l 0.883,-0.033 c 1.161,-0.044 2.099,-0.08 3.349,-0.1 0.003,0 0.005,0 0.007,0 0.228,0 0.415,0.183 0.419,0.412 0.004,0.231 -0.181,0.422 -0.412,0.426 -1.244,0.02 -2.177,0.056 -3.332,0.1 l -0.884,0.033 c -0.004,0 -0.009,0 -0.015,0 z"
     id="path147"
     inkscape:connector-curvature="0"
     style="fill:#4e4e4e" /><path
     d="m 161.491,22.302434 c -0.001,0 -0.003,0 -0.004,0 -0.071,-0.001 -7.256,-0.07 -13.616,-0.013 -0.001,0 -0.003,0 -0.004,0 -0.23,0 -0.417,-0.185 -0.419,-0.415 -0.002,-0.232 0.184,-0.421 0.415,-0.423 5.531,-0.049 11.688,-0.004 13.255,0.01 0.021,-0.056 0.05,-0.109 0.083,-0.161 0.351,-0.531 1.236,-0.701 2.702,-0.984 1.195,-0.23 2.683,-0.517 4.244,-1.094 2.149,-0.794 3.318,-1.47 3.292,-1.904 -0.013,-0.243 -0.039,-0.744 -2.179,-0.786 -2.899,-0.056 -7.866,-0.809 -13.286,-2.014 l -0.246,-0.055 c -4.501,-1 -4.501,-1 -13.142,-4.5280003 -2.072,-0.846 -4.642,-1.895 -7.894,-3.212 -15.89,-6.43099996 -40.85,-6.75399996 -58.912,-4.911 -14.947,1.525 -21.668,4.408 -33.87,9.6430003 l -2.131,0.913 c -13.284,5.682 -19.041,8.232 -19.097,8.257 -0.211,0.094 -0.459,-0.002 -0.553,-0.213 -0.094,-0.212 0.002,-0.459 0.213,-0.553 0.056,-0.025 5.817,-2.577 19.107,-8.262 l 2.129,-0.913 C 53.856,5.4174337 60.619,2.5164337 75.693,0.97843374 c 18.162,-1.854 43.279,-1.521 59.312,4.96799996 3.253,1.317 5.824,2.367 7.896,3.213 8.575,3.5010003 8.575,3.5010003 13.007,4.4860003 l 0.246,0.055 c 5.289,1.175 10.317,1.94 13.12,1.994 2.047,0.04 2.943,0.504 2.997,1.551 0.04,0.677 -0.223,1.428 -3.837,2.763 -1.625,0.601 -3.15,0.894 -4.376,1.13 -0.875,0.169 -2.073,0.399 -2.164,0.628 0.027,0.124 -0.003,0.268 -0.083,0.367 -0.076,0.098 -0.195,0.169 -0.32,0.169 z"
     id="path149"
     inkscape:connector-curvature="0"
     style="fill:#4e4e4e" /><path
     d="m 32.174,57.587434 c -0.231,0 -0.418,-0.186 -0.419,-0.417 -10e-4,-0.232 0.186,-0.42 0.417,-0.421 l 88.889,-0.392 c -0.019,-2.123 0.246,-11.282 5.93,-17.22 3.202,-3.345 7.563,-5.041 12.961,-5.041 5.833,0 10.449,1.736 13.72,5.159 4.884,5.112 5.248,12.322 5.251,14.292 2.234,-0.319 11.525,-1.679 14.175,-2.585 2.69,-0.92 3.109,-1.944 3.87,-3.803 l 0.171,-0.415 c 0.688,-1.656 0.661,-2.775 0.629,-4.07 -0.007,-0.282 -0.014,-0.57 -0.014,-0.87 0,-0.836 -0.195,-1.098 -0.465,-1.46 -0.218,-0.292 -0.489,-0.657 -0.648,-1.329 -0.1,-0.424 -0.277,-0.724 -0.482,-1.072 -0.4,-0.677 -0.897,-1.519 -0.986,-3.561 -0.081,-1.837 -0.435,-2.074 -1.756,-2.957 -0.202,-0.136 -0.424,-0.284 -0.667,-0.452 -0.651,-0.453 -1.187,-0.989 -1.754,-1.556 -1.128,-1.128 -2.406,-2.407 -5.146,-3.671 -4.279,-1.975 -4.732,-3.598 -4.77,-3.776 -0.047,-0.226 0.098,-0.449 0.324,-0.496 0.219,-0.047 0.441,0.092 0.494,0.312 0.014,0.046 0.476,1.434 4.303,3.2 2.875,1.327 4.268,2.72 5.387,3.839 0.564,0.563 1.05,1.05 1.641,1.461 0.237,0.165 0.455,0.311 0.654,0.444 1.392,0.931 2.028,1.356 2.127,3.617 0.081,1.833 0.482,2.513 0.871,3.171 0.22,0.372 0.447,0.757 0.577,1.306 0.118,0.503 0.305,0.754 0.503,1.02 0.31,0.416 0.631,0.847 0.631,1.961 0,0.293 0.007,0.575 0.014,0.85 0.032,1.333 0.063,2.593 -0.693,4.413 l -0.169,0.411 c -0.768,1.878 -1.324,3.235 -4.373,4.278 -3.08,1.054 -14.338,2.624 -14.816,2.691 -0.127,0.017 -0.248,-0.022 -0.34,-0.105 -0.092,-0.084 -0.142,-0.204 -0.136,-0.328 0.004,-0.085 0.32,-8.602 -5.016,-14.182 -3.106,-3.248 -7.517,-4.895 -13.109,-4.895 -5.159,0 -9.315,1.608 -12.353,4.779 -6.078,6.345 -5.695,16.936 -5.691,17.042 0.005,0.114 -0.037,0.225 -0.115,0.307 -0.079,0.082 -0.188,0.129 -0.302,0.13 l -89.318,0.391 c 0,0 -10e-4,0 -10e-4,0 z"
     id="path151"
     inkscape:connector-curvature="0"
     style="fill:#4e4e4e" /><path
     d="m 24.981,24.847434 c -1.298,0 -2.122,-0.256 -2.283,-1.366 -0.267,-1.845 2.688,-3.148 6.428,-4.799 1.455,-0.642 2.96,-1.306 4.307,-2.028 l 0.539,-0.291 C 51.36,6.9594337 70.752,2.1904337 91.61,2.1904337 c 27.086,0 39.064,4.722 43.793,7.537 0.091,0.054 0.164,0.097 0.219,0.129 1.169,0.6570003 2.422,1.7380003 1.738,4.2800003 -0.593,2.2 -2.241,3.702 -2.311,3.765 -0.073,0.065 -0.166,0.103 -0.265,0.107 -0.275,0.01 -27.701,1.06 -42.429,1.701 -14.721,0.64 -39.656,2.571 -39.906,2.59 -0.219,0.027 -0.432,-0.154 -0.45,-0.385 -0.018,-0.231 0.155,-0.432 0.386,-0.45 0.25,-0.02 25.199,-1.952 39.935,-2.592 14.143,-0.615 39.992,-1.607 42.274,-1.694 0.355,-0.355 1.512,-1.606 1.957,-3.259 0.502,-1.865 -0.14,-2.658 -1.339,-3.332 -0.06,-0.034 -0.139,-0.081 -0.237,-0.139 C 130.32,7.6774337 118.496,3.0294337 91.61,3.0294337 c -20.717,0 -39.975,4.734 -57.239,14.0720003 l -0.542,0.292 c -1.376,0.737 -2.896,1.408 -4.365,2.056 -3.005,1.326 -6.113,2.697 -5.937,3.912 0.1,0.692 0.713,0.728 3.086,0.571 l 0.596,-0.039 c 2.555,-0.16 15.244,-1.363 15.372,-1.375 0.236,-0.021 0.435,0.148 0.457,0.378 0.022,0.23 -0.147,0.435 -0.378,0.457 -0.128,0.012 -12.831,1.217 -15.399,1.378 l -0.593,0.038 c -0.624,0.041 -1.191,0.078 -1.687,0.078 z"
     id="path153"
     inkscape:connector-curvature="0"
     style="fill:#4e4e4e" /><path
     d="m 25.838,24.820434 c -0.082,0 -0.165,-0.024 -0.237,-0.075 -0.252,-0.176 -0.671,-0.633 -0.644,-1.234 0.028,-0.621 0.507,-1.201 1.422,-1.721 1.25,-0.711 12.638,-7.094 27.436,-12.3670003 14.063,-5.011 34.976,-5.927 35.185,-5.935 0.155,-0.004 0.277,0.06 0.358,0.175 0.082,0.115 0.101,0.263 0.05,0.395 L 83.27,19.936434 c -0.083,0.216 -0.326,0.323 -0.542,0.24 -0.216,-0.083 -0.323,-0.326 -0.24,-0.542 L 88.395,4.3574337 c -3.618,0.197 -21.737,1.379 -34.298,5.8550003 -14.732,5.249 -26.06,11.599 -27.303,12.306 -0.627,0.357 -0.982,0.721 -0.999,1.027 -0.016,0.29 0.285,0.512 0.289,0.514 0.186,0.135 0.23,0.396 0.097,0.583 -0.083,0.116 -0.212,0.178 -0.343,0.178 z"
     id="path155"
     inkscape:connector-curvature="0"
     style="fill:#4e4e4e" /><path
     d="m 87.643,53.749434 c -0.19,0 -0.363,-0.131 -0.408,-0.325 -1.548,-6.687 -1.349,-15.3 -1.065,-21.197 0.312,-6.46 2.279,-12.407 2.441,-12.886 L 91.764,2.5334337 c 0.043,-0.228 0.261,-0.379 0.489,-0.335 0.227,0.043 0.377,0.262 0.334,0.489 L 89.43,19.525434 c -0.004,0.02 -0.009,0.04 -0.016,0.06 -0.021,0.06 -2.089,6.103 -2.407,12.683 -0.282,5.847 -0.481,14.383 1.044,20.968 0.052,0.225 -0.088,0.45 -0.314,0.502 -0.03,0.008 -0.062,0.011 -0.094,0.011 z"
     id="path157"
     inkscape:connector-curvature="0"
     style="fill:#4e4e4e" /><path
     d="m 93.154,19.675434 c -0.014,0 -0.028,-10e-4 -0.043,-0.002 -0.23,-0.023 -0.398,-0.229 -0.374,-0.459 L 94.435,2.5924337 c 0.023,-0.23 0.233,-0.394 0.459,-0.374 0.23,0.023 0.398,0.229 0.374,0.459 L 93.57,19.299434 c -0.021,0.215 -0.203,0.376 -0.416,0.376 z"
     id="path159"
     inkscape:connector-curvature="0"
     style="fill:#4e4e4e" /><path
     d="m 94.003,19.675434 c -0.014,0 -0.029,-10e-4 -0.043,-0.002 -0.23,-0.023 -0.398,-0.229 -0.374,-0.459 L 95.284,2.5924337 c 0.023,-0.23 0.237,-0.394 0.459,-0.374 0.23,0.023 0.398,0.229 0.374,0.459 L 94.419,19.299434 c -0.021,0.215 -0.203,0.376 -0.416,0.376 z"
     id="path161"
     inkscape:connector-curvature="0"
     style="fill:#4e4e4e" /><path
     d="m 122.462,18.091434 c -0.017,0 -0.034,-0.001 -0.052,-0.003 -0.229,-0.028 -0.392,-0.238 -0.364,-0.467 l 1.256,-10.1240003 c -0.537,-0.165 -2.313,-0.632 -7.633,-1.558 -7.333,-1.275 -19.853,-1.61 -19.978,-1.614 -0.231,-0.006 -0.414,-0.198 -0.408,-0.43 0.006,-0.228 0.193,-0.408 0.419,-0.408 0.003,0 0.007,0 0.011,0 0.126,0.003 12.706,0.34 20.1,1.626 6.999,1.217 8.037,1.664 8.188,1.772 0.125,0.089 0.191,0.24 0.172,0.393 l -1.296,10.4460003 c -0.026,0.212 -0.207,0.367 -0.415,0.367 z"
     id="path163"
     inkscape:connector-curvature="0"
     style="fill:#4e4e4e" /><path
     d="m 123.757,18.091434 c -0.014,0 -0.029,-0.001 -0.043,-0.002 -0.23,-0.023 -0.398,-0.229 -0.374,-0.459 l 1.053,-10.2840003 c 0.012,-0.12 0.075,-0.228 0.173,-0.298 0.098,-0.07 0.221,-0.095 0.338,-0.067 0.184,0.043 4.555,1.066 7.641,2.796 2.813,1.5770003 2.296,3.3640003 1.664,4.5720003 -0.657,1.253 -2.354,3.484 -2.426,3.578 -0.14,0.184 -0.402,0.22 -0.588,0.079 -0.184,-0.14 -0.219,-0.403 -0.079,-0.587 0.017,-0.023 1.726,-2.269 2.35,-3.459 0.53,-1.012 0.908,-2.197 -1.332,-3.452 -2.412,-1.3530003 -5.747,-2.2840003 -6.957,-2.5960003 l -1.004,9.8030003 c -0.021,0.215 -0.203,0.376 -0.416,0.376 z"
     id="path165"
     inkscape:connector-curvature="0"
     style="fill:#4e4e4e" /><path
     d="m 151.602,38.385434 c -0.179,0 -0.344,-0.115 -0.4,-0.294 -0.069,-0.221 0.055,-0.456 0.276,-0.525 0.437,-0.136 10.75,-3.344 14.313,-4.069 3.002,-0.611 3.276,-1.093 3.653,-1.761 0.055,-0.096 0.111,-0.195 0.174,-0.297 0.527,-0.849 1.291,-2.478 1.299,-2.494 0.098,-0.21 0.346,-0.3 0.558,-0.202 0.21,0.098 0.3,0.348 0.202,0.557 -0.032,0.069 -0.793,1.689 -1.347,2.581 -0.057,0.092 -0.107,0.181 -0.156,0.267 -0.52,0.919 -1.002,1.516 -4.216,2.169 -3.521,0.716 -14.124,4.014 -14.231,4.048 -0.042,0.014 -0.084,0.02 -0.125,0.02 z"
     id="path167"
     inkscape:connector-curvature="0"
     style="fill:#4e4e4e" /><path
     d="m 157.568,41.493434 -0.029,-0.837 c 0,0 8.745,-0.304 12.966,-0.456 2.923,-0.105 5.391,-0.246 5.998,-0.904 0.094,-0.102 0.134,-0.213 0.127,-0.358 -0.01,-0.231 0.168,-0.427 0.399,-0.438 0.23,-0.007 0.427,0.168 0.438,0.399 0.017,0.371 -0.1,0.696 -0.348,0.964 -0.764,0.829 -2.649,1.033 -6.584,1.174 -4.221,0.152 -12.967,0.456 -12.967,0.456 z"
     id="path169"
     inkscape:connector-curvature="0"
     style="fill:#4e4e4e" /><path
     d="m 168.212,38.760434 c -0.194,0 -0.368,-0.136 -0.41,-0.333 -0.047,-0.226 0.098,-0.448 0.325,-0.496 6.624,-1.385 7.827,-1.527 7.875,-1.532 0.23,-0.027 0.436,0.14 0.462,0.369 0.026,0.23 -0.139,0.437 -0.368,0.463 -0.049,0.006 -1.263,0.153 -7.798,1.519 -0.029,0.007 -0.058,0.01 -0.086,0.01 z"
     id="path171"
     inkscape:connector-curvature="0"
     style="fill:#4e4e4e" /><path
     d="m 175.996,50.212434 c -0.195,0 -0.37,-0.137 -0.41,-0.336 -0.046,-0.227 0.101,-0.447 0.327,-0.493 0.03,-0.007 1.223,-0.271 1.749,-1.229 0.42,-0.764 -0.223,-1.785 -0.23,-1.795 -0.125,-0.195 -0.069,-0.454 0.125,-0.579 0.194,-0.125 0.453,-0.07 0.578,0.124 0.038,0.058 0.923,1.447 0.261,2.653 -0.72,1.311 -2.252,1.634 -2.317,1.647 -0.027,0.005 -0.055,0.008 -0.083,0.008 z"
     id="path173"
     inkscape:connector-curvature="0"
     style="fill:#4e4e4e" /><path
     d="m 158.495,54.449434 c -0.231,0 -0.419,-0.188 -0.419,-0.419 0,-0.39 0.108,-0.407 1.433,-0.618 3.007,-0.479 12.157,-1.936 14.457,-5.432 1.835,-2.791 2.031,-4.789 2.189,-6.396 0.089,-0.91 0.166,-1.695 0.518,-2.423 0.1,-0.208 0.353,-0.295 0.559,-0.195 0.208,0.101 0.296,0.351 0.195,0.56 -0.286,0.594 -0.354,1.276 -0.439,2.14 -0.158,1.608 -0.374,3.811 -2.322,6.774 -2.503,3.806 -11.6,5.254 -15.025,5.8 -0.42,0.067 -0.818,0.13 -0.951,0.161 -0.058,0.031 -0.124,0.048 -0.195,0.048 z"
     id="path175"
     inkscape:connector-curvature="0"
     style="fill:#4e4e4e" /><path
     d="m 173.17,31.171434 c -0.034,0 -0.068,-0.004 -0.102,-0.013 -0.224,-0.056 -0.361,-0.283 -0.305,-0.508 0.116,-0.466 0.37,-1.812 0.154,-2.436 -0.063,-0.11 -0.289,-0.289 -0.637,-0.514 -0.052,-0.02 -0.099,-0.051 -0.139,-0.088 -1.257,-0.791 -3.801,-2.08 -6.108,-3.13 -1.307,-0.484 -1.374,-0.795 -1.329,-1.07 0.073,-0.44 0.596,-0.454 0.793,-0.459 0.857,-0.017 1.418,0.219 2.439,0.655 0.553,0.236 1.241,0.531 2.211,0.889 2.605,0.962 2.817,1.762 2.728,2.622 0.455,0.323 0.758,0.607 0.833,0.823 0.335,0.97 -0.085,2.717 -0.134,2.913 -0.045,0.189 -0.216,0.316 -0.404,0.316 z m -4.177,-6.219 c 1.058,0.52 2.122,1.073 2.972,1.58 -0.18,-0.334 -0.701,-0.731 -2.107,-1.25 -0.316,-0.117 -0.603,-0.227 -0.865,-0.33 z"
     id="path177"
     inkscape:connector-curvature="0"
     style="fill:#4e4e4e" /><path
     d="m 173.44,28.962434 c -0.001,0 -0.002,0 -0.004,0 -0.231,-0.002 -0.417,-0.191 -0.415,-0.423 0.001,-0.029 0.025,-2.891 -0.02,-3.719 -0.01,-0.181 -0.008,-0.368 -0.005,-0.567 0.011,-0.735 0.023,-1.569 -0.639,-2.983 -0.845,-1.806 -1.543,-2.703 -1.551,-2.712 -0.143,-0.182 -0.112,-0.445 0.07,-0.588 0.182,-0.143 0.445,-0.113 0.588,0.069 0.031,0.039 0.762,0.971 1.653,2.876 0.743,1.589 0.729,2.565 0.717,3.35 -0.002,0.178 -0.005,0.346 0.004,0.509 0.046,0.854 0.022,3.653 0.021,3.772 -0.002,0.231 -0.19,0.416 -0.419,0.416 z"
     id="path179"
     inkscape:connector-curvature="0"
     style="fill:#4e4e4e" /><path
     d="m 172.287,26.652434 c -0.208,0 -0.389,-0.155 -0.415,-0.368 -0.085,-0.687 -0.37,-2.623 -0.674,-3.324 -0.333,-0.767 -0.46,-0.908 -1.471,-1.143 -0.875,-0.203 -6.106,-0.061 -8.048,0.011 -0.166,0.004 -0.319,-0.086 -0.392,-0.234 -0.073,-0.149 -0.051,-0.326 0.055,-0.453 1.018,-1.216 3.477,-2.08 5.646,-2.841 0.774,-0.271 1.504,-0.528 2.122,-0.782 0.936,-0.385 0.965,-0.648 0.965,-0.65 0.002,-0.086 -0.222,-0.267 -0.396,-0.345 -0.211,-0.094 -0.306,-0.342 -0.212,-0.553 0.095,-0.212 0.343,-0.306 0.554,-0.212 0.092,0.041 0.902,0.422 0.892,1.122 -0.008,0.543 -0.493,1.006 -1.485,1.413 -0.638,0.262 -1.379,0.522 -2.163,0.798 -1.56,0.548 -3.277,1.15 -4.4,1.86 2.109,-0.064 6.161,-0.155 7.051,0.051 1.231,0.286 1.595,0.575 2.051,1.626 0.414,0.956 0.723,3.449 0.736,3.555 0.028,0.23 -0.135,0.439 -0.364,0.467 -0.017,10e-4 -0.035,0.002 -0.052,0.002 z"
     id="path181"
     inkscape:connector-curvature="0"
     style="fill:#4e4e4e" /><path
     d="m 117.683,21.605434 c -0.204,0 -0.383,-0.149 -0.414,-0.358 -0.034,-0.229 0.124,-0.442 0.354,-0.476 0.138,-0.02 13.96,-2.041 26.358,-2.041 12.345,0 20.161,-0.839 20.238,-0.848 0.236,-0.023 0.437,0.141 0.462,0.371 0.026,0.23 -0.141,0.437 -0.37,0.462 -0.078,0.008 -7.94,0.853 -20.33,0.853 -12.337,0 -26.098,2.012 -26.235,2.032 -0.022,0.004 -0.043,0.005 -0.063,0.005 z"
     id="path183"
     inkscape:connector-curvature="0"
     style="fill:#4e4e4e" /><path
     d="m 41.229,54.973434 c -1.007,0 -2.043,-0.029 -3.13,-0.099 -5.791,-0.374 -6.036,-5.206 -6.234,-9.089 -0.031,-0.603 -0.061,-1.195 -0.109,-1.759 -0.081,-0.946 -0.153,-1.675 -0.216,-2.305 -0.219,-2.218 -0.32,-3.23 -0.272,-8.081 0.058,-5.941 2.008,-9.578 2.283,-10.062 l 1.743,-6.24 c 0.062,-0.223 0.293,-0.354 0.517,-0.291 0.223,0.062 0.353,0.293 0.291,0.516 l -1.757,6.291 c -0.01,0.035 -0.025,0.07 -0.043,0.101 -0.022,0.036 -2.136,3.678 -2.195,9.692 -0.047,4.806 0.052,5.804 0.268,7.99 0.063,0.634 0.135,1.366 0.217,2.317 0.049,0.573 0.08,1.175 0.111,1.788 0.199,3.918 0.405,7.969 5.45,8.295 3.394,0.219 6.303,0.027 9.383,-0.177 2.663,-0.176 5.416,-0.358 8.874,-0.331 3.784,0.031 10.656,-0.139 17.935,-0.317 7.269,-0.179 15.507,-0.381 21.841,-0.411 3.413,-0.019 6.331,0.059 8.907,0.125 6.739,0.174 10.451,0.27 11.698,-1.58 0.6,-0.89 0.974,-2.164 1.408,-3.637 0.859,-2.922 2.036,-6.923 5.931,-10.818 2.369,-2.369 3.858,-3.28 4.946,-3.946 1.519,-0.93 2.213,-1.354 3.645,-5.02 2.408,-6.167 1.648,-10.211 1.64,-10.251 -0.045,-0.227 0.102,-0.448 0.328,-0.493 0.227,-0.046 0.447,0.101 0.493,0.328 0.035,0.173 0.825,4.304 -1.681,10.722 -1.534,3.929 -2.354,4.431 -3.988,5.43 -1.051,0.644 -2.492,1.525 -4.79,3.824 -3.744,3.744 -4.84,7.469 -5.72,10.462 -0.453,1.541 -0.844,2.871 -1.517,3.869 -1.504,2.231 -5.378,2.131 -12.414,1.95 -2.571,-0.067 -5.488,-0.144 -8.881,-0.125 -6.326,0.03 -14.56,0.233 -21.825,0.411 -7.286,0.179 -14.166,0.347 -17.962,0.318 -3.436,-0.03 -6.165,0.154 -8.812,0.329 -2.13,0.139 -4.178,0.274 -6.363,0.274 z"
     id="path185"
     inkscape:connector-curvature="0"
     style="fill:#4e4e4e" /><path
     d="m 36.578,23.919434 c -0.017,0 -0.035,-10e-4 -0.053,-0.003 -0.23,-0.029 -0.392,-0.239 -0.363,-0.469 l 0.875,-6.88 c 0.029,-0.23 0.232,-0.391 0.469,-0.363 0.23,0.029 0.392,0.239 0.363,0.469 l -0.875,6.88 c -0.027,0.212 -0.208,0.366 -0.416,0.366 z"
     id="path187"
     inkscape:connector-curvature="0"
     style="fill:#4e4e4e" /><path
     d="m 46.233,27.191434 -2.612,0 c -0.895,0 -1.457,-0.259 -1.942,-0.894 -0.141,-0.184 -0.105,-0.447 0.079,-0.587 0.184,-0.14 0.447,-0.104 0.587,0.079 0.286,0.374 0.562,0.564 1.276,0.564 l 2.612,0 c 0.11,-0.003 0.689,-0.057 0.767,-0.837 0.118,-1.181 0.127,-4.091 0.127,-4.12 10e-4,-0.231 0.188,-0.418 0.419,-0.418 0.205,-0.006 0.42,0.188 0.419,0.42 -0.001,0.121 -0.009,2.98 -0.131,4.201 -0.125,1.259 -1.102,1.592 -1.601,1.592 z"
     id="path189"
     inkscape:connector-curvature="0"
     style="fill:#4e4e4e" /><path
     d="m 47.009,21.603434 c -2.76,0 -4.474,-1.324 -4.474,-3.456 0,-0.231 0.188,-0.419 0.419,-0.419 0.231,0 0.419,0.188 0.419,0.419 0,1.639 1.36,2.617 3.636,2.617 2.668,0 4.367,-1.006 4.546,-2.692 0.075,-0.704 -0.16,-1.362 -0.679,-1.903 -0.711,-0.743 -1.857,-1.14 -3.069,-1.066 -0.227,0.017 -0.43,-0.161 -0.445,-0.392 -0.014,-0.231 0.161,-0.43 0.392,-0.444 1.456,-0.092 2.847,0.403 3.726,1.323 0.685,0.715 1.007,1.628 0.907,2.571 -0.227,2.156 -2.238,3.442 -5.378,3.442 z"
     id="path191"
     inkscape:connector-curvature="0"
     style="fill:#4e4e4e" /><path
     d="m 46.392,20.609434 c -0.835,0 -1.625,-0.276 -2.183,-0.777 -0.532,-0.478 -0.814,-1.119 -0.793,-1.805 0.047,-1.552 1.395,-2.579 3.605,-2.746 1.371,-0.102 3.298,-0.03 4.232,1.795 0.105,0.206 0.023,0.458 -0.182,0.564 -0.207,0.105 -0.459,0.023 -0.564,-0.183 -0.552,-1.079 -1.574,-1.479 -3.422,-1.341 -1.739,0.131 -2.798,0.855 -2.83,1.935 -0.017,0.558 0.271,0.937 0.515,1.156 0.493,0.443 1.254,0.641 2.035,0.534 0.223,-0.032 0.44,0.128 0.472,0.357 0.032,0.229 -0.128,0.441 -0.358,0.472 -0.177,0.027 -0.353,0.039 -0.527,0.039 z"
     id="path193"
     inkscape:connector-curvature="0"
     style="fill:#4e4e4e" /><path
     d="m 42.62,26.765434 c -0.034,0 -0.069,-0.004 -0.103,-0.013 -0.225,-0.057 -0.361,-0.285 -0.304,-0.509 l 1.477,-5.839 c 0.057,-0.225 0.289,-0.36 0.509,-0.303 0.225,0.057 0.361,0.285 0.304,0.509 l -1.477,5.839 c -0.048,0.19 -0.219,0.316 -0.406,0.316 z"
     id="path195"
     inkscape:connector-curvature="0"
     style="fill:#4e4e4e" /><path
     d="m 42.194,24.727434 c -0.063,0 -0.127,-0.014 -0.187,-0.044 -0.207,-0.104 -0.291,-0.355 -0.187,-0.562 l 1.902,-3.8 c 0.104,-0.207 0.354,-0.291 0.563,-0.187 0.207,0.104 0.291,0.355 0.187,0.562 l -1.902,3.8 c -0.074,0.146 -0.222,0.231 -0.376,0.231 z"
     id="path197"
     inkscape:connector-curvature="0"
     style="fill:#4e4e4e" /><path
     d="m 51.986,18.349434 -8.03,0 c -0.231,0 -0.419,-0.188 -0.419,-0.419 0,-0.231 0.188,-0.419 0.419,-0.419 l 8.03,0 c 0.231,0 0.419,0.188 0.419,0.419 0,0.231 -0.188,0.419 -0.419,0.419 z"
     id="path199"
     inkscape:connector-curvature="0"
     style="fill:#4e4e4e" /><path
     d="m 143.373,27.889434 c -0.002,0 -0.004,0 -0.006,0 -0.045,-0.001 -4.527,-0.117 -4.724,-4.501 -0.045,-0.995 0.224,-1.805 0.8,-2.407 0.869,-0.909 2.196,-1.099 3.157,-1.099 1.372,0 2.866,0.398 3.634,0.968 0.982,0.728 1.651,2.837 1.079,4.571 -0.305,0.922 -1.222,2.468 -3.94,2.468 z m -0.774,-7.169 c -1.127,0 -2.033,0.298 -2.551,0.84 -0.411,0.43 -0.602,1.033 -0.569,1.79 0.161,3.567 3.706,3.696 3.897,3.7 1.646,-10e-4 2.731,-0.656 3.139,-1.893 0.449,-1.36 -0.061,-3.101 -0.781,-3.635 -0.524,-0.388 -1.802,-0.802 -3.135,-0.802 z"
     id="path201"
     inkscape:connector-curvature="0"
     style="fill:#4e4e4e" /><path
     d="m 157.84,40.415434 c -0.161,0 -0.314,-0.093 -0.384,-0.249 -0.038,-0.086 -3.959,-8.586 -16.829,-8.995 -2.528,-0.079 -4.648,0.277 -6.393,0.637 -0.221,0.049 -0.448,-0.098 -0.495,-0.326 -0.047,-0.226 0.099,-0.448 0.326,-0.495 1.792,-0.37 3.98,-0.737 6.588,-0.654 13.421,0.426 17.53,9.403 17.57,9.494 0.093,0.211 -0.003,0.458 -0.214,0.552 -0.055,0.024 -0.113,0.036 -0.169,0.036 z"
     id="path203"
     inkscape:connector-curvature="0"
     style="fill:#4e4e4e" /><path
     d="m 121.218,25.834434 0,0 c -0.079,0 -0.157,-0.004 -0.235,-0.012 -1.263,-0.126 -1.987,-0.588 -1.987,-1.267 0,-2.024 3.569,-2.249 5.931,-2.398 0.239,-0.015 0.458,-0.029 0.651,-0.044 0.798,-0.061 1.655,-0.117 2.522,-0.117 2.319,0 3.518,0.417 3.774,1.311 0.102,0.355 0.059,0.702 -0.123,1.001 -0.448,0.735 -1.671,1.063 -2.687,1.266 -0.733,0.146 -1.521,0.04 -2.323,-0.101 -0.635,-0.111 -1.301,-0.226 -2.09,-0.204 -0.92,0.026 -1.578,0.196 -2.158,0.345 -0.462,0.118 -0.859,0.22 -1.275,0.22 z m 6.881,-3.001 c -0.839,0 -1.677,0.055 -2.457,0.115 -0.196,0.015 -0.42,0.029 -0.663,0.044 -1.67,0.106 -5.145,0.325 -5.145,1.562 0,0.091 0.355,0.346 1.232,0.433 0.051,0.005 0.101,0.007 0.152,0.007 l 0,0 c 0.31,0 0.643,-0.086 1.064,-0.194 0.592,-0.152 1.329,-0.342 2.343,-0.371 0.878,-0.024 1.616,0.103 2.258,0.216 0.727,0.127 1.408,0.225 2.014,0.104 1.209,-0.242 1.928,-0.538 2.136,-0.88 0.041,-0.067 0.082,-0.166 0.034,-0.334 -0.047,-0.163 -0.401,-0.702 -2.968,-0.702 z"
     id="path205"
     inkscape:connector-curvature="0"
     style="fill:#4e4e4e" /><path
     d="m 119.451,25.153434 c -0.189,0 -0.36,-0.128 -0.406,-0.32 -0.055,-0.225 0.083,-0.451 0.308,-0.506 0.052,-0.013 5.342,-1.276 12.12,-1.098 0.231,0.006 0.414,0.198 0.408,0.43 -0.006,0.228 -0.193,0.408 -0.419,0.408 -0.003,0 -0.007,0 -0.011,0 -6.677,-0.172 -11.848,1.062 -11.899,1.075 -0.034,0.007 -0.068,0.011 -0.101,0.011 z"
     id="path207"
     inkscape:connector-curvature="0"
     style="fill:#4e4e4e" /><path
     d="m 124.668,27.312434 c -3.592,0 -6.162,-1.134 -6.397,-2.823 -0.032,-0.229 0.128,-0.441 0.357,-0.472 0.234,-0.031 0.441,0.128 0.473,0.357 0.141,1.018 2.14,2.1 5.567,2.1 3.664,0 6.683,-1.033 6.873,-2.352 0.033,-0.229 0.245,-0.387 0.475,-0.355 0.229,0.033 0.388,0.245 0.355,0.474 -0.306,2.122 -4.09,3.071 -7.703,3.071 z"
     id="path209"
     inkscape:connector-curvature="0"
     style="fill:#4e4e4e" /><path
     d="m 119.141,23.840434 c -0.112,0 -0.224,-0.045 -0.307,-0.134 -0.157,-0.169 -0.147,-0.435 0.022,-0.592 0.081,-0.075 2.019,-1.833 6.024,-1.833 0.231,0 0.419,0.188 0.419,0.419 0,0.231 -0.188,0.419 -0.419,0.419 -3.679,0 -5.437,1.592 -5.454,1.608 -0.08,0.076 -0.183,0.113 -0.285,0.113 z"
     id="path211"
     inkscape:connector-curvature="0"
     style="fill:#4e4e4e" /><path
     d="m 77.358,30.834434 c -3.673,0 -4.517,-1.188 -5.118,-2.511 -0.096,-0.211 -0.003,-0.459 0.208,-0.555 0.21,-0.096 0.459,-0.004 0.555,0.208 0.43,0.947 0.918,2.02 4.355,2.02 3.342,0 4.276,-1.479 4.285,-1.494 0.07,-0.115 0.194,-0.195 0.328,-0.205 1.15,-0.091 2.743,-0.523 2.741,-1.099 -0.001,-0.28 -0.083,-0.475 -0.258,-0.616 -0.507,-0.407 -1.662,-0.271 -2.027,-0.191 -0.223,0.049 -0.449,-0.093 -0.499,-0.319 -0.05,-0.226 0.093,-0.45 0.32,-0.499 0.182,-0.041 1.822,-0.373 2.731,0.355 0.372,0.299 0.57,0.737 0.571,1.267 0.004,1.45 -2.454,1.831 -3.319,1.92 -0.392,0.487 -1.698,1.719 -4.873,1.719 z"
     id="path213"
     inkscape:connector-curvature="0"
     style="fill:#4e4e4e" /><path
     d="m 74.459,28.961434 c -0.823,0 -1.194,-0.13 -1.433,-0.33 -0.186,-0.154 -0.291,-0.369 -0.307,-0.62 -0.014,-0.231 0.163,-0.429 0.394,-0.443 0.214,-0.02 0.429,0.162 0.443,0.393 0.001,0.019 0.004,0.026 0.004,0.026 0.058,0.069 0.445,0.282 2.928,-0.022 2.735,-0.334 5.391,-0.238 5.502,-0.234 0.919,-0.038 2.237,-0.35 2.237,-0.838 0,-0.231 0.188,-0.419 0.419,-0.419 0.231,0 0.419,0.188 0.419,0.419 0,1.513 -2.761,1.663 -3.076,1.675 -0.058,0 -2.733,-0.097 -5.4,0.229 -0.936,0.114 -1.62,0.164 -2.13,0.164 z"
     id="path215"
     inkscape:connector-curvature="0"
     style="fill:#4e4e4e" /><path
     d="m 21.356,33.719434 c -0.202,0 -0.38,-0.146 -0.413,-0.352 -0.037,-0.228 0.118,-0.444 0.347,-0.48 0.088,-0.014 8.907,-1.428 20.956,-2.87 9.181,-1.099 16.599,-1.815 20.164,-2.159 l 1.295,-0.126 c 3.804,-0.373 7.721,-0.671 8.696,-0.744 0.963,-1.603 3.763,-2.336 6.05,-2.336 2.12,0 3.222,1.045 3.268,1.09 0.117,0.113 0.158,0.285 0.104,0.439 -0.054,0.154 -0.193,0.263 -0.355,0.279 -0.031,0.003 -3.148,0.307 -5.571,0.636 -1.491,0.202 -1.948,0.382 -2.071,0.446 -0.052,0.083 -0.133,0.148 -0.234,0.178 -0.209,0.062 -0.424,-0.044 -0.507,-0.239 -0.016,0.029 -0.031,0.058 -0.044,0.087 -0.064,0.137 -0.198,0.228 -0.349,0.239 -0.045,0.003 -4.549,0.333 -8.905,0.76 l -1.296,0.125 c -3.562,0.344 -10.974,1.059 -20.146,2.157 -12.03,1.44 -20.835,2.851 -20.922,2.865 -0.022,0.004 -0.044,0.005 -0.067,0.005 z m 57.095,-8.229 c -1.567,0 -3.388,0.387 -4.506,1.12 0.385,-0.109 0.961,-0.226 1.838,-0.345 1.456,-0.198 3.159,-0.386 4.301,-0.507 -0.417,-0.149 -0.962,-0.268 -1.633,-0.268 z"
     id="path217"
     inkscape:connector-curvature="0"
     style="fill:#4e4e4e" /><path
     d="m 73.137,28.314434 c -0.214,0 -0.397,-0.163 -0.417,-0.381 -0.021,-0.231 0.149,-0.434 0.379,-0.456 l 8.29,-0.759 c 0.226,-0.018 0.434,0.148 0.456,0.379 0.021,0.231 -0.149,0.434 -0.379,0.456 l -8.29,0.759 c -0.014,0.002 -0.026,0.002 -0.039,0.002 z"
     id="path219"
     inkscape:connector-curvature="0"
     style="fill:#4e4e4e" /><path
     d="m 82.049,27.889434 c -0.39,0 -0.707,-0.318 -0.707,-0.708 0,-0.39 0.317,-0.707 0.707,-0.707 0.39,0 0.708,0.317 0.708,0.707 0,0.391 -0.318,0.708 -0.708,0.708 z m 0,-0.838 c -0.072,0 -0.13,0.058 -0.13,0.13 0,0.144 0.261,0.144 0.261,0 0,-0.072 -0.059,-0.13 -0.131,-0.13 z"
     id="path221"
     inkscape:connector-curvature="0"
     style="fill:#4e4e4e" /><path
     d="m 83.628,27.403434 c -0.323,0 -0.586,-0.263 -0.586,-0.586 0,-0.323 0.263,-0.586 0.586,-0.586 0.324,0 0.587,0.263 0.587,0.586 0,0.323 -0.263,0.586 -0.587,0.586 z m 0,-0.838 c -0.139,0 -0.252,0.113 -0.252,0.252 0,0.139 0.113,0.252 0.252,0.252 0.139,0 0.252,-0.113 0.252,-0.252 0,-0.139 -0.113,-0.252 -0.252,-0.252 z"
     id="path223"
     inkscape:connector-curvature="0"
     style="fill:#4e4e4e" /><path
     d="m 25.388,58.847434 c -0.048,0 -0.089,-0.007 -0.123,-0.016 -0.223,-0.061 -0.355,-0.291 -0.294,-0.514 0.034,-0.126 0.122,-0.223 0.232,-0.272 0.613,-0.842 2.778,-8.152 -1.088,-15.035 -0.113,-0.202 -0.041,-0.457 0.16,-0.57 0.203,-0.113 0.458,-0.041 0.571,0.16 4.102,7.305 1.779,14.983 0.991,15.994 -0.159,0.203 -0.324,0.253 -0.449,0.253 z"
     id="path225"
     inkscape:connector-curvature="0"
     style="fill:#4e4e4e" /><path
     d="m 28.044,20.041434 c -0.119,0 -0.237,-0.05 -0.32,-0.149 l -1.646,-1.95 c -0.149,-0.177 -0.127,-0.441 0.05,-0.591 0.177,-0.149 0.441,-0.127 0.59,0.05 l 1.646,1.95 c 0.149,0.177 0.127,0.441 -0.05,0.591 -0.078,0.066 -0.174,0.099 -0.27,0.099 z"
     id="path227"
     inkscape:connector-curvature="0"
     style="fill:#4e4e4e" /><path
     d="m 43.357,21.603434 c -0.072,0 -0.145,-0.019 -0.212,-0.058 -0.137,-0.081 -3.369,-1.985 -4.098,-2.472 -0.196,-0.131 -0.605,-0.403 -0.571,-0.83 0.039,-0.49 0.572,-0.733 1.54,-1.174 0.256,-0.116 0.653,-0.309 1.165,-0.557 2.232,-1.081 6.387,-3.093 10.664,-4.62 1.381,-0.493 2.82,-1.069 4.343,-1.679 4.35,-1.7400003 9.281,-3.7130003 15.804,-5.0180003 0.224,-0.044 0.447,0.102 0.493,0.329 0.045,0.227 -0.101,0.448 -0.328,0.493 -6.448,1.29 -11.341,3.247 -15.657,4.9740003 -1.531,0.612 -2.977,1.191 -4.373,1.689 -4.234,1.512 -8.362,3.511 -10.58,4.585 -0.52,0.252 -0.923,0.447 -1.183,0.565 -0.289,0.131 -0.729,0.333 -0.954,0.472 0.028,0.02 0.061,0.044 0.102,0.071 0.71,0.474 4.025,2.427 4.059,2.447 0.199,0.117 0.266,0.374 0.148,0.574 -0.078,0.136 -0.218,0.209 -0.362,0.209 z"
     id="path229"
     inkscape:connector-curvature="0"
     style="fill:#4e4e4e" /><path
     d="m 51.392,16.546434 c -0.151,0 -0.297,-0.082 -0.372,-0.225 -0.107,-0.205 -0.028,-0.458 0.176,-0.566 0.042,-0.022 4.262,-2.219 10.48,-4.172 l 0.462,-0.145 C 68.481,9.4454337 72.67,8.1294337 77.242,7.6994337 c 5.31,-0.501 7.417,0.886 8.2,1.756 0.958,1.0630003 0.607,2.5910003 0.351,3.7060003 -0.043,0.186 -0.084,0.365 -0.118,0.534 -0.045,0.227 -0.262,0.376 -0.493,0.33 -0.227,-0.045 -0.374,-0.266 -0.329,-0.493 0.035,-0.176 0.078,-0.364 0.123,-0.558 0.238,-1.039 0.509,-2.218 -0.157,-2.957 -0.546,-0.6070003 -2.367,-1.9640003 -7.499,-1.4830003 -4.483,0.422 -8.416,1.6570003 -14.931,3.7040003 l -0.462,0.145 c -6.142,1.929 -10.301,4.093 -10.342,4.115 -0.061,0.033 -0.127,0.048 -0.193,0.048 z"
     id="path231"
     inkscape:connector-curvature="0"
     style="fill:#4e4e4e" /><path
     d="m 114.285,18.809434 c -0.029,0 -0.058,-0.003 -0.088,-0.009 -0.226,-0.048 -0.371,-0.271 -0.322,-0.497 l 1.38,-6.474 c -0.783,-0.266 -2.985,-0.936 -6.868,-1.557 -5.912,-0.9460003 -13.251,-0.9570003 -13.325,-0.9570003 -0.231,0 -0.419,-0.188 -0.419,-0.419 0,-0.231 0.188,-0.419 0.419,-0.419 0.074,0 7.481,0.011 13.457,0.968 5.069,0.8110003 7.286,1.6880003 7.378,1.7250003 0.189,0.076 0.296,0.277 0.254,0.476 l -1.456,6.832 c -0.043,0.197 -0.217,0.331 -0.41,0.331 z"
     id="path233"
     inkscape:connector-curvature="0"
     style="fill:#4e4e4e" /><path
     d="m 115.741,18.718434 c -0.028,0 -0.056,-0.003 -0.083,-0.008 -0.227,-0.046 -0.374,-0.267 -0.328,-0.494 l 1.275,-6.316 c 0.025,-0.12 0.1,-0.223 0.207,-0.283 0.106,-0.059 0.235,-0.07 0.349,-0.027 l 5.882,2.17 c 0.217,0.08 0.328,0.321 0.248,0.538 -0.081,0.217 -0.32,0.329 -0.539,0.248 l -5.423,-2 -1.178,5.836 c -0.04,0.199 -0.215,0.336 -0.41,0.336 z"
     id="path235"
     inkscape:connector-curvature="0"
     style="fill:#4e4e4e" /><polygon
     points="-0.906,64.031 1.352,62.867 -30.539,62.906 -30.539,63.984 "
     id="polygon237"
     style="fill:#4e4e4e"
     transform="translate(-9.1900004,-36.142566)" /><polygon
     points="-9.356,69.129 -8.473,67.965 -30.609,68.005 -30.609,69.082 "
     id="polygon239"
     style="fill:#4e4e4e"
     transform="translate(-9.1900004,-36.142566)" /><polygon
     points="-12.822,74.157 -11.94,72.993 -30.609,73.033 -30.609,74.111 "
     id="polygon241"
     style="fill:#4e4e4e"
     transform="translate(-9.1900004,-36.142566)" /><polygon
     points="-16.174,79.674 -15.292,78.51 -30.609,78.55 -30.609,79.628 "
     id="polygon243"
     style="fill:#4e4e4e"
     transform="translate(-9.1900004,-36.142566)" /><circle
     cx="-40.648998"
     cy="27.015434"
     r="1.851"
     id="circle245"
     style="fill:#4e4e4e" /><polygon
     points="24.608,46.619 23.7,45.455 -5.026,45.494 -5.026,46.572 "
     id="polygon247"
     style="fill:#4e4e4e"
     transform="translate(-9.1900004,-36.142566)" /><polygon
     points="30.709,56.231 31.475,55.325 23.773,45.443 22.929,46.114 "
     id="polygon249"
     style="fill:#4e4e4e"
     transform="translate(-9.1900004,-36.142566)" /><circle
     cx="-15.135"
     cy="9.6034317"
     r="1.851"
     id="circle251"
     style="fill:#4e4e4e" /><polygon
     points="41.089,39.495 40.181,38.331 11.455,38.371 11.455,39.449 "
     id="polygon253"
     style="fill:#4e4e4e"
     transform="translate(-9.1900004,-36.142566)" /><polygon
     points="47.19,49.108 47.956,48.201 40.254,38.319 39.411,38.99 "
     id="polygon255"
     style="fill:#4e4e4e"
     transform="translate(-9.1900004,-36.142566)" /><circle
     cx="1.3459998"
     cy="2.4794354"
     r="1.851"
     id="circle257"
     style="fill:#4e4e4e" /><polygon
     points="165.455,39.495 166.362,38.331 195.088,38.371 195.088,39.449 "
     id="polygon259"
     style="fill:#4e4e4e"
     transform="translate(-9.1900004,-36.142566)" /><polygon
     points="159.354,49.108 158.587,48.201 166.289,38.319 167.133,38.99 "
     id="polygon261"
     style="fill:#4e4e4e"
     transform="translate(-9.1900004,-36.142566)" /><circle
     cx="186.81799"
     cy="2.4794354"
     r="1.851"
     id="circle263"
     style="fill:#4e4e4e" /><polygon
     points="187.629,46.758 188.537,45.594 217.262,45.634 217.262,46.712 "
     id="polygon265"
     style="fill:#4e4e4e"
     transform="translate(-9.1900004,-36.142566)" /><polygon
     points="181.528,56.371 180.761,55.464 188.463,45.582 189.307,46.253 "
     id="polygon267"
     style="fill:#4e4e4e"
     transform="translate(-9.1900004,-36.142566)" /><circle
     cx="208.992"
     cy="9.7424316"
     r="1.851"
     id="circle269"
     style="fill:#4e4e4e" /><circle
     cx="-40.578999"
     cy="32.18343"
     r="1.851"
     id="circle271"
     style="fill:#4e4e4e" /><circle
     cx="-40.508999"
     cy="37.351437"
     r="1.851"
     id="circle273"
     style="fill:#4e4e4e" /><circle
     cx="-40.438999"
     cy="42.938435"
     r="1.851"
     id="circle275"
     style="fill:#4e4e4e" /><polygon
     points="182.729,64.031 181.367,62.867 201.932,62.906 201.932,63.984 "
     id="polygon277"
     style="fill:#4e4e4e"
     transform="translate(-9.1900004,-36.142566)" /><polygon
     points="184.44,69.129 183.567,67.965 202.002,68.005 202.002,69.082 "
     id="polygon279"
     style="fill:#4e4e4e"
     transform="translate(-9.1900004,-36.142566)" /><polygon
     points="185.836,74.157 185.208,72.993 202.002,73.033 202.002,74.111 "
     id="polygon281"
     style="fill:#4e4e4e"
     transform="translate(-9.1900004,-36.142566)" /><polygon
     points="187.567,79.674 187.198,78.51 202.002,78.55 202.002,79.628 "
     id="polygon283"
     style="fill:#4e4e4e"
     transform="translate(-9.1900004,-36.142566)" /><circle
     cx="193.662"
     cy="27.015434"
     r="1.851"
     id="circle285"
     style="fill:#4e4e4e" /><circle
     cx="193.592"
     cy="32.18343"
     r="1.851"
     id="circle287"
     style="fill:#4e4e4e" /><circle
     cx="193.522"
     cy="37.351437"
     r="1.851"
     id="circle289"
     style="fill:#4e4e4e" /><circle
     cx="193.452"
     cy="42.938435"
     r="1.851"
     id="circle291"
     style="fill:#4e4e4e" /></svg>