<?xml version="1.0" encoding="UTF-8" standalone="no"?>
<svg
   xmlns:dc="http://purl.org/dc/elements/1.1/"
   xmlns:cc="http://creativecommons.org/ns#"
   xmlns:rdf="http://www.w3.org/1999/02/22-rdf-syntax-ns#"
   xmlns:svg="http://www.w3.org/2000/svg"
   xmlns="http://www.w3.org/2000/svg"
   xmlns:sodipodi="http://sodipodi.sourceforge.net/DTD/sodipodi-0.dtd"
   xmlns:inkscape="http://www.inkscape.org/namespaces/inkscape"
   height="9.030508"
   id="Layer_1"
   version="1.2"
   viewBox="0 0 10.033898 9.030508"
   width="10.033898"
   xml:space="preserve"
   inkscape:version="0.91 r13725"
   sodipodi:docname="home.svg"><metadata
     id="metadata9"><rdf:RDF><cc:Work
         rdf:about=""><dc:format>image/svg+xml</dc:format><dc:type
           rdf:resource="http://purl.org/dc/dcmitype/StillImage" /><dc:title></dc:title></cc:Work></rdf:RDF></metadata><defs
     id="defs7" /><sodipodi:namedview
     pagecolor="#ffffff"
     bordercolor="#666666"
     borderopacity="1"
     objecttolerance="10"
     gridtolerance="10"
     guidetolerance="10"
     inkscape:pageopacity="0"
     inkscape:pageshadow="2"
     inkscape:window-width="1440"
     inkscape:window-height="838"
     id="namedview5"
     showgrid="false"
     fit-margin-top="0"
     fit-margin-left="0"
     fit-margin-right="0"
     fit-margin-bottom="0"
     inkscape:zoom="9.8333333"
     inkscape:cx="10"
     inkscape:cy="8.9999999"
     inkscape:window-x="-8"
     inkscape:window-y="-8"
     inkscape:window-maximized="1"
     inkscape:current-layer="Layer_1" /><path
     d="m 5.0169492,0 c 0,0 -3.1034848,2.67905 -4.8378441,4.129952 C 0.077261,4.222264 0,4.356718 0,4.515254 0,4.792691 0.2242576,5.016949 0.5016949,5.016949 l 1.0033898,0 0,3.511864 c 0,0.277437 0.2242577,0.501695 0.501695,0.501695 l 1.5050847,0 c 0.2774373,0 0.5016949,-0.224759 0.5016949,-0.501695 l 0,-2.00678 2.0067797,0 0,2.00678 c 0,0.276936 0.2242576,0.501695 0.5016949,0.501695 l 1.5050851,0 c 0.277437,0 0.501695,-0.224258 0.501695,-0.501695 l 0,-3.511864 1.003389,0 c 0.277438,0 0.501695,-0.224258 0.501695,-0.501695 0,-0.158536 -0.07726,-0.29299 -0.192149,-0.385302 C 8.119431,2.67905 5.0169492,0 5.0169492,0 Z"
     id="path3"
     inkscape:connector-curvature="0"
     style="fill:#f9f9f9" /></svg>