<?xml version="1.0" encoding="UTF-8" standalone="no"?>
<svg
   xmlns:dc="http://purl.org/dc/elements/1.1/"
   xmlns:cc="http://creativecommons.org/ns#"
   xmlns:rdf="http://www.w3.org/1999/02/22-rdf-syntax-ns#"
   xmlns:svg="http://www.w3.org/2000/svg"
   xmlns="http://www.w3.org/2000/svg"
   xmlns:sodipodi="http://sodipodi.sourceforge.net/DTD/sodipodi-0.dtd"
   xmlns:inkscape="http://www.inkscape.org/namespaces/inkscape"
   height="6.0338984"
   id="Layer_1"
   version="1.1"
   viewBox="0 0 8.0451975 6.0338984"
   width="8.0451975"
   xml:space="preserve"
   inkscape:version="0.91 r13725"
   sodipodi:docname="mail.svg"><metadata
     id="metadata9"><rdf:RDF><cc:Work
         rdf:about=""><dc:format>image/svg+xml</dc:format><dc:type
           rdf:resource="http://purl.org/dc/dcmitype/StillImage" /><dc:title></dc:title></cc:Work></rdf:RDF></metadata><defs
     id="defs7" /><sodipodi:namedview
     pagecolor="#ffffff"
     bordercolor="#666666"
     borderopacity="1"
     objecttolerance="10"
     gridtolerance="10"
     guidetolerance="10"
     inkscape:pageopacity="0"
     inkscape:pageshadow="2"
     inkscape:window-width="1440"
     inkscape:window-height="838"
     id="namedview5"
     showgrid="false"
     fit-margin-top="0"
     fit-margin-left="0"
     fit-margin-right="0"
     fit-margin-bottom="0"
     inkscape:zoom="14.75"
     inkscape:cx="8"
     inkscape:cy="6"
     inkscape:window-x="-8"
     inkscape:window-y="-8"
     inkscape:window-maximized="1"
     inkscape:current-layer="Layer_1" /><path
     d="m 4.0225989,4.0225993 c -0.1337514,0 -0.2514125,-0.04727 -0.5028249,-0.16895 L 0,2.0112994 0,5.5310733 c 0,0.276554 0.22627119,0.502825 0.50282486,0.502825 l 7.03954804,0 c 0.2765537,0 0.5028248,-0.226271 0.5028248,-0.502825 l 0,-3.5197739 -3.519774,1.8423499 c -0.2514124,0.121684 -0.3690734,0.16895 -0.5028248,0.16895 z M 7.5423729,0 0.50282486,0 C 0.22627119,0 0,0.2262712 0,0.5028249 l 0,0.3811412 4.0225989,2.1143782 4.0225988,-2.1143782 0,-0.3811412 C 8.0451977,0.2262712 7.8189266,0 7.5423729,0 Z"
     id="path3"
     inkscape:connector-curvature="0"
     style="fill:#ffffff" /></svg>