<?xml version="1.0" encoding="UTF-8" standalone="no"?>
<svg
   xmlns:dc="http://purl.org/dc/elements/1.1/"
   xmlns:cc="http://creativecommons.org/ns#"
   xmlns:rdf="http://www.w3.org/1999/02/22-rdf-syntax-ns#"
   xmlns:svg="http://www.w3.org/2000/svg"
   xmlns="http://www.w3.org/2000/svg"
   xmlns:sodipodi="http://sodipodi.sourceforge.net/DTD/sodipodi-0.dtd"
   xmlns:inkscape="http://www.inkscape.org/namespaces/inkscape"
   height="23.081104"
   id="Capa_1"
   version="1.1"
   viewBox="0 0 8.4565125 23.081104"
   width="8.4565125"
   xml:space="preserve"
   inkscape:version="0.91 r13725"
   sodipodi:docname="phone.svg"><metadata
     id="metadata41"><rdf:RDF><cc:Work
         rdf:about=""><dc:format>image/svg+xml</dc:format><dc:type
           rdf:resource="http://purl.org/dc/dcmitype/StillImage" /><dc:title></dc:title></cc:Work></rdf:RDF></metadata><defs
     id="defs39" /><sodipodi:namedview
     pagecolor="#ffffff"
     bordercolor="#666666"
     borderopacity="1"
     objecttolerance="10"
     gridtolerance="10"
     guidetolerance="10"
     inkscape:pageopacity="0"
     inkscape:pageshadow="2"
     inkscape:window-width="1440"
     inkscape:window-height="838"
     id="namedview37"
     showgrid="false"
     fit-margin-top="0"
     fit-margin-left="0"
     fit-margin-right="0"
     fit-margin-bottom="0"
     inkscape:zoom="2.95"
     inkscape:cx="12.805034"
     inkscape:cy="51.300172"
     inkscape:window-x="-8"
     inkscape:window-y="-8"
     inkscape:window-maximized="1"
     inkscape:current-layer="Capa_1" /><g
     id="g3"
     transform="matrix(0.16320557,-0.16666004,0.16666004,0.16320557,-10.273451,11.677414)"
     style="fill:#828282;fill-opacity:1"><path
       d="M 46.143,46.143 C 38.226,54.06 29.058,61.628 25.435,58.004 20.246,52.816 17.047,48.297 5.61,57.489 -5.828,66.685 2.957,72.812 7.983,77.84 13.783,83.639 35.404,78.145 56.775,56.777 78.143,35.404 83.641,13.783 77.837,7.981 72.81,2.954 66.683,-5.828 57.491,5.611 48.297,17.045 52.814,20.245 58.004,25.434 61.626,29.058 54.06,38.225 46.143,46.143 Z"
       id="path5"
       inkscape:connector-curvature="0"
       style="fill:#828282;fill-opacity:1" /></g><g
     id="g7"
     transform="translate(-27.194966,-68.219068)" /><g
     id="g9"
     transform="translate(-27.194966,-68.219068)" /><g
     id="g11"
     transform="translate(-27.194966,-68.219068)" /><g
     id="g13"
     transform="translate(-27.194966,-68.219068)" /><g
     id="g15"
     transform="translate(-27.194966,-68.219068)" /><g
     id="g17"
     transform="translate(-27.194966,-68.219068)" /><g
     id="g19"
     transform="translate(-27.194966,-68.219068)" /><g
     id="g21"
     transform="translate(-27.194966,-68.219068)" /><g
     id="g23"
     transform="translate(-27.194966,-68.219068)" /><g
     id="g25"
     transform="translate(-27.194966,-68.219068)" /><g
     id="g27"
     transform="translate(-27.194966,-68.219068)" /><g
     id="g29"
     transform="translate(-27.194966,-68.219068)" /><g
     id="g31"
     transform="translate(-27.194966,-68.219068)" /><g
     id="g33"
     transform="translate(-27.194966,-68.219068)" /><g
     id="g35"
     transform="translate(-27.194966,-68.219068)" /></svg>