<?xml version="1.0" encoding="UTF-8" standalone="no"?>
<svg
   xmlns:dc="http://purl.org/dc/elements/1.1/"
   xmlns:cc="http://creativecommons.org/ns#"
   xmlns:rdf="http://www.w3.org/1999/02/22-rdf-syntax-ns#"
   xmlns:svg="http://www.w3.org/2000/svg"
   xmlns="http://www.w3.org/2000/svg"
   xmlns:sodipodi="http://sodipodi.sourceforge.net/DTD/sodipodi-0.dtd"
   xmlns:inkscape="http://www.inkscape.org/namespaces/inkscape"
   height="15.000001"
   width="15"
   id="svg2"
   version="1.1"
   inkscape:version="0.91 r13725"
   sodipodi:docname="search.svg">
  <metadata
     id="metadata10">
    <rdf:RDF>
      <cc:Work
         rdf:about="">
        <dc:format>image/svg+xml</dc:format>
        <dc:type
           rdf:resource="http://purl.org/dc/dcmitype/StillImage" />
        <dc:title></dc:title>
      </cc:Work>
    </rdf:RDF>
  </metadata>
  <defs
     id="defs8" />
  <sodipodi:namedview
     pagecolor="#ffffff"
     bordercolor="#666666"
     borderopacity="1"
     objecttolerance="10"
     gridtolerance="10"
     guidetolerance="10"
     inkscape:pageopacity="0"
     inkscape:pageshadow="2"
     inkscape:window-width="1440"
     inkscape:window-height="838"
     id="namedview6"
     showgrid="false"
     fit-margin-top="0"
     fit-margin-left="0"
     fit-margin-right="0"
     fit-margin-bottom="0"
     inkscape:zoom="20.85965"
     inkscape:cx="16.546287"
     inkscape:cy="6.4639684"
     inkscape:window-x="-8"
     inkscape:window-y="-8"
     inkscape:window-maximized="1"
     inkscape:current-layer="svg2" />
  <path
     d="M 0.20231214,12.82528 4.0423892,8.98502 C 3.494212,8.08997 3.1618498,7.04706 3.1618498,5.91935 3.1618498,2.6509 5.8131022,0 9.0809249,0 12.349225,0 15,2.6509 15,5.91935 c 0,3.26799 -2.650775,5.91937 -5.9190751,5.91937 -1.1276454,0 -2.1705125,-0.33238 -3.0655105,-0.87866 L 2.1753372,14.7984 c -0.2697495,0.26976 -0.716763,0.26784 -0.9865125,0 L 0.20231214,13.81184 c -0.26974952,-0.26976 -0.26974952,-0.7168 0,-0.98656 z M 9.0809249,9.8656 c 2.1791911,0 3.9460501,-1.76694 3.9460501,-3.94625 0,-2.17929 -1.766859,-3.94623 -3.9460501,-3.94623 -2.1791907,0 -3.9460501,1.76694 -3.9460501,3.94623 0,2.17931 1.7668594,3.94625 3.9460501,3.94625 z"
     id="path4"
     inkscape:connector-curvature="0"
     style="fill:#ffffff" />
</svg>
