<?xml version="1.0" encoding="UTF-8" standalone="no"?>
<!-- Generator: Adobe Illustrator 17.0.0, SVG Export Plug-In . SVG Version: 6.00 Build 0)  -->

<svg
   xmlns:dc="http://purl.org/dc/elements/1.1/"
   xmlns:cc="http://creativecommons.org/ns#"
   xmlns:rdf="http://www.w3.org/1999/02/22-rdf-syntax-ns#"
   xmlns:svg="http://www.w3.org/2000/svg"
   xmlns="http://www.w3.org/2000/svg"
   xmlns:xlink="http://www.w3.org/1999/xlink"
   xmlns:sodipodi="http://sodipodi.sourceforge.net/DTD/sodipodi-0.dtd"
   xmlns:inkscape="http://www.inkscape.org/namespaces/inkscape"
   version="1.1"
   id="Слой_1"
   x="0px"
   y="0px"
   width="160.64661"
   height="96.973473"
   viewBox="0 0 160.64662 96.973472"
   enable-background="new 0 0 192.073 114"
   xml:space="preserve"
   inkscape:version="0.91 r13725"
   sodipodi:docname="service1.svg"><metadata
     id="metadata264"><rdf:RDF><cc:Work
         rdf:about=""><dc:format>image/svg+xml</dc:format><dc:type
           rdf:resource="http://purl.org/dc/dcmitype/StillImage" /><dc:title></dc:title></cc:Work></rdf:RDF></metadata><defs
     id="defs262" /><sodipodi:namedview
     pagecolor="#ffffff"
     bordercolor="#666666"
     borderopacity="1"
     objecttolerance="10"
     gridtolerance="10"
     guidetolerance="10"
     inkscape:pageopacity="0"
     inkscape:pageshadow="2"
     inkscape:window-width="1440"
     inkscape:window-height="837"
     id="namedview260"
     showgrid="false"
     fit-margin-top="0"
     fit-margin-left="0"
     fit-margin-right="0"
     fit-margin-bottom="0"
     inkscape:zoom="1.9784145"
     inkscape:cx="14.781445"
     inkscape:cy="51.431998"
     inkscape:window-x="-8"
     inkscape:window-y="-8"
     inkscape:window-maximized="1"
     inkscape:current-layer="Слой_1" /><g
     id="g237"
     transform="matrix(0.81925467,0,0,0.81925467,-4.8681927,8.1400531)"
     style="fill:#ffffff"><defs
       id="defs239"><path
         id="SVGID_1_"
         d="m 25.097,71.117 c 0,0 5.636,-3.121 11.809,-3.561 6.173,-0.44 13.471,-4.469 25.149,-8.596 11.678,-4.127 13.505,-5.953 28.831,-8.085 15.326,-2.132 5.229,-25.883 5.229,-25.883 0,0 -16.693,-13.6 -20.249,-13.905 -3.556,-0.305 -36.137,-3.248 -41.01,-2.03 -4.873,1.218 -21.583,2.233 -25.053,9.44 -3.47,7.207 2.722,42.787 2.925,43.267 0.205,0.48 12.369,9.353 12.369,9.353 z"
         inkscape:connector-curvature="0" /></defs><clipPath
       id="SVGID_2_"><use
         xlink:href="#SVGID_1_"
         overflow="visible"
         id="use243"
         style="overflow:visible"
         x="0"
         y="0"
         width="100%"
         height="100%" /></clipPath><g
       id="Expanded"
       clip-path="url(#SVGID_2_)"
       style="fill:#ffffff"><g
         id="g246"
         style="fill:#ffffff"><g
           id="g248"
           style="fill:#ffffff" /><g
           id="g252"
           style="fill:#ffffff" /></g></g></g><path
     id="path258"
     style="fill:#ffffff"
     d="m 103.95425,21.633274 c 0.31115,0 0.63823,-0.07685 0.97094,-0.227742 0.60825,-0.275539 1.00844,-0.668229 1.19213,-1.16776 0.26523,-0.725399 -0.0478,-1.397376 -0.0609,-1.425492 L 101.61591,9.0015958 C 102.18292,8.3483631 104.04703,5.9266201 102.94206,3.485195 101.4266,0.13749221 98.613101,0.00440921 98.495013,6.6020921e-4 98.389104,-0.00693979 98.27477,0.05127021 98.211039,0.14592621 c -0.06279,0.09465 -0.0731,0.21462 -0.02624,0.317713 L 99.950497,4.3652334 98.093889,6.3127495 95.378801,6.4336494 93.613103,2.5329935 c -0.0478,-0.1049712 -0.146205,-0.177132 -0.260544,-0.1902534 -0.116214,-0.013121 -0.226805,0.033736 -0.298032,0.1237117 -0.0731,0.093726 -1.774133,2.3298967 -0.420805,5.3214618 1.149952,2.5407684 3.386129,2.9203364 4.617618,2.9203364 0,0 0,0 0,0 0.194939,0 0.359888,-0.0103 0.484536,-0.02155 l 4.394564,9.7104 c 0.0244,0.05249 0.57451,1.236176 1.82381,1.236176 z M 99.034845,0.75230021 c 0.820057,0.208059 2.345835,0.87535099 3.309275,3.00468499 1.08154,2.3889407 -1.32802,4.9325216 -1.35239,4.9578252 -0.0928,0.096529 -0.11808,0.2408628 -0.0628,0.3626996 l 4.53233,10.012184 c 0.004,0.0085 0.20994,0.466728 0.0375,0.929708 -0.1209,0.325212 -0.40487,0.590442 -0.84348,0.789129 -0.24743,0.111527 -0.4836,0.168698 -0.7001,0.168698 -0.82193,0 -1.20899,-0.815371 -1.22586,-0.850047 L 98.235409,10.19841 c -0.06186,-0.136833 -0.209935,-0.214621 -0.356139,-0.187441 -0.0029,0 -0.24836,0.04312 -0.626991,0.04312 0,0 0,0 0,0 -1.072166,0 -3.020619,-0.3298965 -4.018744,-2.5342075 -0.838801,-1.852859 -0.336458,-3.3889409 0.0403,-4.1443295 l 1.599812,3.5332705 c 0.0553,0.1218368 0.181819,0.2005618 0.313965,0.1921272 l 3.069353,-0.136832 c 0.08434,-0.00378 0.164949,-0.040302 0.223055,-0.1012189 l 2.10028,-2.2033781 c 0.0919,-0.096529 0.11622,-0.2399248 0.0619,-0.3617616 L 99.034845,0.75230521 Z M 104.14637,20.733554 c 0.14996,0 0.29522,-0.03186 0.43206,-0.09371 0.52671,-0.238051 0.76101,-0.861293 0.52296,-1.388003 -0.23149,-0.510778 -0.87535,-0.75539 -1.38801,-0.522962 -0.25492,0.115276 -0.44986,0.323336 -0.5492,0.585754 -0.0984,0.261481 -0.089,0.547329 0.0262,0.80225 0.16964,0.374883 0.54546,0.616681 0.95595,0.616681 z m 0,-1.441424 c 0.15371,0 0.29429,0.09091 0.35802,0.230553 0.089,0.196814 0.002,0.430178 -0.19588,0.519212 -0.19119,0.08716 -0.43299,-0.0047 -0.51921,-0.195876 -0.0441,-0.09559 -0.0469,-0.202436 -0.009,-0.299905 0.0366,-0.0984 0.10965,-0.176195 0.20525,-0.219307 0.0506,-0.02249 0.10497,-0.03467 0.1612,-0.03467 z M 86.912072,38.267761 c 0.825679,0 1.482662,-0.459231 1.849109,-1.292408 0.268978,-0.611059 0.304593,-1.171509 0.106847,-1.665417 -0.286784,-0.716964 -0.968135,-1.008435 -0.997188,-1.020618 l -9.857543,-4.33552 c -0.015,-0.865042 -0.243674,-3.912841 -2.697282,-4.991566 -0.877226,-0.385191 -1.755389,-0.581068 -2.610122,-0.581068 -1.86223,0 -2.981255,0.9194 -3.027179,0.958763 -0.08716,0.0731 -0.130271,0.185567 -0.11434,0.298032 0.01593,0.112464 0.08903,0.20806 0.193065,0.253983 l 3.920337,1.724461 -0.08153,2.689784 -1.94002,1.903468 -3.9194,-1.723524 c -0.105909,-0.04592 -0.226803,-0.03374 -0.320525,0.03187 -0.09371,0.06561 -0.146203,0.176195 -0.138706,0.290534 0.0085,0.119025 0.236176,2.9194 3.240862,4.2418 0.678538,0.298032 1.363637,0.449859 2.037488,0.449859 0,0 0,0 0,0 1.929709,0 3.246485,-1.212747 3.697283,-1.700094 l 9.755387,4.290534 c 0.01594,0.0085 0.405812,0.177132 0.903468,0.177132 z M 72.705887,25.038146 c 0.763824,0 1.552953,0.177132 2.345829,0.525774 2.406748,1.059044 2.306467,4.557637 2.304592,4.592314 -0.0047,0.134958 0.0731,0.258669 0.195877,0.313028 l 10.05998,4.424554 c 0.0085,0.0038 0.467667,0.206185 0.648547,0.667291 0.126524,0.3224 0.09279,0.710403 -0.101219,1.15089 -0.262417,0.597001 -0.683224,0.89972 -1.248359,0.89972 -0.354265,0 -0.637301,-0.119963 -0.640113,-0.1209 l -9.975632,-4.387066 c -0.135895,-0.05998 -0.298032,-0.01968 -0.390815,0.0984 -0.01312,0.01687 -1.313028,1.642924 -3.349578,1.643861 0,0 0,0 0,0 -0.582005,0 -1.178069,-0.133083 -1.773196,-0.394564 -1.880038,-0.826617 -2.524836,-2.300843 -2.742268,-3.113402 l 3.555764,1.563262 c 0.121836,0.05436 0.266166,0.02812 0.361761,-0.06655 l 2.193065,-2.151828 c 0.05998,-0.05904 0.09559,-0.139644 0.0984,-0.223993 l 0.09185,-3.043111 c 0.0038,-0.133083 -0.0731,-0.256795 -0.195876,-0.310215 l -3.556701,-1.564199 c 0.4433,-0.228678 1.172446,-0.50328 2.118088,-0.50328 z M 87.03016,37.264012 c 0.41612,0 0.792877,-0.245548 0.960637,-0.626054 0.232427,-0.529522 -0.0085,-1.149015 -0.537957,-1.382381 -0.519212,-0.226803 -1.156513,0.02437 -1.38238,0.537958 -0.112465,0.256794 -0.119025,0.541706 -0.01781,0.802249 0.102157,0.261481 0.29897,0.466729 0.555764,0.580131 0.134958,0.0581 0.276477,0.0881 0.421743,0.0881 z m 9.37e-4,-1.441424 c 0.05436,0 0.106847,0.01121 0.157451,0.03374 0.197751,0.08716 0.28866,0.319587 0.2015,0.517338 -0.08435,0.192127 -0.3224,0.286786 -0.517339,0.2015 -0.09653,-0.04218 -0.169634,-0.119025 -0.208059,-0.216495 -0.03843,-0.09747 -0.03561,-0.204311 0.0065,-0.300844 0.06279,-0.143393 0.204312,-0.235239 0.359888,-0.235239 z m 28.997183,26.375819 c 7.58388,0 13.75352,-6.169635 13.75352,-13.754451 0,-7.584817 -6.16964,-13.754451 -13.75352,-13.754451 -7.58388,0 -13.75445,6.169634 -13.75445,13.754451 0,7.584816 6.16964,13.754451 13.75445,13.754451 z m 0,-26.85192 c 7.22212,0 13.09747,5.875352 13.09747,13.097469 0,7.222118 -5.87535,13.097468 -13.09747,13.097468 -7.22211,0 -13.0984,-5.87535 -13.0984,-13.097468 0,-7.222117 5.87629,-13.097469 13.0984,-13.097469 z m 0,24.166821 c 6.1031,0 11.06842,-4.965322 11.06842,-11.069352 0,-6.104029 -4.96532,-11.069353 -11.06842,-11.069353 -6.10309,0 -11.06935,4.965324 -11.06935,11.069353 0,6.10403 4.96532,11.069352 11.06935,11.069352 z m 0,-21.481722 c 5.74134,0 10.41237,4.671039 10.41237,10.41237 0,5.74133 -4.67103,10.412371 -10.41237,10.412371 -5.74133,0 -10.4133,-4.671041 -10.4133,-10.412371 0,-5.741331 4.67104,-10.41237 10.4133,-10.41237 z m -2.68509,42.962509 5.37019,0 c 2.40206,0 4.35614,-1.954077 4.35614,-4.356139 l 0,-4.754451 c 1.57451,-0.472353 3.10497,-1.10778 4.55576,-1.890347 l 3.3627,3.363636 c 0.78538,0.786318 1.90816,1.237114 3.07873,1.237114 1.17151,0 2.29428,-0.450796 3.08247,-1.237114 l 3.79757,-3.796626 c 0.82286,-0.820993 1.27647,-1.914713 1.27647,-3.079662 0,-1.164948 -0.45361,-2.258669 -1.27647,-3.079663 l -3.36364,-3.36551 c 0.78163,-1.447047 1.41518,-2.97657 1.88754,-4.552952 l 4.75257,0 c 2.40206,0 4.35614,-1.954077 4.35614,-4.356139 l 0,-5.370196 c 0,-1.163074 -0.45267,-2.256794 -1.2746,-3.079662 -0.82474,-0.822869 -1.91846,-1.276477 -3.0806,-1.276477 l -4.75445,0 c -0.47517,-1.58013 -1.10966,-3.109653 -1.88847,-4.552951 l 3.36269,-3.363637 c 1.69822,-1.698219 1.69822,-4.461105 0,-6.159325 l -3.79662,-3.7985 c -0.78632,-0.786317 -1.91003,-1.237113 -3.0806,-1.237113 -1.17057,0 -2.29335,0.450796 -3.07966,1.237113 l -3.36458,3.363636 c -1.44986,-0.78163 -2.97938,-1.415182 -4.55108,-1.887535 l 0,-4.754451 c 0,-2.402062 -1.95407,-4.356138 -4.35613,-4.356138 l -5.3702,0 c -2.40206,0 -4.35614,1.954076 -4.35614,4.356138 l 0,4.754451 c -1.57451,0.472353 -3.10309,1.106842 -4.55108,1.887535 l -3.36457,-3.363636 c -0.78725,-0.786317 -1.910964,-1.237113 -3.081537,-1.237113 -1.170571,0 -2.293345,0.450796 -3.078724,1.237113 l -3.7985,3.796626 c -0.822869,0.821931 -1.276477,1.915651 -1.276477,3.079663 0,1.164011 0.453608,2.257731 1.276477,3.079662 l 3.362698,3.363636 c -0.782568,1.450797 -1.417057,2.980318 -1.888472,4.553889 l -4.752577,0 c -2.402062,0 -4.356139,1.954077 -4.356139,4.356139 l 0,5.370197 c 0,1.16401 0.452671,2.257731 1.274603,3.079662 0.823804,0.822867 1.917525,1.276476 3.081536,1.276476 l 4.754452,0 c 0.472352,1.575445 1.106841,3.105905 1.888472,4.553889 l -3.3627,3.364573 c -1.698218,1.69822 -1.698218,4.461105 0,6.159325 l 3.796627,3.7985 c 0.786317,0.786317 1.910028,1.237114 3.080599,1.237114 1.170572,0 2.293342,-0.450797 3.080602,-1.237114 l 3.36176,-3.364573 c 1.44424,0.779757 2.97282,1.413309 4.55202,1.888472 l 0,4.754452 c -0.002,2.403936 1.95313,4.358013 4.3552,4.358013 z m 14.3402,-11.733832 c -0.0544,0 -0.10871,0.01312 -0.15839,0.04124 -1.54451,0.852859 -3.18463,1.533271 -4.87441,2.021555 -0.14058,0.0403 -0.23711,0.169635 -0.23711,0.314902 l 0,4.999999 c 0,2.040301 -1.6598,3.699157 -3.69916,3.699157 l -5.3702,0 c -2.0403,0 -3.70009,-1.659793 -3.70103,-3.700094 l 0,-4.998125 c 0,-0.146204 -0.0965,-0.274602 -0.23711,-0.314902 -1.69635,-0.491096 -3.33552,-1.170571 -4.8716,-2.020618 -0.1284,-0.07122 -0.28679,-0.04873 -0.39082,0.0553 l -3.53514,3.537958 c -0.664484,0.663542 -1.61856,1.044986 -2.616687,1.044986 -0.998125,0 -1.952202,-0.380507 -2.616682,-1.044986 l -3.796625,-3.7985 c -1.442362,-1.442362 -1.442362,-3.789129 0,-5.231491 l 3.536082,-3.537956 c 0.103095,-0.103095 0.125586,-0.262419 0.0553,-0.390816 -0.851922,-1.541705 -1.531396,-3.180881 -2.020618,-4.87254 -0.0403,-0.14058 -0.169635,-0.237113 -0.314902,-0.237113 l -5,0 c -0.988753,0 -1.917526,-0.385192 -2.617619,-1.084349 -0.69822,-0.698218 -1.082474,-1.626991 -1.082474,-2.615744 l 0,-5.370197 c 0,-2.040299 1.659793,-3.699156 3.699156,-3.699156 l 4.999063,0 c 0.146203,0 0.274601,-0.09653 0.314901,-0.237113 0.48641,-1.688847 1.166823,-3.328023 2.020618,-4.872539 0.07122,-0.128398 0.04873,-0.287724 -0.0553,-0.390817 l -3.536082,-3.537956 c -0.699157,-0.69822 -1.084348,-1.626991 -1.084348,-2.615745 0,-0.988753 0.385191,-1.917526 1.084348,-2.615744 l 3.7985,-3.796634 c 0.66448,-0.664481 1.61762,-1.044986 2.614808,-1.044986 0.999063,0 1.95314,0.380505 2.617621,1.044986 l 3.53796,3.537019 c 0.10403,0.103095 0.26429,0.125585 0.39081,0.0553 1.54171,-0.850989 3.17994,-1.530464 4.87067,-2.019686 0.14058,-0.0403 0.23711,-0.169635 0.23711,-0.314901 l 0,-5 c 0,-2.0403 1.65979,-3.699156 3.70009,-3.699156 l 5.3702,0 c 2.0403,0 3.69916,1.659793 3.69916,3.699156 l 0,5 c 0,0.146203 0.0965,0.274601 0.23711,0.314901 1.68697,0.487348 3.32615,1.166822 4.87067,2.019681 0.12652,0.07029 0.28678,0.0478 0.39081,-0.0553 l 3.53796,-3.537956 c 0.66448,-0.66448 1.61762,-1.044986 2.61574,-1.044986 0.99813,0 1.9522,0.380506 2.61668,1.044986 l 3.79663,3.797563 c 1.44236,1.442361 1.44236,3.789128 0,5.231489 l -3.53608,3.537957 c -0.1031,0.103095 -0.12653,0.262418 -0.0553,0.390816 0.84911,1.536082 1.52952,3.175258 2.02062,4.871601 0.0403,0.140582 0.16963,0.237114 0.3149,0.237114 l 5,0 c 0.98688,0 1.91659,0.385193 2.61668,1.084349 0.69822,0.698219 1.08247,1.626992 1.08247,2.615744 l 0,5.370198 c 0,2.040299 -1.65979,3.699156 -3.69915,3.699156 l -4.99906,0 c -0.14621,0 -0.27461,0.09653 -0.31491,0.237113 -0.48734,1.691659 -1.16682,3.330834 -2.01968,4.871602 -0.0712,0.128398 -0.0487,0.287723 0.0553,0.390816 l 3.53796,3.538894 c 0.69916,0.698219 1.08435,1.626991 1.08435,2.615745 0,0.988753 -0.38519,1.917526 -1.08435,2.615744 l -3.79756,3.796626 c -0.66542,0.664481 -1.6195,1.044986 -2.61762,1.044986 -0.99813,0 -1.95033,-0.380505 -2.61481,-1.044986 l -3.53608,-3.537956 c -0.0647,-0.06279 -0.14902,-0.09559 -0.23337,-0.09559 z m -14.3402,9.048734 5.37019,0 c 0.92128,0 1.67104,-0.749766 1.67104,-1.671041 l 0,-6.032802 c 0,-0.46954 0.31959,-0.875351 0.77601,-0.985942 0.77413,-0.187441 1.55108,-0.249297 2.30272,-0.309278 1.30084,-0.104033 2.64573,-0.210871 3.90909,-0.984067 0.38894,-0.237114 0.92221,-0.174321 1.24274,0.149953 0.0141,0.01406 0.0291,0.02718 0.045,0.03843 l 4.24461,2.969072 c 0.30178,0.288659 0.72258,0.454545 1.16026,0.454545 0.44892,0 0.8791,-0.173384 1.18182,-0.476101 l 3.7985,-3.796626 c 0.31115,-0.311153 0.48922,-0.741331 0.48922,-1.180881 0,-0.438613 -0.17807,-0.868791 -0.48922,-1.180881 l -4.26804,-4.269916 c -0.33178,-0.333645 -0.39269,-0.846298 -0.14808,-1.247422 1.17807,-1.925023 2.04405,-4.014058 2.57451,-6.209934 0.11058,-0.458295 0.51546,-0.776944 0.98594,-0.776944 l 6.0328,0 c 0.92127,0 1.67104,-0.749766 1.67104,-1.67104 l 0,-5.370198 c 0,-0.447984 -0.17338,-0.866916 -0.48922,-1.180881 -0.3149,-0.314901 -0.73477,-0.489221 -1.18182,-0.489221 l -6.03374,0 c -0.47048,0 -0.87629,-0.319588 -0.98594,-0.776946 -0.52952,-2.193064 -1.39644,-4.282098 -2.57545,-6.209933 -0.24554,-0.402062 -0.18463,-0.914715 0.14808,-1.246486 l 4.26804,-4.268978 c 0.65136,-0.651359 0.65136,-1.71134 0,-2.362699 l -3.79569,-3.796625 c -0.30365,-0.302719 -0.73383,-0.476102 -1.18181,-0.476102 -0.44799,0 -0.8791,0.173383 -1.18182,0.475164 l -4.26898,4.268041 c -0.3224,0.324274 -0.85286,0.387066 -1.24555,0.148079 -1.92971,-1.179007 -4.01968,-2.045924 -6.21087,-2.574508 -0.45642,-0.110588 -0.77601,-0.516401 -0.77601,-0.985942 l 0,-6.032802 c 0,-0.921274 -0.74976,-1.67104 -1.67104,-1.67104 l -5.37019,0 c -0.92128,0 -1.67104,0.749766 -1.67104,1.67104 l 0,6.032802 c 0,0.469541 -0.31865,0.874414 -0.77507,0.98313 -2.19213,0.53046 -4.28117,1.396438 -6.20994,2.575446 -0.39363,0.241798 -0.92315,0.177132 -1.24648,-0.148079 l -4.268045,-4.268979 c -0.303656,-0.302718 -0.733834,-0.476101 -1.181818,-0.476101 -0.447985,0 -0.878164,0.173383 -1.181818,0.475164 l -3.798501,3.797563 c -0.311152,0.311153 -0.489223,0.741332 -0.489223,1.180881 0,0.437676 0.178071,0.867854 0.489223,1.180881 l 4.268978,4.268978 c 0.331772,0.333647 0.39269,0.846298 0.148079,1.246486 -1.179007,1.928772 -2.045923,4.018744 -2.575445,6.211809 -0.10965,0.457356 -0.514527,0.776944 -0.985942,0.776944 l -6.031864,0 c -0.921275,0 -1.671041,0.749765 -1.671041,1.67104 l 0,5.370197 c 0,0.447985 0.173384,0.866917 0.489223,1.179944 0.314901,0.314901 0.734769,0.488284 1.181818,0.488284 l 6.031864,0 c 0.470478,0 0.876289,0.319588 0.985942,0.776945 0.531396,2.196813 1.397376,4.285848 2.575445,6.211808 0.246486,0.402063 0.185567,0.914714 -0.147141,1.246486 l -4.268978,4.268978 c -0.651359,0.651359 -0.651359,1.71134 0,2.362699 l 3.796625,3.7985 c 0.300844,0.300844 0.731022,0.47329 1.180881,0.47329 0.449859,0 0.880975,-0.172446 1.182756,-0.47329 l 4.267102,-4.268978 c 0.32334,-0.322399 0.8538,-0.387067 1.24742,-0.148079 1.92409,1.177132 4.01313,2.04405 6.20994,2.576382 0.45736,0.110588 0.77601,0.516402 0.77601,0.985942 l 0,6.032802 c 0.002,0.922212 0.75164,1.671041 1.67291,1.671041 z m 14.55763,-10.787254 c -0.3074,0 -0.60824,0.08434 -0.86973,0.243673 -1.13027,0.691659 -2.3402,0.788192 -3.61949,0.890347 -0.77694,0.06186 -1.58013,0.126524 -2.40581,0.326149 -0.75258,0.182755 -1.27741,0.850983 -1.27741,1.624179 l 0,6.032803 c 0,0.559512 -0.45549,1.014057 -1.01406,1.014057 l -5.3702,0 c -0.55951,0 -1.01405,-0.455483 -1.01405,-1.014057 l 0,-6.032803 c 0,-0.773196 -0.52578,-1.441424 -1.27836,-1.624179 -2.13027,-0.516401 -4.15651,-1.356138 -6.02249,-2.498594 -0.64854,-0.394564 -1.51921,-0.28866 -2.05342,0.243673 l -4.267103,4.268978 c -0.358013,0.356139 -1.07685,0.358951 -1.435801,0 l -3.796627,-3.7985 c -0.3955,-0.395501 -0.3955,-1.039362 0,-1.434864 l 4.268042,-4.268041 c 0.548266,-0.547328 0.648547,-1.391752 0.243673,-2.05342 -1.142455,-1.866917 -1.982192,-3.893158 -2.496719,-6.022493 -0.180881,-0.753515 -0.84911,-1.279288 -1.624179,-1.279288 l -6.031865,0 c -0.27179,0 -0.52671,-0.105909 -0.718839,-0.297094 -0.19119,-0.189316 -0.296156,-0.442363 -0.296156,-0.714152 l 0,-5.370197 c 0,-0.559513 0.455483,-1.014057 1.014057,-1.014057 l 6.031865,0 c 0.776007,0 1.443299,-0.526711 1.62418,-1.280225 0.513589,-2.125586 1.353328,-4.151827 2.496719,-6.022494 0.403937,-0.658856 0.303656,-1.503279 -0.242736,-2.052482 l -4.268978,-4.268978 c -0.189316,-0.190254 -0.297094,-0.451735 -0.297094,-0.716964 0,-0.267105 0.108712,-0.527648 0.297094,-0.716964 l 3.7985,-3.796626 c 0.361762,-0.359887 1.074039,-0.360825 1.435802,0 l 4.267105,4.268041 c 0.53233,0.534208 1.40768,0.640113 2.05436,0.243674 1.86879,-1.142455 3.89409,-1.98313 6.01968,-2.496719 0.75258,-0.179944 1.27835,-0.846298 1.27835,-1.621369 l 0,-6.032801 c 0,-0.559513 0.45548,-1.014059 1.01406,-1.014059 l 5.37019,0 c 0.55951,0 1.01406,0.455483 1.01406,1.014059 l 0,6.032801 c 0,0.773196 0.52484,1.441425 1.27741,1.624181 2.12559,0.513589 4.15183,1.353326 6.02343,2.496719 0.6448,0.393627 1.52015,0.289597 2.05155,-0.244611 l 4.26804,-4.268041 c 0.36083,-0.359888 1.07404,-0.360825 1.4358,0 l 3.79475,3.796625 c 0.39551,0.395502 0.39551,1.039363 0,1.434864 l -4.26804,4.268042 c -0.54826,0.546392 -0.64948,1.390815 -0.24367,2.05342 1.14339,1.869728 1.98313,3.895034 2.49672,6.021555 0.18088,0.753515 0.84911,1.279289 1.62418,1.279289 l 6.03374,0 c 0.27179,0 0.52671,0.105909 0.7179,0.297094 0.19119,0.190253 0.29616,0.444236 0.29616,0.716026 l 0,5.370197 c 0,0.559513 -0.45549,1.014058 -1.01406,1.014058 l -6.0328,0 c -0.77507,0 -1.4433,0.525773 -1.62418,1.280225 -0.51453,2.128397 -1.35521,4.154639 -2.49672,6.020618 -0.40394,0.659794 -0.30366,1.504218 0.24367,2.053421 l 4.26804,4.269915 c 0.18932,0.189316 0.2971,0.450797 0.2971,0.716964 0,0.267104 -0.10872,0.528585 -0.2971,0.716963 l -3.7985,3.796626 c -0.36082,0.359887 -1.07404,0.360825 -1.4358,0 -0.0131,-0.01312 -0.0281,-0.0253 -0.0441,-0.03655 l -4.24367,-2.968135 c -0.30928,-0.303654 -0.71978,-0.470478 -1.15652,-0.470478 z M 49.262591,58.992221 c 0.0215,0 0.044,-0.0018 0.0657,-0.0065 0.17807,-0.03561 0.29241,-0.208997 0.25679,-0.387067 l -0.99906,-4.946579 c -0.0197,-0.09371 -0.0778,-0.175257 -0.16213,-0.221181 -0.0834,-0.04592 -0.18464,-0.05436 -0.27366,-0.02155 l -4.60638,1.699157 c -0.16964,0.06279 -0.2568,0.251171 -0.19401,0.421743 0.0628,0.169635 0.25023,0.257732 0.42175,0.194001 l 4.24742,-1.567009 0.92316,4.570759 c 0.0309,0.156513 0.16775,0.264291 0.32052,0.264291 z m 1.14058,0.07122 c 0.0225,0 0.0459,-0.0029 0.0684,-0.0076 0.17713,-0.03749 0.29053,-0.21181 0.25211,-0.388942 l -1.0806,-5.07029 c 0.61387,-0.20806 2.33833,-0.732896 5.37863,-1.219306 4.6298,-0.741332 10.378626,-0.749766 10.435795,-0.749766 0.180881,0 0.328022,-0.147142 0.328022,-0.328023 0,-0.18088 -0.147141,-0.328022 -0.328022,-0.328022 -0.0581,0 -5.859415,0.0085 -10.538895,0.758201 -3.97001,0.635426 -5.70571,1.322398 -5.77788,1.351452 -0.14807,0.05904 -0.23243,0.216495 -0.19868,0.373009 l 1.14058,5.350514 c 0.0328,0.152766 0.16962,0.25867 0.32052,0.25867 z M 99.659026,57.29119 c 0.118088,0 0.232427,-0.06373 0.290534,-0.176195 0.08434,-0.160262 0.02249,-0.358949 -0.13777,-0.443298 -0.0328,-0.01687 -3.338332,-1.73852 -8.207122,-3.268041 l -0.358013,-0.112464 c -4.969072,-1.561387 -8.251171,-2.592315 -11.833177,-2.92971 -4.156513,-0.389878 -5.807872,0.693534 -6.42268,1.375821 -0.749766,0.833176 -0.475164,2.029052 -0.274602,2.90253 0.03374,0.146204 0.06561,0.285848 0.09185,0.417994 0.03467,0.17807 0.206185,0.293346 0.386129,0.257732 0.17807,-0.03561 0.293346,-0.20806 0.257732,-0.38613 -0.02718,-0.137769 -0.06092,-0.28491 -0.09653,-0.437675 -0.186504,-0.814433 -0.398312,-1.736644 0.122775,-2.315839 0.427366,-0.475164 1.85567,-1.538894 5.872539,-1.161199 3.512652,0.330835 6.593252,1.298969 11.698219,2.90253 l 0.358012,0.112464 c 4.809747,1.510777 8.066542,3.206185 8.099344,3.223055 0.04967,0.02624 0.101219,0.03843 0.152765,0.03843 z m 6.292404,3.960637 c 0.0562,0 0.11341,-0.015 0.16589,-0.04592 0.10685,-0.06279 2.63824,-1.554827 3.20993,-1.93627 0.15371,-0.102157 0.47329,-0.315839 0.44705,-0.649485 -0.0309,-0.383317 -0.44892,-0.573571 -1.20618,-0.9194 -0.19963,-0.09091 -0.50984,-0.240862 -0.91003,-0.434864 -1.74883,-0.846298 -5.00281,-2.42268 -8.35333,-3.619493 -1.082474,-0.387066 -2.209933,-0.837864 -3.402998,-1.314902 -3.406748,-1.362699 -7.267104,-2.907217 -12.375819,-3.928772 -0.176195,-0.03561 -0.350515,0.07967 -0.386129,0.257732 -0.03561,0.178069 0.07967,0.350515 0.256795,0.38613 5.048734,1.010308 8.880973,2.542642 12.260542,3.895032 1.199625,0.47985 2.332708,0.933458 3.427367,1.323336 3.316772,1.185567 6.551082,2.751641 8.288662,3.592315 0.40581,0.196813 0.72071,0.348641 0.92315,0.441425 0.2268,0.103095 0.57169,0.260543 0.74695,0.369259 -0.0215,0.01593 -0.0478,0.03467 -0.0797,0.05624 -0.5567,0.371133 -3.15276,1.901592 -3.17901,1.916587 -0.15557,0.09185 -0.20806,0.293346 -0.11621,0.448922 0.0619,0.104033 0.17151,0.162137 0.28304,0.162137 z m 11.99344,-1.223992 c 0.0928,0 0.18557,-0.03936 0.25117,-0.116214 l 1.28866,-1.52671 c 0.11622,-0.138706 0.0993,-0.34583 -0.0394,-0.46298 -0.1387,-0.116214 -0.34583,-0.09934 -0.46204,0.03936 l -1.28866,1.52671 c -0.11621,0.138707 -0.0993,0.345829 0.0394,0.462981 0.0609,0.05061 0.13683,0.07685 0.21087,0.07685 z m 2.0806,30.392687 c 0.0384,0 0.0712,-0.0057 0.0965,-0.01316 0.17432,-0.04782 0.27742,-0.228681 0.22962,-0.403 -0.0272,-0.09838 -0.0965,-0.174319 -0.18276,-0.212745 -0.47985,-0.658849 -2.17525,-6.384252 0.85192,-11.775068 0.0881,-0.158387 0.0328,-0.358012 -0.12558,-0.447048 -0.15933,-0.08904 -0.35895,-0.03186 -0.44705,0.125586 -3.21368,5.722586 -1.39269,11.734771 -0.77601,12.525773 0.12653,0.160259 0.25586,0.199623 0.35333,0.199623 z M 74.412541,65.793532 c 0.253046,0 0.459231,-0.206185 0.459231,-0.45923 0,-0.253046 -0.206185,-0.459232 -0.459231,-0.459232 -0.253045,0 -0.459231,0.206186 -0.459231,0.459232 0,0.253045 0.206186,0.45923 0.459231,0.45923 z m 0,-0.656044 c 0.108712,0 0.197751,0.0881 0.197751,0.197751 0,0.108712 -0.0881,0.197751 -0.197751,0.197751 -0.10965,0 -0.19775,-0.0881 -0.19775,-0.197751 0,-0.10965 0.08903,-0.197751 0.19775,-0.197751 z m 1.236176,1.036551 c 0.305529,0 0.55389,-0.24836 0.55389,-0.55389 0,-0.305529 -0.248361,-0.553889 -0.55389,-0.553889 -0.30553,0 -0.553889,0.24836 -0.553889,0.553889 0,0.30553 0.248359,0.55389 0.553889,0.55389 z m 0,-0.656044 c 0.05624,0 0.102157,0.04592 0.102157,0.102157 0,0.112464 -0.204311,0.112464 -0.204311,0 0,-0.05623 0.04592,-0.102157 0.102157,-0.102157 z m 6.980318,0.988752 c 0.167761,0 0.310216,-0.128397 0.326149,-0.298032 0.01594,-0.18088 -0.116214,-0.340205 -0.297095,-0.357075 l -6.492033,-0.594189 c -0.175258,-0.01594 -0.339269,0.116213 -0.357076,0.297095 -0.01594,0.180881 0.116213,0.340205 0.297095,0.357076 l 6.492033,0.594188 c 0.01121,9.37e-4 0.02062,9.37e-4 0.03092,9.37e-4 z m 40.553885,4.233365 c 0.15839,0 0.2971,-0.11434 0.32334,-0.276477 0.0291,-0.179006 -0.0928,-0.347703 -0.27179,-0.37582 -0.0684,-0.01121 -6.97657,-1.118087 -16.41237,-2.247421 -7.186505,-0.860357 -12.995314,-1.420806 -15.787254,-1.689786 l -1.018745,-0.09934 c -2.97938,-0.291472 -6.04686,-0.525773 -6.810683,-0.582943 -0.753515,-1.255857 -2.946579,-1.829428 -4.738519,-1.829428 -1.659794,0 -2.522961,0.81912 -2.559512,0.853796 -0.09185,0.08904 -0.123712,0.223055 -0.08154,0.343954 0.04218,0.1209 0.150891,0.206186 0.278351,0.21837 0.02437,0.0029 2.465792,0.239925 4.363637,0.497657 1.166822,0.158388 1.524835,0.298969 1.621367,0.349578 0.04124,0.06467 0.104033,0.115276 0.183693,0.139644 0.163075,0.04873 0.332709,-0.03374 0.397376,-0.187441 0.01218,0.02249 0.02437,0.04498 0.03467,0.06842 0.05061,0.106847 0.154639,0.179006 0.272727,0.187441 0.03561,0.0029 3.563261,0.260543 6.974695,0.595126 l 1.019681,0.0984 c 2.789128,0.268978 8.593251,0.829427 15.772256,1.688847 9.42362,1.12746 16.31771,2.232428 16.38613,2.243674 0.0178,0.0029 0.0356,0.0038 0.0525,0.0038 z M 78.466899,64.295877 c 1.226803,0 2.653233,0.303654 3.529522,0.877225 -0.300844,-0.08528 -0.752577,-0.177132 -1.43955,-0.270853 -1.139644,-0.154639 -2.474227,-0.302718 -3.369259,-0.396438 0.327084,-0.117151 0.753514,-0.209934 1.279287,-0.209934 z m 3.12746,2.7179 c 0.644798,0 0.935332,-0.102157 1.122774,-0.258669 0.145268,-0.1209 0.227741,-0.289598 0.238988,-0.486411 0.0103,-0.180881 -0.127461,-0.336458 -0.308342,-0.346767 -0.184629,-0.01312 -0.336456,0.127461 -0.346766,0.308341 -9.37e-4,0.01406 -0.0029,0.01968 -0.0029,0.01968 -0.04498,0.05342 -0.348641,0.221182 -2.293345,-0.0178 -2.142455,-0.262418 -4.222118,-0.187441 -4.309278,-0.183692 -0.719776,-0.02906 -1.751641,-0.273665 -1.751641,-0.656046 0,-0.180881 -0.147141,-0.328022 -0.328022,-0.328022 -0.180881,0 -0.328022,0.147141 -0.328022,0.328022 0,1.185568 2.162136,1.302718 2.407685,1.31209 0.04686,-9.37e-4 2.142455,-0.07685 4.230553,0.179007 0.731959,0.09185 1.26804,0.130272 1.668228,0.130272 z m -2.270853,1.467666 c 2.878163,0 3.537957,-0.930647 4.008435,-1.96626 0.07498,-0.164949 0.0018,-0.359888 -0.163074,-0.434865 -0.163075,-0.07404 -0.358951,-0.0018 -0.433927,0.163075 -0.336458,0.74133 -0.7179,1.582005 -3.411434,1.582005 -2.61387,0 -3.346767,-1.154639 -3.353326,-1.166822 -0.05342,-0.09466 -0.150891,-0.155578 -0.259607,-0.164012 -0.901593,-0.07029 -2.148079,-0.409559 -2.147141,-0.860356 9.37e-4,-0.219306 0.06467,-0.372071 0.202437,-0.482662 0.397375,-0.318651 1.301779,-0.211809 1.587628,-0.149015 0.17432,0.03843 0.351453,-0.0731 0.390815,-0.250235 0.03936,-0.177133 -0.0731,-0.35239 -0.250234,-0.390816 -0.143393,-0.03186 -1.427367,-0.292408 -2.13777,0.278351 -0.291471,0.234302 -0.44611,0.57732 -0.447984,0.992503 -0.0038,1.135894 1.922212,1.433926 2.599812,1.503279 0.30553,0.380507 1.32896,1.34583 3.81537,1.34583 z M 46.599051,63.003467 c 0.0881,0 0.17526,-0.03561 0.24086,-0.104971 0.12277,-0.133083 0.11528,-0.340207 -0.0169,-0.463917 -0.0628,-0.05904 -1.58107,-1.435801 -4.7179,-1.435801 -0.18088,0 -0.32803,0.147141 -0.32803,0.328022 0,0.180881 0.14715,0.328022 0.32803,0.328022 2.88191,0 4.25774,1.247423 4.27086,1.259606 0.0628,0.05998 0.14338,0.08904 0.22305,0.08904 z m -4.32803,2.718838 c 2.81256,0 4.82568,-0.888472 5.01032,-2.210872 0.0244,-0.179005 -0.10033,-0.344891 -0.28023,-0.370196 -0.18182,-0.02437 -0.34584,0.100281 -0.3702,0.279288 -0.11154,0.797562 -1.67666,1.644799 -4.35989,1.644799 -2.86973,0 -5.2343,-0.80881 -5.38332,-1.841613 -0.0253,-0.179006 -0.1865,-0.305529 -0.37206,-0.27835 -0.17901,0.02624 -0.30366,0.192127 -0.27742,0.371133 0.23993,1.662606 3.20244,2.405811 6.0328,2.405811 z m 4.08529,-1.690721 c 0.14807,0 0.2821,-0.100281 0.31865,-0.250234 0.0431,-0.176195 -0.0646,-0.353327 -0.24086,-0.396439 -0.0412,-0.0103 -4.18369,-1 -9.49204,-0.860356 -0.18088,0.0047 -0.32427,0.155576 -0.31959,0.336458 0.005,0.178068 0.15089,0.319586 0.32803,0.319586 0.002,0 0.006,0 0.008,0 5.22399,-0.137769 9.27835,0.831303 9.31958,0.841612 0.0262,0.0056 0.0525,0.0094 0.0778,0.0094 z m -1.38332,0.533271 0,0 c 0.0619,0 0.12277,-0.0029 0.18462,-0.0094 0.98877,-0.0984 1.55578,-0.460168 1.55578,-0.992502 0,-1.585755 -2.7957,-1.761949 -4.64574,-1.878163 -0.18651,-0.01218 -0.35801,-0.02249 -0.5089,-0.03374 -0.62419,-0.04779 -1.29522,-0.09185 -1.9747,-0.09185 -1.81537,0 -2.75445,0.326147 -2.95501,1.026241 -0.0796,0.27835 -0.0469,0.55014 0.0965,0.784443 0.35051,0.575444 1.30928,0.832239 2.10403,0.991564 0.57545,0.115277 1.19119,0.03093 1.81818,-0.07873 0.49766,-0.08716 1.01407,-0.179007 1.6373,-0.160263 0.72166,0.02061 1.23618,0.152765 1.69166,0.269916 0.35989,0.09185 0.67104,0.172447 0.99625,0.172447 z m -5.38894,-2.350516 c 0.65791,0 1.31396,0.04312 1.92409,0.08997 0.1537,0.01121 0.32802,0.02249 0.51734,0.03467 1.30834,0.08247 4.03092,0.253983 4.03092,1.223055 0,0.07122 -0.27741,0.270853 -0.96438,0.339268 -0.0393,0.0038 -0.0796,0.0056 -0.11903,0.0056 l 0,0 c -0.24274,0 -0.50328,-0.06748 -0.83318,-0.151827 -0.46392,-0.119026 -1.04124,-0.268042 -1.83599,-0.290535 -0.68978,-0.01969 -1.26523,0.08153 -1.76944,0.169635 -0.56795,0.09934 -1.10216,0.176195 -1.57638,0.08153 -0.94658,-0.189317 -1.50984,-0.421744 -1.67291,-0.688847 -0.0319,-0.05249 -0.0637,-0.130273 -0.0262,-0.262419 0.0375,-0.128397 0.3149,-0.55014 2.32521,-0.55014 z m -23.29241,13.769446 c 0.12652,0 0.24649,-0.0731 0.30084,-0.194939 0.03,-0.06748 3.10123,-6.724461 13.18089,-7.044048 1.97938,-0.06186 3.6401,0.217432 5.00656,0.498594 0.17338,0.03843 0.35051,-0.07685 0.388,-0.25492 0.0366,-0.177133 -0.0778,-0.351453 -0.25492,-0.388004 -1.403,-0.289596 -3.11152,-0.578257 -5.15932,-0.511715 -10.51079,0.333646 -13.72916,7.364573 -13.76008,7.435801 -0.0731,0.165886 0.002,0.35895 0.16776,0.432052 0.0412,0.01874 0.0863,0.02718 0.13027,0.02718 z m 11.3299,-9.809746 c 0.002,0 0.003,0 0.005,0 0.0356,-9.37e-4 3.54546,-0.09185 3.70009,-3.524836 0.0347,-0.778819 -0.17526,-1.413308 -0.62605,-1.884723 -0.68042,-0.71134 -1.72071,-0.861293 -2.47235,-0.861293 -1.07405,0 -2.24462,0.31209 -2.8463,0.7582 -0.76851,0.569822 -1.29335,2.222118 -0.84443,3.580131 0.23805,0.72165 0.95501,1.932521 3.08435,1.932521 z m 0.60544,-5.614808 c 0.88285,0 1.59231,0.234302 1.99812,0.658857 0.32239,0.337395 0.47142,0.80881 0.44518,1.402062 -0.12559,2.793814 -2.90254,2.895033 -3.05249,2.897845 -1.28866,-9.38e-4 -2.13871,-0.51359 -2.45829,-1.482662 -0.35146,-1.064668 0.0478,-2.428304 0.61199,-2.847236 0.41143,-0.304592 1.41144,-0.628866 2.45549,-0.628866 z m 70.967189,-1.856606 6.28866,0 c 0.18088,0 0.32802,-0.147142 0.32802,-0.328023 0,-0.180882 -0.14714,-0.328023 -0.32802,-0.328023 l -6.28866,0 c -0.180881,0 -0.328022,0.147141 -0.328022,0.328023 0,0.180881 0.147141,0.328023 0.328022,0.328023 z m 7.66917,4.995313 c 0.0487,0 0.0993,-0.01121 0.1462,-0.03467 0.16214,-0.08154 0.22774,-0.278351 0.14621,-0.440488 l -1.48923,-2.976569 c -0.0815,-0.1612 -0.27741,-0.227742 -0.44048,-0.147142 -0.16214,0.08153 -0.22775,0.278351 -0.14621,0.440488 l 1.48922,2.97657 c 0.0581,0.115276 0.17339,0.181817 0.29429,0.181817 z m -0.33365,1.596064 c 0.0272,0 0.0534,-0.0029 0.0806,-0.0103 0.1762,-0.04405 0.2821,-0.223056 0.23805,-0.398313 l -1.15651,-4.572633 c -0.0441,-0.176195 -0.22587,-0.282099 -0.39831,-0.238051 -0.1762,0.04405 -0.2821,0.223055 -0.23806,0.398314 l 1.15652,4.572632 c 0.0375,0.149954 0.17057,0.248361 0.31771,0.248361 z m -2.95408,-4.820993 c 0.65417,0 1.27273,-0.216495 1.70947,-0.608248 0.41706,-0.373945 0.6373,-0.876289 0.62137,-1.413309 -0.0366,-1.215557 -1.09185,-2.01968 -2.82287,-2.150889 -1.0731,-0.0806 -2.58294,-0.02343 -3.314902,1.40581 -0.08247,0.1612 -0.01874,0.35895 0.142456,0.441425 0.162136,0.08341 0.358956,0.01874 0.441426,-0.142456 0.43299,-0.845361 1.2343,-1.158388 2.68041,-1.049672 1.3627,0.103095 2.19119,0.669166 2.2165,1.515464 0.0131,0.436738 -0.21181,0.733833 -0.403,0.905342 -0.38613,0.346767 -0.98126,0.503281 -1.59326,0.418932 -0.17994,-0.02531 -0.34489,0.100281 -0.37019,0.280225 -0.0244,0.179006 0.10028,0.344891 0.28022,0.370196 0.13871,0.01781 0.27648,0.02718 0.41237,0.02718 z m -0.48359,0.778818 c 2.16213,0 3.50421,-1.037488 3.50421,-2.706653 0,-0.180881 -0.14714,-0.328023 -0.32802,-0.328023 -0.18088,0 -0.32802,0.147142 -0.32802,0.328023 0,1.283973 -1.06467,2.050608 -2.84817,2.050608 -2.08998,0 -3.420811,-0.78819 -3.560455,-2.108715 -0.0581,-0.551078 0.125586,-1.066542 0.531395,-1.49016 0.55764,-0.582005 1.4583,-0.89222 2.40394,-0.835051 0.18463,0.01218 0.33646,-0.126523 0.34864,-0.307404 0.0112,-0.18088 -0.12652,-0.336458 -0.3074,-0.347704 -1.13965,-0.07029 -2.22962,0.315839 -2.918468,1.035614 -0.536083,0.559513 -0.788191,1.275539 -0.710403,2.014058 0.178069,1.686972 1.753511,2.695407 4.212751,2.695407 z m 0.60824,4.374883 2.04499,0 c 0.70009,0 1.14058,-0.202437 1.52109,-0.699157 0.11058,-0.144329 0.0825,-0.349578 -0.0609,-0.460168 -0.14527,-0.110588 -0.35052,-0.08247 -0.46017,0.06092 -0.224,0.293345 -0.44049,0.442361 -1,0.442361 l -2.04499,0 c -0.0862,-0.0029 -0.53983,-0.04498 -0.60075,-0.656045 -0.0928,-0.925024 -0.0993,-3.203374 -0.0993,-3.225867 0,-0.180881 -0.14714,-0.327085 -0.32802,-0.327085 0,0 0,0 -9.4e-4,0 -0.18088,0 -0.32802,0.148078 -0.32708,0.32896 0,0.09465 0.008,2.333646 0.10309,3.289596 0.0975,0.98688 0.86223,1.246486 1.25305,1.246486 z m 7.56139,-2.561387 c 0.0141,0 0.0281,-9.37e-4 0.0422,-0.0029 0.17994,-0.02249 0.30646,-0.187441 0.28397,-0.367384 l -0.68603,-5.388005 c -0.0225,-0.179942 -0.18463,-0.307403 -0.36739,-0.283973 -0.17994,0.02249 -0.30647,0.187441 -0.28397,0.367385 l 0.68603,5.388004 c 0.0215,0.165885 0.16214,0.286785 0.32521,0.286785 z m -3.64105,24.320518 c 0.78819,0 1.59981,-0.02254 2.44986,-0.07778 4.53608,-0.292409 4.72727,-4.077788 4.88191,-7.119025 0.0244,-0.472352 0.0478,-0.935333 0.0853,-1.376757 0.0637,-0.741331 0.11996,-1.313028 0.1687,-1.806935 0.17151,-1.736645 0.25023,-2.529522 0.21274,-6.328022 -0.045,-4.652297 -1.57263,-7.501406 -1.78819,-7.880038 l -1.36457,-4.886598 c -0.0487,-0.17432 -0.22962,-0.277413 -0.40488,-0.22774 -0.17432,0.04873 -0.27647,0.229615 -0.22774,0.403935 l 1.37676,4.926898 c 0.008,0.02812 0.0197,0.05436 0.0337,0.07967 0.0169,0.02812 1.67292,2.880036 1.71884,7.590439 0.0365,3.762887 -0.0403,4.544517 -0.20994,6.256794 -0.0487,0.49672 -0.1059,1.070291 -0.16963,1.815371 -0.0384,0.448922 -0.0628,0.9194 -0.0872,1.39925 -0.15558,3.068416 -0.31677,6.241799 -4.26898,6.496719 -2.65792,0.171509 -4.93533,0.02061 -7.3477,-0.138706 -2.08529,-0.13777 -4.242737,-0.279288 -6.951265,-0.25867 -2.961575,0.02624 -8.34583,-0.108712 -14.045923,-0.248359 -5.692596,-0.139644 -12.145266,-0.298032 -17.105903,-0.3224 -2.666355,-0.015 -4.956888,0.04592 -6.974698,0.0984 -5.28023,0.135895 -8.18649,0.210871 -9.16307,-1.23805 -0.46955,-0.697283 -0.7629,-1.694471 -1.10215,-2.848172 -0.67292,-2.287723 -1.5942,-5.422681 -4.64481,-8.47329 -1.85566,-1.85567 -3.02155,-2.568885 -3.87348,-3.089971 -1.19024,-0.72821 -1.73383,-1.060919 -2.85473,-3.931585 -1.88566,-4.830364 -1.2896,-7.997187 -1.28397,-8.029052 0.0356,-0.177133 -0.0796,-0.350516 -0.2568,-0.386129 -0.1762,-0.03655 -0.35052,0.07873 -0.38613,0.256794 -0.0272,0.134958 -0.64668,3.371133 1.31584,8.397375 1.2015,3.076851 1.84349,3.469541 3.12277,4.253046 0.8238,0.504218 1.95221,1.194002 3.75257,2.994377 2.93253,2.93252 3.79101,5.850046 4.47986,8.194001 0.35427,1.206186 0.66074,2.24836 1.18745,3.02999 1.17806,1.747891 4.21462,1.669166 9.72446,1.526711 2.01312,-0.05249 4.298967,-0.112465 6.954076,-0.0984 4.954076,0.02437 11.402998,0.181818 17.092783,0.322398 5.706653,0.139644 11.096531,0.273666 14.067477,0.249298 2.690721,-0.02437 4.828493,0.119962 6.902533,0.257732 1.66823,0.110588 3.27272,0.216495 4.98406,0.216495 z M 47.741501,61.252765 c 0.16026,0 0.29991,-0.117151 0.32427,-0.280226 0.0262,-0.179006 -0.0975,-0.345829 -0.27647,-0.373008 -0.10776,-0.01593 -10.93252,-1.597938 -20.64292,-1.597938 -9.66449,0 -15.78913,-0.657919 -15.85006,-0.66448 -0.18556,-0.01687 -0.34207,0.110588 -0.36175,0.290534 -0.0197,0.179944 0.11062,0.342081 0.29053,0.361763 0.0609,0.0065 6.21838,0.668228 15.92221,0.668228 9.6626,0 20.43955,1.575445 20.54734,1.591378 0.015,0.0029 0.0309,0.0038 0.0469,0.0038 z M 4.9767415,65.205904 c 0.16308,0 0.30553,-0.121836 0.32521,-0.28866 0.0666,-0.537957 0.2896,-2.054358 0.52765,-2.603561 0.26054,-0.600749 0.35989,-0.71134 1.15276,-0.895032 0.61482,-0.142456 4.1059095,-0.0731 6.3027195,0.0085 0.12746,0.0029 0.24929,-0.06748 0.30647,-0.183693 0.0572,-0.116214 0.0403,-0.255856 -0.0431,-0.3552 -0.79662,-0.952203 -2.72258,-1.628867 -4.4207995,-2.22493 -0.60544,-0.212747 -1.17806,-0.413308 -1.66167,-0.612934 -0.7329,-0.300843 -0.75633,-0.507029 -0.75633,-0.508904 -9.3e-4,-0.06748 0.17339,-0.208997 0.31022,-0.269915 0.16495,-0.07404 0.23992,-0.268041 0.16588,-0.43299 -0.074,-0.165885 -0.26803,-0.239925 -0.43392,-0.165885 -0.0722,0.03186 -0.70665,0.330834 -0.69822,0.8791 0.006,0.425492 0.38613,0.787254 1.16308,1.106842 0.49953,0.205247 1.07966,0.409559 1.69353,0.625117 1.2221195,0.42924 2.5660695,0.900655 3.4451695,1.456419 -1.65229,-0.04967 -4.8247395,-0.121837 -5.5220295,0.0403 -0.96438,0.223993 -1.24929,0.449859 -1.60637,1.273665 -0.32427,0.747892 -0.56701,2.701968 -0.57638,2.784442 -0.0225,0.179944 0.10594,0.343955 0.28585,0.365511 0.0131,9.38e-4 0.0272,0.0018 0.0403,0.0018 z m -0.90346,1.808809 c 9.3e-4,0 0.002,0 0.002,0 0.18088,-0.0018 0.32709,-0.149952 0.32521,-0.330834 0,-0.02249 -0.0197,-2.264292 0.0159,-2.911902 0.008,-0.141518 0.006,-0.287722 0.003,-0.443298 -0.008,-0.576383 -0.0179,-1.228679 0.50046,-2.337395 0.66168,-1.415183 1.20806,-2.117151 1.21369,-2.123712 0.11154,-0.142454 0.0872,-0.34864 -0.0543,-0.460168 -0.14246,-0.112465 -0.3477,-0.0881 -0.46016,0.05436 -0.0244,0.02999 -0.59607,0.761013 -1.29335,2.252109 -0.582,1.244611 -0.5717,2.010309 -0.56233,2.625117 0.002,0.139643 0.005,0.270853 -0.002,0.397375 -0.0366,0.668229 -0.0178,2.860357 -0.0169,2.954077 0.002,0.179007 0.14808,0.324274 0.32803,0.324274 z m 0.2118,1.730085 c 0.0262,0 0.0534,-0.0029 0.0796,-0.0094 0.17526,-0.04406 0.28303,-0.222118 0.23899,-0.397376 -0.0909,-0.36551 -0.2896,-1.419869 -0.12091,-1.908154 0.0496,-0.08622 0.22681,-0.225866 0.49861,-0.402998 0.0412,-0.01594 0.0778,-0.0403 0.1097,-0.07029 0.98501,-0.619495 2.97657,-1.628867 4.78258,-2.450797 1.0243595,-0.378632 1.0758995,-0.622305 1.0402895,-0.8388 -0.0572,-0.344893 -0.46673,-0.355202 -0.62043,-0.358951 -0.6729095,-0.01121 -1.1105995,0.171509 -1.9100295,0.51359 -0.43299,0.185566 -0.97189,0.41612 -1.73196,0.696344 -2.0403,0.753515 -2.20619,1.379569 -2.13589,2.053421 -0.35614,0.253046 -0.59419,0.475164 -0.65323,0.644798 -0.26149,0.760076 0.0666,2.12746 0.1049,2.281163 0.0365,0.147141 0.17058,0.247422 0.31772,0.247422 z m 3.27086,-4.870665 c -0.82849,0.406747 -1.66167,0.840674 -2.32709,1.237113 0.14058,-0.261481 0.5492,-0.571696 1.64949,-0.978444 0.24835,-0.09185 0.47235,-0.178069 0.6776,-0.258669 z M 15.778051,86.97535 c 0.18089,0 0.32803,-0.147142 0.32803,-0.328023 0,-0.305529 -0.0843,-0.31865 -1.12184,-0.483598 -2.35521,-0.374883 -9.5210895,-1.516401 -11.3223895,-4.254921 -1.43768,-2.186504 -1.59139,-3.751639 -1.71416,-5.009372 -0.0704,-0.712276 -0.13028,-1.327084 -0.40581,-1.896906 -0.0796,-0.163074 -0.2746,-0.23149 -0.43862,-0.152765 -0.16307002,0.07873 -0.23149002,0.274602 -0.15276002,0.438613 0.22493002,0.464855 0.27741002,0.999063 0.34396002,1.675726 0.12371,1.259606 0.29241,2.984068 1.81911,5.30553 1.9597,2.980317 9.0852895,4.115276 11.7675695,4.542642 0.32896,0.05249 0.64011,0.102157 0.74508,0.126523 0.045,0.02343 0.0966,0.03655 0.15183,0.03655 z M 2.0714015,83.656699 c 0.15277,0 0.2896,-0.107774 0.32146,-0.263354 0.0356,-0.177132 -0.0787,-0.350515 -0.25585,-0.38613 l 0,0 c -0.009,-0.0018 -0.95502,-0.207122 -1.37020002,-0.962512 -0.32896,-0.598874 0.17526,-1.397375 0.17994,-1.40581 0.0975,-0.152765 0.0534,-0.355201 -0.0975,-0.453608 -0.15183,-0.09747 -0.35427,-0.0553 -0.45267,0.09653 -0.03,0.04592 -0.72352,1.134022 -0.20432,2.078726 0.56327,1.026242 1.76383002,1.279288 1.81444002,1.289597 0.0215,0.0047 0.0431,0.0065 0.0646,0.0065 z m 6.09747,-8.969071 c 0.15183,0 0.28866,-0.105909 0.32053,-0.261481 0.0375,-0.177132 -0.0769,-0.351452 -0.25399,-0.388003 -5.18744,-1.084349 -6.13027,-1.195876 -6.16776,-1.199625 -0.18275,-0.01969 -0.34207,0.10965 -0.36176,0.289596 -0.0206,0.179944 0.10868,0.342081 0.28866,0.3627 0.0384,0.0047 0.98875,0.119963 6.10683,1.190252 0.0225,0.0047 0.045,0.0065 0.0675,0.0065 z m 8.3345795,2.140581 0.0234,-0.656045 c 0,0 -6.8491095,-0.23805 -10.1546295,-0.356138 -2.28866,-0.08248 -4.22212,-0.192128 -4.69728,-0.70853 -0.074,-0.0806 -0.10502,-0.166822 -0.0993,-0.281161 0.008,-0.180881 -0.1312,-0.334583 -0.31302,-0.343018 -0.17808,-0.0038 -0.33458002,0.131208 -0.34301002,0.313027 -0.0132,0.290535 0.0778,0.544518 0.27178002,0.755389 0.59794,0.649485 2.07498,0.80881 5.15652,0.9194 3.30646,0.119025 10.1555695,0.357076 10.1555695,0.357076 z m 4.67292,-2.433926 c 0.14057,0 0.26991,-0.08997 0.31303,-0.230554 0.0534,-0.173383 -0.0431,-0.357075 -0.21556,-0.410497 -0.34209,-0.106847 -8.41894,-2.619493 -11.20994,-3.186504 -2.3514595,-0.478913 -2.5651395,-0.856606 -2.8612895,-1.379568 -0.0431,-0.07498 -0.0863,-0.152765 -0.13589,-0.23149 -0.41331,-0.665417 -1.01126,-1.940957 -1.01781,-1.95314 -0.0769,-0.164012 -0.2718,-0.235239 -0.43581,-0.157451 -0.16401,0.07685 -0.2343,0.27179 -0.15744,0.436739 0.0244,0.05342 0.62043,1.323336 1.05435,2.020618 0.044,0.07122 0.0834,0.141518 0.12184,0.208998 0.40769,0.719774 0.78444,1.18744 3.30178,1.699155 2.7581995,0.560451 11.0618495,3.144331 11.1452595,3.170572 0.0328,0.0085 0.0655,0.01312 0.0975,0.01312 z m 21.80786,-15.893158 c 0.0114,0 0.0225,-9.37e-4 0.0338,-0.0018 0.17994,-0.01874 0.31115,-0.179006 0.29334,-0.359887 l -0.8238,-8.054358 c -0.009,-0.09372 -0.059,-0.179007 -0.13589,-0.233364 -0.0769,-0.05436 -0.17432,-0.07498 -0.26523,-0.05249 -0.14434,0.03374 -3.56796,0.834115 -5.98501,2.189316 -2.20244,1.235239 -1.7985,2.635426 -1.30272,3.581068 0.51358,0.981256 1.84349,2.728211 1.89972,2.80225 0.1097,0.143393 0.31584,0.172446 0.46017,0.06186 0.14433,-0.10965 0.17151,-0.315839 0.0619,-0.460169 -0.0141,-0.01781 -1.3524,-1.776945 -1.84068,-2.709466 -0.41518,-0.792877 -0.71133,-1.720712 1.04217,-2.703842 1.88754,-1.058107 4.50047,-1.788191 5.44893,-2.032803 l 0.78537,7.6776 c 0.0188,0.169636 0.16121,0.296158 0.32803,0.296158 z m 1.01501,0 c 0.0141,0 0.0271,-9.37e-4 0.0412,-0.0029 0.17901,-0.02249 0.30741,-0.186505 0.28492,-0.366447 l -0.98407,-7.92971 c 0.42174,-0.129334 1.81162,-0.494846 5.97844,-1.219307 5.74321,-0.999062 15.548268,-1.26148 15.646675,-1.263355 0.180881,-0.0047 0.324273,-0.155576 0.319586,-0.336456 -0.0047,-0.178071 -0.15089,-0.319588 -0.328022,-0.319588 -0.0029,0 -0.0056,0 -0.0085,0 -0.0984,0.0029 -9.951269,0.266166 -15.742279,1.272727 -5.48266,0.95314 -6.29428,1.303655 -6.41331,1.388004 -0.0984,0.07028 -0.14995,0.188378 -0.13496,0.307403 l 1.015,8.18088 c 0.0206,0.166824 0.1612,0.288661 0.32522,0.288661 z m 22.287714,1.239925 c 0.01121,0 0.02249,-9.37e-4 0.03374,-0.0018 0.179944,-0.01874 0.311152,-0.179006 0.293345,-0.359887 L 65.284148,46.361511 c -0.01874,-0.179943 -0.185566,-0.307403 -0.359887,-0.293346 -0.179944,0.01875 -0.311153,0.179007 -0.293347,0.359888 l 1.329898,13.017807 c 0.01781,0.169634 0.160262,0.29522 0.326147,0.29522 z m 0.665418,0 c 0.01121,0 0.02249,-9.37e-4 0.03373,-0.0018 0.179944,-0.01874 0.311154,-0.179006 0.293347,-0.359887 L 65.949557,46.361511 c -0.01874,-0.179943 -0.182756,-0.307403 -0.359888,-0.293346 -0.179944,0.01875 -0.311153,0.179007 -0.293346,0.359888 L 66.62622,59.44586 c 0.01687,0.169634 0.159325,0.29522 0.326148,0.29522 z m 4.315838,26.68697 c 0.149017,0 0.283974,-0.102156 0.319588,-0.253983 1.211809,-5.236175 1.057169,-11.982191 0.834115,-16.601685 -0.243675,-5.059981 -1.785381,-9.716963 -1.911903,-10.091846 l -2.468604,-13.16401 c -0.0328,-0.178069 -0.205248,-0.29522 -0.383317,-0.262418 -0.178069,0.03374 -0.29522,0.205248 -0.261481,0.383318 l 2.473289,13.186503 c 0.0029,0.01593 0.0076,0.03187 0.01218,0.04686 0.01687,0.04686 1.636364,4.779756 1.885661,9.932521 0.220244,4.58013 0.37582,11.265229 -0.818182,16.421742 -0.04124,0.176195 0.06936,0.35239 0.245548,0.393627 0.02343,0.0065 0.04779,0.0094 0.0731,0.0094 z M 119.67215,63.770103 c 0.0637,0 0.12933,-0.01874 0.18556,-0.05904 0.19775,-0.13777 0.52578,-0.495783 0.50422,-0.966261 -0.0225,-0.48641 -0.39738,-0.940018 -1.1134,-1.347704 -0.97938,-0.5567 -9.89785,-5.555764 -21.487349,-9.686035 -11.014058,-3.924085 -27.392688,-4.641987 -27.5567,-4.648547 -0.119963,-0.0038 -0.216495,0.04686 -0.280224,0.136832 -0.06467,0.08997 -0.07967,0.206186 -0.03936,0.309279 l 4.808809,12.436737 c 0.06467,0.168697 0.25492,0.253046 0.424555,0.187441 0.169634,-0.06561 0.253046,-0.255857 0.187441,-0.424554 L 70.679648,47.743866 c 2.834114,0.153702 17.024367,1.080599 26.861292,4.585754 11.53702,4.111527 20.40956,9.084347 21.38332,9.638237 0.49109,0.279288 0.76944,0.565135 0.78256,0.804123 0.0131,0.226805 -0.22305,0.401125 -0.22586,0.403 -0.14527,0.105909 -0.17995,0.310215 -0.0759,0.45642 0.0637,0.08997 0.16495,0.138707 0.2671,0.138707 z m 0.67197,0.02249 c 1.01687,0 1.66167,-0.200563 1.78819,-1.070291 0.209,-1.444237 -2.10496,-2.465792 -5.03467,-3.7582 -1.13965,-0.502343 -2.31772,-1.022493 -3.37395,-1.588566 l -0.42174,-0.227741 c -13.61762,-7.36551 -28.80506,-11.10028 -45.141517,-11.10028 -21.214622,0 -30.595132,3.698219 -34.298962,5.90253 -0.0713,0.04218 -0.12747,0.07591 -0.17152,0.100281 -0.91471,0.514527 -1.89597,1.360825 -1.36082,3.35239 0.46392,1.722586 1.75539,2.899719 1.80975,2.94939 0.0572,0.05155 0.13026,0.0806 0.20712,0.08434 0.21556,0.0085 21.69447,0.830366 33.229615,1.331772 11.529521,0.501405 31.058105,2.013121 31.253981,2.029054 0.175258,0.02061 0.338331,-0.1209 0.35239,-0.301781 0.01406,-0.180882 -0.1209,-0.338332 -0.301781,-0.35239 -0.195876,-0.015 -19.734769,-1.528585 -31.276474,-2.029991 -11.076851,-0.481724 -31.320531,-1.258669 -33.107781,-1.327084 -0.27834,-0.277414 -1.18462,-1.257733 -1.53327,-2.552953 -0.39268,-1.460169 0.10971,-2.081537 1.04874,-2.609184 0.0469,-0.02624 0.10868,-0.06279 0.18462,-0.108712 3.64574,-2.169634 12.90535,-5.810684 33.963454,-5.810684 16.225866,0 31.30834,3.708528 44.828495,11.021555 l 0.42361,0.228678 c 1.07779,0.57732 2.26804,1.102157 3.41893,1.610123 2.35333,1.038425 4.78726,2.112464 4.64949,3.063729 -0.0778,0.541707 -0.55764,0.569822 -2.41612,0.447048 l -0.46673,-0.02999 c -2.00094,-0.125585 -11.93908,-1.067478 -12.03843,-1.076851 -0.18463,-0.01594 -0.34114,0.115276 -0.35801,0.296158 -0.0169,0.179944 0.11528,0.340206 0.29616,0.358013 0.10028,0.0094 10.04873,0.953139 12.05998,1.078725 l 0.46392,0.02999 c 0.49109,0.03093 0.93533,0.06092 1.32333,0.06092 z m -5.63261,25.640114 c 0.18088,0 0.32708,-0.146211 0.32802,-0.327085 9.4e-4,-0.181824 -0.14527,-0.328962 -0.32708,-0.3299 L 45.095761,88.468313 c 0.015,-1.662601 -0.19212,-8.835984 -4.64385,-13.486405 -2.50797,-2.619494 -5.92315,-3.948454 -10.1509,-3.948454 -4.56795,0 -8.18369,1.359888 -10.74414,4.0403 -3.82474,4.003749 -4.11059,9.649484 -4.11246,11.193065 -1.74976,-0.250235 -9.0262495,-1.314903 -11.1012195,-2.024368 -2.10684,-0.720712 -2.43486,-1.522024 -3.02999,-2.977506 l -0.13402,-0.326149 C 0.64029148,79.641701 0.66090148,78.765412 0.68621148,77.750418 c 0.005,-0.220244 0.0103,-0.446111 0.0103,-0.680412 0,-0.655108 0.15277,-0.860357 0.36457002,-1.14433 0.17058,-0.228679 0.38333,-0.51359 0.50704,-1.040301 0.0778,-0.332708 0.21649,-0.56701 0.37769,-0.839737 0.31303,-0.530459 0.70197,-1.189315 0.77227,-2.789128 0.0637,-1.438613 0.34113,-1.62418 1.37581,-2.315839 0.15839,-0.105909 0.33177,-0.222118 0.52203,-0.354265 0.50983,-0.355201 0.92971,-0.775069 1.37394,-1.219306 0.88285,-0.882849 1.88473,-1.884723 4.0299895,-2.874414 3.35051,-1.546391 3.70572,-2.817245 3.73477,-2.957826 0.0375,-0.177131 -0.0769,-0.351452 -0.25398,-0.38894 -0.17057,-0.03655 -0.34489,0.07216 -0.38707,0.244611 -0.0103,0.03561 -0.373,1.122774 -3.3692595,2.506092 -2.25117,1.039362 -3.34207,2.130271 -4.21837,3.00656 -0.44143,0.441424 -0.82286,0.822868 -1.28491,1.14433 -0.18557,0.129334 -0.35613,0.243673 -0.51171,0.347703 -1.09091,0.729148 -1.58856,1.061856 -1.66635,2.83224 -0.0628,1.435801 -0.3777,1.968135 -0.68229,2.483599 -0.17245,0.291471 -0.34958,0.593252 -0.45080002,1.022493 -0.0919,0.393627 -0.23899,0.59044 -0.39457,0.798501 -0.24274,0.326147 -0.49483,0.663542 -0.49483,1.536082 0,0.229616 -0.006,0.448922 -0.0103,0.66448 -0.0253,1.044986 -0.0487,2.030928 0.54358,3.456419 l 0.13215,0.322399 c 0.60169002,1.470478 1.03655002,2.533271 3.42549002,3.350516 2.41237,0.825679 11.2296195,2.055294 11.6035595,2.107779 0.0984,0.01406 0.19401,-0.01687 0.26617,-0.08247 0.0722,-0.06561 0.11153,-0.160262 0.10684,-0.256795 -0.002,-0.06655 -0.25117,-6.736644 3.92877,-11.106841 2.43206,-2.54358 5.8866,-3.834113 10.26617,-3.834113 4.0403,0 7.29522,1.259606 9.67478,3.743204 4.76008,4.969072 4.46018,13.264295 4.45737,13.346776 -0.003,0.089 0.029,0.176195 0.0899,0.240852 0.061,0.06463 0.14714,0.101242 0.23618,0.102157 l 69.950319,0.30835 c -9.3e-4,0.0023 -9.3e-4,0.0023 0,0.0023 z M 13.432231,61.798219 c 9.3e-4,0 0.002,0 0.002,0 0.0563,-9.36e-4 5.6851,-0.0553 10.66448,-0.0103 9.4e-4,0 0.002,0 0.002,0 0.17994,0 0.32614,-0.145267 0.32802,-0.325211 0.002,-0.181819 -0.14434,-0.329897 -0.32521,-0.330834 -4.33272,-0.03843 -9.15464,-0.0029 -10.38051,0.0076 -0.0168,-0.04405 -0.0384,-0.08528 -0.0656,-0.125585 -0.27554,-0.41612 -0.96814,-0.549205 -2.11621,-0.770385 -0.93627,-0.179944 -2.1012195,-0.404874 -3.3242695,-0.856607 -1.68323,-0.622306 -2.59888,-1.151827 -2.57732,-1.491097 0.009,-0.190252 0.03,-0.582942 1.70665,-0.615745 2.26992,-0.04405 6.1602595,-0.634488 10.4048795,-1.57732 l 0.19306,-0.0431 c 3.52577,-0.782568 3.52577,-0.782568 10.29616,-3.547329 1.62137,-0.662605 3.63449,-1.483598 6.179,-2.513589 12.44518,-5.037488 31.993441,-5.289597 46.138708,-3.846298 11.706653,1.194939 16.970945,3.452671 26.527641,7.552015 l 1.66823,0.715089 c 10.40394,4.449859 14.9119,6.447047 14.95595,6.466728 0.16495,0.07404 0.35895,-9.37e-4 0.43299,-0.166822 0.074,-0.165886 -9.3e-4,-0.359888 -0.16682,-0.43299 -0.0441,-0.01968 -4.55483,-2.018744 -14.96438,-6.470478 l -1.6673,-0.715088 C 97.72864,48.575287 92.431545,46.303496 80.625547,45.099186 66.403431,43.648389 46.729581,43.907995 34.173821,48.989532 c -2.54546,1.029991 -4.55859,1.851921 -6.18089,2.514527 -6.71883,2.743205 -6.71883,2.743205 -10.19025,3.514527 l -0.19307,0.04312 c -4.14151,0.920338 -8.0796495,1.519213 -10.2755395,1.561388 -1.60355,0.03093 -2.30552,0.394564 -2.3477,1.21462 -0.0328,0.529521 0.17338,1.117151 3.00469,2.164012 1.27273,0.470477 2.4676695,0.700093 3.4273695,0.884723 0.68509,0.132146 1.62323,0.313027 1.69541,0.492034 -0.0206,0.09747 0.002,0.209934 0.0656,0.287722 0.0599,0.07685 0.15276,0.132146 0.25118,0.132146 z m 15.99812,0.113403 c 0.17525,0 0.32053,-0.138707 0.32708,-0.315839 0.007,-0.180881 -0.13495,-0.333646 -0.31584,-0.340207 l -0.69352,-0.02624 c -0.90816,-0.03467 -1.64293,-0.06279 -2.62138,-0.07873 -0.002,0 -0.003,0 -0.006,0 -0.17899,0 -0.32521,0.143392 -0.32801,0.322398 -0.002,0.180882 0.14151,0.330835 0.3224,0.333646 0.97375,0.01594 1.70383,0.04406 2.60824,0.07873 l 0.69447,0.02624 c 0.003,0 0.008,0 0.0121,0 z m 6.86973,0.394564 c 0.16495,0 0.30647,-0.123712 0.32521,-0.291472 0.0206,-0.179943 -0.1096,-0.34208 -0.2896,-0.362699 -0.0141,-0.0018 -1.44986,-0.1612 -4.56514,-0.300844 -0.16307,-0.01687 -0.33458,0.132146 -0.34208,0.313027 -0.008,0.180882 0.13215,0.334583 0.31303,0.342081 3.0881,0.138707 4.50609,0.296158 4.52015,0.297095 0.0132,0.0018 0.0253,0.0029 0.0384,0.0029 z m 75.657909,22.999999 c 0.12746,0 0.24368,-0.07404 0.29804,-0.190254 0.0572,-0.122773 0.0328,-0.268041 -0.0618,-0.36551 -1.0478,-1.089035 -2.03656,-1.194003 -7.51828,-1.772259 -0.75914,-0.07967 -1.6045,-0.169635 -2.55014,-0.27179 -3.378631,-0.366448 -8.393626,-0.649484 -14.201498,-0.978445 -7.315839,-0.414245 -16.419868,-0.929708 -25.884723,-1.812558 -5.292408,-0.493908 -9.215548,-0.744142 -11.661678,-0.744142 -2.72915,0 -3.02999,0.300843 -3.1134,0.635426 -0.0675,0.270853 0.13122,0.485473 0.3224,0.586692 0.0637,0.04967 2.54171,1.761949 11.02999,2.585754 8.606381,0.835051 28.76383,1.653234 37.634496,1.776008 8.955953,0.124648 15.619493,0.546391 15.686033,0.551078 0.006,0 0.0141,0 0.0206,0 z M 50.378801,79.827272 c 2.42549,0 6.32896,0.249297 11.600751,0.74133 9.476101,0.883786 18.586691,1.400188 25.908152,1.814433 5.798501,0.328022 10.805998,0.611997 14.167756,0.975632 0.94658,0.102157 1.79382,0.192129 2.55202,0.271791 3.75445,0.396439 5.32052,0.562324 6.22868,0.954077 C 108.555,84.459887 103.06858,84.192782 96.260712,84.098124 87.400357,83.97535 67.27196,83.158106 58.680581,82.324929 c -6.9222,-0.671041 -9.77507,-1.955015 -10.53139,-2.362699 0.31771,-0.06279 0.95782,-0.134958 2.22961,-0.134958 z M 73.23541,65.240581 c 0.169634,0 0.313027,-0.130272 0.327084,-0.301781 0.015,-0.180881 -0.119962,-0.339269 -0.300843,-0.353327 -0.03374,-0.0029 -3.445173,-0.279288 -10.776945,-0.969072 -7.339265,-0.689785 -15.653235,-1.263355 -15.735705,-1.268978 -0.18463,-0.01312 -0.33739,0.123711 -0.34958,0.304592 -0.0121,0.180881 0.12371,0.337394 0.3046,0.349578 0.0834,0.0056 8.38893,0.578257 15.719768,1.268041 7.337394,0.689785 10.751639,0.967198 10.785378,0.97001 0.0085,9.37e-4 0.01781,9.37e-4 0.02624,9.37e-4 z m 70.44236,8.003748 c 0.0647,0 0.13027,-0.01968 0.18744,-0.05904 0.14808,-0.104034 0.18463,-0.308342 0.0815,-0.457357 -0.13121,-0.188379 -3.31678,-4.610122 -11.93627,-4.610122 -8.62605,0 -11.19681,3.792877 -11.30178,3.954076 -0.0993,0.151828 -0.0562,0.355202 0.0956,0.454546 0.15183,0.09934 0.3552,0.05623 0.45361,-0.09559 0.0244,-0.03561 2.51827,-3.656044 10.75258,-3.656044 8.28022,0 11.36832,4.286784 11.39831,4.329896 0.0637,0.09091 0.16495,0.139644 0.26898,0.139644 z m -1.37957,-5.21462 c 0.14808,0 0.2821,-0.101219 0.31865,-0.251171 0.0422,-0.176195 -0.0666,-0.353327 -0.24274,-0.395502 -0.0647,-0.01594 -5.86504,-1.397375 -12.89503,-2.048734 3.87535,0.168697 7.41987,0.686035 11.14808,1.229615 2.04311,0.298032 4.15651,0.606374 6.37863,0.862231 0.18369,0.02249 0.34302,-0.108712 0.36364,-0.28866 0.0206,-0.179944 -0.10872,-0.343018 -0.28866,-0.363636 -2.21275,-0.25492 -4.32053,-0.562325 -6.35895,-0.85942 -4.22493,-0.615744 -8.21462,-1.19775 -12.73009,-1.283035 -6.49484,-0.122775 -6.49578,-0.04873 -6.51171,0.361761 -0.0169,0.409559 -0.0187,0.462981 5.44236,0.801313 8.05155,0.49953 15.22774,2.209933 15.29897,2.226803 0.0253,0.0047 0.0515,0.0085 0.0769,0.0085 z m 1.30459,-3.201499 c 0.14339,0 0.2746,-0.09371 0.31584,-0.238051 0.0497,-0.174321 -0.0516,-0.356138 -0.22587,-0.404874 -0.0722,-0.02061 -7.26241,-2.051546 -14.39831,-2.82849 -0.17807,-0.01781 -0.34208,0.110588 -0.36176,0.290534 -0.0197,0.179944 0.11059,0.342081 0.29053,0.361762 7.07967,0.771322 14.21837,2.787253 14.2896,2.806935 0.03,0.0085 0.0609,0.01218 0.09,0.01218 z M 44.761181,89.123425 c 0.0459,0 0.0928,-0.0092 0.13683,-0.02997 0.16401,-0.07596 0.23618,-0.268983 0.1612,-0.432995 -0.0188,-0.0413 -0.47329,-1.011239 -1.71696,-1.581067 -1.21837,-0.558575 -1.60637,-0.488284 -1.80881,-0.366447 -0.12558,0.07591 -0.20337,0.201499 -0.21088,0.334583 -0.009,0.18088 0.13028,0.334585 0.31116,0.343954 0.10685,0.0023 0.19681,-0.03752 0.26054,-0.107774 0.10777,0.0018 0.42456,0.04779 1.17527,0.391743 1.01218,0.463928 1.39081,1.251177 1.39456,1.25867 0.0543,0.119031 0.17244,0.189317 0.29709,0.189317 z m -28.46954,-0.751637 c 0.0778,0 0.15464,-0.02723 0.2165,-0.08157 9.4e-4,-9.38e-4 0.31302,-0.26149 1.00937,-0.46673 0.20993,-0.06189 0.37864,-0.08717 0.52859,-0.108678 0.4461,-0.06658 0.79006,-0.172443 0.81911,-0.865038 0.008,-0.180881 -0.13214,-0.334583 -0.31397,-0.342081 -0.16587,-0.0094 -0.33457,0.132146 -0.34207,0.313964 -0.008,0.164949 -0.0309,0.206185 -0.0319,0.20806 -0.0168,0.0047 -0.13402,0.02155 -0.22869,0.03561 -0.15369,0.02249 -0.36363,0.05436 -0.61668,0.129335 -0.42267,0.124649 -0.72914,0.268039 -0.93345,0.384255 -0.0244,-0.06749 -0.046,-0.149014 -0.0581,-0.244604 -0.0656,-0.497664 -0.2746,-0.916596 -0.28303,-0.934403 -0.0807,-0.1612 -0.27742,-0.226804 -0.43955,-0.146204 -0.16214,0.0806 -0.22774,0.27835 -0.14715,0.440487 0.002,0.0029 0.1687,0.342081 0.21931,0.726341 0.0702,0.541707 0.33927,0.825676 0.36926,0.855671 0.0637,0.06372 0.14808,0.09564 0.23243,0.09564 z m 105.963449,3.391749 c 0.10122,0 0.20056,-0.0469 0.26523,-0.134017 0.10685,-0.1462 0.0759,-0.351452 -0.0703,-0.458299 -0.0572,-0.04118 -1.40488,-1.021547 -3.10216,-1.40018 -1.70103,-0.379571 -2.33645,-0.0262 -2.44611,0.04873 -0.14995,0.102157 -0.18931,0.305533 -0.0872,0.455486 0.10216,0.149952 0.30647,0.189316 0.45548,0.08717 l 0,0 c 9.4e-4,0 0.50797,-0.268983 1.93534,0.04873 1.55763,0.3477 2.84348,1.280223 2.85567,1.289592 0.059,0.04221 0.12652,0.0628 0.194,0.0628 z m 24.38894,-0.380497 c 0.0853,0 0.16963,-0.03283 0.23243,-0.09655 0.0403,-0.04027 0.39643,-0.417059 0.49297,-1.152761 0.089,-0.681352 0.004,-1.351458 0,-1.379566 -0.0244,-0.179009 -0.18463,-0.304594 -0.36833,-0.283042 -0.179,0.02345 -0.30646,0.188379 -0.28303,0.367388 9.3e-4,0.0057 0.0778,0.615744 0,1.209937 -0.0337,0.253985 -0.10685,0.44329 -0.17339,0.572628 -0.35051,-0.189317 -1.00937,-0.513588 -1.80787,-0.748823 l -0.14995,-0.04404 c -1.05623,-0.309274 -1.19213,-0.374881 -1.22118,-1.045926 -0.007,-0.181812 -0.17901,-0.327085 -0.34208,-0.313964 -0.18088,0.008 -0.32146,0.161209 -0.31397,0.342083 0.0497,1.165883 0.66823,1.347706 1.69166,1.647611 l 0.14995,0.04404 c 1.08154,0.318643 1.91097,0.827551 1.9194,0.833168 0.0534,0.03192 0.11341,0.04782 0.17339,0.04782 z m 7.07497,-4.788196 c 0.18089,0 0.32803,-0.147141 0.32803,-0.328022 0,-0.180881 -0.14621,-0.328023 -0.32803,-0.328961 -0.008,0 -0.11058,0 -0.53608,-0.01218 0.68604,-0.0403 1.09091,-0.07122 1.10028,-0.07216 0.18088,-0.01406 0.31584,-0.171508 0.30272,-0.352389 -0.0141,-0.180882 -0.18369,-0.319588 -0.35239,-0.302719 -0.0262,0.0018 -2.65604,0.200563 -5.98969,0.262419 -1.70759,0.03186 -1.92596,0.05061 -1.92877,0.430178 -0.003,0.364574 -0.004,0.46298 4.05717,0.60075 2.92127,0.102157 3.33083,0.103095 3.34676,0.103095 z m -36.72446,5.168693 c 0.0412,0 0.0825,-0.008 0.12184,-0.02345 0.12278,-0.04965 0.20431,-0.167753 0.20619,-0.300843 9.3e-4,-0.0731 0.10965,-7.404872 1.62511,-11.215555 0.35146,-0.882849 3.69541,-8.627929 12.79101,-8.627929 7.91471,0 10.81255,3.766636 12.4536,7.048734 1.79288,3.584818 1.2568,9.892222 1.25118,9.955014 -0.008,0.08717 0.0197,0.173381 0.075,0.239926 0.0562,0.06658 0.13589,0.108678 0.22305,0.116217 6.9194,0.611053 12.84442,-1.193064 13.78069,-1.850052 0.86036,-0.603561 1.10497,-1.57732 1.11434,-1.618556 0.0431,-0.176196 -0.0656,-0.353328 -0.2418,-0.396439 -0.17432,-0.04312 -0.35333,0.06467 -0.39644,0.240862 l 0,0 c -0.002,0.0076 -0.20056,0.778819 -0.85379,1.236176 -0.61575,0.432053 -6.14246,2.29522 -13.02343,1.76008 0.0909,-1.379574 0.31209,-6.668233 -1.34302,-9.977512 -1.7254,-3.450796 -4.76664,-7.411433 -13.04124,-7.411433 -7.23524,0 -11.74133,4.870665 -13.40112,9.041236 -0.46767,1.175259 -0.80506,2.646674 -1.0478,4.138707 -0.0487,-0.0094 -0.10403,-0.0076 -0.15558,0.0094 -0.90253,0.282098 -1.2924,0.778818 -1.73758,2.213682 -0.41705,1.343963 -0.97938,2.614816 -0.985,2.627938 -0.0544,0.122771 -0.0291,0.267095 0.0656,0.362697 l 2.28303,2.330808 c 0.0647,0.06658 0.14902,0.100326 0.23618,0.100326 z m 0.19026,-6.957821 c -0.34021,2.363636 -0.45923,4.676666 -0.49953,5.8463 l -1.58576,-1.619491 c 0.17901,-0.419873 0.59044,-1.421744 0.92315,-2.493913 0.39082,-1.257732 0.67385,-1.552952 1.16214,-1.732896 z m 40.55482,1.391752 c 0.009,0 0.0197,0 0.03,-9.37e-4 0.0647,-0.0056 1.60731,-0.149953 2.49391,-0.477975 0.29147,-0.107774 0.418,-0.270854 0.37488,-0.484537 -0.0525,-0.261481 -0.0881,-0.448922 -2.3477,-0.357076 -0.18088,0.0076 -0.32146,0.160263 -0.31396,0.341144 0.005,0.119962 0.0731,0.222118 0.17151,0.275539 -0.25961,0.0328 -0.43393,0.04873 -0.43862,0.04873 -0.17994,0.01687 -0.31302,0.176195 -0.29709,0.356139 0.0169,0.171509 0.15932,0.298969 0.32708,0.298969 z m 1.36364,-2.170571 c 0.13402,0 0.26054,-0.08247 0.30834,-0.216496 l 0.46017,-1.26804 c 0.0618,-0.170572 -0.0262,-0.358951 -0.19681,-0.419869 -0.17245,-0.06185 -0.35895,0.02624 -0.42081,0.196813 l -0.46017,1.268042 c -0.0619,0.170571 0.0262,0.35895 0.19681,0.419869 0.0384,0.01312 0.0759,0.01968 0.11247,0.01968 z M 27.224171,95.698869 c 0.10307,0 0.20899,-9.38e-4 0.3177,-0.0034 0.18089,-0.0046 0.32522,-0.154642 0.32053,-0.335528 -0.005,-0.180874 -0.17244,-0.322395 -0.33551,-0.320519 -2.58389,0.06189 -3.62606,-0.659799 -3.63637,-0.667292 -0.14714,-0.103987 -0.35145,-0.07127 -0.45736,0.07493 -0.10593,0.1462 -0.0749,0.348637 0.0703,0.455485 0.045,0.03375 1.11434,0.796618 3.72071,0.796618 z m -3.52672,-1.874415 c 0.15089,0 0.28678,-0.105017 0.31959,-0.258664 0.0384,-0.177133 -0.0731,-0.351452 -0.25117,-0.389878 -2.02624,-0.440488 -2.88097,-1.529518 -2.8894,-1.539837 -0.10971,-0.143385 -0.31491,-0.171504 -0.45924,-0.06189 -0.1434,0.109708 -0.17245,0.313964 -0.0637,0.4583 0.0393,0.05251 0.9925,1.289592 3.27367,1.785379 0.0244,0.0046 0.0478,0.0069 0.0702,0.0069 z m -2.12277,-2.441414 c 0.12089,0 0.23805,-0.0675 0.29522,-0.1837 0.0796,-0.163074 0.0132,-0.358945 -0.14996,-0.43955 -1.45454,-0.713211 -2.40768,-2.131203 -2.41705,-2.1462 -0.10032,-0.150891 -0.30365,-0.192131 -0.45548,-0.09186 -0.15089,0.100326 -0.19213,0.303656 -0.0919,0.454547 0.0431,0.06372 1.0628,1.581065 2.67572,2.372067 0.0459,0.02437 0.0956,0.03466 0.1434,0.03466 z m 17.11903,-13.919404 c 0.10124,0 0.20056,-0.04592 0.26429,-0.133084 0.10776,-0.146204 0.0769,-0.351453 -0.0693,-0.458294 -0.061,-0.04498 -1.50891,-1.103093 -3.49016,-1.707591 -0.17526,-0.05342 -0.35708,0.04498 -0.40956,0.218368 -0.0525,0.173384 0.045,0.357076 0.21837,0.409561 1.86972,0.569821 3.27835,1.597 3.29241,1.608247 0.059,0.04124 0.12652,0.06279 0.194,0.06279 z m 2.04873,3.149953 c 0.0713,0 0.14339,-0.02343 0.20337,-0.07029 0.14152,-0.112464 0.16682,-0.31865 0.0543,-0.461105 -0.0543,-0.06841 -1.34771,-1.693533 -3.18276,-2.525773 -0.16307,-0.07498 -0.35895,-0.0018 -0.43392,0.163074 -0.0749,0.164948 -0.002,0.359887 0.16307,0.433927 1.68604,0.764761 2.92596,2.31865 2.93814,2.334582 0.0646,0.08248 0.16026,0.125587 0.25774,0.125587 z m 0.90721,3.373944 c 0.0272,0 0.0543,-0.0038 0.0825,-0.01029 0.17526,-0.04592 0.28023,-0.223993 0.23523,-0.399251 -0.0206,-0.08061 -0.53139,-1.989691 -2.62792,-3.170572 -0.15933,-0.08997 -0.35895,-0.0328 -0.44705,0.124649 -0.089,0.157451 -0.0328,0.358013 0.12465,0.447048 1.84255,1.038425 2.30928,2.74508 2.31397,2.762887 0.0403,0.147141 0.17338,0.245547 0.31864,0.245547 z m -12.30365,1.02624 a 0.61387062,0.61387062 0 0 0 0.61387,0.61387 0.61387062,0.61387062 0 0 0 0.61387,-0.61387 0.61387062,0.61387062 0 0 0 -0.61387,-0.613871 0.61387062,0.61387062 0 0 0 -0.61387,0.613871 z m -6.11808,1.183695 c 0.36363,0 0.80974,-0.02718 1.32802,-0.07967 2.50515,-0.256795 3.21743,-0.823805 3.29053,-0.887535 0.0947,-0.08247 0.13309,-0.211809 0.10032,-0.333646 l 0,0 c 9.4e-4,0 -0.0215,-0.131208 0.009,-0.434864 0.0403,-0.387066 0.21182,-0.546391 0.21838,-0.552952 0.11809,-0.107774 0.14527,-0.287722 0.0599,-0.42268 -0.0862,-0.134021 -0.25305,-0.191191 -0.40018,-0.129335 -0.5239,0.218369 -1.10028,0.329897 -1.71602,0.329897 -1.82756,0 -3.40582,-0.970946 -3.42175,-0.981256 -0.074,-0.04686 -0.16401,-0.06092 -0.24929,-0.04124 -0.0853,0.02061 -0.15934,0.07404 -0.20432,0.149015 -0.0262,0.04312 -0.25867,0.444237 -0.39269,1.276476 -0.11996,0.73852 -0.0309,1.371135 -0.005,1.534209 0.002,0.08435 0.0337,0.169634 0.0881,0.243673 0.17339,0.227742 0.5717,0.329897 1.29429,0.329897 z m 4.05529,-1.384254 c -0.28211,0.149015 -1.07029,0.474227 -2.79476,0.651359 -0.49577,0.05061 -0.92034,0.07685 -1.26053,0.07685 -0.44893,0 -0.65511,-0.04499 -0.74134,-0.0731 -0.0262,-0.181819 -0.0816,-0.694471 0.0121,-1.273665 0.0534,-0.328023 0.12278,-0.575445 0.18276,-0.746954 0.59607,0.309279 1.92409,0.89597 3.43861,0.89597 0.41987,0 0.82475,-0.04592 1.21181,-0.136832 -0.0114,0.05904 -0.0215,0.1209 -0.0281,0.187441 -0.0197,0.177132 -0.0234,0.314901 -0.0206,0.418932 z m -3.19119,5.605431 c 0.11528,0 0.23242,-0.02437 0.35894,-0.0731 0.0993,-0.03844 0.23056,-0.08053 0.38239,-0.129337 0.72727,-0.23336 1.94376,-0.624176 2.72446,-1.550133 0.99062,-1.175263 0.40769,-2.909094 0.38332,-2.982197 -0.0291,-0.08341 -0.0909,-0.152764 -0.17058,-0.190252 -0.0796,-0.03749 -0.1715,-0.04124 -0.25491,-0.0103 -1.99063,0.749766 -4.95877,0.772259 -5.2896,0.772259 l -0.045,0 c -9.4e-4,0 -0.002,0 -0.002,0 -0.10033,0 -0.19495,0.04592 -0.25774,0.124648 -0.0628,0.07967 -0.0853,0.18463 -0.061,0.283036 0.009,0.03749 0.23805,0.936263 0.81724,2.093714 l 0.0787,0.157457 c 0.46673,0.93814 0.74976,1.504213 1.33646,1.504213 z m 3.30928,-4.199621 c 0.0975,0.478913 0.1865,1.392695 -0.34584,2.024364 -0.65885,0.782571 -1.72071,1.122777 -2.42267,1.348644 -0.16683,0.05342 -0.31023,0.0993 -0.41988,0.142459 -0.0478,0.01876 -0.09,0.02814 -0.12089,0.02814 -0.18089,0 -0.433,-0.503281 -0.75164,-1.140578 l -0.0787,-0.158383 c -0.3196,-0.639173 -0.52859,-1.199628 -0.64574,-1.555766 0.94376,-0.02155 3.07872,-0.134022 4.78538,-0.688847 z m 0.92783,6.940014 c 0.14339,0 0.27273,-0.09461 0.3149,-0.236173 0.006,-0.01968 0.58294,-1.997187 0.95877,-3.732895 0.40299,-1.862231 0.32989,-1.997188 0.27648,-2.095594 -0.0403,-0.07404 -0.10685,-0.130273 -0.18746,-0.156514 -0.0225,-0.0076 -0.22867,-0.07216 -0.50514,-0.07216 -0.64949,0 -1.14247,0.341143 -1.38613,0.961567 -0.43768,1.110594 -0.79288,1.745088 -1.18745,2.121845 -0.52389,0.500467 -0.85661,1.526704 -0.89316,1.641982 -0.0168,0.05434 -0.0197,0.111538 -0.008,0.166826 0.0365,0.168691 0.3299,1.02999 2.5642,1.396439 0.0168,0.0023 0.0347,0.0046 0.0525,0.0046 z m 0.91847,-5.635416 c -0.0291,0.230545 -0.10399,0.678537 -0.28773,1.527641 -0.28585,1.326154 -0.69353,2.797569 -0.86505,3.402995 -1.22117,-0.244605 -1.60261,-0.633545 -1.70946,-0.78725 0.11715,-0.331775 0.38145,-0.958765 0.67947,-1.243672 0.47424,-0.452671 0.86412,-1.135899 1.3449,-2.356143 0.14433,-0.367376 0.39832,-0.545447 0.77601,-0.545447 0.0215,9.38e-4 0.0422,9.38e-4 0.0619,0.0023 z m 0.48734,5.82193 c 0,0 0,0 0,0 0.26148,0 0.62887,-0.008 1.14245,-0.02814 1.55202,-0.06463 2.32334,-0.323344 2.35521,-0.33459 0.13402,-0.04587 0.22305,-0.172443 0.22211,-0.313964 0,-9.38e-4 -0.0114,-1.07497 0,-2.181812 0.0103,-1.087166 -0.46204,-1.966265 -1.32989,-2.474224 -0.65511,-0.384262 -1.80413,-0.912844 -1.85286,-0.9344 -0.0965,-0.04406 -0.20712,-0.03937 -0.29897,0.01312 -0.0919,0.05249 -0.15277,0.145267 -0.16495,0.250234 l -0.17432,1.616678 c -0.16963,1.572634 -0.82286,3.918469 -0.82943,3.941898 -0.0487,0.173381 0.0525,0.354266 0.22587,0.403938 0.11715,0.03375 0.44798,0.0413 0.70478,0.0413 z m 3.06092,-0.924092 c -0.3149,0.07493 -0.96251,0.198686 -1.94565,0.238988 -0.5014,0.02059 -0.85941,0.02814 -1.11527,0.02814 l 0,0 c -0.074,0 -0.13777,-9.38e-4 -0.19401,-0.0023 0.19682,-0.746959 0.61013,-2.409555 0.74509,-3.658856 l 0.12464,-1.159328 c 0.39739,0.189317 0.99157,0.481728 1.38145,0.710409 0.46485,0.271786 1.01594,0.822861 1.00562,1.901584 -0.008,0.786323 -0.005,1.55671 -0.002,1.94096 z m 2.59981,-0.913773 c 0.091,0 0.17901,-0.03844 0.24181,-0.105932 l 1.80787,-1.966265 c 0.0675,-0.0731 0.0975,-0.171505 0.0834,-0.268971 -0.0141,-0.09747 -0.0722,-0.1837 -0.15651,-0.234309 l -5.10122,-3.047792 c -0.0928,-0.0553 -0.20712,-0.06185 -0.30552,-0.01593 -0.0975,0.04499 -0.16683,0.134021 -0.18558,0.239926 0,-9.38e-4 0,-9.38e-4 0,-9.38e-4 -0.006,0 -0.0731,0.132146 -0.33458,0.353327 -0.36363,0.308341 -0.70384,0.453609 -0.70759,0.455483 -0.11337,0.04779 -0.19119,0.155576 -0.19963,0.27835 -0.009,0.122774 0.0516,0.24087 0.15746,0.30459 0.015,0.0092 1.52109,0.921277 2.72821,1.850048 1.16025,0.89222 1.67104,1.959698 1.67666,1.970955 0.0469,0.0993 0.13964,0.167752 0.24743,0.184626 0.015,0.0023 0.0309,0.0023 0.0478,0.0023 z m 1.29335,-2.219312 -1.22962,1.337399 c -0.27553,-0.43955 -0.80412,-1.157452 -1.63636,-1.797563 -0.82475,-0.635432 -1.76289,-1.247425 -2.31397,-1.597003 0.11246,-0.07498 0.23524,-0.164949 0.35989,-0.270853 0.1537,-0.129335 0.26523,-0.245549 0.34583,-0.344893 l 4.47423,2.672913 z m 1.27928,-0.308336 c 0.11622,0 0.22868,-0.06189 0.28866,-0.170578 0.0872,-0.159321 0.0281,-0.358945 -0.1312,-0.445166 l -5.1537,-2.8135 c 0.64291,-0.640112 1.582,-1.442362 2.08059,-1.529522 0.59419,-0.104033 2.46767,0.436739 3.50422,0.803187 0.17057,0.05998 0.35895,-0.02906 0.41893,-0.199626 0.06,-0.170571 -0.0291,-0.35895 -0.19962,-0.418931 -0.29054,-0.103095 -2.87161,-1.000937 -3.83505,-0.830365 -0.98969,0.172446 -2.56702,1.844423 -2.74415,2.033739 -0.0684,0.07404 -0.0993,0.176195 -0.0834,0.276476 0.0159,0.09934 0.0778,0.186504 0.16682,0.235239 l 5.53233,3.019683 c 0.0487,0.0262 0.10308,0.03935 0.15557,0.03935 z m -6.47704,-4.953142 c 0.0796,0 0.15934,-0.02906 0.22213,-0.08622 l 4.80786,-4.418932 c 0.13309,-0.122774 0.14152,-0.329897 0.0197,-0.463917 -0.12277,-0.133083 -0.3299,-0.141519 -0.46392,-0.01969 l -4.80787,4.418932 c -0.13308,0.122775 -0.14152,0.329897 -0.0197,0.463917 0.0646,0.07029 0.15369,0.10591 0.24179,0.10591 z m 0.42175,1.71134 c 0.12465,0 0.24367,-0.07216 0.29897,-0.193065 0.003,-0.0065 0.47985,-0.97657 2.42643,-2.058107 1.99625,-1.109653 3.41143,-1.252108 3.42549,-1.253045 0.17994,-0.01687 0.31303,-0.176195 0.29616,-0.356139 -0.0159,-0.180881 -0.17338,-0.314901 -0.35521,-0.297095 -0.0628,0.0056 -1.55576,0.149953 -3.6851,1.332708 -2.16307,1.202437 -2.68415,2.313965 -2.7057,2.360825 -0.0749,0.164949 -9.4e-4,0.359888 0.16401,0.433927 0.0431,0.02062 0.089,0.02999 0.13495,0.02999 z m -4.45361,-2.235239 c 0.8388,0 1.32802,-0.208997 1.34771,-0.21837 0.0825,-0.03655 0.14714,-0.104971 0.17807,-0.190252 0.0309,-0.08528 0.0244,-0.179007 -0.0169,-0.259607 l -2.44143,-4.771321 c -0.0413,-0.0806 -0.1144,-0.140582 -0.20244,-0.165886 -0.0872,-0.02437 -0.18087,-0.01218 -0.25866,0.03374 -0.0534,0.03186 -1.32803,0.799437 -1.91472,1.409559 -0.72165,0.749765 -1.02623,1.420806 -1.03842,1.448921 -0.044,0.0984 -0.0375,0.210873 0.0188,0.303656 0.0431,0.07122 1.07217,1.75164 2.83131,2.208997 0.51171,0.133083 1.01593,0.200563 1.49672,0.200563 z m 0.74227,-0.725398 c -0.18182,0.03655 -0.43206,0.06935 -0.74227,0.06935 -0.42455,0 -0.87254,-0.06092 -1.33271,-0.179944 -1.22024,-0.317713 -2.0581,-1.37207 -2.33458,-1.763823 0.12278,-0.220244 0.38988,-0.647611 0.83131,-1.106842 0.3655,-0.380506 1.07685,-0.857545 1.48078,-1.115277 l 2.09747,4.096533 z m 1.07966,0.655108 c 0.0478,0 0.0956,-0.0103 0.14152,-0.03187 0.16401,-0.07873 0.23242,-0.274603 0.15371,-0.437676 l -2.70385,-5.638238 c -0.0778,-0.163073 -0.27367,-0.232427 -0.43768,-0.153702 -0.16401,0.07873 -0.23242,0.274602 -0.15463,0.437676 l 2.70384,5.638237 c 0.0581,0.117151 0.17526,0.185568 0.29709,0.185568 z m 1.582,0.09653 c 0.0525,0 0.10594,-0.01218 0.15559,-0.03843 0.15932,-0.08528 0.2193,-0.28491 0.13401,-0.444235 -0.008,-0.01594 -0.82943,-1.567011 -1.04217,-3.319587 -0.21556,-1.791004 -0.19213,-3.011248 -0.19119,-3.023431 0.003,-0.180881 -0.13965,-0.331771 -0.32052,-0.33552 -0.002,0 -0.005,0 -0.008,0 -0.17806,0 -0.32427,0.142456 -0.32801,0.320525 -9.4e-4,0.05155 -0.0253,1.275539 0.19681,3.11715 0.2268,1.879101 1.07872,3.4836 1.11433,3.551078 0.059,0.10965 0.17246,0.172446 0.28866,0.172446 z m 0.84818,-0.33552 c 0.0281,0 0.0563,-0.0038 0.0843,-0.01121 0.17526,-0.04686 0.27929,-0.225867 0.23244,-0.401124 -0.62044,-2.333647 0.14338,-3.11434 0.15089,-3.1209 0.0159,-0.015 0.0309,-0.03187 0.044,-0.04873 l 1.51266,-2.07685 c 0.10684,-0.146205 0.074,-0.351454 -0.0722,-0.458295 -0.14621,-0.106848 -0.35239,-0.07404 -0.4583,0.07216 l -1.4986,2.059044 c -0.17431,0.187441 -0.98219,1.223055 -0.31208,3.743205 0.0384,0.145267 0.1715,0.242737 0.31678,0.242737 z m -0.11809,0.118088 c 0.0863,0 0.17058,-0.03374 0.23243,-0.09653 l 4.18651,-4.199625 c 0.12746,-0.128397 0.12746,-0.336457 -9.4e-4,-0.463917 -0.1284,-0.12746 -0.33646,-0.12746 -0.46392,9.38e-4 l -3.8538,3.865041 -0.75351,-1.632615 c -0.006,-0.01218 -0.30366,-0.648547 -0.007,-1.216494 0.36645,-0.702905 1.56326,-2.434864 1.57544,-2.452671 0.10307,-0.149016 0.0656,-0.353327 -0.0834,-0.45642 -0.14901,-0.104033 -0.35332,-0.06561 -0.45642,0.08341 -0.0496,0.07216 -1.23149,1.783504 -1.61761,2.522024 -0.45174,0.865979 -0.0225,1.764761 -0.003,1.802249 l 0.94846,2.053421 c 0.045,0.09747 0.13496,0.166823 0.24087,0.185567 0.0178,0.0047 0.0365,0.0056 0.0562,0.0056 z m -1.63355,3.997188 c 1.28304,0 2.32708,-1.044049 2.32708,-2.327084 0,-1.283037 -1.04404,-2.327086 -2.32708,-2.327086 -1.28304,0 -2.32709,1.044049 -2.32709,2.327086 0,1.283035 1.04405,2.327084 2.32709,2.327084 z m 0,-3.997188 c 0.92128,0 1.6701,0.748828 1.6701,1.670104 0,0.921274 -0.74976,1.670102 -1.6701,1.670102 -0.92128,0 -1.6701,-0.748828 -1.6701,-1.670102 0,-0.920339 0.74976,-1.670104 1.6701,-1.670104 z m 0,3.283037 c 0.88941,0 1.61294,-0.723525 1.61294,-1.611996 0,-0.88941 -0.72353,-1.611997 -1.61294,-1.611997 -0.88847,0 -1.612,0.723524 -1.612,1.611997 0,0.888471 0.72353,1.611996 1.612,1.611996 z m 0,-2.567948 c 0.52765,0 0.95595,0.429241 0.95595,0.955952 0,0.527647 -0.42924,0.955951 -0.95595,0.955951 -0.52671,0 -0.95595,-0.429241 -0.95595,-0.955951 0,-0.527649 0.42924,-0.955952 0.95595,-0.955952 z m -8.38425,-1.960637 c 0.1312,0 0.25492,-0.07873 0.30553,-0.208998 1.35426,-3.462042 4.63073,-5.699155 8.34864,-5.699155 0.60824,0 1.21649,0.06092 1.80599,0.181817 0.17807,0.03561 0.35146,-0.07873 0.38707,-0.255856 0.0365,-0.177132 -0.0778,-0.351454 -0.25585,-0.387067 -0.63356,-0.129335 -1.28492,-0.194939 -1.93815,-0.194939 -3.98969,0 -7.50703,2.401124 -8.9597,6.116213 -0.0666,0.168697 0.0168,0.35895 0.18557,0.424555 0.0403,0.01687 0.0807,0.02343 0.1209,0.02343 z m 8.65417,12.671041 c 0.77319,0 1.5417,-0.09186 2.28397,-0.272723 0.17619,-0.04313 0.28397,-0.22025 0.24086,-0.396445 -0.0431,-0.176195 -0.22305,-0.283031 -0.39644,-0.240864 -0.6926,0.168702 -1.40862,0.253985 -2.12839,0.253985 -3.19588,0 -6.17338,-1.721648 -7.77038,-4.493912 -0.0909,-0.157445 -0.29148,-0.210869 -0.448,-0.120895 -0.15744,0.09095 -0.21086,0.291473 -0.12089,0.447981 1.71415,2.974701 4.90908,4.822873 8.33927,4.822873 z m -0.0637,-0.676661 c 4.88284,0 8.8566,-3.97282 8.8566,-8.856611 0,-4.883786 -3.97282,-8.856607 -8.8566,-8.856607 -4.88285,0 -8.85661,3.972821 -8.85661,8.856607 0,4.883791 3.97376,8.856611 8.85661,8.856611 z m 0,-17.056235 c 4.52108,0 8.19963,3.678537 8.19963,8.199624 0,4.521082 -3.67855,8.199626 -8.19963,8.199626 -4.52109,0 -8.19963,-3.678544 -8.19963,-8.199626 0,-4.521087 3.67854,-8.199624 8.19963,-8.199624 z m -0.10868,19.969071 c 6.61481,0 11.99532,-5.381443 11.99532,-11.995313 0,-6.613871 -5.38145,-11.995314 -11.99532,-11.995314 -6.61387,0 -11.99531,5.381443 -11.99531,11.995314 0,6.61387 5.3805,11.995313 11.99531,11.995313 z m 0,-23.334582 c 6.25305,0 11.33928,5.086222 11.33928,11.339269 0,6.252111 -5.08623,11.339266 -11.33928,11.339266 -6.25303,0 -11.33926,-5.086217 -11.33926,-11.339266 0,-6.252109 5.08623,-11.339269 11.33926,-11.339269 z M 129.1773,95.698869 c 0.1031,0 0.209,-9.38e-4 0.31771,-0.0034 0.18088,-0.0046 0.32521,-0.154642 0.32053,-0.335528 -0.005,-0.180874 -0.15464,-0.322395 -0.33552,-0.320519 -2.58013,0.0628 -3.62699,-0.659799 -3.6373,-0.667292 -0.14714,-0.103987 -0.35146,-0.07127 -0.45736,0.07493 -0.1059,0.1462 -0.075,0.348637 0.0703,0.455485 0.0459,0.03375 1.11528,0.796618 3.72165,0.796618 z m -3.52671,-1.874415 c 0.15089,0 0.28678,-0.105017 0.31959,-0.258664 0.0384,-0.177133 -0.0731,-0.351452 -0.25117,-0.389878 -2.02625,-0.440488 -2.88098,-1.529518 -2.88941,-1.539837 -0.10965,-0.143385 -0.31491,-0.171504 -0.45924,-0.06189 -0.14339,0.109708 -0.17244,0.313964 -0.0637,0.4583 0.0394,0.05251 0.99251,1.289592 3.27367,1.785379 0.0244,0.0046 0.0478,0.0069 0.0703,0.0069 z m -2.12277,-2.441414 c 0.12089,0 0.23805,-0.0675 0.29522,-0.1837 0.0797,-0.163074 0.0131,-0.358945 -0.14996,-0.43955 -1.44892,-0.711335 -2.40768,-2.132141 -2.41705,-2.1462 -0.10029,-0.149952 -0.3046,-0.192131 -0.45455,-0.09095 -0.15089,0.100326 -0.19213,0.303657 -0.0918,0.454547 0.0431,0.06372 1.06279,1.581065 2.67479,2.372067 0.0459,0.02345 0.0956,0.03375 0.14339,0.03375 z m 17.11902,-13.919404 c 0.10122,0 0.20056,-0.04592 0.26429,-0.133084 0.10778,-0.146204 0.0768,-0.351453 -0.0694,-0.459231 -0.0609,-0.04499 -1.5089,-1.103093 -3.49016,-1.707591 -0.17432,-0.05342 -0.35707,0.04498 -0.40956,0.218369 -0.0525,0.173383 0.045,0.357075 0.21837,0.409559 1.87442,0.571697 3.27835,1.597001 3.29147,1.60731 0.059,0.04406 0.12746,0.06467 0.19494,0.06467 z m 2.0478,3.149953 c 0.0712,0 0.14339,-0.02343 0.20337,-0.07029 0.14152,-0.112464 0.16682,-0.31865 0.0544,-0.461105 -0.0544,-0.06841 -1.3477,-1.693533 -3.18275,-2.525773 -0.16402,-0.07498 -0.35895,-0.0018 -0.43393,0.163074 -0.075,0.164948 -0.002,0.359887 0.16307,0.433927 1.68604,0.764761 2.92596,2.31865 2.93815,2.334582 0.0656,0.08248 0.1612,0.125587 0.25773,0.125587 z m 0.90815,3.373944 c 0.0272,0 0.0544,-0.0029 0.0825,-0.01029 0.17526,-0.04498 0.28116,-0.223993 0.23618,-0.399251 -0.0206,-0.08061 -0.5314,-1.989691 -2.62699,-3.170572 -0.15933,-0.08904 -0.35895,-0.0328 -0.44705,0.124649 -0.089,0.157451 -0.0337,0.358013 0.12465,0.447048 1.85379,1.044986 2.30928,2.744143 2.31302,2.761949 0.0384,0.148079 0.17151,0.246485 0.31772,0.246485 z m -12.30366,1.02624 a 0.61387062,0.61387062 0 0 0 0.61388,0.61387 0.61387062,0.61387062 0 0 0 0.61387,-0.61387 0.61387062,0.61387062 0 0 0 -0.61387,-0.613871 0.61387062,0.61387062 0 0 0 -0.61388,0.613871 z m -6.11808,1.183695 c 0.3627,0 0.80975,-0.02718 1.32708,-0.07967 2.50516,-0.256795 3.21744,-0.823805 3.29054,-0.887535 0.0947,-0.08247 0.13308,-0.211809 0.10028,-0.333646 l 0,0 c 9.4e-4,0 -0.0216,-0.131208 0.009,-0.434864 0.0403,-0.387066 0.21181,-0.546391 0.21837,-0.552952 0.11809,-0.107774 0.14527,-0.287722 0.06,-0.42268 -0.0862,-0.134021 -0.25305,-0.191191 -0.40019,-0.129335 -0.5239,0.218369 -1.10028,0.329897 -1.71602,0.329897 -1.82006,0 -3.40582,-0.970946 -3.42175,-0.981256 -0.074,-0.04592 -0.16401,-0.06092 -0.24929,-0.0403 -0.0853,0.02061 -0.15933,0.07404 -0.20432,0.149015 -0.0262,0.04312 -0.2596,0.444237 -0.39362,1.276477 -0.11997,0.738519 -0.0309,1.371134 -0.005,1.534208 0.003,0.08434 0.0337,0.170572 0.0881,0.243673 0.17525,0.226805 0.5745,0.328961 1.29615,0.328961 z m 4.05529,-1.384254 c -0.2821,0.149015 -1.07029,0.474227 -2.79475,0.651359 -0.49578,0.05061 -0.92034,0.07685 -1.26054,0.07685 -0.44986,0 -0.65605,-0.04499 -0.74133,-0.0731 -0.0262,-0.182756 -0.0815,-0.694471 0.0122,-1.273665 0.0534,-0.328023 0.12277,-0.576382 0.18275,-0.746954 0.59513,0.309279 1.92409,0.89597 3.43768,0.89597 0.41987,0 0.82474,-0.04592 1.21181,-0.136832 -0.0112,0.05904 -0.0216,0.1209 -0.0281,0.187441 -0.0187,0.177132 -0.0225,0.314901 -0.0197,0.418932 z m -3.19119,5.605431 c 0.11528,0 0.23243,-0.02437 0.35895,-0.0731 0.10028,-0.03935 0.23056,-0.08053 0.38332,-0.129337 0.72727,-0.23336 1.94283,-0.624176 2.72352,-1.550133 0.99063,-1.175263 0.40769,-2.909094 0.38332,-2.982197 -0.0291,-0.08341 -0.0909,-0.152764 -0.17057,-0.190252 -0.0797,-0.03749 -0.17151,-0.04124 -0.25492,-0.0103 -1.99063,0.749766 -4.95876,0.772259 -5.2896,0.772259 l -0.045,0 c -0.10215,-0.0018 -0.19775,0.04498 -0.26054,0.124648 -0.0628,0.07967 -0.0853,0.18463 -0.0609,0.283036 0.009,0.03749 0.23712,0.936263 0.81818,2.093714 l 0.0787,0.156519 c 0.46486,0.939078 0.74789,1.505151 1.33552,1.505151 z m 3.30835,-4.199621 c 0.0975,0.478913 0.1865,1.392695 -0.34583,2.024364 -0.65886,0.781633 -1.72072,1.122777 -2.42269,1.348644 -0.16682,0.05342 -0.31021,0.100326 -0.41986,0.142459 -0.0478,0.01876 -0.089,0.02814 -0.1209,0.02814 -0.18182,0 -0.43299,-0.503281 -0.75164,-1.141516 l -0.0787,-0.157445 c -0.32053,-0.639173 -0.52859,-1.199628 -0.64668,-1.555766 0.94565,-0.02155 3.0806,-0.134022 4.78632,-0.688847 z m 0.92877,6.940014 c 0.14339,0 0.27272,-0.09461 0.3149,-0.236173 0.006,-0.01968 0.58294,-1.997187 0.95876,-3.732895 0.403,-1.862231 0.3299,-1.997188 0.27648,-2.095594 -0.0403,-0.07404 -0.10685,-0.130273 -0.18744,-0.156514 -0.0225,-0.0076 -0.22868,-0.07216 -0.50516,-0.07216 -0.64948,0 -1.14245,0.341143 -1.38707,0.961567 -0.43673,1.109656 -0.79194,1.74415 -1.18744,2.121845 -0.5239,0.500467 -0.8566,1.526704 -0.89315,1.641982 -0.0169,0.05434 -0.0197,0.111538 -0.008,0.166826 0.0365,0.168691 0.32989,1.02999 2.56419,1.396439 0.0178,0.0023 0.0356,0.0046 0.0534,0.0046 z m 0.9194,-5.635416 c -0.0291,0.230545 -0.10404,0.677599 -0.28773,1.526703 -0.28678,1.326154 -0.69353,2.797569 -0.86598,3.402995 -1.22118,-0.244605 -1.60262,-0.633545 -1.70946,-0.78725 0.11715,-0.331775 0.38144,-0.958765 0.67947,-1.243672 0.47517,-0.453609 0.86505,-1.136837 1.3449,-2.356143 0.14433,-0.367376 0.39831,-0.545448 0.776,-0.545448 0.0215,0.0023 0.0422,0.0023 0.0628,0.0023 z m 0.48641,5.82193 c 0,0 0,0 0,0 0.26148,0 0.62886,-0.008 1.14245,-0.02814 1.55202,-0.06463 2.32334,-0.323344 2.3552,-0.33459 0.13403,-0.04587 0.22306,-0.172443 0.22212,-0.313964 0,-9.38e-4 -0.0112,-1.07497 0,-2.181812 0.0103,-1.087166 -0.46204,-1.965327 -1.3299,-2.474224 -0.65604,-0.384262 -1.80412,-0.912844 -1.85285,-0.9344 -0.0956,-0.04406 -0.20713,-0.03937 -0.29897,0.01312 -0.0918,0.05249 -0.15277,0.145267 -0.16495,0.250234 l -0.17432,1.616678 c -0.16964,1.572634 -0.82287,3.918469 -0.82943,3.941898 -0.0487,0.173381 0.0525,0.354266 0.22587,0.403938 0.11715,0.03375 0.44798,0.0413 0.70478,0.0413 z M 134.749,92.42146 c -0.31491,0.07493 -0.96252,0.198686 -1.94565,0.238988 -0.5014,0.02059 -0.85942,0.02814 -1.11527,0.02814 l 0,0 c -0.074,0 -0.13777,-9.38e-4 -0.194,-0.0023 0.19681,-0.746959 0.61012,-2.409555 0.74508,-3.658856 l 0.12558,-1.159328 c 0.39644,0.189317 0.99063,0.481728 1.38144,0.710409 0.46392,0.271786 1.015,0.822861 1.00469,1.901584 -0.007,0.786323 -0.005,1.55671 -0.002,1.94096 z m 2.59981,-0.913773 c 0.0909,0 0.179,-0.03752 0.2418,-0.105932 l 1.80787,-1.966265 c 0.0675,-0.0731 0.0975,-0.171505 0.0834,-0.268971 -0.0141,-0.09747 -0.0722,-0.1837 -0.15652,-0.234309 l -5.10121,-3.047792 c -0.0928,-0.0553 -0.20713,-0.06185 -0.30553,-0.01593 -0.0975,0.04499 -0.16682,0.134021 -0.18557,0.239926 0,-9.38e-4 0,-9.38e-4 0,-9.38e-4 -0.005,0 -0.0731,0.132146 -0.33458,0.353327 -0.36364,0.308341 -0.70478,0.453609 -0.70759,0.455483 -0.11341,0.04779 -0.19119,0.155576 -0.19963,0.27835 -0.009,0.122774 0.0515,0.24087 0.15745,0.30459 0.015,0.0092 1.52109,0.921277 2.72915,1.850048 1.15276,0.886604 1.67104,1.960636 1.67666,1.970955 0.0469,0.09838 0.13965,0.167752 0.24742,0.183688 0.0141,0.0023 0.03,0.0034 0.0469,0.0034 z m 1.29241,-2.219312 -1.22962,1.337399 c -0.27554,-0.43955 -0.80412,-1.157452 -1.63636,-1.796625 -0.82568,-0.635432 -1.76289,-1.248363 -2.3149,-1.597004 0.11246,-0.07498 0.23523,-0.164949 0.36082,-0.270854 0.1537,-0.130271 0.26429,-0.245547 0.34583,-0.345829 l 4.47423,2.672913 z m 1.28022,-0.308336 c 0.11622,0 0.22868,-0.06189 0.28866,-0.170578 0.0872,-0.159321 0.0281,-0.358945 -0.13121,-0.445166 l -5.1537,-2.8135 c 0.64292,-0.640112 1.58201,-1.442362 2.0806,-1.529522 0.59794,-0.104971 2.46767,0.436739 3.50422,0.803187 0.17151,0.05998 0.35895,-0.02906 0.41893,-0.199626 0.06,-0.170571 -0.0291,-0.35895 -0.19963,-0.418931 -0.29053,-0.103095 -2.86598,-1 -3.83505,-0.830365 -0.98969,0.172446 -2.56701,1.844423 -2.74414,2.033739 -0.0684,0.07404 -0.0993,0.176195 -0.0834,0.276476 0.0159,0.09934 0.0778,0.186504 0.16682,0.235239 l 5.53234,3.019683 c 0.0487,0.0262 0.10215,0.03935 0.15557,0.03935 z m -6.47704,-4.953142 c 0.0797,0 0.15933,-0.02906 0.22212,-0.08622 l 4.80787,-4.41987 c 0.13309,-0.122774 0.14152,-0.329897 0.0197,-0.463917 -0.12277,-0.133084 -0.32989,-0.141519 -0.46391,-0.01969 l -4.80788,4.418932 c -0.13308,0.122774 -0.14151,0.329897 -0.0197,0.463917 0.0647,0.07122 0.15371,0.106848 0.2418,0.106848 z m 0.42081,1.71134 c 0.12465,0 0.24367,-0.07216 0.29897,-0.193065 0.004,-0.0065 0.47985,-0.97657 2.42643,-2.058107 1.99625,-1.109653 3.41143,-1.252108 3.42549,-1.253045 0.17994,-0.01687 0.31303,-0.176195 0.29616,-0.356139 -0.0159,-0.180881 -0.17901,-0.314901 -0.3552,-0.297095 -0.0628,0.0056 -1.55577,0.149953 -3.6851,1.332708 -2.16308,1.202437 -2.68416,2.313965 -2.70572,2.360825 -0.075,0.164949 -9.4e-4,0.359888 0.16401,0.433927 0.0441,0.02062 0.09,0.02999 0.13496,0.02999 z m -4.45267,-2.235239 c 0.8388,0 1.32708,-0.208997 1.3477,-0.21837 0.0825,-0.03655 0.14714,-0.104971 0.17807,-0.190252 0.0309,-0.08528 0.0244,-0.179007 -0.0169,-0.259607 l -2.44142,-4.771321 c -0.0412,-0.0806 -0.11434,-0.140582 -0.20244,-0.165886 -0.0862,-0.02437 -0.18088,-0.01218 -0.25867,0.03374 -0.0534,0.03186 -1.32802,0.799437 -1.91471,1.409559 -0.72165,0.749765 -1.02624,1.420806 -1.03843,1.448921 -0.0441,0.0984 -0.0375,0.210873 0.0187,0.303656 0.0431,0.07122 1.07217,1.75164 2.8313,2.208997 0.51172,0.133083 1.01594,0.200563 1.49672,0.200563 z m 0.74227,-0.725398 c -0.18182,0.03655 -0.43206,0.06935 -0.74227,0.06935 -0.42456,0 -0.87348,-0.06092 -1.33271,-0.179944 -1.22024,-0.317713 -2.05811,-1.37207 -2.33458,-1.763823 0.12277,-0.220244 0.38988,-0.647611 0.8313,-1.106842 0.36551,-0.380506 1.07685,-0.857545 1.48079,-1.115277 l 2.09747,4.096533 z m 1.0806,0.655108 c 0.0478,0 0.0956,-0.0103 0.14151,-0.03187 0.16402,-0.07873 0.23243,-0.274603 0.15371,-0.437676 l -2.70385,-5.638238 c -0.0778,-0.163073 -0.27366,-0.232427 -0.43767,-0.153702 -0.16401,0.07873 -0.23243,0.274602 -0.1537,0.437676 l 2.70384,5.638237 c 0.0562,0.117151 0.17338,0.185568 0.29616,0.185568 z m 1.58107,0.09653 c 0.0525,0 0.1059,-0.01218 0.15557,-0.03843 0.15933,-0.08528 0.21931,-0.28491 0.13402,-0.444235 -0.008,-0.01594 -0.82943,-1.567011 -1.04217,-3.319587 -0.21556,-1.791004 -0.19213,-3.011248 -0.19119,-3.023431 0.004,-0.180881 -0.13965,-0.331771 -0.32053,-0.33552 -0.003,0 -0.005,0 -0.007,0 -0.17807,0 -0.32427,0.142456 -0.32802,0.320525 -9.4e-4,0.05155 -0.0253,1.275539 0.19681,3.11715 0.22681,1.879101 1.07873,3.4836 1.11434,3.551078 0.059,0.10965 0.17245,0.172446 0.28866,0.172446 z m 0.84817,-0.335516 c 0.0281,0 0.0562,-0.0038 0.0843,-0.01121 0.17526,-0.04686 0.27929,-0.225868 0.23242,-0.401125 -0.61762,-2.323337 0.14902,-3.118088 0.15652,-3.125586 0.0122,-0.01218 0.0291,-0.03092 0.0394,-0.04498 l 1.51172,-2.076891 c 0.10684,-0.146204 0.074,-0.351453 -0.0722,-0.458294 -0.14621,-0.106848 -0.35239,-0.07404 -0.4583,0.07216 l -1.49859,2.059044 c -0.17526,0.187441 -0.98313,1.223056 -0.31209,3.743205 0.0384,0.146204 0.17151,0.243674 0.31677,0.243674 z m -0.11903,0.118088 c 0.0862,0 0.17057,-0.03374 0.23243,-0.09653 l 4.1865,-4.199625 c 0.12746,-0.128398 0.12746,-0.336457 -9.3e-4,-0.463918 -0.1284,-0.128397 -0.33552,-0.127459 -0.46392,9.38e-4 l -3.8538,3.865042 -0.75351,-1.632615 c -0.006,-0.01218 -0.30366,-0.648547 -0.007,-1.216494 0.36645,-0.702906 1.56326,-2.434865 1.57544,-2.452672 0.1031,-0.149015 0.0656,-0.353327 -0.0834,-0.45642 -0.14901,-0.104033 -0.35332,-0.06561 -0.45642,0.08341 -0.0497,0.07216 -1.23149,1.783505 -1.61762,2.522024 -0.45173,0.865979 -0.0225,1.764762 -0.004,1.80225 l 0.94846,2.053421 c 0.045,0.09747 0.13496,0.166822 0.24086,0.185566 0.0178,0.0047 0.0375,0.0056 0.0562,0.0056 z m -1.63261,3.997188 c 1.28303,0 2.32708,-1.044049 2.32708,-2.327085 0,-1.283037 -1.04405,-2.327086 -2.32708,-2.327086 -1.28304,0 -2.32709,1.044049 -2.32709,2.327086 0,1.283036 1.04405,2.327085 2.32709,2.327085 z m 0,-3.997188 c 0.92127,0 1.67104,0.748828 1.67104,1.670103 0,0.921274 -0.74977,1.670102 -1.67104,1.670102 -0.92128,0 -1.67011,-0.748828 -1.67011,-1.670102 0,-0.920338 0.74883,-1.670103 1.67011,-1.670103 z m 0,3.283036 c 0.88941,0 1.61293,-0.723524 1.61293,-1.611996 0,-0.88941 -0.72352,-1.611996 -1.61293,-1.611996 -0.88847,0 -1.612,0.723523 -1.612,1.611996 0,0.888472 0.72353,1.611996 1.612,1.611996 z m 0,-2.567947 c 0.52764,0 0.95595,0.429241 0.95595,0.955951 0,0.527647 -0.42924,0.955951 -0.95595,0.955951 -0.52671,0 -0.95595,-0.429241 -0.95595,-0.955951 0,-0.527648 0.42924,-0.955951 0.95595,-0.955951 z m -8.38426,-1.960638 c 0.13121,0 0.25492,-0.07873 0.30553,-0.208997 1.35427,-3.462042 4.63074,-5.699156 8.34864,-5.699156 0.60825,0 1.2165,0.06092 1.806,0.181818 0.17713,0.03561 0.35052,-0.07873 0.38707,-0.255857 0.0366,-0.177132 -0.0778,-0.351453 -0.25586,-0.387066 -0.63355,-0.129336 -1.28491,-0.194939 -1.93814,-0.194939 -3.9897,0 -7.50703,2.401124 -8.9597,6.116213 -0.0666,0.168696 0.0169,0.35895 0.18556,0.424554 0.0403,0.01687 0.0806,0.02343 0.1209,0.02343 z m 8.65417,12.671042 c 0.7732,0 1.54171,-0.09186 2.28398,-0.272724 0.17619,-0.04313 0.28397,-0.220249 0.24086,-0.396445 -0.0431,-0.176195 -0.22306,-0.28303 -0.39644,-0.240864 -0.6926,0.168703 -1.40862,0.253986 -2.1284,0.253986 -3.19587,0 -6.17338,-1.721649 -7.77038,-4.493912 -0.09,-0.157446 -0.29147,-0.210869 -0.44799,-0.120896 -0.15745,0.09095 -0.21087,0.291474 -0.1209,0.447981 1.71416,2.974702 4.90909,4.822874 8.33927,4.822874 z m -0.0637,-0.676662 c 4.88285,0 8.85661,-3.97282 8.85661,-8.85661 0,-4.883786 -3.97282,-8.856608 -8.85661,-8.856608 -4.88378,0 -8.8566,3.972822 -8.8566,8.856608 0,4.88379 3.97375,8.85661 8.8566,8.85661 z m 0,-17.056235 c 4.52109,0 8.19963,3.678537 8.19963,8.199625 0,4.521081 -3.67854,8.199625 -8.19963,8.199625 -4.52108,0 -8.19962,-3.678544 -8.19962,-8.199625 0,-4.521088 3.67854,-8.199625 8.19962,-8.199625 z m -0.10965,19.969071 c 6.61481,0 11.99532,-5.381443 11.99532,-11.995313 0,-6.613871 -5.38145,-11.995314 -11.99532,-11.995314 -6.61387,0 -11.99531,5.381443 -11.99531,11.995314 0,6.61387 5.38144,11.995313 11.99531,11.995313 z m 0,-23.334582 c 6.25305,0 11.33927,5.086223 11.33927,11.339269 0,6.252111 -5.08622,11.339266 -11.33927,11.339266 -6.25304,0 -11.33927,-5.086217 -11.33927,-11.339266 0,-6.252108 5.08716,-11.339269 11.33927,-11.339269 z m 9.47891,1.092784 c 0.059,0 0.11903,-0.01594 0.17339,-0.04967 l 5.78819,-3.599812 c 0.1537,-0.09559 0.20056,-0.298032 0.10497,-0.451734 -0.0956,-0.153702 -0.29709,-0.2015 -0.45173,-0.104971 l -5.78819,3.599812 c -0.15371,0.09559 -0.20057,0.298032 -0.10497,0.451734 0.0609,0.100281 0.16869,0.154639 0.27835,0.154639 z m 5.78819,-3.598876 c 0.009,0 0.0178,0 0.0272,-9.37e-4 0.13871,-0.01121 0.25586,-0.10965 0.29054,-0.24461 l 0.50515,-1.940957 0.53234,0.777883 c 0.10215,0.149015 0.30553,0.18744 0.45642,0.08528 0.14995,-0.102157 0.18744,-0.306467 0.0853,-0.456419 l -0.93909,-1.372072 c -0.0731,-0.105909 -0.2015,-0.160263 -0.32708,-0.13777 -0.12652,0.02155 -0.22868,0.116214 -0.26148,0.240863 l -0.4508,1.731021 -0.79194,-1.781631 c -0.0487,-0.108712 -0.15276,-0.183692 -0.27179,-0.194002 -0.11528,-0.01312 -0.2343,0.04499 -0.30084,0.144331 l -0.91847,1.37207 c -0.10121,0.150891 -0.0609,0.354265 0.09,0.455483 0.15089,0.100281 0.35427,0.05998 0.45549,-0.08997 l 0.58763,-0.878164 0.93158,2.094658 c 0.0525,0.119026 0.17057,0.194939 0.29991,0.194939 z m 5.70197,2.111528 c 0.0459,0 0.0918,-0.0094 0.13683,-0.02999 0.16495,-0.07591 0.23712,-0.269915 0.1612,-0.434864 l -1.69072,-3.693533 c -0.0534,-0.117151 -0.16963,-0.191191 -0.29803,-0.191191 l -2.56888,0 c -0.11716,0 -0.22587,0.06279 -0.28492,0.164949 -0.0581,0.102157 -0.0581,0.227742 9.4e-4,0.328959 l 1.65417,2.840675 c 0.0909,0.156514 0.29147,0.209934 0.44892,0.118088 0.15652,-0.09092 0.20994,-0.292415 0.11903,-0.448929 l -1.36739,-2.346766 1.78726,0 1.60356,3.501405 c 0.0544,0.119963 0.17338,0.191191 0.29803,0.191191 z m 5.51078,3.46298 c 0.0778,0 0.15464,-0.02718 0.21649,-0.08153 0.12559,-0.110591 0.14808,-0.298035 0.0515,-0.434867 l -4.81724,-6.839737 c -0.10404,-0.148079 -0.30835,-0.18463 -0.45736,-0.07967 -0.14808,0.104033 -0.18369,0.309278 -0.0797,0.457357 l 3.52484,5.005623 c -1.22118,-0.860357 -2.96064,-1.905343 -4.8791,-2.493909 -3.24461,-0.997188 -3.63074,-1.149015 -3.66355,-1.163074 -0.15838,-0.08997 -0.34395,-0.02906 -0.43486,0.128398 -0.09,0.157451 -0.0225,0.364573 0.13496,0.455483 0.1612,0.09279 2.43205,0.796625 3.77038,1.208059 3.43862,1.056233 6.38145,3.72821 6.4105,3.754452 0.0637,0.05436 0.14339,0.08341 0.22305,0.08341 z m 0.78913,0.311154 c 0.0628,0 0.12558,-0.01781 0.18275,-0.0553 0.14996,-0.101219 0.19026,-0.304593 0.09,-0.455483 l -4.50234,-6.716026 c -0.10122,-0.15089 -0.30365,-0.19119 -0.45548,-0.08997 -0.14995,0.101219 -0.19025,0.304593 -0.09,0.455483 l 4.50234,6.716026 c 0.0628,0.09466 0.16682,0.145268 0.27272,0.145268 z m -3.44424,9.296156 c 0.97282,0 2.04686,-0.172446 2.21368,-0.200563 0.10122,-0.01687 0.18838,-0.07967 0.23618,-0.169634 l 1.10965,-2.092786 c 0.0141,-0.02718 0.0244,-0.0553 0.0309,-0.08528 0.0656,-0.307403 -0.0169,-0.985942 -0.79663,-1.34864 -0.58106,-0.270857 -1.03561,-0.446114 -1.22305,-0.516405 0.0262,-0.03093 0.0759,-0.07779 0.1687,-0.138706 0.33552,-0.222119 1.23805,0.379569 1.75913,0.899718 0.0937,0.09373 0.23524,0.121837 0.35802,0.07122 0.12277,-0.05061 0.20243,-0.170568 0.20243,-0.302715 l 0,-0.941893 c 0,-0.119962 -0.0647,-0.225866 -0.1612,-0.283037 0.10591,-0.06279 0.16964,-0.179942 0.16027,-0.304591 l -0.28585,-4.233365 c -0.008,-0.128398 -0.0918,-0.239925 -0.21181,-0.284911 -0.03,-0.01121 -3.0806,-1.162137 -7.43486,-3.362699 -3.15745,-1.596063 -6.6926,-3.800374 -8.41706,-4.904404 1.18276,0.08716 3.05061,0.235238 4.95408,0.434864 0.77319,0.0806 1.5417,0.227742 2.2596,0.402999 0.0234,0.01029 0.0356,0.01594 0.0384,0.01687 0.0459,0.01968 0.0825,0.02812 0.14058,0.02812 2.07029,0.524837 3.68229,1.264293 3.70384,1.274603 0.13121,0.06092 0.28679,0.02812 0.38332,-0.07967 0.0965,-0.107774 0.11059,-0.266166 0.0347,-0.389878 -0.0497,-0.08153 -1.31677,-2.027179 -9.84161,-5.074976 l -1.18931,-0.425492 c -7.66261,-2.742268 -10.83412,-3.878163 -14.41893,-3.970009 -3.63543,-0.09373 -5.68323,-0.466729 -5.70385,-0.470478 -0.17057,-0.03092 -0.33927,0.07779 -0.37957,0.248359 -0.0394,0.17151 0.0628,0.343019 0.23243,0.389878 0,0 6.5164,1.807874 13.6523,3.758202 4.20712,1.149952 8.14995,2.600748 10.65136,3.58669 -2.97095,-0.298031 -5.71228,-0.471415 -5.7404,-0.472352 -0.14995,-0.0094 -0.28397,0.08247 -0.33177,0.223055 -0.0478,0.140582 0.006,0.295221 0.12934,0.377695 0.0515,0.03374 5.15651,3.413309 9.54639,5.631677 3.75632,1.898781 6.55389,3.02343 7.30178,3.314902 l 0.21649,3.213682 c -0.45361,-0.34864 -1.10403,-0.728209 -1.79006,-0.728209 -1.31772,0 -1.93159,0.911902 -2.49485,2.384254 -0.53421,1.396439 -1.04311,2.812559 -1.04873,2.826617 -0.0169,0.04499 -0.17339,0.489222 0.0403,0.932521 0.14245,0.296157 0.40768,0.508903 0.78632,0.631678 0.30459,0.0984 0.72164,0.133084 1.15932,0.133084 z m 1.94658,-0.821933 c -0.71415,0.106847 -2.25398,0.275539 -2.90347,0.06467 -0.19962,-0.06467 -0.33271,-0.1612 -0.3955,-0.287722 -0.0965,-0.19494 -0.0169,-0.425493 -0.0159,-0.428305 0.006,-0.01594 0.51359,-1.425491 1.04405,-2.816307 0.56138,-1.466729 1.03655,-1.962511 1.88191,-1.962511 0.94751,0 1.91752,1.069353 1.92783,1.079662 0.0225,0.0253 0.0487,0.04686 0.0778,0.06373 -0.0965,0.05718 -0.1612,0.162138 -0.1612,0.283037 l 0,0.219307 c -0.56232,-0.432052 -1.40206,-0.904406 -2.0253,-0.492971 -0.32896,0.217432 -0.49391,0.461105 -0.48829,0.722586 0.005,0.24836 0.16964,0.435802 0.30928,0.520151 0.0197,0.01121 0.0394,0.02155 0.0609,0.02906 0.005,0.0018 0.53421,0.189316 1.25867,0.526711 0.41143,0.192127 0.44142,0.471415 0.43486,0.584817 l -1.00562,1.894089 z M 127.69932,60.911621 c 0.57076,0.0328 1.20244,0.05998 1.89035,0.07779 3.47985,0.08903 6.62231,1.213683 14.21462,3.931583 l 1.18932,0.425493 c 4.18088,1.494845 6.56701,2.71134 7.90346,3.546391 -0.56982,-0.193065 -1.23149,-0.393627 -1.9447,-0.567948 -0.85942,-0.372071 -6.79663,-2.899719 -13.37113,-4.697281 -3.75071,-1.025305 -7.3299,-2.011247 -9.88192,-2.716026 z"
     inkscape:connector-curvature="0" /></svg>