<?xml version="1.0" encoding="UTF-8" standalone="no"?>
<!-- Generator: Adobe Illustrator 17.0.0, SVG Export Plug-In . SVG Version: 6.00 Build 0)  -->

<svg
   xmlns:dc="http://purl.org/dc/elements/1.1/"
   xmlns:cc="http://creativecommons.org/ns#"
   xmlns:rdf="http://www.w3.org/1999/02/22-rdf-syntax-ns#"
   xmlns:svg="http://www.w3.org/2000/svg"
   xmlns="http://www.w3.org/2000/svg"
   xmlns:xlink="http://www.w3.org/1999/xlink"
   xmlns:sodipodi="http://sodipodi.sourceforge.net/DTD/sodipodi-0.dtd"
   xmlns:inkscape="http://www.inkscape.org/namespaces/inkscape"
   version="1.1"
   id="Слой_1"
   x="0px"
   y="0px"
   width="160.64661"
   height="96.973473"
   viewBox="0 0 160.64662 96.973472"
   enable-background="new 0 0 192.073 114"
   xml:space="preserve"
   inkscape:version="0.91 r13725"
   sodipodi:docname="service.svg"><metadata
     id="metadata264"><rdf:RDF><cc:Work
         rdf:about=""><dc:format>image/svg+xml</dc:format><dc:type
           rdf:resource="http://purl.org/dc/dcmitype/StillImage" /><dc:title></dc:title></cc:Work></rdf:RDF></metadata><defs
     id="defs262" /><sodipodi:namedview
     pagecolor="#ffffff"
     bordercolor="#666666"
     borderopacity="1"
     objecttolerance="10"
     gridtolerance="10"
     guidetolerance="10"
     inkscape:pageopacity="0"
     inkscape:pageshadow="2"
     inkscape:window-width="1440"
     inkscape:window-height="838"
     id="namedview260"
     showgrid="false"
     fit-margin-top="0"
     fit-margin-left="0"
     fit-margin-right="0"
     fit-margin-bottom="0"
     inkscape:zoom="1.9784145"
     inkscape:cx="90.094278"
     inkscape:cy="51.431998"
     inkscape:window-x="-8"
     inkscape:window-y="-8"
     inkscape:window-maximized="1"
     inkscape:current-layer="Слой_1" /><g
     id="g237"
     transform="matrix(0.81925467,0,0,0.81925467,-4.8681927,8.1400531)"
     style="fill:#ffffff"><defs
       id="defs239"><path
         id="SVGID_1_"
         d="m 25.097,71.117 c 0,0 5.636,-3.121 11.809,-3.561 6.173,-0.44 13.471,-4.469 25.149,-8.596 11.678,-4.127 13.505,-5.953 28.831,-8.085 15.326,-2.132 5.229,-25.883 5.229,-25.883 0,0 -16.693,-13.6 -20.249,-13.905 -3.556,-0.305 -36.137,-3.248 -41.01,-2.03 -4.873,1.218 -21.583,2.233 -25.053,9.44 -3.47,7.207 2.722,42.787 2.925,43.267 0.205,0.48 12.369,9.353 12.369,9.353 z"
         inkscape:connector-curvature="0" /></defs><clipPath
       id="SVGID_2_"><use
         xlink:href="#SVGID_1_"
         overflow="visible"
         id="use243"
         style="overflow:visible"
         x="0"
         y="0"
         width="100%"
         height="100%" /></clipPath><g
       id="Expanded"
       clip-path="url(#SVGID_2_)"
       style="fill:#ffffff"><g
         id="g246"
         style="fill:#ffffff"><g
           id="g248"
           style="fill:#ffffff" /><g
           id="g252"
           style="fill:#ffffff" /></g></g></g><path
     id="path258"
     style="fill:#ffffff"
     d="m 56.692386,21.633274 c -0.311153,0 -0.638238,-0.07685 -0.970947,-0.227742 -0.608247,-0.275539 -1.008435,-0.668229 -1.192128,-1.16776 -0.265229,-0.725399 0.0478,-1.397376 0.06092,-1.425492 L 59.030719,9.0015958 C 58.463708,8.3483631 56.599603,5.9266201 57.70457,3.485195 59.220034,0.13749221 62.03353,0.00440921 62.151618,6.6020921e-4 62.257527,-0.00693979 62.371861,0.05127021 62.435592,0.14592621 c 0.06279,0.09465 0.0731,0.21462 0.02624,0.317713 l -1.765698,3.90159419 1.856608,1.9475161 2.715088,0.1208999 1.765698,-3.9006559 c 0.0478,-0.1049712 0.146205,-0.177132 0.260544,-0.1902534 0.116214,-0.013121 0.226805,0.033736 0.298032,0.1237117 0.0731,0.093726 1.774133,2.3298967 0.420805,5.3214618 -1.149952,2.5407684 -3.386129,2.9203364 -4.617618,2.9203364 0,0 0,0 0,0 -0.194939,0 -0.359888,-0.0103 -0.484536,-0.02155 L 58.516191,20.3971 c -0.02437,0.05249 -0.574508,1.236176 -1.823806,1.236176 z m 4.9194,-20.88097379 c -0.820057,0.208059 -2.34583,0.87535099 -3.309278,3.00468499 -1.081537,2.3889407 1.328022,4.9325216 1.352389,4.9578252 0.09279,0.096529 0.118088,0.2408628 0.06279,0.3626996 l -4.53233,10.012184 c -0.0038,0.0085 -0.209934,0.466728 -0.03749,0.929708 0.1209,0.325212 0.404875,0.590442 0.843487,0.789129 0.247423,0.111527 0.483599,0.168698 0.700094,0.168698 0.82193,0 1.208996,-0.815371 1.225867,-0.850047 l 4.493907,-9.928772 c 0.06186,-0.136833 0.209935,-0.214621 0.356139,-0.187441 0.0029,0 0.24836,0.04312 0.626991,0.04312 0,0 0,0 0,0 1.072166,0 3.020619,-0.3298965 4.018744,-2.5342075 0.838801,-1.852859 0.336458,-3.3889409 -0.0403,-4.1443295 l -1.599812,3.5332705 c -0.0553,0.1218368 -0.181819,0.2005618 -0.313965,0.1921272 l -3.069353,-0.136832 c -0.08434,-0.00378 -0.164949,-0.040302 -0.223055,-0.1012189 L 60.06633,4.6595207 C 59.97448,4.5629917 59.950116,4.4195959 60.00447,4.2977591 L 61.611786,0.75230521 Z M 56.500258,20.733554 c -0.149953,0 -0.29522,-0.03186 -0.432052,-0.09371 -0.526711,-0.238051 -0.761012,-0.861293 -0.522962,-1.388003 0.23149,-0.510778 0.875351,-0.75539 1.388004,-0.522962 0.25492,0.115276 0.44986,0.323336 0.549203,0.585754 0.0984,0.261481 0.08904,0.547329 -0.02624,0.80225 -0.169635,0.374883 -0.545455,0.616681 -0.955952,0.616681 z m 0,-1.441424 c -0.153702,0 -0.294283,0.09091 -0.358012,0.230553 -0.08904,0.196814 -0.0018,0.430178 0.195876,0.519212 0.19119,0.08716 0.43299,-0.0047 0.519212,-0.195876 0.04406,-0.09559 0.04686,-0.202436 0.0094,-0.299905 -0.03655,-0.0984 -0.10965,-0.176195 -0.205249,-0.219307 -0.05061,-0.02249 -0.104971,-0.03467 -0.1612,-0.03467 z m 17.234301,18.975631 c -0.825679,0 -1.482662,-0.459231 -1.849109,-1.292408 -0.268978,-0.611059 -0.304593,-1.171509 -0.106847,-1.665417 0.286784,-0.716964 0.968135,-1.008435 0.997188,-1.020618 l 9.857543,-4.33552 c 0.015,-0.865042 0.243674,-3.912841 2.697282,-4.991566 0.877226,-0.385191 1.755389,-0.581068 2.610122,-0.581068 1.86223,0 2.981255,0.9194 3.027179,0.958763 0.08716,0.0731 0.130271,0.185567 0.11434,0.298032 -0.01593,0.112464 -0.08903,0.20806 -0.193065,0.253983 l -3.920337,1.724461 0.08153,2.689784 1.94002,1.903468 3.9194,-1.723524 c 0.105909,-0.04592 0.226803,-0.03374 0.320525,0.03187 0.09371,0.06561 0.146203,0.176195 0.138706,0.290534 -0.0085,0.119025 -0.236176,2.9194 -3.240862,4.2418 -0.678538,0.298032 -1.363637,0.449859 -2.037488,0.449859 0,0 0,0 0,0 -1.929709,0 -3.246485,-1.212747 -3.697283,-1.700094 l -9.755387,4.290534 c -0.01594,0.0085 -0.405812,0.177132 -0.903468,0.177132 z M 87.940744,25.038146 c -0.763824,0 -1.552953,0.177132 -2.345829,0.525774 -2.406748,1.059044 -2.306467,4.557637 -2.304592,4.592314 0.0047,0.134958 -0.0731,0.258669 -0.195877,0.313028 l -10.05998,4.424554 c -0.0085,0.0038 -0.467667,0.206185 -0.648547,0.667291 -0.126524,0.3224 -0.09279,0.710403 0.101219,1.15089 0.262417,0.597001 0.683224,0.89972 1.248359,0.89972 0.354265,0 0.637301,-0.119963 0.640113,-0.1209 l 9.975632,-4.387066 c 0.135895,-0.05998 0.298032,-0.01968 0.390815,0.0984 0.01312,0.01687 1.313028,1.642924 3.349578,1.643861 0,0 0,0 0,0 0.582005,0 1.178069,-0.133083 1.773196,-0.394564 1.880038,-0.826617 2.524836,-2.300843 2.742268,-3.113402 l -3.555764,1.563262 c -0.121836,0.05436 -0.266166,0.02812 -0.361761,-0.06655 L 86.496509,30.68293 c -0.05998,-0.05904 -0.09559,-0.139644 -0.0984,-0.223993 l -0.09185,-3.043111 c -0.0038,-0.133083 0.0731,-0.256795 0.195876,-0.310215 l 3.556701,-1.564199 c -0.4433,-0.228678 -1.172446,-0.50328 -2.118088,-0.50328 z M 73.616471,37.264012 c -0.41612,0 -0.792877,-0.245548 -0.960637,-0.626054 -0.232427,-0.529522 0.0085,-1.149015 0.537957,-1.382381 0.519212,-0.226803 1.156513,0.02437 1.38238,0.537958 0.112465,0.256794 0.119025,0.541706 0.01781,0.802249 -0.102157,0.261481 -0.29897,0.466729 -0.555764,0.580131 -0.134958,0.0581 -0.276477,0.0881 -0.421743,0.0881 z m -9.37e-4,-1.441424 c -0.05436,0 -0.106847,0.01121 -0.157451,0.03374 -0.197751,0.08716 -0.28866,0.319587 -0.2015,0.517338 0.08435,0.192127 0.3224,0.286786 0.517339,0.2015 0.09653,-0.04218 0.169634,-0.119025 0.208059,-0.216495 0.03843,-0.09747 0.03561,-0.204311 -0.0065,-0.300844 -0.06279,-0.143393 -0.204312,-0.235239 -0.359888,-0.235239 z M 44.618347,62.198407 c -7.583879,0 -13.753514,-6.169635 -13.753514,-13.754451 0,-7.584817 6.169635,-13.754451 13.753514,-13.754451 7.58388,0 13.754451,6.169634 13.754451,13.754451 0,7.584816 -6.169634,13.754451 -13.754451,13.754451 z m 0,-26.85192 c -7.222117,0 -13.097469,5.875352 -13.097469,13.097469 0,7.222118 5.875352,13.097468 13.097469,13.097468 7.222118,0 13.098407,-5.87535 13.098407,-13.097468 0,-7.222117 -5.876289,-13.097469 -13.098407,-13.097469 z m 0,24.166821 c -6.103092,0 -11.068415,-4.965322 -11.068415,-11.069352 0,-6.104029 4.965323,-11.069353 11.068415,-11.069353 6.103093,0 11.069353,4.965324 11.069353,11.069353 0,6.10403 -4.965323,11.069352 -11.069353,11.069352 z m 0,-21.481722 c -5.741331,0 -10.41237,4.671039 -10.41237,10.41237 0,5.74133 4.671039,10.412371 10.41237,10.412371 5.74133,0 10.413308,-4.671041 10.413308,-10.412371 0,-5.741331 -4.67104,-10.41237 -10.413308,-10.41237 z m 2.685098,42.962509 -5.370196,0 c -2.402062,0 -4.356139,-1.954077 -4.356139,-4.356139 l 0,-4.754451 c -1.574508,-0.472353 -3.104967,-1.10778 -4.555763,-1.890347 l -3.3627,3.363636 c -0.785379,0.786318 -1.908153,1.237114 -3.078724,1.237114 -1.17151,0 -2.294284,-0.450796 -3.082475,-1.237114 l -3.797563,-3.796626 c -0.822867,-0.820993 -1.276476,-1.914713 -1.276476,-3.079662 0,-1.164948 0.453609,-2.258669 1.276476,-3.079663 l 3.363636,-3.36551 c -0.78163,-1.447047 -1.415182,-2.97657 -1.887535,-4.552952 l -4.752576,0 c -2.402062,0 -4.356139,-1.954077 -4.356139,-4.356139 l 0,-5.370196 c 0,-1.163074 0.452671,-2.256794 1.274602,-3.079662 0.824742,-0.822869 1.918463,-1.276477 3.0806,-1.276477 l 4.754451,0 c 0.475164,-1.58013 1.109653,-3.109653 1.888472,-4.552951 l -3.362699,-3.363637 c -1.698219,-1.698219 -1.698219,-4.461105 0,-6.159325 l 3.796626,-3.7985 c 0.786316,-0.786317 1.910028,-1.237113 3.0806,-1.237113 1.170571,0 2.293345,0.450796 3.079663,1.237113 l 3.364573,3.363636 c 1.449859,-0.78163 2.97938,-1.415182 4.551078,-1.887535 l 0,-4.754451 c 0,-2.402062 1.954076,-4.356138 4.356137,-4.356138 l 5.370196,0 c 2.402062,0 4.356139,1.954076 4.356139,4.356138 l 0,4.754451 c 1.574508,0.472353 3.103093,1.106842 4.551078,1.887535 l 3.364573,-3.363636 c 0.787254,-0.786317 1.910965,-1.237113 3.081538,-1.237113 1.170571,0 2.293345,0.450796 3.078724,1.237113 l 3.7985,3.796626 c 0.822869,0.821931 1.276477,1.915651 1.276477,3.079663 0,1.164011 -0.453608,2.257731 -1.276477,3.079662 l -3.362698,3.363636 c 0.782568,1.450797 1.417057,2.980318 1.888472,4.553889 l 4.752577,0 c 2.402062,0 4.356139,1.954077 4.356139,4.356139 l 0,5.370197 c 0,1.16401 -0.452671,2.257731 -1.274603,3.079662 -0.823804,0.822867 -1.917525,1.276476 -3.081536,1.276476 l -4.754452,0 c -0.472352,1.575445 -1.106841,3.105905 -1.888472,4.553889 l 3.3627,3.364573 c 1.698218,1.69822 1.698218,4.461105 0,6.159325 l -3.796627,3.7985 c -0.786317,0.786317 -1.910028,1.237114 -3.080599,1.237114 -1.170572,0 -2.293346,-0.450797 -3.0806,-1.237114 l -3.361762,-3.364573 c -1.444236,0.779757 -2.97282,1.413309 -4.552015,1.888472 l 0,4.754452 c 0.0018,2.403936 -1.953139,4.358013 -4.355201,4.358013 z M 32.96324,69.260263 c 0.05436,0 0.108712,0.01312 0.158388,0.04124 1.544517,0.852859 3.18463,1.533271 4.874414,2.021555 0.140581,0.0403 0.237113,0.169635 0.237113,0.314902 l 0,4.999999 c 0,2.040301 1.659794,3.699157 3.699156,3.699157 l 5.370198,0 c 2.040299,0 3.700093,-1.659793 3.701029,-3.700094 l 0,-4.998125 c 0,-0.146204 0.09653,-0.274602 0.237114,-0.314902 1.696345,-0.491096 3.33552,-1.170571 4.871603,-2.020618 0.128398,-0.07122 0.286786,-0.04873 0.390815,0.0553 l 3.535145,3.537958 c 0.66448,0.663542 1.618556,1.044986 2.616683,1.044986 0.998125,0 1.952202,-0.380507 2.616682,-1.044986 l 3.796625,-3.7985 c 1.442362,-1.442362 1.442362,-3.789129 0,-5.231491 l -3.536082,-3.537956 c -0.103095,-0.103095 -0.125586,-0.262419 -0.0553,-0.390816 0.851922,-1.541705 1.531396,-3.180881 2.020618,-4.87254 0.0403,-0.14058 0.169635,-0.237113 0.314902,-0.237113 l 5,0 c 0.988753,0 1.917526,-0.385192 2.617619,-1.084349 0.69822,-0.698218 1.082474,-1.626991 1.082474,-2.615744 l 0,-5.370197 c 0,-2.040299 -1.659793,-3.699156 -3.699156,-3.699156 l -4.999063,0 c -0.146203,0 -0.274601,-0.09653 -0.314901,-0.237113 -0.48641,-1.688847 -1.166823,-3.328023 -2.020618,-4.872539 -0.07122,-0.128398 -0.04873,-0.287724 0.0553,-0.390817 l 3.536082,-3.537956 c 0.699157,-0.69822 1.084348,-1.626991 1.084348,-2.615745 0,-0.988753 -0.385191,-1.917526 -1.084348,-2.615744 l -3.7985,-3.796634 c -0.66448,-0.664481 -1.61762,-1.044986 -2.614808,-1.044986 -0.999063,0 -1.95314,0.380505 -2.617619,1.044986 l -3.537958,3.537019 c -0.104033,0.103095 -0.264291,0.125585 -0.390815,0.0553 -1.541706,-0.850989 -3.179943,-1.530464 -4.870664,-2.019686 -0.140582,-0.0403 -0.237114,-0.169635 -0.237114,-0.314901 l 0,-5 c 0,-2.0403 -1.659794,-3.699156 -3.700093,-3.699156 l -5.370198,0 c -2.040299,0 -3.699156,1.659793 -3.699156,3.699156 l 0,5 c 0,0.146203 -0.09653,0.274601 -0.237113,0.314901 -1.686973,0.487348 -3.326148,1.166822 -4.870666,2.019681 -0.126522,0.07029 -0.286785,0.0478 -0.390815,-0.0553 l -3.537956,-3.537956 c -0.66448,-0.66448 -1.61762,-1.044986 -2.615745,-1.044986 -0.998125,0 -1.952202,0.380506 -2.616682,1.044986 l -3.796626,3.797563 c -1.442362,1.442361 -1.442362,3.789128 0,5.231489 l 3.536082,3.537957 c 0.103095,0.103095 0.126524,0.262418 0.0553,0.390816 -0.84911,1.536082 -1.529522,3.175258 -2.020619,4.871601 -0.0403,0.140582 -0.169634,0.237114 -0.314901,0.237114 l -5,0 c -0.986879,0 -1.916588,0.385193 -2.616682,1.084349 -0.698219,0.698219 -1.082474,1.626992 -1.082474,2.615744 l 0,5.370198 c 0,2.040299 1.659794,3.699156 3.699156,3.699156 l 4.999062,0 c 0.146205,0 0.274602,0.09653 0.314902,0.237113 0.487348,1.691659 1.166823,3.330834 2.019682,4.871602 0.07122,0.128398 0.04873,0.287723 -0.0553,0.390816 l -3.537957,3.538894 c -0.699157,0.698219 -1.084348,1.626991 -1.084348,2.615745 0,0.988753 0.385191,1.917526 1.084348,2.615744 l 3.797563,3.796626 c 0.665417,0.664481 1.619494,1.044986 2.617619,1.044986 0.998126,0 1.950328,-0.380505 2.614808,-1.044986 l 3.536083,-3.537956 c 0.06467,-0.06279 0.149015,-0.09559 0.233364,-0.09559 z m 14.340205,9.048734 -5.370196,0 c -0.921275,0 -1.67104,-0.749766 -1.67104,-1.671041 l 0,-6.032802 c 0,-0.46954 -0.319588,-0.875351 -0.776008,-0.985942 -0.774133,-0.187441 -1.551078,-0.249297 -2.302718,-0.309278 -1.300842,-0.104033 -2.645735,-0.210871 -3.90909,-0.984067 -0.388941,-0.237114 -0.922212,-0.174321 -1.242737,0.149953 -0.01406,0.01406 -0.02906,0.02718 -0.04498,0.03843 l -4.24461,2.969072 c -0.301781,0.288659 -0.722588,0.454545 -1.160264,0.454545 -0.448922,0 -0.8791,-0.173384 -1.181818,-0.476101 l -3.7985,-3.796626 c -0.311153,-0.311153 -0.489222,-0.741331 -0.489222,-1.180881 0,-0.438613 0.178069,-0.868791 0.489222,-1.180881 l 4.268042,-4.269916 c 0.331771,-0.333645 0.392689,-0.846298 0.148078,-1.247422 -1.178069,-1.925023 -2.044048,-4.014058 -2.574508,-6.209934 -0.110588,-0.458295 -0.515464,-0.776944 -0.985942,-0.776944 l -6.032802,0 c -0.921274,0 -1.67104,-0.749766 -1.67104,-1.67104 l 0,-5.370198 c 0,-0.447984 0.173383,-0.866916 0.489222,-1.180881 0.314902,-0.314901 0.734771,-0.489221 1.181818,-0.489221 l 6.03374,0 c 0.470478,0 0.876288,-0.319588 0.985942,-0.776946 0.529522,-2.193064 1.396438,-4.282098 2.575444,-6.209933 0.245548,-0.402062 0.184631,-0.914715 -0.148079,-1.246486 l -4.268041,-4.268978 c -0.651359,-0.651359 -0.651359,-1.71134 0,-2.362699 l 3.795689,-3.796625 c 0.303655,-0.302719 0.733833,-0.476102 1.181818,-0.476102 0.447986,0 0.879101,0.173383 1.181818,0.475164 l 4.268979,4.268041 c 0.322399,0.324274 0.852858,0.387066 1.245548,0.148079 1.929709,-1.179007 4.019681,-2.045924 6.210871,-2.574508 0.45642,-0.110588 0.776007,-0.516401 0.776007,-0.985942 l 0,-6.032802 c 0,-0.921274 0.749766,-1.67104 1.671041,-1.67104 l 5.370197,0 c 0.921274,0 1.67104,0.749766 1.67104,1.67104 l 0,6.032802 c 0,0.469541 0.31865,0.874414 0.77507,0.98313 2.192127,0.53046 4.281162,1.396438 6.209934,2.575446 0.393627,0.241798 0.923148,0.177132 1.246485,-0.148079 l 4.268041,-4.268979 c 0.303656,-0.302718 0.733834,-0.476101 1.181818,-0.476101 0.447985,0 0.878164,0.173383 1.181818,0.475164 l 3.798501,3.797563 c 0.311152,0.311153 0.489223,0.741332 0.489223,1.180881 0,0.437676 -0.178071,0.867854 -0.489223,1.180881 l -4.268978,4.268978 c -0.331772,0.333647 -0.39269,0.846298 -0.148079,1.246486 1.179007,1.928772 2.045923,4.018744 2.575445,6.211809 0.10965,0.457356 0.514527,0.776944 0.985942,0.776944 l 6.031864,0 c 0.921275,0 1.671041,0.749765 1.671041,1.67104 l 0,5.370197 c 0,0.447985 -0.173384,0.866917 -0.489223,1.179944 -0.314901,0.314901 -0.734769,0.488284 -1.181818,0.488284 l -6.031864,0 c -0.470478,0 -0.876289,0.319588 -0.985942,0.776945 -0.531396,2.196813 -1.397376,4.285848 -2.575445,6.211808 -0.246486,0.402063 -0.185567,0.914714 0.147141,1.246486 l 4.268978,4.268978 c 0.651359,0.651359 0.651359,1.71134 0,2.362699 l -3.796625,3.7985 c -0.300844,0.300844 -0.731022,0.47329 -1.180881,0.47329 -0.449859,0 -0.880975,-0.172446 -1.182756,-0.47329 L 57.20973,67.190913 c -0.323337,-0.322399 -0.853796,-0.387067 -1.247423,-0.148079 -1.924086,1.177132 -4.013121,2.04405 -6.209934,2.576382 -0.457357,0.110588 -0.776007,0.516402 -0.776007,0.985942 l 0,6.032802 c -0.0018,0.922212 -0.751641,1.671041 -1.672915,1.671041 z M 32.745808,67.521743 c 0.307404,0 0.608247,0.08434 0.869729,0.243673 1.130271,0.691659 2.340205,0.788192 3.619493,0.890347 0.776944,0.06186 1.58013,0.126524 2.405811,0.326149 0.752576,0.182755 1.277413,0.850983 1.277413,1.624179 l 0,6.032803 c 0,0.559512 0.455483,1.014057 1.014057,1.014057 l 5.370198,0 c 0.559512,0 1.014057,-0.455483 1.014057,-1.014057 l 0,-6.032803 c 0,-0.773196 0.525773,-1.441424 1.278351,-1.624179 2.130272,-0.516401 4.156513,-1.356138 6.022492,-2.498594 0.648547,-0.394564 1.519213,-0.28866 2.053421,0.243673 l 4.267104,4.268978 c 0.358013,0.356139 1.07685,0.358951 1.435801,0 l 3.796627,-3.7985 c 0.3955,-0.395501 0.3955,-1.039362 0,-1.434864 L 62.90232,61.494564 c -0.548266,-0.547328 -0.648547,-1.391752 -0.243673,-2.05342 1.142455,-1.866917 1.982192,-3.893158 2.496719,-6.022493 0.180881,-0.753515 0.84911,-1.279288 1.624179,-1.279288 l 6.031865,0 c 0.27179,0 0.52671,-0.105909 0.718839,-0.297094 0.19119,-0.189316 0.296156,-0.442363 0.296156,-0.714152 l 0,-5.370197 c 0,-0.559513 -0.455483,-1.014057 -1.014057,-1.014057 l -6.031865,0 c -0.776007,0 -1.443299,-0.526711 -1.62418,-1.280225 -0.513589,-2.125586 -1.353328,-4.151827 -2.496719,-6.022494 -0.403937,-0.658856 -0.303656,-1.503279 0.242736,-2.052482 l 4.268978,-4.268978 c 0.189316,-0.190254 0.297094,-0.451735 0.297094,-0.716964 0,-0.267105 -0.108712,-0.527648 -0.297094,-0.716964 l -3.7985,-3.796626 c -0.361762,-0.359887 -1.074039,-0.360825 -1.435802,0 l -4.267103,4.268041 c -0.532334,0.534208 -1.407686,0.640113 -2.054358,0.243674 -1.868791,-1.142455 -3.894095,-1.98313 -6.019681,-2.496719 -0.752578,-0.179944 -1.27835,-0.846298 -1.27835,-1.621369 l 0,-6.032801 c 0,-0.559513 -0.455483,-1.014059 -1.014059,-1.014059 l -5.370196,0 c -0.559512,0 -1.014058,0.455483 -1.014058,1.014059 l 0,6.032801 c 0,0.773196 -0.524836,1.441425 -1.277413,1.624181 -2.125587,0.513589 -4.151828,1.353326 -6.023431,2.496719 -0.644798,0.393627 -1.520149,0.289597 -2.051545,-0.244611 L 27.29876,25.891005 c -0.360824,-0.359888 -1.074039,-0.360825 -1.435801,0 l -3.794751,3.796625 c -0.395502,0.395502 -0.395502,1.039363 0,1.434864 l 4.268041,4.268042 c 0.548266,0.546392 0.649484,1.390815 0.243674,2.05342 -1.143393,1.869728 -1.98313,3.895034 -2.49672,6.021555 -0.180881,0.753515 -0.849109,1.279289 -1.62418,1.279289 l -6.033739,0 c -0.27179,0 -0.526711,0.105909 -0.717901,0.297094 -0.19119,0.190253 -0.296157,0.444236 -0.296157,0.716026 l 0,5.370197 c 0,0.559513 0.455483,1.014058 1.014058,1.014058 l 6.032802,0 c 0.77507,0 1.443299,0.525773 1.62418,1.280225 0.514527,2.128397 1.355201,4.154639 2.496719,6.020618 0.403936,0.659794 0.303656,1.504218 -0.243674,2.053421 l -4.26804,4.269915 c -0.189316,0.189316 -0.297095,0.450797 -0.297095,0.716964 0,0.267104 0.108712,0.528585 0.297095,0.716963 l 3.7985,3.796626 c 0.360825,0.359887 1.07404,0.360825 1.435801,0 0.01312,-0.01312 0.02812,-0.0253 0.04406,-0.03655 l 4.243673,-2.968135 c 0.309279,-0.303654 0.719776,-0.470478 1.156513,-0.470478 z m 78.638232,-8.529522 c -0.0215,0 -0.044,-0.0018 -0.0657,-0.0065 -0.17807,-0.03561 -0.29241,-0.208997 -0.25679,-0.387067 l 0.99906,-4.946579 c 0.0197,-0.09371 0.0778,-0.175257 0.16213,-0.221181 0.0834,-0.04592 0.18464,-0.05436 0.27366,-0.02155 l 4.60638,1.699157 c 0.16964,0.06279 0.2568,0.251171 0.19401,0.421743 -0.0628,0.169635 -0.25023,0.257732 -0.42175,0.194001 l -4.24742,-1.567009 -0.92316,4.570759 c -0.0309,0.156513 -0.16775,0.264291 -0.32052,0.264291 z m -1.14058,0.07122 c -0.0225,0 -0.0459,-0.0029 -0.0684,-0.0076 -0.17713,-0.03749 -0.29053,-0.21181 -0.25211,-0.388942 l 1.0806,-5.07029 c -0.61387,-0.20806 -2.33833,-0.732896 -5.37863,-1.219306 -4.6298,-0.741332 -10.378626,-0.749766 -10.435795,-0.749766 -0.180881,0 -0.328022,-0.147142 -0.328022,-0.328023 0,-0.18088 0.147141,-0.328022 0.328022,-0.328022 0.0581,0 5.859415,0.0085 10.538895,0.758201 3.97001,0.635426 5.70571,1.322398 5.77788,1.351452 0.14807,0.05904 0.23243,0.216495 0.19868,0.373009 l -1.14058,5.350514 c -0.0328,0.152766 -0.16962,0.25867 -0.32052,0.25867 z M 60.987605,57.29119 c -0.118088,0 -0.232427,-0.06373 -0.290534,-0.176195 -0.08434,-0.160262 -0.02249,-0.358949 0.13777,-0.443298 0.0328,-0.01687 3.338332,-1.73852 8.207122,-3.268041 l 0.358013,-0.112464 c 4.969072,-1.561387 8.251171,-2.592315 11.833177,-2.92971 4.156513,-0.389878 5.807872,0.693534 6.42268,1.375821 0.749766,0.833176 0.475164,2.029052 0.274602,2.90253 -0.03374,0.146204 -0.06561,0.285848 -0.09185,0.417994 -0.03467,0.17807 -0.206185,0.293346 -0.386129,0.257732 -0.17807,-0.03561 -0.293346,-0.20806 -0.257732,-0.38613 0.02718,-0.137769 0.06092,-0.28491 0.09653,-0.437675 0.186504,-0.814433 0.398312,-1.736644 -0.122775,-2.315839 -0.427366,-0.475164 -1.85567,-1.538894 -5.872539,-1.161199 -3.512652,0.330835 -6.593252,1.298969 -11.698219,2.90253 l -0.358012,0.112464 c -4.809747,1.510777 -8.066542,3.206185 -8.099344,3.223055 -0.04967,0.02624 -0.101219,0.03843 -0.152765,0.03843 z m -6.292408,3.960637 c -0.05624,0 -0.113402,-0.015 -0.165886,-0.04592 -0.106847,-0.06279 -2.638237,-1.554827 -3.209934,-1.93627 -0.153702,-0.102157 -0.473288,-0.315839 -0.447047,-0.649485 0.03092,-0.383317 0.448922,-0.573571 1.206185,-0.9194 0.199626,-0.09091 0.509841,-0.240862 0.910029,-0.434864 1.748828,-0.846298 5.002811,-2.42268 8.353327,-3.619493 1.082474,-0.387066 2.209933,-0.837864 3.402998,-1.314902 3.406748,-1.362699 7.267104,-2.907217 12.375819,-3.928772 0.176195,-0.03561 0.350515,0.07967 0.386129,0.257732 0.03561,0.178069 -0.07967,0.350515 -0.256795,0.38613 -5.048734,1.010308 -8.880973,2.542642 -12.260542,3.895032 -1.199625,0.47985 -2.332708,0.933458 -3.427367,1.323336 -3.316775,1.185567 -6.551077,2.751641 -8.288659,3.592315 -0.40581,0.196813 -0.720712,0.348641 -0.923149,0.441425 -0.226803,0.103095 -0.571696,0.260543 -0.746954,0.369259 0.02155,0.01593 0.0478,0.03467 0.07967,0.05624 0.556701,0.371133 3.152765,1.901592 3.179007,1.916587 0.155576,0.09185 0.208059,0.293346 0.116213,0.448922 -0.06186,0.104033 -0.171508,0.162137 -0.283037,0.162137 z M 42.701759,60.027835 c -0.09279,0 -0.185567,-0.03936 -0.251172,-0.116214 l -1.28866,-1.52671 c -0.116213,-0.138706 -0.09934,-0.34583 0.03936,-0.46298 0.138706,-0.116214 0.34583,-0.09934 0.462043,0.03936 l 1.288659,1.52671 c 0.116215,0.138707 0.09934,0.345829 -0.03936,0.462981 -0.06092,0.05061 -0.136832,0.07685 -0.210871,0.07685 z m -2.0806,30.392687 c -0.03843,0 -0.07122,-0.0057 -0.09653,-0.01316 -0.17432,-0.04782 -0.277413,-0.228681 -0.229615,-0.403 0.02718,-0.09838 0.09653,-0.174319 0.182754,-0.212745 0.479851,-0.658849 2.175258,-6.384252 -0.85192,-11.775068 -0.0881,-0.158387 -0.0328,-0.358012 0.125585,-0.447048 0.159325,-0.08904 0.35895,-0.03186 0.447048,0.125586 3.213684,5.722586 1.39269,11.734771 0.776007,12.525773 -0.126522,0.160259 -0.255857,0.199623 -0.353327,0.199623 z M 86.23409,65.793532 c -0.253046,0 -0.459231,-0.206185 -0.459231,-0.45923 0,-0.253046 0.206185,-0.459232 0.459231,-0.459232 0.253045,0 0.459231,0.206186 0.459231,0.459232 0,0.253045 -0.206186,0.45923 -0.459231,0.45923 z m 0,-0.656044 c -0.108712,0 -0.197751,0.0881 -0.197751,0.197751 0,0.108712 0.0881,0.197751 0.197751,0.197751 0.10965,0 0.19775,-0.0881 0.19775,-0.197751 0,-0.10965 -0.08903,-0.197751 -0.19775,-0.197751 z m -1.236176,1.036551 c -0.305529,0 -0.55389,-0.24836 -0.55389,-0.55389 0,-0.305529 0.248361,-0.553889 0.55389,-0.553889 0.30553,0 0.553889,0.24836 0.553889,0.553889 0,0.30553 -0.248359,0.55389 -0.553889,0.55389 z m 0,-0.656044 c -0.05624,0 -0.102157,0.04592 -0.102157,0.102157 0,0.112464 0.204311,0.112464 0.204311,0 0,-0.05623 -0.04592,-0.102157 -0.102157,-0.102157 z m -6.980318,0.988752 c -0.167761,0 -0.310216,-0.128397 -0.326149,-0.298032 -0.01594,-0.18088 0.116214,-0.340205 0.297095,-0.357075 l 6.492033,-0.594189 c 0.175258,-0.01594 0.339269,0.116213 0.357076,0.297095 0.01594,0.180881 -0.116213,0.340205 -0.297095,0.357076 l -6.492033,0.594188 c -0.01121,9.37e-4 -0.02062,9.37e-4 -0.03092,9.37e-4 z m -40.553888,4.233365 c -0.158388,0 -0.297095,-0.11434 -0.323336,-0.276477 -0.02906,-0.179006 0.09279,-0.347703 0.27179,-0.37582 0.06842,-0.01121 6.976569,-1.118087 16.41237,-2.247421 7.186504,-0.860357 12.995313,-1.420806 15.787253,-1.689786 l 1.018745,-0.09934 c 2.97938,-0.291472 6.04686,-0.525773 6.810683,-0.582943 0.753515,-1.255857 2.946579,-1.829428 4.738519,-1.829428 1.659794,0 2.522961,0.81912 2.559512,0.853796 0.09185,0.08904 0.123712,0.223055 0.08154,0.343954 -0.04218,0.1209 -0.150891,0.206186 -0.278351,0.21837 -0.02437,0.0029 -2.465792,0.239925 -4.363637,0.497657 -1.166822,0.158388 -1.524835,0.298969 -1.621367,0.349578 -0.04124,0.06467 -0.104033,0.115276 -0.183693,0.139644 -0.163075,0.04873 -0.332709,-0.03374 -0.397376,-0.187441 -0.01218,0.02249 -0.02437,0.04498 -0.03467,0.06842 -0.05061,0.106847 -0.154639,0.179006 -0.272727,0.187441 -0.03561,0.0029 -3.563261,0.260543 -6.974695,0.595126 l -1.019681,0.0984 c -2.789128,0.268978 -8.593251,0.829427 -15.772258,1.688847 -9.423617,1.12746 -16.317712,2.232428 -16.386129,2.243674 -0.01781,0.0029 -0.03561,0.0038 -0.05249,0.0038 z m 44.716024,-6.444235 c -1.226803,0 -2.653233,0.303654 -3.529522,0.877225 0.300844,-0.08528 0.752577,-0.177132 1.43955,-0.270853 1.139644,-0.154639 2.474227,-0.302718 3.369259,-0.396438 -0.327084,-0.117151 -0.753514,-0.209934 -1.279287,-0.209934 z m -3.12746,2.7179 c -0.644798,0 -0.935332,-0.102157 -1.122774,-0.258669 -0.145268,-0.1209 -0.227741,-0.289598 -0.238988,-0.486411 -0.0103,-0.180881 0.127461,-0.336458 0.308342,-0.346767 0.184629,-0.01312 0.336456,0.127461 0.346766,0.308341 9.37e-4,0.01406 0.0029,0.01968 0.0029,0.01968 0.04498,0.05342 0.348641,0.221182 2.293345,-0.0178 2.142455,-0.262418 4.222118,-0.187441 4.309278,-0.183692 0.719776,-0.02906 1.751641,-0.273665 1.751641,-0.656046 0,-0.180881 0.147141,-0.328022 0.328022,-0.328022 0.180881,0 0.328022,0.147141 0.328022,0.328022 0,1.185568 -2.162136,1.302718 -2.407685,1.31209 -0.04686,-9.37e-4 -2.142455,-0.07685 -4.230553,0.179007 -0.731959,0.09185 -1.26804,0.130272 -1.668228,0.130272 z m 2.270853,1.467666 c -2.878163,0 -3.537957,-0.930647 -4.008435,-1.96626 -0.07498,-0.164949 -0.0018,-0.359888 0.163074,-0.434865 0.163075,-0.07404 0.358951,-0.0018 0.433927,0.163075 0.336458,0.74133 0.7179,1.582005 3.411434,1.582005 2.61387,0 3.346767,-1.154639 3.353326,-1.166822 0.05342,-0.09466 0.150891,-0.155578 0.259607,-0.164012 0.901593,-0.07029 2.148079,-0.409559 2.147141,-0.860356 -9.37e-4,-0.219306 -0.06467,-0.372071 -0.202437,-0.482662 -0.397375,-0.318651 -1.301779,-0.211809 -1.587628,-0.149015 -0.17432,0.03843 -0.351453,-0.0731 -0.390815,-0.250235 -0.03936,-0.177133 0.0731,-0.35239 0.250234,-0.390816 0.143393,-0.03186 1.427367,-0.292408 2.13777,0.278351 0.291471,0.234302 0.44611,0.57732 0.447984,0.992503 0.0038,1.135894 -1.922212,1.433926 -2.599812,1.503279 -0.30553,0.380507 -1.32896,1.34583 -3.81537,1.34583 z m 32.724455,-5.477976 c -0.0881,0 -0.17526,-0.03561 -0.24086,-0.104971 -0.12277,-0.133083 -0.11528,-0.340207 0.0169,-0.463917 0.0628,-0.05904 1.58107,-1.435801 4.7179,-1.435801 0.18088,0 0.32803,0.147141 0.32803,0.328022 0,0.180881 -0.14715,0.328022 -0.32803,0.328022 -2.88191,0 -4.25774,1.247423 -4.27086,1.259606 -0.0628,0.05998 -0.14338,0.08904 -0.22305,0.08904 z m 4.32803,2.718838 c -2.81256,0 -4.82568,-0.888472 -5.01032,-2.210872 -0.0244,-0.179005 0.10033,-0.344891 0.28023,-0.370196 0.18182,-0.02437 0.34584,0.100281 0.3702,0.279288 0.11154,0.797562 1.67666,1.644799 4.35989,1.644799 2.86973,0 5.2343,-0.80881 5.38332,-1.841613 0.0253,-0.179006 0.1865,-0.305529 0.37206,-0.27835 0.17901,0.02624 0.30366,0.192127 0.27742,0.371133 -0.23993,1.662606 -3.20244,2.405811 -6.0328,2.405811 z m -4.08529,-1.690721 c -0.14807,0 -0.2821,-0.100281 -0.31865,-0.250234 -0.0431,-0.176195 0.0646,-0.353327 0.24086,-0.396439 0.0412,-0.0103 4.18369,-1 9.49204,-0.860356 0.18088,0.0047 0.32427,0.155576 0.31959,0.336458 -0.005,0.178068 -0.15089,0.319586 -0.32803,0.319586 -0.002,0 -0.006,0 -0.008,0 -5.22399,-0.137769 -9.27835,0.831303 -9.31958,0.841612 -0.0262,0.0056 -0.0525,0.0094 -0.0778,0.0094 z m 1.38332,0.533271 0,0 c -0.0619,0 -0.12277,-0.0029 -0.18462,-0.0094 -0.98877,-0.0984 -1.55578,-0.460168 -1.55578,-0.992502 0,-1.585755 2.7957,-1.761949 4.64574,-1.878163 0.18651,-0.01218 0.35801,-0.02249 0.5089,-0.03374 0.62419,-0.04779 1.29522,-0.09185 1.9747,-0.09185 1.81537,0 2.75445,0.326147 2.95501,1.026241 0.0796,0.27835 0.0469,0.55014 -0.0965,0.784443 -0.35051,0.575444 -1.30928,0.832239 -2.10403,0.991564 -0.57545,0.115277 -1.19119,0.03093 -1.81818,-0.07873 -0.49766,-0.08716 -1.01407,-0.179007 -1.6373,-0.160263 -0.72166,0.02061 -1.23618,0.152765 -1.69166,0.269916 -0.35989,0.09185 -0.67104,0.172447 -0.99625,0.172447 z m 5.38894,-2.350516 c -0.65791,0 -1.31396,0.04312 -1.92409,0.08997 -0.1537,0.01121 -0.32802,0.02249 -0.51734,0.03467 -1.30834,0.08247 -4.03092,0.253983 -4.03092,1.223055 0,0.07122 0.27741,0.270853 0.96438,0.339268 0.0393,0.0038 0.0796,0.0056 0.11903,0.0056 l 0,0 c 0.24274,0 0.50328,-0.06748 0.83318,-0.151827 0.46392,-0.119026 1.04124,-0.268042 1.83599,-0.290535 0.68978,-0.01969 1.26523,0.08153 1.76944,0.169635 0.56795,0.09934 1.10216,0.176195 1.57638,0.08153 0.94658,-0.189317 1.50984,-0.421744 1.67291,-0.688847 0.0319,-0.05249 0.0637,-0.130273 0.0262,-0.262419 -0.0375,-0.128397 -0.3149,-0.55014 -2.32521,-0.55014 z m 23.29241,13.769446 c -0.12652,0 -0.24649,-0.0731 -0.30084,-0.194939 -0.03,-0.06748 -3.10123,-6.724461 -13.18089,-7.044048 -1.97938,-0.06186 -3.6401,0.217432 -5.00656,0.498594 -0.17338,0.03843 -0.35051,-0.07685 -0.388,-0.25492 -0.0366,-0.177133 0.0778,-0.351453 0.25492,-0.388004 1.403,-0.289596 3.11152,-0.578257 5.15932,-0.511715 10.51079,0.333646 13.72916,7.364573 13.76008,7.435801 0.0731,0.165886 -0.002,0.35895 -0.16776,0.432052 -0.0412,0.01874 -0.0863,0.02718 -0.13027,0.02718 z m -11.3299,-9.809746 c -0.002,0 -0.003,0 -0.005,0 -0.0356,-9.37e-4 -3.54546,-0.09185 -3.70009,-3.524836 -0.0347,-0.778819 0.17526,-1.413308 0.62605,-1.884723 0.68042,-0.71134 1.72071,-0.861293 2.47235,-0.861293 1.07405,0 2.24462,0.31209 2.8463,0.7582 0.76851,0.569822 1.29335,2.222118 0.84443,3.580131 -0.23805,0.72165 -0.95501,1.932521 -3.08435,1.932521 z m -0.60544,-5.614808 c -0.88285,0 -1.59231,0.234302 -1.99812,0.658857 -0.32239,0.337395 -0.47142,0.80881 -0.44518,1.402062 0.12559,2.793814 2.90254,2.895033 3.05249,2.897845 1.28866,-9.38e-4 2.13871,-0.51359 2.45829,-1.482662 0.35146,-1.064668 -0.0478,-2.428304 -0.61199,-2.847236 -0.41143,-0.304592 -1.41144,-0.628866 -2.45549,-0.628866 z m -70.967189,-1.856606 -6.28866,0 c -0.180881,0 -0.328022,-0.147142 -0.328022,-0.328023 0,-0.180882 0.147141,-0.328023 0.328022,-0.328023 l 6.28866,0 c 0.180881,0 0.328022,0.147141 0.328022,0.328023 0,0.180881 -0.147141,0.328023 -0.328022,0.328023 z m -7.669166,4.995313 c -0.04873,0 -0.09934,-0.01121 -0.146204,-0.03467 -0.162137,-0.08154 -0.227742,-0.278351 -0.146205,-0.440488 l 1.489223,-2.976569 c 0.08154,-0.1612 0.277412,-0.227742 0.440487,-0.147142 0.162137,0.08153 0.227741,0.278351 0.146204,0.440488 l -1.489222,2.97657 c -0.0581,0.115276 -0.173383,0.181817 -0.294283,0.181817 z m 0.333645,1.596064 c -0.02718,0 -0.05342,-0.0029 -0.0806,-0.0103 -0.176194,-0.04405 -0.282099,-0.223056 -0.23805,-0.398313 l 1.156513,-4.572633 c 0.04406,-0.176195 0.225867,-0.282099 0.398313,-0.238051 0.176195,0.04405 0.2821,0.223055 0.238051,0.398314 l -1.156513,4.572632 c -0.03749,0.149954 -0.170573,0.248361 -0.317714,0.248361 z m 2.954077,-4.820993 c -0.65417,0 -1.272727,-0.216495 -1.709465,-0.608248 -0.417058,-0.373945 -0.637302,-0.876289 -0.621368,-1.413309 0.03655,-1.215557 1.091845,-2.01968 2.822867,-2.150889 1.073102,-0.0806 2.582943,-0.02343 3.314902,1.40581 0.08247,0.1612 0.01874,0.35895 -0.142456,0.441425 -0.162136,0.08341 -0.358951,0.01874 -0.441424,-0.142456 -0.43299,-0.845361 -1.234303,-1.158388 -2.680412,-1.049672 -1.3627,0.103095 -2.191191,0.669166 -2.216496,1.515464 -0.01312,0.436738 0.21181,0.733833 0.403,0.905342 0.386129,0.346767 0.981255,0.503281 1.593252,0.418932 0.179944,-0.02531 0.344891,0.100281 0.370196,0.280225 0.02437,0.179006 -0.100281,0.344891 -0.280225,0.370196 -0.138707,0.01781 -0.276476,0.02718 -0.412371,0.02718 z m 0.483599,0.778818 c -2.162136,0 -3.504217,-1.037488 -3.504217,-2.706653 0,-0.180881 0.147141,-0.328023 0.328022,-0.328023 0.180882,0 0.328024,0.147142 0.328024,0.328023 0,1.283973 1.064666,2.050608 2.848171,2.050608 2.089972,0 3.420806,-0.78819 3.56045,-2.108715 0.0581,-0.551078 -0.125586,-1.066542 -0.531396,-1.49016 -0.557639,-0.582005 -1.458295,-0.89222 -2.403937,-0.835051 -0.18463,0.01218 -0.336457,-0.126523 -0.34864,-0.307404 -0.01121,-0.18088 0.126522,-0.336458 0.307403,-0.347704 1.139644,-0.07029 2.229616,0.315839 2.918463,1.035614 0.536083,0.559513 0.788191,1.275539 0.710403,2.014058 -0.178069,1.686972 -1.753514,2.695407 -4.212746,2.695407 z m -0.608247,4.374883 -2.044985,0 c -0.700095,0 -1.140581,-0.202437 -1.521088,-0.699157 -0.110588,-0.144329 -0.08247,-0.349578 0.06092,-0.460168 0.145267,-0.110588 0.350516,-0.08247 0.460169,0.06092 0.223993,0.293345 0.440487,0.442361 1,0.442361 l 2.044985,0 c 0.08622,-0.0029 0.539832,-0.04498 0.60075,-0.656045 0.09279,-0.925024 0.09934,-3.203374 0.09934,-3.225867 0,-0.180881 0.147141,-0.327085 0.328023,-0.327085 0,0 0,0 9.37e-4,0 0.180881,0 0.328022,0.148078 0.327085,0.32896 0,0.09465 -0.0076,2.333646 -0.103095,3.289596 -0.09747,0.98688 -0.862231,1.246486 -1.253046,1.246486 z m -7.561386,-2.561387 c -0.01406,0 -0.02812,-9.37e-4 -0.04218,-0.0029 -0.179943,-0.02249 -0.306466,-0.187441 -0.283973,-0.367384 l 0.686035,-5.388005 c 0.02249,-0.179942 0.18463,-0.307403 0.367385,-0.283973 0.179944,0.02249 0.306467,0.187441 0.283974,0.367385 l -0.686035,5.388004 c -0.02155,0.165885 -0.162137,0.286785 -0.325211,0.286785 z m 3.641049,24.320518 c -0.788191,0 -1.599813,-0.02254 -2.44986,-0.07778 -4.536081,-0.292409 -4.727272,-4.077788 -4.881911,-7.119025 -0.02437,-0.472352 -0.0478,-0.935333 -0.08528,-1.376757 -0.06373,-0.741331 -0.119962,-1.313028 -0.168696,-1.806935 -0.17151,-1.736645 -0.250235,-2.529522 -0.212747,-6.328022 0.04498,-4.652297 1.572633,-7.501406 1.788191,-7.880038 l 1.364574,-4.886598 c 0.04873,-0.17432 0.229616,-0.277413 0.404874,-0.22774 0.17432,0.04873 0.276476,0.229615 0.22774,0.403935 l -1.376757,4.926898 c -0.0076,0.02812 -0.01968,0.05436 -0.03374,0.07967 -0.01687,0.02812 -1.672914,2.880036 -1.718838,7.590439 -0.03655,3.762887 0.0403,4.544517 0.209935,6.256794 0.04873,0.49672 0.105909,1.070291 0.169634,1.815371 0.03843,0.448922 0.06279,0.9194 0.08716,1.39925 0.155576,3.068416 0.316775,6.241799 4.268978,6.496719 2.657919,0.171509 4.935332,0.02061 7.347704,-0.138706 2.085285,-0.13777 4.242735,-0.279288 6.951263,-0.25867 2.961575,0.02624 8.34583,-0.108712 14.045923,-0.248359 5.692596,-0.139644 12.145266,-0.298032 17.105903,-0.3224 2.666355,-0.015 4.956888,0.04592 6.974698,0.0984 5.28023,0.135895 8.18649,0.210871 9.16307,-1.23805 0.46955,-0.697283 0.7629,-1.694471 1.10215,-2.848172 0.67292,-2.287723 1.5942,-5.422681 4.64481,-8.47329 1.85566,-1.85567 3.02155,-2.568885 3.87348,-3.089971 1.19024,-0.72821 1.73383,-1.060919 2.85473,-3.931585 1.88566,-4.830364 1.2896,-7.997187 1.28397,-8.029052 -0.0356,-0.177133 0.0796,-0.350516 0.2568,-0.386129 0.1762,-0.03655 0.35052,0.07873 0.38613,0.256794 0.0272,0.134958 0.64668,3.371133 -1.31584,8.397375 -1.2015,3.076851 -1.84349,3.469541 -3.12277,4.253046 -0.8238,0.504218 -1.95221,1.194002 -3.75257,2.994377 -2.93253,2.93252 -3.79101,5.850046 -4.47986,8.194001 -0.35427,1.206186 -0.66074,2.24836 -1.18745,3.02999 -1.17806,1.747891 -4.21462,1.669166 -9.72446,1.526711 -2.01312,-0.05249 -4.298967,-0.112465 -6.954076,-0.0984 -4.954076,0.02437 -11.402998,0.181818 -17.092783,0.322398 -5.706653,0.139644 -11.096531,0.273666 -14.067477,0.249298 -2.690721,-0.02437 -4.828491,0.119962 -6.902531,0.257732 -1.668228,0.110588 -3.272726,0.216495 -4.984066,0.216495 z M 112.90513,61.252765 c -0.16026,0 -0.29991,-0.117151 -0.32427,-0.280226 -0.0262,-0.179006 0.0975,-0.345829 0.27647,-0.373008 0.10776,-0.01593 10.93252,-1.597938 20.64292,-1.597938 9.66449,0 15.78913,-0.657919 15.85006,-0.66448 0.18556,-0.01687 0.34207,0.110588 0.36175,0.290534 0.0197,0.179944 -0.11062,0.342081 -0.29053,0.361763 -0.0609,0.0065 -6.21838,0.668228 -15.92221,0.668228 -9.6626,0 -20.43955,1.575445 -20.54734,1.591378 -0.015,0.0029 -0.0309,0.0038 -0.0469,0.0038 z m 42.76476,3.953139 c -0.16308,0 -0.30553,-0.121836 -0.32521,-0.28866 -0.0666,-0.537957 -0.2896,-2.054358 -0.52765,-2.603561 -0.26054,-0.600749 -0.35989,-0.71134 -1.15276,-0.895032 -0.61482,-0.142456 -4.10591,-0.0731 -6.30272,0.0085 -0.12746,0.0029 -0.24929,-0.06748 -0.30647,-0.183693 -0.0572,-0.116214 -0.0403,-0.255856 0.0431,-0.3552 0.79662,-0.952203 2.72258,-1.628867 4.4208,-2.22493 0.60544,-0.212747 1.17806,-0.413308 1.66167,-0.612934 0.7329,-0.300843 0.75633,-0.507029 0.75633,-0.508904 9.3e-4,-0.06748 -0.17339,-0.208997 -0.31022,-0.269915 -0.16495,-0.07404 -0.23992,-0.268041 -0.16588,-0.43299 0.074,-0.165885 0.26803,-0.239925 0.43392,-0.165885 0.0722,0.03186 0.70665,0.330834 0.69822,0.8791 -0.006,0.425492 -0.38613,0.787254 -1.16308,1.106842 -0.49953,0.205247 -1.07966,0.409559 -1.69353,0.625117 -1.22212,0.42924 -2.56607,0.900655 -3.44517,1.456419 1.65229,-0.04967 4.82474,-0.121837 5.52203,0.0403 0.96438,0.223993 1.24929,0.449859 1.60637,1.273665 0.32427,0.747892 0.56701,2.701968 0.57638,2.784442 0.0225,0.179944 -0.10594,0.343955 -0.28585,0.365511 -0.0131,9.38e-4 -0.0272,0.0018 -0.0403,0.0018 z m 0.90346,1.808809 c -9.3e-4,0 -0.002,0 -0.002,0 -0.18088,-0.0018 -0.32709,-0.149952 -0.32521,-0.330834 0,-0.02249 0.0197,-2.264292 -0.0159,-2.911902 -0.008,-0.141518 -0.006,-0.287722 -0.003,-0.443298 0.008,-0.576383 0.0179,-1.228679 -0.50046,-2.337395 -0.66168,-1.415183 -1.20806,-2.117151 -1.21369,-2.123712 -0.11154,-0.142454 -0.0872,-0.34864 0.0543,-0.460168 0.14246,-0.112465 0.3477,-0.0881 0.46016,0.05436 0.0244,0.02999 0.59607,0.761013 1.29335,2.252109 0.582,1.244611 0.5717,2.010309 0.56233,2.625117 -0.002,0.139643 -0.005,0.270853 0.002,0.397375 0.0366,0.668229 0.0178,2.860357 0.0169,2.954077 -0.002,0.179007 -0.14808,0.324274 -0.32803,0.324274 z m -0.2118,1.730085 c -0.0262,0 -0.0534,-0.0029 -0.0796,-0.0094 -0.17526,-0.04406 -0.28303,-0.222118 -0.23899,-0.397376 0.0909,-0.36551 0.2896,-1.419869 0.12091,-1.908154 -0.0496,-0.08622 -0.22681,-0.225866 -0.49861,-0.402998 -0.0412,-0.01594 -0.0778,-0.0403 -0.1097,-0.07029 -0.98501,-0.619495 -2.97657,-1.628867 -4.78258,-2.450797 -1.02436,-0.378632 -1.0759,-0.622305 -1.04029,-0.8388 0.0572,-0.344893 0.46673,-0.355202 0.62043,-0.358951 0.67291,-0.01121 1.1106,0.171509 1.91003,0.51359 0.43299,0.185566 0.97189,0.41612 1.73196,0.696344 2.0403,0.753515 2.20619,1.379569 2.13589,2.053421 0.35614,0.253046 0.59419,0.475164 0.65323,0.644798 0.26149,0.760076 -0.0666,2.12746 -0.1049,2.281163 -0.0365,0.147141 -0.17058,0.247422 -0.31772,0.247422 z m -3.27086,-4.870665 c 0.82849,0.406747 1.66167,0.840674 2.32709,1.237113 -0.14058,-0.261481 -0.5492,-0.571696 -1.64949,-0.978444 -0.24835,-0.09185 -0.47235,-0.178069 -0.6776,-0.258669 z m -8.22211,23.101217 c -0.18089,0 -0.32803,-0.147142 -0.32803,-0.328023 0,-0.305529 0.0843,-0.31865 1.12184,-0.483598 2.35521,-0.374883 9.52109,-1.516401 11.32239,-4.254921 1.43768,-2.186504 1.59139,-3.751639 1.71416,-5.009372 0.0704,-0.712276 0.13028,-1.327084 0.40581,-1.896906 0.0796,-0.163074 0.2746,-0.23149 0.43862,-0.152765 0.16307,0.07873 0.23149,0.274602 0.15276,0.438613 -0.22493,0.464855 -0.27741,0.999063 -0.34396,1.675726 -0.12371,1.259606 -0.29241,2.984068 -1.81911,5.30553 -1.9597,2.980317 -9.08529,4.115276 -11.76757,4.542642 -0.32896,0.05249 -0.64011,0.102157 -0.74508,0.126523 -0.045,0.02343 -0.0966,0.03655 -0.15183,0.03655 z m 13.70665,-3.318651 c -0.15277,0 -0.2896,-0.107774 -0.32146,-0.263354 -0.0356,-0.177132 0.0787,-0.350515 0.25585,-0.38613 l 0,0 c 0.009,-0.0018 0.95502,-0.207122 1.3702,-0.962512 0.32896,-0.598874 -0.17526,-1.397375 -0.17994,-1.40581 -0.0975,-0.152765 -0.0534,-0.355201 0.0975,-0.453608 0.15183,-0.09747 0.35427,-0.0553 0.45267,0.09653 0.03,0.04592 0.72352,1.134022 0.20432,2.078726 -0.56327,1.026242 -1.76383,1.279288 -1.81444,1.289597 -0.0215,0.0047 -0.0431,0.0065 -0.0646,0.0065 z m -6.09747,-8.969071 c -0.15183,0 -0.28866,-0.105909 -0.32053,-0.261481 -0.0375,-0.177132 0.0769,-0.351452 0.25399,-0.388003 5.18744,-1.084349 6.13027,-1.195876 6.16776,-1.199625 0.18275,-0.01969 0.34207,0.10965 0.36176,0.289596 0.0206,0.179944 -0.10868,0.342081 -0.28866,0.3627 -0.0384,0.0047 -0.98875,0.119963 -6.10683,1.190252 -0.0225,0.0047 -0.045,0.0065 -0.0675,0.0065 z m -8.33458,2.140581 -0.0234,-0.656045 c 0,0 6.84911,-0.23805 10.15463,-0.356138 2.28866,-0.08248 4.22212,-0.192128 4.69728,-0.70853 0.074,-0.0806 0.10502,-0.166822 0.0993,-0.281161 -0.008,-0.180881 0.1312,-0.334583 0.31302,-0.343018 0.17808,-0.0038 0.33458,0.131208 0.34301,0.313027 0.0132,0.290535 -0.0778,0.544518 -0.27178,0.755389 -0.59794,0.649485 -2.07498,0.80881 -5.15652,0.9194 -3.30646,0.119025 -10.15557,0.357076 -10.15557,0.357076 z m -4.67292,-2.433926 c -0.14057,0 -0.26991,-0.08997 -0.31303,-0.230554 -0.0534,-0.173383 0.0431,-0.357075 0.21556,-0.410497 0.34209,-0.106847 8.41894,-2.619493 11.20994,-3.186504 2.35146,-0.478913 2.56514,-0.856606 2.86129,-1.379568 0.0431,-0.07498 0.0863,-0.152765 0.13589,-0.23149 0.41331,-0.665417 1.01126,-1.940957 1.01781,-1.95314 0.0769,-0.164012 0.2718,-0.235239 0.43581,-0.157451 0.16401,0.07685 0.2343,0.27179 0.15744,0.436739 -0.0244,0.05342 -0.62043,1.323336 -1.05435,2.020618 -0.044,0.07122 -0.0834,0.141518 -0.12184,0.208998 -0.40769,0.719774 -0.78444,1.18744 -3.30178,1.699155 -2.7582,0.560451 -11.06185,3.144331 -11.14526,3.170572 -0.0328,0.0085 -0.0655,0.01312 -0.0975,0.01312 z M 117.6624,58.501125 c -0.0114,0 -0.0225,-9.37e-4 -0.0338,-0.0018 -0.17994,-0.01874 -0.31115,-0.179006 -0.29334,-0.359887 l 0.8238,-8.054358 c 0.009,-0.09372 0.059,-0.179007 0.13589,-0.233364 0.0769,-0.05436 0.17432,-0.07498 0.26523,-0.05249 0.14434,0.03374 3.56796,0.834115 5.98501,2.189316 2.20244,1.235239 1.7985,2.635426 1.30272,3.581068 -0.51358,0.981256 -1.84349,2.728211 -1.89972,2.80225 -0.1097,0.143393 -0.31584,0.172446 -0.46017,0.06186 -0.14433,-0.10965 -0.17151,-0.315839 -0.0619,-0.460169 0.0141,-0.01781 1.3524,-1.776945 1.84068,-2.709466 0.41518,-0.792877 0.71133,-1.720712 -1.04217,-2.703842 -1.88754,-1.058107 -4.50047,-1.788191 -5.44893,-2.032803 l -0.78537,7.6776 c -0.0188,0.169636 -0.16121,0.296158 -0.32803,0.296158 z m -1.01501,0 c -0.0141,0 -0.0271,-9.37e-4 -0.0412,-0.0029 -0.17901,-0.02249 -0.30741,-0.186505 -0.28492,-0.366447 l 0.98407,-7.92971 c -0.42174,-0.129334 -1.81162,-0.494846 -5.97844,-1.219307 -5.74321,-0.999062 -15.548268,-1.26148 -15.646675,-1.263355 -0.180881,-0.0047 -0.324273,-0.155576 -0.319586,-0.336456 0.0047,-0.178071 0.15089,-0.319588 0.328022,-0.319588 0.0029,0 0.0056,0 0.0085,0 0.0984,0.0029 9.951269,0.266166 15.742279,1.272727 5.48266,0.95314 6.29428,1.303655 6.41331,1.388004 0.0984,0.07028 0.14995,0.188378 0.13496,0.307403 l -1.015,8.18088 c -0.0206,0.166824 -0.1612,0.288661 -0.32522,0.288661 z M 94.359676,59.74105 c -0.01121,0 -0.02249,-9.37e-4 -0.03374,-0.0018 -0.179944,-0.01874 -0.311152,-0.179006 -0.293345,-0.359887 l 1.329892,-13.017852 c 0.01874,-0.179943 0.185566,-0.307403 0.359887,-0.293346 0.179944,0.01875 0.311153,0.179007 0.293347,0.359888 L 94.685819,59.44586 c -0.01781,0.169634 -0.160262,0.29522 -0.326147,0.29522 z m -0.665418,0 c -0.01121,0 -0.02249,-9.37e-4 -0.03373,-0.0018 -0.179944,-0.01874 -0.311154,-0.179006 -0.293347,-0.359887 l 1.329893,-13.017852 c 0.01874,-0.179943 0.182756,-0.307403 0.359888,-0.293346 0.179944,0.01875 0.311153,0.179007 0.293346,0.359888 L 94.020411,59.44586 c -0.01687,0.169634 -0.159325,0.29522 -0.326148,0.29522 z M 89.37842,86.42802 c -0.149017,0 -0.283974,-0.102156 -0.319588,-0.253983 -1.211809,-5.236175 -1.057169,-11.982191 -0.834115,-16.601685 0.243675,-5.059981 1.785381,-9.716963 1.911903,-10.091846 l 2.468604,-13.16401 c 0.0328,-0.178069 0.205248,-0.29522 0.383317,-0.262418 0.178069,0.03374 0.29522,0.205248 0.261481,0.383318 l -2.473289,13.186503 c -0.0029,0.01593 -0.0076,0.03187 -0.01218,0.04686 -0.01687,0.04686 -1.636364,4.779756 -1.885661,9.932521 -0.220244,4.58013 -0.37582,11.265229 0.818182,16.421742 0.04124,0.176195 -0.06936,0.35239 -0.245548,0.393627 -0.02343,0.0065 -0.04779,0.0094 -0.0731,0.0094 z M 40.974486,63.770103 c -0.06373,0 -0.129335,-0.01874 -0.185567,-0.05904 -0.197751,-0.13777 -0.525773,-0.495783 -0.504217,-0.966261 0.02249,-0.48641 0.397376,-0.940018 1.113401,-1.347704 0.979382,-0.5567 9.897845,-5.555764 21.487347,-9.686035 11.014058,-3.924085 27.392688,-4.641987 27.5567,-4.648547 0.119963,-0.0038 0.216495,0.04686 0.280224,0.136832 0.06467,0.08997 0.07967,0.206186 0.03936,0.309279 l -4.808809,12.436737 c -0.06467,0.168697 -0.25492,0.253046 -0.424555,0.187441 -0.169634,-0.06561 -0.253046,-0.255857 -0.187441,-0.424554 l 4.626054,-11.964385 c -2.834114,0.153702 -17.024367,1.080599 -26.861292,4.585754 -11.537019,4.111527 -20.409558,9.084347 -21.383317,9.638237 -0.491096,0.279288 -0.769447,0.565135 -0.782567,0.804123 -0.01312,0.226805 0.223054,0.401125 0.225866,0.403 0.145268,0.105909 0.179944,0.310215 0.07591,0.45642 -0.06373,0.08997 -0.164948,0.138707 -0.267104,0.138707 z m -0.671977,0.02249 c -1.01687,0 -1.661669,-0.200563 -1.788191,-1.070291 -0.208998,-1.444237 2.104967,-2.465792 5.034676,-3.7582 1.139643,-0.502343 2.317713,-1.022493 3.373946,-1.588566 l 0.421742,-0.227741 c 13.617619,-7.36551 28.805059,-11.10028 45.141516,-11.10028 21.214622,0 30.595132,3.698219 34.298962,5.90253 0.0713,0.04218 0.12747,0.07591 0.17152,0.100281 0.91471,0.514527 1.89597,1.360825 1.36082,3.35239 -0.46392,1.722586 -1.75539,2.899719 -1.80975,2.94939 -0.0572,0.05155 -0.13026,0.0806 -0.20712,0.08434 -0.21556,0.0085 -21.69447,0.830366 -33.229615,1.331772 -11.529521,0.501405 -31.058105,2.013121 -31.253981,2.029054 -0.175258,0.02061 -0.338331,-0.1209 -0.35239,-0.301781 -0.01406,-0.180882 0.1209,-0.338332 0.301781,-0.35239 0.195876,-0.015 19.734769,-1.528585 31.276474,-2.029991 11.076851,-0.481724 31.320531,-1.258669 33.107781,-1.327084 0.27834,-0.277414 1.18462,-1.257733 1.53327,-2.552953 0.39268,-1.460169 -0.10971,-2.081537 -1.04874,-2.609184 -0.0469,-0.02624 -0.10868,-0.06279 -0.18462,-0.108712 -3.64574,-2.169634 -12.90535,-5.810684 -33.963454,-5.810684 -16.225866,0 -31.30834,3.708528 -44.82849,11.021555 l -0.423617,0.228678 c -1.077788,0.57732 -2.268041,1.102157 -3.418932,1.610123 -2.353326,1.038425 -4.787253,2.112464 -4.649483,3.063729 0.07779,0.541707 0.557637,0.569822 2.416119,0.447048 l 0.466729,-0.02999 c 2.000938,-0.125585 11.939081,-1.067478 12.038425,-1.076851 0.184631,-0.01594 0.341144,0.115276 0.358014,0.296158 0.01687,0.179944 -0.115278,0.340206 -0.296158,0.358013 -0.100281,0.0094 -10.048734,0.953139 -12.059981,1.078725 l -0.463917,0.02999 c -0.491096,0.03093 -0.935333,0.06092 -1.323336,0.06092 z m 5.632614,25.640114 c -0.180881,0 -0.327086,-0.146211 -0.328022,-0.327085 -9.37e-4,-0.181824 0.145266,-0.328962 0.327085,-0.3299 l 69.616684,-0.307409 c -0.015,-1.662601 0.19212,-8.835984 4.64385,-13.486405 2.50797,-2.619494 5.92315,-3.948454 10.1509,-3.948454 4.56795,0 8.18369,1.359888 10.74414,4.0403 3.82474,4.003749 4.11059,9.649484 4.11246,11.193065 1.74976,-0.250235 9.02625,-1.314903 11.10122,-2.024368 2.10684,-0.720712 2.43486,-1.522024 3.02999,-2.977506 l 0.13402,-0.326149 c 0.53889,-1.297095 0.51828,-2.173384 0.49297,-3.188378 -0.005,-0.220244 -0.0103,-0.446111 -0.0103,-0.680412 0,-0.655108 -0.15277,-0.860357 -0.36457,-1.14433 -0.17058,-0.228679 -0.38333,-0.51359 -0.50704,-1.040301 -0.0778,-0.332708 -0.21649,-0.56701 -0.37769,-0.839737 -0.31303,-0.530459 -0.70197,-1.189315 -0.77227,-2.789128 -0.0637,-1.438613 -0.34113,-1.62418 -1.37581,-2.315839 -0.15839,-0.105909 -0.33177,-0.222118 -0.52203,-0.354265 -0.50983,-0.355201 -0.92971,-0.775069 -1.37394,-1.219306 -0.88285,-0.882849 -1.88473,-1.884723 -4.02999,-2.874414 -3.35051,-1.546391 -3.70572,-2.817245 -3.73477,-2.957826 -0.0375,-0.177131 0.0769,-0.351452 0.25398,-0.38894 0.17057,-0.03655 0.34489,0.07216 0.38707,0.244611 0.0103,0.03561 0.373,1.122774 3.36926,2.506092 2.25117,1.039362 3.34207,2.130271 4.21837,3.00656 0.44143,0.441424 0.82286,0.822868 1.28491,1.14433 0.18557,0.129334 0.35613,0.243673 0.51171,0.347703 1.09091,0.729148 1.58856,1.061856 1.66635,2.83224 0.0628,1.435801 0.3777,1.968135 0.68229,2.483599 0.17245,0.291471 0.34958,0.593252 0.4508,1.022493 0.0919,0.393627 0.23899,0.59044 0.39457,0.798501 0.24274,0.326147 0.49483,0.663542 0.49483,1.536082 0,0.229616 0.006,0.448922 0.0103,0.66448 0.0253,1.044986 0.0487,2.030928 -0.54358,3.456419 l -0.13215,0.322399 c -0.60169,1.470478 -1.03655,2.533271 -3.42549,3.350516 -2.41237,0.825679 -11.22962,2.055294 -11.60356,2.107779 -0.0984,0.01406 -0.19401,-0.01687 -0.26617,-0.08247 -0.0722,-0.06561 -0.11153,-0.160262 -0.10684,-0.256795 0.002,-0.06655 0.25117,-6.736644 -3.92877,-11.106841 -2.43206,-2.54358 -5.8866,-3.834113 -10.26617,-3.834113 -4.0403,0 -7.29522,1.259606 -9.67478,3.743204 -4.76008,4.969072 -4.46018,13.264295 -4.45737,13.346776 0.003,0.089 -0.029,0.176195 -0.0899,0.240852 -0.061,0.06463 -0.14714,0.101242 -0.23618,0.102157 l -69.950321,0.30835 c 9.37e-4,0.0023 9.37e-4,0.0023 0,0.0023 z M 147.2144,61.798219 c -9.3e-4,0 -0.002,0 -0.002,0 -0.0563,-9.36e-4 -5.6851,-0.0553 -10.66448,-0.0103 -9.4e-4,0 -0.002,0 -0.002,0 -0.17994,0 -0.32614,-0.145267 -0.32802,-0.325211 -0.002,-0.181819 0.14434,-0.329897 0.32521,-0.330834 4.33272,-0.03843 9.15464,-0.0029 10.38051,0.0076 0.0168,-0.04405 0.0384,-0.08528 0.0656,-0.125585 0.27554,-0.41612 0.96814,-0.549205 2.11621,-0.770385 0.93627,-0.179944 2.10122,-0.404874 3.32427,-0.856607 1.68323,-0.622306 2.59888,-1.151827 2.57732,-1.491097 -0.009,-0.190252 -0.03,-0.582942 -1.70665,-0.615745 -2.26992,-0.04405 -6.16026,-0.634488 -10.40488,-1.57732 l -0.19306,-0.0431 c -3.52577,-0.782568 -3.52577,-0.782568 -10.29616,-3.547329 -1.62137,-0.662605 -3.63449,-1.483598 -6.179,-2.513589 C 113.78209,44.561229 94.233829,44.30912 80.088562,45.752419 68.381909,46.947358 63.117617,49.20509 53.560917,53.304434 l -1.668229,0.715089 c -10.403936,4.449859 -14.911901,6.447047 -14.95595,6.466728 -0.164949,0.07404 -0.358951,-9.37e-4 -0.43299,-0.166822 -0.07404,-0.165886 9.37e-4,-0.359888 0.166822,-0.43299 0.04406,-0.01968 4.554827,-2.018744 14.964385,-6.470478 l 1.667293,-0.715088 c 9.615743,-4.125586 14.912838,-6.397377 26.718836,-7.601687 14.222116,-1.450797 33.895966,-1.191191 46.451726,3.890346 2.54546,1.029991 4.55859,1.851921 6.18089,2.514527 6.71883,2.743205 6.71883,2.743205 10.19025,3.514527 l 0.19307,0.04312 c 4.14151,0.920338 8.07965,1.519213 10.27554,1.561388 1.60355,0.03093 2.30552,0.394564 2.3477,1.21462 0.0328,0.529521 -0.17338,1.117151 -3.00469,2.164012 -1.27273,0.470477 -2.46767,0.700093 -3.42737,0.884723 -0.68509,0.132146 -1.62323,0.313027 -1.69541,0.492034 0.0206,0.09747 -0.002,0.209934 -0.0656,0.287722 -0.0599,0.07685 -0.15276,0.132146 -0.25118,0.132146 z m -15.99812,0.113403 c -0.17525,0 -0.32053,-0.138707 -0.32708,-0.315839 -0.007,-0.180881 0.13495,-0.333646 0.31584,-0.340207 l 0.69352,-0.02624 c 0.90816,-0.03467 1.64293,-0.06279 2.62138,-0.07873 0.002,0 0.003,0 0.006,0 0.17899,0 0.32521,0.143392 0.32801,0.322398 0.002,0.180882 -0.14151,0.330835 -0.3224,0.333646 -0.97375,0.01594 -1.70383,0.04406 -2.60824,0.07873 l -0.69447,0.02624 c -0.003,0 -0.008,0 -0.0121,0 z m -6.86973,0.394564 c -0.16495,0 -0.30647,-0.123712 -0.32521,-0.291472 -0.0206,-0.179943 0.1096,-0.34208 0.2896,-0.362699 0.0141,-0.0018 1.44986,-0.1612 4.56514,-0.300844 0.16307,-0.01687 0.33458,0.132146 0.34208,0.313027 0.008,0.180882 -0.13215,0.334583 -0.31303,0.342081 -3.0881,0.138707 -4.50609,0.296158 -4.52015,0.297095 -0.0132,0.0018 -0.0253,0.0029 -0.0384,0.0029 z M 48.688637,85.306185 c -0.127459,0 -0.243674,-0.07404 -0.298032,-0.190254 -0.05716,-0.122773 -0.0328,-0.268041 0.06185,-0.36551 1.047798,-1.089035 2.036552,-1.194003 7.518275,-1.772259 0.759137,-0.07967 1.604499,-0.169635 2.550141,-0.27179 3.378631,-0.366448 8.393626,-0.649484 14.201498,-0.978445 7.315839,-0.414245 16.419868,-0.929708 25.884723,-1.812558 5.292408,-0.493908 9.215548,-0.744142 11.661678,-0.744142 2.72915,0 3.02999,0.300843 3.1134,0.635426 0.0675,0.270853 -0.13122,0.485473 -0.3224,0.586692 -0.0637,0.04967 -2.54171,1.761949 -11.02999,2.585754 -8.606381,0.835051 -28.76383,1.653234 -37.634496,1.776008 -8.95595,0.124648 -15.619493,0.546391 -15.686034,0.551078 -0.0065,0 -0.01406,0 -0.02061,0 z m 61.579193,-5.478913 c -2.42549,0 -6.32896,0.249297 -11.600751,0.74133 -9.476101,0.883786 -18.586691,1.400188 -25.908152,1.814433 -5.798501,0.328022 -10.805998,0.611997 -14.16776,0.975632 -0.946579,0.102157 -1.793814,0.192129 -2.552014,0.271791 -3.754453,0.396439 -5.320525,0.562324 -6.228679,0.954077 2.281162,-0.124648 7.767573,-0.391753 14.575445,-0.486411 8.860355,-0.122774 28.988752,-0.940018 37.580131,-1.773195 6.9222,-0.671041 9.77507,-1.955015 10.53139,-2.362699 -0.31771,-0.06279 -0.95782,-0.134958 -2.22961,-0.134958 z M 87.411221,65.240581 c -0.169634,0 -0.313027,-0.130272 -0.327084,-0.301781 -0.015,-0.180881 0.119962,-0.339269 0.300843,-0.353327 0.03374,-0.0029 3.445173,-0.279288 10.776945,-0.969072 7.339265,-0.689785 15.653235,-1.263355 15.735705,-1.268978 0.18463,-0.01312 0.33739,0.123711 0.34958,0.304592 0.0121,0.180881 -0.12371,0.337394 -0.3046,0.349578 -0.0834,0.0056 -8.38893,0.578257 -15.719768,1.268041 -7.337394,0.689785 -10.751639,0.967198 -10.785378,0.97001 -0.0085,9.37e-4 -0.01781,9.37e-4 -0.02624,9.37e-4 z m -70.442357,8.003748 c -0.06467,0 -0.130271,-0.01968 -0.187441,-0.05904 -0.148079,-0.104034 -0.18463,-0.308342 -0.08153,-0.457357 0.13121,-0.188379 3.316776,-4.610122 11.936269,-4.610122 8.626054,0 11.196814,3.792877 11.30178,3.954076 0.09934,0.151828 0.05624,0.355202 -0.09559,0.454546 -0.151829,0.09934 -0.355202,0.05623 -0.45361,-0.09559 -0.02437,-0.03561 -2.518275,-3.656044 -10.752576,-3.656044 -8.280225,0 -11.368322,4.286784 -11.398313,4.329896 -0.06373,0.09091 -0.164948,0.139644 -0.268978,0.139644 z m 1.379569,-5.21462 c -0.148078,0 -0.2821,-0.101219 -0.318651,-0.251171 -0.04218,-0.176195 0.06655,-0.353327 0.242737,-0.395502 0.06467,-0.01594 5.865042,-1.397375 12.895032,-2.048734 -3.875351,0.168697 -7.419868,0.686035 -11.148078,1.229615 -2.043111,0.298032 -4.156513,0.606374 -6.378631,0.862231 -0.183693,0.02249 -0.343017,-0.108712 -0.363637,-0.28866 -0.02061,-0.179944 0.108712,-0.343018 0.28866,-0.363636 2.212747,-0.25492 4.320524,-0.562325 6.35895,-0.85942 4.224929,-0.615744 8.21462,-1.19775 12.730083,-1.283035 6.494845,-0.122775 6.495784,-0.04873 6.511716,0.361761 0.01687,0.409559 0.01874,0.462981 -5.442362,0.801313 -8.051546,0.49953 -15.227741,2.209933 -15.298968,2.226803 -0.0253,0.0047 -0.05155,0.0085 -0.07685,0.0085 z M 17.04384,64.82821 c -0.143391,0 -0.274601,-0.09371 -0.315838,-0.238051 -0.04967,-0.174321 0.05155,-0.356138 0.225867,-0.404874 0.07216,-0.02061 7.262417,-2.051546 14.398311,-2.82849 0.178071,-0.01781 0.342081,0.110588 0.361763,0.290534 0.01968,0.179944 -0.110588,0.342081 -0.290534,0.361762 -7.079663,0.771322 -14.218369,2.787253 -14.289596,2.806935 -0.02999,0.0085 -0.06092,0.01218 -0.08997,0.01218 z m 98.84161,24.295215 c -0.0459,0 -0.0928,-0.0092 -0.13683,-0.02997 -0.16401,-0.07596 -0.23618,-0.268983 -0.1612,-0.432995 0.0188,-0.0413 0.47329,-1.011239 1.71696,-1.581067 1.21837,-0.558575 1.60637,-0.488284 1.80881,-0.366447 0.12558,0.07591 0.20337,0.201499 0.21088,0.334583 0.009,0.18088 -0.13028,0.334585 -0.31116,0.343954 -0.10685,0.0023 -0.19681,-0.03752 -0.26054,-0.107774 -0.10777,0.0018 -0.42456,0.04779 -1.17527,0.391743 -1.01218,0.463928 -1.39081,1.251177 -1.39456,1.25867 -0.0543,0.119031 -0.17244,0.189317 -0.29709,0.189317 z m 28.46954,-0.751637 c -0.0778,0 -0.15464,-0.02723 -0.2165,-0.08157 -9.4e-4,-9.38e-4 -0.31302,-0.26149 -1.00937,-0.46673 -0.20993,-0.06189 -0.37864,-0.08717 -0.52859,-0.108678 -0.4461,-0.06658 -0.79006,-0.172443 -0.81911,-0.865038 -0.008,-0.180881 0.13214,-0.334583 0.31397,-0.342081 0.16587,-0.0094 0.33457,0.132146 0.34207,0.313964 0.008,0.164949 0.0309,0.206185 0.0319,0.20806 0.0168,0.0047 0.13402,0.02155 0.22869,0.03561 0.15369,0.02249 0.36363,0.05436 0.61668,0.129335 0.42267,0.124649 0.72914,0.268039 0.93345,0.384255 0.0244,-0.06749 0.046,-0.149014 0.0581,-0.244604 0.0656,-0.497664 0.2746,-0.916596 0.28303,-0.934403 0.0807,-0.1612 0.27742,-0.226804 0.43955,-0.146204 0.16214,0.0806 0.22774,0.27835 0.14715,0.440487 -0.002,0.0029 -0.1687,0.342081 -0.21931,0.726341 -0.0702,0.541707 -0.33927,0.825676 -0.36926,0.855671 -0.0637,0.06372 -0.14808,0.09564 -0.23243,0.09564 z M 38.391543,91.763537 c -0.101219,0 -0.200562,-0.0469 -0.26523,-0.134017 -0.106847,-0.1462 -0.07591,-0.351452 0.07029,-0.458299 0.05716,-0.04118 1.404874,-1.021547 3.102156,-1.40018 1.70103,-0.379571 2.336457,-0.0262 2.446111,0.04873 0.149953,0.102157 0.189315,0.305533 0.08716,0.455486 -0.102157,0.149952 -0.306467,0.189316 -0.455483,0.08717 l 0,0 c -9.37e-4,0 -0.507966,-0.268983 -1.935333,0.04873 -1.557637,0.3477 -2.843486,1.280223 -2.85567,1.289592 -0.05904,0.04221 -0.126522,0.0628 -0.194002,0.0628 z M 14.002604,91.38304 c -0.08528,0 -0.169635,-0.03283 -0.232428,-0.09655 -0.0403,-0.04027 -0.396438,-0.417059 -0.492971,-1.152761 -0.08903,-0.681352 -0.0038,-1.351458 0,-1.379566 0.02437,-0.179009 0.18463,-0.304594 0.368323,-0.283042 0.179007,0.02345 0.306466,0.188379 0.283036,0.367388 -9.36e-4,0.0057 -0.07779,0.615744 0,1.209937 0.03374,0.253985 0.106848,0.44329 0.173384,0.572628 0.350515,-0.189317 1.009371,-0.513588 1.807872,-0.748823 l 0.149953,-0.04404 c 1.056233,-0.309274 1.192128,-0.374881 1.221181,-1.045926 0.0075,-0.181812 0.179007,-0.327085 0.342081,-0.313964 0.180881,0.008 0.321461,0.161209 0.313964,0.342083 -0.04967,1.165883 -0.668228,1.347706 -1.691659,1.647611 l -0.149953,0.04404 c -1.081537,0.318643 -1.910966,0.827551 -1.9194,0.833168 -0.05342,0.03192 -0.113402,0.04782 -0.173383,0.04782 z M 6.9276275,86.594844 c -0.1808819,0 -0.3280234,-0.147141 -0.3280234,-0.328022 0,-0.180881 0.1462046,-0.328023 0.3280234,-0.328961 0.00847,0 0.1105881,0 0.5360817,-0.01218 -0.6860351,-0.0403 -1.0909085,-0.07122 -1.1002811,-0.07216 -0.1808808,-0.01406 -0.315839,-0.171508 -0.3027176,-0.352389 0.014059,-0.180882 0.1836927,-0.319588 0.3523901,-0.302719 0.026243,0.0018 2.6560452,0.200563 5.9896904,0.262419 1.707591,0.03186 1.925961,0.05061 1.928772,0.430178 0.0029,0.364574 0.0038,0.46298 -4.057169,0.60075 -2.9212752,0.102157 -3.3308343,0.103095 -3.3467665,0.103095 z m 36.7244595,5.168693 c -0.04124,0 -0.08247,-0.008 -0.121837,-0.02345 -0.122775,-0.04965 -0.204312,-0.167753 -0.206185,-0.300843 -9.38e-4,-0.0731 -0.10965,-7.404872 -1.625118,-11.215555 C 41.347495,79.34084 38.00354,71.59576 28.907945,71.59576 c -7.914713,0 -10.812558,3.766636 -12.453608,7.048734 -1.792877,3.584818 -1.256794,9.892222 -1.251171,9.955014 0.0076,0.08717 -0.01968,0.173381 -0.07498,0.239926 -0.05623,0.06658 -0.135895,0.108678 -0.223055,0.116217 C 7.9857337,89.566704 2.0607107,87.762587 1.1244409,87.105599 0.26408481,86.502038 0.01947373,85.528279 0.01010171,85.487043 -0.03301014,85.310847 0.0757064,85.133715 0.25190113,85.090604 c 0.17432055,-0.04312 0.35332705,0.06467 0.39643856,0.240862 l 0,0 c 0.001876,0.0076 0.20056232,0.778819 0.85379561,1.236176 0.615745,0.432053 6.1424547,2.29522 13.0234297,1.76008 -0.09091,-1.379574 -0.31209,-6.668233 1.343018,-9.977512 1.725398,-3.450796 4.766635,-7.411433 13.041237,-7.411433 7.235238,0 11.741329,4.870665 13.401123,9.041236 0.467666,1.175259 0.805061,2.646674 1.047798,4.138707 0.04873,-0.0094 0.104033,-0.0076 0.155576,0.0094 0.902531,0.282098 1.292408,0.778818 1.737582,2.213682 0.417057,1.343963 0.979382,2.614816 0.985005,2.627938 0.05436,0.122771 0.02906,0.267095 -0.06561,0.362697 l -2.283033,2.330808 c -0.06467,0.06658 -0.149017,0.100326 -0.236176,0.100326 z m -0.190253,-6.957821 c 0.340205,2.363636 0.459231,4.676666 0.499531,5.8463 L 45.54712,89.032525 C 45.368113,88.612652 44.956679,87.610781 44.623971,86.538612 44.233155,85.28088 43.950119,84.98566 43.461834,84.805716 Z M 2.9070088,86.197468 c -0.00937,0 -0.019681,0 -0.029991,-9.37e-4 -0.064668,-0.0056 -1.6073101,-0.149953 -2.49390801,-0.477975 -0.2914714,-0.107774 -0.41799426,-0.270854 -0.37488276,-0.484537 0.0524833,-0.261481 0.08809754,-0.448922 2.34770367,-0.357076 0.180881,0.0076 0.3214621,0.160263 0.3139643,0.341144 -0.00469,0.119962 -0.073102,0.222118 -0.1715089,0.275539 0.2596065,0.0328 0.4339269,0.04873 0.438613,0.04873 0.1799437,0.01687 0.3130272,0.176195 0.2970946,0.356139 -0.016869,0.171509 -0.1593252,0.298969 -0.3270852,0.298969 z M 1.5433724,84.026897 c -0.1340206,0 -0.2605436,-0.08247 -0.3083411,-0.216496 l -0.46016863,-1.26804 c -0.0618559,-0.170572 0.0262417,-0.358951 0.19681351,-0.419869 0.17244602,-0.06185 0.35895022,0.02624 0.42080592,0.196813 l 0.4601687,1.268042 c 0.061856,0.170571 -0.026242,0.35895 -0.1968135,0.419869 -0.038425,0.01312 -0.075914,0.01968 -0.1124653,0.01968 z M 133.42246,95.698869 c -0.10307,0 -0.20899,-9.38e-4 -0.3177,-0.0034 -0.18089,-0.0046 -0.32522,-0.154642 -0.32053,-0.335528 0.005,-0.180874 0.17244,-0.322395 0.33551,-0.320519 2.58389,0.06189 3.62606,-0.659799 3.63637,-0.667292 0.14714,-0.103987 0.35145,-0.07127 0.45736,0.07493 0.10593,0.1462 0.0749,0.348637 -0.0703,0.455485 -0.045,0.03375 -1.11434,0.796618 -3.72071,0.796618 z m 3.52672,-1.874415 c -0.15089,0 -0.28678,-0.105017 -0.31959,-0.258664 -0.0384,-0.177133 0.0731,-0.351452 0.25117,-0.389878 2.02624,-0.440488 2.88097,-1.529518 2.8894,-1.539837 0.10971,-0.143385 0.31491,-0.171504 0.45924,-0.06189 0.1434,0.109708 0.17245,0.313964 0.0637,0.4583 -0.0393,0.05251 -0.9925,1.289592 -3.27367,1.785379 -0.0244,0.0046 -0.0478,0.0069 -0.0702,0.0069 z m 2.12277,-2.441414 c -0.12089,0 -0.23805,-0.0675 -0.29522,-0.1837 -0.0796,-0.163074 -0.0132,-0.358945 0.14996,-0.43955 1.45454,-0.713211 2.40768,-2.131203 2.41705,-2.1462 0.10032,-0.150891 0.30365,-0.192131 0.45548,-0.09186 0.15089,0.100326 0.19213,0.303656 0.0919,0.454547 -0.0431,0.06372 -1.0628,1.581065 -2.67572,2.372067 -0.0459,0.02437 -0.0956,0.03466 -0.1434,0.03466 z M 121.95292,77.463636 c -0.10124,0 -0.20056,-0.04592 -0.26429,-0.133084 -0.10776,-0.146204 -0.0769,-0.351453 0.0693,-0.458294 0.061,-0.04498 1.50891,-1.103093 3.49016,-1.707591 0.17526,-0.05342 0.35708,0.04498 0.40956,0.218368 0.0525,0.173384 -0.045,0.357076 -0.21837,0.409561 -1.86972,0.569821 -3.27835,1.597 -3.29241,1.608247 -0.059,0.04124 -0.12652,0.06279 -0.194,0.06279 z m -2.04873,3.149953 c -0.0713,0 -0.14339,-0.02343 -0.20337,-0.07029 -0.14152,-0.112464 -0.16682,-0.31865 -0.0543,-0.461105 0.0543,-0.06841 1.34771,-1.693533 3.18276,-2.525773 0.16307,-0.07498 0.35895,-0.0018 0.43392,0.163074 0.0749,0.164948 0.002,0.359887 -0.16307,0.433927 -1.68604,0.764761 -2.92596,2.31865 -2.93814,2.334582 -0.0646,0.08248 -0.16026,0.125587 -0.25774,0.125587 z m -0.90721,3.373944 c -0.0272,0 -0.0543,-0.0038 -0.0825,-0.01029 -0.17526,-0.04592 -0.28023,-0.223993 -0.23523,-0.399251 0.0206,-0.08061 0.53139,-1.989691 2.62792,-3.170572 0.15933,-0.08997 0.35895,-0.0328 0.44705,0.124649 0.089,0.157451 0.0328,0.358013 -0.12465,0.447048 -1.84255,1.038425 -2.30928,2.74508 -2.31397,2.762887 -0.0403,0.147141 -0.17338,0.245547 -0.31864,0.245547 z m 12.30365,1.02624 a 0.61387062,0.61387062 0 0 1 -0.61387,0.61387 0.61387062,0.61387062 0 0 1 -0.61387,-0.61387 0.61387062,0.61387062 0 0 1 0.61387,-0.613871 0.61387062,0.61387062 0 0 1 0.61387,0.613871 z m 6.11808,1.183695 c -0.36363,0 -0.80974,-0.02718 -1.32802,-0.07967 -2.50515,-0.256795 -3.21743,-0.823805 -3.29053,-0.887535 -0.0947,-0.08247 -0.13309,-0.211809 -0.10032,-0.333646 l 0,0 c -9.4e-4,0 0.0215,-0.131208 -0.009,-0.434864 -0.0403,-0.387066 -0.21182,-0.546391 -0.21838,-0.552952 -0.11809,-0.107774 -0.14527,-0.287722 -0.0599,-0.42268 0.0862,-0.134021 0.25305,-0.191191 0.40018,-0.129335 0.5239,0.218369 1.10028,0.329897 1.71602,0.329897 1.82756,0 3.40582,-0.970946 3.42175,-0.981256 0.074,-0.04686 0.16401,-0.06092 0.24929,-0.04124 0.0853,0.02061 0.15934,0.07404 0.20432,0.149015 0.0262,0.04312 0.25867,0.444237 0.39269,1.276476 0.11996,0.73852 0.0309,1.371135 0.005,1.534209 -0.002,0.08435 -0.0337,0.169634 -0.0881,0.243673 -0.17339,0.227742 -0.5717,0.329897 -1.29429,0.329897 z m -4.05529,-1.384254 c 0.28211,0.149015 1.07029,0.474227 2.79476,0.651359 0.49577,0.05061 0.92034,0.07685 1.26053,0.07685 0.44893,0 0.65511,-0.04499 0.74134,-0.0731 0.0262,-0.181819 0.0816,-0.694471 -0.0121,-1.273665 -0.0534,-0.328023 -0.12278,-0.575445 -0.18276,-0.746954 -0.59607,0.309279 -1.92409,0.89597 -3.43861,0.89597 -0.41987,0 -0.82475,-0.04592 -1.21181,-0.136832 0.0114,0.05904 0.0215,0.1209 0.0281,0.187441 0.0197,0.177132 0.0234,0.314901 0.0206,0.418932 z m 3.19119,5.605431 c -0.11528,0 -0.23242,-0.02437 -0.35894,-0.0731 -0.0993,-0.03844 -0.23056,-0.08053 -0.38239,-0.129337 -0.72727,-0.23336 -1.94376,-0.624176 -2.72446,-1.550133 -0.99062,-1.175263 -0.40769,-2.909094 -0.38332,-2.982197 0.0291,-0.08341 0.0909,-0.152764 0.17058,-0.190252 0.0796,-0.03749 0.1715,-0.04124 0.25491,-0.0103 1.99063,0.749766 4.95877,0.772259 5.2896,0.772259 l 0.045,0 c 9.4e-4,0 0.002,0 0.002,0 0.10033,0 0.19495,0.04592 0.25774,0.124648 0.0628,0.07967 0.0853,0.18463 0.061,0.283036 -0.009,0.03749 -0.23805,0.936263 -0.81724,2.093714 l -0.0787,0.157457 c -0.46673,0.93814 -0.74976,1.504213 -1.33646,1.504213 z m -3.30928,-4.199621 c -0.0975,0.478913 -0.1865,1.392695 0.34584,2.024364 0.65885,0.782571 1.72071,1.122777 2.42267,1.348644 0.16683,0.05342 0.31023,0.0993 0.41988,0.142459 0.0478,0.01876 0.09,0.02814 0.12089,0.02814 0.18089,0 0.433,-0.503281 0.75164,-1.140578 l 0.0787,-0.158383 c 0.3196,-0.639173 0.52859,-1.199628 0.64574,-1.555766 -0.94376,-0.02155 -3.07872,-0.134022 -4.78538,-0.688847 z m -0.92783,6.940014 c -0.14339,0 -0.27273,-0.09461 -0.3149,-0.236173 -0.006,-0.01968 -0.58294,-1.997187 -0.95877,-3.732895 -0.40299,-1.862231 -0.32989,-1.997188 -0.27648,-2.095594 0.0403,-0.07404 0.10685,-0.130273 0.18746,-0.156514 0.0225,-0.0076 0.22867,-0.07216 0.50514,-0.07216 0.64949,0 1.14247,0.341143 1.38613,0.961567 0.43768,1.110594 0.79288,1.745088 1.18745,2.121845 0.52389,0.500467 0.85661,1.526704 0.89316,1.641982 0.0168,0.05434 0.0197,0.111538 0.008,0.166826 -0.0365,0.168691 -0.3299,1.02999 -2.5642,1.396439 -0.0168,0.0023 -0.0347,0.0046 -0.0525,0.0046 z m -0.91847,-5.635416 c 0.0291,0.230545 0.10399,0.678537 0.28773,1.527641 0.28585,1.326154 0.69353,2.797569 0.86505,3.402995 1.22117,-0.244605 1.60261,-0.633545 1.70946,-0.78725 -0.11715,-0.331775 -0.38145,-0.958765 -0.67947,-1.243672 -0.47424,-0.452671 -0.86412,-1.135899 -1.3449,-2.356143 -0.14433,-0.367376 -0.39832,-0.545447 -0.77601,-0.545447 -0.0215,9.38e-4 -0.0422,9.38e-4 -0.0619,0.0023 z m -0.48734,5.82193 c 0,0 0,0 0,0 -0.26148,0 -0.62887,-0.008 -1.14245,-0.02814 -1.55202,-0.06463 -2.32334,-0.323344 -2.35521,-0.33459 -0.13402,-0.04587 -0.22305,-0.172443 -0.22211,-0.313964 0,-9.38e-4 0.0114,-1.07497 0,-2.181812 -0.0103,-1.087166 0.46204,-1.966265 1.32989,-2.474224 0.65511,-0.384262 1.80413,-0.912844 1.85286,-0.9344 0.0965,-0.04406 0.20712,-0.03937 0.29897,0.01312 0.0919,0.05249 0.15277,0.145267 0.16495,0.250234 l 0.17432,1.616678 c 0.16963,1.572634 0.82286,3.918469 0.82943,3.941898 0.0487,0.173381 -0.0525,0.354266 -0.22587,0.403938 -0.11715,0.03375 -0.44798,0.0413 -0.70478,0.0413 z m -3.06092,-0.924092 c 0.3149,0.07493 0.96251,0.198686 1.94565,0.238988 0.5014,0.02059 0.85941,0.02814 1.11527,0.02814 l 0,0 c 0.074,0 0.13777,-9.38e-4 0.19401,-0.0023 -0.19682,-0.746959 -0.61013,-2.409555 -0.74509,-3.658856 l -0.12464,-1.159328 c -0.39739,0.189317 -0.99157,0.481728 -1.38145,0.710409 -0.46485,0.271786 -1.01594,0.822861 -1.00562,1.901584 0.008,0.786323 0.005,1.55671 0.002,1.94096 z m -2.59981,-0.913773 c -0.091,0 -0.17901,-0.03844 -0.24181,-0.105932 l -1.80787,-1.966265 c -0.0675,-0.0731 -0.0975,-0.171505 -0.0834,-0.268971 0.0141,-0.09747 0.0722,-0.1837 0.15651,-0.234309 l 5.10122,-3.047792 c 0.0928,-0.0553 0.20712,-0.06185 0.30552,-0.01593 0.0975,0.04499 0.16683,0.134021 0.18558,0.239926 0,-9.38e-4 0,-9.38e-4 0,-9.38e-4 0.006,0 0.0731,0.132146 0.33458,0.353327 0.36363,0.308341 0.70384,0.453609 0.70759,0.455483 0.11337,0.04779 0.19119,0.155576 0.19963,0.27835 0.009,0.122774 -0.0516,0.24087 -0.15746,0.30459 -0.015,0.0092 -1.52109,0.921277 -2.72821,1.850048 -1.16025,0.89222 -1.67104,1.959698 -1.67666,1.970955 -0.0469,0.0993 -0.13964,0.167752 -0.24743,0.184626 -0.015,0.0023 -0.0309,0.0023 -0.0478,0.0023 z m -1.29335,-2.219312 1.22962,1.337399 c 0.27553,-0.43955 0.80412,-1.157452 1.63636,-1.797563 0.82475,-0.635432 1.76289,-1.247425 2.31397,-1.597003 -0.11246,-0.07498 -0.23524,-0.164949 -0.35989,-0.270853 -0.1537,-0.129335 -0.26523,-0.245549 -0.34583,-0.344893 l -4.47423,2.672913 z m -1.27928,-0.308336 c -0.11622,0 -0.22868,-0.06189 -0.28866,-0.170578 -0.0872,-0.159321 -0.0281,-0.358945 0.1312,-0.445166 l 5.1537,-2.8135 c -0.64291,-0.640112 -1.582,-1.442362 -2.08059,-1.529522 -0.59419,-0.104033 -2.46767,0.436739 -3.50422,0.803187 -0.17057,0.05998 -0.35895,-0.02906 -0.41893,-0.199626 -0.06,-0.170571 0.0291,-0.35895 0.19962,-0.418931 0.29054,-0.103095 2.87161,-1.000937 3.83505,-0.830365 0.98969,0.172446 2.56702,1.844423 2.74415,2.033739 0.0684,0.07404 0.0993,0.176195 0.0834,0.276476 -0.0159,0.09934 -0.0778,0.186504 -0.16682,0.235239 l -5.53233,3.019683 c -0.0487,0.0262 -0.10308,0.03935 -0.15557,0.03935 z m 6.47704,-4.953142 c -0.0796,0 -0.15934,-0.02906 -0.22213,-0.08622 l -4.80786,-4.418932 c -0.13309,-0.122774 -0.14152,-0.329897 -0.0197,-0.463917 0.12277,-0.133083 0.3299,-0.141519 0.46392,-0.01969 l 4.80787,4.418932 c 0.13308,0.122775 0.14152,0.329897 0.0197,0.463917 -0.0646,0.07029 -0.15369,0.10591 -0.24179,0.10591 z m -0.42175,1.71134 c -0.12465,0 -0.24367,-0.07216 -0.29897,-0.193065 -0.003,-0.0065 -0.47985,-0.97657 -2.42643,-2.058107 -1.99625,-1.109653 -3.41143,-1.252108 -3.42549,-1.253045 -0.17994,-0.01687 -0.31303,-0.176195 -0.29616,-0.356139 0.0159,-0.180881 0.17338,-0.314901 0.35521,-0.297095 0.0628,0.0056 1.55576,0.149953 3.6851,1.332708 2.16307,1.202437 2.68415,2.313965 2.7057,2.360825 0.0749,0.164949 9.4e-4,0.359888 -0.16401,0.433927 -0.0431,0.02062 -0.089,0.02999 -0.13495,0.02999 z m 4.45361,-2.235239 c -0.8388,0 -1.32802,-0.208997 -1.34771,-0.21837 -0.0825,-0.03655 -0.14714,-0.104971 -0.17807,-0.190252 -0.0309,-0.08528 -0.0244,-0.179007 0.0169,-0.259607 l 2.44143,-4.771321 c 0.0413,-0.0806 0.1144,-0.140582 0.20244,-0.165886 0.0872,-0.02437 0.18087,-0.01218 0.25866,0.03374 0.0534,0.03186 1.32803,0.799437 1.91472,1.409559 0.72165,0.749765 1.02623,1.420806 1.03842,1.448921 0.044,0.0984 0.0375,0.210873 -0.0188,0.303656 -0.0431,0.07122 -1.07217,1.75164 -2.83131,2.208997 -0.51171,0.133083 -1.01593,0.200563 -1.49672,0.200563 z M 132.44496,82.7776 c 0.18182,0.03655 0.43206,0.06935 0.74227,0.06935 0.42455,0 0.87254,-0.06092 1.33271,-0.179944 1.22024,-0.317713 2.0581,-1.37207 2.33458,-1.763823 -0.12278,-0.220244 -0.38988,-0.647611 -0.83131,-1.106842 -0.3655,-0.380506 -1.07685,-0.857545 -1.48078,-1.115277 l -2.09747,4.096533 z m -1.07966,0.655108 c -0.0478,0 -0.0956,-0.0103 -0.14152,-0.03187 -0.16401,-0.07873 -0.23242,-0.274603 -0.15371,-0.437676 l 2.70385,-5.638238 c 0.0778,-0.163073 0.27367,-0.232427 0.43768,-0.153702 0.16401,0.07873 0.23242,0.274602 0.15463,0.437676 l -2.70384,5.638237 c -0.0581,0.117151 -0.17526,0.185568 -0.29709,0.185568 z m -1.582,0.09653 c -0.0525,0 -0.10594,-0.01218 -0.15559,-0.03843 -0.15932,-0.08528 -0.2193,-0.28491 -0.13401,-0.444235 0.008,-0.01594 0.82943,-1.567011 1.04217,-3.319587 0.21556,-1.791004 0.19213,-3.011248 0.19119,-3.023431 -0.003,-0.180881 0.13965,-0.331771 0.32052,-0.33552 0.002,0 0.005,0 0.008,0 0.17806,0 0.32427,0.142456 0.32801,0.320525 9.4e-4,0.05155 0.0253,1.275539 -0.19681,3.11715 -0.2268,1.879101 -1.07872,3.4836 -1.11433,3.551078 -0.059,0.10965 -0.17246,0.172446 -0.28866,0.172446 z m -0.84818,-0.33552 c -0.0281,0 -0.0563,-0.0038 -0.0843,-0.01121 -0.17526,-0.04686 -0.27929,-0.225867 -0.23244,-0.401124 0.62044,-2.333647 -0.14338,-3.11434 -0.15089,-3.1209 -0.0159,-0.015 -0.0309,-0.03187 -0.044,-0.04873 l -1.51266,-2.07685 c -0.10684,-0.146205 -0.074,-0.351454 0.0722,-0.458295 0.14621,-0.106848 0.35239,-0.07404 0.4583,0.07216 l 1.4986,2.059044 c 0.17431,0.187441 0.98219,1.223055 0.31208,3.743205 -0.0384,0.145267 -0.1715,0.242737 -0.31678,0.242737 z m 0.11809,0.118088 c -0.0863,0 -0.17058,-0.03374 -0.23243,-0.09653 l -4.18651,-4.199625 c -0.12746,-0.128397 -0.12746,-0.336457 9.4e-4,-0.463917 0.1284,-0.12746 0.33646,-0.12746 0.46392,9.38e-4 l 3.8538,3.865041 0.75351,-1.632615 c 0.006,-0.01218 0.30366,-0.648547 0.007,-1.216494 -0.36645,-0.702905 -1.56326,-2.434864 -1.57544,-2.452671 -0.10307,-0.149016 -0.0656,-0.353327 0.0834,-0.45642 0.14901,-0.104033 0.35332,-0.06561 0.45642,0.08341 0.0496,0.07216 1.23149,1.783504 1.61761,2.522024 0.45174,0.865979 0.0225,1.764761 0.003,1.802249 l -0.94846,2.053421 c -0.045,0.09747 -0.13496,0.166823 -0.24087,0.185567 -0.0178,0.0047 -0.0365,0.0056 -0.0562,0.0056 z m 1.63355,3.997188 c -1.28304,0 -2.32708,-1.044049 -2.32708,-2.327084 0,-1.283037 1.04404,-2.327086 2.32708,-2.327086 1.28304,0 2.32709,1.044049 2.32709,2.327086 0,1.283035 -1.04405,2.327084 -2.32709,2.327084 z m 0,-3.997188 c -0.92128,0 -1.6701,0.748828 -1.6701,1.670104 0,0.921274 0.74976,1.670102 1.6701,1.670102 0.92128,0 1.6701,-0.748828 1.6701,-1.670102 0,-0.920339 -0.74976,-1.670104 -1.6701,-1.670104 z m 0,3.283037 c -0.88941,0 -1.61294,-0.723525 -1.61294,-1.611996 0,-0.88941 0.72353,-1.611997 1.61294,-1.611997 0.88847,0 1.612,0.723524 1.612,1.611997 0,0.888471 -0.72353,1.611996 -1.612,1.611996 z m 0,-2.567948 c -0.52765,0 -0.95595,0.429241 -0.95595,0.955952 0,0.527647 0.42924,0.955951 0.95595,0.955951 0.52671,0 0.95595,-0.429241 0.95595,-0.955951 0,-0.527649 -0.42924,-0.955952 -0.95595,-0.955952 z m 8.38425,-1.960637 c -0.1312,0 -0.25492,-0.07873 -0.30553,-0.208998 -1.35426,-3.462042 -4.63073,-5.699155 -8.34864,-5.699155 -0.60824,0 -1.21649,0.06092 -1.80599,0.181817 -0.17807,0.03561 -0.35146,-0.07873 -0.38707,-0.255856 -0.0365,-0.177132 0.0778,-0.351454 0.25585,-0.387067 0.63356,-0.129335 1.28492,-0.194939 1.93815,-0.194939 3.98969,0 7.50703,2.401124 8.9597,6.116213 0.0666,0.168697 -0.0168,0.35895 -0.18557,0.424555 -0.0403,0.01687 -0.0807,0.02343 -0.1209,0.02343 z m -8.65417,12.671041 c -0.77319,0 -1.5417,-0.09186 -2.28397,-0.272723 -0.17619,-0.04313 -0.28397,-0.22025 -0.24086,-0.396445 0.0431,-0.176195 0.22305,-0.283031 0.39644,-0.240864 0.6926,0.168702 1.40862,0.253985 2.12839,0.253985 3.19588,0 6.17338,-1.721648 7.77038,-4.493912 0.0909,-0.157445 0.29148,-0.210869 0.448,-0.120895 0.15744,0.09095 0.21086,0.291473 0.12089,0.447981 -1.71415,2.974701 -4.90908,4.822873 -8.33927,4.822873 z m 0.0637,-0.676661 c -4.88284,0 -8.8566,-3.97282 -8.8566,-8.856611 0,-4.883786 3.97282,-8.856607 8.8566,-8.856607 4.88285,0 8.85661,3.972821 8.85661,8.856607 0,4.883791 -3.97376,8.856611 -8.85661,8.856611 z m 0,-17.056235 c -4.52108,0 -8.19963,3.678537 -8.19963,8.199624 0,4.521082 3.67855,8.199626 8.19963,8.199626 4.52109,0 8.19963,-3.678544 8.19963,-8.199626 0,-4.521087 -3.67854,-8.199624 -8.19963,-8.199624 z m 0.10868,19.969071 c -6.61481,0 -11.99532,-5.381443 -11.99532,-11.995313 0,-6.613871 5.38145,-11.995314 11.99532,-11.995314 6.61387,0 11.99531,5.381443 11.99531,11.995314 0,6.61387 -5.3805,11.995313 -11.99531,11.995313 z m 0,-23.334582 c -6.25305,0 -11.33928,5.086222 -11.33928,11.339269 0,6.252111 5.08623,11.339266 11.33928,11.339266 6.25303,0 11.33926,-5.086217 11.33926,-11.339266 0,-6.252109 -5.08623,-11.339269 -11.33926,-11.339269 z M 31.469332,95.698869 c -0.103096,0 -0.208997,-9.38e-4 -0.317713,-0.0034 -0.180881,-0.0046 -0.325211,-0.154642 -0.320525,-0.335528 0.0047,-0.180874 0.154639,-0.322395 0.33552,-0.320519 2.580131,0.0628 3.626992,-0.659799 3.6373,-0.667292 0.147142,-0.103987 0.351453,-0.07127 0.457358,0.07493 0.105898,0.1462 0.07498,0.348637 -0.07029,0.455485 -0.04592,0.03375 -1.115276,0.796618 -3.72165,0.796618 z m 3.526711,-1.874415 c -0.150891,0 -0.286786,-0.105017 -0.319588,-0.258664 -0.03843,-0.177133 0.0731,-0.351452 0.251171,-0.389878 2.026242,-0.440488 2.880975,-1.529518 2.889409,-1.539837 0.10965,-0.143385 0.314902,-0.171504 0.459232,-0.06189 0.143393,0.109708 0.172446,0.313964 0.06373,0.4583 -0.03936,0.05251 -0.992502,1.289592 -3.273664,1.785379 -0.02437,0.0046 -0.0478,0.0069 -0.07029,0.0069 z m 2.122773,-2.441414 c -0.120899,0 -0.23805,-0.0675 -0.29522,-0.1837 -0.07967,-0.163074 -0.01312,-0.358945 0.149953,-0.43955 1.448922,-0.711335 2.407685,-2.132141 2.417057,-2.1462 0.100281,-0.149952 0.304593,-0.192131 0.454545,-0.09095 0.15089,0.100326 0.192127,0.303657 0.09185,0.454547 -0.0431,0.06372 -1.062793,1.581065 -2.674789,2.372067 -0.04592,0.02345 -0.09559,0.03375 -0.143393,0.03375 z M 19.999792,77.463636 c -0.101219,0 -0.200563,-0.04592 -0.264292,-0.133084 -0.107774,-0.146204 -0.07685,-0.351453 0.06935,-0.459231 0.06092,-0.04499 1.508904,-1.103093 3.490159,-1.707591 0.17432,-0.05342 0.357076,0.04498 0.409559,0.218369 0.05249,0.173383 -0.04498,0.357075 -0.218369,0.409559 -1.874413,0.571697 -3.27835,1.597001 -3.29147,1.60731 -0.05904,0.04406 -0.127461,0.06467 -0.19494,0.06467 z m -2.047798,3.149953 c -0.07122,0 -0.143393,-0.02343 -0.203374,-0.07029 -0.141517,-0.112464 -0.166822,-0.31865 -0.05436,-0.461105 0.05436,-0.06841 1.347703,-1.693533 3.182755,-2.525773 0.164012,-0.07498 0.358951,-0.0018 0.433927,0.163074 0.07498,0.164948 0.0018,0.359887 -0.163074,0.433927 -1.686035,0.764761 -2.92596,2.31865 -2.938144,2.334582 -0.06561,0.08248 -0.1612,0.125587 -0.257732,0.125587 z m -0.908154,3.373944 c -0.02718,0 -0.05436,-0.0029 -0.08247,-0.01029 -0.175258,-0.04498 -0.281162,-0.223993 -0.236176,-0.399251 0.02061,-0.08061 0.531396,-1.989691 2.626992,-3.170572 0.159324,-0.08904 0.358949,-0.0328 0.447047,0.124649 0.08903,0.157451 0.03374,0.358013 -0.124649,0.447048 -1.853795,1.044986 -2.309278,2.744143 -2.313026,2.761949 -0.03843,0.148079 -0.17151,0.246485 -0.317714,0.246485 z m 12.303657,1.02624 a 0.61387062,0.61387062 0 0 1 -0.613871,0.61387 0.61387062,0.61387062 0 0 1 -0.613871,-0.61387 0.61387062,0.61387062 0 0 1 0.613871,-0.613871 0.61387062,0.61387062 0 0 1 0.613871,0.613871 z m 6.118086,1.183695 c -0.362699,0 -0.809747,-0.02718 -1.327085,-0.07967 -2.505155,-0.256795 -3.217433,-0.823805 -3.290535,-0.887535 -0.09465,-0.08247 -0.133083,-0.211809 -0.100281,-0.333646 l 0,0 c -9.37e-4,0 0.02155,-0.131208 -0.0094,-0.434864 -0.0403,-0.387066 -0.21181,-0.546391 -0.21837,-0.552952 -0.118088,-0.107774 -0.145267,-0.287722 -0.05998,-0.42268 0.08622,-0.134021 0.253046,-0.191191 0.400188,-0.129335 0.523898,0.218369 1.100281,0.329897 1.716025,0.329897 1.820057,0 3.405812,-0.970946 3.421744,-0.981256 0.07404,-0.04592 0.16401,-0.06092 0.249297,-0.0403 0.08528,0.02061 0.159325,0.07404 0.204311,0.149015 0.02624,0.04312 0.259607,0.444237 0.393627,1.276477 0.119963,0.738519 0.03092,1.371134 0.0047,1.534208 -0.0029,0.08434 -0.03374,0.170572 -0.0881,0.243673 -0.175257,0.226805 -0.574507,0.328961 -1.296157,0.328961 z m -4.055295,-1.384254 c 0.282099,0.149015 1.07029,0.474227 2.794752,0.651359 0.495781,0.05061 0.920337,0.07685 1.260543,0.07685 0.449859,0 0.656044,-0.04499 0.741331,-0.0731 0.02624,-0.182756 0.08153,-0.694471 -0.01218,-1.273665 -0.05342,-0.328023 -0.122774,-0.576382 -0.182755,-0.746954 -0.595127,0.309279 -1.924086,0.89597 -3.437675,0.89597 -0.41987,0 -0.824744,-0.04592 -1.21181,-0.136832 0.01121,0.05904 0.02155,0.1209 0.02812,0.187441 0.01874,0.177132 0.02249,0.314901 0.01968,0.418932 z m 3.191189,5.605431 c -0.115276,0 -0.232427,-0.02437 -0.358949,-0.0731 -0.100281,-0.03935 -0.230554,-0.08053 -0.383318,-0.129337 -0.727273,-0.23336 -1.94283,-0.624176 -2.723523,-1.550133 -0.990629,-1.175263 -0.407686,-2.909094 -0.383319,-2.982197 0.02906,-0.08341 0.09091,-0.152764 0.170572,-0.190252 0.07967,-0.03749 0.171509,-0.04124 0.25492,-0.0103 1.990628,0.749766 4.958764,0.772259 5.289597,0.772259 l 0.04498,0 c 0.102157,-0.0018 0.19775,0.04498 0.260542,0.124648 0.06279,0.07967 0.08528,0.18463 0.06092,0.283036 -0.0094,0.03749 -0.237113,0.936263 -0.818181,2.093714 l -0.07873,0.156519 c -0.464854,0.939078 -0.747891,1.505151 -1.33552,1.505151 z m -3.308341,-4.199621 c -0.09747,0.478913 -0.186503,1.392695 0.34583,2.024364 0.658856,0.781633 1.720713,1.122777 2.422681,1.348644 0.166822,0.05342 0.310215,0.100326 0.419869,0.142459 0.0478,0.01876 0.08903,0.02814 0.1209,0.02814 0.181817,0 0.432988,-0.503281 0.751639,-1.141516 l 0.07873,-0.157445 c 0.320524,-0.639173 0.528585,-1.199628 0.646673,-1.555766 -0.945642,-0.02155 -3.0806,-0.134022 -4.786317,-0.688847 z m -0.928771,6.940014 c -0.143393,0 -0.272727,-0.09461 -0.314902,-0.236173 -0.0056,-0.01968 -0.582943,-1.997187 -0.958763,-3.732895 -0.402999,-1.862231 -0.329897,-1.997188 -0.276476,-2.095594 0.0403,-0.07404 0.106848,-0.130273 0.187442,-0.156514 0.02249,-0.0076 0.228678,-0.07216 0.505154,-0.07216 0.649485,0 1.142455,0.341143 1.387067,0.961567 0.436739,1.109656 0.79194,1.74415 1.187442,2.121845 0.523898,0.500467 0.856606,1.526704 0.893157,1.641982 0.01687,0.05434 0.01968,0.111538 0.0076,0.166826 -0.03655,0.168691 -0.329896,1.02999 -2.564197,1.396439 -0.01781,0.0023 -0.03561,0.0046 -0.05342,0.0046 z m -0.919401,-5.635416 c 0.02906,0.230545 0.104033,0.677599 0.287723,1.526703 0.286785,1.326154 0.693534,2.797569 0.86598,3.402995 1.221181,-0.244605 1.602623,-0.633545 1.709465,-0.78725 -0.117151,-0.331775 -0.381443,-0.958765 -0.679474,-1.243672 -0.475165,-0.453609 -0.865043,-1.136837 -1.344893,-2.356143 -0.14433,-0.367376 -0.398313,-0.545448 -0.776008,-0.545448 -0.02155,0.0023 -0.04218,0.0023 -0.06279,0.0023 z m -0.48641,5.82193 c 0,0 0,0 0,0 -0.261481,0 -0.628866,-0.008 -1.142455,-0.02814 -1.552015,-0.06463 -2.323337,-0.323344 -2.355201,-0.33459 -0.134022,-0.04587 -0.223056,-0.172443 -0.222119,-0.313964 0,-9.38e-4 0.01121,-1.07497 0,-2.181812 -0.0103,-1.087166 0.462044,-1.965327 1.329898,-2.474224 0.656044,-0.384262 1.804123,-0.912844 1.852857,-0.9344 0.09559,-0.04406 0.207123,-0.03937 0.298969,0.01312 0.09185,0.05249 0.152765,0.145267 0.164949,0.250234 l 0.174321,1.616678 c 0.169634,1.572634 0.822867,3.918469 0.829428,3.941898 0.04873,0.173381 -0.05249,0.354266 -0.225867,0.403938 -0.117151,0.03375 -0.447985,0.0413 -0.70478,0.0413 z M 25.897635,92.42146 c 0.314903,0.07493 0.962513,0.198686 1.945643,0.238988 0.501405,0.02059 0.859419,0.02814 1.115276,0.02814 l 0,0 c 0.07404,0 0.137769,-9.38e-4 0.194002,-0.0023 -0.196814,-0.746959 -0.610122,-2.409555 -0.74508,-3.658856 L 28.28189,87.868104 c -0.396438,0.189317 -0.990627,0.481728 -1.381442,0.710409 -0.463918,0.271786 -1.014996,0.822861 -1.004686,1.901584 0.0075,0.786323 0.0047,1.55671 0.0018,1.94096 z m -2.599811,-0.913773 c -0.09091,0 -0.179007,-0.03752 -0.2418,-0.105932 L 21.248152,89.43549 c -0.06748,-0.0731 -0.09747,-0.171505 -0.08341,-0.268971 0.01406,-0.09747 0.07216,-0.1837 0.156515,-0.234309 l 5.101217,-3.047792 c 0.09279,-0.0553 0.207123,-0.06185 0.30553,-0.01593 0.09747,0.04499 0.166822,0.134021 0.185566,0.239926 0,-9.38e-4 0,-9.38e-4 0,-9.38e-4 0.0047,0 0.0731,0.132146 0.334583,0.353327 0.363637,0.308341 0.704781,0.453609 0.707593,0.455483 0.113402,0.04779 0.19119,0.155576 0.199624,0.27835 0.0094,0.122774 -0.05155,0.24087 -0.157451,0.30459 -0.015,0.0092 -1.521086,0.921277 -2.729147,1.850048 -1.152764,0.886604 -1.67104,1.960636 -1.676663,1.970955 -0.04686,0.09838 -0.139644,0.167752 -0.247422,0.183688 -0.01406,0.0023 -0.03,0.0034 -0.04686,0.0034 z m -1.292409,-2.219312 1.229616,1.337399 c 0.275539,-0.43955 0.804123,-1.157452 1.636363,-1.796625 0.82568,-0.635432 1.762886,-1.248363 2.314901,-1.597004 -0.112464,-0.07498 -0.235238,-0.164949 -0.360825,-0.270854 -0.153701,-0.130271 -0.264291,-0.245547 -0.345829,-0.345829 l -4.474226,2.672913 z M 20.72519,88.980039 c -0.116214,0 -0.228678,-0.06189 -0.28866,-0.170578 -0.08716,-0.159321 -0.02812,-0.358945 0.131209,-0.445166 l 5.153701,-2.8135 c -0.642923,-0.640112 -1.582004,-1.442362 -2.080599,-1.529522 -0.597937,-0.104971 -2.467665,0.436739 -3.504217,0.803187 -0.171509,0.05998 -0.358951,-0.02906 -0.418932,-0.199626 -0.05998,-0.170571 0.02906,-0.35895 0.199625,-0.418931 0.290534,-0.103095 2.86598,-1 3.835051,-0.830365 0.989691,0.172446 2.567011,1.844423 2.744143,2.033739 0.06842,0.07404 0.09934,0.176195 0.08341,0.276476 -0.01593,0.09934 -0.07779,0.186504 -0.166823,0.235239 l -5.532333,3.019683 c -0.04873,0.0262 -0.102157,0.03935 -0.155576,0.03935 z m 6.477038,-4.953142 c -0.07967,0 -0.159325,-0.02906 -0.222118,-0.08622 l -4.807872,-4.41987 c -0.133083,-0.122774 -0.141518,-0.329897 -0.01968,-0.463917 0.122774,-0.133084 0.329897,-0.141519 0.463918,-0.01969 l 4.807872,4.418932 c 0.133083,0.122774 0.141518,0.329897 0.01969,0.463917 -0.06467,0.07122 -0.153702,0.106848 -0.241799,0.106848 z m -0.420806,1.71134 c -0.124648,0 -0.243674,-0.07216 -0.298969,-0.193065 -0.0038,-0.0065 -0.47985,-0.97657 -2.426429,-2.058107 -1.996252,-1.109653 -3.411434,-1.252108 -3.425492,-1.253045 -0.179944,-0.01687 -0.313027,-0.176195 -0.296157,-0.356139 0.01594,-0.180881 0.179006,-0.314901 0.355201,-0.297095 0.06279,0.0056 1.555764,0.149953 3.685098,1.332708 2.163074,1.202437 2.684162,2.313965 2.705718,2.360825 0.07498,0.164949 9.36e-4,0.359888 -0.164012,0.433927 -0.04406,0.02062 -0.08997,0.02999 -0.134958,0.02999 z m 4.45267,-2.235239 c -0.8388,0 -1.327084,-0.208997 -1.347703,-0.21837 -0.08247,-0.03655 -0.147142,-0.104971 -0.178069,-0.190252 -0.03093,-0.08528 -0.02437,-0.179007 0.01687,-0.259607 l 2.441425,-4.771321 c 0.04124,-0.0806 0.11434,-0.140582 0.202436,-0.165886 0.08622,-0.02437 0.180881,-0.01218 0.258669,0.03374 0.05342,0.03186 1.328023,0.799437 1.914714,1.409559 0.721649,0.749765 1.026242,1.420806 1.038426,1.448921 0.04406,0.0984 0.03749,0.210873 -0.01875,0.303656 -0.04312,0.07122 -1.072165,1.75164 -2.831303,2.208997 -0.511715,0.133083 -1.015932,0.200563 -1.49672,0.200563 z M 30.491825,82.7776 c 0.181818,0.03655 0.432052,0.06935 0.742267,0.06935 0.424556,0 0.873478,-0.06092 1.33271,-0.179944 1.220243,-0.317713 2.058106,-1.37207 2.334582,-1.763823 -0.122773,-0.220244 -0.389878,-0.647611 -0.831303,-1.106842 -0.36551,-0.380506 -1.076851,-0.857545 -1.480786,-1.115277 l -2.09747,4.096533 z m -1.0806,0.655108 c -0.0478,0 -0.09559,-0.0103 -0.141518,-0.03187 -0.164011,-0.07873 -0.232428,-0.274603 -0.153702,-0.437676 l 2.703843,-5.638238 c 0.07779,-0.163073 0.273664,-0.232427 0.437674,-0.153702 0.164012,0.07873 0.232429,0.274602 0.153703,0.437676 l -2.703842,5.638237 c -0.05624,0.117151 -0.173384,0.185568 -0.296158,0.185568 z m -1.581069,0.09653 c -0.05249,0 -0.105909,-0.01218 -0.155576,-0.03843 -0.159325,-0.08528 -0.219306,-0.28491 -0.13402,-0.444235 0.0085,-0.01594 0.829428,-1.567011 1.042174,-3.319587 0.215558,-1.791004 0.192127,-3.011248 0.19119,-3.023431 -0.0038,-0.180881 0.139644,-0.331771 0.320525,-0.33552 0.0029,0 0.0047,0 0.0075,0 0.178069,0 0.324274,0.142456 0.328023,0.320525 9.37e-4,0.05155 0.0253,1.275539 -0.196813,3.11715 -0.226805,1.879101 -1.078725,3.4836 -1.11434,3.551078 -0.05904,0.10965 -0.172446,0.172446 -0.28866,0.172446 z m -0.848172,-0.335516 c -0.02812,0 -0.05623,-0.0038 -0.08434,-0.01121 -0.175258,-0.04686 -0.279288,-0.225868 -0.232427,-0.401125 0.61762,-2.323337 -0.149016,-3.118088 -0.156514,-3.125586 -0.01218,-0.01218 -0.02906,-0.03092 -0.03936,-0.04498 L 24.957626,77.53393 c -0.106847,-0.146204 -0.07404,-0.351453 0.07216,-0.458294 0.146205,-0.106848 0.35239,-0.07404 0.458295,0.07216 l 1.498594,2.059044 c 0.175258,0.187441 0.98313,1.223056 0.31209,3.743205 -0.03843,0.146204 -0.171509,0.243674 -0.316776,0.243674 z m 0.119025,0.118088 c -0.08622,0 -0.170571,-0.03374 -0.232427,-0.09653 l -4.186503,-4.199625 c -0.127461,-0.128398 -0.127461,-0.336457 9.37e-4,-0.463918 0.128397,-0.128397 0.33552,-0.127459 0.463917,9.38e-4 l 3.853796,3.865042 0.753514,-1.632615 c 0.0056,-0.01218 0.303655,-0.648547 0.0065,-1.216494 -0.366449,-0.702906 -1.563262,-2.434865 -1.575446,-2.452672 -0.103095,-0.149015 -0.06561,-0.353327 0.08341,-0.45642 0.149017,-0.104033 0.353327,-0.06561 0.45642,0.08341 0.04967,0.07216 1.23149,1.783505 1.61762,2.522024 0.451733,0.865979 0.02249,1.764762 0.0038,1.80225 l -0.948454,2.053421 c -0.04498,0.09747 -0.134958,0.166822 -0.240862,0.185566 -0.01781,0.0047 -0.03749,0.0056 -0.05624,0.0056 z m 1.632616,3.997188 c -1.283037,0 -2.327085,-1.044049 -2.327085,-2.327085 0,-1.283037 1.044048,-2.327086 2.327085,-2.327086 1.283036,0 2.327084,1.044049 2.327084,2.327086 0,1.283036 -1.044048,2.327085 -2.327084,2.327085 z m 0,-3.997188 c -0.921275,0 -1.671041,0.748828 -1.671041,1.670103 0,0.921274 0.749766,1.670102 1.671041,1.670102 0.921274,0 1.670103,-0.748828 1.670103,-1.670102 0,-0.920338 -0.748829,-1.670103 -1.670103,-1.670103 z m 0,3.283036 c -0.88941,0 -1.612934,-0.723524 -1.612934,-1.611996 0,-0.88941 0.723524,-1.611996 1.612934,-1.611996 0.888471,0 1.611996,0.723523 1.611996,1.611996 0,0.888472 -0.723525,1.611996 -1.611996,1.611996 z m 0,-2.567947 c -0.527648,0 -0.955952,0.429241 -0.955952,0.955951 0,0.527647 0.429241,0.955951 0.955952,0.955951 0.52671,0 0.955951,-0.429241 0.955951,-0.955951 0,-0.527648 -0.429241,-0.955951 -0.955951,-0.955951 z m 8.384254,-1.960638 c -0.131209,0 -0.25492,-0.07873 -0.30553,-0.208997 -1.354264,-3.462042 -4.63074,-5.699156 -8.34864,-5.699156 -0.608248,0 -1.216495,0.06092 -1.805998,0.181818 -0.177132,0.03561 -0.350515,-0.07873 -0.387066,-0.255857 -0.03655,-0.177132 0.07779,-0.351453 0.255857,-0.387066 0.633551,-0.129336 1.28491,-0.194939 1.938144,-0.194939 3.989691,0 7.507029,2.401124 8.959699,6.116213 0.06655,0.168696 -0.01687,0.35895 -0.185566,0.424554 -0.0403,0.01687 -0.08061,0.02343 -0.1209,0.02343 z m -8.65417,12.671042 c -0.773197,0 -1.541705,-0.09186 -2.283974,-0.272724 -0.176195,-0.04313 -0.283973,-0.220249 -0.240861,-0.396445 0.04311,-0.176195 0.223054,-0.28303 0.396437,-0.240864 0.692596,0.168703 1.408623,0.253986 2.128398,0.253986 3.195876,0 6.173383,-1.721649 7.770384,-4.493912 0.08997,-0.157446 0.291471,-0.210869 0.447985,-0.120896 0.157451,0.09095 0.210871,0.291474 0.1209,0.447981 -1.714152,2.974702 -4.909091,4.822874 -8.339269,4.822874 z m 0.06373,-0.676662 c -4.882849,0 -8.856607,-3.97282 -8.856607,-8.85661 0,-4.883786 3.972821,-8.856608 8.856607,-8.856608 4.883786,0 8.856607,3.972822 8.856607,8.856608 0,4.88379 -3.973758,8.85661 -8.856607,8.85661 z m 0,-17.056235 c -4.521087,0 -8.199624,3.678537 -8.199624,8.199625 0,4.521081 3.678537,8.199625 8.199624,8.199625 4.521086,0 8.199625,-3.678544 8.199625,-8.199625 0,-4.521088 -3.678539,-8.199625 -8.199625,-8.199625 z m 0.10965,19.969071 c -6.614808,0 -11.995314,-5.381443 -11.995314,-11.995313 0,-6.613871 5.381444,-11.995314 11.995314,-11.995314 6.61387,0 11.995313,5.381443 11.995313,11.995314 0,6.61387 -5.381443,11.995313 -11.995313,11.995313 z m 0,-23.334582 c -6.253045,0 -11.339269,5.086223 -11.339269,11.339269 0,6.252111 5.086224,11.339266 11.339269,11.339266 6.253046,0 11.339268,-5.086217 11.339268,-11.339266 0,-6.252108 -5.087159,-11.339269 -11.339268,-11.339269 z m -9.478912,1.092784 c -0.05904,0 -0.119025,-0.01594 -0.173384,-0.04967 l -5.788191,-3.599812 c -0.153702,-0.09559 -0.200561,-0.298032 -0.104971,-0.451734 0.09559,-0.153702 0.297094,-0.2015 0.451733,-0.104971 l 5.788191,3.599812 c 0.153702,0.09559 0.200563,0.298032 0.104971,0.451734 -0.06092,0.100281 -0.168697,0.154639 -0.278351,0.154639 z m -5.788189,-3.598876 c -0.0094,0 -0.01781,0 -0.02718,-9.37e-4 -0.138707,-0.01121 -0.255858,-0.10965 -0.290534,-0.24461 l -0.505155,-1.940957 -0.532334,0.777883 c -0.102157,0.149015 -0.305529,0.18744 -0.456419,0.08528 -0.149954,-0.102157 -0.187442,-0.306467 -0.08528,-0.456419 l 0.939081,-1.372072 c 0.0731,-0.105909 0.2015,-0.160263 0.327086,-0.13777 0.126522,0.02155 0.228678,0.116214 0.261481,0.240863 l 0.450796,1.731021 0.79194,-1.781631 c 0.04873,-0.108712 0.152765,-0.183692 0.27179,-0.194002 0.115277,-0.01312 0.234302,0.04499 0.300843,0.144331 l 0.918464,1.37207 c 0.101219,0.150891 0.06092,0.354265 -0.08997,0.455483 -0.15089,0.100281 -0.354264,0.05998 -0.455483,-0.08997 l -0.587628,-0.878164 -0.931584,2.094658 c -0.05249,0.119026 -0.170572,0.194939 -0.299906,0.194939 z m -5.7019681,2.111528 c -0.045919,0 -0.09185,-0.0094 -0.136832,-0.02999 C 7.3662392,73.138431 7.2940738,72.944426 7.369988,72.779477 l 1.6907211,-3.693533 c 0.053424,-0.117151 0.1696344,-0.191191 0.2980319,-0.191191 l 2.568885,0 c 0.117151,0 0.225868,0.06279 0.284912,0.164949 0.0581,0.102157 0.0581,0.227742 -9.38e-4,0.328959 l -1.65417,2.840675 C 10.46652,72.38585 10.265958,72.43927 10.108507,72.347424 9.9519938,72.256505 9.8985736,72.055009 9.989483,71.898495 l 1.367385,-2.346766 -1.7872548,0 -1.6035604,3.501405 c -0.054362,0.119963 -0.1733832,0.191191 -0.2980319,0.191191 z m -5.5107779,3.46298 c -0.077788,0 -0.1546391,-0.02718 -0.2164948,-0.08153 C 1.8151625,76.51519 1.7926696,76.327746 1.8892019,76.190914 l 4.8172437,-6.839737 c 0.1040331,-0.148079 0.3083414,-0.18463 0.4573579,-0.07967 0.1480785,0.104033 0.1836927,0.309278 0.079666,0.457357 l -3.5248353,5.005623 c 1.2211803,-0.860357 2.960637,-1.905343 4.8790996,-2.493909 3.2446122,-0.997188 3.6307412,-1.149015 3.6635442,-1.163074 0.158388,-0.08997 0.343954,-0.02906 0.434864,0.128398 0.08997,0.157451 0.02249,0.364573 -0.134959,0.455483 -0.161198,0.09279 -2.432051,0.796625 -3.770384,1.208059 -3.4386134,1.056233 -6.3814431,3.72821 -6.4104965,3.754452 -0.06373,0.05436 -0.1433926,0.08341 -0.2230553,0.08341 z m -0.7891283,0.311154 c -0.062793,0 -0.1255857,-0.01781 -0.1827554,-0.0553 -0.1499531,-0.101219 -0.19025302,-0.304593 -0.089971,-0.455483 l 4.5023421,-6.716026 c 0.1012189,-0.15089 0.3036556,-0.19119 0.4554829,-0.08997 0.1499534,0.101219 0.1902534,0.304593 0.089974,0.455483 l -4.5023418,6.716026 c -0.062793,0.09466 -0.1668228,0.145268 -0.2727272,0.145268 z m 3.4442362,9.296156 c -0.9728211,0 -2.0468605,-0.172446 -2.2136833,-0.200563 C 2.4974477,86.097188 2.410288,86.034388 2.3624904,85.944424 L 1.2528383,83.851638 c -0.014058,-0.02718 -0.024368,-0.0553 -0.030927,-0.08528 -0.065605,-0.307403 0.01687,-0.985942 0.7966259,-1.34864 0.581068,-0.270857 1.0356134,-0.446114 1.2230549,-0.516405 -0.026242,-0.03093 -0.075914,-0.07779 -0.1686973,-0.138706 -0.3355201,-0.222119 -1.2380505,0.379569 -1.7591377,0.899718 -0.09372,0.09373 -0.2352389,0.121837 -0.35801307,0.07122 C 0.83296998,82.68294 0.75330731,82.562977 0.75330731,82.43083 l 0,-0.941893 c 0,-0.119962 0.0646678,-0.225866 0.16119962,-0.283037 C 0.80860227,81.143108 0.74487244,81.025958 0.75424457,80.901309 L 1.0400927,76.667944 c 0.00843,-0.128398 0.091846,-0.239925 0.2118088,-0.284911 0.02999,-0.01121 3.0805996,-1.162137 7.4348637,-3.362699 3.1574508,-1.596063 6.6925958,-3.800374 8.4170568,-4.904404 -1.182756,0.08716 -3.050609,0.235238 -4.954076,0.434864 -0.773197,0.0806 -1.541706,0.227742 -2.2596069,0.402999 -0.023429,0.01029 -0.035612,0.01594 -0.038426,0.01687 -0.045919,0.01968 -0.082469,0.02812 -0.1405808,0.02812 -2.0702909,0.524837 -3.682287,1.264293 -3.7038418,1.274603 -0.1312094,0.06092 -0.2867855,0.02812 -0.3833187,-0.07967 -0.096529,-0.107774 -0.1105881,-0.266166 -0.034674,-0.389878 0.049671,-0.08153 1.3167762,-2.027179 9.8416112,-5.074976 l 1.189316,-0.425492 c 7.662606,-2.742268 10.834114,-3.878163 14.418931,-3.970009 3.635426,-0.09373 5.683224,-0.466729 5.703842,-0.470478 0.170572,-0.03092 0.33927,0.07779 0.379569,0.248359 0.03936,0.17151 -0.06279,0.343019 -0.232427,0.389878 0,0 -6.5164,1.807874 -13.652295,3.758202 -4.207123,1.149952 -8.149953,2.600748 -10.651359,3.58669 2.970947,-0.298031 5.712277,-0.471415 5.740393,-0.472352 0.149954,-0.0094 0.283974,0.08247 0.331771,0.223055 0.0478,0.140582 -0.0056,0.295221 -0.129334,0.377695 -0.05155,0.03374 -5.156513,3.413309 -9.5463915,5.631677 -3.7563263,1.898781 -6.5538885,3.02343 -7.3017797,3.314902 l -0.2164949,3.213682 c 0.4536082,-0.34864 1.1040299,-0.728209 1.7900654,-0.728209 1.3177132,0 1.9315829,0.911902 2.4948443,2.384254 0.534209,1.396439 1.0431121,2.812559 1.0487348,2.826617 0.016874,0.04499 0.1733843,0.489222 -0.040302,0.932521 -0.1424547,0.296157 -0.4076842,0.508903 -0.786316,0.631678 -0.3045925,0.0984 -0.7216493,0.133084 -1.1593251,0.133084 z M 2.8657717,85.492688 c 0.7141517,0.106847 2.2539825,0.275539 2.9034676,0.06467 0.1996249,-0.06467 0.3327081,-0.1612 0.3955009,-0.287722 0.096529,-0.19494 0.016874,-0.425493 0.015935,-0.428305 -0.00561,-0.01594 -0.5135899,-1.425491 -1.044049,-2.816307 -0.5613871,-1.466729 -1.036551,-1.962511 -1.8819119,-1.962511 -0.9475163,0 -1.9175256,1.069353 -1.9278349,1.079662 -0.022493,0.0253 -0.048734,0.04686 -0.077788,0.06373 0.096532,0.05718 0.1611996,0.162138 0.1611996,0.283037 l 0,0.219307 c 0.5623242,-0.432052 1.4020617,-0.904406 2.0253044,-0.492971 0.3289597,0.217432 0.4939081,0.461105 0.4882849,0.722586 -0.00469,0.24836 -0.1696345,0.435802 -0.3092784,0.520151 -0.019681,0.01121 -0.039363,0.02155 -0.060919,0.02906 -0.00469,0.0018 -0.5342081,0.189316 -1.2586691,0.526711 -0.4114339,0.192127 -0.4414246,0.471415 -0.4348641,0.584817 l 1.0056214,1.894089 z M 32.947308,60.911621 c -0.570759,0.0328 -1.202437,0.05998 -1.890348,0.07779 -3.479849,0.08903 -6.622304,1.213683 -14.214619,3.931583 l -1.189315,0.425493 c -4.180882,1.494845 -6.5670112,2.71134 -7.9034683,3.546391 0.5698221,-0.193065 1.2314905,-0.393627 1.9447042,-0.567948 0.8594201,-0.372071 6.7966261,-2.899719 13.3711341,-4.697281 3.750703,-1.025305 7.329896,-2.011247 9.881912,-2.716026 z"
     inkscape:connector-curvature="0" /></svg>