<?xml version="1.0" encoding="UTF-8" standalone="no"?>
<svg
   xmlns:dc="http://purl.org/dc/elements/1.1/"
   xmlns:cc="http://creativecommons.org/ns#"
   xmlns:rdf="http://www.w3.org/1999/02/22-rdf-syntax-ns#"
   xmlns:svg="http://www.w3.org/2000/svg"
   xmlns="http://www.w3.org/2000/svg"
   xmlns:sodipodi="http://sodipodi.sourceforge.net/DTD/sodipodi-0.dtd"
   xmlns:inkscape="http://www.inkscape.org/namespaces/inkscape"
   height="11.288889mm"
   style="clip-rule:evenodd;fill-rule:evenodd;image-rendering:optimizeQuality;shape-rendering:geometricPrecision;text-rendering:geometricPrecision"
   version="1.1"
   viewBox="0 0 1128.9098 1128.9097"
   width="11.28889mm"
   xml:space="preserve"
   id="svg2"
   inkscape:version="0.91 r13725"
   sodipodi:docname="vk.svg"><metadata
     id="metadata16"><rdf:RDF><cc:Work
         rdf:about=""><dc:format>image/svg+xml</dc:format><dc:type
           rdf:resource="http://purl.org/dc/dcmitype/StillImage" /><dc:title></dc:title></cc:Work></rdf:RDF></metadata><sodipodi:namedview
     pagecolor="#ffffff"
     bordercolor="#666666"
     borderopacity="1"
     objecttolerance="10"
     gridtolerance="10"
     guidetolerance="10"
     inkscape:pageopacity="0"
     inkscape:pageshadow="2"
     inkscape:window-width="1440"
     inkscape:window-height="838"
     id="namedview14"
     showgrid="false"
     inkscape:zoom="8.6915473"
     inkscape:cx="39.823092"
     inkscape:cy="18.921853"
     inkscape:window-x="-8"
     inkscape:window-y="-8"
     inkscape:window-maximized="1"
     inkscape:current-layer="svg2"
     fit-margin-top="0"
     fit-margin-left="0"
     fit-margin-right="0"
     fit-margin-bottom="0" /><defs
     id="defs4"><style
       type="text/css"
       id="style6"><![CDATA[
    .fil0 {fill:#356396}
    .fil1 {fill:#FEFEFE;fill-rule:nonzero}
   ]]></style></defs><g
     id="Layer_x0020_1"
     transform="translate(3049.2139,-2077.1828)"><g
       id="_680639056"><path
         class="fil1"
         d="m 2960,2542 c 0,97 -18,182 -55,256 -37,73 -86,134 -148,182 -74,57 -155,99 -242,123 -88,25 -200,37 -336,37 l -783,0 0,-1954 691,0 c 144,0 253,5 326,17 74,11 144,34 209,69 70,38 122,88 157,151 35,63 52,136 52,218 0,95 -24,180 -72,254 -47,74 -114,129 -198,164 l 0,11 c 121,26 217,77 289,155 73,78 109,184 109,317 z m -629,-804 c 0,-31 -8,-64 -24,-97 -16,-33 -41,-57 -76,-72 -32,-14 -70,-22 -115,-23 -44,-1 -110,-2 -198,-2 l -34,0 0,414 62,0 c 84,0 142,-1 176,-3 34,-2 68,-11 104,-28 39,-18 66,-43 81,-76 15,-32 22,-70 22,-113 z m 124,796 c 0,-61 -12,-107 -37,-142 -25,-34 -61,-60 -110,-77 -30,-12 -71,-18 -123,-19 -52,-1 -122,-2 -210,-2 l -90,0 0,489 26,0 c 128,0 216,-1 265,-3 49,-2 99,-13 150,-35 44,-19 77,-47 98,-85 21,-37 31,-79 31,-126 z"
         id="path12"
         inkscape:connector-curvature="0"
         style="fill:#fefefe;fill-rule:nonzero" /></g></g><ellipse
     style="opacity:1;fill:#ffffff;fill-opacity:1;stroke:none;stroke-opacity:1"
     id="path4144"
     cx="1579.7224"
     cy="-1810.8375"
     rx="1230.6992"
     ry="1166.4089" /><path
     style="opacity:1;fill:#ffffff;fill-opacity:1;stroke:none;stroke-opacity:1"
     d="M 564.45497,0 A 564.45483,564.45483 0 0 0 0,564.45486 564.45483,564.45483 0 0 0 564.45497,1128.9097 564.45483,564.45483 0 0 0 1128.9098,564.45486 564.45483,564.45483 0 0 0 564.45497,0 Z m -182.62098,349.47695 173.19504,0 c 36.09079,0 63.39562,1.23672 81.6916,4.24442 18.54661,2.75679 36.07541,8.5365 52.36643,17.3085 17.5441,9.5241 30.58541,22.02435 39.35749,37.81407 8.77199,15.78978 13.06405,34.07473 13.06405,54.62642 0,23.81 -6.0498,45.11984 -18.08019,63.66655 -11.7795,18.54661 -28.5573,32.34942 -49.61031,41.12142 l 0,2.75623 c 30.3263,6.5164 54.38562,19.31209 72.43105,38.86139 18.2961,19.5491 27.34078,46.0977 27.34078,79.43161 l 0.22014,0 c 0,24.31119 -4.50734,45.61603 -13.78063,64.16266 -9.27332,18.29596 -21.55837,33.61103 -37.09747,45.64125 -18.54672,14.28607 -38.8299,24.79848 -60.63482,30.81359 -22.05548,6.26574 -50.14142,9.26045 -84.22724,9.26045 l -196.23626,0 0,-489.70845 z m 122.31694,89.68437 0,103.79577 15.54455,0 c 21.05301,0 35.57663,-0.27094 44.09804,-0.77161 8.52149,-0.50124 17.05026,-2.73987 26.07296,-7.00057 9.77461,-4.5114 16.5256,-10.8016 20.28509,-19.07239 3.7595,-8.0202 5.51224,-17.55599 5.51227,-28.33301 l 0.49616,0 c 0,-7.76958 -1.99817,-16.03822 -6.00837,-24.30904 -4.01011,-8.27079 -10.24508,-14.26555 -19.01727,-18.02508 -8.02012,-3.50879 -17.5506,-5.53716 -28.82911,-5.78786 -11.02779,-0.25118 -27.60989,-0.49615 -49.6654,-0.49615 l -8.48886,0 z m 0.22014,187.96787 0,122.59248 6.55958,0 c 32.08071,0 54.08655,-0.28222 66.36753,-0.77048 12.28082,-0.50236 24.86653,-3.25069 37.64872,-8.76451 11.02778,-4.762 19.26634,-11.75331 24.52954,-21.2773 5.26329,-9.27332 7.77226,-19.80562 7.77226,-31.58523 0,-15.28851 -2.99488,-26.83706 -9.26058,-35.60917 -6.26579,-8.52149 -15.28036,-15.03219 -27.56126,-19.2929 -7.51891,-3.00769 -17.83584,-4.48992 -30.86863,-4.74051 -13.0327,-0.25119 -30.53142,-0.55119 -52.58693,-0.55119 l -22.60023,0 z"
     id="path4148"
     inkscape:connector-curvature="0" /></svg>